<?xml version="1.0" encoding="UTF-8" standalone="no"?>
<svg width="58px" height="49px" viewBox="0 0 58 49" version="1.1" xmlns="http://www.w3.org/2000/svg" xmlns:xlink="http://www.w3.org/1999/xlink">
    <!-- Generator: Sketch 46.2 (44496) - http://www.bohemiancoding.com/sketch -->
    <title>Fill 1</title>
    <desc>Created with Sketch.</desc>
    <defs></defs>
    <g id="Page-1" stroke="none" stroke-width="1" fill="none" fill-rule="evenodd">
        <g id="The-50-States" transform="translate(-647.000000, -284.000000)" fill="#4A4A4A">
            <g id="Arkansas" transform="translate(602.000000, 238.000000)">
                <g id="Page-1" transform="translate(45.000000, 46.000000)">
                    <path d="M57.5361883,7.6107539 L57.3196758,7.24753147 L57.3397978,7.14602821 L57.3196758,7.14145062 L57.2530721,7.14145062 C55.5398866,7.19240127 53.8265,7.23359965 52.1135157,7.28315712 C51.3193011,7.30624414 50.525489,7.3289331 49.7312744,7.34784057 L49.6586341,7.32773894 L49.6407255,7.26862822 L49.6373048,7.20732822 L49.6753353,7.07059736 L50.0902506,6.27369729 L50.2011227,6.13000053 L50.3952998,5.80459303 L50.533739,5.65114399 L50.6134221,5.53451476 L50.6570868,5.48296703 L50.7136295,5.44176865 L50.7756052,5.41470112 L51.0100263,5.36016799 L51.0766301,5.33310046 L51.138807,5.29747481 L51.1899168,5.25766961 L51.2355937,5.19855889 L51.2665816,5.13029297 L51.2939474,5.05486212 L51.3114536,4.97704296 L51.3285573,4.84966633 L51.3462646,4.77881307 L51.3736305,4.71074618 L51.4154842,4.64845105 L51.4641794,4.59710234 L51.5812893,4.5186861 L51.6428626,4.4880361 L51.7919665,4.44683772 L52.0591864,4.3371744 L52.425004,4.13177958 L52.4809431,4.08719775 L52.5225956,4.03266463 L52.5572054,3.96459774 L52.5847725,3.89235131 L52.628236,3.60854025 L52.6537909,3.54345875 L52.6956446,3.49191102 L52.7501752,3.4542951 L53.0479805,3.36234509 L53.1099562,3.33169509 L53.1650904,3.28631717 L53.2139869,3.23954606 L53.2592613,3.17824605 L53.2866272,3.11614994 L53.3137919,3.04728695 L53.3282797,2.97563759 L53.3317004,2.90000772 L53.2757613,2.4756843 L53.282804,2.38751579 L53.3592676,2.04897258 L53.3665115,1.95941088 L53.3665115,1.87661607 L53.3484017,1.79899593 L53.3246578,1.73311833 L53.2896455,1.67181833 L53.2447735,1.6172852 L53.1934624,1.5659365 L53.1377246,1.52215078 L52.7501752,1.28530985 L52.70148,1.23077673 L52.6700897,1.16967575 L52.6537909,1.0942449 L52.642925,1.01622671 L52.628236,0.786550717 L52.6189799,0.721668244 L52.598053,0.669523434 L52.5572054,0.62951921 L52.4974431,0.59429161 L52.4499552,0.549709788 L52.4175589,0.502142576 L52.3008514,0.1807156 L52.2426988,0.0636883172 L52.2173451,0.0336353925 L52.2040646,0 L0,0 C0.235427176,1.78944269 0.47206167,3.5790844 0.708092506,5.36852709 C0.92400136,7.00770515 1.13709314,8.64708224 1.35561785,10.2858622 C1.60150845,12.1308332 1.84639296,13.9760032 2.09328967,15.8207751 C2.09550308,15.8370952 2.09751528,15.8530173 2.0997287,15.8691384 C2.0600884,17.7244587 2.0204481,19.579978 1.98100901,21.4352983 C1.94579555,23.0911945 1.90957598,24.7468917 1.87335642,26.402589 C1.83633197,28.0879411 1.80051485,29.7730941 1.76409406,31.4582472 C1.722844,33.363523 1.68139272,35.2684008 1.63974022,37.1734776 C1.61780726,38.1863208 1.59607552,39.1991641 1.57414256,40.2120074 L1.77415505,40.2587785 L1.88885034,40.5125366 L1.97436876,40.8003282 L2.1890703,40.9995532 L2.47279022,41.0809548 L2.76677236,41.0355769 L2.76677236,41.1219542 L2.62169288,41.26585 L2.70499788,41.3991974 L2.91929698,41.442386 L3.1684071,41.3201841 L3.40343184,41.44975 L3.5249686,41.3303344 L3.6072675,41.1080224 L3.72880427,40.9438259 L3.9251948,40.936661 L4.49283588,41.2246516 L4.65280563,41.1522061 L4.80372048,41.0180626 L4.97998904,40.9545733 L5.37840426,41.1830552 L5.6073924,41.2443552 L5.84905739,41.2306224 L6.06375892,41.1219542 L6.40200942,41.3743191 L6.57807675,41.4600994 L6.68915009,41.5052783 C6.70202816,43.2845706 6.72577209,45.064062 6.73985748,46.8433544 C6.74549164,47.5622362 6.75394287,48.2811181 6.76179044,49 C8.55345161,48.9970146 10.345314,48.9938302 12.1369752,48.9908448 C13.8519716,48.9878594 15.566968,48.9908448 17.2819645,48.9870633 C19.1474733,48.9828838 21.0129821,48.9830828 22.8786922,48.9804955 C24.5459995,48.9783062 26.2135081,48.976913 27.8810166,48.9749227 C29.7853609,48.9727334 31.6897052,48.96935 33.5940494,48.96935 C35.2339909,48.96935 36.8741335,48.9621851 38.5142762,48.9621851 L40.275352,48.9621851 L40.4375351,48.9518357 L40.4993096,47.5160622 L40.6011268,47.3435067 L40.828304,47.2483723 L41.0739934,47.1799073 L41.2267192,47.0881563 L41.2995608,46.8451456 L41.2707864,46.6057173 L41.1399935,46.1469624 L41.1299325,45.4599247 L41.0669507,45.2925438 L40.9120114,45.1651672 L40.5451877,45.0310237 L40.4210351,45.0073396 L40.2544251,44.7410428 L40.3832058,44.443499 L40.8180418,43.8790612 L40.8810236,43.616546 L40.9214688,43.2085427 L40.9120114,42.805117 L40.8977248,42.5551404 L40.5035352,42.1547001 L40.2721324,41.9660234 L40.0505894,41.8882043 L39.8596318,41.7857059 L39.6829608,41.5556318 L39.631851,41.3303344 L39.8155647,41.2246516 L40.0956627,41.2246516 L40.3544313,41.1798708 L40.5554499,41.0429409 L40.6592794,40.7519649 L40.6103829,40.4076499 L40.4242546,40.2213616 L39.9395161,39.9857148 L39.7083145,39.74967 L39.7427231,39.6222933 L39.9226136,39.527955 L40.1373152,39.3737099 L40.5938829,38.761904 L40.7011331,38.662789 L40.7771942,38.6112413 L41.0252982,38.3682306 L41.1399935,38.2820523 L41.2744083,38.2553828 L41.5889149,38.2408539 L41.7070309,38.1901023 L41.8555311,37.8955438 L41.7834944,37.6326305 L41.6518967,37.4103185 L41.5794575,36.9346464 L41.7999944,36.6233697 L41.9704276,36.2842294 L41.7796712,35.9044878 L41.6176893,35.8123388 L41.461744,35.7512378 L41.3432255,35.6545112 L41.2995608,35.4634462 L41.3959451,35.3647293 L42.0249582,35.2301878 L42.679325,34.895227 L42.9451364,34.8506452 L43.2220148,34.8554218 L43.4540213,34.8269611 L43.6437716,34.718691 L43.7926742,34.4709036 L43.7649059,33.9347276 L42.9181729,33.5229428 L42.9073071,33.1310606 L43.06285,32.9831843 L43.6437716,32.6271268 L43.830906,32.5588609 L43.9796074,32.4434258 L44.4325532,31.4206313 L44.4838643,31.3378365 L44.5599253,31.3141524 L44.7162731,31.3107689 L44.905621,31.3967482 L45.0203163,31.4206313 L45.0724322,31.3591322 L45.1108652,31.2172267 L45.2730483,30.9582939 L45.3144996,30.8446501 L45.2931703,30.6703033 L45.1895421,30.407589 L45.1513104,30.208563 L45.1547311,30.0821815 L45.2072495,30.0103331 L45.3529326,30.1197974 L45.4493169,30.170549 L45.5801098,30.1824906 L46.0712873,30.1275594 L46.3387084,30.0280464 L46.7673066,29.7961811 L47.1441913,29.3879788 L47.2365512,28.9777863 L47.2335329,28.4945512 L47.3550697,27.3109436 L47.1474109,26.3470607 L47.2476183,25.752371 L47.4480332,25.2601798 L47.6182652,24.9795531 L47.7623386,24.9343742 L47.987906,25.0736924 L48.2509003,25.0876242 L48.5004128,25.0123924 L48.6074618,24.8895934 L48.7766876,24.7056934 L48.7169254,24.4453674 L48.5827117,24.1679251 L48.5348214,23.9255115 L48.6698399,23.7438007 L49.977165,23.2346923 L50.5260927,22.8856007 L50.9208859,22.405948 L50.9347701,21.8108603 L50.5747879,21.3837505 C50.5313244,21.3045382 50.4856475,21.22652 50.4405742,21.1483028 L50.5717696,21.0418239 L50.7933126,20.9972421 L51.0695874,20.8863846 L51.5014051,20.6483495 L51.675259,20.4666388 L51.7992104,20.2510936 L51.8754727,20.0084809 L51.8992166,19.7348202 L52.0209546,19.4916104 L52.3008514,19.4846445 L52.6228031,19.5636579 L52.8608461,19.5805751 L53.1031147,19.2314835 L53.1137794,18.6560993 L52.9958646,18.064196 L52.764663,17.3640226 L52.7159678,17.0800125 L52.70148,16.432581 L52.7537972,16.1053822 L52.8956571,15.8788907 L53.5216519,15.3660007 L53.70114,15.1612029 L53.8432012,14.9287406 L53.9015549,14.6956811 L53.9049757,14.3320607 L53.961116,14.0942246 L54.1031772,13.9501298 L54.3864947,13.867733 L54.67605,13.8301171 L54.9430687,13.7544872 L55.0633981,13.5779512 L54.9086601,13.2346313 L54.7249464,12.971917 L54.6738366,12.8047352 L54.7490928,12.6735771 L54.9468918,12.5133611 L55.1577702,12.2868696 L55.1609897,12.1019744 L54.8321966,11.677651 L54.655928,11.3498552 L54.6667939,11.0974902 L54.8321966,10.9056292 L56.6236565,10.1286317 L57.3599198,9.5227966 L57.2530721,9.26346573 L56.9421875,9.04175078 L56.6343212,8.89307836 L56.7488152,8.63016503 L56.9214618,8.44905138 L57.1432061,8.34396565 L57.3981516,8.31172344 L57.7416338,8.58180171 L57.9201157,8.63016503 L58,8.36028579 L57.8454632,7.92541399 L57.5361883,7.6107539" id="Fill-1"></path>
                </g>
            </g>
        </g>
    </g>
</svg>