<?xml version="1.0" encoding="UTF-8" standalone="no"?>
<svg width="50px" height="58px" viewBox="0 0 50 58" version="1.1" xmlns="http://www.w3.org/2000/svg" xmlns:xlink="http://www.w3.org/1999/xlink">
    <!-- Generator: Sketch 46.2 (44496) - http://www.bohemiancoding.com/sketch -->
    <title>Fill 1</title>
    <desc>Created with Sketch.</desc>
    <defs></defs>
    <g id="Page-1" stroke="none" stroke-width="1" fill="none" fill-rule="evenodd">
        <g id="The-50-States" transform="translate(-806.000000, -281.000000)" fill="#4A4A4A">
            <g id="California" transform="translate(762.000000, 238.000000)">
                <g id="Page-1" transform="translate(44.000000, 43.000000)">
                    <path d="M9.82525519,26.4552203 L9.84333807,26.5305734 L9.84604205,26.5339677 L9.84621105,26.5339677 L9.90502265,26.6011745 L9.90823362,26.5809785 L9.90569864,26.5796208 L9.90586764,26.5787723 L9.87477185,26.5638374 L9.88541878,26.4626877 L9.8825458,26.46133 L9.8830528,26.4581055 L9.82525519,26.4552203 Z M9.55536402,26.2079467 L9.54792807,26.2266153 L9.52528223,26.2247484 L9.51311431,26.2525816 L9.51700128,26.302817 L9.51902927,26.3043444 L9.51919827,26.3057021 L9.55063206,26.3214855 L9.58899479,26.311133 L9.61552761,26.2367981 L9.61231664,26.2347616 L9.61316163,26.2337433 L9.55536402,26.2079467 Z M6.79797877,27.2510102 L6.77178395,27.2832559 L6.78243088,27.3003971 L6.7792199,27.3121074 L6.78276888,27.3003971 L6.78479686,27.3034519 L6.78158589,27.3149925 L6.80051376,27.2564411 L6.79493679,27.2618719 L6.79797877,27.2510102 Z M29.123741,56.0776472 L28.9415602,55.8393684 L28.7080038,55.6609988 L28.6101535,55.5556063 L28.5398499,55.4015058 L28.5116271,55.3614532 L28.4785033,55.3030715 L28.4518015,55.2401076 L28.4403096,55.1851202 L28.4180018,55.134715 L28.3637531,55.1191013 L28.2971676,55.1087488 L28.238018,55.0809156 L28.230075,55.215499 L28.3040965,55.3670538 L28.3951869,55.5096137 L28.4823903,55.7270176 L28.6671061,55.9865106 L28.7544785,56.1901677 L28.8609477,56.2828317 L28.9833029,56.3541116 L29.0742243,56.393655 L29.123741,56.3962007 L29.1587237,56.3819447 L29.1889745,56.3631065 L29.2236193,56.353263 L29.3562834,56.3561482 L29.417461,56.3461351 L29.4723856,56.3143985 L29.2462651,56.1397626 L29.123741,56.0776472 Z M29.3429325,52.9357281 L28.9248293,52.7726327 L28.8460758,52.7537944 L28.52295,52.5535317 L28.3929899,52.5204374 L28.2775637,52.5358814 L28.238018,52.6171745 L28.2934496,52.6933762 L28.4056648,52.7556613 L28.530893,52.797411 L28.6243494,52.8113275 L28.7531265,52.844931 L28.7980802,52.9294486 L28.8088961,53.1736674 L28.8362739,53.3023107 L28.8797066,53.4046484 L28.9495031,53.4706672 L29.0563104,53.4949364 L29.1037991,53.4822078 L29.2254783,53.423317 L29.2731359,53.4116067 L29.3403975,53.4285781 L29.5055094,53.5310855 L29.6016697,53.5465295 L29.6782262,53.5154718 L29.6981681,53.4358758 L29.411546,53.0092143 L29.3429325,52.9357281 Z M49.9712702,47.618582 L49.9704252,47.5396648 L49.8149463,47.4374969 L49.7579936,47.3741935 L49.711012,47.3338015 L49.6280335,47.288997 L49.2222673,46.9916577 L49.1499358,46.9052731 L49.1250929,46.88338 L49.0285946,46.8207555 L49.0051038,46.8000503 L48.96691,46.7572823 L48.9473062,46.7414989 L48.9278713,46.7342012 L48.9047184,46.7308069 L48.8413439,46.7286006 L48.8095721,46.7196058 L48.7843913,46.6917727 L48.7651254,46.6525687 L48.7502535,46.582307 L48.7441695,46.5263013 L48.7445075,46.521719 L48.7712094,46.4341465 L48.7928412,46.3472528 L48.7441695,46.2880226 L48.7363956,46.2842889 L48.7125668,46.1639615 L48.6601771,46.1057495 L48.5957885,46.0546655 L48.5378219,45.9582679 L48.530555,45.9194033 L48.5378219,45.7795588 L48.530555,45.7318691 L48.5145001,45.7059028 L48.4928682,45.6811246 L48.1751504,45.0263672 L48.0436693,45.0061712 L47.940918,44.94151 L47.8792334,44.8291592 L47.8702765,44.6635182 L47.8513486,44.5908805 L47.8131549,44.4960103 L47.7577232,44.4148869 L47.6889407,44.3790772 L47.6120462,44.3519229 L47.5787535,44.2806429 C47.5601636,44.0352362 47.5392077,43.7899992 47.5233218,43.5444227 C46.4211113,42.511542 45.3148449,41.4829042 44.2276753,40.4340704 C43.1602785,39.4042446 42.0954168,38.3720428 41.030724,37.3395016 C39.9577503,36.298814 38.8868046,35.2559202 37.8189008,34.2101413 C37.7605962,34.1531173 37.7026296,34.0960934 37.644325,34.0390694 C36.5429595,33.0082253 35.443115,31.9756841 34.3449605,30.9414457 C33.3078145,29.9649101 32.2725275,28.986338 31.2389306,28.0057293 C30.9959102,27.7750877 30.7528899,27.5446158 30.5100385,27.3141439 C29.3738593,26.309945 28.238525,25.3052369 27.1045427,24.2986619 C25.9741094,23.2953115 24.846211,22.2894154 23.7189887,21.2826707 C22.943791,20.5904065 22.1704522,19.8962754 21.3969445,19.2019745 C21.3856216,17.6996644 21.3959305,16.1966754 21.3959305,14.6943652 C21.3959305,13.2959201 21.3949165,11.8976448 21.3949165,10.4993694 C21.3949165,8.94054443 21.3950855,7.38154972 21.3944095,5.82272473 C21.3939025,4.2813803 21.3942405,2.74003587 21.3935645,1.19869144 C21.3933955,0.799184201 21.3935645,0.399507244 21.3935645,0 L0.875921044,0 L0.931690665,0.11778166 L0.951970527,0.1851582 L0.958899479,0.256098739 L0.937605624,0.859093316 L0.902115866,0.970765265 L0.782971676,1.22041486 L0.64996958,1.39793592 L0.64996958,1.43883705 L0.814236463,1.50740159 L1.0586088,1.68628036 L1.25329548,1.90402369 L1.26884337,2.08833332 L1.26225242,2.18931327 L1.32680998,2.34680806 L1.38325559,2.49123485 L1.42449131,2.55487767 L1.44291219,2.59068737 L1.43750422,2.76362615 L1.4410532,2.82523241 L1.470797,2.88887523 L1.51135672,2.9386015 L1.5586764,2.97627805 L1.61005205,3.0030929 L1.5434665,3.11849856 L1.57253431,3.32317389 L1.65263976,3.71674114 L1.63844386,3.91123362 L1.54279051,4.28477459 L1.5003718,4.62403329 L1.39153654,5.06512051 L1.30281214,5.28999184 L1.24535253,5.53234372 L1.16744406,5.62755339 L1.15493815,5.73413392 L1.1611911,5.85259443 L1.18468194,5.93439668 L1.176739,6.02434521 L1.33441493,6.27908624 L1.38376259,6.4148576 L1.37666464,6.56488496 L1.08463462,7.52156395 L0.870344082,7.86879921 L0.818968431,8.00881343 L0.908199824,7.96010546 L0.988812276,7.84673637 L1.20698979,7.45435712 L1.23419861,7.43433084 L1.43175826,7.45741198 L1.48634489,7.43433084 L1.53180558,7.47014054 L1.55276144,7.47794739 L1.47383898,7.62322276 L1.38376259,7.67685245 L1.27712432,7.69823644 L1.14817819,7.74541698 L1.08193064,7.82840723 L0.956533496,8.08569397 L0.902115866,8.1398328 L0.892989928,8.39644068 L0.847698236,8.51999263 L0.736158994,8.46704179 L0.667545461,8.4001744 L0.66906645,8.37862069 L0.696951261,8.24946818 L0.714189144,8.20025106 L0.567160143,8.39813783 L0.484181708,8.55172918 L0.41759616,8.74978566 L0.426891097,8.76845423 L0.446156966,8.79815421 L0.455113905,8.82581763 L0.434158048,8.83769762 L0.415230176,8.84363762 L0.399513283,8.85925133 L0.388359359,8.88148389 L0.376360441,8.953273 L0.240485365,9.20716545 L0.201615629,9.30186598 C0.171533834,9.41625335 0.141283039,9.53047102 0.110694247,9.64468868 L0.10004732,9.7512692 L0.0772324748,9.84834573 L0.0319407828,9.9544171 L0,10.0576033 L0.0155478943,10.144497 L0.0882174001,10.2773832 L0.233387413,10.6636528 L0.26617319,10.8240327 L0.209558575,11.1195051 L0.223754478,11.2703811 L0.30149395,11.3409822 L0.372642466,11.3754342 L1.01923207,11.961627 L1.28709525,12.1237041 L1.37936862,12.2112766 L1.56932333,12.4926628 L1.58047725,12.5364491 L1.59365916,12.6807061 L1.61613601,12.7351844 L1.65331576,12.7570775 L1.77229095,12.7986575 L1.81859663,12.8217386 L1.97204759,12.9700689 L2.66849185,13.9992158 L2.69468668,14.1051175 L2.71800852,14.3839579 L2.76634219,14.5290636 L2.80301494,14.6083201 L2.83275874,14.6432812 L2.88903535,14.6650046 L2.91776516,14.7179555 L2.93770702,14.7822772 L2.96694382,14.8396406 L2.99651862,14.9424874 L2.98367471,15.3845929 L3.12022578,15.7525333 L3.10112891,15.8119332 L3.03031839,15.8716727 L2.97674576,16.0099897 L2.92013114,16.2891696 L2.87162847,16.7251654 L2.79777598,16.9468122 L2.88903535,17.1708349 L2.88413439,17.2852223 L2.92756709,17.3295177 L2.96474684,17.4148839 L3.01696748,17.581713 L3.07459609,17.8668329 L3.12292976,18.0007374 L3.20252822,18.0569128 L3.38521598,18.4891749 L3.39231393,18.5541754 L3.38521598,18.7651302 L3.39603191,18.8291124 L3.44402758,18.9555495 L3.45467451,19.0224169 L3.43405665,19.179742 L3.382174,19.2595077 L3.31643345,19.3221322 L3.25204489,19.4300704 L3.27198675,19.6169258 L3.40988981,19.8277108 L3.7505915,20.2024398 L4.00899074,20.4142431 L4.05242344,20.4773768 L4.09653214,20.5700408 L4.19877645,20.6662687 L4.38450619,20.7986458 L4.53440817,20.9507097 L5.35591158,22.0618286 L5.51950247,22.2098194 L6.10694247,22.520057 L6.25295748,22.6756849 L6.37683364,23.0427768 L6.49716082,23.1648013 L6.49158386,23.4741903 L6.54904347,23.5690605 L6.54532549,23.5286685 L6.54904347,23.400704 L6.83194754,23.5946874 L6.92016494,23.6954976 L6.9406138,23.7448844 L6.96444264,23.8614781 L6.98353951,23.9122226 L7.11924559,24.0805791 L7.34891503,24.4570052 L7.5442777,24.690532 L7.62167917,24.8207028 L7.65395795,24.9676753 L7.56776854,24.8448022 L7.44439938,24.7312634 L7.33353613,24.6039777 L7.28537146,24.4385064 L7.23416481,24.3373567 L6.98032853,24.0732814 L6.88416819,23.9930066 L7.03052119,24.3575527 L7.04522409,24.5265881 L6.88416819,25.1365409 L6.7494761,25.3810991 L6.71787332,25.4763088 L6.84834043,25.4854733 L6.88416819,25.4763088 L6.92134793,25.4537368 L6.92878388,25.4379534 L6.93047387,25.4201334 L6.9850605,25.3385008 L7.01311431,25.2848711 L7.05215305,25.2315809 L7.11924559,25.1784603 L7.08612181,25.1579249 L7.06432096,25.1336558 L7.01666329,25.0511747 L7.05671601,25.036749 L7.09017779,25.0123101 L7.12042858,24.9766701 L7.14949638,24.9257559 L7.2351788,25.1148175 L7.37189887,25.2315809 L7.68420875,25.3885665 L7.71107956,25.4119871 L7.77580612,25.4620528 L7.82802677,25.5357087 L7.87450145,25.7028772 L7.93179206,25.7537915 L8.04941526,25.8145492 L8.11093085,25.8702154 L8.23345501,26.0429845 L8.2942946,26.0748908 L8.34516325,26.0329714 L8.36983709,25.9509994 L8.35074021,25.8562989 L8.62249037,26.0835462 L8.76613939,26.2405318 L8.93125127,26.3603501 L9.0000338,26.4265386 L9.08740621,26.4915392 L9.20350842,26.5265003 L9.31335767,26.5158083 L9.38061921,26.4497895 L9.37352126,26.3399844 L9.31656865,26.2535998 L9.28395187,26.1789256 L9.35036842,26.1095125 L9.38991415,26.2033644 L9.45244372,26.2376467 L9.49790441,26.2079467 L9.48624349,26.1095125 L9.43131887,26.0229582 L9.28074089,25.894824 L9.21753532,25.8145492 L9.24880011,25.7996143 L9.29003583,25.7537915 L9.31724464,25.7303709 L9.26891097,25.6682555 L9.27431893,25.5990121 L9.32146961,25.5431762 L9.46072467,25.4937893 L9.41391199,25.4379534 L9.28378287,25.3512294 L9.24694112,25.2315809 L9.24423714,24.8782359 L9.21753532,24.7137828 L9.40647604,24.7092006 L9.53474616,24.677464 L9.62870952,24.5900612 L9.71557493,24.417971 L10.2311904,24.7137828 L10.3161968,24.8207028 L10.3376597,24.8765388 L10.3919083,24.9243982 L10.4620429,24.9556256 L10.6187048,24.9875319 L10.8657811,25.0975067 L10.9626175,25.0958095 L11.025992,25.0812141 L11.0805787,25.0428587 L11.2526195,24.8811211 L11.2823633,24.8402199 L11.3038261,24.7889662 L11.3364429,24.664396 L11.3514838,24.6257012 L11.4013385,24.5854789 L11.4865139,24.5379589 L11.5787873,24.5016401 L11.6506118,24.4990944 L11.7351112,24.5612098 L11.7401812,24.641824 L11.6506118,24.8402199 L11.8721693,24.9087845 L12.1155276,24.9257559 L12.0780099,24.9994119 L12.054012,25.0269056 L12.0158183,25.0511747 L12.0758129,25.0737467 L12.1569323,25.070013 L12.2422768,25.0472713 L12.3147773,25.0140073 L12.3218752,24.948837 L12.3801798,24.9388239 L12.5503617,24.9676753 L12.6172852,24.963093 L12.800818,24.9257559 L12.9000203,24.8711079 L13.0044616,24.7441617 L13.1508146,24.4990944 L13.1808964,24.4990944 L13.1590955,24.6448789 L13.1143108,24.7601148 L13.0451903,24.8522696 L12.9517339,24.9257559 L12.9008653,24.9427273 L12.8442507,24.9532496 L12.791016,24.9715787 L12.7496113,25.0140073 L12.7332184,25.070013 L12.7389644,25.1236427 L12.7631312,25.1626769 L12.800818,25.1784603 L13.0188265,25.1434992 L13.1322247,25.0986947 L13.1808964,25.0325061 L13.1846143,24.948837 L13.1966133,24.9031839 L13.2657338,24.8207028 L13.2993646,24.8001674 L13.3304604,24.8084834 L13.3624011,24.8295279 L13.3989049,24.8402199 L13.4234097,24.8295279 L13.4602515,24.7742011 L13.4832353,24.7601148 L13.5956195,24.7584177 L13.680964,24.7798017 L13.7510985,24.8220605 L14.0823362,25.1059924 L14.1668357,25.1365409 L14.2193943,25.1823638 L14.3020347,25.2862289 L14.3672683,25.3885665 L14.3672683,25.4345591 L14.2863179,25.3999374 L14.1859325,25.3194928 L14.0972081,25.22021 L14.0507335,25.1365409 L13.967079,25.1535124 L13.8552018,25.1015798 L13.682316,24.9676753 L13.6618671,24.9257559 L13.6525722,24.8751811 L13.6336443,24.8295279 L13.5829446,24.7984702 L13.532076,24.8030525 L13.4906713,24.8320736 L13.4578855,24.8636405 L13.4318597,24.8799331 L13.3206584,24.8765388 L13.2692828,24.894189 L13.2476509,24.9457822 L13.2439329,24.9978844 L13.233793,25.0611878 L13.2187521,25.1148175 L13.1989792,25.1365409 L13.1535186,25.1450266 L13.1041709,25.1664106 L13.0646252,25.2010323 L13.0482323,25.242782 L13.0722301,25.2573774 L13.2175691,25.3050671 L13.1188738,25.3553025 L13.0171365,25.3442711 L12.8189008,25.2658632 L12.2285878,25.2039175 L11.9935104,25.1236427 L11.4001555,25.0511747 L11.2894612,25.0857964 L11.0648618,25.2327689 L10.9502805,25.2658632 L10.8536132,25.2327689 L10.6704184,25.0857964 L10.5653012,25.0511747 L10.4552829,25.070013 L10.3815994,25.1209272 L10.15193,25.3553025 L10.1012303,25.3800808 L10.0358278,25.3885665 L9.9852971,25.3756682 L9.93679443,25.3542843 L9.89927668,25.3553025 L9.86142094,25.4966745 L9.80345434,25.5935813 L9.72689786,25.6682555 L9.64915839,25.688791 L9.77793551,25.900764 L9.97160819,25.9912217 L10.1379031,26.1095125 L10.1833638,26.4037969 L10.1157642,26.6344385 L10.1139052,26.7685127 L10.2016156,26.8279127 L10.3025079,26.8438659 L10.5546542,26.9387361 L10.6486176,26.9950812 L10.4491989,27.080108 L10.4765768,27.0875755 L10.5487393,27.1245732 L10.5173055,27.21554 L10.5593862,27.2331902 L10.6847833,27.2094303 L10.7454539,27.2489737 L10.7760427,27.2981908 L10.8686541,27.5371484 L11.0750017,28.2487601 L11.1393903,28.3779126 L11.2159467,28.4671822 L11.3334009,28.4671822 L11.3663557,28.4771954 L11.3884946,28.5035011 L11.4182384,28.5552639 L11.4241533,28.5841153 L11.4175624,28.6272227 L11.4157034,28.6633719 L11.4348002,28.679325 L11.471642,28.6849256 L11.5509025,28.7249781 L11.4816129,28.7857358 L11.3832556,28.8105141 L11.2764483,28.8016889 L11.182485,28.7628244 L11.1253633,28.687641 L11.0731427,28.5807211 L11.0173731,28.5016342 L10.9502805,28.5091017 L10.8980599,28.4671822 L10.8458392,28.4121948 L10.7926046,28.3792703 L10.6885013,28.4271297 L10.6612925,28.3807977 L10.6416886,28.3098572 L10.6181978,28.2579246 L10.5485703,28.2132898 L10.4951666,28.2061618 L10.4610289,28.1786681 L10.4491989,28.0708996 L10.4152302,28.0495156 L10.2546813,28.075991 L10.2016156,28.0708996 L10.1186372,27.9510813 L10.0839924,27.9181568 L10.0436017,27.9047494 L9.95775029,27.8991488 L9.91482458,27.8804802 L9.85432299,27.82125 L9.84181708,27.7764454 L9.8377611,27.7245129 L9.80007436,27.6498386 L9.79720138,27.5892507 L9.82880416,27.1982291 L9.84249307,27.1420537 L9.87595484,27.1091292 L9.95099033,27.080108 L9.87443385,27.0814657 L9.85094301,27.0512566 L9.85161901,27.0018698 L9.84840803,26.9535012 L9.78300548,26.7006271 L9.7350098,26.637154 L9.6325965,26.6172974 L9.42422092,26.6242557 L9.3228216,26.6492037 L9.25082809,26.7006271 L9.16852565,26.9433184 L9.19860745,27.2094303 L9.26316501,27.4740147 L9.28378287,27.7129723 L9.25370107,27.823626 L9.16852565,28.007087 L9.15094977,28.1527018 L9.18120057,28.4254326 L9.23815318,28.4800805 L9.29966876,28.4906028 L9.36135334,28.4885662 L9.41678497,28.5091017 L9.49046846,28.618737 L9.54032313,28.8841701 L9.59795173,28.9951631 L9.66369229,29.0947854 L9.71050497,29.2202042 L9.73923477,29.3544481 L9.75190969,29.4776606 L9.72740485,29.7419057 L9.67738119,29.9828998 L9.67281822,30.2104866 L9.78486446,30.4368853 L9.93054147,30.558231 L9.99425404,30.6371481 L10.0206179,30.7545903 L10.0713175,30.8251914 L10.3829514,31.0655068 L10.6582505,31.4264889 L10.8089975,31.5761768 L11.181471,31.805291 L11.2769553,31.8446647 L11.3849456,31.859939 L11.4974988,31.8358395 L11.6037991,31.7949384 L11.6994524,31.7879801 L11.7804029,31.859939 L11.9431488,31.7562436 L12.0857838,31.7433453 L12.2186169,31.8181893 L12.350943,31.9843395 L12.6328331,32.5275947 L12.7496113,32.6932357 L12.649902,33.0669464 L12.6924897,33.0896881 L12.7337254,33.098683 L12.7752991,33.0896881 L12.8189008,33.0669464 L12.8373217,33.1102235 L12.8428987,33.1504458 L12.8364767,33.1898195 L12.8189008,33.2329269 L12.7044886,33.1981355 L12.6319881,33.1911772 L12.5941324,33.2517652 L12.5682755,33.5458799 L12.5273778,33.6694318 L12.4694112,33.7834798 L12.4007977,33.875974 L12.3026093,33.9302826 L12.2231799,33.8849689 L12.1449334,33.8084278 L12.0492801,33.7751638 L11.9713716,33.8196289 L11.905969,33.9190814 L11.8165686,34.1471773 L11.8975191,34.1743316 L11.9614007,34.2216819 L12.0175083,34.2525699 L12.064997,34.297035 L12.0854458,34.3778189 L12.063983,34.4316183 L11.9706956,34.4445166 L11.9494017,34.4974675 L11.9651186,34.6045571 L12.0854458,34.8939198 L12.1361455,35.1512066 L12.1486514,35.4113785 L12.1569323,35.4611047 L12.2181099,35.6367589 L12.2333198,35.7104149 L12.2372068,35.7531829 L12.2481917,35.789332 L12.2845265,35.8456771 L12.3350571,35.8874268 L12.3884608,35.9105079 L12.4305415,35.9480148 L12.4474414,36.0315142 L12.4694112,36.0919324 L12.5216319,36.1525204 L12.5831474,36.1990221 L12.7296694,36.2390746 L13.1954303,36.5552522 L13.3375583,36.7110499 L13.5829446,37.1244737 L13.6640641,37.344593 L13.7223687,37.4521918 L13.7982492,37.4980146 L13.9133374,37.5139678 L14.0100047,37.5557175 L14.0887582,37.620718 L14.1501048,37.6998048 L14.1984385,37.7939962 L14.2413642,37.9077047 L14.271615,38.0356692 L14.2829379,38.1712709 L14.3116677,38.2912588 L14.3816332,38.3793405 L14.5487731,38.5278404 L14.6645373,38.6992518 L14.7294328,38.7771506 L14.9048536,38.8696449 L14.9621443,39.0069437 L15.0135199,39.267455 L15.1992496,39.6326799 L15.3031839,39.6496514 L15.584398,39.7996787 L15.7582978,39.8295484 L15.9004259,39.9828003 L16.0452579,40.2697871 L16.2140877,40.466995 L16.3533428,40.6536806 L16.4875279,40.7828331 L16.6281349,40.8794005 L16.9578517,40.9316725 L17.0813898,40.9893753 L17.1388495,41.0626918 L17.1718042,41.1492461 L17.2143919,41.3123414 L17.2514027,41.37853 L17.347056,41.5071734 L17.3833908,41.5937276 L17.3063273,41.6420961 L17.2356858,41.6543156 L17.206111,41.6149419 L17.2505577,41.5151499 L17.2143919,41.4783219 L17.0813898,41.8644218 L17.0736159,42.0796194 L17.0871358,42.176017 L17.1346245,42.2691901 L17.2600216,42.3835775 L17.5505307,42.5018683 L17.6781248,42.5940231 L17.6997566,42.5651717 L17.7832421,42.5363203 L17.8851484,42.5208763 L17.9618739,42.5307197 L18.0020956,42.5605894 L18.094538,42.6559688 L18.1364497,42.6775225 L18.2216251,42.7094288 L18.2608328,42.7382802 L18.3051105,42.9212321 L18.3294464,43.1277743 L18.3145745,43.3584159 L18.2828027,43.5927912 L18.1350977,43.9666716 L18.1168458,44.1039704 L18.1388157,44.1552241 L18.2828027,44.2825098 L18.3204894,44.3283326 L18.3493882,44.3734766 L18.3703441,44.4267669 L18.382681,44.491428 L18.375752,44.6287268 L18.3013926,44.8620838 L18.2828027,44.9975157 L18.3448253,45.0857671 L18.3960319,45.1908202 L18.4338876,45.3035105 L18.4181708,45.457611 L18.37609,45.5647006 L18.3340093,45.6466726 L18.3017305,45.7413731 L18.2528899,45.9294164 L18.2086122,46.0258141 L18.239877,46.0933604 L18.3005476,46.1541181 L18.4257757,46.1928129 L18.5711147,46.233714 L18.6855269,46.2306592 L18.8651727,46.377462 L19.0057798,46.5753487 L19.120192,46.8044629 L19.3289056,46.8117606 L19.7889204,46.7102715 L20.5132495,46.6646184 L20.7483269,46.6848144 L20.9524775,46.7679743 L21.2010748,46.6934698 L21.4854999,46.7927526 L21.9847225,47.0457965 L22.0747989,47.0281462 L22.1836342,46.9835114 L22.2894274,46.955848 L22.3681809,46.989112 L22.4320625,47.0424022 L22.5437707,47.1101182 L22.6634219,47.1637479 L22.7518083,47.1741004 L22.8092679,47.1328599 L22.8496586,47.0782119 L22.8951193,47.0308617 L23.1374637,46.9758742 L23.2435949,47.0076108 L23.3622321,47.0040468 L23.4215507,47.0093079 L23.4751234,47.0334074 L23.5848036,47.1303142 L23.8955925,47.2718558 L24.0716893,47.3237884 L24.6576083,47.8485447 L24.7240249,47.8787538 L24.8396201,47.875699 L24.8933617,47.8874093 L24.9415264,47.9177881 L24.9607923,47.9681932 L24.9614683,48.0301389 L24.9773542,48.0849566 L25.0410667,48.119748 L25.0153789,48.188652 L25.0317718,48.2675691 L25.0743595,48.3500502 L25.1257351,48.4237061 L25.144663,48.4615524 L25.1603799,48.5350387 L25.1771108,48.5638901 L25.1999256,48.5808615 L25.2474143,48.5907049 L25.2764821,48.6086946 L25.4928006,48.8059025 L25.6203948,48.8765037 L25.7746907,48.8851591 L25.7045562,48.8681877 L25.6621375,48.8532528 L25.6288447,48.8605505 L25.6055229,48.8087877 L25.7677618,48.8393362 L26.17319,49.0886464 L26.6604137,49.2298486 L26.9025891,49.2556452 L27.0935578,49.3379566 L27.1816062,49.421456 L27.2694856,49.3683354 L27.3671669,49.3262463 L28.0737511,49.2427469 L28.1428716,49.2483475 L28.1915433,49.2715983 L28.229568,49.2761806 L28.2833097,49.2527601 L28.3573312,49.2099921 L28.4785033,49.2364675 L28.6240114,49.3349017 L28.7767863,49.4708428 L28.9620091,49.7619027 L29.0750693,50.031918 L29.1741026,50.2494916 L29.2045224,50.3548841 L29.2136483,50.4422869 L29.2067194,50.6338943 L29.1673427,50.7134902 L29.0988981,50.7944439 L29.0762523,50.891181 L29.1741026,51.0198244 L29.2067194,51.0379838 L29.2572501,51.0552946 L29.3121747,51.0585192 L29.3583114,51.0354381 L29.411546,51.0223701 L29.4610627,51.0744723 L29.5085513,51.1416792 L29.557054,51.1749432 L29.6055567,51.1878414 L29.6614953,51.2122803 L29.7182789,51.2282334 L29.7716826,51.2153351 L29.7972014,51.1795254 L29.8004124,51.1321752 L29.7980464,51.0783758 L29.8311701,50.9044187 L29.857872,50.8696273 L29.9220915,50.856729 L29.9599473,50.8417942 L30.002366,50.8171856 L30.0469817,50.8076816 L30.1666329,50.8950844 L30.2457243,50.8984787 L30.3439127,50.8821862 L30.4748868,50.8921993 L30.5669911,50.9332701 L31.2289596,51.5961738 L31.3998175,51.7317755 L31.9776246,52.0287753 L32.211181,52.2173278 L32.4121206,52.4781786 L32.5094639,52.5352025 L32.7256135,52.6672402 L32.8053809,52.7268099 L33.088116,53.0265252 L33.5381599,53.3450787 L34.2430541,54.3083766 L34.5021294,54.8596083 L34.5965997,55.1562687 L34.6079227,55.263019 L34.6513554,55.3336201 L34.7782735,55.9203221 L34.7770905,56.0143438 L34.7306158,56.1297494 L34.6738322,56.1901677 L34.6346245,56.251774 L34.6408774,56.3760048 L34.7622186,56.5620115 L34.7770905,56.6458503 L34.7716826,56.7654989 L34.7355168,57.0221067 L34.7458257,57.0816764 L34.7939904,57.1848627 L34.8149463,57.2583489 L34.8374231,57.2070952 L34.8622659,57.0234645 L34.9105996,56.9581245 L34.9748192,56.9272365 L35.007098,56.9272365 L35.0927804,56.9474325 L35.1779558,56.992237 L35.2864531,57.0406056 L35.3401947,57.0893136 L35.4199621,57.2037009 L35.4875617,57.3365872 L35.5056446,57.4387551 L35.4679578,57.488142 L35.4096532,57.4752437 L35.3723045,57.3987026 L35.3020009,57.2843152 L35.2482593,57.1765467 L35.1896167,57.1244444 L35.1789698,57.0479033 L35.0877104,57.0109056 L35.0175759,57.0109056 L34.9699182,57.074209 L34.9325695,57.1317421 L35.0716555,57.1317421 L35.1789698,57.2081135 L35.2594132,57.3413392 L35.3450957,57.5139385 L35.3611505,57.6595533 L35.3450957,57.7937972 L35.3743325,57.9582503 L35.4104982,58 L35.4115122,58 C36.9017441,57.8671138 38.3919759,57.7315121 39.8822078,57.5987956 C41.3724397,57.4662488 42.8626715,57.3323443 44.3527344,57.1981004 C45.2524843,57.116977 46.1522342,57.033817 47.052322,56.9560879 L47.055026,56.9633856 L47.0731089,56.8898994 L47.2574866,56.7536189 L47.7661732,56.8579931 L47.9723518,56.8103034 L48.0198405,56.7237492 L48.0249104,56.6197144 L48.0210235,56.5133035 L48.0392753,56.4124933 L48.1021429,56.3359522 L48.2826337,56.2103637 L48.3380653,56.13535 L48.3512472,56.0097615 L48.2743527,55.6394451 L48.2809437,55.5669771 L48.2920976,55.5113109 L48.2937876,55.4549657 L48.2743527,55.3813098 L48.1384777,55.183423 L47.9694788,55.0902499 L47.5277158,55.0585134 L47.3360711,54.9814631 L47.1900561,54.7769575 L47.206449,54.5751673 L47.2799635,54.3577634 L47.3051443,54.1064167 L47.2557967,53.7703825 L47.2225039,53.6914654 L47.0707429,53.5171689 L47.060096,53.4306147 L47.1065707,53.2685376 L47.1648753,53.2055736 L47.1836342,53.1561868 L47.1549043,53.0928834 L47.1156966,53.0467212 L47.065335,52.9730652 L47.0433651,52.9051795 L47.0896708,52.8749704 L47.3281282,52.8581687 L47.4477794,52.8216801 L47.5348138,52.7556613 L47.7149665,52.4148752 L47.7612722,52.2728244 L47.8101129,52.2124061 L47.9064422,52.1149902 L47.9723518,52.0287753 L47.9882377,51.9894016 L48.0061516,51.9121817 L47.9791117,51.784896 L47.9791117,51.7075063 L48.0230514,51.6723755 L48.0379233,51.6452212 L48.0426553,51.5793721 L48.0392753,51.4536139 L48.0629352,51.3108842 L48.1160008,51.2268757 L48.1727844,51.1610266 L48.2048942,51.0751512 L48.1519976,50.9687404 L48.1313797,50.9044187 L48.1572365,50.8752279 L48.1739674,50.8438307 L48.1790374,50.7757753 L48.1739674,50.7065319 L48.1572365,50.6763228 L48.0970729,50.61268 L48.0791591,50.4711383 L48.0783141,50.3212807 L48.0695261,50.2321807 L48.1575745,50.1598825 L48.1971203,50.1062528 L48.1900223,50.05449 L48.095214,49.9421392 L48.0554992,49.8771386 L48.0392753,49.8082347 L48.0695261,49.6778941 L48.1457446,49.5974496 L48.3380653,49.4694851 L48.4183398,49.3898891 L48.4943892,49.2941703 L48.5511729,49.1811407 L48.5912256,48.9314911 L48.6419252,48.8218557 L48.7205097,48.7398837 L48.8967755,48.6831992 L49.3927871,48.3284965 L49.4882715,48.3026999 L49.6418914,48.1020977 L49.8049753,47.9410389 L49.9594403,47.8224087 L50,47.7431522 L49.9712702,47.618582 Z M24.3387075,49.4148371 L24.270094,49.4027874 L24.2291962,49.3783486 L24.1707226,49.3610377 L24.12222,49.3640926 L24.11039,49.3783486 L24.123065,49.3971868 L24.2051984,49.4360514 L24.2508281,49.4302811 L24.3182586,49.4389365 L24.3839992,49.4231531 L24.3775772,49.404824 L24.3387075,49.4148371 Z M19.854492,49.2152532 L19.8093693,49.1840258 L19.7563037,49.1609447 L19.699351,49.1373544 L19.6658893,49.0956047 L19.6353005,49.0448601 L19.5842628,49.0000556 L19.563645,49.1105395 L19.4985804,49.1492344 L19.3517204,49.1609447 L19.26063,49.2267938 L19.2484621,49.2890789 L19.2878388,49.305032 L19.3517204,49.2396921 L19.4914825,49.3018075 L19.6205976,49.325228 L19.9192185,49.3206457 L19.8918407,49.2615852 L19.854492,49.2152532 Z M21.2365646,49.4883234 L21.180288,49.3550977 L21.1870479,49.2040521 L21.1115054,49.2676949 L21.026499,49.3033349 L20.734807,49.3206457 L20.6775164,49.3421994 L20.6236058,49.3730874 L20.5497533,49.4019388 L20.444129,49.3999023 L20.2399784,49.35968 L20.148888,49.4019388 L20.2404854,49.4864565 L20.3518556,49.6166273 L20.444805,49.7532472 L20.4835057,49.8613552 L20.5281214,49.9216037 L20.6320557,49.993902 L20.7498479,50.0415917 L20.8367133,50.0242808 L20.888089,49.9838889 L20.9349016,49.9825311 L20.9903333,49.9955991 L21.0695937,50.0040848 L21.1208004,49.9901683 L21.3761576,49.8182478 L21.4378422,49.7532472 L21.472149,49.6639776 L21.4829649,49.5209085 L21.3413439,49.5589245 L21.2365646,49.4883234 Z M26.1153924,52.4554369 L26.1153924,52.4513637 L26.0861556,52.4700323 L26.034104,52.4829306 L26.0192321,52.4958288 L26.030555,52.5173825 L26.0499899,52.5677877 L26.0677347,52.5983362 L26.0677347,52.5966391 L26.0704387,52.6012214 L26.1192794,52.5004111 L26.1172514,52.4544186 L26.1153924,52.4554369 Z M23.6037315,49.4072 L23.6532482,49.3411812 L23.6591631,49.2527601 L23.6412492,49.2441046 L23.5126411,49.1415972 L23.4739404,49.1244561 L23.4181708,49.120383 L23.3458392,49.1621327 L23.1574055,49.3262463 L23.1188738,49.3411812 L23.0642872,49.352552 L22.640776,49.1592475 L22.5419117,49.1492344 L22.3360711,49.1609447 L22.2508957,49.1415972 L21.9867505,49.0000556 L21.8569594,48.9934367 L21.8179206,49.0000556 L21.7858109,49.0212699 L21.7368012,49.0626801 L21.7075644,49.1032418 L21.7352802,49.120383 L21.8175826,49.1373544 L21.8823092,49.1824984 L21.9367268,49.2473292 L21.9867505,49.3206457 L21.9232069,49.4725399 L22.0445481,49.5877759 L22.2441357,49.6610924 L22.4161766,49.6840039 L23.4908403,49.4635451 L23.6037315,49.4072 Z M23.969276,53.7663094 L23.816501,53.7057214 L23.7925032,53.68281 L23.7140877,53.6291803 L23.6681201,53.6678751 L23.6135334,53.6928231 L23.5521868,53.6957083 L23.4850943,53.66499 L23.5412019,53.8357225 L23.6596701,53.961311 L23.819205,54.0388704 L23.9995268,54.0663641 L24.1577097,54.0113767 L24.115291,53.8907099 L23.969276,53.7663094 Z" id="Fill-1"></path>
                </g>
            </g>
        </g>
    </g>
</svg>