<?xml version="1.0" encoding="UTF-8" standalone="no"?>
<svg width="67px" height="48px" viewBox="0 0 67 48" version="1.1" xmlns="http://www.w3.org/2000/svg" xmlns:xlink="http://www.w3.org/1999/xlink">
    <!-- Generator: Sketch 46.2 (44496) - http://www.bohemiancoding.com/sketch -->
    <title>Fill 1</title>
    <desc>Created with Sketch.</desc>
    <defs></defs>
    <g id="Page-1" stroke="none" stroke-width="1" fill="none" fill-rule="evenodd">
        <g id="The-50-States" transform="translate(-319.000000, -459.000000)" fill="#4A4A4A">
            <g id="Connecticut" transform="translate(282.000000, 408.000000)">
                <g id="Page-1" transform="translate(37.000000, 51.000000)">
                    <path d="M66.9693374,20.6936676 C66.9536704,18.8061146 66.9413606,16.9187841 66.9265888,15.0312312 C66.9104742,12.9957265 66.8952548,10.9602217 66.8784687,8.92471703 C66.8619064,6.87653074 66.8493728,4.82834444 66.8330344,2.78015815 C66.83102,2.52719402 66.8287819,2.27422988 66.8267676,2.02126575 L66.8061766,1.522012 C64.9236726,1.50888545 63.0420638,1.49820622 61.1600073,1.46082894 C59.0442886,1.41900197 56.9287936,1.37695253 54.8130748,1.33490308 C52.7134706,1.29307612 50.6138665,1.25280654 48.5142623,1.21253696 C46.5276845,1.17449223 44.5413305,1.13444513 42.5549765,1.09506549 C41.8768185,1.08149398 41.1984366,1.0701473 40.5202786,1.05813318 L39.8951646,1.38162469 L39.5970436,1.39564117 L39.1447145,1.31866176 L38.3351773,1.0688124 L33.5600942,0.994947763 L33.3653756,2.0564182 L31.8698468,2.20414747 L31.8268744,0.994947763 L29.9490705,0.822522781 C28.0918575,0.749770564 26.2346445,0.679465668 24.3772077,0.608938289 C22.1589818,0.524394427 19.940756,0.439628081 17.7225301,0.354639252 C15.9808054,0.287894098 14.2388569,0.221816395 12.4971322,0.155293725 L8.43512218,0 C8.30195253,2.02393555 8.17415443,4.04831608 8.04747541,6.0726966 C7.92974896,7.95379752 7.80418901,9.83423099 7.68601493,11.7153319 C7.56716941,13.6048872 7.45996225,15.4953325 7.33126889,17.3842203 C7.19228007,19.427512 7.06470578,21.4712486 6.93892202,23.5154302 C6.81425732,25.5433704 6.67191128,27.5701983 6.54724658,29.5981386 C6.43623457,31.4033725 6.32410349,33.2088289 6.19943879,35.0133954 C6.72965543,35.9371483 7.25472432,36.8635711 7.79143158,37.7835418 L8.31448615,38.5395419 L7.7594261,38.958034 C6.04814017,40.0061554 4.3424496,41.0631761 2.63698285,42.1210868 C1.92256685,42.5642747 1.20680797,43.0059051 0.491049089,43.447313 L0,43.7741418 L0.194047201,44.0978558 C0.754478796,44.9891261 1.31938668,45.8770591 1.88854704,46.7627673 L2.00157338,46.8967026 L2.15354345,47.0092794 L2.23836916,47.0831441 L2.35161931,47.2308733 L2.52485176,47.6240023 L2.64906883,48 L3.44831053,47.5536974 L3.87982496,47.3356632 L4.00359439,47.2764825 L4.11662073,47.1004978 L4.83439395,47.6771759 L5.49957074,47.628007 L6.13609928,47.1779222 L6.7339079,46.5347214 L7.05217217,46.9245131 L7.70660587,45.8138737 L8.27240901,46.0383599 L8.64036011,45.9967554 L9.92393646,45.1593262 L10.4084949,44.948634 L11.9364768,43.9218711 L12.2124401,43.8411095 L12.4702744,43.3456379 L13.0857644,43.0014554 L13.7650415,42.800775 L14.2245327,42.7342523 L14.5110153,42.6321322 L14.9040337,42.1853847 L15.1902925,42.0799273 L15.4769989,42.1571292 L15.968048,42.4387938 L16.2688547,42.4243323 L16.5130364,42.2349986 L16.9548463,41.6405217 L17.0893588,41.5170432 L17.2023851,41.4367265 L17.3160829,41.0391479 L17.4568623,40.8631632 L17.5316163,40.9125546 L17.6446426,41.0464899 L17.7753503,41.1655187 L17.9309014,41.1728607 L19.1018991,40.28693 L19.3353376,40.2377611 L19.7386514,40.5085239 L19.9121077,40.8144392 L20.1489035,40.989979 L20.7746889,40.8631632 L21.2346278,40.6736069 L21.4112175,40.5116387 L21.5316297,40.2517776 L21.8604132,39.7525238 L22.168382,39.4926627 L22.9289038,39.1375784 L23.2789497,38.8172017 L23.6469008,38.5927155 L24.6439946,38.5257479 L25.0750614,38.3606649 L25.3906399,38.0293864 L26.2850028,36.7710178 L27.579546,35.5195461 L27.67131,35.2874955 L27.9577926,34.8407479 L28.2762807,34.5423971 L28.4215363,34.7530893 L28.5133003,35.8216792 L28.7782967,36.3425139 L29.2310735,36.5038147 L31.2718144,36.444189 L31.6328272,36.6301855 L31.8873044,36.7145069 L32.4533313,36.271764 L32.8141204,36.1453932 L34.1364166,36.0541748 L34.6070986,36.1453932 L34.9468491,36.3425139 L35.2543702,36.5845763 L35.5938969,36.7636758 L36.0357068,36.7710178 L36.3116701,36.588136 L36.580919,36.264867 L36.8985118,35.9694085 L38.8792704,35.5195461 L39.6782883,35.7478146 L41.11473,36.4408517 L41.4963338,36.1453932 L41.7517062,36.1453932 L41.8434701,36.3807811 L41.9352341,36.4760042 L42.0592273,36.5603256 L42.2467839,36.7710178 L42.6854604,36.1382737 L43.3958477,35.6463619 L44.1740509,35.3297674 L44.8425849,35.2345443 L46.3204323,35.7938687 L47.0489486,35.8499346 L47.7036061,35.2345443 L47.5731222,35.1675767 L47.2338194,34.8939216 L47.5910274,33.8035282 L47.2649296,33.0866853 L46.6883834,32.4821967 L46.2895459,31.7359858 L46.9466653,31.8069582 L47.4594244,32.1197705 L47.7960415,32.5591761 L47.9717359,33.0166029 L47.951145,33.4382097 L47.8166324,33.7897342 L47.7257637,34.1065512 L47.837671,34.440277 L48.0532044,34.6227137 L48.5348533,34.8374107 L48.7830636,35.0654566 L49.8998981,35.5542536 L52.0153931,34.288988 L52.9484759,34.8939216 L53.1539376,33.6840544 L54.0697867,33.7474623 L55.1984834,34.2255801 L56.060617,34.2671846 L56.3869386,33.7474623 L56.6026958,32.6646334 L57.0060096,32.3900883 L58.6470178,33.9588219 L60.8538291,32.7772102 L61.182165,32.7002308 L63.4494062,32.643275 L63.8918876,32.731601 L64.3513788,32.9778907 L64.6913531,33.283806 L64.7018724,33.5403298 L64.1463647,33.642005 L64.1463647,33.9588219 L65.2954285,33.7970762 L65.5109619,32.8893421 L65.8187069,30.5761775 L66.023721,29.95745 L66.2511166,29.5921315 L66.7036696,29.4722127 C66.8061766,27.8925774 66.9068932,26.3131646 67,24.7330843 C66.9901522,23.386612 66.9798567,22.0401398 66.9693374,20.6936676" id="Fill-1"></path>
                </g>
            </g>
        </g>
    </g>
</svg>