<?xml version="1.0" encoding="UTF-8" standalone="no"?>
<svg width="27px" height="65px" viewBox="0 0 27 65" version="1.1" xmlns="http://www.w3.org/2000/svg" xmlns:xlink="http://www.w3.org/1999/xlink">
    <!-- Generator: Sketch 46.2 (44496) - http://www.bohemiancoding.com/sketch -->
    <title>Page 1</title>
    <desc>Created with Sketch.</desc>
    <defs></defs>
    <g id="Page-1" stroke="none" stroke-width="1" fill="none" fill-rule="evenodd">
        <g id="The-50-States" transform="translate(-499.000000, -440.000000)" fill="#4A4A4A">
            <g id="Delaware" transform="translate(442.000000, 408.000000)">
                <g id="The-50---Main-Badge-Copy" transform="translate(49.000000, 32.000000)">
                    <polygon id="Page-1" points="15.5255039 0 13.3310423 0.0853329706 11.4908746 0.927861035 9.64897864 3.0750114 8.58609709 5.44964435 8 5.48183324 8.67942327 21.4978597 8.97020347 25.5819605 9.07908402 27.8334547 9.39622023 32.7998336 10.4104944 47.3172402 10.4686072 47.3135677 10.6481305 50.0764116 10.8609229 53.4698554 11.0626975 57.0240277 11.2646882 60.1225866 11.3655756 62.5736952 11.5189589 64.3563982 23.9909666 64.7150127 27.7912003 64.8048823 27.9387507 64.8050984 30.7627319 64.8098511 32.7271185 64.7984014 33.6290556 64.7947288 33.5880094 64.4577176 33.9228603 64.4521007 34.1836119 64.5028684 34.3959722 64.6214705 34.5642618 64.7891119 34.5774398 64.802506 35 64.7880318 34.6735744 60.8447844 34.5774398 60.2046791 34.5867292 59.795729 34.3860347 57.3692481 34.3015658 57.3202087 34.1615766 57.6278394 34.1481825 58.3126635 33.9446796 58.6390891 33.2060633 59.5706227 32.927381 59.5935222 32.6221266 59.210712 32.3345869 58.7410566 32.1014874 58.4751202 31.1531033 58.5485714 29.7199414 59.5446988 29.1344924 59.4258807 29.3498772 59.2899961 29.5503557 59.0862771 29.7287988 58.8142918 29.8776454 58.4751202 29.1344924 58.4751202 29.7819429 57.7032349 32.269561 57.0240277 33.09243 56.2311871 32.4613981 56.2311871 31.9422712 56.0158024 31.5028604 55.6684216 31.1135693 55.2812908 31.2343316 55.2378682 31.3350029 55.2266344 31.3833943 55.1585841 31.6177899 55.1339564 31.8154599 55.2112961 32.3285379 55.2812908 31.6253511 53.927413 32.2872757 54.1231387 33.5378898 53.6815676 33.8565382 54.0004321 34.065658 56.2346437 34.3130156 56.4921548 33.8446564 50.8349029 33.6128532 48.9132908 33.5031085 48.7115162 33.1399573 48.6730623 33.1954777 48.8394076 33.0481433 49.2811947 31.9433514 49.526608 30.6415375 48.986958 29.9413751 48.3360511 29.763148 48.3172562 29.4572455 47.8562421 27.8143158 45.9439195 25.9199238 43.4636465 25.4232643 42.7766621 25.3999328 41.9108024 25.5243677 41.9285171 24.9097543 38.8295261 22.2687529 35.9994959 22.0963586 27.3707123 17.9979997 22.2513822 15.2937006 17.7092918 16.2790264 12.8725326 14.5494675 10.7063714 18.9379586 5.90633776 19.4199278 5.66027636 19.4637825 4.63541658 19.9846377 3.62049432 21.171306 2.91903569 21.7474656 2.37506501 21.4314096 1.94083901 19.6372569 0.640537362"></polygon>
                </g>
            </g>
        </g>
    </g>
</svg>