<?xml version="1.0" encoding="UTF-8" standalone="no"?>
<svg width="62px" height="60px" viewBox="0 0 62 60" version="1.1" xmlns="http://www.w3.org/2000/svg" xmlns:xlink="http://www.w3.org/1999/xlink">
    <!-- Generator: Sketch 46.2 (44496) - http://www.bohemiancoding.com/sketch -->
    <title>Page 1</title>
    <desc>Created with Sketch.</desc>
    <defs></defs>
    <g id="Page-1" stroke="none" stroke-width="1" fill="none" fill-rule="evenodd">
        <g id="The-50-States" transform="translate(-641.000000, -453.000000)" fill="#4A4A4A">
            <g id="Florida" transform="translate(602.000000, 408.000000)">
                <path d="M48.6898064,45 L47.397167,45.0023945 L39.2689839,45.0023945 L39.216105,45.1346915 L39.230073,45.5772778 L39.2184995,45.6225741 L39.0496862,45.9883363 L39.0189566,46.0837178 L39.0067845,46.1419844 L39,46.1998518 L39.0115735,46.2736827 L39.0454958,46.3507063 L39.1269093,46.4788129 L39.2202954,46.5959446 L39.612996,46.9832575 L39.6582922,47.0532971 L39.8263074,47.3643846 L39.9414437,47.5258148 L40.0567795,47.6182032 L40.7112805,48.0184864 L40.7753338,48.0781498 L40.8046666,48.1120721 L40.8144442,48.2062564 L40.8068615,48.3449387 L40.7539827,48.6733864 L40.6893307,48.9194229 L40.5494511,49.1700489 L40.518921,49.251662 L40.5087444,49.2921692 L40.5281,49.4438218 L40.6793536,49.8937912 L40.6867367,49.9025711 L40.8236232,49.9819892 L40.8814906,50.0278841 L40.9513307,50.0566183 L41.1143573,50.0390585 L41.1839978,50.0566183 L41.2542369,50.1478094 L41.2947441,50.2775123 L41.2899551,50.3904537 L41.215326,50.4419357 L41.0185766,50.4864338 L40.8667244,50.6023683 L40.6288692,50.891107 L40.6288692,50.9555593 L40.7274434,51.0255989 L40.7326316,51.118985 L40.67217,51.2149652 L40.5785844,51.2873993 L40.4800102,51.311544 L40.2776736,51.3067549 L40.1792989,51.3448677 L40.3219721,51.3947534 L40.460854,51.4671875 L40.1601428,51.5084929 L40.0667567,51.5376262 L39.9943226,51.5869133 L39.9440378,51.6427853 L39.8887644,51.6910747 L39.7949792,51.7299856 L39.7949792,51.7994265 L39.8819799,51.7587198 L40.0615686,51.7080358 L40.1288146,51.7299856 L40.2684946,51.6497693 L41.424447,51.4049301 L41.6070288,51.323317 L41.5778956,51.1523087 L41.6599077,51.123774 L41.8672329,51.0926453 L41.9368734,51.0537345 L41.9674034,50.9623438 L41.9432587,50.7302753 L41.963213,50.6406805 L42.1140675,50.5468953 L42.2994429,50.5323287 L42.4562837,50.475459 L42.5231306,50.2561612 L42.5562547,50.2830995 L42.5662319,50.2924781 L42.5829935,50.3142282 L42.6332783,50.3142282 L42.8252386,49.95106 L42.856966,49.8357242 L42.8212478,49.6697045 L42.6697947,49.4312506 L42.6332783,49.3159148 L42.6043446,49.0158022 L42.6332783,48.9146339 L42.7516073,48.896675 L42.8451929,48.9537443 L42.8882942,49.0501236 L42.9463612,49.1319362 L43.0854427,49.1530877 L43.0688806,49.1959895 L43.0489263,49.3073344 L43.0327633,49.3502362 L43.2105561,49.3739818 L43.2799971,49.5092719 L43.3067358,49.6752917 L43.3620092,49.7992078 L43.3155157,49.9297089 L43.3015477,50.0837561 L43.3474426,50.1917089 L43.4719574,50.1871194 L43.5541691,50.0837561 L43.6098416,49.7610951 L43.7124067,49.5427951 L43.8878049,49.0307679 L43.9309062,48.9625242 L43.9384888,48.8701358 L43.8612657,48.7035174 L44.0346685,48.8044862 L44.1238643,48.9992401 L44.2072732,49.1245531 L44.3615199,49.0227862 L44.4074148,49.080055 L44.4169929,49.110186 L44.4237773,49.1530877 L44.1454149,49.2772035 L44.0270859,49.3787708 L43.9789961,49.5132628 L43.9911682,49.6052521 L44.0320745,49.6499497 L44.092536,49.6649154 L44.17375,49.6649154 L44.2098673,49.7062208 L44.3202145,49.8890022 L44.3930477,49.9297089 L44.5297346,49.9430783 L44.7127155,49.9915673 L44.8809303,50.0741781 L44.9793049,50.1871194 L44.9669333,50.2878886 L44.8492029,50.2487781 L44.6979494,50.1655687 L44.5905952,50.122667 L44.0612078,50.5562739 L43.9147432,50.5828131 L43.4697624,50.5876021 L42.9792858,50.7202982 L42.6745837,50.8641687 L42.6067391,50.8805312 L42.5562547,50.9220361 L42.5231306,51.0255989 L42.9313955,50.9743164 L43.7413404,50.7478351 L45.0058442,50.5762282 L45.4623985,50.57104 L45.6932697,50.5323287 L45.8728583,50.4419357 L46.0460616,50.5127735 L46.7071475,50.4419357 L47.3410955,50.480248 L47.4352798,50.4118047 L47.4310894,50.2681338 L47.4426628,50.2276266 L47.6318296,50.2561612 L47.7329979,50.2250325 L47.8343657,50.087747 L47.9062012,50.0566183 L48.0121585,50.0478384 L48.1183153,50.0131179 L48.2140959,49.964629 L48.297904,49.899977 L48.3154638,49.8311347 L48.2741584,49.5958736 L48.2689703,49.4847281 L48.3370144,49.6072475 L48.4178293,49.6966428 L48.4950524,49.7110099 L48.5507249,49.6072475 L48.6101887,49.5591577 L48.6898064,49.5402011 L48.8845603,49.5449901 L48.699584,49.7976115 L48.6630676,49.936693 L48.7744126,50.0566183 L48.9182831,50.0757744 L49.0310248,50.006533 L49.1319936,49.9153419 L49.2469303,49.8690479 L49.4061656,49.851089 L49.7593567,49.7563061 L49.9155988,49.7373495 L50.2614068,49.7976115 L50.4246329,49.7850403 L50.5571294,49.6649154 L50.6559032,49.9165391 L50.7618605,50.006533 L50.9059305,49.9750052 L51.117047,49.8690479 L51.1116593,50.0256891 L51.0523951,50.0709854 L51.0118879,50.1138871 L51.0577827,50.2561612 L51.3050165,50.5253447 L51.3120005,50.5762282 L51.3770515,50.6454696 L51.3670743,50.7749729 L51.2876562,50.844813 L51.1435862,50.7350644 L51.0617736,50.6883713 L50.6722657,50.5762282 L50.4511721,50.4008299 L50.3358363,50.3281962 L50.2236931,50.3142282 L50.1199308,50.3691026 L50.1392865,50.4371467 L50.2374616,50.4896265 L50.3627746,50.5111771 L50.4008873,50.5381154 L50.3767426,50.5975793 L50.3246619,50.6622312 L50.2741775,50.6989471 L49.9064198,50.6073569 L49.816825,50.5277392 L49.7575608,50.4223805 L49.7234389,50.3142282 L49.7162554,50.3236068 L49.7068769,50.3094392 L49.6677664,50.3142282 L49.6220711,50.4102084 L49.5793689,50.5397118 L49.5187078,50.6502586 L49.4183377,50.6989471 L48.8845603,50.5762282 L48.2310571,50.5548771 L48.1009551,50.5111771 L48.0941706,50.5397118 L48.0941706,50.5658519 L48.084393,50.5808176 L48.295709,50.7202982 L49.2736691,50.8330399 L50.6722657,51.2175592 L51.7060978,51.5354312 L52.6507342,52.0296991 L53.3473387,52.3761057 L54.3254983,53.0944604 L54.5176582,53.1429493 L54.4554008,53.0537536 L54.405116,52.9936912 L54.4695684,52.97673 L54.5729316,53.0848823 L54.6363863,52.9505899 L54.4985021,52.8252769 L54.349643,52.7320903 L54.2849911,52.6167545 L54.40771,52.4389617 L54.3065417,52.337993 L54.2293186,52.231437 L54.138327,52.1480281 L53.9892684,52.1139062 L53.8136706,52.1432391 L53.7059174,52.1909298 L53.6145267,52.1909298 L53.4874179,52.0853716 L53.4293509,51.9191523 L53.5129594,51.7946375 L53.6622175,51.7102308 L53.7971086,51.6723177 L54.0539204,51.6427853 L54.1485037,51.5759384 L54.2418898,51.4101182 L54.3404641,51.6046726 L54.4458227,51.7563252 L54.5202523,51.8952072 L54.5176582,52.0560388 L54.6146361,52.087367 L54.6719049,52.012738 L54.7295728,51.9097738 L54.8209635,51.8566954 L54.9341044,51.8159886 L55.0542292,51.7435545 L55.1476153,51.7299856 L55.1861271,51.8566954 L55.3301972,51.7587198 L55.5275451,51.4194967 L55.6067637,51.3448677 L55.6883768,51.3923589 L55.7608109,51.5035043 L55.8641741,51.7299856 L55.6696197,51.7196093 L55.3515483,52.0971446 L55.1567943,52.0199215 L55.0318804,52.0390776 L54.690662,52.4672968 L54.5176582,52.5676669 L54.5831083,52.6598558 L54.6401776,52.7241086 L54.7080222,52.7751916 L54.9913732,52.9140735 L55.0681972,52.97673 L55.1302551,53.0848823 L55.2707334,53.0465701 L55.4577051,53.1213987 L55.6354979,53.239129 L55.7456456,53.334311 L55.7632054,53.2866202 L55.7845565,53.2485075 L55.7989236,53.2072021 L55.8013181,53.1429493 L55.9527712,53.2030117 L56.0778846,53.1619059 L56.2053926,53.0966553 L56.3588411,53.0848823 L56.3588411,53.1429493 L56.2413103,53.243918 L56.2101816,53.387589 L56.2674505,53.4717961 L56.413915,53.4001602 L56.4458419,53.5394412 L56.4282821,53.8563154 L56.5011153,54.0129566 L56.6238342,54.0722209 L56.7048486,53.9928028 L56.8032233,53.7816863 L56.8756574,53.7411791 L56.8826414,53.7629293 L56.8804465,53.8112187 L56.9141692,53.8517259 L56.9790207,53.8589095 L57.1117167,53.8517259 L57.1683869,53.8802606 L57.2051029,53.9810298 L57.1089231,54.0295187 L56.9790207,54.0654364 L56.9141692,54.1368728 L56.7844663,54.2117014 L56.4963262,54.0939711 L56.2101816,53.8828546 L56.0800796,53.6857062 L55.9388032,53.5482211 L55.4074203,53.3849949 L55.4122093,53.2117916 L54.9169437,53.1237932 L54.8522918,53.1429493 L54.9217327,53.2511016 L55.3276031,53.6543779 L55.4361545,53.7044632 L56.4745761,54.555514 L56.3131458,54.5515231 L56.12358,54.430201 L55.9553653,54.258594 L55.8641741,54.1021523 L55.8013181,54.1021523 L55.8204742,54.1875567 L55.8418253,54.2504128 L55.8733531,54.3060853 L55.9138603,54.3633541 L56.1527133,54.5706792 L57.084978,55.0078779 L57.2192704,55.1174269 L57.3659345,55.2692791 L57.4816694,55.4400879 L57.5297593,55.6132912 L57.5870281,55.7485813 L57.8470326,56.0868067 L57.9236571,56.2885446 L57.8875398,56.945041 L57.8975169,57.0529937 L57.925453,57.0911064 L57.8683837,57.1777081 L57.774798,57.2643097 L57.6977744,57.3076105 L57.584434,57.302622 L57.5225757,57.2643097 L57.3086657,56.9396533 L57.2192704,56.7425049 L57.1620016,56.5317875 L57.1406505,56.318077 L57.1620016,55.6737527 L57.1406505,55.5823621 L57.0171334,55.7890886 L57.0416772,56.2687899 L57.1977198,57.0529937 L57.2723488,57.1874857 L57.4072399,57.3287621 L57.5676724,57.4035907 L57.8777622,57.2643097 L58.058149,57.2690987 L58.2481139,57.302622 L58.4233127,57.3076105 L59.372339,56.9973212 L59.7017844,56.9831537 L60.3489023,57.0529937 L60.4564559,56.9901377 L60.6206798,56.7399108 L60.8270072,56.7097798 L60.9680841,56.4715255 L61.076835,56.4108644 L61.2017489,56.3633732 L61.306908,56.2767716 L61.415659,56.2256886 L61.5477564,56.2885446 L61.3057108,56.6828415 L61.2691944,56.7588674 L61.306908,56.9236899 L61.3988973,56.891763 L61.5168272,56.7885993 L61.6265759,56.7289359 L61.7860107,56.6950136 L61.9159132,56.6177905 L62.108073,56.4683328 L62.2327874,56.4302201 L62.451686,56.4014859 L62.5528543,56.3458134 L62.9631146,55.9519156 L63.208752,55.777116 L63.6050444,55.6655715 L63.9416733,55.3892045 L64.3860555,55.1301977 L64.4772467,55.2261779 L64.6099427,55.2146044 L64.7631917,55.161925 L64.9220279,55.1301977 L65.2582578,55.161925 L65.5641572,55.2626942 L65.5641572,55.3199631 L65.5300353,55.3542844 L65.4528122,55.4550536 L65.6840825,55.3153736 L65.7900398,55.0984704 L65.7319728,54.8989274 L65.4793514,54.8107294 L64.9775009,54.7454789 L64.9008764,54.6981872 L64.8908992,54.5944248 L64.8615664,54.5046305 L64.7296685,54.4960502 L64.8334309,54.351581 L64.9559502,54.3894942 L65.1139883,54.4936556 L65.3881603,54.5756678 L65.5926918,54.6614713 L65.7056332,54.6828224 L65.7247893,54.6447097 L65.5613636,54.4475612 L65.5084847,54.3633541 L65.4845396,54.3974759 L65.4238785,54.4595338 L65.4025274,54.4960502 L65.3670087,54.4110449 L65.342864,54.3633541 L65.3642151,54.288725 L65.3761877,54.2671744 L65.3719973,54.2482178 L65.342864,54.1709947 L65.4025274,54.1021523 L65.4338556,54.1304874 L65.4554063,54.1448545 L65.5084847,54.1709947 L65.5056911,54.0225347 L65.5593682,53.9455111 L65.8499027,53.7842804 L65.9456833,53.7649247 L66.2032933,53.7816863 L66.2150663,53.7389841 L66.2631562,53.6404099 L66.3310008,53.5346521 L66.4030358,53.4696011 L66.4461371,53.4670071 L66.4864448,53.4885577 L66.512984,53.5131015 L66.508195,53.5266704 L66.6764097,53.5266704 L66.7243,53.5051198 L66.770594,53.4193163 L66.8228742,53.4001602 L66.8719618,53.4091396 L66.8929138,53.4328852 L66.9070813,53.4576286 L66.9310265,53.4696011 L66.9942816,53.5242759 L67.0299998,53.6378159 L67.072702,53.7196285 L67.1549137,53.6857062 L67.3229289,53.5775539 L67.9095852,53.5266704 L68.1707869,53.4169218 L68.3302218,53.4019561 L68.9266557,53.8922331 L69.6925016,54.3785193 L70.0582639,54.5367569 L70.2532173,54.4960502 L70.4264206,54.6933981 L70.5263916,54.7766076 L70.6686658,54.8107294 L70.7692354,54.8664019 L71.1250205,55.1373812 L71.2020441,55.2285724 L71.2718842,55.3461032 L71.5773844,55.6687642 L71.6468254,55.8707016 L71.6827431,55.9205874 L71.7597667,55.9668813 L71.8367903,56.0239506 L71.8705131,56.1209285 L71.9132153,56.3436185 L71.9199997,56.4395986 L71.9704841,56.5962399 L72.0918062,56.7764272 L72.2382707,56.9396533 L72.3699691,57.0529937 L72.6491297,57.1803021 L72.7044031,57.224002 L72.8005828,57.3177872 L72.8702233,57.3700675 L73.0356444,57.437513 L73.196077,57.4642518 L73.3363557,57.506954 L73.4321363,57.6244848 L73.46546,57.8188396 L73.454086,58.0351442 L73.4010076,58.2213178 L73.314805,58.326876 L73.3626953,58.4180671 L73.4010076,58.5525591 L73.4109847,58.6852552 L73.3696794,58.7710586 L73.5762063,58.9251058 L73.6827623,58.9775856 L73.7635772,58.965613 L74.1768306,59.4558901 L74.4005183,59.6364765 L74.6024558,59.6031528 L74.7706705,59.7450278 L74.9107497,59.8960819 L75.1601784,60.2376994 L75.300058,60.5136673 L75.3214091,60.5286331 L75.3329826,60.723387 L75.3525378,60.8161745 L75.3810724,60.876636 L75.458096,60.9608431 L75.588198,61.0428553 L75.7346626,61.1045141 L75.859776,61.1310533 L75.9753114,61.1817372 L76.0493418,61.299268 L76.1048148,61.4297691 L76.1642786,61.5113822 L76.0708925,61.5999792 L76.0657044,61.684785 L76.129159,61.7468429 L76.2468894,61.7705885 L76.2895916,61.8214719 L76.2971742,61.9294247 L76.3326928,62.0377765 L76.4701779,62.0876623 L76.5761353,62.0830728 L76.6310096,62.0730956 L76.77488,62.0184208 L76.8962022,61.9972693 L77.1258761,61.991283 L77.2196613,61.9607529 L77.3639309,62.0517445 L77.5441182,62.1263736 L77.7312895,62.133158 L77.8931188,62.0184208 L77.9284379,62.0709006 L78.0232208,62.1622913 L78.058939,62.2129752 L78.1231919,62.1694749 L78.2872162,62.0876623 L78.2872162,62.2736363 L78.3065718,62.4173072 L78.3712238,62.5244618 L78.5113029,62.5992904 L78.3377005,62.7058464 L78.4286921,62.8638844 L78.7317979,63.1051318 L78.7246144,63.14524 L78.7246144,63.424201 L78.7002701,63.5155917 L78.6599624,63.6115719 L78.7058573,63.6862009 L78.8012389,63.7295018 L78.8976181,63.7388803 L78.8445397,63.9240562 L78.887641,64.0852869 L79.229059,64.5105129 L79.2869264,64.5580042 L79.3487848,64.5819493 L79.505426,64.6040986 L79.5610985,64.6278442 L79.6471015,64.7465723 L79.6688517,64.8806651 L79.6089888,65.3280405 L79.6165714,65.4266147 L79.6760352,65.7005872 L79.4740977,65.4455713 L79.3447939,65.3711417 L79.2310544,65.5122186 L79.2532037,65.5942308 L79.4142348,65.8037509 L79.4551412,65.9264698 L79.4814808,65.9595939 L79.5369538,65.9595939 L79.5940231,65.9749588 L79.6205623,66.050386 L79.6205623,66.368657 L79.6381221,66.4596486 L79.6618677,66.5245001 L79.6570786,66.5873561 L79.5902317,66.6779486 L79.5610985,66.7455937 L79.566087,66.8276058 L79.5902317,66.9068244 L79.6205623,66.9688823 L79.5395478,67.1297139 L79.5106141,67.9230967 L79.4256088,68.1996633 L79.4094458,68.3078156 L79.3990696,68.8052762 L79.2222745,69.1151664 L79.2310544,69.1824124 L79.2310544,69.2396812 L79.1356729,69.3488312 L78.8421452,70.1240556 L78.9006113,70.1054981 L78.9241573,70.0917297 L78.9554856,70.0621973 L78.9722472,70.1821226 L78.9052007,70.3126237 L78.7317979,70.569236 L78.669341,70.8282427 L78.618657,70.9519594 L78.5113029,71.0720842 L78.4340798,71.0212008 L78.3973639,71.1435206 L78.3879854,71.324107 L78.3931735,71.4488214 L78.4362748,71.6798921 L78.4843646,71.8191731 L78.5615878,71.9516696 L78.4865596,72.0326841 L78.4652085,72.1456254 L78.4530364,72.3890678 L78.2750441,73.2279464 L78.003067,73.9652577 L77.9623602,73.8333598 L77.9795209,73.6721291 L78.0397829,73.5154878 L78.1168065,73.3955625 L78.0322003,73.4763774 L77.9414082,73.606679 L77.8687746,73.7635198 L77.8376459,73.931934 L77.8540084,74.1099263 L77.9312315,74.3711281 L77.9483922,74.4934479 L78.061134,74.707358 L78.5591932,75.197635 L78.6713364,75.4989449 L78.6956806,75.6497994 L78.7611307,75.8541314 L78.8523219,76.0175571 L78.9554856,76.0395068 L78.96227,75.924171 L78.9065975,75.7242289 L78.7866722,75.4097492 L78.6904925,75.2435299 L78.2054036,74.7153397 L78.1407516,74.5874327 L78.1712817,74.4605233 L78.3255284,74.6139719 L78.6426022,74.8663937 L78.7866722,75.034808 L78.9333363,75.2559016 L79.0319105,75.3177599 L79.2077079,75.3407073 L79.2222745,75.3808155 L79.2122974,75.5807575 L79.2310544,75.6579807 L79.2767497,75.6984879 L79.3322227,75.7148504 L79.4814808,75.7148504 L79.6137778,75.659577 L79.7055676,75.525085 L79.7343018,75.3590653 L79.6760352,75.2106053 L79.777004,74.9284516 L79.7871806,74.8687882 L79.8107267,74.821297 L79.9212735,74.6812179 L79.9549963,74.5898272 L79.9549963,74.4802781 L79.9120945,74.286921 L79.900122,74.1791678 L80.1587296,74.0225265 L80.2315628,73.9652577 L79.8833604,74.0091571 L79.5700779,73.8858396 L79.2675708,73.7100422 L78.9554856,73.5833325 L79.0843903,73.4290857 L79.4601297,73.3241261 L79.5610985,73.2079921 L79.2601877,73.2079921 L79.1857581,73.1890356 L79.1831641,73.1453356 L79.2310544,73.0786883 L79.2362425,73.0373829 L79.2767497,72.9370128 L79.2869264,72.8639801 L79.2729584,72.7995277 L79.2021207,72.6552581 L79.1809691,72.5754409 L79.5106141,72.8959069 L79.5082196,72.7995277 L79.5106141,72.7703944 L79.5610985,72.7703944 L79.6283444,72.8687691 L79.7289141,72.9537744 L79.9549963,73.0786883 L79.9549963,73.1453356 L79.7871806,73.2079921 L79.7871806,73.2780317 L80.0435934,73.2820226 L80.2575034,73.3289152 L80.4023716,73.446446 L80.4544523,73.6815076 L80.4023716,74.1232957 L80.4139451,74.3525706 L80.5149138,74.5277693 L80.5875475,74.547125 L80.8752884,74.5590976 L80.9141993,74.4675073 L80.8994331,74.3737221 L80.8485497,74.2440192 L80.8587264,73.9073902 L80.8924491,73.7611252 L80.9644841,73.6523743 L81.1328984,73.5559951 L81.2745739,73.5711603 L81.3731481,73.6815076 L81.4477772,74.0616369 L81.6084093,74.4437617 L81.6321549,74.6526832 L81.565308,74.7923633 L81.3013127,75.088086 L81.2430461,75.1808734 L81.0153676,75.3407073 L80.9762572,75.4027652 L80.8485497,75.6579807 L80.7918795,75.6960934 L80.7172504,75.7194399 L80.6541948,75.7675298 L80.6254606,75.8738862 L80.6013159,75.9453225 L80.3758324,76.1255098 L80.267281,76.3134793 L80.2094136,76.5032447 L80.1309932,76.6684662 L79.9549963,76.785997 L79.9885195,76.8731973 L80.0100701,76.906521 L79.9136909,77.0196619 L80.0174532,76.9745651 L80.1473557,76.955409 L80.0968713,77.0657563 L79.9857259,77.1473694 L79.7482698,77.2118217 L79.6205623,77.2788682 L79.7388912,77.303412 L79.8374655,77.3399283 L79.9260625,77.3946031 L80.0100701,77.4670372 L79.8374655,77.4788102 L79.6257504,77.3712566 L79.4282029,77.3105955 L79.2869264,77.4670372 L79.3376103,77.524306 L79.3930833,77.5656114 L79.4523476,77.575389 L79.5106141,77.5372763 L79.5610985,77.5372763 L79.566087,77.6276693 L79.5513209,77.7092823 L79.5130086,77.7839114 L79.4551412,77.8461688 L79.36395,77.7555763 L79.1502395,77.6546076 L79.0656333,77.5917515 L79.0227315,77.5205147 L78.8976181,77.2192048 L78.8421452,77.2192048 L78.8710789,77.3638735 L79.0275206,77.7769274 L79.1211062,77.909823 L79.2490133,77.9640987 L79.5513209,78.0169776 L79.865601,78.2532365 L80.0200473,78.3338518 L80.134984,78.4539767 L80.2247784,78.894368 L80.3949885,79.24277 L80.4041675,79.4710472 L80.3490936,79.4710472 L80.3229535,79.4153747 L80.2964143,79.3892346 L80.267281,79.372473 L80.2315628,79.3417433 L80.2337578,79.5388918 L80.334527,79.7166846 L80.469418,79.8966723 L80.5657973,80.0940203 L80.6254606,80.0940203 L80.6254606,79.9691064 L80.7094682,80.0287698 L80.7653403,80.127344 L80.7940744,80.2568474 L80.7940744,80.4110941 L80.750175,80.3651992 L80.7214408,80.319903 L80.6833281,80.2179365 L80.7286244,80.4230667 L80.9211833,80.8004024 L81.0025968,81.1232629 L81.7407063,82.5940941 L81.7939842,82.7732837 L81.8269088,82.8076051 L81.8680147,82.8387338 L81.9665889,82.8979981 L81.9278776,82.7593157 L81.8205235,82.5454056 L81.7939842,82.4031315 L82.0150778,82.6439799 L82.2527335,83.420202 L82.4949787,83.5854236 L82.5696077,83.5878181 L82.6276747,83.6001898 L82.7430106,83.6408965 L82.8072634,83.6818028 L82.8844865,83.7560328 L82.940159,83.7713976 L82.9882489,83.7614205 L83.0119945,83.7398698 L83.0263616,83.7203146 L83.0523022,83.7111356 L83.0914126,83.7300922 L83.1684362,83.8206847 L83.1949754,83.838045 L83.2456593,83.8041227 L83.3053227,83.7370762 L83.353213,83.6744197 L83.3607956,83.6408965 L83.4304361,83.7398698 L83.4591703,83.9966816 L83.5312053,83.9581698 L83.5846828,83.838045 L83.5767011,83.7031539 L83.5048656,83.3024716 L83.3747636,82.9680376 L83.3316623,82.8979981 L83.2813775,82.8403301 L83.1684362,82.5593736 L83.081635,82.458804 L83.0219716,82.5254513 L82.9323769,82.4444369 L82.6975148,82.1489138 L82.600936,81.9801004 L82.5773899,81.9062695 L82.7454051,81.989878 L82.8361971,82.0908468 L82.9978269,82.3672138 L83.1179518,82.3991406 L83.2522442,82.3283029 L83.3340568,82.3021628 L83.3053227,82.458804 L83.4541817,82.6318077 L83.5427788,82.7090309 L83.5812906,82.679299 L83.6297795,82.5940941 L83.7309478,82.5787293 L83.8293225,82.547002 L83.8650407,82.4031315 L84.0528106,82.454015 L84.1992751,82.4244826 L84.3391548,82.3672138 L84.6697975,82.2981719 L84.8455948,82.1297576 L84.9830799,82.0860577 L84.8819116,82.3648193 L84.8366154,82.4294712 L84.7597913,82.4703775 L84.5812004,82.5086897 L84.1759286,82.7519326 L84.0166933,82.8742524 L84.0051198,82.9919828 L84.1703414,83.1318624 L84.2812873,83.1867367 L84.3411502,83.2705448 L84.3605059,83.4926361 L84.3437442,83.696569 L84.1442013,84.7495572 L84.1392127,84.9530911 L84.1773254,85.0925716 L84.3199986,85.415033 L84.3605059,85.5782592 L84.3487328,85.7893756 L84.3072279,85.9226703 L84.2930603,86.0322194 L84.3605059,86.1908561 L84.4878143,86.332332 L84.588783,86.3299375 L84.7019239,86.2606961 L84.8645514,86.1908561 L84.8645514,86.3187631 L84.9439695,86.2800518 L85.1337348,86.2243793 L85.1991849,86.1908561 L85.2323091,86.1427662 L85.4777469,85.4393773 L85.5669426,85.29411 L85.8333325,85.0087635 L85.9901733,84.8782624 L86.1242661,84.8235877 L86.2787124,84.8012389 L86.4728677,84.6861026 L86.5931921,84.6380127 L86.5588707,84.7473623 L86.515969,84.8283767 L86.453512,84.8934277 L86.3718989,84.9530911 L86.2876918,84.9054003 L86.1961016,84.9441116 L86.1242661,85.0227315 L86.0929379,85.1069387 L85.7375519,85.4609279 L85.6441657,85.5782592 L85.6768908,85.8073345 L85.5242404,86.0535705 L85.3069381,86.2660838 L85.0860441,86.4153419 L85.0503259,86.4578445 L85.0138095,86.4921659 L84.9515521,86.5057349 L84.8936847,86.4791956 L84.8384113,86.3782269 L84.804888,86.3760319 L84.7569977,86.4578445 L84.7352475,86.5903411 L84.7352475,86.7240349 L84.7544037,86.8132306 L84.804888,86.7465832 L84.8505834,86.7918795 L84.8745285,86.801258 L84.9830799,86.7465832 L85.427063,86.993817 L85.5936814,86.993817 L85.6315945,87.0171635 L85.6679114,87.0606638 L85.7227857,87.0850081 L85.761497,87.0606638 L85.7948207,86.982443 L85.7640911,86.7559617 L85.761497,86.6234652 L85.817369,86.7623471 L85.9801961,87.0490904 L86.0380636,87.1829837 L86.0785708,87.3615746 L86.0929379,87.9240863 L86.0380636,87.9240863 L86.0380636,87.8644229 L85.9825906,87.8644229 L86.0115243,88.0120847 L86.2541686,88.4572651 L86.2593567,88.4856002 L86.2609531,88.5458621 L86.2114664,88.8559519 L86.2809074,89.562334 L86.4273719,90.2094518 L86.4870352,90.2094518 L86.4820467,90.1108776 L86.4848403,90.0146979 L86.504595,89.9257017 L86.5375196,89.8418937 L86.676601,90.488812 L86.8065035,90.7184859 L87.0377738,90.8996709 L86.9683329,90.9828804 L86.9898835,91.0938263 L87.0669071,91.1977881 L87.1551051,91.2670295 L87.2323282,91.2859861 L87.4173045,91.262041 L87.5372299,91.2670295 L87.5106906,91.3723882 L87.4484332,91.4935108 L87.3692147,91.5932823 L87.2943861,91.6369822 L87.2033945,91.589491 L87.1126024,91.4951072 L87.0164227,91.4354438 L86.9028828,91.4825359 L86.9557617,91.745334 L86.9872894,91.8141764 L87.0669071,91.9091588 L87.0974372,91.9281154 L87.1551051,91.9374939 L87.2061881,91.9374939 L87.2011995,91.8748374 L87.2466953,91.8341307 L87.2652528,91.8141764 L87.2943861,91.7477285 L87.3211248,91.6970446 L87.3765978,91.7742678 L87.4586099,91.8197636 L87.5547896,91.8369243 L87.6557584,91.8141764 L87.7341788,91.7642906 L87.7944407,91.6393767 L87.8770515,91.5741262 L87.9221482,91.680283 L88.0007682,91.752318 L88.0931566,91.7866394 L88.1604025,91.7642906 L88.1739715,91.8221581 L88.1937262,91.8435092 L88.1937262,91.8700484 L88.1604025,91.9374939 L88.2270499,91.9105556 L88.320436,91.8319357 L88.3547574,91.8141764 L88.4265929,91.8341307 L88.5375387,91.9187369 L88.7055539,91.9901733 L88.7995387,92.0813644 L88.8855417,92.1202753 L88.9938935,92.0047399 L89.0783002,92.0813644 L89.1836589,92.228228 L89.2776436,92.3068479 L89.3782133,92.349151 L89.6166671,92.3918532 L89.7220258,92.434755 L89.9165802,92.5738364 L90.1111346,92.7474388 L90.2653813,92.9858926 L90.3280378,93.0551341 L90.1137286,93.2185597 L90.0387005,93.317134 L90.1400683,93.3622307 L90.1765847,93.4129146 L90.2751589,93.6531643 L90.3280378,93.7303874 L90.3980773,93.7427591 L90.6716507,93.7617157 L90.6808297,93.9247423 L90.7097635,94.025711 L90.777209,94.0981451 L90.7748145,94.2228595 L90.9452242,94.5327497 L91.0298304,94.9368242 L91.0609591,95.0230268 L91.1571388,95.0619377 L91.3415165,95.0166414 L91.4187396,95.0545546 L91.4315104,95.1172111 L91.399783,95.186652 L91.3516932,95.2439208 L91.2004396,95.3444905 L91.2910321,95.523281 L91.5554265,95.8192032 L91.6715605,96.1644125 L91.68054,96.2510142 L91.7242399,96.4365891 L91.7336184,96.5323698 L91.796674,96.6263545 L92.1710166,96.9268662 L92.481705,96.98633 L92.5266022,97.0078806 L92.6686767,97.0946818 L92.9542227,97.1431708 L93.1032813,97.2225889 L93.5654228,97.7128659 L93.6202971,97.8707044 L93.5392827,98.0656579 L93.3966095,98.1720143 L93.2218098,98.2195055 L93.0438175,98.2147165 L92.899548,98.1552527 L92.899548,98.0995802 L92.9452433,98.0852131 L93.0222669,98.0461027 L93.0677627,98.0329329 L93.0677627,97.9712741 L92.4449891,97.7078774 L92.3398299,97.6328492 L92.3134903,97.6282597 L92.1710166,97.3544868 L92.1159427,97.2818531 L92.0341301,97.2008387 L91.9379504,97.1353886 L91.8393762,97.1166316 L91.8900601,96.98633 L91.7384074,97.1066544 L91.6043146,97.401978 L91.5173138,97.7531736 L91.5059399,98.0329329 L91.5995255,98.3069053 L91.7336184,98.5870637 L92.1159427,98.95542 L92.2428521,98.9837551 L92.6229814,98.8925639 L92.9504314,98.8614352 L93.2146263,98.8037673 L93.5265119,98.7985792 L93.6783641,98.7702441 L93.8653359,98.5661117 L93.8990587,98.5531414 L94.1279344,98.4054796 L94.2480593,98.5202168 L94.4909031,98.5707011 L94.4617698,98.6431352 L94.4617698,98.7099821 L94.5334057,98.7367209 L94.571718,98.7437049 L94.5984568,98.7179639 L94.62759,98.6431352 L94.6702922,98.693021 L94.7141917,98.7227529 L94.7548984,98.7437049 L94.7956052,98.7702441 L94.8053828,98.7289387 L94.8191513,98.7023995 L94.8367111,98.679053 L94.8556676,98.6431352 L94.9354848,98.7391154 L95.0643896,98.7842121 L95.2018747,98.7894002 L95.300848,98.7702441 L95.4612805,98.6159974 L95.5674374,98.5685062 L95.6895577,98.6431352 L95.7402416,98.6431352 L95.7881319,98.5685062 L95.7833429,98.5126341 L95.7544091,98.4545671 L95.7402416,98.3715573 L95.7861365,98.3420249 L96.0840541,98.2775725 L96.0692879,98.3158848 L96.060109,98.3206738 L96.0475378,98.3182793 L96.0233931,98.3372359 L96.150901,98.3825321 L96.2233351,98.2514324 L96.2814021,98.054284 L96.360022,97.9096153 L96.4845369,97.8683099 L96.8119869,97.8641195 L96.9179442,97.8493533 L96.9486738,97.9074203 L96.9584514,97.9343586 L96.9686281,97.9712741 L96.8965931,97.9868384 L96.8574827,98.0059946 L96.8357325,98.0415132 L96.8044042,98.0995802 L96.8600767,98.1281148 L96.905373,98.1662276 L96.9420889,98.217111 L96.9686281,98.2775725 L97.1077095,98.1887759 L97.2681421,98.2097279 L97.3910605,98.3228688 L97.4175998,98.5202168 L97.4778617,98.5202168 L97.451123,98.3396304 L97.3529478,98.1981544 L97.2062838,98.1161423 L97.0282914,98.0995802 L97.1290606,97.9842444 L97.29089,97.9074203 L97.4175998,97.8976427 L97.4175998,98.0329329 L97.5283461,98.0734401 L97.6891777,98.3041117 L97.8116971,98.4054796 L97.8142912,98.3206738 L97.7103293,98.2195055 L97.6117551,98.0866099 L97.634503,97.9096153 L97.6436819,97.8110411 L97.7829629,97.6522049 L97.8116971,97.5709909 L97.8262638,97.4943664 L97.8643765,97.4267213 L98.2323337,97.0078806 L98.5280564,96.7486743 L98.540428,96.6383271 L98.4799665,96.5670902 L98.3762042,96.5090232 L98.3121509,96.4365891 L98.3716147,96.268973 L98.4368652,96.1434605 L98.4053374,96.0955702 L98.34747,96.0588543 L98.3121509,96.0081704 L98.2854121,95.8160105 L98.2993801,95.6507889 L98.3702179,95.4879619 L98.5037121,95.2993938 L98.5547951,95.1453466 L98.5617791,94.7057535 L98.5909124,94.5327497 L98.8285681,94.2996835 L98.9967828,93.9153638 L99.0107508,93.6990592 L99.0400836,93.6124576 L99.1292793,93.5330395 L99.2078992,93.5184728 L99.2873173,93.5184728 L99.371724,93.484351 L99.4918489,93.3143404 L99.497037,92.9380023 L99.5994025,92.6985508 L99.650286,92.3754907 L99.9432151,91.9923682 L100.008865,91.9877787 L100.035204,92.107305 L100.039395,92.3411693 L99.9849195,92.7474388 L99.9849195,93.1221805 L100.039395,93.1221805 L100.169297,90.4782362 L100.039395,90.2768974 L100.039395,90.2094518 L100.174485,90.1062881 L100.251708,89.836506 L100.455242,88.5045567 L100.428703,88.3064106 L100.477591,88.173515 L100.49136,88.0222614 L100.484176,87.7123712 L100.501736,87.5752852 L100.58295,87.3009136 L100.649398,86.0735248 L100.777105,86.055965 L100.823,85.7943642 L100.806238,84.6358177 L100.758548,84.3522672 L100.649398,84.2109908 L100.649398,84.1431462 L100.77491,84.0110487 L100.77491,83.7668081 L100.563794,82.8979981 L100.510715,82.8044124 L100.433692,82.7441504 L100.253903,82.6922693 L100.150141,82.6439799 L100.150141,82.5883074 L100.24652,82.5430111 L100.342301,82.5300408 L100.426907,82.5017057 L100.484176,82.4031315 L100.472403,82.2945801 L100.318555,81.9637379 L100.150141,81.4704677 L99.9529927,81.072579 L99.9292471,80.9396834 L99.8761686,80.7958129 L99.6476919,80.6804771 L99.5948131,80.5619486 L99.2873173,80.2179365 L99.2226654,80.2283127 L99.0400836,80.2863797 L98.9702436,80.2598405 L98.8401416,80.1772297 L98.7834714,80.1616654 L98.5761462,79.920817 L98.5280564,79.8435939 L98.6366077,79.8366099 L98.7062482,79.8733258 L98.7565331,79.9248079 L98.8114074,79.9691064 L98.9941887,80.0630912 L99.3192442,80.1465001 L99.4124308,80.2283127 L99.4846653,80.4110941 L99.4772822,80.26882 L98.275435,77.3638735 L97.9874945,75.9786462 L95.3794679,70.1966893 L95.317011,69.9779902 L95.0771603,69.4901076 L94.9255077,68.9641124 L94.8510781,68.776542 L94.6589183,67.8851836 L94.62759,67.5074487 L94.5958627,67.3272614 L94.3440395,66.8369844 L94.4062969,66.779516 L94.4062969,66.7096759 L94.3153053,66.4863874 L94.1822101,65.6449147 L94.3418445,65.7145552 L94.6130234,65.9671766 L94.9634208,66.0950836 L94.9877651,66.2577111 L94.9255077,66.445082 L94.8556676,66.5849616 L94.7956052,66.526695 L94.7359419,66.6591916 L94.7044141,66.8369844 L94.7044141,67.0197657 L94.7383364,67.1564526 L94.8536722,67.2891487 L94.9999372,67.357991 L95.5193475,67.4471867 L95.5913825,67.4457899 L95.6895577,67.4140626 L95.6947458,67.3819362 L95.6849682,67.2486415 L95.6895577,67.2141206 L95.7430352,67.2121251 L95.7881319,67.2380657 L95.8290382,67.2699926 L95.8553779,67.2835615 L96.0172072,67.2699926 L96.1271554,67.3106994 L96.1989909,67.4012919 L96.2492757,67.5409719 L96.3101363,67.9065347 L96.3027532,68.2718978 L96.0575149,69.4370292 L96.0401547,71.0212008 L96.1173778,71.4085137 L96.360022,72.1384418 L96.8411201,73.0134377 L96.9179442,73.3327065 L97.1605884,73.6172548 L97.1939121,73.6815076 L97.2200522,73.7657147 L97.4175998,74.148039 L97.4084208,73.7539417 L96.7539199,72.7488438 L96.5833106,72.3571409 L96.5571705,72.2108759 L96.4394401,71.9482774 L96.2660373,71.0142168 L96.2279246,70.5095726 L96.2492757,70.3126237 L96.1890137,70.2497677 L96.2470807,70.1322369 L96.2522688,69.2309013 L96.2786085,69.1824124 L96.3430609,69.1518823 L96.4059169,69.0816432 L96.4494173,69.0046196 L96.4683739,68.9545343 L96.5426039,68.9401672 L96.6868734,68.7711543 L96.7878422,68.5765999 L96.6655223,68.3942177 L96.4683739,67.7925956 L95.9828858,66.9321664 L95.5522721,66.3221635 L95.040644,65.3757312 L93.9423595,63.6283335 L93.8990587,63.4511393 L93.8272232,63.2843214 L93.6857472,63.1793618 L93.5821844,63.0730054 L93.6278798,62.9103779 L92.8752037,61.5059945 L92.3442199,60.0349638 L91.8563373,58.9418674 L91.4957632,58.268809 L91.4430839,58.0987984 L91.4073657,57.9086339 L91.394994,57.7228594 L91.3592758,57.5474612 L91.1114434,57.1104621 L90.9979035,56.5509436 L90.9170886,56.4683328 L90.8640102,56.3671645 L90.8187139,55.9066194 L90.777209,55.7721274 L90.8376705,55.7024869 L90.7556583,55.6655715 L90.7025799,55.6132912 L90.6886119,55.5432516 L90.7215365,55.4550536 L90.6758412,55.4400879 L90.6016112,55.4017757 L90.5559158,55.3892045 L90.6038061,55.092085 L90.3280378,54.0129566 L90.278152,53.3031823 L90.2414361,53.1237932 L90.0654392,52.8011322 L89.9936038,52.6311216 L89.7318034,51.6046726 L89.7220258,51.2175592 L89.7774987,50.7997163 L89.75076,50.7105206 L89.692693,50.6476645 L89.6356237,50.5975793 L89.6118781,50.5447004 L89.6386168,50.2417941 L89.6118781,50.122667 L89.5687768,50.0350676 L89.5322604,50.0007462 L89.4917532,49.9795947 L89.4436633,49.9297089 L89.4047525,49.8548803 L89.3514745,49.7110099 L89.3011897,49.6361812 L89.0802956,49.4528013 L89.0759057,49.4146886 L88.9362256,49.3620092 L88.8741677,49.2293131 L88.8635919,49.0618966 L88.8825485,48.896675 L88.8763627,48.6843613 L88.8929248,48.6051427 L88.9649598,48.5732159 L89.0421829,48.6033469 L89.1048394,48.6771778 L89.1455462,48.7709629 L89.1597137,48.8661449 L89.1645027,49.0840459 L89.1860534,49.2558524 L89.2529003,49.3883489 L89.3834014,49.4847281 L89.3514745,49.2127511 L89.3834014,48.4149783 L89.4436633,48.1629555 L89.4574318,48.0017248 L89.4147296,47.9328825 L89.3857959,47.9111323 L89.3782133,47.8674324 L89.3642452,47.8237325 L89.3011897,47.8023814 L89.2393313,47.8117599 L89.12639,47.8580539 L89.0759057,47.8674324 L88.8825485,47.7898102 L88.8763627,47.7157798 L88.8163003,47.7016122 L88.6694366,47.6609054 L88.4052418,47.7405231 L88.3282182,47.7419199 L87.9919883,47.6656945 L87.9097766,47.6289786 L87.7998284,47.5601362 L87.7417614,47.5575422 L87.6569556,47.5711111 L87.5685581,47.5617326 L87.1766557,47.4442018 L87.0567304,47.3911233 L86.9749178,47.3416367 L86.9216398,47.2905537 L86.8430199,47.2350807 L86.7270854,47.203952 L86.6532545,47.196968 L86.5804213,47.2063466 L85.8387201,46.9006467 L85.7273752,46.8385889 L85.6657164,46.7899004 L85.5457911,46.7140741 L85.4731574,46.6971129 L85.4105009,46.6945189 L85.3600166,46.6971129 L85.2470752,46.6899294 L85.1844188,46.6945189 L85.1149778,46.7140741 L85.074271,46.7497923 L85.0529199,46.787905 L85.0401492,46.8479674 L85.0401492,46.8671235 L85.0309702,46.9307777 L85.0211926,46.9750763 L84.9948529,47.0189757 L84.9605316,47.0485081 L84.8870997,47.0616779 L84.8194547,47.0532971 L84.7352475,47.0269574 L84.6939422,47.0379323 L84.6697975,47.0714555 L84.6534349,47.1706284 L84.642061,47.2239063 L84.6177167,47.268604 L84.5209384,47.3643846 L84.4971928,47.4013 L84.4806307,47.4424059 L84.4688577,47.4853076 L84.46347,47.5766983 L84.4904083,47.8103631 L84.4856193,47.8642397 L84.4758417,47.9247012 L84.4183733,48.1382122 L84.4131852,48.1916897 L84.4207678,48.302037 L84.4373299,48.3760674 L84.46347,48.4632677 L84.5017823,48.5468762 L84.658224,48.7685684 L84.6939422,48.8402044 L84.7065134,48.8860992 L84.7164905,48.980084 L84.7136969,49.0886353 L84.6031501,49.7132048 L84.439924,50.3000607 L84.4183733,50.4223805 L84.4131852,50.480248 L84.4301464,50.751826 L84.4271532,50.809893 L84.4105911,50.8829257 L84.3790634,50.9196416 L84.3361616,50.9409927 L84.112873,51.002851 L84.0771548,51.002851 L84.0358495,50.998062 L83.8839973,50.9505708 L83.8293225,50.9409927 L83.4515877,50.9848921 L83.3747636,50.9793049 L83.3174948,50.9601488 L83.2735953,50.9314146 L83.2434643,50.8974923 L83.1967713,50.8160788 L83.0742519,50.4674772 L83.0574903,50.3838687 L83.0554949,50.3379739 L83.0602839,50.2830995 L83.081635,50.1719541 L83.1219427,50.0350676 L83.1295253,49.9843837 L83.1347134,49.936693 L83.1295253,49.8937912 L83.1179518,49.851089 L83.0790409,49.767281 L83.0433227,49.7078172 L82.8513624,49.4583885 L82.8072634,49.3821631 L82.798284,49.3432522 L82.798284,49.3039422 L82.812252,49.2684236 L82.8463738,49.2081616 L82.8705185,49.1484982 L82.8705185,49.1191654 L82.8527592,49.1055965 L82.5169284,49.0840459 L82.2184121,49.0618966 L81.8364869,49.0353574 L81.3777376,49.0038296 L80.8461552,48.9681114 L80.2509185,48.9274046 L79.5940231,48.8813102 L78.8850469,48.833819 L78.1285795,48.7807406 L77.3306072,48.727263 L76.4965176,48.6693956 L75.6338934,48.6097322 L74.749519,48.5500689 L73.8481834,48.4874124 L72.9370702,48.4245564 L72.0213675,48.362698 L71.106064,48.3006402 L70.2003384,48.2371855 L69.3079823,48.1775222 L68.43578,48.1170607 L67.5893187,48.0597918 L66.7771789,48.0017248 L66.0037503,47.9494446 L65.2734231,47.9009556 L64.592383,47.8532649 L63.9704075,47.8103631 L63.413084,47.7714522 L62.9230065,47.7371308 L62.507159,47.7101925 L62.172725,47.6872451 L61.9272871,47.6704835 L61.7760336,47.6609054 L61.7235538,47.6561164 L61.4661433,47.6393548 L61.3941083,47.6505292 L61.0315387,47.2644136 L60.9088198,46.6440345 L60.8990422,46.2449486 L60.8391793,46.0244536 L60.728433,45.8005664 L60.6587925,45.7309259 L60.5937415,45.4469762 L60.5474475,45.3438125 L60.4977613,45.2933282 L60.3556867,45.192559 L60.319769,45.1492581 L60.3121864,45.0315278 L60.3291475,45 L48.6898064,45 Z M46.5968002,50.5762282 L46.5415268,50.5111771 L46.3491674,50.5929898 L45.4741715,50.7105206 L45.1187855,50.6989471 L44.993672,50.7153096 L44.7697848,50.8011131 L44.6951558,50.8330399 L44.4958123,50.8974923 L43.9171377,50.891107 L43.4408287,51.058723 L42.4989859,51.2175592 L41.8382991,51.2317268 L41.6888415,51.2873993 L42.1384118,51.3448677 L47.6663505,50.6406805 L47.7551471,50.6821855 L47.8465378,50.696353 L47.9277518,50.6821855 L47.9955964,50.6406805 L47.2189752,50.5397118 L46.8773576,50.5031954 L46.5968002,50.5762282 Z M63.6936414,56.0965843 L63.5016811,56.2197023 L63.1772243,56.3899124 L63.1149668,56.4683328 L63.5691266,56.3697586 L63.7517084,56.2687899 L63.8333215,56.0844122 L63.7736582,56.065256 L63.6936414,56.0965843 Z M62.7827278,56.6565018 L62.6298779,56.8275102 L62.5213265,56.8628293 L62.4832138,56.8797904 L62.4542801,56.9236899 L62.4199587,56.9641971 L62.3555063,56.9831537 L62.2709001,56.9973212 L62.249549,57.0308444 L62.24476,57.0721498 L62.2180212,57.1104621 L60.4855892,57.9445517 L60.1274096,58.0335478 L59.9446282,58.0455204 L59.7233351,57.9106294 L59.5914372,57.8793011 L59.8033518,58.0241693 L59.98314,58.0794427 L60.45905,58.0766491 L60.6322533,58.0241693 L61.1273194,57.7380247 L61.2979286,57.5935556 L62.108073,57.2453531 L62.5907675,56.8680174 L62.7763424,56.7931888 L62.7741475,56.7550761 L62.8405953,56.6920205 L62.8864902,56.6708689 L62.8864902,56.6008293 L62.7827278,56.6565018 Z M59.140071,57.3461223 L58.9880192,57.3582944 L58.6519889,57.3076105 L58.7353979,57.379446 L58.8996217,57.4448961 L58.9856247,57.493385 L59.0412972,57.5576379 L59.0965706,57.6434413 L59.158828,57.7206645 L59.230863,57.7523918 L59.4040663,57.8164451 L59.5000465,57.8164451 L59.5415514,57.7228594 L59.560508,57.637056 L59.6034098,57.5528488 L59.6564882,57.4806143 L59.7017844,57.4355176 L59.6832269,57.3341497 L59.6706557,57.3239731 L59.5668934,57.3153927 L59.4595393,57.2764818 L59.2574022,57.2453531 L59.140071,57.3461223 Z M76.196405,62.316538 L76.1912169,62.4460414 L76.259261,62.4841541 L76.3644202,62.4338693 L76.4224872,62.4123187 L76.3955489,62.3975525 L76.3548421,62.3616347 L76.3135367,62.3061618 L76.2568665,62.2656546 L76.196405,62.316538 Z M78.1936305,62.7250025 L78.1499306,62.7463536 L78.1359626,62.8132005 L78.1642977,62.8473223 L78.2179748,62.8305607 L78.2680601,62.7942439 L78.2696564,62.7489476 L78.2317432,62.7250025 L78.1936305,62.7250025 Z M79.2310544,64.6477985 L79.2021207,64.6667551 L79.2174855,64.6813217 L79.2440247,64.678129 L79.2971031,64.7170399 L79.3539729,64.7312075 L79.3829066,64.7120513 L79.3755235,64.6930947 L79.3471884,64.6859112 L79.3182547,64.6643606 L79.2767497,64.6477985 L79.2310544,64.6477985 Z M79.4094458,64.7868799 L79.4916575,64.8449469 L79.4814808,64.8878487 L79.4936529,64.9331449 L79.4916575,64.9792394 L79.5106141,65.0245356 L79.5684816,65.068036 L79.5878372,65.0397009 L79.58225,65.0123635 L79.5684816,64.9910124 L79.5700779,64.8641031 L79.5395478,64.7994511 L79.4601297,64.7655288 L79.4094458,64.7868799 Z M79.2793438,64.8664976 L79.2262654,64.8784702 L79.1741847,64.9117938 L79.1783751,64.9459157 L79.2767497,64.9259614 L79.3539729,64.9365372 L79.3876956,64.9331449 L79.3904892,64.9139888 L79.3589614,64.8852546 L79.3182547,64.8664976 L79.2793438,64.8664976 Z M78.9814262,64.8750779 L79.0035754,64.8980254 L78.9959928,64.9091998 L78.96227,64.9020162 L78.9381253,64.9091998 L78.9333363,64.9521015 L78.9670591,64.9197756 L78.9888092,64.9387321 L78.9937978,64.9578883 L79.0494703,64.8980254 L79.0151489,64.8686926 L78.9814262,64.8750779 Z M78.8469342,65.0418958 L78.8850469,65.0634465 L78.8830515,65.0397009 L78.8615008,64.9932074 L78.8469342,65.0418958 Z M78.895024,65.3591692 L78.8615008,65.3898988 L78.878462,65.416438 L78.945708,65.3805203 L78.9796303,65.3779262 L79.0011809,65.3898988 L79.0365,65.4020709 L79.0632388,65.3829148 L79.0365,65.3651555 L78.964465,65.3440039 L78.895024,65.3591692 Z M78.7361878,65.6499033 L78.7294034,65.6784379 L78.7559426,65.6664653 L78.7651216,65.6345385 L78.7361878,65.6499033 Z M79.147845,65.6712544 L79.1264939,65.7219383 L79.1424573,65.7746176 L79.1741847,65.8057463 L79.1670011,65.8422627 L79.1356729,65.8897539 L79.1288884,65.9136991 L79.1670011,65.9238758 L79.2532037,65.9238758 L79.3206492,65.8658087 L79.3234428,65.7698286 L79.2701648,65.7005872 L79.2051138,65.6664653 L79.147845,65.6712544 Z M79.368739,66.0124728 L79.3876956,66.0537782 L79.5341602,66.0178605 L79.4982424,66.0008993 L79.4357855,65.9857341 L79.368739,66.0124728 Z M79.1957353,66.1543479 L79.1957353,66.1876716 L79.2248686,66.2046327 L79.2021207,66.2148094 L79.1717901,66.2124149 L79.1402624,66.2148094 L79.1376683,66.2449404 L79.2555982,66.2894385 L79.2532037,66.324558 L79.2845319,66.3489023 L79.3206492,66.3489023 L79.3322227,66.3417187 L79.3755235,66.2744727 L79.3829066,66.1635269 L79.3274337,66.1401803 L79.2891214,66.1461666 L79.2440247,66.1329968 L79.1957353,66.1543479 Z M79.0105594,66.2766677 L79.0179425,66.3030074 L79.0518648,66.294427 L79.0843903,66.2744727 L79.0921725,66.2553166 L79.0518648,66.2449404 L79.0105594,66.2766677 Z M79.3250391,66.4975618 L79.3471884,66.5081376 L79.36395,66.4887819 L79.3322227,66.45466 L79.3250391,66.4975618 Z M79.238637,66.8036607 L79.2729584,66.846762 L79.2555982,66.7847041 L79.238637,66.8036607 Z M79.3322227,67.0648624 L79.3715326,67.0776332 L79.4218175,67.1297139 L79.4501526,67.1494686 L79.4715037,67.1586476 L79.4792859,67.1351015 L79.4838753,67.1013788 L79.4740977,67.0648624 L79.3447939,67.0540871 L79.3322227,67.0648624 Z M95.8529834,67.4208471 L95.7520146,67.4647465 L95.5722264,67.5980412 L95.3994222,67.7022027 L95.3513324,67.7664555 L95.300848,67.9183077 L95.1276447,67.9127205 L95.0643896,68.1629474 L95.0843439,68.4644568 L95.1589729,68.6105222 L95.2284139,69.3534207 L95.2687216,69.5242295 L95.386851,69.7237724 L95.6747915,70.6033578 L95.7973109,70.8553806 L95.7833429,70.7184941 L95.7230809,70.569236 L95.6506468,70.3886496 L95.6346834,70.2808964 L95.6414678,70.1940952 L95.6801792,70.028275 L95.7302645,68.9010568 L95.7999049,68.5524552 L96.0527259,67.9785697 L96.1026116,67.6904296 L95.9663238,67.4140626 L95.8529834,67.4208471 Z M79.3990696,67.833901 L79.4409736,67.8610389 L79.4669142,67.9019452 L79.4669142,67.9183077 L79.4740977,67.9254912 L79.4982424,67.9127205 L79.505426,67.8913694 L79.4715037,67.8293115 L79.3990696,67.833901 Z M95.8721395,71.0475405 L95.8940892,71.1459151 L95.9062613,71.2588565 L95.9663238,71.2588565 L95.9423786,71.1744498 L95.8074876,70.8773303 L95.8721395,71.0475405 Z M97.4678846,74.2300512 L97.4461344,74.2468128 L97.4175998,74.2775424 L97.518369,74.4746909 L97.7522333,75.1523388 L97.9034869,75.4195268 L97.922643,75.4989449 L97.9392051,75.6092922 L98.0110405,75.7944681 L98.0515478,76.068241 L98.1096148,76.1973453 L98.1840443,76.3154747 L98.2560793,76.4689233 L98.5909124,77.8461688 L98.6934775,78.1369029 L98.7062482,78.2532365 L98.7301934,78.3037208 L98.8427356,78.3943133 L98.8666808,78.4380132 L98.8982086,78.5699111 L99.3934742,79.6586176 L99.4796768,80.0144027 L99.6452974,80.2115511 L99.7610323,80.4707574 L99.72711,80.2598405 L98.3384905,76.5224008 L98.3121509,76.3773331 L98.2967861,76.1887649 L98.2612674,75.9989996 L98.1459316,75.6579807 L97.8162866,75.0822992 L97.6508655,74.707358 L97.5880095,74.3348113 L97.5636652,74.3020862 L97.5425137,74.2833292 L97.5283461,74.2559918 L97.5283461,74.2108951 L97.4678846,74.2300512 Z M79.777004,77.0174669 L79.7366963,77.0944905 L79.8869521,77.0298385 L79.8298828,76.9959162 L79.7989537,76.9885332 L79.777004,77.0174669 Z M79.8869521,77.0298385 L79.900122,77.0368226 L79.9136909,77.0196619 L79.8869521,77.0298385 Z M79.2990986,78.211532 L79.3968746,78.3681732 L79.4551412,78.4380132 L79.5221876,78.5798883 L79.8681951,78.9885523 L80.0100701,79.0985005 L79.9793405,78.9592195 L79.6760352,78.5946545 L79.4792859,78.2318854 L79.3990696,78.1638412 L79.2629813,78.0989898 L79.2990986,78.211532 Z M82.5143343,83.7823725 L82.4660449,83.838045 L82.5430685,84.0040647 L82.5696077,84.4456533 L82.6368537,84.6380127 L82.6975148,84.4362748 L82.7064942,84.244514 L82.6657875,84.0473655 L82.5773899,83.838045 L82.5382795,83.7753885 L82.5143343,83.7823725 Z M83.3607956,84.7629266 L83.4667529,85.0275206 L83.6200019,85.3164588 L83.7281542,85.5926263 L83.6944314,85.8183093 L83.8005883,85.9939072 L83.9227086,86.438888 L84.0304618,86.6234652 L84.1392127,86.661977 L84.1465958,86.5035399 L84.0887283,86.0400016 L84.0238769,85.907106 L83.8991625,85.7127511 L83.8027833,85.5116118 L83.8826005,85.1869554 L83.7932052,84.9870134 L83.6347681,84.8235877 L83.4709433,84.7629266 L83.3607956,84.7629266 Z M82.6873381,84.7629266 L82.7909009,85.1889508 L82.8609405,85.3707345 L82.9714873,85.5782592 L82.940159,85.3741267 L82.8150456,85.0402913 L82.8048689,84.8235877 L82.7531873,84.7772937 L82.7264485,84.7629266 L82.6873381,84.7629266 Z M83.1730257,86.4071606 L83.2502488,86.6909107 L83.3075176,86.8256022 L83.3819472,86.924376 L83.4709433,86.9984064 L83.9636149,87.2845511 L84.0887283,87.3136843 L84.2276102,87.2675899 L84.4347358,87.0943866 L84.588783,87.0606638 L84.2503581,86.8758871 L84.1793208,86.982443 L84.0238769,86.9960119 L83.754893,86.9355504 L83.5960568,86.868504 L83.4709433,86.7703288 L83.3747636,86.6312474 L83.3053227,86.4438765 L83.2835725,86.3429078 L83.2522442,86.2559071 L83.2091429,86.1838721 L83.1371079,86.1281996 L83.1730257,86.4071606 Z M88.3783035,92.0454467 L88.3978587,92.0983255 L88.4367695,92.1390323 L88.4872539,92.1655715 L88.4984283,92.2449896 L88.4794717,92.3816765 L88.503816,92.4179934 L88.578046,92.2621503 L88.6023902,92.1927094 L88.5832341,92.1342433 L88.5417291,92.0883484 L88.5251671,92.0620087 L88.5327497,92.0560224 L88.5564953,92.0430521 L88.5014215,91.9787993 L88.4002532,91.9686226 L88.3783035,92.0454467 Z M87.3384851,92.0071344 L87.2560738,92.0025449 L87.1796489,92.0111253 L87.1606923,92.093337 L87.1766557,92.1466149 L87.1958118,92.167966 L87.2345232,92.2044824 L87.2560738,92.2471846 L87.2782231,92.3068479 L87.3261134,92.3313917 L87.4320707,92.3457588 L87.475172,92.2960726 L87.5737462,92.1226698 L87.5446129,92.0290841 L87.4410501,91.9901733 L87.3384851,92.0071344 Z M88.9575767,92.2721275 L88.9214594,92.2908845 L88.8496239,92.3068479 L88.7390771,92.36272 L88.7147329,92.4612942 L88.7536438,92.5143726 L88.7781876,92.5379187 L88.7781876,92.5738364 L88.787167,92.5700451 L88.8017336,92.5091845 L88.8091167,92.4736659 L88.8107131,92.4323605 L88.852218,92.4004336 L88.8903307,92.4301655 L88.9144754,92.4612942 L89.0421829,92.4714709 L89.0874792,92.5357237 L89.1114243,92.5844122 L89.1455462,92.6366925 L89.2026154,92.6939613 L89.2554943,92.6702157 L89.279639,92.6105523 L89.2554943,92.5500908 L89.2339437,92.522953 L89.2177807,92.4477253 L89.1597137,92.3100406 L89.0850846,92.2471846 L88.9575767,92.2721275 Z M89.3594562,92.5189621 L89.3544676,92.6081578 L89.3666398,92.6604381 L89.3666398,92.8653687 L89.4195186,92.8583847 L89.4841706,92.797125 L89.5462284,92.8216688 L89.6356237,92.9296215 L89.6623624,92.9593534 L89.692693,92.9729224 L89.6910966,92.9469818 L89.7128468,92.9204426 L89.7433769,92.8797358 L89.7914667,92.846013 L89.873878,92.8360359 L89.9289518,92.8100953 L89.9074012,92.7548219 L89.8491346,92.7115211 L89.7938612,92.6829864 L89.6473967,92.5676506 L89.5907265,92.5119781 L89.4502483,92.441739 L89.3594562,92.5189621 Z M89.7721111,92.9204426 L89.7753038,92.9639429 L89.9912092,93.0497464 L90.0516708,93.0365766 L90.1111346,92.9729224 L90.0806045,92.911064 L89.9860211,92.8911097 L89.9405253,92.9036809 L89.9074012,92.9226375 L89.8858506,92.8827289 L89.8662953,92.8583847 L89.7721111,92.9204426 Z M99.7610323,93.484351 L99.7370872,93.5454111 L99.7031649,93.593501 L99.6574695,93.6340082 L99.5948131,93.674715 L99.5948131,93.7303874 L99.6311299,93.7403646 L99.6526805,93.7539335 L99.6744307,93.7730896 L99.7057589,93.7902503 L99.6195564,93.8716639 L99.6069852,93.9660477 L99.6574695,94.0380827 L99.7610323,94.0428717 L99.7993446,93.9852038 L99.8157071,93.484351 L99.7610323,93.484351 Z M99.4846653,95.6412109 L99.4605206,95.6847112 L99.3308177,96.2031239 L99.2609777,96.347593 L99.1506304,96.4365891 L99.1745756,96.4457681 L99.1941308,96.4481626 L99.2053052,96.4601352 L99.3216387,96.352382 L99.4315869,96.162018 L99.5086105,95.9578856 L99.5399387,95.7633312 L99.5543058,95.725418 L99.569072,95.6531835 L99.5567003,95.6074881 L99.4846653,95.6412109 Z M92.017568,96.9244717 L91.9914279,96.9669743 L92.0508917,96.98633 L92.3398299,97.0062843 L92.3490089,96.9801442 L92.2189069,96.958394 L92.0654584,96.900327 L92.017568,96.9244717 Z M98.7226108,97.0036902 L98.5037121,97.3231585 L98.3955598,97.3910031 L98.1363535,97.4550564 L98.0834746,97.5107289 L98.1120093,97.6114981 L98.1768607,97.6597875 L98.2371227,97.7198499 L98.2560793,97.8493533 L98.1790557,98.0375223 L97.8789431,98.3605824 L97.7229005,98.7506889 L97.3551428,98.6744635 L97.304858,98.832302 L97.4195952,98.7866066 L97.5131808,98.820928 L97.5596744,98.9047361 L97.5283461,99.0100948 L97.465091,98.9791656 L97.4375541,98.9767711 L97.4391504,99.0100948 L97.4778617,99.0753453 L97.4056272,99.183298 L97.3164315,99.2293925 L97.1434277,99.2535372 L97.1721619,99.3684739 L97.1198817,99.4744312 L96.9179442,99.6857472 L96.8022093,99.8763108 L96.7399519,99.9220061 L96.6074553,99.9359741 L96.563955,99.9882544 L96.4683739,100.300739 L96.3745887,100.33965 L96.2522688,100.367985 L96.1752453,100.415675 L96.218147,100.51425 L96.3769832,100.512853 L96.5619595,100.330271 L96.8624712,99.9359741 L97.1150926,99.717275 L97.1771505,99.6256848 L97.2517796,99.4163642 L97.304858,99.3197854 L97.3958496,99.3471228 L97.4828503,99.2964389 L98.1459316,98.6431352 L98.1459316,98.5870637 L98.1096148,98.4505763 L98.2105835,98.2320767 L98.477572,97.8493533 L98.7152277,97.5426558 L98.7565331,97.453061 L98.7732947,97.3828219 L98.8138019,97.2778623 L98.8666808,97.1746986 L98.9221537,97.1166316 L98.956076,97.097675 L98.9866061,97.0713353 L99.0133449,97.0370139 L99.0400836,96.98633 L98.8618917,96.9150932 L98.7226108,97.0036902 Z M91.9495239,97.0585646 L92.0630638,97.171905 L92.1303098,97.2249834 L92.2075329,97.2732728 L92.2286845,97.1856734 L92.2480402,97.1455653 L92.2428521,97.1066544 L92.2213014,97.0394084 L92.154255,97.0276354 L92.0608689,97.048787 L92.0293411,97.0439979 L92.0465018,97.0254404 L91.9974142,97.0102752 L91.9495239,97.0585646 Z M92.4120645,97.1431708 L92.3947043,97.1914602 L92.4160553,97.2435409 L92.4547667,97.2794586 L92.5437628,97.2581075 L92.6181924,97.2008387 L92.5992358,97.1665173 L92.4573607,97.1282051 L92.4120645,97.1431708 Z M92.354197,97.2970184 L92.3081026,97.371847 L92.3398299,97.4895774 L92.4022869,97.594936 L92.4667393,97.6188812 L92.5244072,97.5807685 L92.5511459,97.5234997 L92.6229814,97.4171433 L92.5992358,97.320764 L92.5603249,97.3038029 L92.4601543,97.2818531 L92.354197,97.2970184 Z M93.4407085,97.7483846 L93.4307313,97.8166283 L93.4470938,97.8278027 L93.4760276,97.8208187 L93.5051608,97.8762916 L93.5195279,98.0059946 L93.533895,97.9986115 L93.5654228,97.942939 L93.5821844,97.8661149 L93.5392827,97.7507791 L93.4883992,97.6949071 L93.4407085,97.7483846 Z M93.1276256,97.7292285 L93.1348091,97.7459901 L93.1399972,97.7553686 L93.1032813,97.7994676 L93.1208411,97.8357844 L93.1713255,97.7970731 L93.2258007,97.7872955 L93.1757154,97.7222445 L93.1300201,97.7152605 L93.1276256,97.7292285 Z M93.3582972,97.9479276 L93.336547,97.9892329 L93.2698997,98.0894035 L93.345726,98.1115528 L93.3582972,98.1115528 L93.3487192,98.0439077 L93.4117747,98.0137767 L93.4494884,97.9892329 L93.4333254,97.9748659 L93.4379149,97.9405445 L93.3826415,97.9241819 L93.336547,97.9193929 L93.3582972,97.9479276 Z M96.7086236,98.363376 L96.696651,98.3972983 L96.6581392,98.4092709 L96.6339945,98.4435923 L96.6441712,98.4459868 L96.7038346,98.433216 L96.7377569,98.3571902 L96.7086236,98.363376 Z M96.1586832,98.5521436 L96.1850229,98.5898573 L96.2786085,98.6303645 L96.3075422,98.5685062 L96.2522688,98.5341848 L96.1914082,98.5102396 L96.1586832,98.5521436 Z M95.2856827,98.8450727 L95.3295822,98.9149128 L95.3435502,98.8428777 L95.2856827,98.8450727 Z M95.8440039,98.8758023 L95.8340268,98.9685898 L95.865355,99.0657672 L95.9010732,99.0633727 L95.9134449,98.9767711 L95.8795226,98.8666234 L95.874534,98.8486645 L95.8440039,98.8758023 Z M97.1458222,99.0394276 L97.0863584,99.0871183 L97.0735877,99.1230361 L97.0546311,99.1330132 L97.0356745,99.1659378 L97.0546311,99.1930757 L97.1583935,99.0823293 L97.2038892,99.0753453 L97.179545,98.9530255 L97.1458222,99.0394276 Z M95.5065768,99.0539942 L95.530921,99.0434184 L95.5620497,99.034439 L95.5522721,98.9865487 L95.516953,98.9651976 L95.5065768,99.0539942 Z M95.7302645,99.0927055 L95.7302645,99.1162516 L95.7643863,99.1525684 L95.7761593,99.2024542 L95.7999049,99.2146263 L95.8146711,99.2429614 L95.8340268,99.2048487 L95.8340268,99.1405959 L95.809483,99.1066735 L95.7719689,99.0801343 L95.7302645,99.0927055 Z M95.6708006,99.2146263 L95.6414678,99.1595524 L95.5572607,99.1469812 L95.6708006,99.2146263 Z M95.809483,99.3391411 L95.8340268,99.3922195 L95.8699445,99.3684739 L95.8479948,99.3151959 L95.809483,99.3391411 Z M94.9037575,99.7332385 L94.95943,99.8228332 L94.9618245,99.7777365 L94.9328908,99.7005134 L94.9037575,99.7332385 Z M95.1276447,100.111173 L95.1831176,100.065278 L95.1324337,100.053704 L95.1276447,100.111173 Z M95.9942598,100.640161 L95.7378471,100.953244 L95.8198592,100.921517 L95.9904685,100.747715 L96.0575149,100.642556 L96.060109,100.6234 L96.0527259,100.591473 L95.9942598,100.640161 Z M95.2160422,101.259543 L95.1466013,101.296259 L95.0963165,101.344947 L95.0771603,101.401817 L95.115273,101.406805 L95.2399874,101.324594 L95.300848,101.281293 L95.3942341,101.174138 L95.3818624,101.132434 L95.2160422,101.259543 Z M94.2091484,101.725875 L94.1279344,101.824449 L94.4250539,101.803098 L94.55775,101.76698 L94.62759,101.704523 L94.6688954,101.64925 L94.6802694,101.622711 L94.6776753,101.582004 L94.62759,101.582004 L94.5771057,101.629695 L94.5551559,101.615727 L94.55775,101.552671 L94.571718,101.467067 L94.2091484,101.725875 Z M93.3106065,102.132144 L92.6788534,102.563157 L93.2812736,102.305547 L93.399004,102.197195 L93.5001723,102.178438 L93.533895,102.160479 L93.5670192,102.130548 L93.5670192,102.075274 L93.3106065,102.132144 Z M89.9820303,103.090748 L89.9936038,103.357338 L90.1739906,103.22105 L90.0540653,102.869455 L89.7914667,102.502296 L89.5488225,102.312531 L89.4917532,102.303551 L89.467808,102.288785 L89.4436633,102.257257 L89.9820303,103.090748 Z M92.4473836,102.466378 L92.0053959,102.605659 L91.8393762,102.682883 L92.1013761,102.685078 L92.1921681,102.738156 L92.2336731,102.869455 L92.2747789,102.749729 L92.3272587,102.666121 L92.3994933,102.605659 L92.5916532,102.528436 L92.6153988,102.502296 L92.6229814,102.440637 L92.4473836,102.466378 Z M90.1719952,102.744741 L90.1953417,102.805003 L90.2220804,102.837129 L90.2967095,102.887015 L90.3589669,102.971222 L90.3761276,102.927522 L90.3348222,102.795824 L90.2653813,102.717004 L90.2031239,102.714809 L90.1719952,102.744741 Z M88.7536438,102.76709 L88.7195219,102.860875 L88.710742,102.978605 L88.7438662,103.055828 L88.7628227,103.074386 L88.7851716,103.090748 L88.8230847,103.100925 L88.8576057,103.079175 L88.8981129,103.067402 L88.9483977,103.084163 L88.9938935,103.130058 L89.0278158,103.194511 L89.05216,103.156398 L89.0393893,102.992972 L89.0178387,102.896394 L88.9916985,102.866063 L88.9316361,102.817574 L88.8687801,102.788441 L88.8182957,102.783652 L88.7803825,102.760106 L88.7536438,102.76709 Z M88.3836911,102.805003 L88.3282182,102.992972 L88.4102303,103.002351 L88.4657033,103.023901 L88.4770772,103.057824 L88.434375,103.108707 L88.434375,103.175355 L88.5810391,103.162384 L88.6668426,103.211272 L88.6935813,103.297674 L88.65487,103.417799 L88.6047847,103.417799 L88.5614839,103.312241 L88.4555266,103.242002 L88.2152769,103.175355 L88.2633667,103.237412 L88.3138511,103.280913 L88.434375,103.357338 L88.3735144,103.434162 L88.3471748,103.449726 L88.3282182,103.479059 L88.2777338,103.514179 L88.0991428,103.601379 L88.0183279,103.553089 L87.9249418,103.588409 L87.7657066,103.723699 L87.7657066,103.783362 L88.3471748,103.61814 L88.6263354,103.502805 L88.8284724,103.357338 L88.8284724,103.29069 L88.5491122,102.965635 L88.4936393,102.869455 L88.4672996,102.860875 L88.443554,102.863269 L88.4289874,102.850299 L88.434375,102.805003 L88.3836911,102.805003 Z M89.2225697,102.941889 L89.2509048,102.944284 L89.2393313,102.95925 L89.1860534,103.004346 L89.1960305,103.064209 L89.2896162,103.14702 L89.3085728,103.185531 L89.3514745,103.187527 L89.3690343,103.098531 L89.3474836,102.999557 L89.2993938,102.920538 L89.2393313,102.914352 L89.2225697,102.941889 Z M90.7871861,103.002351 L90.6858183,103.124471 L90.6979904,103.141432 L90.777209,103.098531 L90.84226,103.036273 L90.8276933,102.999557 L90.7871861,103.002351 Z M89.4917532,103.149414 L89.5135034,103.177749 L89.5705727,103.214066 L89.6040959,103.143827 L89.5462284,103.108707 L89.4917532,103.149414 Z M77.845029,103.207082 L77.8540084,103.218655 L77.8564029,103.223444 L77.8687746,103.218655 L77.8641851,103.201495 L77.8617906,103.205087 L77.8617906,103.196706 L77.845029,103.207082 Z M77.2777283,103.367914 L77.3134465,103.343769 L77.2877055,103.31703 L77.2777283,103.367914 Z M77.7338835,103.38268 L77.7442598,103.388866 L77.7442598,103.357338 L77.7338835,103.38268 Z M77.6833992,103.423586 L77.6933763,103.408421 L77.6887868,103.374898 L77.6833992,103.423586 Z M77.7703999,103.423586 L77.784767,103.402235 L77.7678058,103.398643 L77.7703999,103.423586 Z M83.6411535,103.676207 L83.6200019,103.701549 L83.6656973,103.697559 L83.7091976,103.699953 L83.7640719,103.732279 L83.8321161,103.768995 L83.8969675,103.896104 L83.9063461,103.944792 L83.9278967,103.857792 L83.9131305,103.762011 L83.8345106,103.684788 L83.7335419,103.65326 L83.6411535,103.676207 Z M87.3791918,103.716715 L87.2828126,103.721304 L87.2061881,103.656054 L87.1551051,103.656054 L87.1171919,103.708932 L87.0998317,103.759616 L87.1096093,103.804913 L87.1551051,103.850009 L87.1551051,103.905881 L87.073492,103.997073 L87.0377738,104.025807 L87.6557584,103.850009 L87.6190425,103.697559 L87.600485,103.656054 L87.3791918,103.716715 Z M86.8216688,103.850009 L86.65525,103.994678 L86.5931921,104.025807 L86.5063909,104.019421 L86.4199888,103.990687 L86.3503483,104.009843 L86.316426,104.148925 L86.5618638,104.115402 L86.6841837,104.078686 L86.7612073,104.025807 L86.7951296,103.970733 L86.8216688,103.905881 L86.8547929,103.956765 L86.862176,103.954171 L86.864371,103.924838 L86.8721532,103.905881 L86.8913093,103.951776 L86.9124608,103.988492 L86.9413946,104.012038 L86.9872894,104.025807 L86.9749178,103.956765 L86.9485781,103.908076 L86.915454,103.874952 L86.8721532,103.850009 L86.8216688,103.850009 Z M83.840896,104.023412 L83.7614779,104.050351 L83.7572875,104.074096 L83.8385015,104.050351 L83.8798069,104.016827 L83.840896,104.023412 Z" id="Page-1"></path>
            </g>
        </g>
    </g>
</svg>