<?xml version="1.0" encoding="UTF-8" standalone="no"?>
<svg width="97px" height="60px" viewBox="0 0 97 60" version="1.1" xmlns="http://www.w3.org/2000/svg" xmlns:xlink="http://www.w3.org/1999/xlink">
    <!-- Generator: Sketch 46.2 (44496) - http://www.bohemiancoding.com/sketch -->
    <title>Page 1</title>
    <desc>Created with Sketch.</desc>
    <defs></defs>
    <g id="Page-1" stroke="none" stroke-width="1" fill="none" fill-rule="evenodd">
        <g id="The-50-States" transform="translate(-144.000000, -620.000000)" fill="#4A4A4A">
            <g id="Hawaii" transform="translate(122.000000, 578.000000)">
                <path d="M22.23193,42 L22.2614267,42.0661298 L22.2835493,42.1289293 L22.2909234,42.1289293 L22.3423048,42.0661298 L22.4381692,42.0661298 L22.426989,42.0330649 L22.4198527,42.0330649 L22.4198527,42 L22.23193,42 Z M22.0256907,42.2321678 L22.0185544,42.2578586 L22,42.3277944 L22.0368709,42.2944916 L22.0701737,42.2944916 L22.0920584,42.2578586 L22.0958644,42.2321678 L22.0404391,42.1952969 L22.0256907,42.2321678 Z M56.2868618,53.9837621 L56.1912352,54.0498919 L56.0513636,54.1162596 L54.9985205,54.2489949 L54.8952819,54.2818219 L54.7075971,54.1457563 L54.4939836,54.0498919 L54.2841762,54.016827 L54.1036276,54.1457563 L53.8605174,54.2118861 L53.1133461,54.6096162 L52.0678772,55.2944638 L52.0345744,55.3275287 L51.9427539,55.3974645 L51.9206314,55.493091 L51.9206314,55.6293945 L51.8911346,55.725021 L51.3499647,56.4134367 L51.1915387,56.546172 L51.0994803,56.6748634 L51.2248415,57.0026578 L51.4089582,57.3045236 L51.5119589,57.363517 L51.5818947,57.6285119 L51.751263,57.7317505 L51.9758188,57.790506 L52.2077488,57.9598744 L52.4361106,58.026242 L52.7636671,58.026242 L53.0581587,58.0555009 L53.2608298,58.4163602 L53.6290632,58.7772194 L53.7356321,58.9099547 L53.8314965,58.9099547 L54.1443046,58.8140903 L54.7701587,58.8433492 L55.3922068,59.0055812 L55.6943104,59.307447 L56.4305394,58.8140903 L57.1743804,58.1221064 L57.1151491,57.9598744 L57.1263293,57.8935067 L57.2107756,57.8568737 L57.3584972,57.9230035 L57.3730076,57.6580086 L57.3584972,57.363517 L57.3216262,57.1056585 L57.2623949,56.9070313 L57.7412411,56.0528153 L57.8884869,55.4638322 L57.8884869,55.2944638 L57.7707378,55.2316643 L57.6860536,55.1988373 L57.6123118,55.0696701 L57.5533183,54.9041078 L57.53857,54.7385455 L57.4541237,54.5432486 L57.2664388,54.3446214 L57.0416451,54.1788212 L56.6991024,54.0831947 L56.5520945,53.9837621 L56.415791,53.9212005 L56.2868618,53.9837621 Z M46.9539997,57.2678905 L46.7884374,57.437021 L46.4939458,57.8200028 L46.3464621,57.9893711 L46.1552091,58.1221064 L46.1221442,58.2912369 L45.7022915,58.4163602 L45.2198772,59.1085819 L45.0505088,59.4987 L44.9734367,59.9259269 L45.0726314,60.2572894 L45.4004257,60.3824127 L45.5476715,60.3824127 L45.6692266,60.3529159 L45.7465366,60.2572894 L45.8164724,59.8226883 L45.9120989,59.6314353 L46.3688226,59.071711 L46.4939458,59.0055812 L46.7479983,59.0055812 L46.924503,58.9760845 L47.1897357,58.7772194 L47.3479239,58.7108517 L47.2522973,58.3207336 L47.3039166,57.9598744 L47.4656729,57.6580086 L47.7087831,57.437021 L47.5358466,57.2310196 L47.1050516,57.201285 L46.9539997,57.2678905 Z M74.8828879,61.9947423 L74.6766486,62.1938452 L74.5517632,62.4588401 L74.4485247,62.6208342 L74.3488542,62.6798277 L74.2384794,62.7164607 L73.8371811,62.9816935 L73.7710513,63.1141909 L73.7710513,63.2393142 L73.7230001,63.3423149 L73.5172366,63.3718116 L73.3699908,63.3423149 L73.1083263,63.313056 L72.3606792,63.2393142 L72.0552452,63.2761851 L71.8052366,63.3718116 L71.6763074,63.6368064 L72.1734701,64.0640333 L72.1287492,64.3290282 L72.0219425,64.6237577 L72.1622898,64.9182493 L72.3904138,65.1537474 L72.5486019,65.2788706 L72.6958477,65.448239 L72.9537063,65.9342215 L73.1413911,66.1994542 L73.255572,66.265584 L73.4653795,66.3612105 L73.5612439,66.4275782 L73.6164313,66.5305789 L73.8888003,67.509918 L73.9625422,67.5394148 L74.0251038,67.6129187 L74.0876654,67.6426533 L74.2163568,67.5394148 L74.3823949,67.4511624 L75.0189535,67.3479239 L75.3136829,67.3479239 L75.6079366,67.4511624 L75.6483757,67.0165613 L75.4721089,66.7884374 L75.2030702,66.6557021 L74.9525858,66.4275782 L75.2178185,66.4275782 L75.5344327,66.5600756 L75.7002329,66.5305789 L75.508742,66.1330866 L75.7111752,66.265584 L75.7849171,66.3612105 L75.8917238,66.265584 L76.0056668,66.265584 L76.1015312,66.3319516 L76.1640928,66.4275782 L76.1419703,66.6262054 L76.016847,66.6854367 L75.8729315,66.7220698 L75.7849171,66.8619414 L75.8510468,67.1566708 L76.1234159,67.2154264 L76.4290877,67.1566708 L76.6167725,66.9209348 L76.9041278,67.082929 L77.0292511,67.1861676 L77.1655545,67.3479239 L77.102755,67.4806592 L77.2390585,67.6129187 L77.6329826,67.8046475 L77.8280417,68.0106489 L77.9165319,68.0401456 L78.1446558,68.0401456 L78.4541337,67.936907 L78.810949,67.8046475 L79.1242329,67.7751508 L79.3078738,68.0401456 L79.514351,67.8486547 L80.2320256,67.3479239 L80.0262621,67.1566708 L79.591661,66.9504316 L79.4001701,66.7589407 L79.3376085,66.4644491 L79.3411766,66.1994542 L79.2936012,66.0372222 L79.0759439,65.9342215 L78.8663743,65.8459692 L78.9068134,65.5733622 L79.0431169,65.3155037 L79.1242329,65.2127409 L78.465076,65.2127409 L78.2847653,65.2788706 L78.652523,65.5364913 L78.4136946,65.6397299 L78.2626428,65.6766008 L78.1891388,65.6102332 L78.1337135,65.6102332 L77.8209054,65.2788706 L77.643925,65.1168765 L77.5040534,64.9182493 L77.2683174,64.3585249 L77.3644196,64.3585249 L77.4084268,64.3880217 L77.4636143,64.4615256 L77.4636143,64.1965308 L77.4417296,63.9684068 L77.3570454,63.7990385 L77.0183087,63.5706767 L76.7751986,63.2098174 L76.5653911,62.8194614 L76.5323263,62.5913375 L76.3886486,62.3263426 L76.2304605,62.0906066 L76.0313575,61.8991157 L75.7849171,61.796115 L75.7554203,61.7373595 L75.7145055,61.7004885 L75.6926208,61.6636176 L75.6926208,61.5679911 L74.8828879,61.9947423 Z M85.927512,68.562999 L85.7988206,68.6291288 L85.6403946,68.6291288 L85.4969548,68.5996321 L85.4122707,68.5335023 L85.3901481,68.7913608 L85.4305872,68.9973622 L85.3901481,69.2183499 L85.1472758,69.5202156 L85.0181087,69.6158422 L84.8708629,69.8070952 L84.7640561,70.0135723 L84.7681,70.3080639 L84.9224822,70.4993169 L85.187477,70.6025555 L85.4822065,70.6025555 L85.7436332,70.4331872 L85.9643829,70.3670574 L86.8040884,70.3963162 L87.9601701,70.3080639 L88.265604,70.3375607 L89.5798738,70.8970471 L90.1136696,71.0592791 L90.6400912,71.088538 L91.1629446,71.0000478 L91.6708117,70.7645497 L92.1791547,70.4993169 L92.5987695,70.0723279 L92.8268934,69.5202156 L92.6687053,69.5202156 L92.2709751,69.417215 L91.9950379,69.417215 L91.8844252,69.380344 L91.8073531,69.3213506 L91.7409854,69.2847175 L91.6303727,69.2847175 L91.4096229,69.4835826 L91.3028162,69.5202156 L90.3750963,69.5202156 L90.0989212,69.453848 L89.9186105,69.3508473 L89.5943843,68.9973622 L89.3403318,68.7913608 L89.311073,68.8651027 L89.3293895,69.026859 L89.2149707,69.2183499 L89.0127753,69.2183499 L88.5415412,69.0563557 L88.3317338,68.9973622 L86.5350496,68.9236204 L86.3694873,68.7913608 L86.2220036,68.6291288 L86.0714275,68.5335023 L85.927512,68.562999 Z M94.1230846,71.2210354 L94.0750335,71.324274 L93.8504777,71.324274 L93.7548512,71.2871652 L93.7365347,71.3827917 L93.6811094,71.5597721 L93.670167,71.6848954 L93.6076054,71.6480245 L93.4418052,71.6187656 L93.3756754,71.5816568 L93.316682,71.9132572 L92.8268934,72.9587261 L93.7253545,74.2770399 L93.8026644,74.3431697 L93.9056651,74.3800406 L94.2225172,74.5049259 L94.4730015,74.6669201 L94.8628818,74.8362885 L95.036294,74.8362885 L95.1573734,74.7994175 L95.2753603,74.7701587 L95.4152319,74.7330499 L95.7463565,74.7330499 L95.8974084,74.7701587 L95.9709123,74.8731594 L96.0153953,75.1971477 L96.0632086,75.3591419 L96.1181581,75.4255095 L96.2435193,75.5285102 L96.3172611,75.8158655 L96.3577002,77.0085802 L96.508752,77.4945627 L96.854625,77.7890543 L97.4550263,77.7890543 L97.7088409,77.6567948 L97.8560867,77.5899514 L97.9222165,77.6270602 L97.992628,77.7302987 L98.143442,77.7302987 L98.6513092,77.6270602 L99.4058547,77.0968326 L99.6710874,77.0378391 L99.9139597,77.0675737 L100.175624,77.1705744 L100.462742,77.2000711 L100.716556,77.1337035 L101.630004,76.6108501 L102.031064,76.2426166 L102.402866,75.7863688 L102.572234,75.2342565 L102.369801,74.7330499 L101.596463,74.313435 L101.401404,74.240169 L100.790298,74.1516788 L100.672549,74.0191813 L100.595239,73.6878188 L100.506749,73.5626956 L100.028141,73.459457 L99.7265127,73.385953 L99.5940153,73.1944621 L99.5128993,73.0619647 L99.3252144,72.8704738 L99.111601,72.7084796 L98.9346205,72.7674731 L98.9089298,72.7084796 L98.8682529,72.6644724 L98.7654901,72.6644724 L98.5851794,72.6052411 L98.3603857,72.5391113 L98.1322618,72.5391113 L97.9222165,72.5683702 L97.7088409,72.6349757 L97.277808,72.9587261 L97.1272319,73.0032091 L96.7295017,73.0322301 L96.5306367,73.0619647 L96.3172611,73.1649654 L96.1478927,73.2534556 L95.9820925,73.2900887 L95.7906016,73.1649654 L95.4042896,72.2370076 L95.3084252,72.0752514 L95.1978124,71.9427539 L94.6642546,71.3827917 L94.4948862,71.2871652 L94.2848409,71.1254089 L94.17066,71.088538 L94.1230846,71.2210354 Z M88.4901598,72.9587261 L88.0962357,73.1944621 L88.3797849,73.6509479 L88.847213,73.9159428 L88.9832786,74.0779369 L89.0275237,74.3800406 L89.0348979,74.7330499 L89.0677249,75.0648882 L89.1821437,75.329883 L89.3955192,75.5285102 L89.9626178,75.5875037 L90.5408965,75.4255095 L91.0304471,75.0648882 L91.3470613,74.6376613 L91.4721845,74.3800406 L91.4795587,74.240169 L91.3948745,74.0779369 L91.0083246,73.6878188 L90.9236404,73.6509479 L90.7507039,73.5255868 L90.0546761,72.8704738 L88.4901598,72.9587261 Z M94.4211444,77.5314337 L94.1670919,77.6567948 L93.7548512,77.9876815 L93.2541203,78.1865466 L93.0588234,78.319044 L92.9227578,78.5842768 L93.3385666,78.8418975 L93.5229212,78.8787684 L93.8431035,78.7167742 L93.987019,78.6801412 L94.5683902,78.6801412 L94.8776301,78.6432703 L95.0505666,78.4812761 L94.874062,78.3487787 L94.8961845,77.6931899 L94.6863771,77.4945627 L94.4211444,77.5314337 Z M104.004253,82.6193825 L103.805388,83.1422359 L103.757812,83.576837 L103.87913,84.1213372 L104.107491,84.5928092 L104.774023,85.4394131 L104.821598,85.5055429 L104.965513,85.7707756 L104.96147,86.0357705 L104.836584,86.2272614 L104.405551,86.5588618 L104.317299,86.6542504 L103.80182,87.4497107 L103.665754,87.611467 L103.393147,88.1050616 L102.829855,88.3039266 L102.635033,88.4659208 L102.561292,88.7306778 L102.439499,88.8560389 L102.159993,89.054904 L101.872638,89.3198989 L101.71445,89.6441251 L101.788192,90.2697413 L102.064129,90.6969682 L102.421658,91.1239572 L102.738272,91.6173139 L102.855783,91.9118055 L102.940467,92.2062971 L102.999223,92.5007887 L103.014209,92.824777 L103.036332,92.9648865 L103.201656,93.4577674 L103.245901,93.487502 L103.426212,93.4577674 L103.474263,93.4577674 L103.485206,93.5538697 L103.466889,93.6789929 L103.474263,93.7524969 L103.794683,94.930939 L103.978562,95.2620636 L104.03375,95.4240578 L104.026375,95.5196843 L103.676696,97.8244735 L103.665754,99.0098141 L103.731884,99.3043057 L103.897684,99.4296668 L104.055634,99.4957966 L104.118434,99.6872875 L104.151737,99.8566558 L104.225003,100.018888 L104.774023,100.018888 L105.289264,100.158522 L105.837808,100.379509 L106.312848,100.681137 L106.618282,100.975867 L106.857824,101.365985 L106.861154,101.469223 L107.027192,101.395481 L107.273633,101.137861 L107.417311,101.071493 L107.604995,100.939234 L108.201353,100.085018 L108.400218,99.3043057 L108.525579,99.0688076 L109.114324,98.5093211 L109.316995,98.4500898 L110.001605,98.0525975 L110.20047,97.9201 L110.524696,97.5592408 L110.715949,97.4267434 L110.936699,97.3603757 L111.106068,97.3016201 L111.540669,96.8674948 L111.864657,96.6388951 L112.034025,96.5727653 L112.276898,96.5066355 L113.344965,96.5358944 L113.576657,96.4107712 L114.500809,96.212144 L114.967999,95.9469112 L115.229663,95.8510468 L115.5684,95.8215501 L115.800568,95.7554203 L117.000419,94.6654684 L117.103658,94.5034742 L118.211688,93.8852322 L118.381057,93.6492583 L118.528302,93.3545288 L118.635347,93.0310163 L118.67198,92.7362868 L117.65577,92.1106706 L116.960218,91.7127025 L116.411436,91.1534539 L116.32699,90.9617252 L116.216377,90.2331082 L116.153815,90.0047464 L115.988253,89.8796232 L115.660459,89.8425144 L115.115483,89.9383788 L114.967999,89.8796232 L114.868804,89.5480228 L114.868804,88.4361862 L114.824559,88.1050616 L114.703242,87.8764619 L113.561671,86.5954948 L113.109229,86.2272614 L111.341566,85.3142898 L109.872676,84.7250688 L109.272988,84.5928092 L108.775588,84.2907056 L108.47396,84.1658202 L108.334088,84.1950791 L108.201353,84.2907056 L108.057913,84.3275765 L107.881408,84.2243379 L107.71204,84.0628195 L107.608801,83.9964519 L107.347137,83.9003496 L106.99389,83.576837 L106.187725,83.2452366 L106.103041,83.178869 L106.069976,83.0461337 L106.055227,82.9138741 L106.007176,82.7811388 L105.933672,82.7226211 L105.554259,82.6486414 L104.774023,82.28802 L104.339421,82.2216524 L104.004253,82.6193825 Z" id="Page-1"></path>
            </g>
        </g>
    </g>
</svg>