<?xml version="1.0" encoding="UTF-8" standalone="no"?>
<svg width="33px" height="59px" viewBox="0 0 33 59" version="1.1" xmlns="http://www.w3.org/2000/svg" xmlns:xlink="http://www.w3.org/1999/xlink">
    <!-- Generator: Sketch 46.2 (44496) - http://www.bohemiancoding.com/sketch -->
    <title>Fill 1</title>
    <desc>Created with Sketch.</desc>
    <defs></defs>
    <g id="Page-1" stroke="none" stroke-width="1" fill="none" fill-rule="evenodd">
        <g id="The-50-States" transform="translate(-493.000000, -616.000000)" fill="#4A4A4A">
            <g id="Illinois" transform="translate(442.000000, 578.000000)">
                <g id="Page-1" transform="translate(51.000000, 38.000000)">
                    <path d="M32.7157538,39.6627482 L32.6251436,39.2748982 L32.6519346,39.1515605 L32.7667221,38.9860227 L32.7935131,38.8698635 L32.7935131,38.4391607 L32.7425448,38.3049467 L32.4983763,38.091553 L32.404281,37.9738711 L32.3528771,37.7963693 L32.2827413,37.4032986 L32.1997545,37.215138 L31.9499228,36.9597617 L31.8275118,36.884715 L31.7673954,36.8309859 L31.7190408,36.7431051 L31.7484456,36.3395931 L32.2801275,35.820792 L32.2873154,35.3661613 L32.1002139,35.0087649 L32.0614431,34.825825 L32.1470437,34.6106911 L32.2949388,34.4540719 L32.7935131,34.2165328 L32.8242248,34.1706346 C32.8242248,32.2670586 32.8368579,30.3634827 32.8451348,28.4599067 C32.8534117,26.5815638 32.8586393,24.7032209 32.8666983,22.824878 C32.8756287,20.8136264 32.8841234,18.8025922 32.8902222,16.7913405 C32.8956675,14.9338802 32.9017663,13.0762023 32.9109144,11.218742 C32.9148351,10.366255 32.9196269,9.51355037 32.9196269,8.66106332 L32.4550315,7.99086361 L32.3141064,7.64630135 L32.1176389,6.83971242 L31.8721635,6.27501316 L31.7649994,5.30201632 L31.7190408,5.09623608 L31.6462912,4.88480015 L31.6040355,4.79931216 L31.5489288,4.72665825 L31.2570591,4.59614224 L31.2128431,4.53741004 L31.1771217,4.46975924 L31.098709,4.38688158 L31.0233456,4.28486156 L30.9869708,4.15782598 L30.9697636,4.03883889 L30.9264188,3.93094566 L30.6491426,3.3932197 L30.5175835,3.01167791 L30.4380817,2.57836476 L30.4086769,1.74153962 L30.420221,1.61537415 L30.4500614,1.52575315 L30.4881787,1.47050138 L30.522811,1.40372069 L30.5929468,0.321090398 L30.5870659,0.222333286 C28.6522316,0.203408464 26.7176151,0.18535375 24.7827809,0.166428929 C22.8536098,0.147286581 20.9242208,0.130537027 18.9948319,0.111829732 C17.0702348,0.0931224377 15.1456378,0.0750677232 13.2210408,0.056142902 C11.3138688,0.0372180809 9.40669676,0.0209035799 7.49974258,0.00219628536 C7.4089145,0.00132617864 7.31830423,-0.000196508123 7.22747614,2.10185573e-05 L7.12031207,0.243433374 L7.22246644,0.401357743 L7.47295157,0.540357292 L7.59950101,0.664129973 L7.7234367,0.822271869 L7.98568374,1.04980478 L8.69357649,1.50726339 L8.94841788,1.76786035 L9.09391707,2.14483408 L9.09391707,2.06869975 L9.11395588,2.70039723 L9.18953705,2.95490344 L9.45918974,3.11783093 L9.63431151,3.37712273 L9.74561404,3.43650751 L9.85778781,3.46174061 L10.5597996,3.88896301 L10.645618,3.97184067 L10.8514514,4.22112625 L10.9294285,4.27311512 L11.0557602,4.2998709 L11.1117381,4.38013825 L11.1243713,4.50978415 L11.1243713,4.6846756 L11.1502911,4.83520406 L11.3526395,5.327902 L11.3212744,5.45950564 L11.2768405,5.92631789 L11.1335195,6.31177517 L11.0736208,6.99045841 L10.9562196,7.48380892 L10.8514514,7.71721505 L10.7055166,7.81531958 L10.5724328,7.87057136 L10.2274167,8.14748282 L10.1100154,8.26516476 L9.99609916,8.43179019 L9.88632133,8.65170967 L9.80681953,8.89620966 L9.774801,9.13440137 L9.65609283,9.35040536 L9.67025068,9.39978392 L9.69965546,9.44807484 L9.71620926,9.51181016 L9.71381331,9.77175454 L9.6970417,9.88660863 L9.65609283,10.0021153 L9.53215714,10.134154 L9.16928042,10.3425446 L9.09391707,10.4136758 L9.03096907,10.5642042 L8.87784642,10.6812336 L8.53283038,10.8178403 L7.7136351,10.9674987 L7.54090927,11.0410227 L7.22747614,11.4166913 L7.05932438,11.5713528 L6.70733832,11.6894698 L4.34450121,11.8811108 L4.01843491,12.1001601 L3.82414558,12.4355863 L3.65141975,12.8665066 L3.5248703,13.342455 L3.45713041,13.8134003 L3.45952636,14.0376703 L3.50091086,14.3104487 L3.59544176,14.5412445 L3.76294008,14.638479 L3.88012356,14.6841596 L4.29571106,15.009797 L4.53116708,15.3426128 L4.67252782,15.784627 L4.72632767,16.2866786 L4.69452695,16.7967787 L4.54880995,17.186804 L3.73201061,18.1354379 L3.58803612,18.3488315 L3.50308899,18.5150219 L3.46627856,18.6873031 L3.43774504,19.163469 L3.38677676,19.400138 L3.22603065,19.8351913 L3.01475189,20.1497349 L2.72745634,20.3572554 L2.40160786,20.4708043 L2.07162093,20.5043034 L1.81852204,20.5736944 L1.44932874,20.7405374 L1.11847056,20.9471877 L0.972753554,21.1344782 L0.955764128,21.2088723 L0.878004831,21.3226388 L0.860361966,21.4290093 L0.8923805,21.5216757 L1.11346085,21.7265858 L1.18860639,21.903 L1.19383391,22.0939884 L1.14264782,22.4254991 L1.14025187,22.6093091 L1.18621045,22.8953567 L1.19884361,23.0526285 L1.12348026,23.163132 L0.636667855,23.3071347 L0.634925349,23.3071347 L0.379430518,23.5370604 L0.190368698,24.0180119 L0.0638192547,24.5668317 L0.00762346046,25.0068882 L0,25.5041542 L0.218466595,27.2739512 L0.263118292,27.4362261 L0.374638628,27.6087248 L0.515345927,27.7812234 L0.563918261,27.8562702 L0.600728684,27.9332746 L0.627519702,28.0168048 L0.639281613,28.1140393 L0.634925349,28.3748538 L0.566532019,28.6878746 L0.573937666,28.8116473 L0.610965902,28.8838662 L0.719654667,29.0095966 L0.773236703,29.1512065 L0.999326759,29.3656878 L1.05051285,29.4744511 L1.06989822,29.5864774 L1.08383826,29.8370681 L1.18621045,30.1968572 L1.34957031,30.4615872 L3.41531028,32.351894 L3.54447349,32.5106885 L3.64161815,32.7090729 L3.68104233,32.9368233 L3.73201061,33.0816961 L3.8559463,33.2074265 L5.75919766,34.6091684 L5.94346759,34.7888454 L6.13601442,35.0442218 L6.34707536,35.4357698 L6.4420419,35.6648254 L6.49801988,35.8716933 L6.50803929,36.0137382 L6.49301018,36.3058765 L6.49801988,36.4492266 L6.54158251,36.5782199 L6.68969546,36.8077106 L6.72149618,36.9227822 L6.68729951,37.0385064 L6.62456932,37.1607564 L6.59015485,37.2912724 L6.64134094,37.4309245 L6.70516019,37.5588302 L6.75090095,37.732634 L6.76004911,37.9088306 L6.72149618,38.0393466 L7.09352105,38.8233128 L7.34901588,39.1452523 L7.68924003,39.2748982 L8.04688923,39.1074026 L8.5646311,38.4239338 L8.98261455,38.3338778 L9.14096471,38.397178 L9.4221615,38.5827283 L9.57571977,38.621013 L9.76761316,38.6418955 L10.1853788,38.7654507 L10.9982575,39.2259547 L11.3256307,39.497863 L11.4595858,39.7773848 L11.3983803,39.9648928 L11.2602867,40.2287527 L11.1045503,40.4645516 L10.9854065,40.5663541 L10.8782424,40.6807731 L10.8566789,40.9394123 L10.8982813,41.3620667 L10.8906578,41.7947272 L10.7501683,42.1236276 L10.3363233,42.7927396 L9.91572611,43.9580301 L9.51952398,44.6084348 L9.39558829,44.9395104 L9.36204507,45.3273605 L9.43740842,45.807877 L9.48097105,45.971022 L9.53215714,46.0971874 L9.58726387,46.2037755 L9.65609283,46.3016625 L10.1100154,46.6945157 L10.1635975,46.7910976 L10.3949151,47.0314645 L10.4482793,47.124566 L10.5090491,47.2816202 L10.6528058,47.4053929 L10.9586155,47.5881153 L11.1731615,47.806077 L11.3724605,48.0664565 L11.5952834,48.2822429 L11.8875886,48.3744743 L12.3391153,48.7644996 L12.4654469,48.845202 L12.7721278,48.8404164 C12.8964991,48.8750031 13.020217,48.9111126 13.1441527,48.947222 L13.4240426,49.1634435 L13.8929943,49.6557064 L14.0875015,49.7870925 L14.5956596,50.0059244 L14.7967011,50.1464466 L14.9988317,50.4357571 L15.2349412,51.0030667 L15.4168152,51.2197232 L16.2168429,51.5910413 L16.4326957,51.7848575 L16.3725793,51.9114581 L16.3995881,52.0809114 L16.4570908,52.2712472 L16.4888915,52.4552748 L16.4668924,52.6301662 L16.4261613,52.8044051 L16.4041622,52.9938708 L16.4326957,53.202914 L16.6054216,53.562268 L16.8315116,53.8924736 L17.025801,54.2485647 L17.1090056,54.6814428 L16.9654667,55.0501505 L16.6766465,55.3344579 L16.4355273,55.6255086 L16.4326957,56.0240175 L16.4771296,56.0655651 L16.6396182,56.1264726 L16.7104075,56.1645397 L16.841531,56.2737381 L16.8273732,56.4072995 L16.8532929,56.5793631 L16.9195081,56.7475112 L17.1090056,57.0844601 L17.43725,57.5462692 L17.556176,57.8394952 L17.4999802,58.135549 L17.6343709,58.2910805 L18.0471268,58.6308572 L18.3805988,58.772032 L18.4777435,58.772032 L18.5186923,58.6656615 L18.4942973,58.5103474 L18.4365768,58.4248595 L18.3614312,58.3646046 L18.2884638,58.2769413 L18.1978536,58.0467981 L18.2538315,57.9465183 L18.404776,57.9230254 L18.5990654,57.9247656 L18.6528652,57.9758844 L18.6888044,58.2208194 L18.7153776,58.311093 L18.7909588,58.3820067 L18.9610708,58.4851143 L19.0246723,58.5553755 L19.0656212,58.6656615 L19.0850065,58.7796455 L19.1168073,58.8866686 L19.1921706,58.9762896 L19.2843056,59 L19.3866778,58.9736793 L19.4838224,58.9321317 L19.5617995,58.9134244 L19.7247238,58.9852082 L19.4402598,58.657178 L19.291929,58.4078924 L19.2701477,58.1385943 L19.4502792,57.8223106 L19.7316938,57.5029814 L20.0141975,56.9850504 L20.0969665,56.8741118 L20.3833908,56.6361376 L20.725793,56.4853916 L21.1078373,56.4386233 L21.5090491,56.5164979 L23.76494,57.6002158 L24.3558671,57.9880659 L24.6838937,58.0853003 L24.9873074,58.033964 L25.2327829,57.7905517 L25.407469,57.3759458 L25.4033306,57.0479156 L25.2569601,56.7377225 L25.0097422,56.3761932 L24.8324423,56.0355464 L24.7568611,55.6590077 L24.795414,55.2568009 L24.9535464,54.8224001 L25.0382757,54.6836181 L25.1482714,54.5748547 L25.2837511,54.5013307 L25.456477,54.4778378 L25.8267593,54.4821884 L25.9648529,54.4434686 L26.4483981,54.1691675 L27.9626351,53.8946488 L28.2279316,53.724978 L28.2934933,53.4302294 L28.1109659,52.9836471 L27.8681042,52.7241378 L27.8245416,52.6658406 L27.6877549,52.3850137 L27.6326482,52.1883695 L27.6860124,51.9406066 L27.7923053,51.7122036 L27.8874896,51.5736391 L28.3518673,51.1760004 L28.4786345,51.0378709 L28.5657598,50.8046823 L28.5683735,50.598032 L28.602788,50.4625129 L28.4100234,50.3818105 L28.2527623,50.3648434 L28.1935171,50.3437433 L28.1645479,50.2952348 L28.1645479,50.2462913 L28.1965665,50.2243211 L28.4344184,50.2412882 L28.5607501,50.2314995 L28.6487466,50.1856014 L28.5951645,50.0692246 L28.1915568,49.6828972 L28.0554235,49.5075707 L28.4224387,49.5789195 L28.5045543,49.5789195 L28.6361134,49.5103986 L28.6607263,49.4349168 L28.6361134,49.3355071 L28.6169459,49.1923746 L28.5683735,48.9820263 L28.5705517,48.8541206 L28.6487466,48.7993039 L28.6875173,48.7288252 L28.6822898,48.5706833 L28.6509247,48.400795 L28.6169459,48.2965997 L28.7164865,48.1726095 L28.602788,47.9172332 L28.7040711,47.871335 L28.8432537,47.8454494 L28.9887529,47.7821491 L29.1268465,47.6899178 L29.2418518,47.5881153 L29.1205299,47.4758715 L28.8624213,47.5021923 L28.7282484,47.4371518 L28.921013,47.2983698 L29.0985308,47.124566 L29.1780326,47.0671389 L29.3583818,47.0238511 L29.4361411,46.9788231 L29.5217417,46.7930553 L29.4191517,46.6740682 L29.261455,46.5848823 L29.1780326,46.4854726 L29.1512415,46.4176042 L29.0933032,46.3512586 L29.0375431,46.2718614 L29.0155439,46.1570073 L29.042335,46.0334521 L29.0985308,45.9616683 L29.1686666,45.9005433 L29.2418518,45.807877 L29.3021861,45.6403814 L29.3464021,45.4731034 L29.423508,45.3443276 L29.5846897,45.3032151 L29.5923132,45.3693432 L29.6713794,45.4896354 L29.7595937,45.5457573 L29.8247198,45.3495482 L29.8787375,45.2636252 L29.9425567,45.1870558 L30.0024553,45.1548619 L30.0342561,45.1985847 L30.0556018,45.3006047 L30.0900162,45.4000144 L30.1675577,45.4459126 L30.2237535,45.3954464 L30.245317,45.2788521 L30.258168,45.1450732 L30.284959,45.0504491 L30.338541,44.9369001 L30.4112906,44.6984909 L30.4768524,44.5847244 L30.5443745,44.5338232 L30.7053384,44.4759611 L30.7630589,44.4415919 L30.8893905,44.28345 L31.0157221,44.0626604 L31.0579779,43.851877 L30.9336066,43.7281044 L30.9336066,43.6504473 L31.1834383,43.5706151 L31.443725,43.4350959 L31.5142965,43.3759287 L31.6025108,43.2710808 L31.662845,43.2208321 L31.7382084,43.215829 L31.7865629,43.2625973 L31.8305612,43.2710808 L31.8891529,43.1566618 L31.8861035,43.0335417 L31.7484456,42.8134047 L31.7190408,42.6493896 L31.7597719,42.4923353 L31.8427587,42.3733482 L31.9499228,42.2854674 L32.0564334,42.2204269 L32.0052473,42.2204269 L32.0372659,42.1978042 L32.0666706,42.1686556 L32.0934616,42.1264554 L32.1176389,42.0716387 L32.0779969,41.8612904 L32.1470437,41.6522473 L32.2707616,41.4756156 L32.404281,41.3620667 L32.4898816,41.3468398 L32.6009663,41.3468398 L32.7005069,41.3268273 L32.7425448,41.2509105 L33,40.4802135 L32.8934894,40.0684355 L32.7157538,39.6627482 Z" id="Fill-1"></path>
                </g>
            </g>
        </g>
    </g>
</svg>