<?xml version="1.0" encoding="UTF-8" standalone="no"?>
<svg width="65px" height="33px" viewBox="0 0 65 33" version="1.1" xmlns="http://www.w3.org/2000/svg" xmlns:xlink="http://www.w3.org/1999/xlink">
    <!-- Generator: Sketch 46.2 (44496) - http://www.bohemiancoding.com/sketch -->
    <title>Fill 1</title>
    <desc>Created with Sketch.</desc>
    <defs></defs>
    <g id="Page-1" stroke="none" stroke-width="1" fill="none" fill-rule="evenodd">
        <g id="The-50-States" transform="translate(-160.000000, -796.000000)" fill="#4A4A4A">
            <g id="Kansas" transform="translate(122.000000, 748.000000)">
                <g id="The-50---Main-Badge-Copy" transform="translate(38.000000, 48.000000)">
                    <path d="M64.0475117,9.46158542 L63.9042645,9.40693514 L63.7003985,9.38958881 L63.672234,9.36925816 L63.6519033,9.27152183 L63.6078847,9.23832132 L63.5647986,9.23477745 L63.4776939,9.24167868 L63.350674,9.2276897 L63.0832047,9.23832132 L62.891649,9.16091564 L62.5094701,8.9059432 L62.3352607,8.85241204 L62.1700042,8.7451632 L62.1338194,8.51014837 L62.1233743,8.27643917 L62.0398135,8.16937685 L61.7432471,7.96700297 L61.5546757,7.52401865 L61.4886477,7.08010174 L61.5647478,6.87791437 L61.1851802,6.79435354 L61.1441458,6.73373463 L61.0980755,6.55710047 L61.0650615,6.49013989 L60.7028402,6.22733362 L60.544485,6.15459093 L60.4760322,6.11038576 L60.3913523,5.98299279 L60.1997965,5.58570581 L60.1462654,5.50121238 L59.9987283,5.43369224 L59.8431708,5.26116151 L59.7433828,5.03640526 L59.7560661,4.80847817 L59.8202289,4.77583722 L60.0492751,4.76184824 L60.1462654,4.69768546 L60.1768546,4.60554472 L60.1848749,4.48150911 L60.1742433,4.23959305 L60.2333701,4.04822382 L60.3710216,3.85816024 L60.6465112,3.58043239 L60.7414498,3.51626961 L60.8151251,3.4802713 L60.8660449,3.40995337 L60.8919712,3.13558287 L60.9175244,3.02311149 L60.9630352,2.93078423 L61.0344722,2.89292073 L61.4500382,3.01788894 L61.6417804,3.03355659 L61.779805,2.89292073 L61.7997626,2.76646036 L61.7512675,2.68905468 L61.6872912,2.60997033 L61.656329,2.47287834 L61.6647223,2.34529886 L61.7057567,2.12557864 L61.7152692,2.01049597 L61.6337601,1.89597287 L61.2540059,1.66599407 L61.1262399,1.50931751 L61.2001017,1.39684612 L61.2056973,1.24222128 L61.1465706,1.10848665 L61.0344722,1.0502925 L60.8304197,1.05831284 L60.6825095,1.09095379 L60.5525053,1.1629504 L60.2923103,1.39143705 L60.1138109,1.51025011 L59.9097584,1.56378126 L59.7288343,1.47499788 L59.4981094,1.20510386 L59.4044765,1.13403985 L59.3046884,1.09356507 L59.1237643,1.07323442 L59.050089,1.0502925 L58.9736159,0.982026282 L58.932022,0.898278932 L58.898635,0.804272997 L58.8436117,0.709334464 L58.7663925,0.674268758 L58.657092,0.656549385 L58.5593557,0.62763883 L58.4480034,0.453429419 L57.9583891,0 L0,0 C0.00279779568,1.12751166 0.00335735481,2.25520983 0.00913946588,3.38272149 C0.0173463332,5.04927512 0.0192115303,6.71564222 0.0255532005,8.38219585 C0.0318948707,10.063298 0.0374904621,11.7445867 0.040101738,13.4256889 C0.042713014,15.035354 0.0509198813,16.6448326 0.055023315,18.2543111 C0.0591267486,19.8488682 0.0649088597,21.4436117 0.0690122933,23.0385418 C0.0733022467,24.6838321 0.0761000424,26.3294955 0.0846799491,27.9747859 C0.0934463756,29.6497329 0.095125053,31.325053 0.0994150064,33 L63.9982705,33 L63.9982705,24.6601441 C63.9982705,22.9579652 63.9969648,21.2557864 64.0001357,19.5536075 C64.0029334,17.9814328 64.0008817,16.4088851 64.0008817,14.836524 L64.0008817,9.79023315 L63.9633913,9.77549809 L63.9527596,9.73670199 L63.9527596,9.70424756 L63.9428741,9.68671471 L64.0654175,9.55484527 L64.0475117,9.46158542 Z" id="Fill-1"></path>
                </g>
            </g>
        </g>
    </g>
</svg>