<?xml version="1.0" encoding="UTF-8" standalone="no"?>
<svg width="93px" height="41px" viewBox="0 0 93 41" version="1.1" xmlns="http://www.w3.org/2000/svg" xmlns:xlink="http://www.w3.org/1999/xlink">
    <!-- Generator: Sketch 46.2 (44496) - http://www.bohemiancoding.com/sketch -->
    <title>Fill 1</title>
    <desc>Created with Sketch.</desc>
    <defs></defs>
    <g id="Page-1" stroke="none" stroke-width="1" fill="none" fill-rule="evenodd">
        <g id="The-50-States" transform="translate(-306.000000, -791.000000)" fill="#4A4A4A">
            <g id="Kentucky" transform="translate(282.000000, 748.000000)">
                <g id="The-50---Main-Badge-Copy" transform="translate(24.000000, 43.000000)">
                    <g id="Page-1">
                        <path d="M92.7738735,24.9441251 L92.6395085,24.928665 L92.2754877,25.0163564 L92.1239805,24.9986153 L91.1572078,24.6901751 L90.9951127,24.5966546 L90.9124265,24.5013599 L90.9199893,24.4215254 L90.9232665,24.3340875 L90.908393,24.2539995 L90.8796546,24.1815147 L90.8400761,24.1217021 L90.7432728,24.004358 L90.3638744,23.6606891 L90.2706004,23.6393999 L90.2050565,23.6606891 L90.1551423,23.6893282 L90.1228745,23.6606891 L89.8957396,23.329439 L89.7800294,23.2105741 L89.6852429,23.1444255 L89.592473,23.0942438 L89.1162713,22.917087 L89.0119052,22.8446023 L88.9534199,22.7607126 L88.8999764,22.5298259 L88.7237641,22.0176174 L88.7086386,21.9375294 L88.7048572,21.8551603 L88.6181376,21.687381 L88.4676387,21.4701803 L87.6982541,20.6756361 L87.6662384,20.6145563 L87.6374999,20.5418181 L87.5976694,20.3856972 L87.5404445,19.8884418 L87.5180083,19.7883317 L87.4756569,19.6783374 L87.3849038,19.5184148 L87.3165868,19.4286959 L87.248522,19.3597594 L86.7536655,19.0011374 L86.68913,18.9177546 L86.6777858,18.8452699 L86.700222,18.7973691 L86.850973,18.5550775 L86.8845012,18.4863944 L86.8902993,18.4311438 L86.8766864,18.3490283 L86.8333266,18.2288962 L86.7723203,18.1376567 L86.7251791,18.0839268 L86.0541103,17.4855476 L85.9706679,17.3770739 L85.9136951,17.2346389 L85.8529409,17.0093279 L85.7843719,16.8757634 L84.8647405,15.5601402 L84.794911,15.4225206 L84.7888608,15.3452204 L84.794911,15.2729891 L84.8097844,15.2190058 L84.8309601,15.18251 L84.8705386,15.1429728 L85.0906149,14.9830502 L85.1818721,14.8854746 L85.2211985,14.8203397 L85.2385928,14.7554583 L85.2496849,14.6753703 L85.2325426,14.4254754 L85.2385928,14.337784 L85.261029,14.2680872 L85.2973303,14.2255087 L85.3580844,14.2029523 L85.5060624,14.1743132 L85.5607664,14.1380709 L85.5895048,14.0830737 L85.5963113,14.0045063 L85.5930341,13.9170685 L85.5852193,13.8331788 L85.5819421,13.6709752 L85.6101764,13.3184358 L85.6386628,13.1235381 L85.6288312,12.9737532 L85.5895048,12.7938086 L85.365143,12.3001014 L85.3258167,12.1802228 L85.3182539,12.1363771 L85.3217832,12.079099 L85.3689244,11.6728297 L85.3729579,11.4992211 L85.3767392,11.4079816 L85.2537184,11.2191665 L85.0510364,10.7158284 L84.9254946,10.4948261 L84.0454416,9.59130134 L83.5770548,9.29401256 L83.0100999,9.09531316 L82.4759171,8.79270207 L82.119207,8.19305566 L81.8235031,7.15596642 L81.7872019,6.85107435 L81.7872019,6.54009965 L81.7476234,6.31250773 L81.6031747,6.20631506 L81.2865472,6.25751057 L80.5433801,6.63843558 L80.2325508,6.68608288 L79.9799546,6.76617091 L79.786348,6.95498603 L79.6161859,7.17218678 L79.4435029,7.33819202 L79.1152792,7.46313948 L79.0169633,7.54094652 L78.9524278,7.66082511 L78.8231046,7.98954084 L78.7250409,8.1456618 L78.508746,8.2855624 L78.2488392,8.29798111 L77.6912117,8.19305566 L77.4050874,8.21814653 L77.2215644,8.33042183 L77.0733344,8.45562273 L76.6331818,8.55928096 L76.5401599,8.51822318 L76.3884005,8.34816285 L76.0962259,7.86560715 L76.0092542,7.75586628 L75.8542177,7.64587197 L75.5048182,7.48696313 L75.3321352,7.44463813 L74.8985371,7.4532552 L74.786104,7.39090819 L74.5851868,7.19094157 L74.3537663,7.02975175 L74.1016744,6.92761417 L73.8304234,6.89973543 L72.9692773,7.18232451 L72.8326435,7.28344831 L72.7744102,7.57718888 L72.6223988,7.83341987 L72.4103894,8.01792646 L72.1653561,8.09548006 L71.6309211,7.97838934 L71.1474087,7.64587197 L70.3220597,6.80215983 L70.1342512,6.54871671 L69.9716519,6.2676483 L69.7815745,6.0390426 L69.262013,5.89128527 L68.7674086,5.65659694 L68.4790154,5.6140185 L67.3864488,5.82868482 L67.1159542,5.79649754 L65.7523888,5.28175457 L65.4851713,5.07925352 L65.3694611,4.80680217 L65.3558481,4.42967881 L65.3122362,4.10831293 L65.2368607,3.8259773 L65.1211505,3.56746532 L64.9918273,3.41615978 L64.8249425,3.26510768 L64.6807459,3.08997849 L64.6197396,2.87024331 L64.5940262,2.59525752 L64.52218,2.30405138 L64.3928569,2.03818955 L64.2085776,1.8392367 L63.6927975,1.56577158 L63.3933122,1.45451005 L63.1558416,1.4083834 L63.0179473,1.28090152 L62.8886241,0.99349702 L62.7161932,0.701023663 L62.4527572,0.548957792 L61.9294143,0.6536298 L60.8769303,1.13846648 L60.3571167,1.08575032 L59.7331891,0.446059887 L59.5531955,0.342401652 L59.4873995,0.288671711 L59.3333713,0.0537299409 L59.2249717,0 L59.0769938,0.0377630245 L58.9615356,0.130016319 L58.7664165,0.342401652 C58.4596206,0.533497762 58.1523205,0.724086987 57.846785,0.917210642 L57.4752015,1.33336424 L57.5072171,1.8392367 L57.846785,2.20039315 L58.0267787,2.43913656 L58.0918184,2.70778627 L57.9660245,2.97998418 L57.5321743,3.41362535 L57.4240268,3.56746532 L57.5717527,3.76236308 L57.767124,3.8571508 L58.2977775,3.88984497 L58.5637345,3.98716712 L58.5498695,4.21982791 L58.3872702,4.48721039 L58.2145872,4.69959573 L58.1273634,5.00550157 L58.2939961,5.52505996 L58.1311447,5.6140185 L57.1321043,5.50807927 L56.7103545,5.56662463 L55.9316424,5.89128527 L54.1491002,7.00364711 L53.6560083,7.11338798 L53.4134959,6.9636031 L52.9957795,6.47901986 L52.7830139,6.37358752 L52.0078311,6.33633138 L50.5968724,6.47116312 L50.3699897,6.60117944 L50.3659562,6.89821477 L50.4642721,7.22591672 L50.5537647,7.44463813 L50.6581308,8.40772198 L50.9140041,9.01902678 L50.8603085,9.30997948 L50.6878776,9.54264026 L50.0342032,10.0262097 L49.8688309,10.220854 L49.6810224,10.4948261 L49.4932138,10.6357404 L48.9703751,10.6871894 L48.717779,10.755619 L48.3537582,11.2092822 L48.065365,12.5900403 L47.8019289,13.1197364 L47.3695912,13.4608709 L47.1235495,13.5949423 L46.6624733,13.7399117 L46.521806,13.7356032 L46.4613039,13.598237 L46.3952558,13.5409589 L46.2513113,13.4786119 L46.0819055,13.4383144 L45.9586325,13.4383144 L45.7935123,13.6235813 L45.5300762,14.2655528 L45.4073074,14.4067206 L45.2018525,14.5157011 L45.0354718,14.7904334 L44.9235429,15.1351161 L44.8663181,15.4574957 L44.7546413,16.9446999 L44.6278391,17.3466607 L44.5519594,17.4855476 L44.4586854,17.6094812 L44.3394459,17.7166877 L44.1992828,17.8114754 L43.6038416,17.9164009 L43.3189776,18.0253814 L43.1997381,18.2864278 L43.0804987,18.4065598 L42.8180709,18.1913866 L42.3559864,17.6953985 L42.0824666,17.6229137 L41.4648413,17.5767871 L41.2235893,17.4343521 L41.0249408,17.2792449 L40.5414285,17.0169312 L40.3478218,16.8471243 L40.2356409,16.6223203 L40.2132047,16.3820562 L40.2570687,15.7274127 L40.1448878,15.5449336 L39.5133975,15.041849 L39.2897919,14.9354029 L39.0298851,14.9077776 L38.8970326,15.0124496 L39.0450106,15.302642 L39.2897919,15.4552147 L39.5433964,15.5350493 L39.6439811,15.6475781 L39.4317197,15.8936713 L38.9156874,16.1149272 L38.6262859,16.1435663 L38.4780558,16.0974396 L38.4137724,15.9448668 L38.3487326,15.886068 L38.2085695,15.8097817 L38.0684064,15.7998974 L38.0023583,15.9448668 L38.0494995,16.1111255 L38.2695758,16.3572188 L38.3378927,16.5270257 L38.2879785,16.8620775 L38.078238,17.0544408 L37.8009368,17.1444131 L37.5375007,17.1669696 L37.3749014,17.3043357 L37.3136431,17.6343187 L37.3537257,18.6564548 L37.3174244,18.8911431 L37.1621358,19.0411814 L36.5059404,19.1826027 L36.4340942,19.4134894 L36.4340942,19.7221831 L36.3367867,20.034425 L36.0806613,20.2004302 L35.7887388,20.1930804 L35.611014,20.0460834 L35.701515,19.773632 L35.8421823,19.4611367 L35.611014,19.4000569 L35.0705288,19.5047289 L34.6414683,19.4259081 L34.2663555,19.1159471 L34.0029194,18.6959919 L33.9023347,18.2864278 L33.7069634,18.0066266 L33.267063,18.1812489 L32.7986761,18.5401244 L32.5175936,18.8163774 L32.3547422,18.8984929 L31.6400615,18.9760465 L31.4237666,19.0736221 L31.254865,19.1886853 L31.1109205,19.3597594 L30.9664718,19.611175 L30.6311895,20.5859172 L30.4320368,20.947834 L30.0506217,21.2088804 L29.9165088,21.1227097 L29.8121427,21.027922 L29.6245863,20.785377 L29.5630758,20.6219061 L29.5348415,20.4429753 L29.4803897,20.3030747 L29.3321596,20.2442759 L29.108554,20.23059 L28.9358711,20.1831961 L28.8052874,20.1183147 L28.3729497,19.8233069 L27.5476007,19.4910429 L27.3277765,19.3412581 L27.1077002,19.1499085 L26.833172,18.9686967 L26.5445268,18.8310771 L26.2810907,18.7651819 L25.7650584,18.8984929 L25.2646559,19.1785476 L24.7884542,19.2758697 L24.3621667,18.8711211 L24.3223362,18.7190552 L24.3374617,18.4562347 L24.2729261,18.341425 L24.1781396,18.2975793 L24.0699921,18.319122 L23.9767181,18.4166976 L23.9371397,18.6088075 L23.9868018,18.9572917 L24.2106594,19.4074067 L24.2729261,19.7259847 L24.1458718,20.1507554 L23.8325215,20.4982259 L23.4647193,20.6431954 L23.1864098,20.4579284 L23.1579234,20.2232401 L23.2847257,19.7183814 L23.2620374,19.5047289 L23.1029674,19.3787676 L22.8977645,19.3957483 L22.7102081,19.4986462 L22.59475,19.611175 L22.4792919,19.6210593 L21.99704,19.7883317 L21.7547796,19.8233069 L21.4812598,19.7695769 L21.2536208,19.6456433 L21.0625351,19.4684865 L20.8822893,19.2408946 L20.6473396,19.0411814 L20.3876849,18.9935341 L20.1751714,19.1235504 L20.0856787,19.4459301 L20.1350888,19.6573016 L20.503143,20.5742588 L19.9377008,21.2088804 L19.8759382,21.3143127 L19.6518285,21.2527261 L19.2154573,20.9726714 L19.0031959,20.8903024 L18.7221133,20.9305999 L18.6711908,21.132594 L18.6671573,21.4415412 L18.5380862,21.7900255 L18.3507819,21.9960747 L17.6608062,22.5896385 L17.520391,22.7972084 L17.3628335,23.1383429 L17.2829204,23.5081164 L17.3648502,23.8016035 L17.5677843,24.2213053 L17.6320677,24.3089966 L17.9925592,24.6960043 L18.2635581,25.3638269 L18.1667548,25.8035507 L17.7724829,26.0575007 L15.5258394,26.4668113 L14.8083857,26.8771357 L14.603435,26.9346673 L14.0538745,26.9278243 L13.7982532,26.9633064 L13.5968318,27.0725404 L13.4339804,27.2349974 L13.3084386,27.4428208 L13.073741,28.0913817 L13.0165161,28.6922953 L13.1284449,29.2546856 L13.3916289,29.7630925 L13.7584227,30.3026729 L13.9759781,30.7664738 L13.9817762,31.2558725 L13.7223736,31.8760478 L13.3583528,32.2392318 L12.9081165,32.3162785 L12.4210749,32.171309 L11.5448032,31.5914312 L8.19803043,29.9734503 L7.60258923,29.8571199 L7.03588651,29.9263099 L6.52766913,30.1516208 L6.10264209,30.5064412 L5.97936912,30.6729533 L5.56064438,31.4462082 L5.1431801,31.9231882 L4.87545844,32.3956062 L4.90848249,32.7983273 L5.12805458,33.1706352 L5.5505607,33.6602873 L5.60803767,33.9327387 L5.52812452,34.5962528 L5.54677932,35.0823567 L5.52812452,35.2308743 L5.46384107,35.3322516 L5.34460157,35.4673367 L5.23620203,35.6257387 L5.18653992,35.8064436 L5.23242065,36.1265423 L5.41644778,36.6628279 L5.43510259,37.0037089 L5.34031601,37.40643 L4.85453481,38.4660757 L4.55152028,39.3429889 L4.29514276,39.7550874 L3.96742321,39.9302166 L3.58474762,39.7999468 L3.26408665,39.4953082 L2.96787861,39.1465705 L2.67595612,38.8781742 L2.53932228,38.9542072 L2.46319051,39.0418985 L2.34395101,39.3057328 L2.16773874,39.8754729 L2.1342105,40.1114284 L1.94035179,40.8220829 L1.87556416,40.9956915 C3.99767425,40.9956915 6.11978434,41 8.24189443,41 L18.7543811,41 L18.7904303,40.6469537 L18.8042953,40.0926736 L18.7828675,39.8541837 L18.6237975,39.0667359 L18.4037212,38.3456902 L18.3752348,38.1933709 L18.3752348,38.1211396 L18.3966626,38.0960488 L18.4586772,38.0912333 C19.2663799,38.1725886 20.0743346,38.2521697 20.8822893,38.3309905 L20.9790926,38.3631778 L21.037578,38.4473209 L21.1273227,38.6569184 L21.1782453,38.7446097 L21.2425287,38.8051826 L21.314627,38.7844003 C23.4891722,38.749932 25.6642216,38.7263618 27.839019,38.7038054 C30.0987713,38.6802351 32.3582715,38.6460203 34.6180238,38.6186485 C35.4002651,38.6092711 36.1825064,38.6031884 36.9644957,38.5922904 L37.4041441,38.4934476 L37.5090143,38.4876184 C39.6928869,38.5633979 41.8767596,38.6404446 44.0606322,38.7174913 C46.4174399,38.8003672 48.7742476,38.8804552 51.1310553,38.9640914 C53.25493,39.039364 55.3793089,39.1126091 57.5034358,39.1866145 C59.680754,39.2626474 61.8578201,39.3366528 64.0351384,39.4131926 C66.3052264,39.4930272 68.5755666,39.5710877 70.8456547,39.6552308 C71.0427906,39.6625807 71.2399265,39.6686633 71.4370624,39.6752528 L71.8734336,39.5568949 L72.2051866,39.3964654 L72.7459238,38.9296232 L72.9806214,38.8165875 L73.0628034,38.8094911 L74.1415049,38.4143733 L75.309699,38.2944947 L75.443812,38.2509025 L75.5373381,38.2009742 L75.6964081,38.0656356 L76.1796684,37.7911567 L77.4313049,37.3666395 L78.6829415,37.1712348 L78.7908369,37.1200393 L78.8556245,37.0665628 L78.8805816,36.9930643 L78.8841109,36.9139901 L78.8626831,36.7713016 L78.8664645,36.7135166 L78.8992364,36.6628279 L79.0431809,36.5039191 L79.1291443,36.3731424 L79.3527498,35.8794353 L79.5987916,35.6196561 L79.6708899,35.5722622 L79.7502989,35.5494523 L80.2685999,35.5466644 C80.7702629,35.3535408 81.2719259,35.1601637 81.7733368,34.9660263 L81.957616,34.864649 L82.0075302,34.8073709 L82.05089,34.7409688 L82.0834099,34.6624014 L82.1076107,34.5845944 L82.1267697,34.5098286 L82.1476934,34.2774213 L82.1416432,34.1098954 L82.130299,34.0305677 L82.1378618,33.7804194 L82.2023973,33.6574994 L82.3218889,33.5305244 L82.6138114,33.3014119 L83.6950338,32.7681675 L83.821836,32.6855451 L83.8717503,32.6280135 L83.9113287,32.5557822 L83.9448569,32.4756942 L83.9662847,32.3882563 L83.9771247,32.2970168 L83.958722,31.9533479 L83.9151101,31.7135907 L83.92595,31.6160151 L84.0270389,31.4712991 L84.2506445,31.2485226 L84.8496149,30.8366775 C85.8952924,30.3168657 86.9399615,29.7962935 87.9876556,29.2805368 L88.2836116,29.077022 C89.8569175,27.7428974 91.4299713,26.4087728 93,25.0713535 L92.7738735,24.9441251 Z M0.50115881,39.9477042 L0.100836783,40.1228334 L0,40.6550639 L0.108399541,40.8474272 L0.220076278,40.9771901 L1.02046824,40.9597025 L1.07744102,40.7599894 L0.918875182,40.1514724 L0.50115881,39.9477042 Z" id="Fill-1"></path>
                    </g>
                </g>
            </g>
        </g>
    </g>
</svg>