<?xml version="1.0" encoding="UTF-8" standalone="no"?>
<svg width="66px" height="60px" viewBox="0 0 66 60" version="1.1" xmlns="http://www.w3.org/2000/svg" xmlns:xlink="http://www.w3.org/1999/xlink">
    <!-- Generator: Sketch 46.2 (44496) - http://www.bohemiancoding.com/sketch -->
    <title>Fill 1</title>
    <desc>Created with Sketch.</desc>
    <defs></defs>
    <g id="Page-1" stroke="none" stroke-width="1" fill="none" fill-rule="evenodd">
        <g id="The-50-States" transform="translate(-479.000000, -781.000000)" fill="#4A4A4A">
            <g id="Louisiana" transform="translate(442.000000, 748.000000)">
                <path d="M82.3655712,88.330674 L82.4478587,88.2483864 L82.5297307,88.1446958 L82.5178863,88.0098357 L82.3732597,88.06885 L82.2795434,88.389896 L82.2909722,88.5914589 L82.3244275,88.4306242 L82.3655712,88.330674 Z M82.7375275,91.0114603 L82.5962257,90.9293806 L82.2947125,90.8101052 L81.5530858,90.653842 L81.5387478,90.7321814 L82.1421897,90.9784206 L82.700124,91.1076702 L82.7861519,91.1076702 L82.7784634,91.05676 L82.7375275,91.0114603 Z M79.7768388,90.8437683 L79.714292,90.847093 L79.5052484,90.8333785 L79.4638969,90.8741066 L79.3714273,90.9333287 L79.2110082,90.9588877 L79.1033695,90.9218999 L79.0661738,90.8703663 L78.9953151,90.8703663 L78.7314132,90.982161 L78.667204,91.0486559 L78.3245471,91.1309435 L78.3515607,91.2207117 L78.5491754,91.2207117 L79.5127291,90.9859013 L79.7217727,90.8998734 L79.8784515,90.7961828 L79.9002701,90.762312 L79.8181904,90.8101052 L79.7768388,90.8437683 Z M84.1864945,90.5871393 L84.0823883,90.6241271 L83.9847238,90.6806478 L83.6318848,90.9746803 L84.421097,90.6806478 L84.421097,90.5728013 L84.2980813,90.5728013 L84.1864945,90.5871393 Z M87.2174184,85.0086267 L87.2737313,85.1023431 L87.3223558,85.1430712 L87.3699413,85.1725784 L87.4405922,85.1725784 L87.5048014,85.1279021 L87.6047516,85.1461882 L87.6868314,85.2396967 L87.7315077,85.3629202 L87.8025742,85.4256749 L87.9885523,85.3999081 L88.0550473,85.4098823 L88.1038795,85.3589721 L88.1080354,85.2546581 L88.0845544,85.2178781 L88.0629435,85.2436449 L88.0668917,85.2025011 L88.0550473,85.1241617 L88.0332286,85.1125251 L88.0222154,85.1769421 L87.9771235,85.198553 L87.888602,85.2278523 L87.7728592,85.1725784 L87.6458954,85.0198477 L87.642155,84.9716389 L87.7728592,84.9866003 L87.8177433,84.9225988 L87.7421053,84.8072716 L87.6203364,84.7482573 L87.4817359,84.7108539 L87.3817857,84.665762 L87.3252649,84.6106959 L87.2288472,84.5504348 L86.9682701,84.4542249 L86.7926818,84.4723032 L86.6810949,84.4542249 L86.5693002,84.4610822 L86.4886751,84.5350578 L86.4986493,84.6701257 L86.7180827,84.9302873 L86.841514,84.9971979 L87.0098294,84.9533528 L87.1918594,84.9225988 L87.2583544,84.9340277 L87.2288472,84.9456643 L87.2174184,85.0086267 Z M101.554981,81.9739624 L102.009433,81.3626243 L102.202892,81.0422016 L101.387081,82.1148487 L101.554981,81.9739624 Z M102.91418,77.6272692 L102.731942,77.3590036 L102.634278,77.0163467 L102.50108,76.7083918 L102.224918,76.5365439 L102.411104,76.6894823 L102.53412,76.9087079 L102.657343,77.4267453 L102.743371,77.5347997 L102.683318,77.6993747 L102.735682,77.9325227 L102.91418,78.32796 L102.835841,78.417936 L102.843529,78.6487982 L102.835841,79.4045552 L102.761241,79.6537035 L102.389285,80.4017719 L102.44165,80.4838517 L102.463884,80.5698795 L102.467417,80.6521671 L102.45204,80.7302987 L102.76519,80.1337141 L102.873036,79.8101745 L103,78.614304 L102.91418,77.6272692 Z M76.0980045,90.9333287 L76.4599865,91.0706824 L76.906334,91.0706824 L76.6123016,90.9859013 L76.0980045,90.9333287 Z M76.0726533,90.9293806 L76.0980045,90.9333287 L75.9413257,90.8741066 L76.0726533,90.9293806 Z M100.873615,82.7000044 L100.887953,82.7180827 L101.007229,82.6179247 L101.063542,82.5549623 L100.993099,82.5996386 L100.873615,82.7000044 Z M66.1297848,83.3890586 L65.8203754,83.3622528 L65.4405229,83.2816276 L65.4253537,83.2506659 L65.0452934,83.0838051 L64.7219616,82.766915 L64.5243469,82.6372498 L63.8199157,82.4764151 L63.6669773,82.490753 L63.6158593,82.5395853 L63.4888955,82.7180827 L63.4182446,82.7779282 L63.1050948,82.8785018 L62.8603102,82.9015673 L62.6213439,82.9757507 L62.327727,83.2286394 L62.3119345,83.4299945 L62.5172377,83.6240767 L63.802253,84.1822189 L63.9315026,84.3114685 L64.0626224,84.368197 L64.7851318,84.8479998 L65.2726231,84.7596862 L65.4511205,84.7517899 L65.5406809,84.7108539 L65.5664477,84.6067477 L65.5699803,84.4095486 L65.6368909,84.1670497 L65.8087388,84.0220076 L66.2669307,83.7651707 L66.3824657,83.552179 L66.3041263,83.436644 L66.1297848,83.3890586 Z M97.8194183,85.0537186 L98.0544365,85.0614071 L98.3110655,85.0007304 L98.5203169,84.871273 L98.5947081,84.6505929 L98.5793311,84.6067477 L98.575383,84.5695521 L98.5577203,84.5504348 L98.4972514,84.5620714 L98.434289,84.770076 L98.2481031,84.8970398 L97.8194183,85.0537186 Z M97.659207,78.1345012 L97.3204982,78.2088924 L97.0931685,78.2986607 L96.8895277,78.4806906 L96.9069826,78.5471856 L97.0227254,78.4989768 L97.1575855,78.4551316 L97.3948895,78.4139879 L97.5808676,78.4139879 L97.6450768,78.3803248 L97.6041408,78.312583 L97.6041408,78.2383996 L97.659207,78.1345012 Z M88.4685629,87.9138336 L88.2977539,88.1139419 L87.9808638,88.2296847 L87.6947276,88.3822076 L87.616596,88.6990977 L87.7024161,88.6990977 L87.8690691,88.5129117 L88.3056502,88.2859976 L88.5622792,88.1102016 L88.4685629,88.0098357 L88.5622792,87.9138336 L88.4685629,87.9138336 Z M95.2543748,75.3188547 L95.2352574,75.2363594 L95.1529699,75.273555 L95.072137,75.4084151 L95.1760354,75.4537148 L95.2543748,75.3188547 Z M96.4271798,76.6778457 L96.6838089,76.6263121 L96.6952377,76.596805 L96.7440699,76.5288554 L96.8147208,76.4584123 L96.9032423,76.4289052 L96.944386,76.4465679 L96.9813739,76.4879195 L97.0341542,76.5251151 L97.1305719,76.5365439 L97.1382604,76.5070368 L97.1791964,76.4365936 L97.2458992,76.3622024 L97.331927,76.3324875 L97.4256434,76.3696831 L97.4769692,76.4584123 L97.5137492,76.5598171 L97.5511526,76.6263121 L97.7308969,76.863616 L97.815678,76.8985259 L97.8975499,76.7341586 L98.0760473,76.786939 L98.1957383,76.6736898 L98.2520512,76.4698411 L98.2402068,76.2310826 L98.1620752,76.2310826 L98.1211392,76.3283315 L98.0658653,76.4033462 L97.991474,76.4735815 L97.8975499,76.5365439 L97.8863289,76.4698411 L97.8194183,76.3324875 L97.8568217,76.1309246 L97.6371805,76.0297275 L97.4626312,75.9077508 L97.6450768,75.6359526 L98.0014483,75.263373 L98.1660233,75.1366169 L98.3343387,75.0429006 L98.3343387,74.9431581 L98.1402565,74.9953151 L97.9686164,75.1440976 L97.7234162,75.4381301 L97.4063183,75.6766808 L97.2278208,75.7691504 L97.0341542,75.8368921 L97.126416,76.0899886 L97.0227254,76.1685358 L96.8581504,76.1685358 L96.7773174,76.182666 L96.7170563,76.2836552 L96.5799105,76.3580465 L96.4078547,76.4068787 L96.2588644,76.4289052 L96.3374116,76.622364 L96.4271798,76.6778457 Z M100.486074,88.9929223 L100.359111,88.7955154 L100.20638,88.6955651 L100.024142,88.6697983 L99.7970203,88.6990977 L99.8460604,88.848088 L99.8867885,88.9033619 L99.7147328,88.8929721 L99.5173258,88.8364513 L99.3502572,88.7248645 L99.2835545,88.5580036 L98.7576208,88.4054808 L98.7576208,88.3155048 L98.8999616,88.274361 L99.0231851,88.2190871 L99.1196028,88.1372151 L99.1979422,88.0098357 L99.0628743,87.9576787 L99.0157044,87.835702 L98.9706125,87.6788154 L98.8515449,87.5225522 L98.806453,87.5557997 L98.6809438,87.6266584 L98.6435404,87.4558495 L98.5714349,87.3504965 L98.4866538,87.2619751 L98.418912,87.1273228 L98.3711188,87.1645184 L98.2402068,87.2247795 L98.2520512,87.0566719 L98.2481031,86.91537 L98.2225441,86.8293422 L98.1620752,86.8334981 L98.1508542,86.7846659 L98.147945,86.747678 L98.1290355,86.7254438 L98.0698134,86.73334 L97.9542784,86.9899691 L97.7529233,87.1759472 L97.5332821,87.2657154 L97.3730708,87.2247795 L97.3240308,87.1169329 L97.2830948,86.8449269 L97.2087035,86.73334 L97.0676095,86.6653905 L96.9595552,86.6728712 L96.8556568,86.7104824 L96.5913393,86.7512106 L96.401413,86.8179133 L96.3004238,86.8334981 L96.1589142,86.799835 L95.9768842,86.6653905 L95.8688299,86.6358834 L95.8127247,86.5905837 L95.8278939,86.4908412 L95.9060255,86.3869428 L96.039431,86.3420587 L96.1769925,86.3420587 L96.2821377,86.3266817 L96.3640096,86.2672519 L96.3669188,86.1930684 C96.2628126,86.1747823 96.1589142,86.1558728 96.0550158,86.1365477 L95.9243116,86.1635613 L95.8202054,86.2342122 L95.7420738,86.2342122 L95.6637344,86.1735355 L95.5596282,86.1635613 L95.4364047,86.1891203 L95.3992091,86.1442362 L95.1425801,86.0068825 L94.8630934,86.0068825 L94.1110768,86.1635613 L93.9429692,86.1521324 L93.8056156,86.08917 L93.7453545,85.9399719 L93.8093559,85.9131661 L93.9467096,85.8917631 L94.0699331,85.7940986 L94.0994402,85.5565868 L93.8980851,85.6567449 L93.8390708,85.5526387 L93.8839549,85.3477511 L94.0136201,85.1497207 L94.0136201,85.0537186 L93.7864982,85.0343935 L93.4371918,84.8378178 L93.2318886,84.7596862 L93.2616036,84.7108539 L93.2651361,84.6952692 L93.325605,84.6505929 L93.1419126,84.5739158 L92.8262693,84.6067477 L92.5309901,84.4170293 L92.1862552,84.3014942 L92.0630317,84.211726 L91.9923808,84.0664761 L91.9177817,83.7460534 L91.85004,83.5752445 L91.4932529,83.1503 L91.422602,82.9757507 L91.4597976,82.9722182 L91.5855147,82.9757507 L91.5009414,82.8371503 L91.3739775,82.766915 L91.0685163,82.6806793 L91.5073831,82.5958982 L92.5546789,82.8785018 L92.7994635,82.7779282 L92.4759239,82.4500249 L92.4530663,82.3831143 L92.4607547,82.3573475 L92.4530663,82.2869044 L92.1964372,82.1790579 L92.3155048,82.1071602 L92.3682852,82.0890819 L92.2001776,81.9440397 L91.8691573,81.7466327 L91.7573626,81.5862136 L92.133267,81.705489 L92.7481377,82.0971859 L93.1009766,82.1790579 L93.4473739,82.2008765 L93.8428112,82.2869044 L93.9839052,82.3868546 L94.1328955,82.5358449 L94.3124319,82.6586528 L94.5318653,82.6806793 L94.5318653,82.5809368 L94.1073365,82.2008765 L93.9211506,82.0890819 L93.9760089,82.0851337 L94.0287893,82.0741205 L94.0917517,82.0701723 L94.1777796,82.0890819 L94.0287893,81.9107922 L93.7721603,81.8993634 L93.4808292,81.9328187 L93.2318886,81.8918827 L93.0870543,81.7349961 L93.0010264,81.4937441 L93.0305335,81.2256862 L93.2318886,80.9944084 L93.3474236,80.9676026 L93.6235856,81.0085386 L93.7453545,80.9944084 L93.8980851,80.9202249 L93.9660347,80.8520676 L94.0994402,80.5914904 L94.2777299,80.4017719 L94.4718121,80.2425996 L94.5869315,80.0551669 L94.5318653,79.8026938 L94.6991417,79.8064341 L94.8551971,79.8627471 L94.9861091,79.9475282 L95.0902153,80.0526733 L95.2273612,80.3090946 L95.3173372,80.3978238 L95.4775485,80.4017719 L95.4480414,80.4994364 L95.4210278,80.6991291 L95.3992091,80.7967936 L95.5189001,80.6968434 L95.6379676,80.4173567 L95.7420738,80.3132505 L95.8341278,80.3132505 L96.1296148,80.3915899 L96.2588644,80.4017719 L96.0959517,80.2980813 L95.9947547,80.1411948 L95.9201557,79.9666455 L95.8202054,79.8026938 L95.8908563,79.7064839 L95.9804167,79.6048713 L96.1023934,79.53048 L96.2588644,79.5121939 L96.2181363,79.4519328 L96.1965254,79.4045552 L96.1626545,79.3598788 L96.0886789,79.3152025 L96.1707586,79.2813317 L96.4309202,79.1288088 L96.0766266,78.9798185 L95.9947547,78.9195575 L95.9124672,79.0170141 L95.8380759,79.0685478 L95.6481497,79.1288088 L95.6481497,79.0211701 L95.8945967,78.8491143 L95.9908066,78.7192414 L95.9538187,78.5667185 L95.8459722,78.5397049 L95.6895012,78.5960179 L95.5481994,78.7038644 L95.4775485,78.8119187 L95.3992091,78.8119187 L95.4031573,78.7450082 L95.3800918,78.7335793 L95.3992091,78.7231895 L95.3135968,78.6629284 L95.1311513,78.417936 L95.1311513,78.32796 L95.4775485,78.1303453 L95.5596282,78.368896 L95.8008803,78.3204793 L95.947377,78.1008381 L95.7420738,77.824884 L95.5635764,77.7760517 L95.2055425,77.8406765 L95.0453312,77.824884 L94.8822107,77.7286741 L94.9154582,77.68379 L95.0372271,77.6314252 L95.1311513,77.5347997 L95.1311513,77.4115762 L95.0821112,77.2999893 L95.0607081,77.1807139 L95.1311513,77.0319314 L95.2953107,76.9357215 L95.6481497,76.9654365 L95.8202054,76.9242927 L95.9727282,76.7933807 L95.998495,76.6813783 L95.9164153,76.5928568 L95.7420738,76.5365439 L95.6481497,76.566051 L95.3800918,76.7559773 L95.3054928,76.8341089 L95.2273612,76.8341089 L95.197854,76.778835 L95.1901655,76.7676139 L95.1760354,76.7676139 L95.1311513,76.7341586 L95.1311513,76.6263121 L95.2273612,76.6263121 L95.2273612,76.5365439 L95.1311513,76.48127 L94.8475086,76.3580465 L94.710155,76.3324875 L94.64366,76.2506155 L94.5725935,76.2273423 L94.4830331,76.2801227 L94.4458375,76.3661505 L94.4572663,76.5481805 L94.4344086,76.6263121 L94.3674981,76.7460031 L94.322614,76.8496937 L94.2712882,76.9419554 L94.1777796,77.0319314 L94.0443741,77.1065305 L93.7825501,77.1732333 L93.6605734,77.2220655 L93.4808292,77.3745883 L93.4103861,77.5530858 L93.4103861,78.0750713 L93.3553199,78.3869743 L93.2127713,78.7038644 L93.0161956,78.9685975 L92.7994635,79.1288088 L92.5251717,79.1953038 L92.2336329,79.1917712 L91.9549774,79.0880807 L91.7203748,78.8682316 L91.422602,78.5176785 L91.4660315,78.3537268 L91.6497239,78.1120591 L91.679231,78.0227065 L91.579073,77.9595363 L91.1389594,78.1559043 L90.9452928,78.2205291 L90.5951552,78.2088924 L90.3832025,78.1534107 L90.2497969,78.0071218 L90.1226253,77.7251415 L90.0328571,77.4525121 L90.0147788,77.2220655 L90.0816893,77.0061646 L90.2497969,76.786939 L90.5203483,76.6443904 L90.8594727,76.6556115 L91.1838435,76.7933807 L91.422602,77.0319314 L91.5599557,76.9051754 L91.5522672,76.7750946 L91.5073831,76.6369097 L91.5445787,76.4837635 L91.6532564,76.4093723 L92.0256283,76.2801227 L92.0767463,75.9216732 L92.2078661,75.7396432 L92.378675,75.5983414 L92.550523,75.3481541 L92.4158706,75.263373 L92.1964372,75.0098609 L92.0256283,74.9431581 L91.679231,75.0429006 L91.6343469,75.1401495 L91.7045822,75.211216 L91.8061949,75.2407231 L91.85004,75.2407231 L91.8614688,75.1661241 L91.9242234,75.1291363 L91.9923808,75.1517861 L92.0256283,75.2407231 L91.9961211,75.3560503 L91.9319119,75.4264935 L91.7573626,75.5459766 L91.6906598,75.5686265 L91.5009414,75.5382881 L91.422602,75.5459766 L91.4149135,75.5983414 L91.2389096,75.9449464 L91.201714,75.8591264 L91.1503882,75.8065538 L91.1017638,75.7730985 L91.0685163,75.7356951 L91.1503882,75.5983414 L91.29169,75.222437 L91.422602,75.0429006 L91.3288856,74.8463248 L91.2389096,74.8463248 L91.1952723,75.040407 L91.1208811,75.2263852 L91.0092942,75.4084151 L90.73334,75.7691504 L90.7000926,75.8921661 L90.6664295,75.9530505 L90.5513101,75.9449464 L90.375514,75.880945 L90.1776914,75.7770466 L90.0110384,75.6434333 L89.9445434,75.4946508 L89.9029841,75.2779188 L89.8017871,75.1956312 L89.5119105,75.1401495 L89.2694117,75.6064455 L88.9203131,76.0000126 L88.0475666,76.6263121 L87.7948857,76.7418471 L87.5345163,76.8046018 L86.6844196,76.8792008 L86.1715772,77.0431525 L85.8777525,77.0319314 L85.0872935,76.812498 L84.6444786,76.5151408 L83.7243544,76.4289052 L83.2108886,76.2233941 L82.7784634,75.8400091 L82.5397049,75.3072181 L82.5962257,74.6449697 L82.8942062,74.1946741 L83.8255514,73.3823965 L84.1488832,72.9510103 L84.6149714,72.2686057 L84.9050558,71.9591963 L85.1959713,71.7592958 L85.613435,71.7102557 L86.1933958,71.7964914 L86.7926818,71.9591963 L87.2620947,72.156811 L87.8435101,72.6521986 L87.9511489,72.7006152 L88.0039292,72.8421248 L88.2721949,73.3902927 L88.3904313,73.5465559 L88.9575087,73.6469218 L89.0946546,73.6286357 L89.3296728,73.5608939 L89.4670264,73.5465559 L89.742565,73.642558 L90.1932762,74.0263587 L90.4650744,74.0533723 L90.9002009,73.9070834 L91.1389594,73.9446946 L91.2389096,74.1946741 L91.2210391,74.3322356 L91.1877916,74.431978 L91.1798953,74.5254866 L91.2389096,74.6449697 L91.332626,74.703984 L91.589255,74.7825312 L91.679231,74.8463248 L91.8834953,74.7605048 L92.0846426,74.7679854 L92.5014829,74.8463248 L92.7211241,74.7860638 L92.9228948,74.693802 L93.0982753,74.6742691 L93.2318886,74.8463248 L93.0870543,74.9171835 L93.0087149,74.9431581 L92.8852836,74.9431581 L93.0982753,75.1251881 L93.4847773,75.0173416 L93.8504997,74.7721414 L93.9839052,74.5882412 L93.8980851,74.4884988 L93.7426531,74.4398743 L93.5899225,74.4966028 L93.4885177,74.6449697 L93.1986411,74.3102091 L92.8302174,73.4233324 L92.5875108,72.998388 L92.6093294,72.4034658 L92.550523,72.156811 L92.188541,71.5922271 L92.1039677,71.3615727 L92.0925388,71.2379336 L92.1102016,70.9817202 L92.1039677,70.8580811 L92.066772,70.7529359 L91.8575207,70.3656027 L91.5034349,70.1164544 L91.332626,69.6661587 L91.1275306,69.5209088 L90.7258594,69.3646456 L90.531985,69.1632905 L90.2007569,68.4596906 L90.361176,68.1581774 L90.2597712,67.9044576 L90.0661046,67.681076 L89.9445434,67.461227 L89.962414,67.2010654 L90.0559225,66.8839675 L90.2932265,66.3590728 L90.2148871,66.0845733 L90.3266817,65.8345938 L90.6398315,65.4584816 L90.8374462,64.6090083 L91.1314787,64.072477 L91.2954304,63.5475823 L91.3812504,63.0380646 L91.3403145,62.8211247 C90.0540524,62.8211247 88.7677902,62.8173844 87.4811125,62.8173844 L67.0968711,62.8173844 L68.0841136,61.9986651 L68.005982,61.6227607 L67.6182332,61.1529321 L67.4733989,60.7437803 L67.4848277,60.6024784 L67.6182332,60.3485508 L67.6516885,60.1891706 L67.6826502,60.1328577 L67.7377164,59.9722308 L67.7609896,59.8093181 L67.6965726,59.7349269 L67.5220233,59.6270803 L67.3242008,59.3733605 L67.1949512,59.0753799 L67.2128217,58.8405695 L67.402748,58.7393725 L67.7005208,58.7133979 L68.2958585,58.7393725 L68.5614228,58.680566 L68.716647,58.5159909 L68.7989346,58.2903236 L68.9709903,57.3404845 L69.0902657,57.20604 L69.1156169,57.0759592 L69.1376433,56.7848359 L69.1156169,56.6990158 L68.9554056,56.3908532 L68.8259482,56.2227456 L68.7731678,56.1111587 L68.7141535,55.470729 L69.0081859,55.0383039 L69.8909067,54.4018223 L69.9050369,54.3016643 L69.9679993,54.1412451 L69.9794281,53.7908998 L70.2181866,52.5181444 L70.2360572,52.223073 L70.2884219,51.9662362 L70.6761707,51.262844 L70.8367977,50.7111436 L70.9546184,50.4547223 L71.1487006,50.1978855 L71.3652249,50.0594928 L71.8978081,49.9412565 L72.1390601,49.8514883 L72.381559,49.661562 L72.9629744,48.9864302 L73.0440151,48.8632067 L73.1670308,48.5577455 L73.2684357,48.4282881 L73.3904124,48.3474551 L73.7814859,48.2244394 L74.2319894,47.8930035 L74.5158398,47.3851482 L74.5193723,46.8459155 L74.1359873,46.4072565 L74.1322469,46.3058517 L74.1359873,46.1568614 L74.1833649,46.0043385 L74.2988999,45.8888035 L74.9802656,45.9145703 L75.4124829,45.1662941 L75.808128,44.2206109 L76.3816471,43.6506243 L76.3816471,43.5504663 L76.4818052,43.5018418 L76.5266893,43.2888501 L76.4406614,43.0579879 L76.1543175,42.9499336 L75.7142039,42.8834386 L75.5064071,42.8013589 L75.420587,42.6933045 L75.3085845,42.1017071 L75.0212016,41.8257529 L74.6351151,41.6618013 L74.2141188,41.4089126 L74.0611804,41.1971677 L74.0165041,40.9546688 L74.0420631,40.3439541 L74.0690767,40.2026522 L74.1243506,40.0345446 L74.1617541,39.856255 L74.1359873,39.6804589 L74.0420631,39.5649239 L73.7368096,39.3725041 L73.6108848,39.2646575 L73.4648036,39.055614 L73.3569571,38.8104138 L73.2904621,38.5267712 L73.2684357,38.2021926 L73.4018412,37.9904476 L73.7187313,37.9274852 L74.0655441,37.9123161 L74.2988999,37.8481068 L74.5004628,37.5362039 L74.4451889,37.2714708 L74.218067,37.0933889 L73.5957156,36.9882437 L73.4392446,36.8623189 L73.4018412,36.6416387 L73.4992979,36.0500412 L73.7035621,35.33148 L73.8265778,35.1824897 L73.9872048,35.0966696 L74.177131,34.888665 L74.3554207,34.6241397 L74.4786442,34.3625235 L74.2361453,34.0570623 L74.0755184,33.9082798 L73.9165538,33.8455251 L73.7187313,33.8197583 L73.5057396,33.7493152 L73.3353462,33.6362738 L73.2684357,33.4926862 L73.2863062,33 L73.1119647,33.011221 C71.3001845,33.011221 69.4886121,33.0137146 67.6768319,33.0168315 C65.7607377,33.0201563 63.8446436,33.0195329 61.9283416,33.0226498 C60.2142259,33.025559 58.4999024,33.0230654 56.7857867,33.0268058 C54.8216915,33.0311695 52.8575962,33.0332475 50.893501,33.0332475 C49.2028663,33.0332475 47.5124395,33.0407282 45.8218048,33.0407282 C43.7669024,33.0407282 41.7117922,33.0442607 39.6566819,33.0480011 C38.7801951,33.0494556 37.9037082,33.0509102 37.0270136,33.0523648 C37.0232732,34.8298585 37.015377,36.6073522 37.015377,38.3850537 C37.015377,40.2205228 37.0108054,42.0559918 37.0068573,43.891253 C37.0039481,45.3032322 37.0049871,46.7150036 37,48.1265671 L37.0114288,48.1575289 L37.0384424,48.2128028 L37.105353,48.2909344 L37.2757463,48.4168592 L37.3580339,48.4629901 L37.5145048,48.5849668 L37.5735191,48.65541 L37.8318105,49.1327192 L37.8752401,49.1879931 L37.9278127,49.2328772 L37.9841256,49.2700729 L38.3974334,49.4793242 L38.5092281,49.571586 L38.7542205,49.828215 L38.9262762,50.0518044 L39.0376553,50.2492113 L39.0966696,50.3878118 L39.14945,50.5328539 L39.2392182,50.7190399 L39.56255,51.1988426 L39.5962131,51.3322482 L39.6822409,51.902027 L39.7308654,52.0740827 L39.7742949,52.1894099 L39.819179,52.2345018 L39.8565824,52.2818795 L39.8860896,52.3384002 L39.8973106,52.4129993 L39.8937781,52.4988193 L39.8347638,52.7334219 L39.8154387,52.8668274 L39.7934122,53.2803431 L39.7742949,53.4035665 L39.7566322,53.4854385 L39.7038518,53.5905837 L39.6527338,53.7422753 L39.6448375,53.8474205 L39.6527338,53.9577606 L39.6974101,54.100517 L39.7308654,54.186337 L39.808997,54.3197426 L39.9309737,54.4917983 L40.2694747,54.8662481 L40.3787758,54.9566397 L40.4417382,54.9973679 L40.5123891,55.0345635 L40.8176426,55.1282799 L40.8920338,55.1575792 L40.9510481,55.198723 L40.9921919,55.2589841 L40.9998804,55.3358689 L40.9626847,55.4146239 L40.9331776,55.455352 L40.9175928,55.4746771 L40.9113589,55.4771707 L40.7767066,55.5642375 L40.739511,55.6236674 L40.7318225,55.6941105 L40.7586283,55.8135937 L40.7841873,55.8761405 L40.8213829,55.9445057 L40.8702152,55.9841949 L40.9294372,56.013702 L41.078012,56.0548458 L41.1488707,56.0853919 L41.2014432,56.129237 L41.242587,56.2187974 L41.2758345,56.3422287 L41.309082,56.5757923 L41.3462776,56.7040029 L41.3876292,56.7989661 L41.5143852,56.970814 L41.7080518,57.1838057 L41.8828089,57.2993407 L41.9046276,57.3404845 L41.8981859,57.3895245 L41.7377668,57.5931654 L41.7005711,57.6536342 L41.6477907,57.7830916 L41.6222317,57.8691195 L41.6070626,57.9692776 L41.6326216,58.1257485 L41.6735575,58.2157245 L41.7300783,58.2824273 L42.0534101,58.5571347 L42.1920105,58.7059172 L42.2331543,58.766386 L42.2664018,58.8368291 L42.2921686,58.9191167 L42.3177276,59.0379764 L42.3486893,59.1385501 L42.3896253,59.2127335 L42.456328,59.3218268 L42.4741986,59.3989195 L42.5267712,59.789993 L42.552538,59.8683324 L42.5859932,59.919866 L42.6231889,59.9583084 L42.6601767,59.9880233 L42.6871903,59.9992444 L42.7245937,60.0071407 L42.7694778,60.0071407 L43.014678,59.9429314 L43.2417999,59.9992444 L43.3085027,60.2402886 L43.2750474,60.8925628 L43.2455402,61.0373971 L43.1262649,61.2350119 L43.1007059,61.3981323 L43.4392068,61.9423521 L43.6137561,62.0986153 L43.6665365,62.2066696 L43.6177043,62.3529586 L43.5173384,62.4219471 L43.1748893,62.5270923 L43.0593543,62.5451706 L42.8733762,62.6993558 L42.9812227,63.0303761 L43.1827856,63.3462272 L43.2750474,63.453866 L43.3727119,63.644 L43.353179,63.7080014 L43.2750474,63.8603165 L43.0815886,64.0311254 L42.9697939,64.1541411 L42.9224162,64.3074952 L42.9361308,64.4677065 L43.0005478,64.7471932 L43.014678,64.9103136 L43.0107299,65.0863175 L42.9926515,65.2159827 L42.9224162,65.4584816 L42.4642243,66.3027599 L42.3626117,66.9997103 L42.240635,67.2087539 L41.8084177,67.5549434 L41.7043115,67.7808185 L41.5210347,68.5047825 L41.4952679,68.6562663 L41.2500677,68.7279562 L41.0564011,68.9099862 L40.9446064,69.166823 L40.9406583,69.4544138 L40.9780617,69.5285972 L41.078012,69.5953 L41.111675,69.6622106 L41.1231039,69.9446064 L41.111675,69.9601912 L41.2679382,70.395941 L41.283523,70.511476 L41.2500677,70.7838976 L41.152611,70.9817202 L40.8471497,71.3615727 L40.6688601,71.6882293 L40.6277163,71.9670925 L40.6763408,72.608769 L40.76507,72.831735 L40.9547885,73.0100246 L41.1384808,73.2180292 L41.1974951,73.5465559 L41.1602995,73.6915981 L41.0408163,73.9779421 L41.0192055,74.1423093 L41.0485048,74.2869359 L41.1719361,74.4997198 L41.1974951,74.5965531 L41.2270022,74.8646109 L41.2720942,75.0736545 L41.2795748,75.3047245 L41.1974951,75.6359526 L41.037076,75.9216732 L41.0154651,76.0567411 L41.111675,76.2310826 L40.3710873,77.0726596 L40.1142505,77.527319 L40.1142505,77.5310593 L40.2181488,77.5424881 L40.4224131,77.6272692 L40.482882,77.8363128 L40.4224131,78.7670346 L39.9052069,79.8026938 L39.7038518,79.8513183 L38.9067433,79.9068 L38.7914161,80.0551669 L38.8248714,80.3915899 L38.9480949,80.9944084 L39.264985,81.433483 L39.5101852,81.6157208 L39.7678532,81.5415373 L39.9681693,81.382365 L40.3673469,81.1922309 L40.5416884,81.0422016 L40.9589444,80.808638 L41.5438923,80.7072332 L42.6090587,80.6991291 L43.8859699,80.7263505 L44.2103407,80.5914904 L44.4378782,80.6478033 L44.9958126,80.5875423 L45.2601301,80.6991291 L45.5246554,80.5582429 L46.2509052,80.4287855 L46.91066,80.3978238 L47.5984673,80.517307 L48.9765756,80.863912 L49.8223086,81.2551933 L51.3568878,81.7618019 L52.0012657,82.2869044 L52.4619511,82.5431178 L53.7810452,83.1093641 L55.8841564,83.5831408 L56.3246856,83.4711383 L56.454143,83.5484387 L56.5811069,83.4711383 L56.8709834,83.6263625 L58.785623,83.969435 L59.1615274,83.9586295 L59.5262107,83.8611729 L60.450283,83.3697335 L60.8145508,83.2816276 L61.5975291,83.3560189 L61.9439264,83.3481226 L62.1070468,83.1725343 L61.8500022,83.0838051 L61.9243935,82.9410487 L62.0771241,82.8639561 L62.4609248,82.7779282 L62.3084019,82.6372498 L62.0143695,82.6397433 L61.709116,82.7332519 L61.5152416,82.8785018 L61.4186161,82.8785018 L61.3446404,82.6293535 L60.9901391,81.8918827 L61.1430775,81.8366088 L61.5152416,81.5862136 L61.4034469,81.5197187 L61.2958082,81.5271993 L61.1800654,81.5646028 L60.8789678,81.6192533 L60.6965222,81.7618019 L60.6030137,81.7952572 L60.4874787,81.6720337 L60.3642552,81.3844429 L60.2678375,81.0534227 L60.2229534,80.7967936 L60.491219,80.9754989 L60.5581296,80.9944084 L60.6283649,80.9380954 L60.7335101,80.7402729 L60.7771474,80.6991291 L60.9901391,80.759598 L61.0828165,80.9085883 L61.0533093,81.0729556 L60.8968383,81.202413 L61.076167,81.2061533 L61.2288976,81.0945664 L61.5152416,80.7967936 L61.6831414,80.6968434 L62.7701264,80.2980813 L62.8931421,80.2049884 L62.9714815,80.0117374 L62.9486238,79.8845657 L62.9714815,79.8218111 L63.194863,79.8026938 L63.3361648,79.8627471 L63.466869,79.9666455 L63.6123268,80.0040489 L63.9508277,79.7472121 L64.111039,79.7395236 L64.6988962,79.8278372 L64.8441461,79.918021 L64.9376547,80.0630632 L64.9671618,80.2567298 L64.9262258,80.5071249 L64.8296003,80.462033 L64.7182213,80.2980813 L64.6205568,80.2049884 L64.4832031,80.3273807 L64.3601874,80.5995945 L64.3150955,80.8716005 L64.4048637,80.9944084 L64.4460075,81.0987224 L64.4576441,81.30361 L64.5615425,81.4528081 L64.8811339,81.3883911 L65.3509625,81.1168007 L65.5699803,81.0278637 L66.7506816,80.9611609 L67.0424283,80.9944084 L67.3435259,81.1201254 L67.4362032,81.3102595 L67.3950595,81.9402994 L67.3358374,82.27506 L67.2651865,82.5219226 L67.3206682,82.6586528 L67.6516885,82.6806793 L67.7979774,82.6436915 L68.0762173,82.5219226 L68.2112853,82.490753 L68.3151836,82.5589104 L68.3370023,82.7141346 L68.3407427,82.8978269 L68.3781461,83.0312325 L68.5127984,83.2872381 L68.5614228,83.6201286 L68.5088503,83.9104207 L68.334301,84.0589954 L68.6464117,84.1256982 L69.1683973,84.0434106 L69.6818631,83.8732251 L69.9756878,83.6635581 L70.1514839,83.7946779 L70.1321588,83.9253821 L70.0359488,84.0629435 L69.9756878,84.211726 L70.0423905,84.3089749 L70.1924198,84.342638 L70.5005825,84.3567682 L70.8031346,84.4388479 L71.3386269,84.665762 L71.6220617,84.8479998 L71.6746343,84.6952692 L71.8273649,84.4170293 L71.878483,84.268039 L71.8491836,84.2233627 L71.8001436,84.1036717 L71.7787405,83.9511489 L71.8338066,83.8142108 L72.1957887,83.5145678 L72.2624914,83.3111348 L72.1390601,82.9757507 L72.3443634,82.9863484 L72.5085228,83.0567915 L72.612629,83.1874957 L72.6537728,83.3815779 L72.612629,83.6126479 L72.4973018,83.749586 L72.356,83.8511986 L72.225088,83.969435 L72.068617,84.2938058 L72.0133431,84.6771908 L72.0763055,85.0614071 L72.2662318,85.3999081 L72.3485193,85.4549742 L72.512471,85.5040143 L72.5754334,85.5565868 L72.6012002,85.6488486 L72.5833297,85.8871915 L72.6165771,85.9915055 L72.7576712,86.1186772 L73.1568488,86.3530719 L73.856085,86.9446694 L74.0011271,87.2582347 L73.7814859,87.6266584 L73.7814859,87.7160111 L73.841747,87.7536223 L73.9011769,87.845884 L73.9599834,87.9138336 L73.844864,88.0293686 L73.7187313,88.1102016 L73.4469331,88.2076583 L73.4504657,88.0474469 L73.3981009,87.9319119 L73.3056313,87.8573129 L73.170979,87.8163769 L73.2904621,87.6266584 L73.3428269,87.4144979 L73.3492686,86.9295002 L72.9733642,87.0427495 L72.6753836,86.8706937 L72.5228608,86.5845576 L72.5754334,86.3420587 L72.2776606,86.371358 L72.1290859,86.5315694 L72.0237329,86.7626394 L71.878483,87.0194762 L71.6885567,87.160778 L71.450006,87.2172988 L71.2305726,87.1539207 L71.1048555,86.9295002 L71.2496899,87.5713845 L71.7924551,88.0588758 L72.5049903,88.3782594 L73.8265778,88.6014332 L73.97162,88.6621098 L74.2656525,88.9260117 L74.38472,88.9929223 L74.590231,89.0082993 L74.7570919,88.9787921 L74.8686787,88.8657507 L74.9098225,88.6504732 L74.9958504,88.5837704 L75.1932573,88.5989396 L75.3989761,88.6735387 L75.5128488,88.807152 L75.3794432,88.8364513 L75.2894672,88.9110504 L75.2458299,89.0301179 L75.2522716,89.1905371 L75.6103055,89.0560925 L75.9531702,89.1383801 L76.272346,89.3474236 L76.8500211,89.8874875 L76.9809331,89.8642142 L77.021869,89.8089403 L77.0297653,89.7411985 L77.0707013,89.6902883 L77.3530971,89.5489865 L77.40941,89.4176589 L77.3273303,89.1905371 L77.5505041,89.2765649 L77.7585086,89.4176589 L77.9717082,89.4999465 L78.1986222,89.3962559 L78.2910918,89.6643137 L78.1537381,89.7563677 L77.9482271,89.8170444 L77.8441209,89.9836974 L77.997475,89.9955418 L78.4398743,90.1443243 L78.5337985,90.1360124 L78.627307,89.9286312 L78.8313635,89.9348652 L79.0248223,90.0323218 L79.0996291,90.0915439 L79.1997872,90.0582964 L79.252152,89.9874377 L79.2932957,89.9172024 L79.4715854,89.8349149 L79.4834298,89.7154317 L79.4638969,89.5861821 L79.4909105,89.4924658 L79.6322123,89.4434258 L79.7733063,89.476881 L79.8412558,89.5998967 L79.9195952,89.7862904 L79.9195952,89.5489865 L80.0081167,88.9929223 L79.9788173,88.9673633 L79.9195952,88.9033619 L80.027234,88.571926 L80.0941445,88.4191954 L80.1799646,88.3155048 L80.2994478,88.4601314 L80.3954499,88.6132776 L80.4916598,88.6697983 L80.6148833,88.5129117 L80.4544642,88.2961797 L80.5330114,88.1473972 L80.6716118,87.9803286 L80.6934305,87.7160111 L80.4033462,87.6713347 L80.3430851,87.6266584 L80.339137,87.4660315 L80.399398,87.3876921 L80.4958157,87.3773023 L80.6148833,87.4221864 L80.6406501,87.2875341 L80.7127556,87.2133506 L80.8201865,87.1979737 L80.9614883,87.2247795 L80.9614883,87.3322104 L80.791095,87.4221864 L80.9130717,87.4855644 L81.3490293,87.6266584 L81.4978118,87.5557997 L81.617295,87.432784 L81.7405185,87.4070172 L81.9071715,87.6266584 L82.201204,87.2912744 L82.302401,87.1055041 L82.3395966,86.8819148 L82.3988187,86.6653905 L82.5218344,86.6728712 L82.6296809,86.7703279 L82.6411098,86.8334981 L82.7119685,86.9116297 L82.960909,87.3290934 L83.0353003,87.5225522 L83.0353003,88.3155048 L83.3378524,87.9138336 L83.3819053,87.7675447 L83.4008148,87.5751248 L83.463985,87.4479532 L83.5678834,87.3737697 L83.7243544,87.3322104 L83.7243544,87.4221864 L83.7434717,87.589255 L84.2095599,88.1072924 L84.3275885,88.3605967 L84.3762129,88.4306242 L84.4801113,88.2564905 L84.5702951,88.0218879 L84.5854643,87.9138336 L84.7111814,87.9358601 L84.7934689,88.0732137 L84.8344049,88.2527502 L84.8458337,88.4054808 L84.8265086,88.5762898 L84.7716502,88.7811774 L84.759598,88.9480382 L84.7151295,89.1011844 L84.632842,89.2537073 L84.5815162,89.402282 L84.6293094,89.5371421 L84.8973673,89.7900308 L84.9792392,89.9132543 L85.0166426,90.0915439 L85.0241233,90.2737817 L85.0023047,90.4161225 L84.9241731,90.4946697 L85.1101512,90.5611647 L85.4976922,90.3967974 L86.1458104,89.9836974 L86.353815,89.9132543 L86.5665989,89.7384972 L86.7376156,89.5371421 L86.9196456,89.3962559 L86.9902965,89.2983836 L87.2778873,88.7439818 L87.3595514,88.5129117 L86.9454124,88.5683935 L86.7411482,88.1592416 L86.8041106,87.7268165 L87.1839631,87.7160111 L87.0466094,87.4735122 L87.1505078,87.3504965 L87.3595514,87.3876921 L87.5303604,87.6266584 L87.7807555,87.5225522 L87.7807555,87.4221864 L87.5752445,87.3133009 L87.4033965,87.1350112 L87.2918097,86.9039412 L87.2620947,86.6358834 L87.3662009,86.6691308 L87.4405922,86.73334 L87.4931647,86.8220693 L87.5303604,86.9295002 L87.5457373,86.5473619 L87.5303604,86.4316191 L87.4896322,86.3381106 L87.4343583,86.2635115 L87.3595514,86.1891203 L87.3622528,85.9507773 L87.4033965,85.8132159 L87.5087495,85.727188 L87.7024161,85.6449005 L87.4148254,85.3770504 L87.1212085,85.1908645 L86.8041106,85.0865505 L86.4435832,85.0537186 L86.3201519,85.0242115 L86.1933958,84.9496124 L85.6529164,84.4467442 L85.5353034,84.3567682 L85.4604966,84.4351076 L85.4041836,84.4502767 L85.3514033,84.393756 L85.2851161,84.268039 L85.4041836,84.268039 L85.5082898,84.2449735 L85.7056968,84.1591534 L85.7056968,84.0589954 L85.6196689,84.0704242 L85.3632477,84.0589954 L85.4413793,83.8611729 L85.6315133,83.6163882 L85.7056968,83.4711383 L85.895623,83.6377913 L86.1894477,84.0785283 L86.3947509,84.268039 L86.4886751,84.1591534 L86.3245156,84.0515147 L86.3654516,83.969435 L86.5358449,83.9359797 L86.7488367,83.969435 L86.9861406,84.0785283 L88.3646645,84.9971979 L88.7368285,85.1279021 L89.1655133,84.9456643 L89.5565868,85.350868 L89.7645914,85.4256749 L89.8541518,85.1023431 L89.872438,84.9045205 L89.9285431,84.8675327 L90.0214283,84.9126246 L90.32024,84.9828599 L90.349955,85.0713813 L90.2932265,85.2511256 L90.2676674,85.2436449 L90.2113545,85.2958019 L90.1521324,85.3728945 L90.1226253,85.4489481 L90.1226253,85.5412099 L90.1481843,85.5898343 L90.1776914,85.6158089 L90.2007569,85.6449005 L90.2265237,85.7130578 L90.2751481,85.8092677 L90.3418509,85.8992437 L90.4203981,85.9399719 L90.6884559,85.7899426 L90.8334981,85.7564874 L90.8964605,85.8917631 L90.8594727,85.9877652 L90.7925621,86.073793 L90.7555743,86.1735355 L90.8116794,86.3420587 L90.8488751,86.2714078 L90.8823303,86.2419006 L90.9232663,86.2107311 L90.9899691,86.1442362 L91.0645681,86.3455912 L91.1057119,86.5126599 L91.0901271,86.6691308 L90.9899691,86.8334981 L90.8488751,86.9529813 L90.6358834,87.0678929 L90.2007569,87.2247795 L91.9549774,87.3814582 L92.1039677,87.3322104 L92.4464168,87.0194762 L92.6288623,86.9295002 L92.766216,87.0566719 L92.7585275,87.191532 L92.550523,87.5225522 L92.7622679,87.708946 L92.832711,87.9358601 L92.9459602,88.1295267 L93.2767727,88.2076583 L93.6158971,88.2373732 L94.3560692,88.5129117 L94.2340925,88.2113986 L94.3714462,88.0809022 L94.6318156,88.0844348 L94.8743144,88.2076583 L94.6395041,88.3117644 L94.5318653,88.3155048 L95.2273612,89.5820262 L95.4929255,89.6821843 L95.5891354,89.7721603 L95.5189001,89.9348652 L95.5110038,90.0427117 L95.6481497,90.4302527 L95.7751135,90.5457877 L96.0627043,90.4909294 L96.3606848,90.3186658 L96.5173636,90.0915439 L96.5233897,89.9172024 L96.4527388,89.6156893 L96.4309202,89.4434258 L96.4720639,89.2871626 L96.5570528,89.194693 L96.6428729,89.2023815 L96.6838089,89.3474236 L96.6684319,89.7015094 L96.6952377,89.8837471 L96.7773174,89.9836974 L96.8853717,89.9427614 L96.918827,89.7783942 L96.9265155,89.5961564 L96.948542,89.4924658 L97.1343123,89.507635 L97.1087533,89.7900308 L96.9932183,90.1210511 L96.9032423,90.2775221 L96.6838089,90.7689615 L96.5684816,90.82569 L96.285878,90.8847043 L96.1747067,90.9746803 L96.1707586,91.05676 L96.1923695,91.2013866 L96.1923695,91.3657538 L96.1296148,91.5110038 L95.857401,91.8418163 L95.7751135,91.9831181 L95.5481994,92.1666026 L95.4775485,92.2476434 L95.444301,92.3781398 L95.3992091,92.8321758 L95.6751632,92.7544598 L95.8985448,92.5601698 L96.4901422,91.6855531 L96.5684816,91.4952112 L96.5979888,91.3131812 L96.7095757,91.0858516 L96.974101,90.9964989 L97.2652243,90.956602 L97.4665794,90.8741066 L97.5295418,90.762312 L97.5216455,90.6690112 L97.4881902,90.5688532 L97.4665794,90.4302527 L97.4921384,90.2852105 L97.5555164,90.2852105 L97.6862206,90.3749787 L97.7822227,90.4946697 L98.0953724,91.0451234 L98.1620752,91.2130232 L98.2441549,91.369702 L98.6242153,91.8455566 L98.7576208,91.9430133 L98.9296765,91.8607258 L98.6809438,91.3759359 L98.7179316,91.1151509 L99.0566404,90.7731174 L99.2158127,90.5688532 L99.2835545,90.3749787 L99.3390362,90.4867734 L99.401583,90.5611647 L99.5480798,90.6806478 L99.5518201,90.5123324 L99.5146245,90.3558614 L99.4464671,90.2145596 L99.3683355,90.0915439 L99.5736388,90.0992324 L99.7147328,90.192741 L99.7895396,90.3558614 L99.7970203,90.5728013 L99.9649201,90.4086418 L100.321915,89.6902883 L99.4876109,89.6703398 L99.3683355,89.6902883 L99.3955569,89.5138689 L99.5661581,89.3139684 L99.7928644,89.1496011 L99.9717774,89.1011844 L99.9611798,89.1867967 L99.9717774,89.2983836 L99.9717774,89.3962559 L100.065078,89.3962559 L100.124092,89.2495513 L100.214276,89.2200442 L100.486074,89.2983836 L100.396306,89.1574974 L100.344773,89.1238343 L100.229445,89.1011844 L100.229445,88.9929223 L100.486074,88.9929223 Z M99.5543137,84.1940633 L99.9356208,83.7574823 L99.9827906,83.6791429 L99.9237764,83.698468 L99.894477,83.7200788 L99.3720759,84.3154166 L99.4622597,84.2707403 L99.5543137,84.1940633 Z M96.3640096,80.1862867 L96.948542,80.6991291 L97.1305719,80.2049884 L97.1201821,80.1077395 L97.0378946,80.1229087 L96.9109307,80.1783904 L96.7773174,80.2049884 L96.3862439,80.1077395 L96.3640096,80.1862867 Z M88.9124168,87.6678022 L88.8342852,87.720167 L88.7698682,87.8240654 L88.8930917,87.835702 L89.0792776,87.7160111 L89.0983949,87.6380873 L88.9753792,87.6522174 L88.9124168,87.6678022 Z M96.8853717,78.2275942 L97.075298,77.8853528 L97.1715079,77.6505425 L97.1087533,77.6465943 L96.9069826,77.9366787 L96.7773174,78.1710734 L96.7095757,78.3086349 L96.6054695,78.4590798 L96.4787134,78.6076545 L96.546663,78.5885372 L96.7773174,78.368896 L96.8853717,78.2275942 Z M95.0488637,80.5071249 L94.8743144,80.4017719 L94.8294303,80.3502383 L94.7691693,80.2980813 L94.6178932,80.2049884 L94.4279669,80.372057 L94.382875,80.5875423 L94.4344086,81.202413 L94.6025162,81.0987224 L94.7257397,80.7674943 L94.8294303,80.6991291 L94.9117178,80.759598 L94.9705243,80.8934191 L95.0642407,81.0278637 L95.2273612,81.0945664 L95.1646065,80.8934191 L95.1276187,80.684999 L95.0488637,80.5071249 Z" id="Fill-1"></path>
            </g>
        </g>
    </g>
</svg>