<?xml version="1.0" encoding="UTF-8" standalone="no"?>
<svg width="50px" height="75px" viewBox="0 0 50 75" version="1.1" xmlns="http://www.w3.org/2000/svg" xmlns:xlink="http://www.w3.org/1999/xlink">
    <!-- Generator: Sketch 46.2 (44496) - http://www.bohemiancoding.com/sketch -->
    <title>Page 1</title>
    <desc>Created with Sketch.</desc>
    <defs>
        <polygon id="path-1" points="0 75 0 0 50 0 50 75"></polygon>
    </defs>
    <g id="Page-1" stroke="none" stroke-width="1" fill="none" fill-rule="evenodd">
        <g id="The-50-States" transform="translate(-647.000000, -774.000000)">
            <g id="Page-1" transform="translate(647.000000, 774.000000)">
                <mask id="mask-2" fill="white">
                    <use xlink:href="#path-1"></use>
                </mask>
                <g id="Clip-2"></g>
                <path d="M34.6315529,52.6566829 L34.5954228,52.3276803 L34.2391333,52.079223 L33.7296208,52.1164785 L33.2557109,52.3476198 L33.0017458,52.6721623 L33.1415189,52.8201347 L33.1014331,52.9702061 L32.9619237,53.0861703 L32.7976244,53.1326085 L32.6937176,53.2157774 L32.5861187,53.4146482 L32.3595808,53.994207 L32.2954961,54.2237742 L32.2846835,54.4265805 L32.3769865,54.5142096 L32.5565817,54.5653702 L32.6433465,54.6739883 L32.6032607,54.791002 L32.420237,54.8594786 L32.5389123,55.1223659 L32.9519022,55.3275334 L33.091939,55.55815 L33.1486395,55.5243053 L33.2884125,55.468422 L33.3427394,55.4335278 L33.42212,55.7132063 L33.608572,55.6738519 L33.8166493,55.4718328 L33.9669714,55.2653535 L33.9669714,55.0814373 L33.8090014,54.9164113 L33.6805684,54.6808098 L33.7559931,54.2846423 L33.8409118,54.2846423 L34.125205,54.5551381 L34.6407832,54.5184074 L35.1505594,54.281494 L35.4237762,53.9501301 L35.316441,53.4647595 L34.6315529,52.6566829 M49.9744189,45.6487176 L49.8275253,45.229987 L49.8172401,45.1630845 L49.8275253,45.0864747 L49.8275253,45.0235077 L49.7884943,44.9970091 L49.6118,45.0093401 L49.57567,44.9970091 L49.3248696,44.5336769 L49.1924807,44.3697003 L49.0018091,44.3111934 L49.214106,45.0434472 L49.1961729,45.392127 L48.9190002,45.589686 L48.9097699,45.2131958 L48.8153571,44.765343 L48.6471019,44.4701851 L48.4137073,44.5536164 L48.4822752,44.6422949 L48.5434589,44.8170284 L48.581435,44.8918017 L48.4137073,44.9970091 L48.5073289,45.1245173 L48.3343267,45.1717425 L48.141809,44.8687138 L48.0004536,44.8918017 L47.9759274,45.020097 L47.9511374,45.5319662 L47.919227,45.7056502 L47.7420052,44.8346067 L47.6312417,44.654626 L47.4097145,44.4282071 L47.2512171,44.1847347 L47.3377182,43.9520191 L47.4772275,43.9819285 L47.8867891,44.3395286 L48.0402757,44.4282071 L48.2451884,44.3594681 L48.3630725,44.1986399 L48.3493589,44.0029175 L48.1663353,43.8352678 L48.2987241,43.4453971 L48.43586,43.4889493 L48.5758968,43.705136 L48.7077582,43.8352678 L48.9622507,43.7342582 L49.0416313,43.4960331 L49.0888377,43.2239631 L49.2394234,43.0208946 L49.0925298,42.8487847 L48.8551793,42.3201243 L48.7905672,42.2062589 L48.6289051,42.1238771 L48.4532657,41.9176601 L48.3738851,41.649788 L48.5073289,41.3811288 L48.3456668,41.0809861 L48.1663353,40.8089161 L48.0299906,40.6601566 L47.9511374,40.5998132 L47.875449,40.5756758 L47.8496042,40.5310742 L47.7852558,40.3051801 L47.7064027,40.1251994 L47.6776569,40.0121211 L47.6286044,39.9160965 L47.5421033,39.8751679 L47.2944676,39.8916968 L47.247525,39.8751679 L47.1800119,39.6768218 L46.9780002,39.5868315 L46.6947619,39.4079003 L46.5439125,39.366447 L46.393063,39.4089497 L46.2725417,39.5359332 L46.2498615,39.6676392 L46.2461694,39.810102 L46.1818211,39.9701431 L45.7625018,40.2411636 L45.3133818,40.0341596 L44.8966998,39.5703027 L44.4444151,38.8257178 L43.9138048,38.3169969 L43.8705543,38.0423033 L43.9457153,37.7093653 L44.064918,37.4236525 L44.3623973,36.8776761 L44.4309653,36.248006 L43.781416,35.073409 L43.6479722,34.4245865 C43.8507751,34.2571992 44.0541054,34.0908614 44.2584906,33.925573 L44.4628757,33.7335236 L44.514038,33.1232684 L44.4022195,32.6216313 L44.1725169,32.3999349 L43.8607965,32.3626795 L43.487365,32.4167261 L42.934602,32.4072811 L42.2594716,32.2398938 L41.6175703,31.9421123 L41.2478309,31.6592855 L41.0761473,31.4795672 L41.0067882,31.2851566 L40.9252979,31.1156704 L40.7950188,30.9949836 L40.7024521,31.0222693 L40.6383675,31.1447926 L40.5518664,31.2460646 L40.3836112,31.2053984 L40.089824,31.0146608 L39.9162944,30.8648518 L39.8345403,30.6410566 L39.7839055,29.7133427 L39.844298,29.4501931 L39.9914554,29.149788 L40.1631389,28.8632881 L40.2501675,28.6505121 L40.2103453,28.4290782 L40.0104434,28.1160797 L39.9276345,27.8261691 L40.0703085,27.5774494 L40.2897259,27.336863 L40.4292353,27.0687285 L40.4081374,26.9107862 L40.3145158,26.7806544 L40.2032248,26.6612795 L40.1285912,26.5298359 L40.106966,26.3624486 C40.0745281,24.0247985 40.0426176,21.6868861 40.0136081,19.349236 C39.985126,17.0079129 39.948996,14.6668521 39.9205139,12.3255289 C39.9009985,10.7269541 39.8775271,9.12864159 39.8556381,7.53006675 L39.8123876,6.82982117 L39.7551597,6.7120204 L39.2519766,6.42893124 L39.0628873,6.2604945 L38.7139821,5.7032365 L38.1757238,5.24698808 L38.0971344,5.09796617 L38.0507192,4.85423138 L37.9465487,4.66008312 L37.5691613,4.2072454 L37.0103327,3.81580052 L36.2560854,3.08774452 L36.0841381,2.97965116 L35.7254751,2.81724876 L35.5922951,2.7238477 L35.2484005,2.25369406 L35.0941227,2.10519688 L34.4920435,1.76438796 L33.8448677,1.63661741 L33.259403,1.80243053 L32.8448308,2.3486693 L32.811338,2.55908404 L32.8297986,2.71492738 L32.8015802,2.81226387 L32.5038372,2.88861137 L32.3521965,2.9646965 L32.197655,2.99696709 L31.8139383,2.74116363 L31.5090747,2.70758123 L31.1939259,2.75821719 L30.9278296,2.84453446 L30.3753303,3.15412224 L30.0989488,3.37791747 L29.8829598,3.63870582 L29.6585317,3.81343926 L29.3597337,3.84702166 L28.7639839,3.81580052 L28.2299452,3.96114936 L26.6758266,4.78575476 L26.4751336,4.7917891 L24.8455903,3.74706154 L24.6338209,3.38605071 L24.562352,3.01533247 L24.5396718,2.90855092 L24.5301778,2.31508689 L24.6733793,1.25514231 L24.6770714,0.735926874 L24.4869273,0.494815717 L22.6342745,0 L22.4494048,0.0152170263 L22.2832594,0.120424398 L22.0830938,0.352090505 C20.7652709,2.27074763 19.4463931,4.18861766 18.123032,6.10360171 C16.856635,7.93620393 15.5870734,9.76696961 14.3183029,11.5979976 C13.9076865,12.1906746 13.4973338,12.7830892 13.0864536,13.3752414 L12.8928811,14.1274347 C12.7383395,15.3886114 12.5822156,16.649788 12.4292564,17.911227 L12.2749785,18.3638024 L11.3179284,19.1794874 L11.1446625,19.2618693 L10.89017,19.4318802 L10.7825711,19.8081081 L10.7538253,20.1845983 L10.725607,20.3556586 L10.4595106,20.4375157 L10.3089249,20.6544895 L10.0971555,21.2964906 L9.76354612,21.9880782 L9.71633974,22.335971 L9.97874394,22.4870918 L10.1514824,22.842593 L10.2124024,23.2219692 L10.1477903,23.5758962 L9.96476663,23.8193687 L9.52962398,24.1210856 L9.38009315,24.2892599 L9.39380673,24.4238519 L9.47687942,24.5256486 L9.52382208,24.6006842 L9.58052249,24.667062 L9.61638879,24.733702 L9.63115727,24.8271031 L9.6026752,24.8908572 L9.48795578,25.002886 L9.45789138,25.0585068 L9.32550252,25.6884393 L9.33288676,25.9662812 L9.48426366,26.2147385 L9.77066664,26.3771409 L9.97874394,26.4217425 L10.0692009,26.5592205 L9.98955658,27.0044497 L9.73506406,27.5701033 L9.38009315,27.9639094 L8.43913014,28.7019352 L8.19545025,28.9496054 L8.13136561,29.0587482 L8.10894917,29.2421396 L8.14824387,29.3465599 L8.21654808,29.4525544 L8.2711387,29.634634 L8.28801696,30.0050898 L8.22762444,30.318613 L8.08046711,30.5717929 L7.84074307,30.7601692 L7.70307976,30.7984741 L7.43118153,30.800573 L7.28771632,30.8685249 L6.92193277,31.1770632 L6.22174869,31.5131496 L6.01446256,31.6939174 L4.83377551,33.0555789 L4.30184659,34.1711443 L4.28074876,34.4518722 L4.39599563,34.8073734 L4.58244766,35.0568802 L5.05978596,35.3546617 L5.27472006,35.5540572 L5.38258269,35.878862 L5.23568908,36.1023948 L4.96590064,36.2180967 L4.71088068,36.2196709 L4.45243232,36.0719608 L4.03337676,35.6414239 L3.79602622,35.5094555 L3.51621632,35.5023718 L3.29785382,35.6243703 L3.13935641,35.8465914 L3.0467897,36.1441105 L3.02437326,36.4878054 L3.06393169,37.2518051 L3.02859283,37.5708379 L2.93919079,37.7206469 L2.69392857,37.9058748 L2.60136186,38.0289228 L2.57709937,38.1842415 L2.59766975,38.5058979 L2.55072708,38.6709239 L2.33157342,38.860612 L2.15593403,38.6612165 L1.61108269,37.1925111 L1.41302685,36.976062 L1.10895444,36.9193917 L0.824661248,37.0007241 L0.688580275,37.1455482 L0.577552969,37.3404836 L0.362091427,37.5616552 L0.24341616,37.6196373 L0,37.6663378 C0.114719425,39.9087503 0.23497703,42.1509004 0.350751346,44.3933129 C0.469690337,46.7034149 0.587310713,49.0135169 0.710732991,51.3233566 C0.836001329,53.6581206 0.957050102,55.9931471 1.07994493,58.3279112 C1.1986202,60.5810805 1.32125131,62.8337251 1.43966286,65.0868945 C1.47447427,65.7498846 1.50691218,66.413137 1.54673432,67.0758647 L1.4887153,67.5919318 L1.49240742,67.8435375 L1.46023324,68.079139 L1.43887169,68.1607338 L1.42805905,68.2635799 L1.42436693,68.4091911 L1.46023324,68.6505646 L1.47473799,68.9284065 L1.43887169,69.1128474 L1.32046014,69.5195093 L1.30226327,69.6171081 L1.29830743,69.7322853 L1.3130759,69.8597935 L1.36397441,70.0489568 L1.42805905,70.1859101 L1.51086802,70.3231257 L1.88693675,70.7586475 C2.14222044,71.1409097 2.3972404,71.5231719 2.65226037,71.9054341 L3.12221443,72.2150218 L3.19737543,72.3010767 L3.25433956,72.4204517 L3.29785382,72.6576274 L3.30154594,72.8027139 L3.28704119,72.9333704 L3.16414636,73.4326463 L3.14674065,73.6176119 L3.15781701,73.7173096 L3.38303629,74.1258081 C3.63700137,74.4170305 3.89070272,74.7087776 4.14440407,75 C4.19503885,74.829202 4.24778341,74.6586664 4.29920936,74.4881307 L4.2731008,74.3934178 L4.5030671,74.3677063 L4.6752781,74.5912392 L4.83720391,74.8601608 L5.02022754,74.9651058 L5.16342903,74.8252666 L5.51839994,73.9521241 L5.75232208,73.5236861 L5.90290781,73.3715158 L6.10702927,73.2649966 L5.93508199,73.1521808 L6.09595291,72.8488897 L6.27238347,72.5983335 L6.09964503,72.2370603 L6.11810563,71.8382692 L6.25392288,71.4483985 L6.42956227,71.1091638 L6.81459759,70.6009676 L6.94672272,70.4710981 L7.07911157,70.4383028 L7.44225789,70.4199375 L7.73683628,70.2882315 L7.94095774,70.0843758 L8.12371765,69.8527097 L8.35763979,69.6386219 L8.45759073,69.5924461 L8.6121323,69.5738183 L8.68782075,69.5129502 L8.71999494,69.4371274 L8.7693111,69.2135946 L8.80886953,69.1236042 L9.04252794,68.8145412 L9.18599315,68.6844094 L9.35055619,68.5983545 L9.35055619,68.4941965 L9.21447522,68.5146608 L9.0894706,68.5684451 L8.85238379,68.7211401 L8.78407958,68.354882 L8.75586124,68.0350621 L8.79489222,67.71944 L8.92754479,67.3607904 L9.08235009,67.1522122 L9.30493214,66.9845626 L9.48795578,67.0050269 L9.51617412,67.3607904 L9.70658199,67.2351188 L9.96133824,66.8636135 L10.1902496,66.7925132 L10.1514824,66.9058538 L10.0971555,67.0199815 L10.2727949,66.9822013 L10.5858339,66.8274074 L10.7688575,66.7925132 L10.7936474,66.6849446 L10.8503479,66.1683528 L10.85404,65.9881097 L10.6973886,65.5625577 L10.4460608,65.4544644 L10.1293297,65.4709932 L9.77462248,65.4295399 L9.77462248,65.3049177 L10.140406,65.3109521 L10.3089249,65.2490345 L10.4386765,65.0779741 L10.4202159,64.9297393 L10.3629881,64.6962367 L10.3521754,64.4795252 L10.725607,64.2268701 L11.040492,63.5287234 L11.3065883,63.3699941 L11.9384682,62.6986084 L12.0597807,62.6463983 L12.1934882,62.6264587 L12.3535679,62.571625 L12.6518384,62.4118462 L12.7784254,62.3097872 L12.9894036,62.0217131 L13.1181004,61.8813492 L13.2694772,61.783488 L13.4345677,61.7635484 L13.3633626,61.9613697 L13.2515441,62.1292818 L13.1294404,62.2560029 L13.0178857,62.334974 L13.1837673,62.3598984 L13.589373,62.0253862 L13.853887,61.9894425 L13.7143776,62.4598585 L13.147901,63.3652716 L12.9292748,63.8152233 L13.1515931,63.7908236 L13.3404187,63.6163525 L13.4667419,63.3555642 L13.5176404,63.0800835 L13.5933289,62.820607 L13.7689683,62.4475275 L13.965178,62.1182625 L14.1062697,61.9894425 L14.1553222,62.334974 L13.3480666,64.0539732 L13.4456441,64.0419045 L13.5213325,63.9899568 L13.5740771,63.8962933 L13.6175914,63.6210751 L13.6822035,63.5693896 L13.7689683,63.5394803 L13.853887,63.4736273 L14.3536417,62.7893859 L14.40665,63.0231509 L14.5403575,62.9882567 L14.6838227,62.8022416 L14.7690052,62.571625 L14.7763894,62.2712199 L14.7043931,62.0760222 L14.5759601,61.9537612 L14.4288028,61.8666569 L14.5139852,61.7485937 L14.6155185,61.669885 L14.729183,61.6349908 L14.8520779,61.6478465 L14.9989715,61.7129124 L15.0103116,61.7737805 L14.9594131,61.8716418 L14.9269752,62.0474246 L14.9667973,62.2016938 L15.1498209,62.3640962 L15.1891156,62.508658 L15.1709188,62.6812925 L15.1216026,62.7495068 L15.059364,62.7964696 L15.0171684,62.9140081 L14.9813021,63.2988939 L14.9878951,63.5743745 L15.059364,63.7010956 L15.1819951,63.8081395 L15.2141693,64.3247313 L15.3513052,64.5091722 L15.4156535,64.3144992 L15.5195603,64.1263853 L15.6516855,63.9854966 L15.8067545,63.9280392 L15.8463129,63.8532659 L15.9285944,63.422729 L15.9024859,63.2639997 L15.7888213,62.9620204 L15.6801675,62.3908572 L15.6667177,61.8010662 L15.508484,60.4763979 L15.3513052,59.8102594 L15.117383,60.1054173 L14.9878951,60.2308265 L14.8520779,60.2678197 L14.7439515,60.2061645 L14.6687905,60.0857401 L14.6553407,59.9259613 L14.727337,59.7538515 L15.4586404,58.9108807 L15.641664,58.7802242 L15.7595481,58.7259151 L15.9006398,58.4900512 L16.0533353,58.4367916 L16.1179474,58.5259949 L16.007975,58.722242 L15.7632402,59.0092666 L15.6477296,59.3694904 L15.6160829,59.7307636 L15.6593334,60.0786563 L15.6801675,60.3921795 L15.7455708,60.5797687 L15.755856,60.7699815 L15.7492629,60.9662287 L15.7632402,61.181366 L15.8067545,61.3623961 L15.8929918,61.5846172 L15.9285944,61.7635484 L16.014568,62.571625 L16.0438413,62.583956 L16.1005417,62.583956 L16.1614617,62.6188502 L16.1870428,62.7382252 L16.1688459,62.7849257 L16.1327159,62.8287402 L16.1042338,62.8974792 L16.0968496,63.0189531 L16.2007564,63.4883196 L16.3592538,63.4990765 L16.5346294,63.2131013 L16.8181315,62.3609479 L16.8516243,62.1088175 L16.7609036,61.9894425 L16.6345804,62.0731362 L16.4705448,62.4677294 L16.3444853,62.571625 L16.5098395,62.1114411 L16.5457058,61.876889 L16.5172237,61.6478465 L16.4156905,61.5615293 L16.2651047,61.4883301 L16.1870428,61.367381 L16.3046631,61.1302053 L17.4326056,59.3109835 L17.5969049,59.1136869 L17.7625229,59.0092666 L17.9381623,59.0302556 L17.8912196,59.1727185 L17.7551386,59.3314478 L17.6794502,59.4043846 L17.4721641,60.0070313 L17.4326056,60.2163966 L17.4819218,60.48663 L17.6042892,60.5797687 L17.744326,60.6500819 L17.8440132,60.8479032 L17.7646327,60.8185186 L17.608245,60.7846738 L17.5214802,60.7350873 L17.4721641,60.8688922 L17.4534397,60.965704 L17.4682082,61.0564814 L17.5214802,61.181366 L17.2701524,61.5817312 L17.2849209,61.6927105 L17.4326056,61.8666569 L17.6401555,62.0684137 L17.8266075,62.1694232 L18.0019832,62.1505331 L18.1852706,61.9894425 L18.1705021,62.5474876 L18.2140163,62.682342 L18.3511522,62.4475275 L18.4155006,62.1591911 L18.3896557,61.8813492 L18.3079017,61.6292188 L18.1852706,61.4201159 L18.2535748,61.3151709 L18.2754638,61.1860885 L18.2535748,61.0598921 L18.1852706,60.9528482 L18.2535748,60.8507892 L18.314231,60.7099005 L18.343768,60.5629775 L18.3113301,60.4441273 L18.2931332,60.3292125 L18.3569541,60.1862249 L18.5196711,59.9233377 L18.6800146,59.4893901 L18.7913056,59.2658572 L18.9247493,59.1136869 L18.9854056,59.3915288 L18.6233142,60.0587167 L18.5196711,60.4441273 L18.5441973,60.5663882 L18.6591805,60.6781546 L18.6839704,60.79202 L18.6699931,60.8754513 L18.6119741,61.0716984 L18.5943046,61.181366 L18.5441973,61.3581983 L18.4832773,61.5098438 L18.4980458,61.6677861 L18.6839704,61.8666569 L18.5943046,61.9894425 L18.7588677,62.2302913 L18.7588677,61.6790677 L18.7855037,61.4190664 L18.8493246,61.181366 L18.9247493,61.181366 L18.9743292,61.4269373 L19.0758625,61.6370897 L19.1644734,61.8813492 L19.1837251,62.2302913 L19.4092081,61.9576967 L19.5967151,61.4710142 L19.9722564,60.0099173 L20.0550653,59.7779888 L20.1834983,59.5817417 L20.2591868,59.6061414 L20.460671,59.561015 L20.6152126,59.4248489 L20.5284478,59.0200235 L20.6650562,58.931345 L20.8375309,58.8507997 L20.9229771,58.7172572 L20.9875892,58.4506968 L21.1102203,58.4517463 L21.1964577,58.6141487 L21.1381749,58.8389934 L20.9153292,59.1060784 L20.9229771,59.2007913 L21.1381749,59.236735 L21.1964577,59.3345962 L21.1212967,59.5570796 L20.9229771,59.9233377 L21.1212967,59.9280602 L21.4253691,59.7441441 L21.5983712,59.6953446 L21.7304964,59.7808748 L21.6020634,60.2308265 L21.6416218,60.4441273 L21.7811312,60.2985161 L22.5166541,59.3422047 L22.7458292,59.3238393 L22.6284726,59.6153241 L22.2587332,60.2163966 L22.2154826,60.6388003 L22.2793036,60.6710709 L22.5166541,60.6094157 L22.6569546,60.5511712 L23.0905149,60.2678197 L22.9649829,60.1366384 L22.9396655,59.9629544 L22.990564,59.770118 L23.0905149,59.5817417 L23.1981139,59.6329024 L23.276967,59.6113886 L23.3281292,59.512478 L23.3455349,59.3422047 L23.6902206,59.4883406 L23.8263016,59.2695303 L23.8801011,58.9468244 L23.9734589,58.7802242 L24.3039036,58.7324742 L24.4943115,58.5845017 L24.6230082,58.3328961 L24.7625176,57.9674251 L24.3566482,58.011502 L24.3289573,57.8199773 L24.4075467,57.5319033 L24.3431983,57.2808223 L24.3431983,57.1764021 L24.4682029,57.035251 L24.5905703,56.7986 L24.7625176,56.363603 L24.9756056,55.561036 L25.154146,55.3054949 L25.4265717,54.5142096 L25.6022111,54.4055915 L25.8543301,54.2953992 L26.0755935,54.1366699 L26.173171,53.8879502 L26.0906257,53.6045987 L25.7454125,53.0127088 L25.7169305,52.8400743 L25.7564889,52.6427777 L25.6314843,52.5094975 L25.5774211,52.3830388 L25.835342,52.202271 L26.395753,52.0411804 L26.5529318,51.9186571 L26.8794207,51.5825707 L27.0851245,51.4673936 L27.2605001,51.5088469 L27.1526375,51.794822 L27.2961027,51.8320775 L27.5471668,51.7103413 L27.7586725,51.5088469 L27.586989,51.41702 L27.5115642,51.4039019 L27.7586725,50.4701536 L27.8277679,50.032533 L27.8952809,50.0039354 L28.0996661,50.0083956 L28.5015797,50.1248846 L28.545094,50.4218789 L28.1756183,51.2792797 L28.1505646,51.3857988 L28.1284119,51.6447507 L28.0996661,51.7496957 L28.0321531,51.8315528 L27.8886879,51.9212807 L27.8412178,51.9716544 L27.7586725,52.1642284 L27.6737538,52.4368231 L27.6471178,52.7044329 L27.7586725,52.8933339 L27.8995005,52.8657858 L28.0358452,52.693676 L28.2584273,52.3276803 L28.379476,52.2180128 L28.8394086,51.9716544 L28.8507487,52.2072559 L29.0691112,52.5766623 L29.0037079,52.6721623 L28.8823954,52.6506486 L28.6313313,52.4937558 L28.5524782,52.5008396 L28.416661,52.6566829 L28.2584273,52.7889136 L28.3264677,52.9211443 L28.4021562,53.1131937 L28.4129688,53.2879271 L28.2974582,53.3637499 L28.1996171,53.3270191 L28.08648,53.1696016 L27.9712331,53.1326085 L27.7984947,53.2582802 L27.7019721,53.5565863 L27.5943732,54.1796973 L27.945652,54.149788 L28.379476,53.8459722 L28.6714172,53.9501301 L29.0110922,54.3405256 L29.2587279,54.5194568 L29.4636405,54.4562274 L29.86951,54.4900722 L30.9884859,55.4802284 L31.3376549,55.3298946 L31.1978818,55.2522353 L31.0860633,55.1604084 L30.9958701,55.0378851 L30.9278296,54.8594786 L31.1037327,54.9877739 L31.2108042,54.9384498 L31.2392863,54.7621421 L31.1749379,54.5142096 L31.0712948,54.4147742 L30.9352139,54.3856519 L30.8128465,54.3211107 L30.7622117,54.116468 L30.8094181,53.9212703 L30.9847937,53.4673831 L30.9713439,53.3115398 L30.8674371,53.125 L30.7260817,52.7319809 L30.5860448,52.5567228 L30.8919633,52.6427777 L31.1749379,52.645926 L31.4376058,52.5157942 L31.673374,52.202271 L31.7353489,52.3749055 L31.7564467,52.5567228 L31.7564467,52.9560385 L31.8070815,53.0363215 L31.9223284,52.9119616 L32.0370478,52.7099425 L32.0979678,52.5567228 L32.1050883,52.4234426 L32.0766062,52.3651981 L32.0257077,52.3287297 L31.9655789,52.2641886 L31.9257568,52.1621295 L31.9428987,52.0899799 L31.9824572,52.0157313 L32.0072471,51.9186571 L31.978765,51.6938124 L31.7564467,51.1646272 L32.1013961,51.1604294 L32.3202861,51.2771808 L32.4239292,51.5405927 L32.3846345,52.4507283 L32.4281487,52.6540593 L32.5958764,52.663242 L32.9184094,52.5567228 L32.8730491,52.3287297 L33.1707922,51.9664071 L33.259403,51.6245487 L33.4653706,51.8095143 L33.7159072,51.8751049 L34.2544292,51.8653975 L34.2185629,51.8066283 L34.1866525,51.7444484 L34.1505224,51.6809567 L34.0896025,51.6245487 L34.2897681,51.2874129 L34.1505224,51.0630929 L33.7559931,50.8755037 L33.8237699,50.5604063 L33.9922887,50.5813953 L34.210915,50.7068046 L34.4295412,50.7028692 L34.4184648,50.9809735 L34.480176,51.1625283 L34.8710132,51.6227122 L34.9071432,51.5243263 L34.8958031,51.2900365 L34.9256038,51.0384309 L35.1146931,50.6280959 L35.2162263,50.7146755 L35.2597406,51.0932646 L35.2655425,51.5678784 L35.2950795,51.6901394 L35.3633837,51.7426119 L35.5464073,51.7496957 L35.6503141,51.7103413 L35.638974,51.6119553 L35.5922951,51.4996642 L35.5896578,51.4039019 L35.6257879,51.2900365 L35.6257879,51.1911259 L35.6503141,51.1050709 L35.757913,51.0384309 L35.8259535,51.0512866 L35.833074,51.1373415 L35.8296456,51.2331039 L35.8765883,51.2792797 L36.2128349,51.3884225 L36.2560854,51.6667891 L36.2030771,52.0432793 L36.2632059,52.4777517 L36.3861008,52.9820124 L36.4973918,53.2582802 L36.5693881,53.2065947 L36.7592685,53.1326085 L36.6764596,53.3813282 L36.640857,53.595416 L36.6835801,53.7819558 L36.8344295,53.9501301 C37.0005749,53.6777978 37.1667203,53.4052032 37.3331294,53.1326085 L37.3974778,52.9851608 L37.3842916,52.9017295 L37.3861377,52.8474205 L37.5048129,52.7889136 L37.5768093,52.8154122 L37.5984345,52.9211443 L37.635092,53.0179561 L37.7561408,53.0179561 L37.8276097,52.9458064 L37.8787719,52.8201347 L37.9064628,52.6776719 L37.9220224,52.5567228 L37.8858924,52.5126459 L37.7595692,52.0550856 L37.7561408,51.9716544 L37.3763799,51.7460226 L37.2218384,51.5857191 L37.380072,51.5088469 L37.591314,51.6195638 L37.7065609,51.6179897 L37.7561408,51.4571614 L37.7561408,51.2834775 L37.7777661,51.1512467 L37.8384223,51.0665037 L37.9647455,51.0384309 L38.004304,52.1487491 L38.0217097,52.2888506 L38.0686523,52.3625745 L38.1330007,52.4184577 L38.2123813,52.5008396 L38.3350124,52.5958148 L38.3669228,52.4651583 L38.3371222,52.1487491 L38.3632307,51.8748426 L38.4447211,51.587818 L38.5781648,51.3637604 L38.7574963,51.2792797 L38.6034822,51.6227122 L38.4993117,52.1023109 L38.52753,52.5491143 L38.7574963,52.7889136 L38.7899342,52.3675594 L38.969002,51.6114306 L38.9159937,51.2792797 L39.0628873,51.3490681 L39.2277141,51.4002288 L39.3635314,51.3464445 L39.4212867,51.1003484 L39.3635314,50.9056754 L39.1235436,50.544927 L39.0911057,50.3455314 L39.1628383,50.2990933 L39.3023477,50.2744312 L39.4423845,50.1841785 L39.5499834,49.7368504 L39.657846,49.6266581 L39.7915535,49.6342666 L39.9199865,49.7767295 L40.0064876,49.553459 L40.1177786,49.3627214 L40.2103453,49.3372723 L40.2535959,49.6001595 L40.1784349,49.8577995 L40.046046,50.1314436 L39.9956749,50.356813 L40.121207,50.51528 L40.1713143,50.5858555 L40.2032248,50.4218789 L40.1713143,50.3455314 L40.5410537,49.5358807 L40.67397,49.4314604 L40.7235499,49.5589686 L40.5843043,50.4082361 L40.6230715,50.6797813 L40.7269783,50.8770779 L40.8743994,50.9969776 L41.0429183,51.0384309 L41.4121302,50.239537 L41.5991097,50.0125934 L41.7109281,49.9228654 L41.8364602,49.8937432 L41.9008086,49.9716648 L41.9406307,50.1238351 L41.9482787,50.2481949 L41.9612011,50.3872471 L41.9482787,50.4649064 L41.9612011,50.5163294 L42.0838322,50.5858555 L42.1745529,50.6055327 L42.2855802,50.6018596 L42.3897507,50.5777223 L42.4649117,50.5281358 L42.5572147,50.4911426 L42.701471,50.4557237 L42.8085425,50.3985287 L42.7908731,50.2933213 L42.7362825,50.1458736 L42.7589626,49.9965893 L42.8048504,49.8486168 L42.8343873,49.7158614 L42.8481009,49.19376 L42.7589626,49.0636282 L42.5065799,49.0856666 L42.9841819,48.6136764 L43.1706339,48.5766833 L43.2463224,48.9568466 L43.3288676,48.9568466 L43.4404224,48.7713563 L43.5765034,48.7915582 L43.6558839,48.9568466 L43.5801955,49.2013685 L43.7700759,49.2771913 L43.9818453,49.3063135 L44.2007353,49.2829632 L44.4161968,49.2013685 L44.2518975,49.0318823 L44.2331732,48.8125472 L44.2439858,48.5535954 L44.1682974,48.2636848 L44.4417779,48.3573482 L44.5380367,48.6926476 L44.5926274,49.1066556 L44.7498062,49.4314604 L44.8080889,49.2638108 L44.8837774,49.1614894 L45.0799871,48.9568466 L45.1118976,48.9998741 L45.2231886,48.9820334 L45.2593186,48.8959785 L45.0799871,48.7264923 L45.2097388,48.384634 L45.1377424,48.1621505 L44.9908488,47.9638045 L44.9151604,47.6857002 L45.0443846,47.8163567 L45.187586,47.9045105 L45.3386992,47.9100201 L45.5045809,47.7916947 L45.3386992,47.6857002 L45.6910329,47.5046701 L45.9093954,47.6544791 L45.9452617,47.9638045 L45.7511617,48.2636848 L45.7511617,48.3906683 L45.9813917,48.5173894 L46.1419989,48.6894992 L46.3142099,48.8288137 L46.5834709,48.8529511 L46.4553016,48.5751091 L46.4553016,48.4308098 L46.5402204,48.3825351 L46.6736641,48.3906683 L46.7021462,48.4213647 L46.8962462,48.5695995 L46.9967246,48.6105281 L47.3377182,48.6105281 L47.2757433,48.4528482 L47.247525,48.3906683 L47.3514318,48.2888716 L47.5626737,48.2148854 L47.6668442,48.1595269 L48.3493589,47.3900176 L48.4606499,47.1738309 L48.581435,46.8637184 L48.6721556,46.9917513 L48.7262188,46.8907418 L48.8232688,46.5858765 L48.8303893,46.5265826 L48.947746,46.5019205 L49.206458,46.5412749 L49.3285617,46.5265826 L49.4907512,46.3938271 L49.905851,45.8848438 L50,45.7056502 L49.9744189,45.6487176 M27.5115642,57.960866 L27.2605001,57.8640542 L26.8227202,57.5565654 L26.6112145,57.5539417 L26.5073078,57.8640542 L26.7905461,57.9603413 L27.0207761,58.1340253 L27.1165075,58.3727752 L27.0057439,58.6561267 L27.4261181,58.8770359 L27.6584579,58.931345 L27.7586725,58.8389934 L27.8375256,58.6855113 L28.0070994,58.5879124 L28.1542567,58.4286584 L28.1756183,58.0930967 L28.0564156,58.0463962 L27.5115642,57.960866 M30.0773235,55.4852132 L29.9942508,55.2695513 L29.7656032,55.0995403 L29.45652,54.9297918 L29.3170106,54.9384498 L29.1769738,55.0995403 L29.1189548,55.261418 L29.1015491,55.4453341 L29.1221195,55.6271514 L29.1769738,55.7887667 L29.0762317,55.7787969 L28.8641986,55.7989988 L28.7639839,55.7887667 L28.9003286,56.0936319 L28.9288107,56.2702019 L28.8823954,56.4249958 L28.8183108,56.5771661 L28.8641986,56.6587608 L29.2803532,56.9072181 L29.5245605,56.8447758 L29.9982067,56.591596 L29.9982067,56.4882252 L29.7547905,56.3680631 L29.6606415,56.2717761 L29.592601,56.1222295 L29.7358025,56.0555894 L30.0338093,55.968485 L30.1735824,55.8926622 L30.1018498,55.705073 L30.0773235,55.4852132" id="Fill-1" fill="#4A4A4A" mask="url(#mask-2)"></path>
            </g>
        </g>
    </g>
</svg>