<?xml version="1.0" encoding="UTF-8" standalone="no"?>
<svg width="83px" height="43px" viewBox="0 0 83 43" version="1.1" xmlns="http://www.w3.org/2000/svg" xmlns:xlink="http://www.w3.org/1999/xlink">
    <!-- Generator: Sketch 46.2 (44496) - http://www.bohemiancoding.com/sketch -->
    <title>Fill 1</title>
    <desc>Created with Sketch.</desc>
    <defs></defs>
    <g id="Page-1" stroke="none" stroke-width="1" fill="none" fill-rule="evenodd">
        <g id="The-50-States" transform="translate(-791.000000, -802.000000)" fill="#4A4A4A">
            <g id="Maryland" transform="translate(762.000000, 748.000000)">
                <g id="Page-1" transform="translate(29.000000, 54.000000)">
                    <path d="M64.8922446,37.2445579 L64.9362602,37.0436998 L64.8581325,36.8281785 L64.7043528,36.6065706 L64.4289801,36.3730662 L63.9946008,36.4726652 L63.691168,36.8016188 L63.8001067,37.271671 L63.9888237,37.3436036 L64.7043528,37.4207929 L64.8922446,37.2445579 Z M82.7403078,30.5603546 L82.7455346,30.5686545 L82.7196755,31.2984943 L82.403038,32.6475081 L82.3480185,33.3510648 L82.6522765,32.942432 L82.8668527,32.136233 L82.9889961,31.2448214 C82.9928475,31.0165736 82.997249,30.7886024 83,30.5603546 L82.7403078,30.5603546 Z M81.8143289,30.5686545 C79.4319829,30.5761244 77.0496369,30.5603546 74.667566,30.5603546 C73.3168363,30.5603546 71.9663817,30.5564813 70.6156521,30.5564813 L70.5372492,29.4274153 C70.418407,26.9822585 70.3127695,24.5362717 70.1969534,22.0911149 C70.0792116,19.6011385 69.9609196,17.1111621 69.8464789,14.620909 C69.7350643,12.1984386 69.6189731,9.77624493 69.5075586,7.35405122 C69.3969693,4.93932745 69.2811532,2.52488033 69.170839,0.109879892 C69.1691884,0.0772335346 69.1678129,0.0443105133 69.1661623,0.0113874921 C66.5854709,0.0091741797 64.0050545,0.00945084375 61.4246381,0.00945084375 C59.0530209,0.00945084375 56.6819539,0.0100041718 54.3106118,0.00779085948 C51.7048865,0.00502421904 49.0994362,0.00751419544 46.4937109,0.00751419544 C44.5383165,0.00751419544 42.5823719,0.00557754713 40.6269775,0.00557754713 L32.5250753,0.00557754713 C30.4057227,0.00557754713 28.2863701,0.00336423478 26.1670174,0.00336423478 L17.4934623,0.00336423478 C15.1190941,0.00336423478 12.7447259,0.00170425051 10.3706328,0.00170425051 C7.97563231,0.00170425051 5.5806318,0.00253424264 3.18563128,0.000597594335 C2.18977763,-0.000232397797 1.19392399,4.42662471e-05 0.198070339,4.42662471e-05 L0,12.40566 L0.0379634816,12.4759327 L0.115816129,12.4795293 L0.296555313,12.3882302 L0.534239719,12.229425 L2.62388179,10.3400863 L2.77188435,10.2936067 L3.54545907,10.1602546 L3.68768457,10.0949619 L3.76636251,9.9972995 L3.98616557,9.48381104 L4.11793736,9.27492968 L4.36057353,9.01735546 L4.89123698,8.6123193 L5.76137098,8.13784046 L5.8546291,8.06950444 L5.9374335,7.97986529 L6.14128089,7.6796848 L6.50000829,7.39942413 L6.57180878,7.32832147 L6.64250889,7.24255561 L6.69422726,7.15983306 L6.73796779,7.07379055 L6.9753771,6.46263967 L7.03589859,6.35750734 L7.1060485,6.25458831 L7.19573035,6.17961236 L7.90603259,5.81469248 L8.04440673,5.78979272 L8.22019416,5.80722255 L8.54040787,5.93144471 L8.83723828,6.11487297 L9.19073882,6.45710639 L9.39045974,6.57136864 L9.53323545,6.6001417 L9.69196682,6.59101179 L9.90351694,6.49722268 L10.007779,6.41118016 L10.0955351,6.31517774 L10.2773747,6.01333727 L11.3967472,4.85937154 L11.6228775,4.54591118 L11.8110443,4.21751096 L11.8696402,4.13700172 L11.9472177,4.05649248 L12.0201186,3.99341308 L12.1073246,3.94001692 L12.2080103,3.90377393 L12.5331758,3.83128795 L12.6429398,3.7870217 L12.6982344,3.72421896 L12.6811783,3.6569896 L12.5991992,3.51782759 L12.5824183,3.4146319 L12.5934222,3.29068641 L12.6371627,3.16259095 L12.6982344,3.05137201 L12.9678301,2.63139599 L13.0720922,2.42887791 L13.150495,2.23382976 L13.1942355,2.14612726 L13.24898,2.06589468 L13.3213307,2.04071826 L13.4090868,2.05787143 L13.5422341,2.18237025 L13.5972537,2.27947933 L13.7678142,2.47231416 L13.9766134,2.61396616 L14.0090749,2.70000867 L13.9939445,2.75755479 L13.8957347,2.79158447 L13.7449811,2.88343693 L13.7012406,2.93876974 L13.6729055,3.00184915 L13.6464962,3.09397827 L13.6407191,3.19081069 L13.6407191,3.2561034 L13.651723,3.29787967 L13.6635522,3.32720606 L13.7678142,3.47605132 L13.8115548,3.51201764 L13.8729016,3.55628389 L14.5512925,3.89270737 L14.8588517,4.10988864 L14.9364292,4.19039788 L15.0299624,4.26509717 L15.4871748,4.41809239 L17.0092903,4.67953991 L17.0530309,4.58741078 L17.6940085,4.3818494 L19.0331841,4.5710876 L19.6119896,4.13285176 L19.7000209,3.88883407 L19.6067628,3.76267527 L19.2386821,3.63679313 L19.297553,3.29234639 L19.6012608,3.20270724 L19.9663154,3.1968973 L20.201524,3.10089487 L19.6881917,2.37160845 L19.8771838,2.24959961 L20.0419673,2.23382976 L20.4064718,2.2966325 L20.5784078,2.27588269 L21.0620296,2.03103501 L21.4364375,1.94305585 L22.1871791,2.10905427 L22.5615871,2.09992436 L22.6947344,1.98151215 L23.0309037,1.54576628 L23.2452048,1.37008461 L23.8025528,0.693364361 L23.9582581,0.579378775 L24.1290937,0.494719577 L24.3436699,0.426383558 L25.3084375,0.496379561 L26.1672925,1.05800757 L27.5900978,2.52432701 L27.9441485,2.76474806 L28.3686243,2.92106324 L28.7650401,2.93876974 L29.0580191,2.76474806 L29.2555392,2.70000867 L29.7804256,2.84913059 L29.8835873,2.76474806 L29.9823473,2.58187313 L30.2098531,2.5428635 L30.4634932,2.59266302 L30.6513849,2.67317226 L30.9223562,3.04417874 L30.8266222,3.4185052 L30.4868765,3.7131524 L30.0233369,3.83516125 L30.1328258,4.10075873 L30.4084737,5.00821679 L30.5242898,5.00821679 L30.5683054,4.77720232 L30.6607383,4.51160483 L30.8062649,4.35113969 L30.9771006,4.42362567 L31.0978685,4.69862973 L31.0321201,4.87818469 L30.9223562,5.01983668 L30.905025,5.17449188 L31.141609,5.45973251 L31.4172569,5.46277582 L31.7259165,5.36345343 L32.0722645,5.34076697 L32.0722645,5.50538208 L31.8153233,5.57952804 L31.6929048,5.76904291 L31.699232,6.03242708 L31.808996,6.33399089 L31.4065281,6.64385462 L31.6494394,6.87680575 L32.5047181,7.25196219 L32.6645499,7.66087165 L32.5751431,8.10574743 L32.4329176,8.55864647 L32.4329176,8.99466901 L32.7192943,9.46472122 L32.7459788,9.47578778 L33.1110334,9.64980946 L34.058745,9.65395942 L34.4004163,9.72091212 L35.1946233,10.0437791 L36.0391732,10.2515538 L36.2416452,10.4432819 L36.6014729,11.0560928 L36.9541482,11.3009405 L37.378899,11.4210127 L37.7469797,11.5872878 L37.9519275,11.9635509 L37.8848037,12.4565662 L37.6044791,12.825636 L36.9915615,13.3800708 L36.8537375,13.7864903 L36.9588248,14.1577734 L37.2064128,14.4781504 L37.4883879,14.7407045 L38.1557749,15.426278 L38.5898791,15.674999 L40.2393648,15.8387841 L40.8346762,16.0111458 L41.3815704,16.3146463 L41.7900905,16.7545421 L41.9045312,17.0851556 L41.9818336,17.4688887 L42.1100291,17.7862223 L42.3625688,17.9184677 L42.6285883,17.9713106 L43.2555359,18.1973451 L43.8288395,18.3171406 L44.038464,18.487289 L44.2544156,18.7780629 L45.6818976,17.2074412 L47.7498069,20.1774297 L46.1016967,22.1409144 L46.0890422,22.5523138 L46.4026535,23.168998 L46.3168231,23.3623861 L46.2227396,23.5051448 L46.1220539,23.6124904 L46.0078883,23.689403 L46.1878022,24.1691385 L45.9688245,24.4386093 L45.2290868,24.6715604 L44.9597661,24.8121057 L44.8112134,24.9277513 L44.666512,25.0801932 L44.5570231,25.2937778 L44.486323,25.6974307 L44.3248407,26.085867 L44.2092996,26.4947765 L44.1044874,26.6353218 L43.9237482,26.6931446 L43.509176,26.6663082 L43.388133,26.7075311 L43.2456324,26.8364565 L43.1300914,26.8807228 L43.024729,26.9446322 L42.9355973,27.1250171 L42.8805778,27.3809314 L42.9025856,27.5375232 L43.0076729,27.5676796 L43.2005164,27.4517574 L43.3270613,27.6149892 L42.80245,27.8584535 L42.6219859,27.954456 L42.219518,28.0958313 L42.0098936,28.5539869 L41.8935272,29.0392557 L41.71829,29.2625236 L41.5788155,29.5552341 L41.5900945,30.2206111 L41.6883044,30.9391077 L41.7900905,31.3992 L41.994213,31.8252626 L42.329282,32.3030614 L42.732025,32.5971553 L43.1408202,32.4480334 L43.3333886,32.3030614 L43.7567639,32.1140999 L43.9677639,31.8711888 L44.3471236,31.0564132 L44.1702358,30.7435062 L44.094859,30.6499937 L43.9677639,30.5686545 L44.2092996,30.3766497 L44.4632148,30.2278044 L44.5066802,30.2895005 L44.5179592,30.3135703 L44.5410674,30.3390233 L44.6057154,30.3907595 L44.6057154,30.5686545 L44.5009032,30.7612127 L44.5350153,31.0226602 L44.666512,31.2655712 L44.8725602,31.3992 L45.1033671,31.3494004 L45.3449029,31.1604389 L45.638157,30.7329929 L45.7415938,30.5451381 L45.8197215,30.3467699 L45.8640123,30.132632 L45.8813434,29.8994042 L46.1828505,30.2585141 L46.4430929,30.8516818 L46.9822844,32.6203951 L47.2439023,33.0749541 L48.5162291,34.4549543 L49.017182,34.7814179 L49.3984674,34.7606681 L49.4763201,34.1658404 L49.3434479,33.4954834 L49.1599577,32.912829 L48.6994442,31.8711888 L49.2870528,32.2571352 L49.6906212,32.7313373 L49.9106993,33.3613014 L49.9824998,34.2488396 L50.0435715,34.4776408 L50.1860721,34.7933145 L50.4969325,35.3186995 L50.7890862,35.5917669 L51.0350236,35.685556 L52.8165562,35.4636714 L53.488895,35.5394774 L54.0137814,35.8916707 L54.2674215,36.1462016 L54.5086821,36.3348865 L54.7403144,36.560921 L54.9680953,36.9441007 L55.0712569,37.2769276 L55.203854,37.8640087 L55.2371408,38.0701234 L55.4863793,38.2363985 L55.6192515,38.0352637 L55.7353428,37.4207929 L56.1411119,37.8925051 L56.3900753,38.0587802 L56.5391782,37.7419998 L56.6332616,37.6042211 L56.7267948,37.4160896 L56.7647583,37.1834151 L56.7444011,37.0232267 L56.6423399,36.6619034 L56.6283099,36.4455521 L57.0450829,36.8395217 L57.1842823,37.6210977 L57.250856,38.3880104 L57.4651571,38.7294138 L57.9727123,38.9189287 L59.3297692,40.1946266 L59.312163,39.8341333 L59.1960717,39.6230387 L59.0488945,39.4495703 L58.9325281,39.2166192 L58.9704916,38.8572326 L59.1305985,38.4029502 L59.233485,37.9254281 L59.1305985,37.4996421 L58.5509676,36.6065706 L58.0398361,36.1517349 L57.9119157,35.9738399 L57.8024268,35.5198342 L57.9064138,35.157681 L58.0775245,34.8215342 L58.1699573,34.4084748 L57.9881178,34.0438316 L57.5520879,34.0341483 L57.0450829,34.1492406 L56.6283099,34.1658404 L56.2459241,33.9229294 L55.9204835,33.5184465 L55.6940781,33.0464577 L55.606597,32.6126485 L55.4077014,32.4579933 L54.2060747,31.8711888 L53.5719745,31.2882577 L53.0875275,30.6297973 L52.7835445,29.8150216 L52.6737805,28.9211201 L52.6437949,28.7435018 L52.5348562,28.6098731 L52.6737805,28.4317014 L52.545585,28.0568216 L52.4704833,27.5333733 L52.3640205,25.7867932 L52.3920805,25.5117891 L52.3695225,25.3267009 L52.4184899,25.1637457 L52.5956528,25.7605101 L53.1485992,29.3991956 L53.2413071,29.5898171 L53.438277,29.7345124 L54.68557,31.3707036 L55.0068841,31.6152746 L55.5958682,31.74918 L55.8049425,31.8432458 L56.1144274,32.0360806 L56.2415225,32.1982057 L56.2742591,32.3296211 L56.2979175,32.481233 L56.383748,32.7022876 L56.659671,33.0749541 L56.9419212,33.2069228 L57.5870253,33.1900463 L58.0161777,32.9952748 L58.0879782,32.5302026 L57.9553811,31.9862811 L57.7848206,31.5480452 L57.2549824,30.7227564 L55.961198,29.2041474 L55.606597,28.2828562 L55.5785371,27.7452979 L55.7353428,26.2341589 L55.6613415,25.7909431 L55.5298448,25.3474507 L55.4687731,24.8740785 L55.606597,24.3445435 L55.0839114,23.7654857 L54.8674095,23.3449563 L54.8393496,22.8555376 L55.0401709,22.5235408 L55.7353428,22.0877949 L55.9991614,21.7239817 L56.1034235,21.2085566 L55.9061784,21.2068966 L55.3526819,21.54498 L55.1760692,21.3692984 L55.4184302,20.5888291 L55.2371408,20.3973776 L55.1491096,20.2413391 L55.1262765,20.1710664 L55.105369,20.070084 L55.5452503,20.0620608 L55.7292906,20.1066037 L55.8605122,20.2192059 L56.1581679,19.9079589 L55.9700011,19.6119284 L55.3526819,19.232622 L55.155987,18.9634278 L55.0162374,18.6079145 L55.0445725,18.3196306 L55.3526819,18.246868 L55.7177365,18.4684759 L56.352662,19.232622 L56.6973594,19.3969604 L56.8302316,19.1371729 L56.5939227,18.5531351 L55.8387795,17.3316633 L55.4184302,16.8441813 L55.2324642,16.6762462 L54.8393496,16.5047145 L54.6531084,16.3569759 L54.5257382,16.1121282 L54.5150094,15.8623006 L54.6198216,15.6711257 L54.8393496,15.602513 L55.0272413,15.7167753 L55.2148579,15.9688162 L55.4905058,16.4391451 L56.5548588,17.5552079 L56.6973594,17.4979384 L56.8134506,17.3369199 L56.9529252,17.2472808 L57.3925313,17.223211 L57.7031166,17.1158654 L57.7848206,16.870741 L57.5320058,16.4391451 L57.1952862,16.1655244 L56.2027337,15.6857889 L55.7991654,15.602513 L55.6682189,15.5220038 L55.5411238,15.3308289 L55.4971082,15.110881 L55.606597,14.9446059 L55.7606517,14.9872122 L56.383748,15.4528378 L56.6332616,15.2771561 L56.8629682,15.326679 L57.0514101,15.5181305 L57.1498951,15.7823447 L57.2893696,15.7823447 L57.3925313,15.2431264 L57.1911598,14.7180181 L56.9086344,14.2072963 L56.6547193,13.3283346 L56.4071313,13.3438278 L55.9991614,13.6265784 L55.8049425,13.4887997 L55.5452503,13.0477973 L55.4184302,12.9540081 L55.3636858,12.823976 L55.285558,12.5409487 L55.1166481,12.2581981 L54.5543484,12.0667466 L54.4536626,11.9101547 L54.3722337,11.6962934 L54.2060747,11.4688756 L54.0688009,11.4423158 L53.7428102,11.3255636 L53.505676,11.1994048 L53.6283695,11.1379854 L54.1053889,11.1083823 L54.2897044,11.0159765 L54.4709938,10.825355 L54.6745661,11.0198498 L55.606597,11.4688756 L55.8605122,11.7286631 L56.0706868,12.0158404 L56.2415225,12.1929054 L56.383748,12.128166 L56.4998393,12.3077209 L56.6423399,12.1550024 L56.8090491,12.1511291 L56.9853867,12.262348 L57.1498951,12.4590562 L57.9119157,11.9635509 L57.9119157,11.8147056 L57.2720385,11.7137232 L56.7818144,11.2721674 L56.4107076,10.6377768 L56.1144274,9.96880311 L56.7267948,10.1754711 L56.8802994,10.29997 L57.1911598,10.8593847 L57.3611701,11.0962091 L57.6483721,11.2893206 L57.839565,11.0735226 L57.8513942,10.9125042 L57.2393018,10.0869387 L57.1020281,9.7895248 L57.2161936,9.65395942 L58.2480851,9.90600037 L58.3031046,9.80833796 L58.1699573,9.48740767 L58.3812324,9.32528254 L58.5790276,9.30010611 L58.7666442,9.24670995 L58.9325281,8.99466901 L58.8172622,8.99466901 L58.8610027,8.55089988 L58.4566091,8.36055502 L57.9443772,8.23411955 L57.6483721,7.98512191 L59.0753039,7.61826539 L59.3297692,7.73889091 L59.6972997,8.84305711 L59.8370494,9.96880311 L60.3990739,9.25583986 L60.5421247,9.15900745 L60.5638575,9.02676203 L60.4260335,8.73820144 L60.1616646,8.31794875 L60.4150296,6.49888266 L60.5355224,6.39541031 L60.6573907,6.18127234 L60.8053932,6.00144071 L60.9817309,6.00144071 L61.1154283,6.17020578 L61.1104766,6.3685739 L60.9817309,6.8294962 L60.855461,7.86698636 L60.9272615,8.34284852 L61.2306943,8.66184216 L61.7151413,8.21862636 L62.8573469,7.54024613 L63.7632436,6.6247648 L63.8834613,6.40730686 L63.9272019,6.0938465 L63.7802997,5.98650085 L63.0955815,5.74552647 L62.8964108,5.50538208 L63.4199217,4.16522145 L63.5968095,3.98013321 L63.8001067,3.88081081 L64.0606242,3.84207785 L65.3340515,3.85425107 L65.5367985,3.75077871 L65.8468336,3.18140411 L66.0614098,2.93074649 L66.3648425,2.85411055 L66.1398126,3.79891826 L65.9890591,4.21751096 L65.791814,4.58741078 L65.3219472,5.27602759 L65.1508364,5.73445991 L65.2185104,6.18376232 L65.5367985,5.77236288 L66.8616689,4.66460005 L67.2129687,4.28197368 L67.5103493,3.85812436 L67.8363401,3.50676103 L68.2875003,3.33827262 L68.1466503,3.89270737 L67.9194196,4.45212206 L67.5890272,4.91304436 L67.1312647,5.17449188 L67.3133794,5.57233478 L67.5950794,5.85259546 L68.1510518,6.18376232 L68.1510518,6.33399089 L67.6434966,6.24822504 L66.7774891,5.95606781 L66.3648425,6.00144071 L66.0440786,6.21198205 L65.6322574,6.57524194 L64.887843,7.41574731 L64.8270464,7.85757978 L65.2900358,8.01472496 L67.4179165,8.03879473 L67.8971367,8.18763999 L68.1510518,8.49722705 L67.6649542,8.52019017 L67.5337326,8.50110035 L66.7051384,8.53181006 L64.6058679,8.45960074 L62.9684864,8.66184216 L62.9071396,8.76891115 L62.7585869,9.29457283 L62.654875,9.48740767 L62.4785374,9.58119678 L62.069192,9.663366 L61.8752482,9.83517437 L61.8108753,10.0335425 L61.7715363,10.5118946 L61.6950592,10.7329492 L60.7847609,12.4623761 L60.4744507,13.2973482 L60.3932969,13.4500668 L60.2774808,13.7314341 L60.272529,14.0009049 L60.7063581,14.2114462 L60.8518848,14.4250309 L60.9506448,14.6737518 L60.9817309,14.8610534 L60.9272615,15.9190167 L60.9555966,16.3586359 L61.1154283,16.5879904 L61.4460958,16.2822766 L61.6053773,15.3842251 L61.8752482,14.4751071 L62.5159507,14.1190404 L62.5159507,14.2853155 L62.2609351,14.4648705 L62.7104448,14.624229 L63.110987,14.4286275 L63.5076779,14.1190404 L63.9272019,13.9419754 L63.7018968,14.3696981 L62.874403,15.2353798 L62.5159507,15.7823447 L62.654875,15.9461298 L62.4438751,16.0155725 L62.0039939,16.094975 L62.0581881,16.3210096 L62.1415427,16.5077578 L62.2507565,16.6510698 L62.3998595,16.7545421 L62.3277839,17.2458975 L62.0086705,17.5516112 L61.5852952,17.7098631 L61.1701728,17.7538526 L60.646937,17.6733434 L60.331675,17.4688887 L59.8370494,16.9324371 L59.6376035,16.7968717 L59.4233024,16.7083392 L59.2576936,16.7545421 L59.1305985,17.3089769 L58.8766833,17.8249553 L58.8172622,18.0020203 L58.7622427,18.600168 L58.4255231,20.3973776 L58.4629364,20.8195669 L58.7561905,20.8037971 L59.134725,20.5661427 L59.3297692,20.3069084 L59.2398123,20.1613832 L59.0692517,19.9439252 L58.9471083,19.6993542 L59.0032283,19.4719364 L59.1790157,19.3225378 L59.3355463,19.2752282 L59.9071993,19.2287487 L60.0340193,19.1983156 L60.2216359,19.0837767 L60.2375916,19.0165473 L60.3754155,18.8126459 L60.5308457,18.6369643 L60.6031964,18.6519041 L60.7363437,18.2488046 L61.0433527,18.3771767 L61.6337124,18.9042217 L61.5445807,19.1869724 L61.5005651,19.576792 L61.5726407,19.9212388 L61.8139014,20.070084 L61.9360448,19.9397753 L62.0760695,19.3745506 L62.1354906,19.232622 L62.373175,19.2688649 L62.3935322,19.4849396 L62.2609351,19.9779549 L62.3828034,20.070084 L63.1662816,20.3973776 L62.7745425,20.6853849 L62.2507565,20.876283 L61.8265559,21.1952767 L61.7498036,21.8731036 L62.0144476,22.4358383 L62.4064618,22.500301 L62.7858215,22.25241 L63.0408371,21.8731036 L63.110987,22.25241 L62.9508801,22.6303331 L62.6925634,22.9191703 L62.4543288,23.0356459 L62.1077057,22.990273 L61.776213,22.8596876 L61.47223,22.6494229 L61.2306943,22.3652889 L61.0868182,21.8166641 L61.0491298,21.7239817 L60.855461,21.6869087 L60.7363437,21.5873096 L60.5421247,21.2929391 L60.2598745,21.1399439 L59.9685461,21.2885125 L59.4543885,21.7239817 L59.4233024,21.9253931 L59.3231669,22.1680275 L58.9592126,23.5668409 L58.7872766,23.9868169 L58.7275804,24.328497 L58.6772375,24.9100448 L58.7872766,25.0375869 L59.03624,24.9958107 L59.3014342,24.8508387 L59.4543885,24.6715604 L59.3905658,24.3354136 L59.4279791,23.7865121 L59.5437952,23.2268208 L59.6972997,22.8555376 L59.9858772,22.5689137 L60.0076099,22.777795 L59.8370494,23.7654857 L59.9902788,23.9984368 L60.331675,23.6465201 L60.9272615,22.8555376 L61.2859889,23.028176 L61.2375717,23.4251889 L60.8659147,24.1666485 L61.1044244,24.3218571 L61.2686578,24.8782284 L61.4287646,24.999684 L61.6554451,24.8848684 L61.7547554,24.610141 L61.8375598,24.2811874 L62.0039939,24.0034167 L62.0760695,24.2430078 L62.069192,24.4723623 L62.0039939,24.6715604 L61.8752482,24.8204057 L62.040857,25.1120096 L62.373175,25.1261194 L62.7745425,25.030947 L63.1662816,24.999684 L63.1662816,25.1637457 L62.9123665,25.2542149 L62.4276443,25.5062558 L62.2609351,25.6526111 L62.2609351,25.8028397 L62.6259898,25.9630282 L62.8964108,25.9157186 L63.1393221,25.77213 L63.4199217,25.6526111 L63.3208865,26.1326232 L63.6691602,26.5514926 L64.1965225,26.8500131 L64.6386045,26.959572 L65.0694075,26.8267733 L65.3340515,26.4884132 L65.7370696,25.6526111 L65.8405063,25.6526111 L65.9073551,25.7295237 L65.9827318,25.8028397 L65.791814,26.1694195 L65.7018571,26.9075592 L65.470775,27.3048488 L65.2495965,27.4531407 L64.9632198,27.5491431 L64.3800127,27.6149892 L62.4826639,26.8834894 L62.1354906,26.959572 L61.9360448,26.8190267 L61.7498036,26.6353218 L61.8548909,26.5689224 L62.1354906,26.3221381 L61.8708466,26.364191 L61.3850241,26.5689224 L61.1154283,26.6353218 L60.8001664,26.6317252 L59.9622188,26.4709833 L60.1495603,26.7802937 L60.2375916,26.8782328 L60.3583595,26.959572 L60.3583595,27.1250171 L59.9462631,27.6196925 L59.8023871,27.954456 L60.0340193,28.1049612 L60.6139252,28.0994279 L60.8455575,28.0321985 L61.0491298,27.8681368 L61.148165,27.6849852 L61.159444,27.5549531 L61.2139133,27.4758272 L61.4287646,27.4517574 L61.578968,27.4572907 L61.6983604,27.4791471 L61.8001465,27.5295 L61.8752482,27.6149892 L61.9302677,27.8711801 L61.6491179,28.1810438 L61.7498036,28.4317014 L61.3850241,28.6167897 L60.9682511,28.7493117 L60.6205276,28.9476799 L60.4744507,29.3377762 L60.3932969,29.9378605 L60.2216359,30.2773273 L60.0455734,30.232231 L59.9622188,29.6703264 L59.7960598,29.4520384 L59.4543885,29.3928323 L59.174339,29.5748773 L59.1916702,30.0792358 L59.2948318,30.203458 L59.4651173,30.3345967 L59.6252241,30.518855 L59.7536948,31.0439633 L59.869786,31.3211807 L60.0076099,31.5707317 L60.1060949,31.7110003 L60.663993,32.6015819 L61.0163932,33.1867264 L61.1154283,33.8277569 L61.2306943,33.8277569 L61.2859889,33.3120552 L61.0224453,32.236662 L61.2306943,32.0360806 L61.5399041,32.2571352 L62.654875,33.6789117 L62.8254356,34.1168709 L62.9508801,34.2715261 L63.4416544,34.4084748 L63.6295462,34.6096095 L64.2361366,35.6739361 L64.4353073,35.8424245 L64.61192,35.61888 L64.8204441,34.9936192 L64.8204441,34.6649423 L64.7885327,34.3589519 L64.6438313,34.1260008 L64.4526385,34.0056519 L64.7923841,33.400311 L65.3219472,32.7462772 L65.8028179,32.4751464 L65.9827318,33.0143647 L65.8468336,33.3740279 L65.3340515,33.6067024 L65.2185104,33.9160128 L65.2900358,34.137344 L65.4501427,34.3384788 L65.6322574,34.5100105 L65.7370696,34.6541524 L65.7681556,34.8868269 L65.7414711,35.1200547 L65.7414711,35.3267227 L65.8405063,35.4703114 L65.9717279,35.2365303 L66.4294905,33.8277569 L66.5513588,33.6393487 L67.5103493,32.5252226 L67.5950794,32.2972515 L67.6385448,32.0261207 L67.7048434,31.8025761 L67.8302879,31.7110003 L68.072649,31.7372834 L68.1166646,31.8211126 L68.072649,31.9544647 L67.9634352,32.4635265 L67.7983766,32.8303831 L67.1747301,33.8667666 L66.971708,34.3761051 L66.8883534,34.9216866 L67.0644159,35.3964421 L67.4115892,35.5917669 L68.233306,35.6506963 L68.5315119,35.8081182 L67.8363401,36.140115 L67.0811969,36.355913 L66.4798334,36.7673124 L66.2385727,37.6706205 L66.2586548,38.1467593 L66.3131241,38.3359975 L66.4294905,38.4087602 L66.5909728,38.326591 L66.6297616,38.1376294 L66.6470927,37.9254281 L66.7455777,37.7602597 L67.1375919,37.653744 L67.9807664,37.7489164 L68.4159709,37.5809814 L68.6649343,37.6269076 L68.9958768,37.5892813 L69.2585951,37.6761538 L69.320217,37.9212781 L69.1711141,38.0526936 L68.6088144,38.1545059 L68.4159709,38.2471884 L68.5315119,38.4087602 L68.433027,38.6184715 L68.278147,38.8077097 L68.0853035,38.956555 L67.8916347,39.0406609 L67.8916347,39.2166192 L67.974164,39.2666954 L67.9917703,39.2893818 L67.9917703,39.3131749 L68.0357859,39.3851076 L68.2627415,39.2451156 L68.52601,39.2014027 L68.9832224,39.2166192 L69.2651975,39.1023569 L69.4690449,38.8572326 L69.6739927,38.6735277 L69.9482651,38.7294138 L69.6943499,39.1670963 L68.8407218,39.9882352 L68.658332,40.2720925 L68.5425159,40.3478985 L68.0132279,40.4267477 L67.8916347,40.604366 L67.8093805,40.8638769 L67.4115892,41.4979909 L67.2677131,41.6507095 L67.3191564,41.6800358 L67.3675736,41.6800358 L67.3948083,41.7121289 L67.3832542,41.8316477 L67.5103493,41.8316477 L67.5950794,41.6858458 L67.7111706,41.5859701 L67.8577977,41.525104 L68.0357859,41.5018642 L67.9408772,41.8117279 L67.7818707,42.0026261 L67.6217639,42.1398515 L67.5103493,42.3127665 L67.4795384,42.5230312 L67.5276805,42.6220769 L67.5950794,42.7119927 L67.6261654,42.8846311 L67.7983766,43 L68.1667324,42.7615156 L68.7309578,42.2364072 L69.1383775,41.94176 L69.5686302,41.8844906 L71.2596558,42.0297392 L71.6137065,42.1235283 L71.8189294,42.2245107 C71.9176894,41.9934962 72.0164495,41.7622051 72.1152096,41.5309139 L72.2417545,41.4083518 C73.7657957,41.2086003 75.2906623,41.0113389 76.8130529,40.7996909 L76.8576187,40.604366 L77.2658637,39.4172006 L77.1704048,39.2166192 L77.2818194,39.12947 L77.5858023,38.7122606 L77.7459092,38.5866552 L77.9203211,38.5899751 L78.2688699,38.7352238 L78.3967903,38.7294138 L78.5335139,38.5017193 L78.747815,37.7419998 L78.8374968,37.5809814 L79.0193364,37.3707167 L79.2897574,35.9738399 L79.4658199,35.685556 L79.7134079,35.4750147 L80.3197232,35.1427411 L80.0721353,35.6506963 L80.1329318,35.8346779 L80.7626305,35.8081182 L80.9428195,35.6357565 L81.400582,34.5769632 L81.6217606,34.2715261 L81.8748504,33.8399302 L82.0616418,33.3886911 L82.096029,33.0143647 L81.9425245,32.7462772 L81.7251973,32.7407439 L81.4789849,32.7902668 L81.2140658,32.7022876 L81.2957698,32.6594047 L81.3829758,32.5802788 L81.4663304,32.5252226 L81.4663304,32.375824 L81.3282313,32.375824 L81.3282313,32.1982057 L81.510346,31.8648256 L81.2470775,31.6537309 L80.4468183,31.3992 L80.7893149,31.2102384 L81.0985247,31.2830011 L81.3937046,31.4492762 L81.7155689,31.5480452 L82.0289051,31.4927124 L82.0517383,31.3264373 L81.7155689,30.7329929 L81.9741607,30.8397853 L82.1714057,30.8431052 L82.2731919,30.7116898 L82.2561358,30.5686545 L81.8143289,30.5686545 Z M81.6875089,34.6992487 L80.9598755,36.4455521 L80.4746032,37.3665667 L80.2647036,37.9752276 L80.1832747,38.6585878 L80.0889162,38.9012222 L79.5318434,39.7057612 L79.1398292,40.4934238 C79.2429908,40.4801439 79.3456022,40.4649274 79.4482137,40.4494342 L79.5488994,40.2372329 L80.1879514,39.4788967 L80.9367673,37.5425251 L81.2357985,36.1633548 L81.90181,34.8710571 L82.096029,34.1658404 L81.9802129,34.1658404 L81.6875089,34.6992487 Z M64.9472641,40.5313267 L64.7923841,40.3210621 L64.5772577,40.2045865 L64.3907415,40.2720925 L64.3131639,40.604366 L64.4066971,40.8638769 L64.8922446,41.1142579 L65.0903149,41.3419524 L64.8581325,41.4141617 L64.2842787,41.3798554 L64.1863439,41.5018642 L64.3084873,41.7082556 L64.7984363,41.94176 L64.9472641,42.151748 L65.1340554,41.7522452 L65.3040658,41.2453966 L65.2993892,40.7869643 L64.9472641,40.5313267 Z" id="Fill-1"></path>
                </g>
            </g>
        </g>
    </g>
</svg>