<?xml version="1.0" encoding="UTF-8" standalone="no"?>
<svg width="50px" height="57px" viewBox="0 0 50 57" version="1.1" xmlns="http://www.w3.org/2000/svg" xmlns:xlink="http://www.w3.org/1999/xlink">
    <!-- Generator: Sketch 46.2 (44496) - http://www.bohemiancoding.com/sketch -->
    <title>Page 1</title>
    <desc>Created with Sketch.</desc>
    <defs></defs>
    <g id="Page-1" stroke="none" stroke-width="1" fill="none" fill-rule="evenodd">
        <g id="The-50-States" transform="translate(-327.000000, -953.000000)" fill="#4A4A4A">
            <g id="Michigan" transform="translate(282.000000, 918.000000)">
                <path d="M56.931707,35 L56.4729247,35.2613056 L56.3437694,35.3766095 L56.2406323,35.3314987 L56.0418454,35.4205972 L55.9639778,35.3766095 L55.4984571,35.760519 L55.4984571,35.6289303 L55.301542,35.8279044 L55.0106617,36.0461582 L54.7323226,36.1968395 L54.568913,36.1934702 L54.4543579,36.315887 L54.2993715,36.4134086 L54.1430748,36.4648836 L54.0212195,36.4444808 L53.8067094,36.6052698 L52.9411814,37.0803368 L52.3734595,37.515347 L52.4391602,37.6203559 L52.5406127,37.6130558 L52.7554972,37.515347 L52.7554972,37.5778657 L52.5166534,37.7088928 L52.4588143,37.7652345 L52.3734595,37.9849857 L52.3807596,38.0617302 L52.4009752,38.0699662 L52.4279293,38.0604199 L52.4588143,38.0830689 L52.5769259,38.2393656 L52.7098249,38.2887816 L52.855265,38.2650095 L53.9081618,37.7566241 L54.2321732,37.7027158 L54.2321732,37.6405715 L53.6850413,37.6405715 L53.7645935,37.5340652 L53.9961372,37.3869404 L54.0212195,37.3223627 L55.6272381,36.6391497 L55.9458212,36.4360576 L56.1947728,36.2067601 L56.2204167,36.1652058 L56.2108704,36.0942639 L56.1783008,35.926362 L56.17437,35.8793794 L56.3170024,35.6897644 L56.7656768,35.4104894 L56.931707,35.251385 L57.0112592,35.1523659 L57.0408339,35.1048217 L57.0619854,35.0565289 L56.9931025,35.1488094 L56.9064374,35.1976638 L56.7261815,35.251385 L56.7531357,35.1744533 L56.800867,35.1087525 L56.931707,35 Z M59.0178464,41.564086 L58.5721669,41.745465 L58.4869993,41.8126633 L58.3920982,41.9229132 L58.3262102,41.9627829 L58.2554556,41.9405083 L58.1847009,41.9028848 L58.1175027,41.8914667 L58.0718304,41.9229132 L57.9063618,42.0780868 L57.4099561,42.331718 L57.2063024,42.4794043 L56.6181777,43.2902752 L56.5094252,43.4076381 L56.242317,43.5757272 L56.1331901,43.6927157 L56.0817151,43.8450816 L56.0586918,44.0607149 L56.0493327,44.4700811 L56.1277618,44.585385 L56.68444,44.6235701 L56.7463971,44.6787887 L56.8499086,44.8373315 L56.8918373,44.8699011 L57.1681174,44.8085055 L57.2497286,44.7195943 L57.2534722,44.5509436 L57.1750431,44.4487424 L57.0150028,44.5614258 L57.0773343,44.4141138 L57.1881458,44.249394 L57.3098139,44.1191155 L57.4024688,44.0683893 L57.3661556,44.212332 L57.3406989,44.5340972 L57.3154293,44.6857144 L57.2534722,44.8485624 L57.1952587,44.9275531 L57.0150028,45.0546494 L56.9206633,45.1557275 L56.88435,45.2511901 L56.9043784,45.356199 L57.2497286,45.9164337 L57.3393886,45.8687024 L57.417069,45.7562062 L57.54585,45.5166137 L57.7392086,45.0241388 L57.7916195,44.9414045 L58.0263452,44.8208595 L58.0793177,44.7158506 L58.1100154,44.579208 L58.1882574,44.516315 L58.2973843,44.4994686 L58.4160574,44.5007789 L58.4160574,44.4386346 L58.3462387,44.3207102 L58.3701979,44.1503749 L58.448627,43.9843447 L58.5377255,43.8770897 L58.6193367,43.8518201 L58.6990761,43.8555638 L58.779377,43.8477021 L58.8540625,43.7844347 L59.1088167,43.4761466 L59.1685277,43.4257947 L59.3214551,43.3649607 L59.3869686,43.3217217 L59.4889826,43.1085218 L59.5301626,43.0740804 L59.6615641,43.0424467 L59.7942759,42.9621458 L60.1785598,42.6385087 L60.0763587,42.5218945 L59.8618485,42.4292396 L59.6778489,42.3830057 L59.7560909,42.2718198 L59.8800051,42.251417 L60.1471133,42.2635838 L60.4834787,42.1538954 L60.6109494,42.1396696 L60.747592,42.159698 L60.9963565,42.2450529 L61.1350581,42.2635838 L61.2584108,42.2298912 L61.480221,42.0900665 L61.6207944,42.0780868 L61.6207944,42.0155682 L61.5384345,41.9354544 L61.4167664,41.7359188 L61.3259833,41.6438254 L61.094814,41.5066213 L60.9752049,41.4663772 L59.5398961,41.4658157 L59.0178464,41.564086 Z M55.6493255,43.787804 L54.6140238,44.6857144 L54.4435013,44.7720051 L54.4015726,44.8085055 L54.2778456,45.0692496 L54.2540735,45.1106167 L54.2177603,45.1914792 L53.9996936,45.5645322 L53.8956206,45.6760925 L53.8323532,45.7004261 L53.639369,45.7311239 L53.3935995,45.8389405 L53.3247166,45.8548509 L53.0224182,45.7831604 L52.8973809,45.7919579 L52.7554972,45.9164337 L52.3064484,46.4208883 L51.8044273,46.8053594 L51.2514927,47.0709701 L48.8080234,47.3732685 L48.559259,47.5050444 L47.4335486,48.5641181 L47.1735533,48.7149865 L46.0817227,49.0743753 L45.7562139,49.2810238 L45.6820899,49.3021754 L45.4780619,49.3160268 L45.3125934,49.3588914 L45.1576069,49.4339512 L45.0194669,49.5324088 L45,49.5756477 L45.0306978,49.7450471 L45.0582135,49.8362046 L45.0832958,49.8732666 L45.1252245,49.9002207 L45.1941074,49.9116388 L45.2446464,49.907708 L45.2925649,49.8901129 L45.3996328,49.8212301 L45.4417487,49.8156146 L45.4855492,49.8399482 L45.547132,49.9692908 L45.5815734,50.0100964 L45.7021184,50.0340556 L45.7582729,50.0565174 L45.8164863,50.1171643 L45.8673998,50.1562852 L45.9400262,50.1811804 L46.0002987,50.1875446 L46.0615071,50.2073858 L46.1219668,50.2502504 L46.2020805,50.3440284 L46.2782635,50.4531553 L46.3396591,50.6004673 L46.4456039,50.8531625 L46.607516,51.2398798 L46.7099044,51.4828416 L46.7585716,51.6621616 L46.7767282,51.7078339 L46.8111696,51.748078 L46.9841255,51.7969324 L47.0494519,51.8145274 L47.2312052,51.8660024 L47.5170316,51.9448059 L47.884282,52.0475686 L48.321164,52.1686751 L48.8080234,52.3034459 L49.3283884,52.448886 L49.8667228,52.5978826 L50.4031855,52.7470664 L50.9233632,52.8913835 L51.4109714,53.0263414 L51.8482278,53.1468864 L52.2171628,53.2496491 L52.5001815,53.3280782 L52.684181,53.3789917 L52.74801,53.3963995 L52.9681356,53.456672 L53.0952319,53.530796 L53.4613592,53.7406266 L53.8265506,53.9506444 L54.1900574,54.1601007 L54.5563719,54.3691826 L54.7053684,54.4537887 L54.7849206,54.4646452 L54.832652,54.4620247 L54.9236222,54.4444296 L54.9649894,54.4449911 L55.0087899,54.4646452 L55.0546494,54.507697 L55.116045,54.5209869 L55.1675199,54.5183663 L55.2964881,54.4695119 L55.3436579,54.4620247 L55.3998124,54.4689504 L55.4638285,54.4901019 L55.5583552,54.5410153 L55.6983671,54.5853774 L55.9076362,54.6965633 L55.9783908,54.7141583 L56.0311761,54.707607 L56.1659468,54.6012878 L56.2060037,54.5904313 L56.2511145,54.5962339 L56.296974,54.6074648 L56.3456412,54.6113956 L56.3877571,54.5997904 L56.4641272,54.5559899 L56.5054944,54.5436359 L56.5530385,54.538582 L56.6022673,54.5455077 L56.6662834,54.568531 L56.7312354,54.6074648 L56.8334366,54.6872042 L56.8935219,54.7040505 L56.9459328,54.7040505 L56.984305,54.6901991 L57.0294158,54.6885145 L57.0773343,54.7066711 L57.2879136,54.824034 L57.347999,54.8354521 L57.3989124,54.8354521 L57.5276933,54.7982029 L57.5810401,54.8079364 L57.6370074,54.8410675 L57.7934913,54.9689126 L57.8299917,54.9833256 L57.9351878,55.0022309 L58.1500723,55.0057874 L58.2009857,55.0147721 L58.2498401,55.0334902 L58.3595286,55.0967576 L58.4611682,55.1366273 L58.5137663,55.1439274 L58.5652412,55.1420556 L58.6571474,55.1265195 L58.7065634,55.1276426 L58.7518613,55.1463608 L58.9124632,55.2770136 L58.9523329,55.3005984 L59.048357,55.3363501 L59.1048859,55.3732249 L59.154489,55.4346205 L59.312096,55.7915759 L59.3358681,55.8572767 L59.3304398,55.935893 L59.3083524,55.9862448 L59.2851418,56.0287351 L59.1505582,56.2106756 L59.1269733,56.2539146 L59.1105013,56.3010844 L59.1088167,56.3600466 L59.1251015,56.423314 L59.1848125,56.5051124 L59.2319822,56.5505975 L59.3248243,56.6048802 L59.416169,56.6436268 L59.5198676,56.6694578 L59.5705938,56.6726399 L59.6690514,56.6606603 L59.7959605,56.6206034 L59.8305891,56.6198547 L59.858292,56.6318343 L59.8743897,56.6456858 L59.9492623,56.7460151 L59.9762165,56.7761514 L60.0089733,56.8036671 L60.048843,56.8276263 L60.1510441,56.8575754 L60.4196498,56.8813475 L60.4673811,56.8951989 L60.5072508,56.9202812 L60.5420666,56.9464867 L60.5692079,56.9792435 L60.640337,57.087996 L60.6712219,57.1186938 L60.8183467,57.2248258 L60.880491,57.2811675 L60.9570483,57.3841174 L61.0420288,57.4762107 L61.0785292,57.5276857 L61.0891986,57.5546399 L61.0873267,57.5802837 L61.0710419,57.6302612 L61.0440878,57.6594616 L60.9781998,57.7167392 L60.9635997,57.7652192 L60.9673433,57.8290481 L61.011331,57.9218902 L61.1167143,58.0987769 L61.1367427,58.1500647 L61.1490967,58.216327 L61.147412,58.3314437 L61.1331862,58.4033214 L61.1090398,58.4559195 L61.0785292,58.483248 L61.040157,58.5023405 L60.9982283,58.5160048 L60.9692151,58.5511949 L60.9635997,58.6301856 L61.0203157,58.8083825 L61.0710419,59.0812934 L61.0729137,59.139694 L61.0691701,59.1692687 L61.0564418,59.2156898 L61.0220003,59.3032908 L60.9752049,59.3832174 L60.9491867,59.4202793 L60.9205479,59.4522874 L60.7163327,59.6072738 L60.6893786,59.6405921 L60.6730937,59.6924415 L60.6693501,59.7645064 L60.6856349,59.8721358 L60.6818913,59.943452 L60.6693501,60.0012912 L60.5965365,60.18866 L60.5890492,60.2423811 L60.6055212,60.2977869 L60.6437062,60.3513209 L60.7363611,60.4149626 L60.7966336,60.4273166 L60.8441778,60.4179575 L60.9168043,60.3750929 L60.9581714,60.3625518 L61.0057155,60.3640492 L61.1455402,60.4074753 L61.198887,60.4125293 L61.2458696,60.4082241 L61.2896701,60.3977419 L61.7422753,60.153657 L61.7806476,60.1420518 L61.8244481,60.1482288 L61.8607613,60.1757445 L61.8991335,60.2229142 L61.9494854,60.3035895 L61.9897295,60.3814571 L61.9983398,60.4250704 L61.9951577,60.4707427 L61.9661446,60.5253998 L61.8734897,60.6302215 L61.8229506,60.7034095 L61.667777,61.0560598 L61.5479808,61.40871 L61.5240215,61.5183984 L61.4963186,61.7959888 L61.5041803,61.8568228 L61.5479808,61.93937 L61.6408229,62.0606637 L61.784204,62.2081628 L61.8463483,62.2935176 L61.8809769,62.3543517 L61.8935181,62.3951573 L61.996468,62.4799506 L62.3307744,62.6179034 L62.3388232,62.5926339 L62.2843534,62.2046064 L62.3047562,62.0215427 L62.5713028,61.8688025 L63.8995438,59.8466791 L63.9321134,59.7508421 L63.9723575,59.537455 L64.0049271,59.4552823 L64.1252849,59.3192012 L64.1760111,59.245826 L64.2849508,58.8244802 L64.3540209,58.6904581 L64.5689054,58.3535311 L64.7126609,58.2015396 L64.9544996,57.6860414 L65.0671829,57.5909531 L65.3348527,57.498111 L65.4419206,57.4112587 L65.5308319,57.1297375 L65.5473039,57.110645 L65.5854889,56.7194353 L65.6764592,56.3722134 L65.7605038,56.194578 L65.8619562,56.1183951 L65.9128696,56.0201247 L66.027612,55.5690169 L66.0983666,55.4447283 L66.2043114,55.4460386 L66.2406247,55.5398166 L66.2366939,55.6622334 L66.2205962,55.7518934 L66.1709931,55.870005 L66.0457686,56.0725356 L66.0092682,56.1730521 L66.0109528,56.3310334 L66.0496994,56.4566323 L66.1002384,56.561454 L66.1367389,56.65935 L66.1477826,56.8085338 L66.0983666,57.2310028 L66.1238233,57.3697044 L66.1824112,57.4743389 L66.2406247,57.5024162 L66.265707,57.4112587 L66.3173692,57.3539811 L66.5515334,57.2731187 L66.7115737,57.2461645 L66.8173313,57.2032999 L66.9064298,57.1377863 L66.942743,57.0528059 L66.9865436,56.9163504 L67.1499531,56.6632808 L67.1499531,56.5339383 L67.2265104,56.4809659 L67.2843496,56.4182601 L67.3300219,56.3385207 L67.3644633,56.2333246 L67.3060626,56.0455814 L67.3844917,55.9585419 L67.5230062,55.9323365 L67.6356895,55.9323365 L67.8606818,56.0978051 L68.0121118,56.1618212 L68.1465082,56.0858255 L68.2316759,55.9647189 L68.322459,55.8748717 L68.4229755,55.8046786 L68.5446436,55.7518934 L68.6739861,55.7182007 L68.7518537,55.7356086 L68.8102543,55.807112 L68.8813834,55.9323365 L68.681099,56.5140971 L68.6936402,56.5998263 L68.7155404,56.6179829 L68.7211559,56.65935 L68.7155404,56.7009044 L68.6936402,56.7194353 L68.6487166,56.7106378 L68.5665438,56.6694578 L68.5253639,56.65935 L68.3759929,56.65935 L68.312164,56.6694578 L68.3043024,56.6956633 L68.312164,56.7340355 L68.2795944,56.8124646 L68.2575069,56.9229018 L68.2468376,56.9603381 L68.226622,56.9740024 L68.1921805,56.9779332 L68.1553058,56.9893513 L68.124608,57.0206106 L68.0613406,57.273493 L68.0173529,57.3524837 L67.8176301,57.5482757 L67.7955426,57.6448614 L67.8683563,57.8063992 L67.9333083,57.8994284 L68.124608,58.0458045 L68.228681,58.1506262 L68.2919484,58.199855 L68.3540927,58.220445 L68.4194191,58.1787035 L68.4194191,58.0879204 L68.3941495,57.9950783 L68.3778647,57.9512778 L68.3705647,57.9072901 L68.3394925,57.8275507 L68.3320052,57.7736424 L68.3501619,57.7066314 L68.3904059,57.6948389 L68.4353295,57.7012031 L68.4650914,57.6860414 L68.5867595,57.371389 L68.6792272,57.2497209 L68.8761423,57.1770945 L68.9070273,57.1145758 L68.9214402,57.0269748 L68.9231249,56.9279557 L68.954197,56.8689935 L69.0273851,56.8493394 L69.1765688,56.8401675 L69.4290769,56.7194353 L69.4653901,56.6793785 L69.5159292,56.5773645 L69.558045,56.5339383 L69.6510743,56.5051124 L69.8814949,56.4753505 L69.9799525,56.4139549 L70.0259992,56.3592978 L69.9799525,56.2990254 L70.1435492,55.800935 L70.3472029,55.4170254 L70.6328421,55.17032 L71.6915415,55.0009206 L71.9262672,55.0286235 L72.3171025,55.1652661 L72.6822939,55.3900713 L72.6573988,55.1841715 L72.7023224,55.0523956 L72.8172519,54.9820153 L73.4778159,54.8837449 L74.2686584,54.9019015 L74.3742288,54.8429393 L74.4582734,54.7053608 L74.5834979,54.4249627 L74.9833179,53.9004797 L75.1094783,53.8214891 L75.6000814,53.8701563 L75.7913811,53.760655 L75.8497818,53.7486754 L75.9166056,53.7937862 L75.9912911,53.8701563 L76.0637304,53.9242518 L76.1240029,53.9004797 L76.2552172,53.8025837 L76.3866187,53.8514381 L76.6099264,54.0571508 L76.7388946,54.1048821 L77.1570584,54.1174233 L77.2938882,54.1561699 L77.6188355,54.3590748 L78.2155706,54.545882 L78.3196436,54.6392857 L78.541641,54.9067683 L78.6161393,54.9627356 L78.6747272,55.0205747 L78.8066903,55.2719597 L78.8707064,55.3296116 L78.9920001,55.3458964 L79.1378146,55.4020509 L79.2600442,55.5036905 L79.3109576,55.6614847 L79.4290692,55.8265789 L79.6961774,55.9828756 L79.9816295,56.0313556 L80.1551468,55.8716897 L80.0456456,55.8076735 L79.9982886,55.6382741 L80.0183171,55.4509053 L80.113031,55.3296116 L80.0456456,55.2693391 L80.0095195,55.1854817 L80.0164452,55.0819703 L80.0744716,54.9627356 L80.1579546,54.8946015 L80.2219707,54.8856167 L80.2661456,54.8487419 L80.3312848,54.383034 L80.4619376,54.2712866 L80.638637,54.3038562 L80.831247,54.4249627 L80.9553484,54.3478439 L81.0787011,54.3968855 L81.1736022,54.5273511 L81.2097283,54.6939427 L81.2183386,54.8090594 L81.2385542,54.8487419 L81.2948959,54.8414419 L81.324845,54.8253442 L81.4173127,54.7424228 L81.4624235,54.7214584 L81.6351921,54.9019015 L81.6735644,54.7126609 L81.7138084,54.6486448 L82.0574739,54.6915094 L82.210027,54.8090594 L82.3114794,54.8414419 L82.3152231,54.8217878 L82.3535953,54.7804206 L82.4084395,54.7403638 L82.4578555,54.7214584 L82.5353487,54.7403638 L82.6630066,54.8229109 L82.728333,54.8414419 L83.132271,54.8268417 L84.3691673,55.0849652 L84.4182089,55.1164117 L84.4854071,55.1353171 L84.539877,55.10125 L84.5982776,55.0537059 L84.6707169,55.0286235 L85.0035259,54.9771486 L85.0961808,55.0286235 L85.1040424,54.9294172 L85.1236965,54.8406931 L85.1804126,54.6666142 L85.0731575,54.6351677 L84.9928565,54.5647874 L84.9200429,54.4846736 L84.8403035,54.4249627 L84.7147046,54.3897725 L84.6143752,54.3777929 L84.5217203,54.3435387 L84.4240115,54.2375939 L84.2020141,53.94297 L84.1670111,53.8701563 L84.1705676,53.7372573 L84.2149296,53.6434793 L84.2780098,53.5570014 L84.3339771,53.4465642 L84.247312,53.4465642 L84.178242,53.4171767 L84.0397276,53.3306988 L83.9994835,53.3250833 L83.9085133,53.3400579 L83.8682692,53.3306988 L83.8415022,53.2925137 L83.7834759,53.1437043 L83.6706054,53.1057064 L83.4866058,53.0768805 L83.3158962,53.0884857 L83.2413979,53.1745893 L83.1723278,53.2284976 L83.0308185,53.0819344 L82.9142043,52.8844577 L82.9196326,52.785813 L83.0613291,52.7382689 L83.2573083,52.5499641 L83.4048074,52.5377973 L83.3396682,52.3760724 L83.1831844,52.1419081 L83.1524866,51.961465 L83.1234734,51.6170508 L83.4122947,51.6483101 L83.4048074,51.6827516 L83.5506219,51.7024056 L83.6254946,51.7299213 L83.7509063,51.8283789 L83.7834759,51.7696038 L83.7853477,51.6898645 L83.8480536,51.696603 L83.8521716,51.6816285 L83.7071058,51.4384795 L83.5921763,51.2179795 L83.5231062,50.9194248 L83.8214738,50.0885255 L83.5921763,49.9554393 L83.2866958,49.9116388 L83.0122875,50.0885255 L82.6214522,50.3105229 L82.3300104,50.1222182 L82.1009001,50.1441184 L81.8955618,50.2214244 L81.7426344,50.4168421 L81.6351921,50.5196048 L81.5548912,50.6236778 L81.4813288,50.6981761 L81.4901264,50.8043081 L81.2462287,50.9531175 L80.9965284,51.0098335 L80.7893183,50.8870424 L80.8456599,50.7039787 L80.6964762,50.4675683 L80.4619376,50.3114588 L80.2603429,50.3691108 L80.1023616,50.5196048 L79.8891617,50.6262983 L79.661736,50.688817 L79.4580824,50.709407 L79.3601864,50.688817 L79.1000039,50.5214766 L78.8707064,50.4656965 L78.8267187,50.4393039 L78.7398664,50.3135178 L78.6797811,50.2719635 L78.5979827,50.2841303 L78.3943291,50.3840853 L78.2958715,50.399247 L78.1792574,50.3578799 L78.1012026,50.2801995 L78.0484174,50.1710726 L78.0031194,50.03443 L78.1740163,49.8274071 L78.235599,49.674854 L78.1545494,49.3736787 L78.2631148,48.3234025 L78.2958715,48.1910651 L78.3812264,48.0791305 L78.4886686,48.0080014 L78.58488,47.9222722 L78.6376652,47.7680346 L78.4924123,47.7869399 L78.235599,47.871546 L78.1047591,47.8910129 L77.5862659,47.8256865 L77.1117604,47.8651818 L76.5408564,48.0514276 L75.4164562,48.6343112 L75.1306299,48.685599 L73.0431801,48.4626657 L72.8520677,48.5019738 L72.8084543,48.4411398 L72.6392421,48.5467102 L71.6247176,48.7595358 L71.4555054,48.7295867 L71.2879778,48.6243906 L70.4415424,49.240967 L69.7420446,49.5593629 L69.4960879,49.7708782 L69.2740905,49.8099992 L69.1765688,49.8513663 L68.89954,50.0909588 L68.8196134,50.1860471 L68.5212459,50.6349087 L68.3303206,50.827893 L68.124608,50.8870424 L68.136962,50.847547 L68.1538083,50.7490895 L68.1665367,50.709407 L67.9920834,50.7065993 L67.8589972,50.6788964 L67.7479985,50.5972852 L67.6356895,50.4329397 L67.5048495,50.317823 L67.3788763,50.3679877 L67.1913203,50.5871774 L67.0679676,50.6613013 L66.9008144,50.7079095 L66.7514434,50.6860093 L66.688176,50.5546078 L66.6567295,50.4771146 L66.5895313,50.4632631 L66.5112893,50.464199 L66.4528887,50.4329397 L66.265707,50.1562852 L66.2350092,50.0714919 L66.227522,50.015899 L66.2080551,49.9692908 L66.1367389,49.9065849 L66.0588713,49.866528 L65.9729549,49.8508048 L65.8894719,49.8719563 L65.8202147,49.9397161 L65.7636858,49.9780883 L65.6841336,49.9868858 L65.5255908,49.9730344 L65.490775,50.0071014 L65.3893225,50.1660187 L65.3357886,50.2176808 L65.188851,50.2313451 L64.8940399,50.1729444 L64.6306753,50.3067793 L63.8797026,50.1774367 L63.7228443,50.0909588 L63.6359921,49.907708 L63.6052943,49.4592208 L63.5794632,49.3963277 L63.5160086,49.3551478 L63.193869,49.205964 L63.1319119,49.1213579 L63.1427684,48.9914538 L63.0304594,48.9083452 L62.9061708,48.7782539 L62.8047184,48.6249522 L62.7627897,48.4720247 L62.70233,48.3861084 L62.4193113,48.0727663 L62.3388232,47.9518469 L62.2386811,47.5598886 L62.1445287,47.3871199 L62.0222991,47.4284871 L61.9530419,47.4642388 L61.9079311,47.3818788 L61.853274,47.1825304 L61.8081633,47.1724226 L61.6569205,47.2222129 L61.582235,47.210982 L61.5202779,47.1486505 L61.4600054,46.9858025 L61.4094664,46.9043784 L61.3512529,46.8832269 L61.2821828,46.8912757 L61.2239693,46.8832269 L61.2000101,46.8154672 L61.1167143,46.7364765 L60.4617657,46.555659 L59.4691414,46.4656247 L59.130717,46.4981943 L58.6389908,46.6415754 L58.5377255,46.7540716 L58.4810095,46.9410661 L58.3443669,47.1349862 L58.1790855,47.28417 L58.0338325,47.3337731 L58.0338325,47.277993 L58.1588699,47.0973627 L58.2668737,46.849347 L58.3883546,46.6303445 L58.7318329,46.4491527 L58.9124632,46.2688968 L58.9757306,46.1133488 L58.7939772,46.1008076 L58.6990761,46.143485 L58.4160574,46.3518182 L58.1465159,46.6247291 L57.9533444,46.7113942 L57.771591,46.9182299 L57.6738822,46.9659612 L57.4662978,46.9932897 L57.3957303,47.0496314 L57.4825826,47.1550147 L57.1462171,47.6401895 L56.9384455,47.8822154 L56.8515932,47.8240019 L56.8766756,47.765414 L56.9326429,47.7291008 L56.9931025,47.7021466 L57.0387749,47.6703258 L57.053375,47.6181021 L57.0352184,47.5641938 L56.9099939,47.3004548 L56.8897783,47.2126666 L56.9129888,47.1224451 L56.9509867,47.0397108 L56.9712023,46.9547303 L56.967833,46.8701242 L56.931707,46.7872027 L57.0093874,46.6316548 L57.0790189,46.4242575 L57.1278733,46.2050678 L57.1462171,46.0111476 L57.1097167,45.8365071 L57.0226772,45.6659847 L56.9099939,45.5211061 L56.8061081,45.4245203 L56.7645538,45.4277024 L56.7243097,45.4640157 L56.6821938,45.4795517 L56.6363343,45.4245203 L56.6344625,45.3824045 L56.6728347,45.2888136 L56.7243097,45.0415467 L56.7349791,44.9350403 L56.7042813,44.8384546 L56.5637078,44.718284 L56.2441888,44.677104 L56.0873306,44.6235701 L55.9508751,44.4837454 L55.9364621,44.3319411 L55.9783908,44.1481287 L56.0072168,43.9115311 L55.9458212,43.708439 L55.8056222,43.6988927 L55.6493255,43.787804 Z M67.94847,49.7298854 L67.8788385,49.8476227 L67.8683563,50.03443 L67.8865129,50.1235284 L67.9172107,50.1875446 L67.9535239,50.2502504 L67.9956398,50.3382258 L68.0212837,50.4555887 L68.0139836,50.5171714 L68.0173529,50.5508641 L68.0796844,50.5871774 L68.1178694,50.5836209 L68.1356517,50.4881583 L68.1665367,50.4656965 L68.1991063,50.4859121 L68.2316759,50.5272792 L68.2518915,50.5684592 L68.2468376,50.5871774 L68.3846033,50.6008416 L68.4632196,50.570331 L68.5030893,50.4656965 L68.4757607,50.3578799 L68.3973316,50.3453387 L68.3063614,50.362185 L68.2468376,50.3382258 L68.2468376,50.2665352 L68.2850226,50.1838009 L68.3778647,50.03443 L68.3138486,49.8526766 L68.2717327,49.7849168 L68.2084653,49.7351265 L68.0633996,49.6887055 L67.94847,49.7298854 Z M83.370366,51.8107838 L83.3231962,51.8809769 L83.3158962,52.0058271 L83.2793957,52.1679264 L83.3960099,52.3335821 L83.5049496,52.541541 L83.6324203,52.6630218 L83.8068736,52.5655002 L83.8415022,52.3747621 L83.757832,52.1340465 L83.6305485,51.921221 L83.5326525,51.8096607 L83.370366,51.8107838 Z M86.2610122,53.8299122 L86.2552096,53.9629984 L86.3300822,54.0195272 L86.4208653,54.0374967 L86.4861917,54.0874742 L86.4880635,54.2375939 L86.4496913,54.320141 L86.3847393,54.3673108 L86.2353683,54.4249627 L86.0859974,54.5082585 L86.0135581,54.5357742 L85.9169723,54.545882 L85.8731718,54.5836927 L85.7784579,54.7491613 L85.7077033,54.7867848 L85.5935224,54.711725 L85.4636184,54.5812594 L85.3331528,54.536523 L85.2187848,54.7214584 L85.2039974,54.8493035 L85.2371286,54.909576 L85.2820522,54.9282942 L85.3058243,54.932225 L85.3331528,54.8277776 L85.3949227,54.8554805 L85.4585645,54.938402 L85.4952521,54.9956795 L85.5383039,55.0449083 L85.6874876,55.1489813 L85.7239881,55.2466901 L85.7254855,55.2642852 L85.7661039,55.2592313 L85.8318047,55.2141205 L85.8570742,55.2043871 L86.0859974,55.2043871 L86.1481417,55.2319028 L86.2172117,55.2865598 L86.2862817,55.3223115 L86.3403772,55.297042 L86.4811378,55.1626456 L86.6149727,55.1652661 L86.8701013,55.3296116 L87.0155414,55.3844558 L87.1972948,55.4050458 L87.368566,55.3807122 L87.4814365,55.297042 L87.6955724,54.8186057 L87.715788,54.7214584 L87.5961789,54.6173854 L87.4411925,54.5844415 L87.3064217,54.5065739 L87.2482082,54.2675429 L87.2049693,54.0947743 L87.0971526,53.9704857 L86.824429,53.8149377 L86.4313475,53.7911656 L86.2610122,53.8299122 Z M81.8860155,54.8103697 L81.8448356,54.8414419 L81.8448356,54.9019015 L81.89369,54.9120093 L81.9193339,54.9269839 L81.9374905,54.9432687 L81.9719319,54.9627356 L81.8878874,55.0286235 L82.0284608,55.1044321 L82.1394595,55.1396222 L82.3957112,55.1489813 L82.3593979,55.0486519 L82.3028691,54.9805178 L82.2300554,54.9501944 L82.1428288,54.9627356 L82.1774574,54.846683 L82.1413313,54.7886566 L81.9719319,54.7214584 L81.8860155,54.8103697 Z M75.1527173,56.3555542 L75.2272156,56.4892019 L75.3565581,56.5715618 L75.4892699,56.5998263 L75.5255831,56.5867236 L75.5598374,56.5558386 L75.5877275,56.5163433 L75.6000814,56.4798428 L75.5914711,56.4163883 L75.5570297,56.4122703 L75.5094855,56.4251858 L75.4669953,56.4139549 L75.3745276,56.3222359 L75.2605339,56.2333246 L75.2367619,56.2215322 L75.2165462,56.2187244 L75.1965178,56.2082423 L75.1768637,56.1730521 L75.1527173,56.3555542 Z M81.8901335,56.3461951 L81.8794642,56.4571939 L81.8448356,56.5339383 L81.7808195,56.5301947 L81.6351921,56.437727 L81.2299439,56.3349642 L81.0605445,56.3248564 L80.9171633,56.4139549 L81.0025182,56.515033 L81.2948959,56.7797078 L81.5011701,57.0269748 L81.5895198,57.0863114 L81.6988339,57.1181322 L81.8279892,57.1297375 L81.9560215,57.1194425 L82.0556021,57.0863114 L82.1315979,57.0043258 L82.2446556,56.7559358 L82.3114794,56.65935 L82.1134412,56.5966442 L82.0374455,56.5286972 L82.0103042,56.4139549 L81.9193339,56.2990254 L81.8901335,56.3461951 Z M79.7341753,56.5339383 L79.6673515,56.6146136 L79.6233638,56.7095147 L79.5602836,56.7935593 L79.4358078,56.8401675 L78.6144547,56.8016081 L78.3812264,56.7194353 L78.3812264,56.7797078 L78.4688274,56.8553292 L78.6816529,57.0866857 L78.6998095,57.1349786 L78.6232522,57.1872023 L78.3812264,57.5613784 L78.013976,57.8427124 L77.8397099,58.0173529 L77.7088699,58.2857714 L77.6650694,58.6090341 L77.7047519,58.9313609 L77.797594,59.2168129 L77.9175774,59.4232742 L78.1105617,59.6370357 L78.2155706,59.703298 L78.7759925,59.7910862 L78.8944784,59.8466791 L78.7413639,60.0802818 L78.4327013,60.1957729 L78.0886615,60.2259092 L77.5424654,60.1882856 L77.2697417,60.2448145 L76.285915,60.7810899 L76.0800152,60.9740742 L75.9332648,61.2241489 L75.886095,61.5519039 L76.016935,62.6514089 L75.9263391,63.4424386 L75.7331676,64.1368825 L75.4583849,64.7573897 L75.0512649,65.484216 L74.9984796,65.5465475 L74.9237942,65.5645169 L74.859778,65.5300755 L74.8337598,65.4662466 L74.8491087,65.3850097 L74.93802,65.2300233 L74.9563638,65.139989 L74.961792,64.944197 L74.9851897,64.8837373 L75.1306299,64.7309971 L75.2056897,64.5717055 L75.2586621,64.3910752 L75.2893599,64.1960319 L75.2981574,63.9938757 L75.3135063,63.8948566 L75.3726557,63.7883503 L75.3855713,63.6983159 L75.3580556,63.5886275 L75.2931035,63.5216164 L75.2071872,63.5049573 L75.1306299,63.5470731 L75.0961884,63.6294331 L75.0711061,63.7610218 L75.0456494,63.9938757 L75.023562,64.0957025 L74.9690921,64.1752547 L74.836006,64.3225667 L74.8854219,64.3309899 L75.0035335,64.3875187 L74.9509355,64.4683812 L74.8163519,64.5730157 L74.7910824,64.6450807 L74.761882,64.9000221 L74.7289381,65.0306749 L74.6437704,65.1560866 L74.625801,65.2889855 L74.5874287,65.3743404 L74.4762428,65.3015267 L74.4270141,65.2176693 L74.3195718,64.9666587 L74.2813867,64.7933285 L74.3691749,64.527905 L74.6057725,63.9682318 L74.6323523,63.8433817 L74.625801,63.7252701 L74.5857441,63.6328023 L74.5325845,63.609779 L74.3691749,63.6715489 L74.4182165,63.5176856 L74.5069406,63.3172141 L74.6181265,63.1425736 L74.7309971,63.0677009 L74.7785412,62.9969463 L74.7384843,62.8331623 L74.625801,62.5323614 L74.6272984,62.2777944 L74.7182687,62.1886959 L74.825711,62.1598699 L74.8781218,62.0896768 L74.9237942,61.9481675 L75.0005386,61.792058 L75.0166362,61.673572 L74.8781218,61.6460563 L74.7087224,61.8197609 L74.6199983,61.8315533 L74.5376384,61.8253763 L74.4653863,61.8386662 L74.3903265,61.9116671 L74.0741767,62.5323614 L73.9798371,62.6523449 L73.7106699,62.9115914 L73.6543282,62.9868385 L73.6215714,63.1380812 L73.2971856,63.832338 L73.2226873,63.9274262 L73.1268503,63.9676703 L73.0212799,63.9300468 L72.8354085,63.7632679 L72.7444382,63.7252701 L72.6976428,63.7170341 L72.6208983,63.6795977 L72.5737286,63.6715489 L72.5104612,63.6897055 L72.4921174,63.7327573 L72.4883737,63.7883503 L72.4683453,63.8433817 L72.2538351,64.1982781 L72.1789625,64.2636045 L72.1278619,64.2656635 L72.0827511,64.2443248 L72.0443789,64.2179322 L72.0099374,64.2040807 L71.8169532,64.2040807 L71.7134417,64.2525608 L71.687985,64.3706724 L71.7117571,64.6450807 L71.6316433,65.4194512 L71.6696412,65.5645169 L71.614797,65.6669053 L71.5494706,65.7189418 L71.4701056,65.738783 L71.3714608,65.747019 L71.3113755,65.7384087 L71.2097359,65.6901158 L71.1608815,65.6826286 L71.1187656,65.7050903 L71.0186234,65.7874503 L70.7911977,65.8617614 L70.6167444,66.0122554 L70.5239023,66.2278887 L70.5912877,66.4841404 L70.6968582,66.6926607 L70.744028,66.9034273 L70.7421561,67.1179374 L70.6309702,67.689403 L70.5912877,67.7844913 L70.5600284,67.8911848 L70.5581566,68.1652187 L70.5293306,68.2835176 L70.6184291,68.5626054 L70.5366307,68.9292942 L70.3876341,69.2682802 L70.1070488,69.7783502 L69.836197,70.4435938 L69.6432127,70.7541281 L69.174697,71.1752868 L68.9921949,71.4276077 L68.9708562,71.7521807 L69.0341236,71.8914438 L69.2218668,72.1478827 L69.2924343,72.3324438 L69.3543914,72.4114344 L69.3965073,72.4966021 L69.3418502,72.6910838 L69.3504606,72.7886055 L69.3907046,72.922066 L69.4942161,73.655818 L69.4612721,73.9689729 L69.3068473,74.2587301 L68.9687972,74.700666 L68.8596703,74.9750743 L68.8396419,75.3073217 L68.8849398,75.4930059 L69.0215824,75.7947427 L69.0743677,76.0545508 L69.9894987,78.4323193 L70.1053642,78.555672 L70.1837933,78.4635787 L70.6109418,78.3256258 L70.5746286,78.4396194 L70.4801018,78.5539874 L70.3619902,78.6414012 L70.2562326,78.6765914 L70.1691931,78.7293766 L70.1875369,78.8611525 L70.5055585,79.7343549 L70.5581566,80.0680997 L70.625542,80.2738124 L70.7095865,80.4638017 L70.7824002,80.5708696 L70.7859566,80.6047495 L70.7805284,80.6264626 L70.7696718,80.6335755 L70.7824002,80.6335755 L70.7621846,80.6395653 L70.7462741,80.6395653 L70.7384125,80.6496731 L70.7402843,80.6854248 L70.8149698,80.9031171 L70.8349982,83.0353032 L70.5020021,85.0168082 L70.3219333,85.640123 L69.8504228,86.8167469 L69.1507378,87.8563538 L68.4707068,89.4210051 L68.1408928,89.9511036 L67.7429446,90.3761931 L67.3756942,90.5880827 L67.3176679,90.6805505 L67.2478491,90.7653437 L66.9897256,90.9102223 L67.1718534,90.9102223 L68.1283516,90.9113454 L68.6069751,90.9113454 L69.5617887,90.9113454 L70.5184741,90.9126557 L70.9961616,90.9126557 L71.4755338,90.9126557 L71.9537829,90.9132172 L72.4299731,90.9132172 L72.9082222,90.9137788 L73.3868456,90.9137788 L73.8652819,90.9145275 L74.3431567,90.9145275 L74.8199083,90.9152762 L75.2981574,90.9152762 L75.7769681,90.9152762 L76.2552172,90.9158378 L77.2094693,90.9158378 L77.6884671,90.9163993 L78.1669034,90.9163993 L78.6451525,90.9171481 L79.1232144,90.9171481 L79.6003404,90.9175224 L79.6014635,91.3963331 L80.1147156,91.3776149 L80.6277805,91.3577737 L81.1408454,91.3383068 L82.1660393,91.299373 L82.6792914,91.2799061 L83.1919819,91.2595033 L83.705234,91.2411595 L84.2184861,91.2209439 L85.2436799,91.1818229 L85.7573064,91.1629176 L86.7825003,91.1239838 L87.2957524,91.1039553 L87.7998325,91.0844885 L87.7957145,91.0206595 L87.8194866,90.9113454 L87.8756411,90.8456447 L87.9452727,90.8310445 L88.0062939,90.8776527 L88.0525278,90.8776527 L88.0560842,90.6577143 L88.0762998,90.4920585 L88.1251542,90.3499877 L88.3832777,89.9387496 L88.4871635,89.8397305 L88.5983494,89.8595717 L88.6578732,89.6308358 L88.7602616,89.4623723 L88.8976529,89.3946125 L89.0651805,89.471357 L89.1035527,89.3684071 L89.108981,89.2605905 L89.0835243,89.1574534 L89.0238133,89.0709755 L89.2078129,89.0483265 L89.3034627,88.9732666 L89.4399181,88.6146266 L89.4706159,88.6765837 L89.4981316,88.7188868 L89.5692607,88.7894543 L89.5453014,88.7303049 L89.5368782,88.682012 L89.5267704,88.563526 L89.5089882,88.50681 L89.4522721,88.4229526 L89.4399181,88.3890727 L89.4543311,88.2726457 L89.4887725,88.2013295 L89.51086,88.1408699 L89.4855905,88.0557022 L89.5125446,88.0180787 L89.5692607,87.8857413 L89.767486,87.0007464 L89.8955183,86.7070584 L90.1635624,86.3699443 L90.2861664,86.2173912 L90.4061498,86.1060182 L90.7932414,85.9510318 L90.9903437,85.9179006 L91.0496803,85.8939414 L91.1372813,85.8271175 L91.2480929,85.7151829 L91.346176,85.5862147 L91.3862329,85.4660441 L91.3993356,85.3606608 L91.4539927,85.1991231 L91.4699031,85.0989809 L91.4607312,85.0141876 L91.4045767,84.8964504 L91.3862329,84.8103468 L91.3993356,84.6486219 L91.4442592,84.4595684 L91.5082753,84.3021486 L91.5756607,84.2360735 L91.8481972,84.1222671 L91.93037,84.1020514 L91.9919527,84.0983078 L92.035566,84.0642407 L92.0628946,83.9513702 L91.913898,83.8589025 L91.8116968,83.6837005 L91.8081403,83.5141139 L91.954142,83.439054 L92.1053848,83.4027408 L92.2227477,83.3149526 L92.3393619,83.2028308 L92.4831174,83.0965116 L92.5598618,83.1534148 L92.81967,83.26797 L92.938156,83.2689059 L92.938156,83.3707327 L92.8883656,83.4914649 L92.8576678,83.6099509 L92.8924836,83.6691003 L92.9523818,83.7288112 L92.9761538,83.8147276 L92.9048376,83.9513702 L93.0308109,84.0911949 L93.0757345,84.1222671 L92.9027786,84.2132373 L92.855796,84.269579 L92.8567319,84.2978434 L93.0757345,84.2703277 L93.2756445,84.1812293 L93.4401771,84.0213761 L93.5816865,83.7799118 L93.6743414,83.5569785 L93.8456126,82.9501356 L93.8849207,82.5978597 L93.9202981,82.4438092 L93.9234801,82.3543364 L93.9066338,82.2905074 L93.8343817,82.1201721 L93.8525383,81.980909 L93.9403265,81.7396319 L93.961478,81.574912 L94.0331686,81.2793522 L94.1728061,81.0083132 L94.269579,80.7400819 L94.2579738,80.4555658 L94.2130502,80.3992241 L94.1668163,80.271379 L94.0017221,79.902444 L93.9403265,79.825138 L93.896526,79.7435268 L93.5856173,78.2745252 L93.4585209,76.8032774 L93.257675,76.1470186 L92.9048376,73.7417344 L92.6848992,73.2466389 L92.6523296,73.1259068 L92.632114,72.9507048 L92.5813877,72.8093826 L92.2541942,72.2974408 L92.0555945,72.0883589 L91.8279816,71.9159646 L91.138966,71.5416013 L90.9843539,71.5189523 L90.8626858,71.5387936 L90.554772,71.6417435 L90.4606197,71.6932184 L90.2423659,71.9474111 L90.1349236,72.0187273 L89.9293981,72.0443712 L89.8511562,72.0711382 L89.7096469,72.1911216 L89.6312178,72.218263 L89.1875973,72.2315529 L89.1273248,72.2510198 L89.0764114,72.2850868 L89.0238133,72.339931 L88.8381291,72.6008623 L88.8089288,72.6605732 L88.7217021,72.7245893 L88.1738215,72.8062005 L88.2904356,72.8477549 L88.415473,72.8509369 L88.5266589,72.874709 L88.5983494,72.980841 L88.3851495,73.2200592 L88.27022,73.3791636 L88.2198682,73.5358346 L88.1777523,73.7265727 L87.8791976,74.1434262 L87.7462986,74.5121741 L87.6469051,74.6639784 L87.5244883,74.638896 L87.4979085,74.5690773 L87.4700185,74.4734275 L87.4288385,74.4183961 L87.354153,74.4648171 L86.9429149,75.1051655 L86.7261586,75.3400785 L86.4861917,75.4718544 L86.2353683,75.4239359 L85.9791166,75.2547237 L85.6657746,75.1628175 L85.5401757,75.0600548 L85.2348824,74.9415688 L85.0961808,74.8440471 L84.9653408,74.678017 L84.8547165,74.4560196 L84.8182161,74.2168014 L84.9041324,73.9998579 L84.9237865,73.9148774 L84.9069402,73.6326075 L84.9269686,73.503265 L84.9947284,73.4078023 L85.0619266,73.3334912 L85.0731575,73.2578698 L84.9653408,73.1549199 L85.1854665,72.4932328 L85.3496248,72.2253759 L85.6040046,72.1025847 L85.6768183,72.1096976 L85.8136481,72.1561187 L85.8950721,72.160611 L85.9551574,72.1377749 L86.0584817,72.060656 L86.1279261,72.0443712 L86.1911935,72.0529816 L86.3119256,72.0932256 L86.3806213,72.1025847 L86.4171217,72.0570996 L86.4609222,71.8336047 L86.4880635,71.7521807 L86.6024315,71.6832978 L86.9062273,71.6692592 L87.0174132,71.6035584 L87.0338852,71.5153959 L87.0226543,71.4100126 L87.0301416,71.3224116 L87.0990244,71.2853496 L87.1413275,71.2432338 L87.1570508,71.1440275 L87.1914922,70.5422385 L87.2536365,70.1658162 L87.3867226,69.8642666 L87.6268767,69.6963646 L87.6888338,69.6875671 L87.8791976,69.6963646 L87.8593563,69.7465293 L87.817802,69.8794283 L87.7957145,69.9305289 L87.8812565,69.8489177 L88.1595957,69.4833519 L88.2198682,69.3740378 L88.2561814,69.3450247 L88.4317578,69.3410939 L88.4905328,69.3184449 L88.5869314,69.1810536 L88.6161317,69.1084271 L88.643273,68.9933104 L88.6874479,68.6460884 L88.7295638,66.783631 L88.7561436,66.6011289 L88.8723834,66.2894715 L88.8957811,66.0996693 L88.8815553,65.9156697 L88.8212828,65.5645169 L88.7960133,65.1540276 L88.763818,64.9777025 L88.7123431,64.8212186 L88.643273,64.678399 L88.6271754,64.6267369 L88.6176292,64.5425051 L88.5983494,64.5003893 L88.5581054,64.4625786 L88.4560914,64.4062369 L88.3430337,64.2780175 L88.1708266,64.1563494 L88.0944564,64.080728 L88.0283813,63.9976194 L87.9903835,63.9351007 L87.9718525,63.8497459 L87.9671729,63.6983159 L87.9471445,63.6382306 L87.9031568,63.5991096 L87.8572973,63.5721555 L87.8340868,63.5470731 L87.8378304,63.4663978 L87.8685282,63.4342026 L87.9050286,63.4072484 L87.9213134,63.341922 L87.9336674,63.1216092 L87.9903835,62.9630664 L88.1128002,62.866855 L88.3248771,62.8357829 L88.3814059,62.8720961 L88.5182357,63.0538495 L88.5983494,63.1266631 L88.6979301,63.1680303 L88.8020031,63.1869356 L89.0238133,63.1918024 L88.9654127,63.0386878 L88.7323715,62.9198274 L88.6838915,62.716361 L88.7016737,62.7191687 L88.7454742,62.7141148 L88.7889004,62.6938992 L88.8089288,62.6514089 L88.802939,62.5939442 L88.7889004,62.5563207 L88.7744874,62.5299281 L88.7668129,62.5059688 L88.7602616,62.4194909 L88.7123431,62.1961832 L88.6838915,62.1224336 L88.6217471,62.0863075 L88.5382641,62.0679637 L88.4633915,62.0396993 L88.4308219,61.9739986 L88.2582404,61.7005262 L88.1489263,61.4581259 L88.1324543,61.3738942 L88.1453699,61.2731905 L88.1796241,61.212918 L88.3027896,61.1002346 L88.0648817,60.8175903 L87.8009556,60.5772491 L87.5244883,60.4044804 L87.2482082,60.329795 L87.035757,60.3430849 L86.9498407,60.329795 L86.7027609,60.2202937 L86.6131009,60.2058807 L86.5118356,60.1581494 L86.3538543,59.9284775 L86.2353683,59.8466791 L86.1662983,59.8337636 L85.9407444,59.8466791 L85.854828,59.8273994 L85.6824337,59.7463498 L85.467362,59.680649 L85.3496248,59.5664682 L85.1382967,59.3085319 L84.8582729,59.1584122 L83.9143159,59.1297734 L83.7930222,59.0651958 L83.6983083,58.9332327 L83.6378486,58.7720693 L83.6159483,58.618206 L83.5833787,58.4810018 L83.5030778,58.3404284 L83.3213244,58.1012103 L83.1264683,57.9192697 L82.8501882,57.7549242 L82.5467668,57.6435511 L82.2661815,57.620715 L81.6823619,57.6708797 L81.4337847,57.5772888 L80.9581561,57.145648 L80.1551468,56.7194353 L79.9561728,56.5339383 L79.8567793,56.4931327 L79.7341753,56.5339383 Z M74.9200505,56.883968 L74.9076965,56.9955283 L74.8799936,57.0896806 L74.836006,57.2010537 L74.7837823,57.2937086 L74.7270662,57.3740096 L74.6821426,57.4644183 L74.6126983,57.8421509 L74.5234126,58.0173529 L74.4945866,58.1588622 L74.6235548,58.3159076 L74.8163519,58.3653236 L75.0419058,58.3052383 L75.2386337,58.1656008 L75.3402733,57.9808525 L75.3402733,57.8509484 L75.2786906,57.6061148 L75.2605339,57.4679747 L75.2712033,57.3708275 L75.2893599,57.2766751 L75.2931035,57.1834586 L75.2605339,57.0863114 L75.2272156,57.014808 L75.2348901,56.950979 L75.2732623,56.8927655 L75.3402733,56.8401675 L75.2418158,56.7961798 L75.023562,56.7645461 L74.9237942,56.7194353 L74.9200505,56.883968 Z M72.9282506,59.497211 L72.8939964,59.542509 L73.1612918,60.0063451 L73.2103333,60.0561354 L73.248144,59.9041439 L73.199664,59.7596397 L73.1088809,59.6340408 L72.9851538,59.5138702 L72.9561407,59.493093 L72.9282506,59.497211 Z M71.9519111,62.0649688 L71.8841514,62.1278619 L71.7950529,62.2948279 L72.002263,62.7491178 L72.1591212,62.8870706 L72.3427464,62.7702693 L72.25683,62.6877222 L72.2740507,62.5851466 L72.3244026,62.4722761 L72.3427464,62.3605287 L72.2970741,62.2564557 L72.2205168,62.1886959 L72.1295465,62.1297337 L72.0481225,62.0574816 L71.9519111,62.0649688 Z M71.3877456,63.0517905 L71.300519,63.16672 L71.2585903,63.3114114 L71.2879778,63.4342026 L71.4219999,63.5165625 L71.5316883,63.4186665 L71.6247176,63.2531979 L71.7117571,63.1266631 L71.6512974,63.1199246 L71.5970147,63.0989603 L71.5479731,63.0639573 L71.500429,63.0137926 L71.3877456,63.0517905 Z M89.7380985,87.3668737 L89.6398281,87.833892 L89.6218587,88.082282 L89.6961698,88.163706 L89.7745989,88.0375456 L89.7927555,87.7938351 L89.7843324,87.3153988 L89.7380985,87.3668737 Z" id="Page-1"></path>
            </g>
        </g>
    </g>
</svg>