<?xml version="1.0" encoding="UTF-8" standalone="no"?>
<svg width="79px" height="44px" viewBox="0 0 79 44" version="1.1" xmlns="http://www.w3.org/2000/svg" xmlns:xlink="http://www.w3.org/1999/xlink">
    <!-- Generator: Sketch 46.2 (44496) - http://www.bohemiancoding.com/sketch -->
    <title>Fill 1</title>
    <desc>Created with Sketch.</desc>
    <defs></defs>
    <g id="Page-1" stroke="none" stroke-width="1" fill="none" fill-rule="evenodd">
        <g id="The-50-States" transform="translate(-153.000000, -1141.000000)" fill="#4A4A4A">
            <g id="Montana" transform="translate(122.000000, 1088.000000)">
                <g id="Page-1" transform="translate(31.000000, 53.000000)">
                    <path d="M78.95945,29.4974909 C78.9488619,27.6615222 78.9409772,25.8253285 78.9312902,23.9891348 C78.9209275,21.972878 78.9083119,19.9568462 78.8999766,17.9405894 C78.8914161,15.8934968 78.8812786,13.8464041 78.8706905,11.7995365 C78.8607783,9.79678444 78.8497396,7.79380726 78.8420802,5.79105516 C78.8344208,3.86077847 78.8220305,1.93027669 78.8139205,0 L23.8530989,0 C21.8413673,0 19.8294105,0.000900315622 17.8174536,0.000900315622 L0.00608250304,0.000900315622 C0.00450555781,1.25391458 0.00337916835,2.50692885 0.00337916835,3.75971804 C0.00337916835,5.75841872 0,7.7571194 0,9.755595 L0.0234289006,9.81659138 L0.0795230953,9.90999913 L0.224376779,10.0526992 L0.416538819,10.2966847 L0.493809135,10.445912 L0.656009216,10.6691903 L0.705345074,10.7722764 L0.734856478,10.8206684 L0.778109833,10.8713111 L0.860110985,10.9379345 L0.930848243,11.0119855 L1.00383828,11.1067437 L1.06443803,11.1684153 L1.22055561,11.2647491 L1.2725948,11.3140413 L1.31404593,11.393044 L1.34062872,11.4513395 L1.46475684,11.917928 L1.49404297,11.9721721 L1.54090077,12.026191 L1.7148153,12.1340038 L1.77586561,12.1841964 L1.8157398,12.2724273 L1.83173453,12.3395008 L1.85178426,12.4061242 L1.88670233,12.4594679 L2.07661159,12.5884381 L2.12279356,12.633679 L2.16559636,12.7144823 L2.18271748,12.7806555 L2.18947582,12.8488544 L2.17212942,13.0903641 L2.2038936,13.1693668 L2.38344008,13.4513906 L2.42827038,13.5569526 L2.44291344,13.6388814 L2.42759455,13.6935755 L2.38749508,13.7912598 L2.36023646,13.8328994 L2.32892283,13.8675615 L2.29423003,13.8981723 L2.13608496,13.9987825 L2.10004049,14.0284929 L2.07188076,14.06293 L2.07480937,14.1122223 L2.11355717,14.1621898 L2.28229031,14.2763048 L2.34176367,14.3370761 L2.39087425,14.442188 L2.42962205,14.641833 L2.43345177,14.6508361 L2.50171097,14.6942763 L2.60263547,14.7435686 L2.66188355,14.7872339 L2.68869162,14.8509313 L2.67472439,14.8997734 L2.64588882,14.9393873 L2.60714102,14.9650463 L2.5645635,14.9837278 L2.51725515,14.9976827 L2.23746001,15.0251423 L2.19420665,15.0388722 L2.16154136,15.0629556 L2.14419496,15.0823124 L2.12594745,15.1171996 L2.114233,15.16109 L2.13202995,15.2137585 L2.17618442,15.2635009 L2.28499364,15.3190954 L2.5431621,15.3960724 L3.03539429,15.7282888 L3.09576877,15.7861341 L3.30572776,16.0359717 L3.41318532,16.1955526 L3.46860368,16.3317254 L3.5346101,16.4582197 L3.570204,16.5023352 L3.62156736,16.5410488 L3.71731047,16.5831385 L4.04824369,16.6434597 L4.63959815,16.8838439 L4.69456596,16.9236829 L4.74637987,16.9835539 L4.81982046,17.0987943 L4.88267299,17.2372178 L4.90925578,17.2865101 L4.95138275,17.340529 L4.97864137,17.3871204 L4.99733944,17.4343869 L5.02076834,17.5354474 L5.04419724,17.5822638 L5.08249448,17.6209774 L5.14827563,17.6556395 L5.20099065,17.6948032 L5.2473979,17.7436454 L5.30822293,17.8305258 L5.36566879,17.8926476 L5.54679221,18.022068 L5.62068336,18.0931929 L5.80022984,18.3491076 L5.894396,18.5723859 L6.48011851,19.2298414 L6.49476158,19.2784584 L6.52539937,19.4528946 L6.53080604,19.4695504 L6.54161938,19.4947592 L6.57225717,19.5316722 L6.62204358,19.5703858 L6.71688558,19.6102247 L6.8470962,19.645112 L6.88922316,19.6734719 L6.93382818,19.7180375 L7.1181055,19.9699008 L7.15955663,20.0124407 L7.21520027,20.0579067 L7.37942785,20.1598674 L7.41975259,20.2010568 L7.42425815,20.2503491 L7.41502176,20.3018922 L7.39947758,20.3559111 L7.38776313,20.4135313 L7.38348285,20.4727271 L7.39699953,20.6390604 L7.41614815,20.7428218 L7.44611011,20.8398308 L7.50107791,20.9753283 L7.54230377,21.0225949 L7.6031288,21.0732376 L7.80249973,21.2062592 L7.8741381,21.2722074 L7.96807898,21.3811455 L8.03768985,21.4432673 L8.14424629,21.4930098 L8.33235333,21.5481541 L8.37853529,21.5771893 L8.41232698,21.6183787 L8.43665699,21.6852272 L8.44251422,21.750275 L8.43913505,21.8126218 L8.3927278,22.0426525 L8.39317836,22.0941955 L8.41097531,22.1403367 L8.44656922,22.1761242 L8.51122397,22.1916547 L8.56213678,22.181076 L8.6047143,22.1556421 L8.75024381,21.9695018 L8.85680026,21.8765442 L8.89554805,21.8535862 L8.94082891,21.8400814 L8.99174171,21.8355799 L9.04445674,21.8468338 L9.08996287,21.8666407 L9.25599268,21.9886335 L9.30014714,22.0417521 L9.35466439,22.1367354 L9.3688569,22.2051594 L9.35804356,22.2603038 L9.26793241,22.3771197 L9.24945962,22.4221355 L9.24405295,22.4768297 L9.25328934,22.5261219 L9.26793241,22.5731634 L9.3159166,22.6307836 L9.38687913,22.6922302 L9.5441231,22.794416 L9.63828926,22.8367308 L9.72051569,22.8585635 L9.83067658,22.8493352 L9.90929856,22.8308788 L10.0588831,22.7692072 L10.1041639,22.7638053 L10.1467415,22.7719081 L10.2555507,22.8117471 L10.3075899,22.8198499 L10.3557993,22.8130975 L10.4024319,22.7982423 L10.4853341,22.754577 L10.5918906,22.6728734 L10.6344681,22.6532915 L11.0798425,22.5380511 L11.1325575,22.5346749 L11.1891023,22.5400768 L11.2393392,22.5625847 L11.2789881,22.5988224 L11.3057962,22.6618445 L11.3157084,22.7235161 L11.3217909,22.7851878 L11.3190876,22.957148 L11.2970104,23.0732888 L11.2564603,23.1707479 L11.2404656,23.2211656 L11.2312292,23.2740591 L11.2357348,23.3253771 L11.2469987,23.3746694 L11.2544328,23.4262125 L11.2483503,23.4786559 L11.2298776,23.5263726 L11.1825692,23.6121277 L11.167025,23.6600695 L11.1631953,23.7104871 L11.1737834,23.7570785 L11.1936078,23.8002936 L11.2105037,23.8437339 L11.2177125,23.8903252 L11.2057728,23.9373667 L11.1830198,23.9765304 L11.1510303,24.0093919 L11.1149858,24.0373017 L11.0742105,24.0627356 L10.8946641,24.1334104 L10.8568174,24.155018 L10.8279818,24.1809021 L10.8146904,24.2243423 L10.8153662,24.2340207 L10.8214487,24.2495511 L10.8428501,24.2878145 L10.9370163,24.4014794 L10.9703574,24.4534726 L10.9949127,24.5025398 L11.0050502,24.554533 L11.0088799,24.6094523 L11.0043744,24.6693233 L10.9928852,24.7264933 L10.9775663,24.7859142 L10.8246026,25.1158798 L10.7964429,25.2245929 L10.7799976,25.3402835 L10.7781954,25.4600255 L10.7894593,25.5718897 L10.7854043,25.6301851 L10.7759426,25.6821784 L10.7538654,25.7278694 L10.6200503,25.9281896 L10.5990995,25.977932 L10.5885114,26.0308256 L10.5819783,26.1415644 L10.5691375,26.194683 L10.5477361,26.2419496 L10.4932189,26.3214024 L10.4720427,26.3612414 L10.4596524,26.4078327 L10.4664108,26.459826 L10.4853341,26.5104687 L10.5166478,26.5723654 L10.5544944,26.6756766 L10.5666594,26.7260943 L10.5738683,26.7758368 L10.5878356,26.9376685 L10.6047314,27.0416549 L10.6060831,27.095899 L10.5984236,27.1494677 L10.5765717,27.1935832 L10.5466097,27.2286955 L10.5065102,27.2521037 L10.4596524,27.2667338 L10.2411329,27.2910424 L10.2010334,27.3090487 L10.171522,27.3347077 L10.1575548,27.3565403 L10.1433623,27.3961542 L10.1395326,27.4456716 L10.1462909,27.4947388 L10.1760276,27.5514587 L10.4364488,27.834833 L10.4637074,27.8771478 L10.4797022,27.926215 L10.4833066,27.977308 L10.4772241,28.031552 L10.4605536,28.0810693 L10.4368994,28.1269854 L10.3048865,28.328206 L10.2855126,28.3750224 L10.2715454,28.4283661 L10.2749246,28.4904879 L10.2940732,28.5602623 L10.3456618,28.6527697 L10.3548982,28.7202934 L10.3463377,28.7767882 L10.3339474,28.8281062 L10.353096,28.8879772 L10.4132452,28.9469479 L10.5698133,29.0146966 L10.7428268,29.0639889 L10.7894593,29.0921238 L10.8164926,29.1535703 L10.8200971,29.2114156 L10.8081573,29.2670101 L10.7428268,29.4002568 L10.7252551,29.4511246 L10.7153429,29.5082947 L10.7092603,29.5627638 L10.7153429,29.6152071 L10.7302112,29.660448 L10.7493598,29.7056889 L10.8876804,29.9305427 L10.8982685,30.002793 L10.8890321,30.0574872 L10.8615482,30.0975512 L10.7038537,30.259383 L10.6673587,30.2857172 L10.6225284,30.3057492 L10.5738683,30.3163279 L10.349041,30.3269066 L10.3021832,30.3377104 L10.2596057,30.3568421 L10.1929234,30.4110862 L10.1699451,30.4434975 L10.1566537,30.4682562 L10.1221862,30.5499598 L10.0473939,30.6697018 L10.0032394,30.7561321 L9.98454137,30.8056495 L9.96201359,30.8508903 L9.93137579,30.8891538 L9.86266604,30.9510505 L9.8324788,30.9845872 L9.82369296,31.0347798 L9.8365338,31.0984771 L9.89127633,31.1896341 L9.92596912,31.3174789 L9.94061219,31.3629449 L9.98071165,31.4187644 L10.1474173,31.5895993 L10.1902201,31.6577982 L10.2017093,31.7192448 L10.1728737,31.8079258 L10.175577,31.8551924 L10.1987806,31.950851 L10.1976543,32.0062204 L10.1888684,32.0550625 L10.1742254,32.0978275 L10.1595823,32.1284382 L10.1420106,32.1552226 L10.0582072,32.2497557 L9.92056245,32.3667968 L9.8946555,32.4032596 L9.88316632,32.4514264 L9.89510605,32.509947 L9.93452968,32.587149 L9.95863442,32.6443191 L9.96854664,32.701264 L9.96043664,32.7521319 L9.94218913,32.8020994 L9.86581993,32.9189153 L9.8619902,32.9549279 L9.89127633,32.9891399 L9.98206332,33.0017444 L10.1115981,33.0017444 L10.419553,33.0616154 L10.4839825,33.0847985 L10.7013756,33.2520321 L10.7344915,33.300199 L10.7531895,33.3546681 L10.7635523,33.4041854 L10.8061298,33.4577542 L10.8741638,33.5065963 L11.0951614,33.6319653 L11.1309806,33.6965629 L11.1571128,33.7312251 L11.2044211,33.7670126 L11.278087,33.7888453 L11.4152813,33.8000992 L11.4873702,33.7859193 L11.5421127,33.7631863 L11.578833,33.7377524 L11.7356264,33.6544732 L11.762885,33.631065 L11.7698687,33.6240875 L11.7991548,33.5745702 L11.8671887,33.3751503 L11.8890407,33.3323853 L11.9165246,33.2929965 L11.9467118,33.2583343 L11.9838827,33.2313248 L12.0266854,33.2121931 L12.0771477,33.2054408 L12.188435,33.2137687 L12.2386719,33.2072414 L12.2798978,33.1878846 L12.4303834,33.0859239 L12.6899036,32.9760854 L12.725948,32.949301 L12.7525308,32.9126131 L12.766498,32.8657967 L12.7845203,32.8198806 L12.808625,32.7773407 L12.8406145,32.7444792 L12.9568579,32.6708784 L12.9888473,32.6407178 L13.0140784,32.5988531 L13.0357051,32.5520367 L13.0530515,32.5004936 L13.095629,32.4052853 L13.1222118,32.3638707 L13.1544266,32.3310092 L13.1911469,32.3058004 L13.232598,32.2832925 L13.4078642,32.2227463 L13.434447,32.2083412 L13.4504417,32.1880841 L13.4610298,32.1495956 L13.4592276,32.1041297 L13.4504417,32.0602393 L13.4290403,31.9963169 L13.4204798,31.950851 L13.4186775,31.9004333 L13.4204798,31.8475397 L13.4306173,31.8013986 L13.4452603,31.7748392 L13.4686892,31.7534568 L13.5078876,31.7408523 L13.5973229,31.7716881 L13.7203246,31.8349353 L13.9550642,32.0057702 L14.1244732,32.156348 L14.1440723,32.1975374 L14.1564626,32.2457043 L14.1643473,32.3483403 L14.210304,32.3985329 L14.2873491,32.4430985 L14.627744,32.5630656 L14.6809096,32.5905252 L14.7304707,32.6287886 L14.7872407,32.6947367 L14.8142741,32.7483055 L14.8271149,32.8011991 L14.8223841,32.8502663 L14.8025596,32.8939316 L14.7518721,32.9731593 L14.7318224,33.0199758 L14.7011846,33.1271133 L14.6838382,33.2466302 L14.6815854,33.3040253 L14.7077176,33.3582693 L14.7597568,33.4041854 L14.9638586,33.4973681 L15.0321178,33.5628661 L15.0508158,33.6261132 L15.0494642,33.6384926 L15.0508158,33.6965629 L15.067937,33.8475909 L15.0641072,33.9009346 L15.0508158,33.9524777 L15.0111669,34.0494867 L14.9960733,34.1001294 L14.9859358,34.1541484 L14.98526,34.2099679 L14.9971997,34.2563342 L15.0134197,34.3008998 L15.0246836,34.404211 L15.0532939,34.4690337 L15.2377965,34.6247883 L15.2875829,34.6880355 L15.3123635,34.7485817 L15.3141657,34.8611212 L15.3013249,35.0927274 L15.2857807,35.2052668 L15.2828521,35.2604112 L15.2929896,35.365523 L15.3101107,35.4100887 L15.3324132,35.4501527 L15.3749907,35.4920174 L15.520295,35.6036565 L15.5698561,35.6522736 L15.6020708,35.7015658 L15.6140106,35.7524337 L15.6185161,35.8557449 L15.6284284,35.904587 L15.6590662,35.9498279 L15.7735073,36.0457115 L15.9055202,36.2005658 L16.0114008,36.2836199 L16.1051164,36.3905324 L16.1479192,36.4711106 L16.1650403,36.515001 L16.1864417,36.6099843 L16.1916231,36.6608521 L16.2026617,36.7099193 L16.2209092,36.7524592 L16.2745253,36.8269604 L16.2959267,36.8656739 L16.3105698,36.9111399 L16.3125973,37.022779 L16.322059,37.0718462 L16.3572023,37.1074087 L16.4119449,37.1278909 L16.633393,37.1229391 L16.6829542,37.1474727 L16.7255317,37.2181475 L16.766307,37.3811046 L16.7856809,37.4218439 L16.992486,37.7248001 L17.0346129,37.807179 L17.1353122,38.0693959 L17.1486036,38.1159873 L17.1776644,38.2631889 L17.1792414,38.2746679 L17.1742852,38.3300373 L17.1326088,38.554441 L17.1152624,38.6053088 L17.093861,38.6521252 L17.0659266,38.6917391 L17.0339371,38.7207743 L16.9084573,38.7801951 L16.8751162,38.8065293 L16.8498851,38.8407413 L16.840874,38.8859822 L16.8539401,38.9287472 L16.8771437,38.9674608 L16.9350401,39.0340841 L16.9839254,39.10791 L17.0244754,39.1889384 L17.1125591,39.4567823 L17.1526586,39.5378107 L17.2134836,39.6179388 L17.2914297,39.6793853 L17.5982582,39.8261368 L17.6865672,39.8812811 L17.7417602,39.9325991 L17.7559528,39.9785152 L17.7730739,40.1342698 L17.81047,40.1700573 L17.8733225,40.1887389 L17.992044,40.1779351 L18.0560229,40.1565526 L18.1067104,40.1259419 L18.2362452,40.0012482 L18.2722897,39.9764895 L18.3123891,39.9566825 L18.3578953,39.9429527 L18.4712101,39.9445283 L18.6232726,39.9845923 L18.7962861,40.0752991 L18.9474475,40.2011182 L19.0718009,40.3327894 L19.097032,40.3703776 L19.1851157,40.5247817 L19.2135007,40.5594439 L19.3081174,40.6551024 L19.3322222,40.6926906 L19.3497938,40.73388 L19.3639863,40.7797961 L19.3720963,40.8272877 L19.3880911,40.8732038 L19.4052122,40.9148434 L19.4293169,40.9533319 L19.4840595,41.0206305 L19.5074884,41.0593441 L19.5255106,41.1032345 L19.5707914,41.2389571 L19.591517,41.2796963 L19.6636059,41.3938114 L19.7030296,41.475515 L19.7160957,41.5214311 L19.724431,41.5682475 L19.720376,41.6168645 L19.7003262,41.6573788 L19.6694632,41.6913657 L19.6021051,41.7492109 L19.5737201,41.7831979 L19.5507417,41.8246124 L19.5473625,41.869178 L19.5563737,41.9114928 L19.5782256,41.9486309 L19.7561951,42.148726 L19.7751185,42.1901405 L19.7845802,42.2369569 L19.7854813,42.3409434 L19.8179213,42.3868595 L19.8737902,42.4280489 L19.9780939,42.4838685 L20.0247264,42.5297846 L20.0447761,42.5817778 L20.0353144,42.6301698 L19.9738136,42.7728698 L19.9479066,42.8568242 L19.9458791,42.8822582 L19.9526375,42.9207466 L20.0132372,43.0425143 L20.0226989,43.0834787 L20.0278803,43.1890407 L20.0567158,43.2365324 L20.1132606,43.2743456 L20.2227457,43.31531 L20.279741,43.3542486 L20.320291,43.3940876 L20.423243,43.5421895 L20.4559083,43.5716748 L20.5036672,43.6009351 L20.7960779,43.6945679 L20.8355015,43.7197768 L20.8668151,43.7512878 L21.0188777,43.971415 L21.0603288,43.9959486 L21.1175494,44 L21.2236553,43.9448557 L21.2524909,43.8960135 L21.2576723,43.8442454 L21.1457092,43.6488769 L21.1308408,43.6054367 L21.130165,43.552093 L21.1409783,43.5048264 L21.1617039,43.4607109 L21.1871603,43.4195215 L21.2150948,43.3835089 L21.5915341,43.0006497 L21.6289302,42.9756659 L21.8163614,42.9277241 L21.8555598,42.910393 L21.9704515,42.833191 L22.0251941,42.8212618 L22.0959313,42.8196862 L22.3187311,42.8797823 L23.1220721,42.9806176 L23.1651002,43.0033506 L23.2009194,43.0321607 L23.2583652,43.0902311 L23.2989152,43.095633 L23.4811651,43.0706492 L23.576007,43.0726749 L23.7028385,43.1068869 L23.7573558,43.1447002 L23.8015102,43.1829636 L23.832148,43.2169505 L23.8708958,43.2448603 L23.9267647,43.2567895 L23.9995295,43.2513876 L24.1038331,43.2142495 L24.1592515,43.1766614 L24.1970982,43.132771 L24.3113141,42.8282392 L24.3599741,42.6123885 L24.3811502,42.5662474 L24.4072825,42.5297846 L24.4419753,42.5016497 L24.5183445,42.4559587 L24.6221976,42.4120683 L24.7877768,42.3702036 L24.8371127,42.3474707 L24.8670746,42.3236123 L24.9251963,42.2608153 L24.9691255,42.2407833 L25.0267967,42.2407833 L25.1214134,42.2848987 L25.2187334,42.362551 L25.2703221,42.3823579 L25.3435374,42.3891103 L25.4910944,42.3837084 L25.6122939,42.3954125 L25.8001757,42.4415537 L25.9610241,42.5079519 L26.0220744,42.5156046 L26.6481216,42.4008144 L26.7526506,42.4143191 L26.877004,42.3938369 L26.9457137,42.3720043 L26.9925715,42.3436443 L27.0272643,42.3159596 L27.0745727,42.2984035 L27.134046,42.2887251 L27.4102367,42.2984035 L27.5285076,42.3443196 L27.5904591,42.3792068 L27.6357399,42.4170201 L27.6871033,42.491071 L27.7069277,42.5297846 L27.7303566,42.568048 L27.7645989,42.5984337 L27.8125831,42.6130638 L27.8740839,42.6094625 L28.0054209,42.5459903 L28.0628668,42.5284341 L28.197583,42.5165049 L28.3097714,42.491071 L28.3496455,42.4701387 L28.6431826,42.2677927 L28.7393763,42.2540629 L29.4546336,42.2594648 L29.5348325,42.277021 L29.7389343,42.3756055 L29.8191332,42.4343511 L29.8592327,42.4444797 L29.9191566,42.4505568 L30.0324714,42.4379524 L30.0966756,42.4208464 L30.1365498,42.3913611 L30.1374509,42.3524224 L30.1165,42.3152844 L30.0806809,42.2894003 L29.9292941,42.2369569 L29.8898705,42.2139989 L29.8612602,42.1876647 L29.841661,42.1606552 L29.8285949,42.1352213 L29.8164299,42.0967328 L29.7943527,42.0035501 L29.788946,41.9531324 L29.7869185,41.9009141 L29.7943527,41.8444193 L29.8069682,41.7928763 L29.8536007,41.6888898 L29.8655405,41.6474753 L29.8738757,41.5518167 L29.8923485,41.5092768 L29.9245633,41.4806918 L30.0993789,41.4129431 L30.1313684,41.3845831 L30.1572753,41.3460946 L30.1685392,41.2936512 L30.1716931,41.2398574 L30.1622314,41.1862886 L30.1466873,41.1450992 L30.1248353,41.1066107 L30.0987031,41.0726238 L30.0766259,41.0341353 L30.0646861,40.9918204 L30.0725708,40.9459043 L30.0914942,40.9024641 L30.1538962,40.8349404 L30.2327434,40.7869986 L30.2768979,40.7716933 L30.4663566,40.7467095 L30.5170441,40.7255521 L30.5530886,40.691115 L30.6238258,40.5616946 L30.6544636,40.5310839 L30.7107831,40.5288331 L30.7941359,40.551341 L31.0313535,40.6843626 L31.09736,40.7379314 L31.1588608,40.8952616 L31.4240129,41.3206607 L31.4767279,41.4374767 L31.5057888,41.4730391 L31.5713447,41.5050003 L31.6206805,41.5380869 L31.6594283,41.5806268 L31.6808297,41.6463499 L31.6860111,41.7057707 L31.6848847,41.7690179 L31.6900661,41.8757053 L31.7031322,41.923422 L31.7184511,41.9664121 L31.7382756,42.0062511 L31.7754464,42.0433891 L31.8247823,42.0805271 L31.9257068,42.1340959 L31.9971199,42.1917161 L32.0838519,42.2968279 L32.1967161,42.491071 L32.3852737,42.730555 L32.4922807,42.8095577 L32.7804111,42.8901359 C32.7804111,41.3508213 32.7837903,39.8112816 32.7837903,38.2719669 L55.2345342,38.2719669 C57.187243,38.2719669 59.1404023,38.2708415 61.0933363,38.2708415 L73.0751915,38.2708415 C75.0486258,38.2708415 77.0220601,38.2616133 78.9954944,38.2719669 L79,38.1576268 C78.9968461,37.2847709 78.9930164,36.4119149 78.9880603,35.5390589 C78.9765711,33.5252779 78.9668842,31.5112718 78.95945,29.4974909" id="Fill-1"></path>
                </g>
            </g>
        </g>
    </g>
</svg>