<?xml version="1.0" encoding="UTF-8" standalone="no"?>
<svg width="92px" height="42px" viewBox="0 0 92 42" version="1.1" xmlns="http://www.w3.org/2000/svg" xmlns:xlink="http://www.w3.org/1999/xlink">
    <!-- Generator: Sketch 46.2 (44496) - http://www.bohemiancoding.com/sketch -->
    <title>Fill 1</title>
    <desc>Created with Sketch.</desc>
    <defs></defs>
    <g id="Page-1" stroke="none" stroke-width="1" fill="none" fill-rule="evenodd">
        <g id="The-50-States" transform="translate(-306.000000, -1142.000000)" fill="#4A4A4A">
            <g id="Nebraska" transform="translate(282.000000, 1088.000000)">
                <g id="Page-1" transform="translate(24.000000, 54.000000)">
                    <path d="M91.5282602,41.6359549 L91.036115,41.5420682 L90.9179787,41.3845203 L90.8922035,41.145925 L90.9394581,40.8428661 L91.0457807,40.5839421 L91.085786,40.438431 L91.0511506,40.3739675 L90.7297661,40.0468351 L90.6677445,39.8456875 L90.5214166,39.6121743 L90.2250018,39.2502691 L90.4000584,38.9081576 L90.411872,38.7388405 L90.2969576,38.5866424 L90.1165312,38.5170967 L89.7328567,38.4882084 L89.576863,38.4071609 L89.4493295,38.2271445 L89.3612642,38.0409759 L89.2525251,37.8719263 L89.065655,37.7419293 L88.8720725,37.73016 L88.6575477,37.762793 L88.485713,37.7368471 L88.4167107,37.5552258 L88.5541784,37.4554544 L88.6508354,37.3621027 L88.7069501,37.2639362 L88.679027,37.2104395 L88.5541784,36.7947701 L88.3823438,36.5361135 L88.3391166,36.4277826 L88.326229,36.3285462 L88.3428755,36.1271311 L88.3391166,36.0439437 L88.2609855,35.8211299 L88.0741154,35.5886867 L87.9771899,35.3853992 L87.9675242,35.1946834 L88.0088719,35.0331234 L87.9957158,34.8836001 L87.8343523,34.7260523 L87.5808962,34.632968 L87.3722782,34.5923105 L87.235079,34.4639184 L87.1854081,34.1095027 C87.2157476,33.9137047 87.2468926,33.7173718 87.2791116,33.5218413 L87.2885089,33.2187824 L87.1854081,32.9181309 L86.9824284,32.7760972 L86.4279932,32.5383043 L86.3122733,32.3104083 L86.2840817,32.1777365 L86.2217916,32.0857221 L86.1691672,31.9765888 L86.1629919,31.785873 L86.1938685,31.640362 L86.241123,31.5630592 L86.3901359,31.4079188 L86.6084195,31.0730294 L86.5837183,30.9561391 L86.4806175,30.7691681 L86.4559163,30.6043982 L86.498875,30.2786032 L86.5807649,30.021819 L86.6398331,29.7588827 L86.6084195,29.4140964 L86.4776641,29.0725199 L86.4559163,28.8874213 L86.498875,28.5961317 L86.4969955,28.4634598 L86.4247713,28.3190187 L86.2381696,28.1553188 L86.1498358,28.0504652 L86.0972115,27.8878352 L86.1186908,27.7720149 L86.1820548,27.6973869 L86.2185697,27.6230265 L86.1629919,27.517638 L86.1186908,27.4467549 L86.1004334,27.3908508 L86.078954,27.3501933 L86.031431,27.3183627 L86.031431,27.232768 L86.0939896,27.1407537 L86.241123,26.7488903 L86.1753425,26.5498825 L86.1498358,26.1045224 L86.0972115,25.8945478 L86.3431498,25.7725753 L86.209978,25.6613021 L85.7363587,25.5048243 L85.5921787,25.3306925 L85.582513,25.1017265 L85.664403,24.5108554 L85.7793174,24.4434495 L86.0072668,24.1917475 L86.1629919,23.9189143 L86.0628446,23.792662 L85.8789278,23.7645763 L85.4023551,23.6019463 L85.230252,23.5059197 L85.4807547,22.6151994 L85.4823656,22.4568492 L85.5857349,21.883097 L85.5170011,21.7394583 L85.4493412,21.7030805 L85.3612759,21.7097676 L84.9281989,21.6113337 L84.782408,21.5235991 L84.7187754,21.354282 L84.7413287,21.2216101 L84.7877778,21.0415937 L84.8497994,20.8845808 L84.9034977,20.8161051 L84.9188017,20.7719703 L84.8347638,20.6778161 L84.700518,20.581522 L84.5756694,20.5376547 L84.4857247,20.5708226 L84.2760327,20.7059018 L84.1428609,20.7206134 L83.9218923,20.5515638 L83.9052458,20.2581344 L83.9680728,19.9820913 L83.9680728,19.8601188 L83.8214764,19.7552653 L83.7430769,19.5014234 L83.7122003,19.1882002 L83.7186441,18.5906419 L83.7465672,18.483381 L83.8150326,18.3702354 L83.9237717,18.2247244 L83.9525003,18.1605283 L83.9398812,18.0813532 L83.9269936,17.8906374 L83.9772016,17.6242238 L84.0711736,17.3703819 L84.1082255,17.0962113 L84.0053932,16.7744286 L83.3824926,16.1108019 L83.3349696,16.0326967 L83.1660883,15.6600921 L83.1266201,15.5338399 L83.1384337,15.3680001 L83.2415345,15.0927595 L83.2791233,14.9558079 L83.1574966,14.3948949 L82.774359,14.0803342 L82.3337643,13.8149905 L82.038155,13.4070781 L81.9976128,13.0933199 L82.0005662,12.8022978 L81.9820402,12.5358842 L81.8665888,12.2927416 L81.6791817,12.1215522 L81.3234303,11.8818869 L81.1744174,11.661213 L81.0777604,11.3164267 L81.1153493,11.0553627 L81.2023405,10.8199772 L81.252817,10.546074 L81.2337541,10.2184067 L81.171464,9.97874143 L81.059503,9.79257287 L80.9091477,9.66605315 L80.8973341,9.43735472 L80.5415826,9.00376388 L80.5939385,8.4032633 L80.7381185,7.7770843 L80.5909851,7.18942294 L80.4105587,7.04926155 L80.1581766,6.96018953 L79.6907327,6.88208433 L78.3305541,6.65552576 L78.1503962,6.53756552 L78.0349448,6.34390743 L77.9944025,6.0678644 L77.900699,5.83970093 L77.4644001,5.5034741 L77.3398199,5.33576191 L77.3333761,5.15039581 L77.3860005,5.03136563 L77.4515125,4.9310593 L77.4826575,4.80052732 L77.4300331,4.69112655 L77.3024996,4.61649864 L77.1550977,4.5715614 L77.0463586,4.55631484 L76.6073748,4.58520306 L76.4728605,4.55631484 L76.3453269,4.48355931 L76.2892122,4.40652405 L76.2548453,4.30595024 L76.1858429,4.16685879 L76.0677066,3.99219203 L75.9237951,3.83517918 L75.7371934,3.72256861 L74.7864645,3.65061553 L74.5928821,3.58213974 L74.4833375,3.48370579 L74.4092338,3.38634178 L74.3088179,3.31037645 L74.0220688,3.25286749 L73.7884811,3.1242079 L73.6851118,3.09424974 L73.13363,3.07499092 L72.8847383,3.01507461 L72.6374575,2.89069476 L72.413267,2.72592489 L72.0306664,2.36214726 L71.7122353,1.94594285 L71.5310035,1.77448589 L71.3129883,1.6621428 L71.0471816,1.6214853 L68.9435496,2.01201129 L68.6565321,2.00452175 L67.8929419,1.81728326 L67.6588172,1.87211739 L67.2442661,2.09359377 L66.9948374,2.10964278 L66.8734792,2.06256568 L66.6573434,1.93310364 L66.5241715,1.9060878 L66.0902891,2.01201129 L65.3701945,1.84403161 L65.1081467,1.9060878 L64.9835666,1.96600411 L64.8654302,2.04303938 L64.7749486,2.16313949 L64.7408501,2.35358778 L64.6063358,2.73261198 L64.5655251,2.8021577 L64.4967912,2.8428152 L64.278776,3.03219356 L64.1635931,3.09424974 L63.8803344,3.11966068 L63.5935854,3.09424974 L62.8388554,2.83104592 L62.7134698,2.74839351 L62.6705112,2.58068132 L62.5606981,2.46272107 L61.101983,1.8311924 L60.6659526,1.43852655 L60.2261633,1.13653762 L60.1670952,1.12289596 L60.0422466,1.11647635 L59.979151,1.10122979 L58.8692066,0.369394787 L58.7886591,0.294499392 L58.5768192,0.0307606086 L58.5427208,0.00320980264 C57.8073222,0.00320980264 57.0721921,0.00294231908 56.3370621,0.00240735198 C54.0054807,0.000802450659 51.6741679,0.00213986842 49.3425866,0.00213986842 L42.3575083,0.00213986842 C40.0280749,0.00213986842 37.6986415,0.000802450659 35.3689396,0.000802450659 L21.335419,0.000802450659 C18.9810159,0.000802450659 16.6268813,0 14.2724781,0 L0,0 C0.0042958661,2.37391653 0.00966569873,4.74783306 0.0182574309,7.12201708 C0.0265806715,9.48229195 0.0289970962,11.8428343 0.0375888284,14.2031092 C0.0461805606,16.5459976 0.0472545271,18.8886186 0.0558462594,21.2312395 C0.0639010083,23.5615562 0.0698078242,25.891873 0.0741036903,28.2219222 L7.29062176,28.2219222 C9.54756242,28.2219222 11.8045031,28.2235271 14.0614437,28.2235271 L21.1598255,28.2235271 C21.1598255,30.5233507 21.1630474,32.8229068 21.1630474,35.1224629 C21.1630474,37.4150644 21.1662693,39.707666 21.1662693,42 L92,42 L91.7129824,41.7378661 L91.5282602,41.6359549 Z" id="Fill-1"></path>
                </g>
            </g>
        </g>
    </g>
</svg>