<?xml version="1.0" encoding="UTF-8" standalone="no"?>
<svg width="28px" height="42px" viewBox="0 0 28 42" version="1.1" xmlns="http://www.w3.org/2000/svg" xmlns:xlink="http://www.w3.org/1999/xlink">
    <!-- Generator: Sketch 46.2 (44496) - http://www.bohemiancoding.com/sketch -->
    <title>Fill 1</title>
    <desc>Created with Sketch.</desc>
    <defs></defs>
    <g id="Page-1" stroke="none" stroke-width="1" fill="none" fill-rule="evenodd">
        <g id="The-50-States" transform="translate(-498.000000, -1142.000000)" fill="#4A4A4A">
            <g id="Nevada" transform="translate(442.000000, 1088.000000)">
                <path d="M83.9974013,77.8960596 C83.9974013,76.7633314 83.9958475,75.6304736 83.9953296,74.4977454 C83.9946821,73.4019202 83.9944232,72.3062245 83.9944232,71.2103992 C83.9944232,70.0082675 83.9936463,68.8061357 83.9936463,67.6040039 C83.9936463,66.5101209 83.9927399,65.4163675 83.9922219,64.3224845 C83.9915745,63.1569968 83.991445,61.9916385 83.9905386,60.8261508 C83.9896323,59.6974365 83.9897617,58.5685928 83.9897617,57.4398786 C83.9897617,56.2932956 83.9885964,55.1467125 83.9885964,54 C83.7885432,54.0001295 83.5886195,54.000259 83.3885664,54.0003885 C82.2573919,54.0011654 81.126347,54.0007769 79.9953021,54.0012948 C78.865034,54.0018128 77.7348955,54.0010359 76.6046275,54.0016833 C75.473971,54.0022012 74.3433145,54.0024602 73.212658,54.0024602 C72.0795413,54.0024602 70.9465541,54.0033666 69.8134375,54.0033666 L56.0000575,54.0033666 C56.0000575,54.4197879 55.9999281,54.8360798 56.0000575,55.2525012 C56.000187,56.3936459 56.000446,57.5347906 56.000705,58.6759353 C56.0009639,59.8216119 56.0009639,60.9671591 56.0012229,62.1127063 C56.0013524,63.2513908 56.0017408,64.3899458 56.0018703,65.5286303 C56.0021293,66.6789684 56.0017408,67.829177 56.0022588,68.9795151 C56.0027767,70.1433195 55.9972089,71.3072535 56.0032947,72.4711874 C56.3701235,72.798912 56.7366935,73.1268956 57.1036518,73.4544908 C57.9274306,74.1895729 58.7521158,74.9237486 59.5780959,75.6563705 C60.4834497,76.4595613 61.389969,77.2615868 62.2966177,78.0632238 C63.1315322,78.801284 63.9685184,79.536884 64.8051161,80.2728725 C65.4096781,80.844416 66.0137221,81.4164774 66.6199674,81.9863376 C67.4585074,82.7745082 68.296141,83.5634558 69.1362348,84.3499431 C69.9885002,85.1476956 70.8414129,85.9448006 71.6953616,86.7409993 C72.419567,87.4466885 73.1446788,88.1513418 73.870956,88.8548297 C74.6577023,89.6168445 75.4440601,90.3791183 76.2328782,91.1391909 C77.039824,91.9167438 77.8393893,92.7031017 78.6570823,93.46926 C79.5164693,94.274393 80.3759858,95.0792671 81.2367971,95.8829759 L81.2322651,95.816162 L81.1872046,95.6304816 L81.2971367,95.4864951 L81.315394,95.4319822 L81.2971367,95.3528674 L81.208699,95.2503158 L81.1872046,95.1977452 L81.2031312,95.1201842 L81.2503929,95.0977834 L81.3138402,95.0977834 L81.3793592,95.0836696 L81.4350375,95.0562189 L81.454978,95.0382206 L81.4990027,94.8107168 L81.5018513,94.6884837 L81.4788031,94.4589081 L81.4175571,94.1854374 L81.4061625,94.0382138 L81.4130251,93.884516 L81.3670582,93.7488165 L81.2177629,93.4489309 L81.1315264,93.173259 L81.0524115,92.9429065 L81.151467,92.6639974 L81.1224625,92.4143518 L81.1580707,92.2897879 L81.1269944,92.1965593 L80.9626789,91.7778072 L80.9398897,91.6612714 L80.9259054,91.5035595 L80.9306963,91.1842514 L80.9560752,91.0982738 L81.0380387,90.9513092 L81.0561665,90.887603 L81.0455488,90.8211775 L81.0162854,90.7695133 L80.8313819,90.5288021 L80.7628847,90.3947859 L80.7143281,90.2412176 L80.7059116,90.0802687 L80.7860624,89.9986936 L80.8062619,89.9352463 L80.8085927,89.8698568 L80.793702,89.7363585 L80.793702,89.6713574 L80.8003057,89.6225418 L80.8149374,89.5962565 L80.8478264,89.5488653 L80.8662131,89.5299606 L80.8868011,89.5106674 L81.0437361,89.4372499 L81.1967864,89.341302 L81.4694803,89.2703447 L81.5427684,89.2401748 L81.5820021,89.2300751 L81.6257678,89.2344775 L81.8773557,89.3090605 L81.895095,89.3160526 L81.9200855,89.3314612 L81.9600961,89.3635733 L82.0086527,89.395038 L82.0713231,89.4161439 L82.1077081,89.419899 L82.1424099,89.419899 L82.174522,89.4147196 L82.2021022,89.4047493 L82.322652,89.3314612 L82.347513,89.3205846 L82.37587,89.3120386 L82.4066873,89.3060823 L82.4395763,89.3051759 L82.4709115,89.3080246 L82.5139002,89.3244691 L82.5561121,89.3493301 L82.6069994,89.4021596 L82.6519305,89.460557 L82.6868912,89.5158468 L82.7917734,89.7516376 L82.836834,89.822336 L82.8952314,89.8944588 L82.9832807,89.970466 L83.0904936,90.0181162 L83.2124678,90.0251084 L83.4428203,89.9875579 L83.6063589,89.8944588 C83.6683818,89.678479 83.7309227,89.4628877 83.7928162,89.246908 L83.8806065,89.1273941 L83.975389,88.9985572 L83.9867836,88.9421021 L83.9910566,88.8866828 C83.9913156,88.6514099 83.9920925,88.4160076 83.9924809,88.1806052 C83.9946821,87.0411438 83.9955885,85.9015529 83.9988256,84.761962 C84.0018038,83.6647125 83.9981782,82.5674629 83.9981782,81.4702134 C83.9981782,80.2786993 83.9974013,79.0873147 83.9974013,77.8960596" id="Fill-1"></path>
            </g>
        </g>
    </g>
</svg>