<?xml version="1.0" encoding="UTF-8" standalone="no"?>
<svg width="33px" height="64px" viewBox="0 0 33 64" version="1.1" xmlns="http://www.w3.org/2000/svg" xmlns:xlink="http://www.w3.org/1999/xlink">
    <!-- Generator: Sketch 46.2 (44496) - http://www.bohemiancoding.com/sketch -->
    <title>Page 1</title>
    <desc>Created with Sketch.</desc>
    <defs></defs>
    <g id="Page-1" stroke="none" stroke-width="1" fill="none" fill-rule="evenodd">
        <g id="The-50-States" transform="translate(-815.000000, -1120.000000)" fill="#4A4A4A">
            <g id="New-Jersey" transform="translate(762.000000, 1088.000000)">
                <path d="M70.1692112,32 L70.1814249,32.0468193 L69.7872774,32.3073791 L69.3374046,32.3335878 L69.1363868,32.4109415 L68.8659033,32.6526718 L68.6524173,32.6791349 L68.5465649,32.7524173 L68.4877863,32.862341 L68.3816794,33.1223919 L68.3412214,33.1956743 L67.2615776,34.2081425 L67.1132316,34.5620865 L67.0949109,34.7491094 L66.9020356,35.4829517 L66.4279898,36.6483461 L65.3908397,38.0552163 L65.1307888,38.2707379 L64.9882952,38.3256997 L64.7832061,38.4536896 L64.5880407,38.6043257 L64.5045802,38.7320611 L64.5165394,39.0554707 L64.5045802,39.1246819 L64.435369,39.1534351 L63.6137405,40.1900763 L63.2417303,40.4949109 L62.8007634,40.6170483 L62.5058524,40.743257 L62.0259542,41.0625954 L61.578626,41.4773537 L61.3671756,41.8941476 L61.4137405,42.0791349 L61.5320611,42.2882952 L61.7615776,42.6137405 L61.7798982,42.7195929 L61.7615776,42.8374046 L61.7554707,42.9351145 L61.83257,42.975827 L61.9506361,42.9798982 L62.0687023,43.0122137 L62.1498728,43.0977099 L62.1867684,43.2521628 L62.3328244,43.475827 L62.646056,43.8335878 L62.9287532,44.2852417 L63.0061069,44.7890585 L62.8066158,45.2427481 L62.5279898,45.4361323 L62.2862595,45.6923664 L62.1867684,46.3264631 L62.0501272,46.8086514 L61.7211196,47.0709924 L61.3122137,47.1155216 L60.9463104,46.9445293 L60.7631043,47.3880407 L60.6292621,47.5933842 L60.4806616,47.6806616 L60.3870229,47.7821883 L60.4096692,48 L60.4867684,48.1872774 L60.5458015,48.2012723 L60.2753181,48.9536896 L60.1979644,49.3073791 L60.2633588,49.6366412 L60.3407125,49.9010178 L60.2814249,50.0961832 L60.2633588,50.3524173 L60.3407125,51.1816794 L60.2450382,51.4419847 L60.2814249,51.7188295 L60.3625954,51.9933842 L60.5173028,52.721374 L60.7694656,52.8290076 L61.3671756,52.7129771 L62.3816794,53.0363868 L62.7231552,53.7318066 L62.8717557,55.7689567 L63.0709924,56.2569975 L63.4374046,56.7857506 L63.8801527,57.0946565 L64.6651399,56.8 L64.9234097,57.2452926 L65.2020356,58.253944 L66.2447837,59.180916 L66.4279898,59.4290076 L66.4928753,59.5834606 L67.1661578,60.5430025 L67.7926209,61.3139949 L68.8597964,62.2389313 L69.3679389,62.7959288 L69.5793893,63.3613232 L69.3315522,63.8697201 L68.753944,64.2295165 L68.0931298,64.4452926 L67.5847328,64.5157761 L67.3956743,64.6178117 L66.7005089,65.2440204 L66.4992366,65.3419847 L65.7447837,65.580916 L65.437659,65.7806616 L64.6531807,66.6636132 L64.3804071,66.8463104 L63.6849873,67.1796438 L63.3720102,67.5381679 L62.5811705,68.8109415 L62.4572519,68.6150127 L62.1867684,68.9689567 L61.8389313,68.8351145 L61.7554707,69.1437659 L61.8854962,69.6292621 L62.1867684,70.0346056 L61.8613232,70.2750636 L61.5725191,70.6198473 L61.2778626,70.8513995 L60.9463104,70.7582697 L60.8343511,70.892112 L60.8119593,70.892112 L60.7816794,70.9091603 L60.3035623,71.0445293 L59.5778626,71.3806616 L59.2424936,71.4498728 L58.7992366,71.478117 L57.943257,71.6735369 L56.8167939,72.1778626 L56.0440204,72.7180662 L55.3590331,73.3895674 L54.9277354,74.1379135 L54.8992366,74.8819338 L54.8587786,75.0043257 L54.6330789,75.0890585 L54.5048346,75.278117 L54.4152672,75.4653944 L54.1447837,75.6870229 L54.0679389,76.0040712 L54.0208651,76.3577608 L53.9618321,76.6099237 L53.837659,76.7361323 L53.459542,76.9638677 L53.0165394,77.4234097 L53,77.6226463 L53.2180662,77.9399491 L53.8908397,78.6475827 L53.9559796,79.0132316 L53.7363868,80.1882952 L53.6898219,80.6811705 L53.5307888,80.5913486 L53.419084,80.4689567 L53.3419847,80.3229008 L53.5374046,81.1201018 L54.0025445,81.6526718 L54.6104326,82.075827 L56.6519084,84.3450382 L56.7231552,84.4750636 L56.8229008,84.6066158 L56.9750636,84.7272265 L57.0770992,84.7111959 L57.2010178,84.6211196 L57.3534351,84.5437659 L57.5305344,84.5684478 L57.7437659,84.8368957 L57.8961832,85.2455471 L58.0916031,85.6175573 L58.4150127,85.7821883 L59.1709924,85.7821883 L59.3178117,85.894402 L59.4783715,86.3880407 L59.6430025,86.5002545 L59.9256997,86.6201018 L60.6452926,87.1956743 L60.8244275,87.3949109 L60.8468193,87.5447837 L60.7816794,87.8625954 L60.8244275,88.0796438 L60.9770992,88.3096692 L61.2592875,88.4923664 L61.2310433,88.6071247 L61.5847328,88.5900763 L61.8145038,88.4605598 L62.0259542,88.2715013 L62.310687,88.0796438 L62.9348601,87.9272265 L63.3536896,87.8994911 L63.6259542,87.9987277 L63.7033079,88.2119593 L63.6913486,88.4071247 L63.713486,88.5498728 L63.8964377,88.6071247 L64.0857506,88.5819338 L64.4292621,88.4722646 L64.5816794,88.4478372 L65.3849873,88.4676845 L65.7142494,88.5697201 L66.0335878,88.7977099 L66.4117048,89.6391858 L66.2692112,90.6440204 L65.273028,92.7704835 L65.1491094,93.2671756 L65.0839695,93.7916031 L65.0659033,94.3277354 L64.9763359,94.6407125 L64.8356234,94.8564885 L64.805598,95.0478372 L65.0659033,95.2882952 L65.273028,95.340458 L65.4966921,95.2898219 L66.6534351,94.8246819 L67.43257,94.3402036 L68.0931298,93.7223919 L68.4877863,93.0147583 L68.4531807,92.8396947 L68.3697201,92.605598 L68.394402,92.4043257 L68.8720102,92.270229 L69.0773537,92.1547074 L69.2437659,92.0063613 L69.4150127,91.6033079 L69.8804071,91.0669211 L69.986514,90.9 L69.9516539,90.6157761 L69.8277354,90.456743 L69.6506361,90.4323155 L69.4435115,90.5501272 L69.4150127,90.4625954 L69.4211196,90.4119593 L69.402799,90.383715 L69.3089059,90.3732824 L69.4900763,90.1356234 L69.6974555,90.0234097 L69.9150127,90.0455471 L70.1223919,90.2147583 L71.0661578,88.2407125 L71.2910941,87.919084 L71.7384224,87.6791349 L72.570229,86.53257 L73.1379135,86.1503817 L73.1379135,85.9735369 L72.0458015,86.3412214 L71.7918575,86.2524173 L71.5620865,86.1050891 L71.3020356,85.9877863 L70.9419847,85.9735369 L71.3139949,85.5320611 L71.8628499,85.3860051 L73.1379135,85.4302799 L73.1379135,85.2882952 L73.0486005,84.9506361 L73.3086514,84.4870229 L73.9575064,83.6735369 L74.5188295,84.0396947 L73.9753181,84.5862595 L73.7272265,84.9201018 L73.5503817,85.2882952 L73.5503817,85.4302799 L74.0933842,85.2356234 L75.2631043,84.4910941 L75.8806616,84.2330789 L75.716285,83.7669211 L75.4618321,83.2569975 L75.1442748,82.9618321 L74.7788804,83.1452926 L74.8007634,82.8157761 L74.9066158,82.4498728 L75.0547074,82.1223919 L75.1854962,81.9127226 L75.4923664,81.6811705 L75.7099237,81.7073791 L75.9236641,81.8356234 L76.2244275,81.9127226 L76.4765903,81.2989822 L76.5480916,80.8737913 L76.3643766,80.6811705 L76.1226463,80.489313 L76.0231552,80.0335878 L76.0050891,79.0788804 L76.1877863,79.2592875 L76.4175573,79.4038168 L76.6778626,79.4302799 L76.9722646,79.2552163 L77.7229008,79.7860051 L77.7880407,79.9142494 L77.8223919,80.1763359 L77.9282443,80.3798982 L78.2005089,80.3287532 L78.3407125,79.9526718 L78.0826972,79.4773537 L77.8468193,78.9379135 L78.0768448,78.5659033 L78.2753181,78.16743 L78.4951654,77.9885496 L78.743257,77.8748092 L79.0201018,77.6671756 L79.1969466,77.4175573 L79.3615776,77.1262087 L79.5450382,76.8862595 L80.0712468,76.6323155 L80.3193384,76.2725191 L80.6725191,75.5508906 L80.7969466,75.4022901 L81.0493639,75.0284987 L81.1631043,74.6498728 L80.8783715,74.4753181 L80.5613232,74.1335878 L80.6610687,73.3651399 L80.9618321,72.5287532 L81.2264631,71.9984733 L81.5984733,71.5391858 L81.6287532,71.3519084 L81.6226463,70.8475827 L81.6938931,70.4409669 L81.8648855,70.1338422 L82.3305344,69.6974555 L82.1351145,69.5465649 L81.4860051,69.3246819 L81.8992366,68.9117048 L82.1002545,68.3590331 L82.0292621,67.980916 L81.6226463,68.0826972 L81.705598,67.6760814 L81.9580153,67.5315522 L82.2832061,67.4867684 L82.5903308,67.3750636 L82.8323155,67.0982188 L82.9849873,66.7468193 L82.9442748,66.4819338 L82.5903308,66.4707379 L82.5903308,66.3094148 L82.9323155,65.9882952 L83.1391858,66.1748092 L83.2447837,66.6712468 L83.2740458,67.2773537 L83.2267176,67.8473282 L83.102799,68.2656489 L82.7142494,69.1643766 L82.4017812,73.4139949 L82.6900763,72.8447837 L83.0152672,70.173028 L83.2740458,69.3246819 L83.1519084,69.1643766 L83.3040712,68.7412214 L83.416285,67.5699746 L83.8284987,66.5903308 L83.8284987,65.9699746 L83.6394402,65.4513995 L83.2740458,65.2440204 L83.6643766,64.548855 L84.3549618,62.3814249 L84.3005089,61.7002545 L84.5610687,61.0923664 L84.8860051,60.526972 L85.0503817,59.9615776 L84.8208651,56.4236641 L84.6503817,55.7447837 L84.3549618,55.3949109 L84.1117048,55.5699746 L84.1763359,56.1025445 L84.407888,56.6882952 L84.637659,57.0193384 L84.2839695,57.1150127 L83.4987277,56.6147583 L81.7465649,55.9966921 L81.2264631,55.9318066 L80.2053435,56.1109415 L80.0290076,56.0580153 L79.7114504,55.8221374 L79.0201018,55.6083969 L78.8208651,55.2203562 L78.8737913,54.7445293 L79.1687023,54.3234097 L79.0201018,54.1608142 L79.0384224,53.3374046 L79.0201018,53.2335878 L79.1783715,53.021883 L79.5407125,52.7234097 L79.7173028,52.5178117 L79.9290076,52.0379135 L80.1709924,51.0071247 L80.3949109,50.5475827 L80.5653944,50.380916 L80.9310433,50.1470738 L81.0801527,50.0109415 L81.197201,49.789313 L81.346056,49.3152672 L81.4860051,49.116285 L81.8933842,48.8562341 L81.9580153,49.1083969 L81.6226463,50.1895674 L81.9358779,50.2061069 L82.1720102,50.1287532 L82.3608142,49.9679389 L82.7267176,49.4984733 L83.1801527,49.1447837 L83.6175573,48.7073791 L83.7414758,48.5409669 L83.8061069,48.319084 L83.8165394,47.9491094 L83.8656489,47.6564885 L84.053944,47.1928753 L84.2195929,46.505598 L85.0503817,45.1475827 L85.7824427,43.2318066 L85.9877863,42.1666667 L86.0002545,41.670229 L84.024173,40.4628499 L82.0412214,39.256743 L80.0648855,38.051145 L78.0888041,36.8435115 L76.1058524,35.6335878 L74.1277354,34.4239186 L72.1519084,33.2119593 L70.1692112,32 Z M81.9580153,74.1175573 L81.7811705,74.4022901 L81.4860051,75.0043257 L81.3687023,75.6061069 L79.3679389,78.807888 L79.1687023,79.4323155 L79.0608142,79.6597964 L79.03257,79.7839695 L79.0201018,79.9776081 L79.4916031,79.3468193 L80.4068702,77.3826972 L81.2442748,76.5615776 L81.675827,75.6442748 L82.0292621,74.6295165 L82.1839695,73.9427481 L81.9580153,74.1175573 Z M76.8015267,81.4529262 L76.9722646,81.9127226 L76.7122137,82.1849873 L76.4175573,82.9618321 L76.1536896,83.1452926 L75.8748092,83.0066158 L75.716285,82.6941476 L75.5323155,82.4763359 L75.1854962,82.6165394 L75.6384224,83.2913486 L76.2832061,83.4089059 L76.9603053,83.0900763 L77.5335878,82.4575064 L77.7938931,81.737659 L77.8811705,81.7073791 L78.0458015,81.5877863 L78.1053435,81.4608142 L77.1152672,81.3193384 L76.8015267,81.4529262 Z" id="Page-1"></path>
            </g>
        </g>
    </g>
</svg>