<?xml version="1.0" encoding="UTF-8" standalone="no"?>
<svg width="39px" height="44px" viewBox="0 0 39 44" version="1.1" xmlns="http://www.w3.org/2000/svg" xmlns:xlink="http://www.w3.org/1999/xlink">
    <!-- Generator: Sketch 46.2 (44496) - http://www.bohemiancoding.com/sketch -->
    <title>Fill 1</title>
    <desc>Created with Sketch.</desc>
    <defs></defs>
    <g id="Page-1" stroke="none" stroke-width="1" fill="none" fill-rule="evenodd">
        <g id="The-50-States" transform="translate(-173.000000, -1306.000000)" fill="#4A4A4A">
            <g id="New-Mexico" transform="translate(122.000000, 1258.000000)">
                <g id="Page-1" transform="translate(51.000000, 48.000000)">
                    <path d="M38.999188,3.60701621 C38.9967521,2.40472254 38.9959401,1.20229367 38.9959401,0 L0.00583260327,0 L0.00583260327,8.28638858 C0.00583260327,9.40363471 0.00407329899,10.5206104 0.00407329899,11.6378565 L0.00407329899,22.3868379 C0.00407329899,23.6520045 0.00204333251,24.9174416 0.00204333251,26.1826082 L0.00204333251,36.9122544 C0.00204333251,38.0369371 0.0033966435,39.161755 0.00163733922,40.2867082 C-0.000257296163,41.5127989 1.33660344e-05,42.7391601 1.33660344e-05,43.9653861 L1.33660344e-05,44 L5.36548543,44 L5.36548543,42.3605701 L5.36345546,42.3068914 L5.36345546,40.6117547 C5.66943908,40.6117547 5.97542269,40.6144589 6.28127097,40.6144589 C7.39382793,40.6144589 8.50624956,40.6233828 9.61867119,40.6233828 C10.7313635,40.6233828 11.8439204,40.6328476 12.9564774,40.6328476 C14.0753949,40.6328476 15.1940418,40.6405546 16.312824,40.6405546 L16.3854968,40.6693545 L16.4708907,40.7527795 L16.0862797,40.3535023 L16.0023744,40.2986067 L15.9131912,40.2829223 L15.8390298,40.2407365 L15.7800254,40.1747537 L15.7340129,40.0872724 L15.7820554,40.0323768 L15.6238534,39.80022 L15.5758108,39.6687952 L15.5568645,39.4936973 L15.522761,39.3336079 L15.3877006,39.0621047 L15.3839113,38.9343306 C15.9524373,38.9343306 16.5210985,38.9321672 17.0896245,38.9321672 C18.2835154,38.9321672 19.4774064,38.9306799 20.671162,38.9306799 C21.865053,38.9306799 23.0588086,38.929463 24.2526995,38.9285166 C25.4463198,38.9275701 26.6399401,38.9289222 27.8334251,38.9278405 C29.027316,38.9267588 30.2213423,38.9282461 31.4150979,38.9271644 C32.6087182,38.9260828 33.8023385,38.9245954 34.9959588,38.9245954 C36.1897144,38.9245954 37.3836054,38.9232433 38.5774963,38.9232433 C38.5822329,38.0674947 38.5846689,37.2118813 38.5892701,36.3561327 C38.5960367,35.1217941 38.6014499,33.8874555 38.6053745,32.6531169 C38.6090285,31.5246483 38.6185016,30.3960445 38.6218849,29.2675759 C38.6255389,28.0363471 38.6309521,26.8051183 38.637854,25.5738896 C38.6448912,24.3598326 38.6484098,23.1456404 38.6553117,21.9314482 C38.6618076,20.8004105 38.6632962,19.6691025 38.6692508,18.5380649 C38.6757467,17.3195459 38.6811599,16.1008918 38.6854905,14.8822376 C38.6898211,13.6487103 38.6960464,12.4153181 38.7018656,11.1816556 C38.7072788,10.02628 38.7117448,8.87076929 38.7166167,7.71525853 C38.7216239,6.52635072 38.7247365,5.33744292 38.7335331,4.14853511 L38.7296085,4.0057526 L39,3.99993854 L38.999188,3.60701621 Z" id="Fill-1"></path>
                </g>
            </g>
        </g>
    </g>
</svg>