<?xml version="1.0" encoding="UTF-8" standalone="no"?>
<svg width="69px" height="41px" viewBox="0 0 69 41" version="1.1" xmlns="http://www.w3.org/2000/svg" xmlns:xlink="http://www.w3.org/1999/xlink">
    <!-- Generator: Sketch 46.2 (44496) - http://www.bohemiancoding.com/sketch -->
    <title>Fill 1</title>
    <desc>Created with Sketch.</desc>
    <defs></defs>
    <g id="Page-1" stroke="none" stroke-width="1" fill="none" fill-rule="evenodd">
        <g id="The-50-States" transform="translate(-638.000000, -1308.000000)" fill="#4A4A4A">
            <g id="North-Dakota" transform="translate(602.000000, 1258.000000)">
                <g id="Page-1" transform="translate(36.000000, 50.000000)">
                    <path d="M68.8206886,39.7137052 L68.9296067,39.4226865 L68.9945541,39.0578183 L68.9971762,38.8908109 L68.9342458,38.4065096 L68.8939057,38.332262 L68.9072179,38.1801838 L68.9265812,38.0812534 L68.9239591,37.9958587 L68.7119722,37.640147 L68.6706237,37.5288751 L68.6405704,37.3881431 L68.6189885,37.1222053 L68.6405704,36.2716424 L68.5830858,35.992766 L68.4469383,35.7666393 L68.1306725,35.4069465 L67.5945535,34.5492176 L67.5344469,34.4054997 L67.5175041,34.273128 L67.5203279,34.1560836 L67.5070157,34.0581484 L67.4501362,33.9560331 L67.2996679,33.7838503 L67.2480327,33.6891 L67.3109631,33.4225651 L67.3024917,33.1424944 L67.2480327,32.6532167 L67.185304,32.3940468 L66.894049,31.9790167 L66.8012669,31.7952887 L66.7825088,31.5110379 L66.894049,31.0504241 L66.9269261,30.7530356 L66.8968728,30.4630121 L66.7663728,29.997621 L66.7391433,29.7900065 L66.7607252,29.6568385 L66.8452375,29.4370816 L66.869845,29.3465114 L66.8831572,29.200803 L66.869845,28.7525307 L66.8998983,28.6153816 L67.0301966,28.432848 L67.0792097,28.2198589 L67.1118851,28.1611376 L67.1278194,28.1022173 L67.093127,28.0186141 L67.0358442,27.9612862 L66.9269261,27.9306317 L66.8339423,27.8621567 L66.725226,27.8317012 L66.6762128,27.7952741 L66.7139308,27.7962694 L66.70909,27.6983342 L66.6762128,27.5229666 L66.5618489,27.3145558 L66.5128357,27.1939283 L66.4932708,27.0189588 L66.5590251,26.1443102 L66.5505537,25.8783724 L66.4226758,25.3317668 L66.4226758,25.1751103 L66.4472832,25.0417433 L66.4773365,24.9278838 L66.4932708,24.8257684 L66.4612005,24.5403232 L66.3222291,23.8918014 L66.2923775,23.5898346 L66.359947,21.8865191 L66.3244478,21.7531521 L66.2427593,21.6382973 L66.160869,21.5439451 L66.1150831,21.4770625 L66.1177052,21.1981862 L66.2649463,20.5190098 L66.2649463,20.3233385 L66.1751897,20.0946241 L66.1667183,19.8573502 L66.1836611,19.5908153 L66.1719625,19.2671515 L66.1836611,19.2181839 L66.2125042,19.1530929 L66.2379185,19.0774519 L66.234893,18.9920572 L66.1937461,18.9215917 L66.0463033,18.7995708 L65.9345615,18.428731 L65.8803041,17.9506003 L65.7853034,17.7161133 L65.6592408,17.5069062 L65.5376156,17.2342006 L65.4228482,16.7580605 L65.3516481,16.5886645 L65.133812,16.3143664 L65.1007331,16.2606215 L65.0906481,16.2273793 L65.0664441,16.2124502 L65.0333653,16.2003078 L65.0004882,16.1732363 L64.9815284,16.1133207 L65.0333653,16.0129968 L65.0333653,15.93437 L64.7957625,15.2711181 L64.7715585,14.9633787 L64.9044789,14.640113 L64.583574,14.2611119 L64.4333074,13.8014934 L64.3300369,13.295495 L63.9274435,12.2950435 L63.7824211,11.8055667 L63.711221,11.2904119 L63.7096074,10.7270856 L63.8457549,9.78217048 L63.8013809,9.56719085 L63.7386522,9.3745054 L63.5778972,8.48134464 L63.610976,8.31811937 L63.7229196,8.07148995 L63.76568,7.92160137 L63.7739497,7.76952319 L63.7229196,7.55195584 L63.6737047,7.11821452 L63.4558686,6.32239177 L63.5377588,5.74513164 L63.7824211,5.2492851 L63.9760532,4.72477461 L63.8973902,4.06311507 L63.6841931,3.59254854 L63.6079505,3.36283882 L63.540381,2.82877367 L63.267279,2.08808922 L63.1997094,1.60796803 L63.1510997,1.48355852 L63.0877659,1.36691217 L63.0335085,1.24110927 L62.9594846,0.780296447 L62.8646855,0.564321537 L62.7912667,0.338393867 L62.8203115,0.00318488346 L62.8203115,0 L21.1549145,0 C19.4731388,0 17.7915648,0.00099527608 16.1097892,0.00099527608 L0,0.00099527608 C0.0058493037,1.34959436 0.0116986074,2.6979944 0.0185564117,4.04659349 C0.0274312173,5.81539813 0.0373145236,7.58380467 0.044374028,9.35260932 C0.0514335325,11.1279828 0.0621236393,12.9035553 0.071200145,14.6789288 C0.0802766507,16.4529089 0.0903616571,18.226889 0.0980262619,20.000869 C0.105892567,21.7824132 0.115574173,23.5637584 0.123440478,25.3453025 C0.131105083,27.1164959 0.141593489,28.8874901 0.151476796,30.6586834 C0.161360102,32.4081797 0.169226407,34.157477 0.177092712,35.9069732 C0.184757317,37.6031227 0.195245723,39.2996703 0.204725629,40.9958198 L20.7071402,40.9958198 C22.4728231,40.9958198 24.2387077,40.9980094 26.0043906,40.9980094 L42.1474603,40.9980094 C43.9327082,40.9980094 45.7181577,40.9990047 47.5034055,40.9990047 L52.8775037,40.9990047 C54.6690042,40.9990047 56.4605048,40.9986066 58.2518036,40.9990047 C60.0429007,40.9994028 61.8344013,41 63.6259018,41 L69,41 L68.8178648,40.0234351 L68.8206886,39.7137052 Z" id="Fill-1"></path>
                </g>
            </g>
        </g>
    </g>
</svg>