<?xml version="1.0" encoding="UTF-8" standalone="no"?>
<svg width="67px" height="32px" viewBox="0 0 67 32" version="1.1" xmlns="http://www.w3.org/2000/svg" xmlns:xlink="http://www.w3.org/1999/xlink">
    <!-- Generator: Sketch 46.2 (44496) - http://www.bohemiancoding.com/sketch -->
    <title>Fill 1</title>
    <desc>Created with Sketch.</desc>
    <defs></defs>
    <g id="Page-1" stroke="none" stroke-width="1" fill="none" fill-rule="evenodd">
        <g id="The-50-States" transform="translate(-159.000000, -1488.000000)" fill="#4A4A4A">
            <g id="Oklahoma" transform="translate(122.000000, 1428.000000)">
                <g id="Page-1" transform="translate(37.000000, 60.000000)">
                    <path d="M66.2146809,9.58115565 C66.0077909,8.00696109 65.8026984,6.43276653 65.5970666,4.85839232 L65.5970666,4.83719468 C65.5970666,3.22473657 65.5995831,1.61245811 65.5995831,0 L0,0 L0,0.0213772855 C0,1.63257791 0.00161773228,3.24395817 0.00485319683,4.85515879 L18.8609609,4.85515879 C20.3954698,4.85515879 21.929799,4.85839232 23.4643079,4.85839232 C23.4643079,6.26264645 23.4662852,7.66708022 23.4693409,9.07133434 C23.4727561,10.6992416 23.4716776,12.3269692 23.4752726,13.9548764 C23.478508,15.4618852 23.4826422,16.9692533 23.4826422,18.4764418 C23.4826422,20.0757861 23.4873157,21.67531 23.4873157,23.274834 L23.6140381,23.262798 L23.9652657,23.2119596 L24.0853374,23.2491453 L24.1570569,23.2904627 L24.3305137,23.3224389 L24.4069066,23.3732773 L25.7278749,24.6417228 L25.880481,24.8739986 L25.9800614,24.9807054 L26.125837,25.0265139 L26.5987541,25.0728613 L26.7420133,25.0265139 L26.7977352,24.9830408 L26.8877889,24.8788489 L26.9569919,24.8325016 L27.0261949,24.8143578 L27.402767,24.8677112 L27.7013285,25.0333403 L27.8652587,25.0981907 L28.0502195,25.1166937 L28.1679544,25.05849 L28.2299675,24.9153161 L28.2761627,24.4473511 L28.3550721,24.3384887 L28.4728071,24.3435186 L28.618403,24.4473511 L28.6550716,24.5048363 L28.6757426,24.570046 L28.7107935,24.6384892 L28.7778395,24.7051361 L28.8447057,24.735675 L28.9234354,24.754717 L29.0731655,24.7635194 L29.2308045,24.8231602 L29.3070177,24.9645377 L29.3550104,25.1350171 L29.4290666,25.285197 L29.6693897,25.5002274 L29.8056387,25.66406 L29.7738233,25.7395092 L29.7457826,25.8510663 L29.7666334,26.3619655 L29.7968311,26.5139418 L29.9305636,26.6219061 L30.1065369,26.6571158 L30.4710659,26.6402295 L30.6303227,26.664481 L30.9288842,26.7532237 L31.0858042,26.7774753 L31.2522509,26.7492716 L31.3771758,26.6959182 L31.5012019,26.6657385 L31.6771752,26.7054392 L32.2663893,27.0907693 L32.4231295,27.148973 L33.405812,27.3613087 L33.4980228,27.4121471 L34.0218085,27.1949611 L34.1977819,27.16047 L34.2923293,27.1647814 L34.5490095,27.2204701 L34.6363671,27.2704103 L34.7614717,27.4949616 L34.8148568,27.5458 L34.9142575,27.6172972 L35.1752516,27.9198127 L35.2933461,27.9913099 L35.6857361,27.9889745 L35.8753702,27.9548427 L35.9167123,27.8689743 L36.0319308,27.7121477 L36.126658,27.5409497 L36.2494259,27.4051411 L36.4484069,27.3499913 L37.4945405,27.4836442 L37.7350434,27.4534645 L38.1020888,27.3198116 L38.3008902,27.2896319 L38.4238378,27.3977758 L38.4188049,27.6451416 L38.3886072,27.9243038 L38.4276125,28.1251424 L38.4419924,28.4344843 L38.7373184,28.5850235 L39.1234171,28.6629878 L39.4005886,28.7601736 L39.4793182,28.7393352 L39.5366579,28.815503 L39.5510377,28.9126888 L39.5025057,29.0208327 L39.5557112,29.1228689 L39.5557112,29.2126894 L39.5025057,29.4067017 L39.4865082,29.5038875 L39.4723081,29.5619116 L39.453794,29.7004149 L39.5303667,29.7927504 L39.707778,29.8867026 L40.0404916,29.9955651 L40.3845293,29.9359243 L40.6918985,29.7481994 L41.3646953,29.0716712 L41.6391706,28.8507127 L41.9465397,28.7488562 L42.2427645,28.8945451 L42.3119675,29.0510124 L42.3047775,29.3996957 L42.376497,29.5755643 L42.4918952,29.6447261 L42.9959087,29.6095165 L43.1709833,29.6425704 L43.2863815,29.7092173 L43.3492933,29.8295768 L43.3699644,30.0235891 L43.4186761,30.2400566 L43.542882,30.3185597 L44.0513892,30.2860447 L44.1392859,30.2565836 L44.1995015,30.2127511 L44.2340132,30.1804158 L44.3174162,30.1302959 L44.3566013,30.0880803 L44.3819458,30.0489185 L44.4256246,29.954068 L44.4414424,29.9238883 L44.566547,29.8403552 L44.661454,29.8660439 L44.8692427,30.0537688 L44.9129215,29.9934094 L45.0515072,29.7530497 L45.0770314,29.6835286 L45.1120823,29.6400555 L45.1557611,29.6095165 L45.252825,29.5705344 L45.3015367,29.5410732 L45.4009374,29.6120315 L45.4884747,29.701852 L45.548151,29.8089181 L45.5690018,29.9238883 L45.5323332,30.0758647 L45.3842208,30.3115537 L45.3500687,30.4712546 L45.389074,30.6972431 L45.4956646,30.9464052 L45.6477314,31.1565852 L45.8323326,31.2740705 L46.0800254,31.2656274 L46.2258011,31.113651 L46.2951838,30.8732913 L46.3133384,30.6011351 L46.3451538,30.4992786 L46.4956029,30.4116138 L46.5306537,30.3442484 L46.5004561,30.2495776 L46.438443,30.2032302 L46.3825414,30.1389187 L46.370678,29.9955651 L46.6483887,30.0695772 L46.8211266,30.0235891 L46.941378,29.8660439 L47.0639662,29.6095165 L47.0823005,29.383528 L47.0752903,29.2611925 L47.1333489,29.1895157 L47.1746909,29.166342 L47.2183697,29.1456833 L47.4869133,29.0973598 L47.5537795,29.0973598 L47.627656,29.1117311 L47.7344263,29.1577192 L47.7894292,29.2008331 L47.8268168,29.2453841 L47.8611487,29.3400549 L47.9095009,29.6035883 L47.9468885,29.6959238 L47.9956002,29.7720916 L48.0896084,29.8705349 L48.126996,29.8987386 L48.1841559,29.9168823 L48.2583918,29.9238883 L48.5377203,29.8849062 L48.6029688,29.8962236 L48.6834959,29.9359243 L48.8873302,30.0902359 L48.9286722,30.1134096 L48.9953587,30.1270624 L49.0807391,30.1302959 L49.2311882,30.1108947 L49.3122545,30.0880803 L49.3695941,30.0600563 L49.404645,30.0298766 L49.431787,29.9934094 L49.4571314,29.954068 L49.4788809,29.9105949 L49.5798993,29.6193967 L49.6286111,29.5410732 L49.6634822,29.5078396 L49.7024875,29.4857438 L49.7837336,29.4825103 L49.8896052,29.5108935 L50.0837331,29.5888578 L50.1482626,29.6558639 L50.1689336,29.7117322 L50.0837331,29.8867026 L50.069533,29.9326907 L50.069533,29.9835292 L50.0813963,30.0298766 L50.1044041,30.0713736 L50.1347815,30.1064036 L50.2318454,30.2105955 L50.5526957,30.309937 L50.7238158,30.3972425 L50.7676743,30.4365839 L50.7930188,30.5055661 L50.8115328,30.5934105 L50.8419103,30.6681412 L50.8990701,30.6972431 L51.4307648,30.6695783 L51.5742037,30.6972431 L51.7564682,30.9210758 L51.9777381,31.2701184 L52.2119498,31.4923344 L52.4283664,31.3371245 L52.4722249,31.1427529 L52.4706072,31.0020939 L52.5191391,30.9192794 L52.7244114,30.8916147 L53.0574845,30.9288004 L53.1982272,30.9122734 L53.3454408,30.8199379 L53.4220135,30.6972431 L53.5605992,30.3744281 L53.6369921,30.309937 L53.7221927,30.2890986 L53.8821685,30.201793 L53.9599994,30.1804158 L54.3599387,30.1804158 L54.4712028,30.166763 L54.7339944,30.0537688 L54.8795903,29.9519123 L54.9998417,29.8867026 L55.0557434,29.8913733 L55.0898955,29.8229301 L55.1734783,29.7347263 L55.2705422,29.6765226 L55.3510694,29.7004149 L55.4346522,29.7857444 L55.8780906,30.0670623 L55.9679646,30.0902359 L56.1877965,30.0537688 L56.2339917,29.9885591 L56.2800072,29.9445471 L56.3422,29.9238883 L56.3837218,29.9885591 L56.4282993,30.0331101 L56.4807857,30.0537688 L56.5667053,29.9934094 L56.5341709,29.727361 L56.5873763,29.6677202 L56.843697,29.6765226 L56.961432,29.6607142 L57.0428578,29.6677202 L57.0930075,29.6080794 L57.1717372,29.5453846 L57.2592745,29.4965223 L57.3381838,29.4758635 L57.5229648,29.3772406 L57.5483093,29.3558633 L57.6780874,29.4043664 L57.7379435,29.4067017 L57.8421973,29.2263421 L57.9295549,29.1456833 L58.0330897,29.1850247 L58.1350069,29.2705338 L58.2345873,29.3231686 L58.3221246,29.3948454 L58.3826997,29.5410732 L58.3086435,29.6750855 L58.4080441,29.7305946 L58.6550179,29.732391 L58.6526812,29.7481994 L58.6708357,29.7807144 L58.7035499,29.8245468 L58.7193677,29.8660439 L58.7616085,29.8498762 L58.8079835,29.8108941 L58.8419559,29.7895168 L58.9161918,29.7976007 L58.9758682,29.8182594 L59.0267368,29.8597565 L59.0776055,29.9238883 L59.1637048,29.912032 L59.8172687,29.9326907 L59.884135,29.9238883 L59.9350036,29.8987386 L59.9669988,29.8755649 L59.9862318,29.8355049 L59.9900065,29.7625707 L60.013194,29.6765226 L60.0689159,29.6797561 L60.156633,29.732391 L60.2400361,29.6815525 L60.3115758,29.6544267 L60.3714319,29.6145464 L60.4176271,29.5410732 L60.5075011,29.5913727 L60.5520786,29.4902348 L60.5634028,29.3264022 L60.6092385,29.1850247 L60.7575306,29.0653837 L60.8865897,29.0450843 L61.4024666,29.2196954 L61.4923406,29.2773602 L61.5336826,29.3326896 L61.5638803,29.3996957 L61.6077388,29.4530491 L61.8521961,29.51269 L61.9891641,29.6080794 L62.2382949,29.8611936 L62.3633995,29.947062 L62.4834712,29.9867627 L62.7534528,29.9955651 L62.8115114,30.0122717 L62.8735245,30.0555652 L62.9222362,30.1064036 L62.9429072,30.1523918 L62.9635782,30.2941285 L63.0122899,30.3512544 L63.0813132,30.3814341 L63.1577061,30.4365839 L63.1994076,30.4944283 L63.3124691,30.6972431 L63.6059977,30.9862855 L64.1188188,31.0761061 L64.3177999,31.1389804 L64.4125271,31.1452679 L64.5232519,31.1964656 L64.6481768,31.4158073 L64.784246,31.4849691 L64.851292,31.5677836 L64.8951506,31.5862867 L64.9508724,31.577125 L65.0407465,31.5336518 L65.0916152,31.5288015 L65.2023399,31.5519752 L65.311447,31.5862867 L65.4015008,31.6417957 L65.4588404,31.7199396 L65.6648316,31.6856282 L65.8312783,31.7025144 L65.8059338,31.7364666 L65.7802299,31.78982 L65.8958078,31.8494608 L66.2650103,31.9768263 L66.2650103,31.9123352 L66.4084492,31.9838323 L66.60761,31.9901197 L66.6489521,32 C66.6636914,31.3175436 66.6786105,30.6349076 66.6931701,29.9524513 C66.726783,28.381131 66.7603959,26.8098106 66.7940088,25.2384903 C66.8301381,23.5464512 66.8668067,21.8544122 66.9027563,20.1625527 C66.9354705,18.6316516 66.9676454,17.1003913 67,15.5694902 C66.9414021,15.1264954 66.882984,14.6835005 66.8243862,14.2405057 C66.6189342,12.6875088 66.4188746,11.1341526 66.2146809,9.58115565" id="Fill-1"></path>
                </g>
            </g>
        </g>
    </g>
</svg>