<?xml version="1.0" encoding="UTF-8" standalone="no"?>
<svg width="66px" height="52px" viewBox="0 0 66 52" version="1.1" xmlns="http://www.w3.org/2000/svg" xmlns:xlink="http://www.w3.org/1999/xlink">
    <!-- Generator: Sketch 46.2 (44496) - http://www.bohemiancoding.com/sketch -->
    <title>Fill 1</title>
    <desc>Created with Sketch.</desc>
    <defs></defs>
    <g id="Page-1" stroke="none" stroke-width="1" fill="none" fill-rule="evenodd">
        <g id="The-50-States" transform="translate(-799.000000, -1477.000000)" fill="#4A4A4A">
            <g id="South-Carolina" transform="translate(762.000000, 1428.000000)">
                <path d="M102.151521,71.3466034 L102.046787,71.2812005 L101.91797,71.2577791 L101.91797,71.148185 L102.284978,71.0372651 C100.923226,69.6538597 99.5603698,68.2720011 98.1975134,66.8903633 C96.8624974,65.536787 95.5321215,64.1785707 94.2008617,62.8214591 C92.7902788,61.3834776 91.3825683,59.9426237 89.9724272,58.5039793 C89.1588673,57.6740687 88.3484008,56.8415066 87.5348409,56.0118169 L87.263507,55.9185735 L86.8485517,55.8425646 L86.3379224,55.8339473 L86.1874514,55.8273187 C84.2682278,55.7895352 82.3490042,55.7460069 80.4300016,55.7018157 C78.4610629,55.6562987 76.4921242,55.599734 74.5229645,55.5652649 C73.9822853,55.5559847 73.441606,55.5429483 72.9009267,55.5327843 L72.7471414,55.5268185 L72.207125,55.5159917 L72.1023918,55.484174 L72.0177657,55.3993269 L71.9897043,55.29371 L71.98639,55.1812434 L72.0383146,53.4688346 L72.0305812,53.3605662 L71.9817499,53.2593683 C71.368818,52.4522161 70.7574328,51.6435173 70.1484782,50.8332717 L70.104066,50.7800213 L70.0596539,50.756821 L69.9982281,50.7482037 L69.9058685,50.7994655 L68.7778883,51.6108158 L68.7012165,51.6357838 L68.628743,51.6304809 L68.5357205,51.5551349 L68.487994,51.4815565 L68.4391627,51.4009076 L68.4197186,51.3207006 L68.4069032,51.248227 L68.4113223,51.1801726 L68.4239168,51.1191888 L68.442698,51.0495876 L68.5997977,50.7329577 L68.628743,50.6470058 L68.6362555,50.5581815 L68.6318364,50.470683 L68.6123922,50.3887083 L68.5845518,50.3219796 L68.5443378,50.2567976 L68.4913084,50.1971395 L68.4347436,50.14411 L68.322277,50.0999188 L68.1481637,50.0663335 C66.2417556,49.9657986 64.3351265,49.863054 62.4282764,49.7684849 C60.4255315,49.6690547 58.4230075,49.5634377 56.4207044,49.4580417 C55.1771642,49.3926388 53.9331821,49.316188 52.688979,49.2651472 C52.3197615,49.2412839 51.9501022,49.2247122 51.5806638,49.2052681 L50.5487994,49.301163 L50.4933395,49.2803931 L50.440531,49.2441564 L50.4084924,49.2052681 L50.3472876,49.1082684 L50.3030964,49.0554599 L50.2558118,49.0081754 L50.1625684,49 L50.0653477,49.0360158 L49.8640568,49.1692523 L49.7754535,49.2527736 L49.7071781,49.3457961 L49.6349255,49.5917201 L49.5613472,49.6608793 L49.4570559,49.6971161 L48.9656498,49.6997676 L48.8768255,49.7360044 L48.7725343,49.8303526 L48.7075733,49.8968603 L48.6350997,49.9346438 L48.5336809,49.9580651 L48.0418329,49.9664614 L47.9421818,49.9828122 L47.2406466,50.2123854 L46.7894545,50.4499131 L46.6601952,50.4983025 L46.5561249,50.5135484 L46.3937223,50.5025006 L46.2812557,50.5111179 L46.1882332,50.5829286 L46.1449259,50.6746253 L46.0881402,50.8650894 L45.9906986,50.96231 L45.8422162,51.0705784 L45.5198414,51.2442498 L45.3700333,51.3498668 L45.2491704,51.4095249 L45.1771387,51.4245499 L45.0770456,51.3885341 L45.0242372,51.328655 L44.9674515,51.1887899 L44.528412,51.2844638 L40.5344118,52.613514 L40.2842896,52.6190379 L40.2929069,52.638703 L40.2719161,52.8397729 L40.1912671,53.0328884 L40.0748233,53.2231315 L39.9179446,53.3634386 L39.5553558,53.4801033 L39.3816844,53.5689276 L38.8262011,53.9715094 L38.6719739,54.1533562 L38.5513319,54.3911048 L38.3540182,54.9158753 L38.2165836,55.1492048 L38.0360626,55.3147008 L37.8261544,55.4466115 L37.6443076,55.6076884 L37.531841,55.8467628 L37.4750553,55.9382386 L37.4556112,56.0630787 L37.4472149,56.1965361 L37.4193744,56.3299935 L37.3623678,56.46323 L37.1290383,56.7575433 L37,57.4546594 L37.4319689,58.0629512 L38.676393,58.8743015 L39.1359814,59.0990138 L39.4583562,59.0057704 L39.5553558,59.0296336 L39.5789981,59.2519153 L39.6846151,59.4571834 L40.1912671,59.7435423 L40.4774051,60.1293315 L40.7675203,60.3153764 L40.9856039,60.7071314 L41.2081065,60.9519506 L41.6469251,61.1985374 L42.2912327,61.1779885 L43.2230041,61.1779885 L43.7994782,61.5461012 L43.9519378,61.9765234 L44.0202132,62.4237383 L44.2062582,62.9553584 L44.3310983,63.1014103 L45.1090843,64.3095976 L45.2173527,64.6805826 L45.4754293,66.0829902 L45.5523219,66.3123425 L45.6453444,66.3845951 L45.8700566,66.691503 L46.1922105,66.8249604 L46.3658818,66.9818391 L46.5187834,67.1676631 L46.6239584,67.3313915 L46.7726618,67.7872236 L46.8866751,68.0179017 L47.2044098,68.1898054 L47.3215164,68.3718732 L47.4616025,68.8274844 L47.6116316,69.2150412 L47.7159229,69.642591 L47.8849542,69.8273102 L48.1034796,69.9077381 L48.3768022,69.9077381 L48.5948857,70.1284732 L48.8321924,70.4758159 L49.1543462,70.8426029 L49.5781398,71.1287408 L50.0209356,71.3300317 L50.5448222,71.6771536 L51.1210754,72.1396144 L51.7819547,72.7532092 L52.1527188,73.1964469 L52.3219711,73.9297997 L52.5444738,74.2519535 L52.6611385,74.6143213 L52.854254,75.0904815 L53.1291233,75.3894349 L53.4472999,75.6057508 L53.7418342,75.7431854 L54.390119,75.9363009 L54.6596853,76.0697584 L54.9456023,76.307286 L55.5189831,77.0364407 L55.8011439,77.2989364 L56.3482309,77.6778759 L56.5426721,77.9600367 L56.4454515,78.3113567 L56.5137269,78.3946571 L56.6301707,78.6447793 L56.4136338,78.6805741 L56.3773971,78.8027628 L56.5455446,79.2015883 L56.352429,79.3027862 L56.4454515,79.5473844 L57.0261238,80.2418491 L57.1383694,80.3415002 L57.1913989,80.2612932 L57.2550342,80.1846215 L57.4079357,80.2056123 L57.5701174,80.2696895 L57.6620351,80.3220561 L57.6620351,80.4305455 L57.4775369,80.5301966 L57.7108664,80.7127062 L57.807866,80.9027284 L57.7632329,81.0719807 L57.5701174,81.195937 L57.7789208,81.5638287 L57.9925852,81.7637938 L58.2385092,81.8526181 L58.5451961,81.8736089 L58.6384395,82.0055197 L58.7148903,82.6555721 L58.7829447,82.8802844 L59.2705946,83.2828661 L60.4717113,83.780238 L61.0269736,84.096647 L61.4147514,84.4718302 L61.6202404,84.6024152 L61.9187519,84.653677 L62.0880042,84.7718885 L62.2576984,85.0438853 L62.385411,85.3744354 L62.4340213,85.6493046 L62.3213337,86.2019155 L62.3213337,86.5161149 L62.4826316,86.6524448 L63.1797477,87.8699122 L63.308786,88.317348 L63.349,88.5674702 L63.3657926,88.8089751 L63.4420224,89.0548991 L63.5781313,89.2798322 L63.6585593,89.5379088 L63.6477324,89.7562133 L63.5628853,89.8658075 L63.5264276,90.0631212 L63.474282,90.2325944 L63.5100769,90.304847 L63.5741541,90.3492592 L63.6561288,90.4573066 L63.719985,90.5825887 L63.7473836,90.6906361 L63.7029714,91.0019631 L63.6313817,91.2461195 L63.6159148,91.4854148 L63.7473836,91.7461428 L63.9212759,91.9213609 L64.166979,92.0934856 L64.4486978,92.2348974 L64.8559197,92.3115692 L64.9809808,92.3754254 L65.090354,92.4600516 L65.190889,92.5601446 L65.3959361,92.7987771 L65.4681887,92.8599819 L65.516799,92.8476084 L65.8197297,93.0084643 L65.8919823,93.0685643 L65.9401507,93.2099762 L65.9682121,93.396242 L66.0375923,93.5515741 L66.2227534,93.6169771 L66.4129965,93.7334209 L66.4724336,94.0043129 L66.4598391,94.5072087 L66.8754573,95.8260949 L67.0807254,95.8932655 L67.2455586,96.0832877 L67.3558156,96.3652275 L67.3836561,96.7041739 L67.3558156,96.8928703 L67.2497567,97.1109539 L67.2055655,97.2654021 L67.1817023,97.441725 L67.2055655,97.8610994 L67.178388,97.9569943 L67.0486868,98.2318636 L67.0210673,98.4092912 L67.0570831,98.5138034 L67.298809,99.0259793 L67.2943898,99.077683 L67.2711895,99.142865 L67.258595,99.2316893 L67.298809,99.3481331 L67.3582461,99.4203857 L67.504298,99.5050119 L67.5765506,99.5648909 L67.9725037,100.053867 L68.0929247,100.1217 L68.8821795,100.056739 L69.180691,100.1217 L69.7295456,100.384196 L69.8225681,100.50086 L69.9094038,100.722479 L70.119091,100.883556 L70.3692132,100.975253 L70.6427567,101 L70.6551302,100.994697 L70.5749232,100.769543 L70.5956931,100.572892 L70.691588,100.40364 L71.3120323,99.6579134 L71.4494669,99.3636001 L71.4982982,98.9689727 L71.5665736,98.8598204 L71.8761329,98.5290493 L71.9733536,98.3595761 L72.0056131,98.134422 L72.0135675,97.9207575 L72.0500253,97.7360383 L72.1596194,97.5899864 L72.1954143,98.1914286 L71.7276505,99.198325 L71.6021475,99.7829745 L72.7427223,99.077683 L73.1868438,98.4607739 L73.5536307,98.0734381 L73.562248,97.9013134 L73.3717839,97.5899864 L73.2471648,97.4331077 L73.0858669,97.2954521 L72.8801569,97.2512609 L72.6344538,97.3652742 L72.2148584,96.6109305 L72.1107882,96.4874161 L71.90088,96.3846716 L71.9050782,96.1637156 L72.0579797,95.7763798 L71.9291624,95.373798 L71.6721906,94.7849503 L71.4941001,94.2058247 L71.6021475,93.837933 L71.6021475,93.7294437 L71.4982982,93.557098 L71.3012055,93.0933114 L71.1357095,92.9488062 L71.1357095,92.8476084 L71.3931232,92.839212 L71.5091251,92.9795191 L71.5791681,93.1931835 L71.69517,93.3991145 L71.9136954,93.5153373 L72.0829477,93.5405263 L72.1191845,93.6169771 L71.9291624,93.8989169 L71.940873,94.2378634 L72.0979727,94.8348864 L72.4411174,95.7293162 L73.3631666,96.5512724 L73.5494325,96.6597618 L73.6943796,96.6153496 L73.7549216,96.3250135 L73.7233249,96.156866 L73.5894256,95.9014409 L73.5580498,95.7763798 L73.5646785,94.6804382 L73.6219061,94.4685414 L73.7549216,94.2778564 L73.6747146,94.2292461 L73.6621201,94.1764376 L73.5730748,94.1972075 L73.5330818,94.2184192 L73.5092185,94.1848339 L73.4734237,94.0597728 L73.8360124,94.0851828 L73.9162194,94.3627035 L73.6621201,95.5191871 L73.7345936,95.6071275 L74.2191501,95.3863925 L74.0408386,96.392847 L74.0328842,96.8124424 L74.1133122,97.236015 L74.2593641,97.3042904 L74.786786,97.0428995 L74.8871,97.0389222 L75.1047416,97.0707399 L75.2538869,97.0428995 L76.3785528,96.337608 L76.5270352,96.1042785 L76.2769131,95.945853 L76.3215462,95.9264089 L76.3615392,95.9306071 L76.3871701,95.9096163 L76.3785528,95.8260949 L76.463179,95.8260949 L76.6408276,95.8985685 L76.7855537,95.6404919 L76.8865306,95.2542608 L76.9382343,94.9389567 L76.8383622,94.9389567 L76.7771574,95.0763913 L76.6728662,95.193056 L76.463179,95.3863925 L76.2976829,95.5554238 L75.9589574,95.7571566 L75.5963687,95.9180126 L75.3382921,95.945853 L75.3310005,95.7847761 L75.5689701,95.5238271 L75.890682,95.2765774 L76.4795297,95.0280019 L76.5522242,94.7250713 L76.3951245,94.4181634 L76.0440255,94.2778564 L74.786786,94.1764376 L75.1133589,94.0403287 L75.5037881,93.9557026 L75.9101262,93.9322812 L76.2769131,93.9601217 L76.2769131,93.837933 L76.0926358,93.7570632 L75.7618647,93.5599704 L75.579797,93.5210822 L75.4229182,93.5363281 L75.173017,93.6046035 L75.0117192,93.6169771 L73.8035319,93.3876248 L73.5580498,93.5210822 L73.5580498,93.3991145 L73.5536307,93.2990214 L73.6621201,93.1461199 L73.7951356,93.0685643 L74.2191501,93.0685643 L75.1902516,93.220803 L75.5325124,93.1766118 L75.4520844,93.0363048 L75.378727,92.8752279 L75.3340939,92.6991259 L75.3382921,92.5084409 L75.439269,92.5084409 L75.5367106,92.714151 L75.6414437,92.839212 L76.1492005,93.2864269 L76.3146965,93.3306181 L76.4954385,93.3392354 L76.7532942,93.3991145 L76.9671795,93.5279318 L77.0878215,93.6737628 L77.2175227,93.7906485 L77.4459911,93.837933 L77.6439677,93.7420381 L77.7643887,93.5042895 L77.8085799,93.2143953 L77.7683659,92.9488062 L77.9546318,93.0530974 L78.0100917,93.2181515 L78.0313035,93.4044174 L78.1031142,93.5683668 L78.284961,93.7058014 L78.3941132,93.6737628 L78.4977416,93.5763212 L78.6627957,93.5210822 L79.6473755,92.8029753 L79.7925436,92.7293969 L79.9215819,92.6458756 L80.0146043,92.5084409 L80.0654242,92.3685758 L80.0503992,92.332339 L79.9741694,92.307371 L79.3409096,91.735095 L79.1756345,91.529606 L79.3769254,91.489392 L79.6356648,91.6626215 L80.0654242,92.1295014 L80.3880199,92.4072431 L80.5826822,92.3515622 L80.7711576,92.1741346 L81.0893342,92.0685176 L81.3836476,92.0210121 L82.0169074,91.8073476 L82.7378867,91.6864847 L82.8667041,91.5658428 L82.7670529,91.4003467 L82.455505,91.1864613 L82.455505,91.0852635 L82.580787,91.0048355 L82.7268389,91.0187558 L83.0600405,91.0852635 L83.4069414,91.0784139 L83.5487952,91.01279 L84.3462253,90.4533294 L84.5638669,90.1267565 L84.6082791,89.6437467 L84.5152566,89.6437467 L84.4986849,89.7409674 L84.4584709,89.7517942 L84.2651344,89.6267331 L84.1849274,89.4822279 L84.0680417,89.3657841 L83.5852529,89.2519918 L83.3859506,89.095113 L83.2498417,88.8825534 L83.193277,88.6520963 L83.3859506,88.8215696 L83.5722165,88.929838 L83.7056739,88.9103939 L83.7615758,88.6993809 L83.7290952,88.4463863 L83.604697,88.0396064 L83.5722165,87.8131265 L83.6524235,87.7687143 L84.131898,88.0884376 L84.1082557,88.031431 L84.1252693,87.9187434 L84.1849274,87.810475 L84.2779499,87.7574456 L84.5152566,87.9784016 L84.2054763,88.382751 L84.0874858,88.6395018 L84.1849274,88.7519684 L84.4222341,88.8410137 L84.5722632,89.0297101 L84.6891489,89.2241513 L84.8416086,89.3131966 L85.1440973,89.2488984 L85.5555173,89.0796461 L86.2932893,88.6520963 L86.5219787,88.3619811 L86.7358641,87.991217 L86.9983598,87.6714937 L87.3609486,87.5398039 L87.4287821,87.4867745 L87.4731942,87.3701098 L87.5348409,87.2578641 L87.6508428,87.2048347 L87.7511568,87.1772152 L88.4202115,86.7980547 L88.5220722,86.6771918 L88.6219443,86.4314888 L88.4734619,86.4714818 L88.3444236,86.5397572 L88.2385857,86.6369778 L88.1661122,86.7660161 L88.001279,86.5077186 L87.9332246,86.3190222 L87.9526687,86.1329773 L88.3079659,85.3996244 L88.4734619,85.185739 L88.6749738,85.0966937 L89.105396,84.8189521 L89.3590535,84.7425013 L89.47152,84.9356168 L89.5093035,85.0578055 L89.6900455,85.3799593 L89.7508084,85.5494325 L89.9443658,85.4082417 L90.2108387,85.2993104 L90.5161999,85.2299302 L90.8275269,85.2051831 L91.1728811,85.1300581 L91.2745208,84.9276624 L91.2897668,84.6580961 L91.3869874,84.3717372 L91.6565537,84.1302323 L92.2575539,83.8635384 L92.463043,83.6470016 L92.4990588,83.2998797 L92.2575539,83.1787959 L91.9555071,83.0983679 L91.810339,82.8802844 L92.0929417,82.9138697 L92.3980819,82.9883318 L92.6440059,83.1498506 L92.7412266,83.4244989 L92.8256317,83.3971004 L92.8981053,83.3524673 L92.9588682,83.2914834 L93.0227245,83.2026591 L92.8700439,83.0539557 L92.7728233,82.8692366 L92.7854178,82.716335 L92.9741142,82.651153 L93.0843712,82.7028567 L93.1924187,82.9817031 L93.3088625,83.1025661 L93.4144794,82.8482457 L93.5866041,82.6873898 L93.7856855,82.5663059 L93.953391,82.4288713 L93.7642527,82.3608169 L93.6882439,82.2803889 L93.5866041,81.9858546 L93.5585427,81.7971582 L93.5715791,81.6111132 L93.5355633,81.4747834 L93.0673576,81.3497223 L92.7454247,81.1676546 L92.4785099,80.9027284 L92.3700205,80.5914014 L92.4102345,80.2500244 L92.5227011,79.9026816 L92.6771493,79.5807488 L93.2856621,78.7168109 L93.5631828,78.4516638 L93.8692068,78.3113567 L93.8692068,78.4116707 L93.7121071,78.5528616 L93.2200382,79.1333129 L92.8658457,79.8861099 L92.7454247,80.2612932 L92.7933722,80.4305455 L93.3616709,80.4387208 L93.5424129,80.5277661 L93.6840457,80.7526993 L93.747902,81.055409 L93.7642527,81.6387327 L93.8692068,81.8736089 L93.953391,81.8736089 L93.9657646,81.4942275 L94.3239342,79.6001929 L94.4299931,79.4223234 L94.3239342,79.3096358 L94.6396803,78.6279866 C95.5338891,77.4127288 96.4216902,76.1941566 97.3035255,74.9698395 L98.2668936,73.9505696 L99.6889662,72.7364165 L101.140647,71.86585 L101.712481,71.6393701 L102.284978,71.6035752 L102.22775,71.4506737 L102.151521,71.3466034 Z M91.8463549,84.3359423 L91.6371096,84.4773541 L91.4996749,84.7104627 L91.4313995,85.004997 L91.4272014,85.3149982 L91.5314926,85.3149982 L91.7939883,84.6744469 L91.810339,84.432942 L91.8622637,84.407974 L91.8828126,84.3830059 L91.8741953,84.3606894 L91.8463549,84.3359423 Z" id="Fill-1"></path>
            </g>
        </g>
    </g>
</svg>