<?xml version="1.0" encoding="UTF-8" standalone="no"?>
<svg width="84px" height="20px" viewBox="0 0 84 20" version="1.1" xmlns="http://www.w3.org/2000/svg" xmlns:xlink="http://www.w3.org/1999/xlink">
    <!-- Generator: Sketch 46.2 (44496) - http://www.bohemiancoding.com/sketch -->
    <title>Fill 1</title>
    <desc>Created with Sketch.</desc>
    <defs></defs>
    <g id="Page-1" stroke="none" stroke-width="1" fill="none" fill-rule="evenodd">
        <g id="The-50-States" transform="translate(-315.000000, -1663.000000)" fill="#4A4A4A">
            <g id="Tennessee" transform="translate(282.000000, 1598.000000)">
                <path d="M116.321248,65.9516639 C115.534979,65.9196673 114.748709,65.8897881 113.962675,65.8563799 L113.877978,65.8636733 L113.793516,65.8872002 L113.587185,66.0683575 L113.511428,66.1012952 C112.195332,66.0954134 110.879001,66.084591 109.562905,66.0803562 C107.456069,66.0737687 105.349234,66.0608289 103.242398,66.0488301 C101.198144,66.0368314 99.1538896,66.028597 97.1096355,66.0165982 L96.8494277,66.1412909 L96.5080521,66.2335165 C95.9690503,66.215636 95.4302839,66.1932854 94.8915174,66.175405 C92.7364514,66.1038831 90.581856,66.0245974 88.4270254,65.9521345 C86.4604101,65.8860238 84.4942653,65.8173252 82.5278853,65.7474503 C80.441518,65.6735757 78.3549154,65.602995 76.268548,65.529591 C74.1610065,65.4554812 72.0537002,65.3830183 69.9463939,65.3082027 L69.8645202,65.3131433 L69.5203214,65.3900763 C69.5125575,65.3903116 69.5050289,65.3903116 69.4975003,65.3905469 C67.4579515,65.4192497 65.4184028,65.4460704 63.3790893,65.4667741 C61.3421285,65.4877131 59.3049324,65.5110047 57.2682069,65.5397076 L57.2117423,65.5564117 L57.1611594,65.5088873 L57.1213989,65.4408945 L57.0512887,65.2773824 L57.0056465,65.2122128 L56.9296545,65.1868038 C56.2972509,65.1256338 55.664612,65.0635227 55.0324436,65 L54.9837429,65.0037643 L54.9670388,65.0232917 L54.9670388,65.079521 L54.9896246,65.1983319 L55.1618417,65.7596843 L55.2865344,66.3727958 L55.3030032,66.5586585 L55.2924161,66.9906128 L55.2639485,67.2651719 L48.440671,67.2651719 C46.3103083,67.2651719 44.1801809,67.2621134 42.0498183,67.2621134 L42.0234681,67.3294004 L41.8093731,67.5957252 L41.6508017,67.7474738 L41.5270501,67.8128786 L41.2781353,67.7448858 L41.2616664,67.5705514 L41.3522451,67.3329295 L41.3802421,67.2338811 L40.7537202,67.2475267 L40.7925396,67.2962275 L40.8715901,67.4682092 L40.8071263,67.6884212 L40.7899517,67.8721665 L41.0019292,68.3608206 L41.0329847,68.6290275 L40.9308779,68.8878236 L40.7558376,69.0045172 L40.5297439,69.0362785 L40.2817702,69.0320437 L40.0977896,69.1254455 L40.1213166,69.3433048 L40.2624781,69.5865732 L40.4452823,69.7578492 L40.6826689,69.8376054 L40.778894,69.9135974 L40.7419567,70.0458187 L40.6457316,70.1196932 L40.5269207,70.150984 L39.6378383,70.1836864 L39.4656213,70.2443859 L39.9850957,71.0061876 L40.2361279,71.4859015 L40.151431,71.7009375 L39.9996824,71.7369337 L39.8157019,71.8343352 L39.6599537,71.9491466 L39.5957252,72.0616052 L39.5557294,72.2561729 L39.2621134,72.7450623 C39.2315284,72.9076333 39.2016492,73.0706749 39.1698879,73.2334812 L39.3465751,73.5329789 L39.5987837,73.7929513 L39.7251232,74.1519721 L39.6599537,74.3743015 L39.5140867,74.334541 L39.2338811,74.1119764 L39.0256679,74.1380913 L38.8445106,74.2251409 L38.7038196,74.3743015 L38.6101825,74.5916903 L38.8612147,74.7142655 L39.1150702,74.8968345 L39.2025903,75.1114 L38.6014775,75.611347 L37.1390441,76.2526909 L37.0037643,76.4112623 L36.9952946,76.6194756 L37.1390441,76.8895646 L37.4077215,77.2401158 L37.404663,77.393276 L37.2322107,77.5798445 L37.070816,77.7120658 L37.009646,77.8200543 L37.051524,77.9579221 L37.2013904,78.1753108 L37.3279653,78.4578692 L37.2296227,78.6044419 L37.0117635,78.666553 L36.7750826,78.6978438 L36.5435777,78.7658366 L36.42759,78.8844122 L36.3821831,79.0810973 L36.3791246,79.380595 L36.3316002,79.5730452 L36.2156125,79.7647896 L36.0688045,79.9348892 L35.558035,80.3574327 L35.4420473,80.5440012 L35.3992283,80.8152666 L35.4109918,81.3490924 L35.4507523,81.5838911 L35.6399087,82.161477 L35.7358986,82.6501312 L35.7269583,83.1246692 L35.5298027,83.4128739 L35.3349998,83.3994636 L35.0724394,83.3338235 L34.843993,83.3401757 L34.7444741,83.5406251 L34.725182,83.7662483 L34.6628357,83.9664624 L34.5616699,84.1443259 L34.4195673,84.2941924 L34.0673693,84.4908774 L33.8415109,84.5821619 L33.6608241,84.6195697 L33.5535414,84.7068546 L33.6354151,84.8510746 C34.1661824,84.8510746 34.6969497,84.8508393 35.2274818,84.8515451 C37.3002035,84.8548389 39.37269,84.8550742 41.4451764,84.8595443 C43.5167218,84.8642497 45.5882671,84.8604854 47.6598125,84.8673082 C49.7595902,84.8746015 51.8593678,84.8762484 53.9591455,84.8762484 L53.852098,84.570869 C55.0129163,84.5694574 56.1742051,84.5967486 57.3347881,84.6103942 C59.3877472,84.6339211 61.4407063,84.6536837 63.4936654,84.6800339 C65.5612112,84.706384 67.6285217,84.7294404 69.6960675,84.7522615 C71.7760825,84.7750826 73.8560976,84.7948453 75.9361126,84.8233128 C77.9838958,84.8513099 80.0312085,84.8510746 82.0794622,84.8510746 L88.3420932,84.8510746 L88.4096155,84.8781306 C89.2144714,84.9188321 90.0190921,84.9600042 90.8239481,85 C90.8992342,84.1412674 90.9754614,83.2825348 91.055453,82.424508 L91.0721571,82.3348704 L91.0923902,82.2842875 L91.1488548,82.1730052 L91.261784,82.0379607 L91.4309426,81.8735075 L91.4902304,81.8266889 L91.5659871,81.7857521 L91.7158536,81.7391688 L91.7949041,81.7410509 L91.8541919,81.7645779 L91.928537,81.8403346 L91.9727676,81.8735075 L92.017704,81.8967992 L92.0831088,81.9083274 L92.2212119,81.9102095 L92.7355104,81.8523333 L92.9808961,81.8537449 L93.0180687,81.8480984 L93.0851204,81.803162 L93.1785223,81.7274053 L93.3655613,81.5408369 L93.4441412,81.4337894 L93.4890776,81.337329 L93.503429,80.9648978 L93.5170747,80.9006693 L93.5570704,80.7816231 L93.5850675,80.7256291 L93.7514028,80.4847134 L93.7798704,80.4287193 L93.797045,80.3694315 L93.8081027,80.3009681 L93.8024562,80.2426214 L93.7601078,80.0892258 L93.7601078,80.0473479 L93.7695185,80.0014704 L93.7888106,79.9567693 L93.8198661,79.9031279 L94.0363138,79.6687998 L94.1076004,79.6125704 L94.192062,79.5643402 L94.593196,79.4238845 L94.6586009,79.3838888 L94.7343575,79.3020151 L94.7797645,79.2427272 L94.9348069,78.9265254 L94.9945653,78.8757073 L95.0757332,78.8277124 L95.2343046,78.7717183 L95.5389782,78.7093719 L95.6180287,78.6743168 L95.7111953,78.6216165 L95.8610618,78.5030409 L96.0866849,78.3647026 L96.273724,78.2938865 L96.4685269,78.2461269 L96.5306379,78.2423626 L96.8691903,78.2713007 L96.9061276,78.2713007 L96.9404769,78.2625957 L97.0324672,78.2317755 L97.0948135,78.2171888 L97.1573951,78.2148361 L97.2195062,78.2268348 L97.2759708,78.2404804 L97.3632557,78.2374219 L97.4703031,78.2207178 L97.6573422,78.1607242 L97.7495677,78.1666059 L97.8203837,78.1896623 L97.8603795,78.228717 L97.9050806,78.2687127 L97.9558988,78.3025915 L98.0213036,78.3223541 L98.0892964,78.3277653 L98.7188768,78.2004847 L98.7781647,78.1703702 L98.8452164,78.1188462 L99.0602524,77.9125151 L99.1581244,77.7948805 L99.2209413,77.7384159 L99.3051677,77.680775 L99.8220541,77.4612688 L99.9498053,77.3586914 L100.05403,77.2438801 L100.194721,77.1133056 L100.280123,77.0688398 L100.378466,77.0514298 L100.463633,77.0544883 L100.534214,77.0711925 L100.607383,77.0688398 L100.669494,77.0394311 L100.866885,76.7691068 L101.070628,76.5688927 L101.101448,76.5256032 L101.158383,76.4844311 L101.230846,76.4439648 L101.471291,76.3547977 L101.567752,76.2945688 L101.80208,76.0607112 L101.861368,76.0207155 L101.937124,75.9866014 L102.269795,75.8877884 L102.770213,75.628757 L102.824089,75.6080533 L102.874672,75.6080533 L102.988072,75.6393441 L103.386147,75.6765166 L103.52425,75.7127481 L103.583538,75.6962792 L103.65953,75.6452258 L103.905857,75.3572563 L104.142303,75.0024703 L104.193827,74.8968345 L104.210295,74.8375466 L104.229587,74.7189709 L104.260878,74.6658001 L104.370749,74.5276971 L104.394276,74.4561752 L104.394276,74.3968874 L104.312402,74.2053783 L104.298051,74.1491489 L104.286287,74.0868026 L104.289346,74.021633 L104.300874,73.9574045 L104.320166,73.8922349 L104.345575,73.8404757 L104.376395,73.7898928 L104.433331,73.7421332 L104.510028,73.706137 L104.657072,73.6767283 L104.758237,73.6767283 L104.839876,73.696491 L104.961745,73.7508381 L105.09679,73.8463574 L105.196073,73.9317602 L105.246656,73.9486995 L105.309003,73.9397593 L105.365232,73.9011752 L105.421697,73.8134198 L105.444282,73.7451917 L105.49016,73.6461433 L105.602619,73.5195685 L105.630851,73.4687504 L105.64732,73.4144032 L105.641203,73.2450094 L105.656025,73.2003082 L105.675787,73.1664294 L105.690374,73.1516075 L106.345363,72.793763 L106.573575,72.7090661 L107.033996,72.4803844 L107.124105,72.4606218 L107.19445,72.4742674 L107.234446,72.5133221 L107.393017,72.7370631 L107.406663,72.7697656 L107.406663,72.8071734 L107.393017,72.8577562 L107.333729,73.0019763 L107.318907,73.0932607 L107.313496,73.1603124 L107.322201,73.2283052 L107.375607,73.3814655 L107.404075,73.4318131 L107.437483,73.4767495 L107.474656,73.5212154 L107.522651,73.5565058 L107.578645,73.5877966 L107.640991,73.6040302 L107.705925,73.6040302 L107.765684,73.5922667 L107.850616,73.5525062 L108.290334,73.2760649 L108.335976,73.2537143 L108.377619,73.225482 L108.43973,73.1718406 L108.511016,73.0956134 L108.686057,72.8676375 L108.727935,72.7909398 L108.852863,72.5133221 L108.950735,72.3792187 L109.284817,72.0289028 L109.453975,71.8985637 L109.609724,71.81669 L109.698891,71.7797527 L110.038855,71.6863509 L110.277888,71.5677752 L110.357644,71.5593055 L110.560917,71.5661283 L110.614558,71.5421308 L110.910057,71.3282711 L111.018516,71.277453 L111.069099,71.268748 L111.105801,71.268748 L111.156383,71.2849816 L111.247433,71.3539155 L111.300603,71.3793245 L111.362715,71.3908527 L111.495406,71.3962639 L111.551636,71.4073216 L111.604807,71.4296722 L111.644802,71.460963 L111.676093,71.497665 L111.695385,71.5508358 L111.707384,71.6077709 L111.715148,71.6640003 L111.729264,71.7232881 L111.745968,71.7741063 L111.783141,71.8197485 L111.82643,71.8555094 L111.879601,71.8907998 L111.941712,71.9211495 L112.085462,71.96091 L112.161689,71.9724382 L112.229682,71.9686739 L112.311555,71.9322072 L112.405192,71.8729193 L112.559764,71.7350516 L112.650108,71.6898799 L112.746333,71.6044772 L112.822089,71.5054288 L113.785752,69.6877389 L113.824807,69.6331565 L114.087602,69.419532 L114.826818,68.9191144 L114.875519,68.8995871 L114.923043,68.8995871 L115.428872,69.0689809 L115.724841,69.1089767 L115.770248,69.1000365 L115.79001,69.0668635 L115.773542,69.0045172 L115.746956,68.9504053 L115.617793,68.7676011 L115.515687,68.5638579 L115.499218,68.5125693 L115.504629,68.4309308 L115.539213,68.3205896 L115.786952,67.823701 L115.939877,67.3896293 L115.937054,67.2825818 L115.798715,66.9946123 L115.784129,66.9381477 L115.86859,66.6967615 L116.321248,65.9516639 Z" id="Fill-1"></path>
            </g>
        </g>
    </g>
</svg>