<?xml version="1.0" encoding="UTF-8" standalone="no"?>
<svg width="62px" height="58px" viewBox="0 0 62 58" version="1.1" xmlns="http://www.w3.org/2000/svg" xmlns:xlink="http://www.w3.org/1999/xlink">
    <!-- Generator: Sketch 46.2 (44496) - http://www.bohemiancoding.com/sketch -->
    <title>Page 1</title>
    <desc>Created with Sketch.</desc>
    <defs></defs>
    <g id="Page-1" stroke="none" stroke-width="1" fill="none" fill-rule="evenodd">
        <g id="The-50-States" transform="translate(-481.000000, -1634.000000)" fill="#4A4A4A">
            <g id="Texas" transform="translate(442.000000, 1598.000000)">
                <path d="M56.0955265,36 L55.8997874,36.004139 L55.9025467,36.1079583 L55.9013395,36.2885212 L55.8982353,37.0920001 L55.8940963,37.8927196 L55.8901298,38.6920595 L55.887198,39.4900198 L55.8832315,40.2878076 L55.8801273,41.0833534 L55.8765057,41.8768298 L55.8735739,42.6696163 L55.8696074,43.4608507 L55.8666756,44.250533 L55.8627091,45.0390081 L55.8597773,45.8273107 L55.8554659,46.6126816 L55.8525341,47.3982249 L55.8489125,48.180664 L55.8461532,48.9625857 L55.8416693,49.7438176 L55.83891,50.5222901 L55.8352883,51.3014525 L55.8308045,52.0769933 L55.8280451,52.8532239 L55.8239062,53.627385 L55.8213193,54.4006839 L55.8171803,55.1726031 L55.8142485,55.9431426 L55.8101096,56.7119575 L55.8075227,57.4797377 L55.8033837,58.247173 L55.8006244,59.0120215 L55.796313,59.7770424 L55.7937261,60.5403387 L55.7895871,61.3027727 L54.7531184,61.3027727 L53.7150975,61.3039799 L51.6411251,61.3039799 L50.6048288,61.305532 L48.5303391,61.305532 L47.4942152,61.3067392 L45.4202429,61.3067392 L44.3836017,61.3081189 L42.3094569,61.3081189 L41.2717809,61.3094985 L39.1972912,61.3094985 L39.0776058,61.3112231 L39,61.3112231 L39.0029318,61.4033153 L39.1007151,61.6000892 L39.1253765,61.7159806 L39.1393456,61.8430816 L39.1740095,61.9382781 L39.2885212,62.106424 L39.2538572,62.1464341 L39.2869691,62.209726 L39.3300834,62.2576691 L39.3833727,62.2876767 L39.4480442,62.2994038 L39.5087492,62.3392415 L39.7870954,62.6284525 L39.8781529,62.6506995 L40.0847568,62.6315567 L40.2587663,62.7000223 L40.4146678,62.8543716 L40.5412515,63.0487311 L40.6292048,63.2320533 L40.7506148,63.605251 L40.8059736,63.7009649 L41.0013678,63.9341272 L41.0472414,64.0167343 L41.0662117,64.0715758 L41.0732825,64.1031355 L41.0812155,64.1296939 L41.1101884,64.1653926 L41.2729881,64.2590369 L41.3211037,64.3262953 L41.4285447,64.3735486 L41.6244562,64.4295973 L41.7825996,64.5263458 L41.8710703,64.5606649 L41.9883413,64.5741165 L42.0654297,64.6037792 L42.2680671,64.744332 L42.3273925,64.7979662 L42.3587797,64.8457369 L42.3936161,64.9367944 L42.4237961,64.9864621 L42.5133015,65.0376819 L42.5683154,65.0790717 L42.5683154,65.0982145 L42.6471284,65.1261526 L42.7324948,65.1934109 L43.0922409,65.6135171 L43.1253527,65.713025 L43.1695018,65.7820079 L43.5232119,66.012411 L43.603577,66.0436258 L43.6377236,66.0655279 L43.7508556,66.1962505 L43.8450173,66.2679928 L43.9274519,66.3154186 L43.9978145,66.3718121 L44.0543806,66.4764938 L44.1147406,66.6680939 L44.1600969,66.7455273 L44.2773679,66.8027831 L44.4370635,66.9942108 L44.8159523,67.2868709 L44.9994469,67.5196884 L45.0573926,67.5691837 L45.195531,67.6052272 L45.4626674,67.7366398 L45.4912954,67.7635431 L45.5152669,67.7952753 L45.5438949,67.8252828 L45.593735,67.8477023 L45.6171892,67.8463226 L45.636332,67.8339057 L45.6680642,67.7928609 L45.6861722,67.7857901 L45.7370471,67.8051053 L45.7658475,67.8102791 L45.7991318,67.8282146 L45.8443156,67.9073726 L45.891224,67.9251357 L45.9395121,67.9272051 L45.9752107,67.9430712 L45.9962505,67.9775627 L46.004356,68.0353359 L46.0197047,68.0265406 L46.0400547,68.0403372 L46.1007597,68.109665 L46.1324919,68.0696549 L46.3499606,68.3290308 L46.4384312,68.3674888 L46.5253497,68.387149 L46.6258924,68.4349196 L46.7167774,68.506317 L46.7759303,68.5890965 L46.7883472,68.6444553 L46.7955904,68.7049879 L46.8064553,68.7632785 L46.8366353,68.8096695 L46.8833712,68.8246733 L47.0311672,68.8457131 L47.0628994,68.8643385 L47.0904925,68.9245261 L47.2308728,69.086981 L47.2862317,69.1816601 L47.296924,69.2354667 L47.3065816,69.3485988 L47.3179638,69.402233 L47.3948798,69.4493139 L47.4128154,69.4769071 L47.4112633,69.5093291 L47.3853946,69.5702065 L47.3781514,69.6062501 L47.388154,69.6652305 L47.4348899,69.7374902 L47.4445475,69.7909519 L47.4390289,69.8709722 L47.4319581,69.9058085 L47.4402361,69.9337466 L47.4804187,69.9947965 L47.5150826,70.0317024 L47.5768223,70.0694706 L47.6044155,70.1051693 L47.6151079,70.1503531 L47.6194193,70.2126102 L47.6290769,70.2665894 L47.6540832,70.2884914 L47.741864,70.3445401 L47.8096398,70.4761251 L47.8687926,70.6235761 L47.9255311,70.7296374 L47.9600226,70.7541263 L48.0410776,70.7956886 L48.0853991,70.8396652 L48.1759392,71.0310929 L48.2425078,71.1140449 L48.2561319,71.2352824 L48.2476815,71.4294694 L48.2273315,71.5536387 L48.1623151,71.7461011 L48.148691,71.8530247 L48.1616253,71.9809881 L48.2476815,72.2760626 L48.2490611,72.3224537 L48.2385412,72.4071302 L48.2476815,72.4593848 L48.2657895,72.4881852 L48.326667,72.5623419 L48.3402911,72.5875206 L48.3592614,72.6428794 L48.447732,72.7499755 L48.5127485,72.9991764 L48.5317188,73.0447051 L48.6170852,73.1424884 L48.7002096,73.2078498 L48.7622943,73.2889047 L48.8035116,73.5136167 L48.8861187,73.6691732 L48.9164712,73.7450545 L48.9259563,73.8211082 L48.9259563,73.8759496 L48.9466512,73.9282042 L49.0128748,74.0002914 L49.2332754,74.155503 L49.2998439,74.2196572 L49.313468,74.2532864 L49.3298515,74.3031265 L49.3520985,74.3483104 L49.3810713,74.3693502 L49.4152179,74.3831468 L49.7941067,74.6244146 L49.8442918,74.6975365 L49.9281061,74.6533874 L50.057794,74.6494209 L50.1774794,74.6837399 L50.2521535,74.778764 L50.3635609,74.8615435 L50.4033986,74.8794791 L50.4339236,74.9070722 L50.5163582,75.0967753 L50.6693279,75.2694052 L50.7715951,75.3545991 L50.9323253,75.4349642 L51.1558301,75.6824406 L51.3353582,75.781776 L51.7597758,75.9283648 L52.0586444,75.990277 L52.3851062,76.0107994 L52.4339117,76.0259756 L52.4773709,76.0642612 L52.50117,76.1172056 L52.4628845,76.2355114 L52.4940993,76.2641393 L52.5491132,76.2810401 L52.5934347,76.3013901 L52.812628,76.4874716 L52.9505939,76.5649049 L53.3613874,76.6644128 L53.4881436,76.65579 L53.5236698,76.6644128 L53.5635074,76.6956276 L53.5802358,76.7302915 L53.5926527,76.7685771 L53.6202459,76.8128986 L53.8584095,77.0495101 L54.0586325,77.161435 L54.1150261,77.1797154 L54.1562434,77.2081709 L54.2874835,77.3338923 L54.3547418,77.3599334 L54.4083761,77.3285462 L54.4099282,77.3285462 L54.4497658,77.2776712 L54.4511455,77.2776712 L54.4925353,77.2674962 L54.5491013,77.3599334 L54.5766945,77.3433775 L54.6453325,77.3213029 L54.6165321,77.4332278 L54.6837905,77.4744451 L54.9643786,77.4672019 L55.2185808,77.5380819 L55.4006958,77.565675 L55.5193464,77.5046251 L55.5828108,77.3628652 L55.6035056,77.1797154 L55.6474823,77.1659189 L55.6655903,77.1797154 L55.693011,77.0846914 L55.7149131,77.0331267 L55.7533711,77.0003598 L55.9394526,76.9010243 L55.9796352,76.8694646 L56.0186105,76.8128986 L56.146229,76.5452448 L56.2019327,76.4931627 L56.23332,76.4614305 L56.3380016,76.5190313 L56.3616282,76.4750546 L56.5737508,76.3153591 L56.7003345,76.2917325 L56.7513819,76.2686232 L56.7087849,76.2079182 L56.5958253,76.1330717 L56.5599542,76.0823692 L56.562886,76.0192498 L56.6272126,75.8124734 L56.6287647,75.713138 L56.6380774,75.6577792 L56.6672227,75.6207008 L56.7224091,75.57362 L56.7475878,75.5658594 L56.775181,75.5658594 L56.8091551,75.5613755 L56.8489928,75.5382662 L56.8505449,75.5382662 L56.8489928,75.5160192 L56.8132941,75.4392757 L56.8179504,75.4082334 L56.8619271,75.3382157 L56.8629618,75.2749238 L56.8451987,75.2142188 L56.8343339,75.1531689 L56.843819,75.0805644 L56.8672732,75.0310691 L56.8990054,74.9824361 L57.0474912,74.588371 L57.0890534,74.5552592 L57.1154394,74.5143868 L57.0916403,74.4424721 L57.0916403,74.4412649 L57.1361343,74.4188454 L57.1469991,74.3998751 L57.1207856,74.3324443 L57.1773516,74.3053685 L57.206152,74.273119 L57.2516807,74.1830962 L57.2516807,74.1710242 L57.327562,74.0259875 L57.3468772,74.0208138 L57.3686068,73.9459673 L57.5039858,73.7048719 L57.5177824,73.6458915 L57.5229562,73.5991556 L57.5345108,73.5601802 L57.5345108,73.558973 L57.570037,73.5231019 L57.6045285,73.518618 L57.7778481,73.5231019 L57.8606277,73.5034417 L58.0277389,73.4099698 L58.1143125,73.376858 L58.1324205,73.3854809 L58.154495,73.4404948 L58.1793289,73.4529117 L58.2096814,73.4475655 L58.223478,73.4346312 L58.2250301,73.4346312 L58.2315835,73.4239389 L58.2331356,73.4225592 L58.2814237,73.382894 L58.3186745,73.316153 L58.3555803,73.304081 L58.8641571,73.342539 L58.8655368,73.342539 L58.8736423,73.3246034 L58.9866018,73.1609414 L59.0019506,73.1067898 L59.0117806,72.9634777 L59.0297162,72.9127752 L59.0654149,72.8765592 L59.1223258,72.8641422 L59.1742355,72.8436198 L59.218557,72.7458365 L59.218557,72.7441119 L59.2627061,72.7182433 L59.3506594,72.7429047 L59.4113643,72.8039546 L59.4718969,72.8494834 L59.5546764,72.8287885 L59.5781306,72.9251922 L59.6415949,72.9577866 L59.8097409,72.9746874 L60.0273821,73.0900614 L60.0815337,73.1373147 L60.2503694,73.2100917 L60.69324,73.162321 L60.8170644,73.1940532 L60.8901863,73.1235181 L60.9619285,73.1467999 L61.0279797,73.2019862 L61.0902368,73.2340633 L61.1343859,73.231304 L61.1773278,73.2225087 L61.2168205,73.2047456 L61.2480353,73.1761176 L61.2858035,73.1552503 L61.3327119,73.1635282 L61.4248041,73.1940532 L61.5820852,73.1940532 L61.6357195,73.1568024 L61.6664169,73.1583545 L61.680041,73.2130235 L61.7198787,73.2435485 L62.4776564,73.3518517 L62.7206488,73.3201195 L62.7922186,73.2942509 L62.843266,73.2390646 L62.8625812,73.1373147 L62.877585,73.1136881 L62.911904,73.1245529 L62.9451883,73.162321 L62.9619167,73.2130235 L62.9517417,73.2404442 L62.9091447,73.3333987 L62.893796,73.376858 L62.9931314,73.4034164 L63.0679779,73.360647 L63.1407549,73.2982174 L63.2306052,73.2666577 L63.2704429,73.2804543 L63.3020026,73.3506445 L63.3461517,73.376858 L63.3987512,73.3811694 L63.4482464,73.3740987 L63.4965345,73.3592674 L63.5377518,73.3368479 L63.5184366,73.4047961 L63.5308535,73.473779 L63.5643102,73.538623 L63.6395017,73.6571012 L63.6712338,73.7536774 L63.7277998,73.8814683 L63.7597044,73.9309635 L63.7995421,73.969594 L63.8590399,74.0002914 L63.9828643,74.0002914 L64.0227019,74.0259875 L64.0161486,74.1099743 L63.9770007,74.2232788 L63.971827,74.3020918 L64.024254,74.3226142 L64.1051366,74.2493198 L64.2213728,74.1830962 L64.3372642,74.1692996 L64.4062471,74.2355232 L64.4124556,74.3745239 L64.3712383,74.5349092 L64.3893463,74.6080312 L64.43522,74.6561468 L64.4869572,74.6614929 L64.5357626,74.6752895 L64.5769799,74.705642 L64.6647607,74.8175669 L64.8003122,74.8901714 L65.1119427,74.9882997 L65.2521505,75.03745 L65.2909534,75.12868 L65.3075093,75.2816496 L65.3251,75.3563237 L65.3526932,75.4113376 L65.3914961,75.4620401 L65.4371973,75.5049819 L65.4878997,75.5382662 L65.8269509,75.6938228 L65.9371512,75.791951 L66.0280362,75.9102568 L66.0639073,75.9404368 L66.2870672,76.0470154 L66.3807115,76.1172056 L66.441589,76.1941216 L66.5391999,76.3776162 L66.5021215,76.4905758 L66.5381651,76.5631804 L66.7851241,76.7656453 L66.7971961,76.7949631 L66.8204778,76.829627 L66.8729049,76.8434236 L66.9308505,76.8515291 L66.9746547,76.8694646 L67.0119055,76.940862 L67.0522605,77.2483535 L67.1429731,77.4592688 L67.1610811,77.5694691 L67.1196914,77.6839808 L67.1524583,77.7170926 L67.1719459,77.7614142 L67.179879,77.8162556 L67.1829832,77.8866182 L67.2079895,77.9223169 L67.2643831,77.9637066 L67.3195695,78.0199277 L67.345783,78.1051217 L67.3594071,78.1251267 L67.4283901,78.1594458 L67.4530515,78.1773813 L67.4670205,78.2187711 L67.4380477,78.2844774 L67.4530515,78.3222455 L67.4847836,78.338629 L67.5523869,78.3408709 L67.5827394,78.3579442 L67.6017097,78.386917 L67.6270609,78.4417585 L67.6460313,78.4676271 L67.6732795,78.5205715 L67.7905505,79.0331148 L67.8503932,79.1503858 L68.021126,79.3747528 L68.0138828,79.4658103 L68.0676895,79.5047857 L68.1770275,79.5570403 L68.2234185,79.5939462 L68.2442859,79.645166 L68.2358355,79.7719222 L68.2399744,79.8309026 L68.3036112,79.9390333 L68.3984628,80.0031875 L68.5914425,80.0807933 L68.5900629,80.0807933 L68.4564084,80.1521907 L68.4552012,80.1521907 L68.4319195,80.1923732 L68.4372657,80.2504914 L68.4717571,80.2918811 L68.5090079,80.3243031 L68.5271159,80.3536209 L68.5488456,80.5462557 L68.5914425,80.7321648 L68.7252695,80.909106 L68.7971842,81.0275843 L68.7994261,81.1129507 L68.7692461,81.2091819 L68.8133952,81.3112766 L68.8935879,81.3994023 L68.9734356,81.4563133 L69.1043308,81.4806298 L69.135718,81.492012 L69.1493421,81.5358161 L69.1581375,81.6103177 L69.1745209,81.6810252 L69.2147035,81.7110328 L69.2902398,81.726554 L69.7479417,81.9574744 L69.8334805,82.0457726 L69.8688343,82.1604567 L69.8734906,82.2323714 L69.8869423,82.2692773 L69.9502342,82.341192 L70.015423,82.3974131 L70.0493971,82.4086229 L70.0480175,82.4358711 L70.0342209,82.4715698 L70.0318065,82.5046816 L70.0618141,82.5945319 L70.0950983,82.6636873 L70.1392474,82.729566 L70.2066783,82.8107935 L70.2754888,82.8375243 L70.3734445,82.8590815 L70.4327699,82.8987467 L70.3791356,82.976525 L70.4248368,83.0530961 L70.4977863,83.1482925 L70.5790137,83.2284852 L70.6523081,83.2624593 L70.6630005,83.2874656 L70.6448924,83.3416172 L70.6052272,83.4226722 L70.620231,83.4819975 L70.6557573,83.5113153 L70.7000788,83.5356318 L70.7362948,83.5825402 L70.7428482,83.6320354 L70.7290516,83.7465471 L70.7362948,83.797767 L70.7595766,83.8029407 L70.8213163,83.8555402 L70.8770201,83.9148655 L70.8770201,83.9434935 L70.9920491,83.9671201 L71.053099,84.0223065 L71.0927642,84.0919792 L71.1496752,84.1587202 L71.1936518,84.1840715 L71.2760864,84.2099401 L71.3097156,84.2301176 L71.3285134,84.2742667 L71.3386884,84.3366963 L71.3545545,84.390158 L71.3907706,84.4120601 L71.4704459,84.5389887 L71.4963145,84.5612357 L71.6623909,84.5600285 L71.6911913,84.5872768 L71.7379272,84.6771271 L71.7560353,84.6990292 L71.8079449,84.6973046 L71.9060732,84.6421183 L71.9638464,84.6271145 L72.0093751,84.6505687 L72.0659412,84.7511113 L72.0947415,84.774738 L72.1747618,84.7993994 L72.268751,84.8449281 L72.3610157,84.930467 L72.3979216,85.0089351 L72.3979216,85.2198504 L72.384125,85.3397083 L72.3872292,85.395412 L72.41465,85.4181764 L72.4863922,85.4224878 L72.5234706,85.4431827 L72.5415786,85.4857797 L72.557962,85.5602813 L72.5536506,85.583563 L72.557962,85.7779225 L72.5455451,85.8415593 L72.5027757,85.9615896 L72.4891515,86.0645466 L72.4644901,86.133702 L72.4586266,86.1888884 L72.4422431,86.2387286 L72.3668793,86.3225429 L72.3623954,86.3265094 L72.331698,86.3815233 L72.462938,86.4339503 L72.4943253,86.4532655 L72.5015685,86.4684418 L72.5108812,86.5098316 L72.5234706,86.528112 L72.5762425,86.5557052 L72.5900391,86.5638107 L72.6560903,86.643486 L72.7066203,86.7295422 L72.7395596,86.8228417 L72.7493897,86.9235568 L72.7316266,87.0240994 L72.6638509,87.250191 L72.652986,87.3545277 L72.6638509,87.3781544 L72.6850631,87.408162 L72.7054131,87.4457577 L72.713691,87.4938733 L72.7024813,87.5392296 L72.6102166,87.7089276 L72.6942034,87.8261987 L72.7123114,87.8551715 L72.7828464,87.9127723 L72.8237188,87.9293282 L72.8639014,87.9308803 L72.9013247,87.9400205 L72.9313322,87.9817552 L72.9437492,88.039356 L72.9423695,88.1461071 L72.9632368,88.2037078 L73.0061787,88.2480294 L73.1919153,88.3980673 L73.2441699,88.4668778 L73.3928282,88.6503724 L73.4607764,88.736946 L73.5388995,88.8185184 L73.6070202,88.9062992 L73.6734163,89.1330806 L73.7322243,89.3815917 L73.9198579,89.9320756 L73.9333095,90.0162348 L73.9664214,90.2749208 L73.9952217,90.3968482 L74.1071466,90.4428943 L74.2283841,90.4737642 L74.2846052,90.5436094 L74.3385844,90.6898533 L74.3484144,90.7564218 L74.3273746,90.8155747 L74.2877094,90.8816259 L74.2575294,90.9475046 L74.2682218,91.0051053 L74.3661775,91.0856429 L74.4558554,91.0992671 L74.542429,91.0887472 L74.6348661,91.0920238 L74.6581479,91.1072001 L74.6885004,91.1530738 L74.7160935,91.1625589 L74.746446,91.1570403 L74.8266387,91.123756 L74.9397708,91.1268602 L74.9799533,91.156178 L75.0209982,91.2374054 L75.0927404,91.1651458 L75.264508,91.2908672 L75.3709142,91.2689651 L75.4164429,91.2993176 L75.4616267,91.3117345 L75.5016369,91.3015595 L75.5306097,91.2701723 L75.5306097,91.2689651 L75.5830367,91.2993176 L75.618563,91.2881079 L75.6504676,91.2675854 L75.693237,91.2689651 L75.7178984,91.2894875 L75.788261,91.3746815 L75.950026,91.4771212 L75.9977967,91.5386884 L75.9796887,91.6256069 L76.0436704,91.6202608 L76.1042029,91.6256069 L76.1590443,91.6478539 L76.2059528,91.6930378 L76.1469723,91.7634004 L76.1554227,91.7899588 L76.1976748,91.7949601 L76.2349256,91.8061698 L76.3302945,91.8987794 L76.3823766,91.9322361 L76.4434265,91.9443082 L76.7190134,91.837902 L76.8537026,91.9110239 L76.9999465,91.9481022 L77.1325662,92.0022538 L77.2289699,92.1205596 L77.2895024,92.0443334 L77.3029541,92.0272602 L77.4314348,92.0695122 L77.5806104,92.1550511 L77.7094361,92.1921294 L77.6721853,92.2973284 L77.6721853,92.3494105 L77.7261645,92.367691 L77.8499888,92.3683808 L77.8789617,92.4047693 L77.9884721,92.5684314 L78.0308966,92.6196512 L78.3946092,92.8055603 L78.569481,92.8579873 L78.7324532,92.8660928 L78.9526813,92.8067675 L79.0447735,92.8291869 L79.0839213,92.9540461 L79.1280704,92.9762931 L79.2270609,92.9435262 L79.3733048,92.8660928 L79.4374589,92.8617814 L79.7066649,92.9005843 L80.0031191,92.8660928 L80.3583813,92.8660928 L80.4501286,92.8921339 L80.4590964,92.9719816 L80.5223882,92.9899172 L80.9290427,93.0163032 L81.0213074,93.0369981 L81.1071912,93.0787327 L81.1947995,93.1487504 L81.2405007,93.2158363 L81.2789587,93.2987883 L81.3274192,93.3686336 L81.4636606,93.4283038 L81.6730238,93.6447378 L81.7573555,93.7014763 L81.831857,93.7328635 L81.9104976,93.7466601 L82.0100055,93.7506266 L82.0412203,93.787705 L82.0670889,93.8692773 L82.1157219,93.9437789 L82.2150573,93.9618869 L82.234545,93.9437789 L82.2355797,93.9423992 L82.2366145,93.9123917 L82.2457547,93.8870404 L82.2823157,93.8885925 L82.3126682,93.9148061 L82.3281893,93.9520569 L82.3473321,93.9851687 L82.3942405,94 L82.48754,93.9575755 L82.4904717,93.8572053 L82.4575324,93.7399343 L82.4440807,93.6447378 L82.4628786,93.6159374 L82.5691123,93.5385041 L82.6505122,93.5964498 L82.7593328,93.5635104 L82.7855463,93.5385041 L82.8445267,93.482283 L82.8583233,93.3979513 L82.9207529,93.3827751 L83.1452924,93.3979513 L83.4555432,93.3717378 L83.4636487,93.3272438 L83.4484724,93.0966683 L83.4374351,92.9486999 L83.3975975,92.8081471 L83.33672,92.7984895 L83.2875697,92.8303941 L83.2679095,92.9059305 L83.2584244,92.9999197 L83.2420409,93.0813196 L83.2072046,93.1366784 L83.1646076,93.1689279 L83.0500959,93.2218724 L83.0238824,93.247741 L83.0169841,93.2713676 L83.0035324,93.2768863 L82.9536922,93.2532596 L82.9300656,93.2325647 L82.91213,93.2006601 L82.8904004,93.1154662 L82.8931597,93.0451035 L82.948346,92.9214516 L82.9536922,92.8303941 L83.0200883,92.8604017 L83.0692387,92.8493644 L83.0999361,92.8015937 L83.1163195,92.7241604 L83.0614781,92.7008786 L83.0021527,92.6884617 L82.8752241,92.6855299 L82.8176234,92.6762172 L82.7731294,92.6525906 L82.7405349,92.6291364 L82.713804,92.6196512 L82.6562033,92.5589462 L82.6341287,92.4196007 L82.641027,92.2652513 L82.6643088,92.1564307 L82.59843,92.0500245 L82.576183,92.0044958 L82.5691123,91.9443082 L82.5858407,91.9015387 L82.6158482,91.8654951 L82.6310245,91.82583 L82.6032588,91.7678843 L82.566353,91.738739 L82.5347933,91.7411534 L82.5020264,91.7580542 L82.4590845,91.7678843 L82.4201091,91.718389 L82.4201091,91.6087061 L82.4478748,91.4990232 L82.4904717,91.449528 L82.5180649,91.4284882 L82.49737,91.388823 L82.4628786,91.3655412 L82.4440807,91.3931344 L82.4337333,91.41107 L82.4107964,91.4353865 L82.3776846,91.4538394 L82.3459525,91.449528 L82.3376745,91.4160712 L82.3787194,91.3117345 L82.3776846,91.2689651 L82.3485393,91.2587901 L82.2483416,91.2498223 L82.2150573,91.2374054 L82.1890162,91.1725614 L82.1829802,91.1025437 L82.1588362,91.0466676 L82.0745046,91.0249379 L82.0151792,91.0206265 L82.0027623,91.0014837 L82.0151792,90.9533681 L82.0289758,90.8071243 L82.0538097,90.7300358 L82.0589834,90.682955 L81.8991154,90.6291483 L82.0236296,90.5922424 L82.0658817,90.5561988 L82.0910605,90.4875608 L82.1034774,90.514809 L82.1355545,90.5606827 L82.1514205,90.5963814 L82.1222752,90.4268558 L82.018111,90.0805614 L81.969478,89.7394407 L81.8577256,89.4052183 L81.8266833,89.1779195 L81.8040914,89.0913459 L81.7659783,89.0137401 L81.7076877,88.9590711 L81.6331861,88.9342372 L81.5686871,88.93303 L81.5164325,88.9178538 L81.4821135,88.8514577 L81.4803889,88.7810951 L81.4912537,88.6764135 L81.5136732,88.5796649 L81.5460952,88.5291349 L81.5966252,88.551037 L81.8040914,88.7450515 L81.8592778,88.6446813 L81.7977105,88.577078 L81.6128362,88.4930913 L81.5592019,88.4311791 L81.5178122,88.3570224 L81.4912537,88.2640679 L81.4786643,88.039356 L81.4874597,87.9817552 L81.5369549,87.9595082 L81.7977105,87.9417451 L81.8620371,87.8922498 L81.8606574,87.8056762 L81.8040914,87.6742637 L81.8577256,87.6208019 L81.8266833,87.54768 L81.7808097,87.4830085 L81.7863283,87.4555878 L81.8592778,87.4474823 L81.9311925,87.4207514 L81.9900004,87.3781544 L82.0246644,87.3145176 L82.0122474,87.2486389 L81.9794805,87.1660318 L81.9670636,87.0960142 L82.0100055,87.0666964 L82.0289758,87.0254791 L82.036219,86.9342491 L82.0344944,86.8378455 L82.0246644,86.7812795 L82.0800232,86.7592049 L82.1115829,86.7024664 L82.1174464,86.631414 L82.0910605,86.5638107 L81.7808097,86.6610767 L81.6913043,86.7235062 L81.6030061,86.7635163 L81.4874597,86.7604121 L81.2558494,86.7055707 L81.1535822,86.6641809 L81.0832196,86.6176174 L81.0075108,86.5784696 L80.8905847,86.5638107 L80.6605266,86.5798492 L80.5555001,86.5513938 L80.491001,86.4532655 L80.6049953,86.4558524 L80.7155405,86.4822384 L80.8259132,86.4929307 L80.937838,86.4532655 L80.9895752,86.3858347 L80.9676732,86.3309933 L80.8990351,86.309781 L80.8059082,86.3504809 L80.7955607,86.3309933 L80.788145,86.3156446 L80.7817641,86.2785662 L80.8767881,86.2299332 L80.8202221,86.1224923 L80.6506965,85.9529667 L80.7167477,85.9529667 L80.6686321,85.8453533 L80.5085916,85.6856578 L80.491001,85.5602813 L80.6382796,85.6596167 L80.7555506,85.7753356 L81.1290933,86.3140924 L81.1442695,86.362553 L81.1456492,86.4077368 L81.1634123,86.4411935 L81.2253245,86.4532655 L81.2765443,86.4437804 L81.3025854,86.4189465 L81.3068968,86.384455 L81.2917206,86.3504809 L81.3772594,86.2232074 L81.4210636,86.2038922 L81.4500364,86.2785662 L81.524538,86.2133773 L81.5616163,86.1900956 L81.6128362,86.1706079 L81.5779998,86.0988656 L81.6361179,86.0645466 L81.743214,85.9584853 L81.8330642,85.9186477 L81.8125418,86.0162586 L81.8040914,86.1169737 L81.8209922,86.1780236 L81.8592778,86.1959591 L81.892562,86.1888884 L81.8991154,86.1706079 L81.9323997,86.1964765 L81.9543018,86.202685 L81.953267,86.2133773 L81.9158438,86.2589061 L81.8832493,86.2770141 L81.8330642,86.283395 L81.7411445,86.2785662 L81.7573555,86.2989162 L81.7659783,86.3171967 L81.7780503,86.3337526 L81.8040914,86.3504809 L81.7475254,86.4023906 L81.5779998,86.4915511 L81.666298,86.5539806 L81.7325216,86.5334582 L81.8330642,86.4206711 L82.1355545,86.2959844 L82.1860845,86.2589061 L82.1997086,86.1418075 L82.3925159,85.6016711 L82.4575324,85.522858 L82.4728811,85.4690513 L82.4892645,85.3662667 L82.5691123,85.1360362 L82.7115621,84.8685548 L82.7276006,84.8256129 L82.7405349,84.7097215 L82.7550213,84.6517759 L82.778648,84.6091789 L82.8341793,84.5389887 L82.8795356,84.4562092 L82.8947118,84.3737746 L82.8583233,84.3058264 L82.4440807,84.1287127 L82.3709588,84.0580051 L82.2504111,83.9077948 L82.2823157,83.8695092 L82.2659322,83.8141504 L82.3055974,83.6653197 L82.2823157,83.5825402 L82.2469619,83.6292761 L82.1931552,83.6523854 L82.1355545,83.651868 L82.0910605,83.6211706 L81.9405052,83.6554896 L81.831857,83.6380715 L81.74925,83.5659843 L81.6730238,83.4394006 L81.7506296,83.4088756 L81.7699448,83.4059438 L81.8085753,83.4169811 L81.8223719,83.4411251 L81.8266833,83.4625098 L81.8330642,83.4750992 L81.8592778,83.4833772 L81.8970459,83.5026924 L81.9311925,83.5113153 L81.957406,83.5038996 L81.969478,83.4554391 L81.9962089,83.4394006 L82.1253795,83.4281908 L82.3875147,83.4381934 L82.5085798,83.4059438 L82.4946107,83.4411251 L82.48754,83.4625098 L82.4766751,83.4819975 L82.4440807,83.5113153 L82.5592822,83.5026924 L82.7486404,83.4200853 L82.8583233,83.4059438 L82.9374812,83.4307777 L83.0049121,83.4875162 L83.0644099,83.5659843 L83.1163195,83.65411 L83.0212955,83.65411 L83.0212955,83.6929129 L83.1423606,83.7091239 L83.247732,83.6304833 L83.6136866,83.1031087 L83.7859715,82.7928579 L83.7904554,82.8090689 L83.791835,82.8242451 L83.7970088,82.8313159 L83.8206354,82.8285566 L83.8977239,82.6716204 L83.929456,82.628506 L83.978089,82.5790107 L83.9887814,82.5548667 L83.9832627,82.52141 L83.978089,82.4482881 L84.0077517,82.2446159 L83.9927479,82.1839109 L83.9446323,82.1425211 L83.9116929,82.1590771 L83.8934124,82.1685622 L83.8897908,82.1745982 L83.8961717,82.1902918 L83.9127277,82.2156431 L83.8382261,82.304976 L83.6110997,82.3987928 L83.5626392,82.4857113 L83.5547062,82.5533146 L83.5310795,82.6235048 L83.4996923,82.6835199 L83.4636487,82.7214605 L83.4101869,82.7430177 L83.4113941,82.7185288 L83.431744,82.6679988 L83.431744,82.6135022 L83.3865602,82.5379659 L83.3201641,82.4800202 L83.2346253,82.4432868 L83.1314958,82.430525 L83.0904509,82.37965 L83.1780593,82.2616892 L83.3710391,82.0680196 L83.2970548,82.0443929 L83.2773947,81.9930006 L83.2970548,81.9359172 L83.33672,81.8919406 L83.3932861,81.8807309 L83.4593372,81.9010808 L83.4953808,81.9410909 L83.4636487,81.9961048 L83.5919569,81.9635104 L83.7725198,81.8876292 L83.9375615,81.7836374 L84.0120631,81.671885 L84.0408635,81.671885 L84.0715609,81.7484561 L84.0453474,81.9079791 L84.0756999,81.9635104 L84.0605236,81.9892065 L84.0453474,82.0085218 L84.0298262,82.023698 L84.0120631,82.0349078 L84.1786569,82.0899217 L84.2309115,82.0680196 L84.2962728,81.9635104 L84.3454232,81.8555521 L84.3707744,81.765012 L84.3574952,81.6915451 L84.2962728,81.6365312 L84.4061282,81.4640739 L84.469765,81.3861231 L84.5249513,81.384571 L84.5316771,81.4623493 L84.4845963,81.5496127 L84.457348,81.6449816 L84.5249513,81.7439722 L84.4585552,81.8296835 L84.4159583,81.9152223 L84.362324,82.1061326 L84.441137,82.0707789 L84.5923821,82.0309412 L84.6655041,81.9793765 L84.829511,81.754837 L84.9065995,81.671885 L85.0747454,81.5678932 L85.122861,81.5001174 L85.0333556,81.3017915 L85.0528433,81.2074573 L85.098717,81.1172621 L85.1271724,81.02448 L85.0595692,80.8939298 L84.9214308,80.7280258 L84.8320979,80.5822993 L84.9065995,80.5133164 L84.971271,80.5490151 L85.0676747,80.6207573 L85.1563177,80.6621471 L85.1946033,80.6083404 L85.1811516,80.5257333 L85.1447631,80.466408 L85.0323209,80.371384 L84.9895515,80.3910441 L84.9779968,80.3575874 L84.9919659,80.3067125 L85.0323209,80.2663574 L85.0707789,80.2430757 L85.110789,80.2818786 L85.1946033,80.4113941 L85.2152982,80.4307093 L85.2677252,80.4596821 L85.2896273,80.4802046 L85.2987675,80.515041 L85.3020442,80.5645362 L85.3117018,80.6083404 L85.3367081,80.6278281 L85.4205224,80.6359336 L85.4634643,80.664734 L85.4786406,80.7257839 L85.4884706,80.9189361 L85.5143392,81.0024055 L85.5641794,81.0481067 L85.6395433,81.02448 L85.7224953,81.0896689 L86.2307271,80.8040795 L86.304194,80.782005 L86.4628548,80.6830144 L86.5533949,80.6607674 L86.8883071,80.4802046 L86.874683,80.3550005 L86.7410285,80.2353151 L86.5630525,80.1702987 L86.4237069,80.2097914 L86.3731769,80.2525608 L86.2929843,80.2965375 L86.2184827,80.298262 L86.1853709,80.2097914 L86.2265882,80.2006512 L86.4723399,80.0807933 L86.4338819,79.9828375 L86.4092205,79.9411028 L86.3759363,79.9028173 L86.3455838,79.8762589 L86.2490076,79.8309026 L86.1125938,79.7376031 L86.0575799,79.7193227 L86.0106715,79.7677832 L85.974628,79.7741641 L85.9332382,79.7193227 L85.9332382,79.6808647 L85.9596242,79.553936 L85.962211,79.4989221 L85.9497941,79.4454604 L85.9315136,79.4076922 L85.7995837,79.2288539 L85.7599185,79.1460744 L85.7406033,79.05243 L85.7362919,78.9203277 L85.7900986,78.9503353 L85.8120007,78.9684433 L85.8316608,78.995864 L85.8921933,78.961545 L85.9556576,78.9530946 L86.0175698,78.9712026 L86.0737909,79.013972 L86.1125938,79.0634673 L86.1265629,79.0965791 L86.1329438,79.1365892 L86.152604,79.2097111 L86.1607095,79.2511009 L86.1591573,79.2867996 L86.1622616,79.3199114 L86.1853709,79.3581969 L86.2077903,79.3663024 L86.2709097,79.3642329 L86.2985029,79.3776846 L86.3479982,79.3942405 L86.4047366,79.3776846 L86.4526798,79.3702689 L86.4723399,79.4133833 L86.5120051,79.5404844 L86.6870493,79.4189019 L86.7272319,79.5182374 L86.6982591,79.6213669 L86.6280689,79.6425791 L86.5440822,79.6520643 L86.4723399,79.7193227 L86.615652,79.6963858 L86.7777619,79.6313694 L87.0481751,79.4658103 L86.890894,79.4189019 L86.8276021,79.376305 L86.8431233,79.3019758 L86.8591618,79.2562746 L86.8467449,79.216437 L86.8307063,79.1793586 L86.8276021,79.1383138 L86.8453652,79.1157219 L86.8757177,79.0951994 L86.9046905,79.0648469 L86.9171075,79.013972 L86.9033109,78.9725823 L86.8676122,78.9887932 L86.8276021,79.0224224 L86.7932831,79.0331148 L86.7615509,78.9903454 L86.7272319,78.9108425 L86.7025705,78.8170257 L86.6982591,78.7395923 L86.7272319,78.7395923 L86.7437878,78.7839139 L86.8276021,78.9203277 L86.8453652,78.8996328 L86.8895143,78.8729019 L86.9171075,78.8484129 L86.9848832,78.9186031 L87.0112692,78.9998305 L87.0004044,79.0772639 L86.9531511,79.1383138 L86.9764328,79.1874641 L87.1119843,79.3212911 L87.1390601,79.3733732 L87.1407847,79.4090719 L87.159755,79.4206265 L87.2394303,79.3969998 L87.3365238,79.337502 L87.4605206,79.1848773 L87.5581315,79.1383138 L87.5291587,79.2097111 L87.6326331,79.143315 L87.6962699,79.1157219 L87.7693918,79.1045121 L87.8644158,79.1074439 L87.8959755,79.1264142 L87.8764878,79.1793586 L87.7693918,79.3538855 L87.7454202,79.4121761 L87.7693918,79.4520137 L87.8644158,79.4658103 L87.9280526,79.4559803 L87.9882402,79.4352854 L88.055671,79.4218337 L88.134484,79.4304566 L88.134484,79.4658103 L88.1051663,79.4658103 L88.0325617,79.5277225 L87.8188871,79.5513492 L87.7361075,79.5939462 L87.7171372,79.6748287 L87.8171625,79.6779329 L88.0391151,79.6136063 L88.314702,79.4839184 L88.409726,79.4658103 L88.472328,79.4411489 L88.6511663,79.337502 L88.7432586,79.3212911 L88.8317292,79.3690617 L88.860702,79.4559803 L88.8438012,79.5375526 L88.7932712,79.5749758 L88.6937633,79.5956707 L88.0227317,79.9390333 L87.865623,80.0542349 L87.7528359,80.1923732 L87.8959755,80.1273568 L88.1960513,79.9411028 L88.4649124,79.8521148 L88.7501568,79.6256783 L89.2302782,79.5128912 L89.5343205,79.3613012 L90.0844595,78.995864 L89.9176932,79.0127648 L89.7388549,79.0814029 L89.0978309,79.4482197 L89.0836894,79.4620163 L89.0536818,79.471329 L89.0207425,79.4744332 L88.9984955,79.4658103 L88.9793527,79.4344231 L88.9846989,79.4149354 L88.9967709,79.3942405 L89.0026344,79.3061148 L89.0207425,79.2562746 L89.0274683,79.2026404 L88.9984955,79.1383138 L89.627275,78.9065311 L89.8004222,78.8880781 L90.0170287,78.9011849 L90.2262195,78.8856637 L90.4317887,78.8346164 L90.6327015,78.7395923 L91.1676642,78.3908835 L91.4860205,78.1647919 L91.5674204,78.1330598 L91.6722745,78.1206428 L91.7257363,78.0861514 L91.9764893,77.8674754 L92.2294843,77.5849903 L92.3610692,77.511351 L92.7001204,77.2438696 L92.7358191,77.1767837 L92.7447869,77.1048689 L92.7416826,77.0145013 L92.7046043,76.7922037 L92.6992581,76.677692 L92.7416826,76.5592138 L92.6823573,76.4214204 L92.6466586,76.3776162 L92.7277136,76.4196958 L92.8025601,76.4295259 L92.8625753,76.4584987 L92.9015506,76.5592138 L93.0300314,76.4847122 L93.138852,76.4019327 L93.4459985,76.0470154 L93.4485854,76.0316667 L93.4432392,75.9888973 L93.4459985,75.9738935 L93.4594502,75.9707893 L93.4994603,75.9775151 L93.5132569,75.9738935 L93.6082809,75.9033585 L93.6512228,75.8592094 L93.6719177,75.791951 L93.7039948,75.791951 L93.7778065,75.8521386 L93.8498937,75.8095416 L93.9033555,75.7076193 L93.9240504,75.5919005 L93.9609562,75.4867015 L94.0485646,75.4603155 L94.146003,75.4867015 L94.2161932,75.5382662 L94.2301622,75.5160192 L94.2436139,75.5079137 L94.259135,75.5036023 L94.2786227,75.4980836 L94.069087,75.4028872 L94.008382,75.3918499 L93.9583694,75.3545991 L93.8293713,75.134716 L93.8248874,75.1450634 L93.8235077,75.1617918 L93.8178166,75.1643786 L93.8069518,75.1643786 L93.8069518,75.1781752 L93.8083315,75.1883502 L93.8293713,75.2068031 L93.8293713,75.245951 L93.708996,75.241812 L93.6900257,75.1700697 L93.6845071,75.0817716 L93.606039,75.0239983 L93.606039,74.9882997 L93.6732974,74.9660527 L93.7396934,74.9329408 L93.7945349,74.8808587 L93.8293713,74.8063571 L93.4830769,74.6997785 L93.3297623,74.600788 L93.367358,74.4576483 L93.4168532,74.406256 L93.4873883,74.3129566 L93.5132569,74.2232788 L93.35908,74.143431 L93.3328665,74.0522011 L93.3604597,73.9542453 L93.4459985,73.8909534 L93.4254761,73.8412857 L93.3961584,73.8211082 L93.3547686,73.8166243 L93.3037212,73.8178315 L93.2545709,73.805587 L93.2142158,73.7752345 L93.1436808,73.688316 L93.1664451,73.6638271 L93.4459985,73.672105 L93.5931047,73.7614379 L93.7340023,73.8897462 L93.8754174,73.9557974 L94.0263176,73.8540475 L94.1004743,73.6733122 L94.1499695,73.5034417 L94.1856682,73.4529117 L94.2686202,73.4053135 L94.4365937,73.3368479 L94.5443795,73.2766603 L94.5826651,73.2666577 L94.6197434,73.2902844 L94.6397485,73.391172 L94.6794136,73.4129016 L94.7663322,73.4346312 L94.7868546,73.492232 L94.7882342,73.575184 L94.8225533,73.672105 L94.7827156,73.7890311 L94.7249424,74.0437507 L94.6600984,74.2367304 L94.5761117,74.412292 L94.5167863,74.493347 L94.4681534,74.515594 L94.4022747,74.5254241 L94.3500201,74.5431872 L94.3415697,74.5869914 L94.3765785,74.6342447 L94.4243492,74.6545947 L94.4810877,74.6601133 L94.7235627,74.6244146 L95.4056316,74.4233293 L95.4897908,74.4274683 L95.5639475,74.4600627 L95.638794,74.5293906 L95.729679,74.5650893 L95.7993518,74.5126622 L95.8426386,74.472997 L95.8452255,74.5473262 L95.814873,74.6433849 L95.7562375,74.6877065 L95.6741477,74.6975365 L95.4399506,74.6847747 L95.3989058,74.6975365 L95.3452715,74.7315106 L95.2045463,74.8794791 L95.1698824,74.9027608 L95.1221117,74.9246629 L95.0691673,74.9410463 L94.958967,74.9608789 L94.8377295,75.0239983 L94.4605652,75.3947817 L94.4203827,75.4665239 L94.4410776,75.5173989 L94.5493808,75.5382662 L94.6454395,75.4941171 L94.8858451,75.2068031 L95.0570953,75.0831512 L96.5455748,74.4078082 L97.1022672,74.1982725 L97.4963323,73.9766647 L97.6344707,73.9144076 L97.8296924,73.8540475 L97.9350639,73.8428378 L98.4998617,73.8540475 L98.6374827,73.8938852 L98.6914619,73.8909534 L98.7649287,73.7974815 L98.6900822,73.6320949 L98.4363974,73.3368479 L98.3261972,73.1397291 L98.3617234,72.9472667 L98.7283678,72.4192022 L98.7738965,72.3215914 L98.792177,72.2239805 L98.8470184,72.1982843 L98.968256,72.1944903 L99.0608656,72.2039754 L99.0608656,72.2025958 L99.1558896,72.0346223 L99.4300968,71.7229918 L99.3943981,71.6586652 L99.4025036,71.6084801 L99.461484,71.5029362 L99.4923539,71.3804915 L99.4894221,71.2944353 L99.4725213,71.2173468 L99.461484,71.1183563 L99.4523438,71.0826576 L99.406815,71.0038446 L99.3956053,70.9502104 L99.4037108,70.8893329 L99.4480324,70.7832716 L99.461484,70.7296374 L99.4399269,70.60771 L99.3721511,70.5313114 L99.3014436,70.4652602 L99.2686767,70.3828256 L99.2509136,70.1448345 L99.2657449,70.0418774 L99.3319685,69.9208123 L99.4449281,69.7800871 L99.4809717,69.7069652 L99.4937336,69.6062501 L99.4880425,69.5636531 L99.4300968,69.402233 L99.4342358,69.3963695 L99.4300968,69.2922052 L99.4175074,69.2673714 L99.3806015,69.2425375 L99.36646,69.2152892 L99.3680121,69.108883 L99.4095744,69.013859 L99.4809717,68.9460833 L99.5718567,68.9198698 L99.5816868,68.8636487 L99.6494626,68.5958224 L99.6874032,68.512353 L99.8477885,68.3840447 L99.8929724,68.3062664 L99.9307405,68.0489601 L100.100094,67.7366398 L100.125962,67.6467895 L100.133033,67.5985014 L100.134068,67.533485 L100.129411,67.4731249 L100.10544,67.3698229 L100.100094,67.3104976 L100.117512,67.2535867 L100.159074,67.2080579 L100.230644,67.145111 L100.259789,67.0882001 L100.266343,67.0647458 L100.230644,66.9942108 L100.196497,66.9545456 L100.121996,66.8376195 L100.081813,66.7150023 L100.150969,66.6580914 L100.193393,66.6517105 L100.320322,66.6122177 L100.3574,66.5868665 L100.375508,66.5327149 L100.35602,66.4927048 L100.291349,66.4347591 L100.16649,66.2333289 L100.175458,66.1729688 L100.219952,66.1001918 L100.230644,66.0463851 L100.242888,65.8051172 L100.218572,65.7159568 L100.134068,65.6950894 L100.043528,65.719061 L100.026972,65.719061 L100.013175,65.7159568 L100.003345,65.7114729 L99.9892036,65.7007805 L99.975407,65.6862941 L99.963335,65.6674962 L99.9538498,65.638351 L99.9340172,65.4936592 L99.9276363,65.4650313 L99.90263,65.4248487 L99.8876262,65.3972555 L99.8760715,65.3603497 L99.8669313,65.3160281 L99.8576186,65.2855032 L99.8450292,65.2596346 L99.8300254,65.2373876 L99.7784607,65.1822012 L99.6587753,65.0802789 L99.6379079,65.0559624 L99.6227317,65.0221608 L99.6129016,64.96456 L99.6191101,64.9276541 L99.6282503,64.895922 L99.6480829,64.8476339 L99.6618795,64.8252145 L99.7212048,64.7501955 L99.7231019,64.7317426 L99.7153413,64.7165663 L99.6506698,64.6737969 L99.5789275,64.5949839 L99.5321915,64.5313471 L99.5166704,64.4961658 L99.5028738,64.44874 L99.4906293,64.3621664 L99.4782124,64.3168101 L99.4630361,64.2835259 L99.4437209,64.2674873 L99.4175074,64.2559327 L99.3624935,64.2407564 L99.3409363,64.2298916 L99.3226558,64.2152327 L99.3088593,64.190054 L99.2993741,64.1665998 L99.2893716,64.1226231 L99.2923033,64.0962372 L99.305755,64.07468 L99.3559401,64.0426029 L99.3580096,64.0412233 L99.3637007,64.03398 L99.3752553,64.0189763 L99.388707,63.9900034 L99.3856028,63.9617204 L99.370599,63.9391285 L99.3486969,63.9239522 L99.3212762,63.9132599 L99.2081442,63.8784235 L99.1822755,63.8646269 L99.1586489,63.8494507 L99.1184663,63.8159939 L98.9929174,63.6773382 L98.9477335,63.6138739 L98.9187607,63.5645511 L98.9063438,63.5328189 L98.8897878,63.4797021 L98.8870285,63.4391746 L98.8897878,63.4000268 L98.9091031,63.3441506 L98.9284183,63.3048303 L98.9349717,63.2748227 L98.9420424,63.2291215 L98.9503204,63.0759794 L98.9575636,63.0266566 L98.9791208,62.940083 L98.9808453,62.9083508 L98.9765339,62.8804127 L98.9656691,62.8597178 L98.9517,62.8422996 L98.9349717,62.8253988 L98.9187607,62.7829743 L98.9008251,62.7191651 L98.8689205,62.5085946 L98.8568485,62.4589269 L98.7369906,62.2812958 L98.7038788,62.2126578 L98.684736,62.1588511 L98.662489,62.1074588 L98.6210993,62.0341644 L98.5574625,61.9515573 L98.4667499,61.8565333 L98.4253602,61.8225592 L98.2723905,61.7451258 L98.2515231,61.7315017 L98.2320354,61.7146009 L98.2158245,61.6944234 L98.1204555,61.5176546 L98.0985534,61.4914411 L98.0406078,61.4462572 L98.0104277,61.4293564 L97.9471359,61.3827929 L97.9224745,61.3534752 L97.9126444,61.3334701 L97.908333,61.3219155 L97.9100575,60.9154334 L97.9100575,60.2718225 L97.9109198,59.6264871 L97.9126444,58.981669 L97.9140241,58.3356437 L97.9140241,57.6887561 L97.9154037,57.0410062 L97.9166109,56.392394 L97.9183355,55.743092 L97.9109198,55.0799935 L97.9059186,54.4175847 L97.8988478,53.7544861 L97.8935016,53.089663 L97.8890177,52.7278474 L97.8890177,52.7237084 L97.8452136,52.7052555 L97.7750234,52.670764 L97.6401618,52.5693591 L97.5546229,52.6128183 L97.4580468,52.6186819 L97.3669893,52.593848 L97.208501,52.5015833 L97.1379659,52.527107 L97.0777783,52.5816036 L97.013969,52.6104039 L96.7880499,52.4943401 L96.7095818,52.4974444 L96.6609488,52.5634955 L96.6283544,52.6531734 L96.5798938,52.7011165 L96.4862495,52.6488619 L96.387259,52.6983572 L96.3017201,52.6805941 L96.2686083,52.6271323 L96.326554,52.5693591 L96.326554,52.5345227 L96.209283,52.5524583 L96.095806,52.5200363 L96.0106121,52.4393262 L95.9762931,52.3236073 L95.9304194,52.2215126 L95.8509166,52.2023698 L95.8262551,52.1970236 L95.7077769,52.1928846 L95.6218932,52.1504601 L95.6218932,52.1885732 L95.4013202,52.112692 L95.3328546,52.0769933 L95.3480309,52.0454336 L95.3632071,52.0249112 L95.2638717,52.0147362 L95.1405646,52.0354311 L95.1065905,51.9888676 L95.0529563,51.9555833 L94.9879399,51.9350609 L94.9220612,51.9212643 L94.8918811,51.9240236 L94.8377295,51.9504096 L94.8046177,51.9555833 L94.7784042,51.9447185 L94.7390839,51.8953957 L94.6575116,51.8540059 L94.5826651,51.7229383 L94.5167863,51.6925858 L94.4605652,51.6886193 L94.3415697,51.6508511 L94.0358027,51.5973894 L93.8607585,51.424932 L93.7931552,51.3040394 L93.7683214,51.269203 L93.7226202,51.2362636 L93.6817478,51.2185005 L93.65243,51.184354 L93.640358,51.0996774 L93.6279411,51.0719117 L93.5987958,51.0419042 L93.5618899,51.0160356 L93.5273984,51.0063779 L93.3661508,51.0010318 L93.2944085,50.9770602 L93.2199069,50.9260128 L93.0714211,50.7747677 L92.9900213,50.7178568 L92.8437774,50.6823306 L92.8177363,50.6502535 L92.7996283,50.6105883 L92.774622,50.5774765 L92.7211602,50.5431575 L92.4136687,50.4386483 L92.3367527,50.4508928 L92.2481097,50.5222901 L92.2208614,50.6066218 L92.2141356,50.70475 L92.1875771,50.7647652 L92.133598,50.7351025 L92.1063497,50.7787342 L92.070651,50.8023609 L92.0278816,50.8187443 L91.9780414,50.8489244 L91.9254419,50.8173647 L91.8925026,50.815985 L91.878706,50.8668599 L91.8762916,50.9104917 L91.8647369,50.9344632 L91.8461115,50.9482598 L91.815759,50.9630911 L91.7755765,50.9687822 L91.3859953,50.9561929 L91.3342581,50.9630911 L91.304078,50.9248056 L91.2737255,50.9003167 L91.2380268,50.8880722 L91.1940502,50.8832434 L91.1737003,50.8961777 L91.1457622,50.919287 L91.1209283,50.9289446 L91.1114431,50.9042832 L91.091783,50.8780697 L91.0807457,50.8584095 L91.0824703,50.8489244 L90.9350193,50.8480621 L90.8756939,50.8146054 L90.9196705,50.7351025 L90.8837994,50.6474942 L90.8313724,50.6050697 L90.7722195,50.57351 L90.711342,50.5222901 L90.6496023,50.4988359 L90.5973477,50.547124 L90.5354355,50.6547374 L90.4997369,50.6533577 L90.4219586,50.6242124 L90.4071272,50.6371467 L90.2965821,50.6959547 L90.2498461,50.7083716 L90.1975915,50.7373445 L90.1503382,50.7747677 L90.1206756,50.8104664 L90.072215,50.8063274 L90.0018524,50.815985 L89.8488827,50.8104664 L89.817323,50.8459926 L89.8368107,51.0049983 L89.785246,51.0410419 L89.7538587,51.0284525 L89.7274728,51.0020665 L89.7026389,50.9630911 L89.6653881,50.9756805 L89.6381398,51.0020665 L89.6105467,51.0410419 L89.479824,51.0625991 L89.4258448,51.0489749 L89.1611228,50.8810014 L89.1112826,50.8301265 L89.0633394,50.815985 L89.0052213,50.8501316 L88.955726,50.903076 L88.9352036,50.9439484 L88.9020918,50.9413615 L88.8300046,50.9798195 L88.7432586,51.0410419 L88.5864948,51.1083003 L88.5200987,51.1164058 L88.2817626,51.1164058 L88.2351991,51.1291676 L88.1396578,51.1815946 L88.0889553,51.1934942 L88.0432541,51.2321246 L87.960647,51.424932 L87.9151183,51.4982264 L87.8273375,51.5528954 L87.7426609,51.5632428 L87.5446798,51.5406509 L87.4220626,51.5575517 L87.3930898,51.6072194 L87.3941246,51.6910337 L87.368256,51.8069251 L87.2389129,51.8995347 L87.09905,51.7669149 L86.9669477,51.5585864 L86.8586444,51.424932 L86.7725882,51.4085485 L86.4556116,51.424932 L86.421465,51.4071689 L86.4031845,51.3628473 L86.3923197,51.3105927 L86.3773159,51.269203 L86.3509299,51.2460937 L86.2490076,51.1934942 L86.0575799,51.1343413 L85.9996343,51.0719117 L85.9818712,51.0513893 L85.9677297,51.0267279 L85.9608314,50.9989623 L85.9608314,50.9687822 L85.9694542,50.9413615 L86.0201567,50.8366799 L86.0077398,50.8033956 L85.9694542,50.7637304 L85.8533904,50.7166496 L85.7900986,50.6995763 L85.741638,50.7016458 L85.7183563,50.7150975 L85.6978339,50.7351025 L85.6686886,50.781666 L85.608156,50.955503 L85.5955667,50.9815441 L85.580218,51.0049983 L85.5641794,51.0267279 L85.5431396,51.0448359 L85.5088206,51.0610469 L85.4603601,51.075016 L85.3706822,51.0863982 L85.3203247,51.0845011 L85.2801421,51.0763956 L85.2556532,51.0625991 L85.1335534,50.9706793 L85.0861276,50.9467077 L85.0471522,50.9403268 L84.8802135,50.9630911 L84.8362369,50.9591246 L84.8019178,50.9482598 L84.7793259,50.9317039 L84.7236222,50.8727235 L84.6948218,50.8273672 L84.6722299,50.7720084 L84.6432571,50.6150722 L84.6229071,50.5581612 L84.6004876,50.5316028 L84.5678932,50.5060791 L84.504084,50.4788309 L84.45959,50.4698631 L84.4199248,50.4698631 L84.2602292,50.4988359 L84.2340157,50.5114253 L84.2090094,50.5250494 L84.1746904,50.5678189 L84.1786569,50.6411132 L84.1679646,50.7759749 L84.0948426,50.9289446 L84.0231004,51.0227614 L83.9199709,51.0501821 L83.7544118,51.0063779 L83.7611376,51.0919168 L83.7944219,51.1302023 L83.8318451,51.1576231 L83.8499532,51.2140166 L83.8287409,51.2547166 L83.7392355,51.3069711 L83.7199203,51.3678486 L83.709228,51.530131 L83.6680106,51.6736155 L83.5809197,51.7639832 L83.4334686,51.7695018 L83.3232684,51.6989667 L83.2322109,51.5735902 L83.1685741,51.424932 L83.1452924,51.2900703 L83.1658148,51.1947014 L83.254113,51.0541486 L83.2756701,50.9630911 L83.2635981,50.8946256 L83.2278994,50.8309888 L83.1759898,50.7773546 L83.1163195,50.7351025 L83.0875191,50.7523482 L83.0295735,50.7759749 L83.0035324,50.7939105 L82.9826651,50.8202964 L82.9671439,50.8611688 L82.8845368,51.0049983 L82.8583233,51.0410419 L82.7348438,50.9289446 L82.6781053,50.9134234 L82.6032588,50.9630911 L82.5939462,50.9815441 L82.5679051,51.0381101 L82.5525564,51.0610469 L82.5296196,51.0863982 L82.4797794,51.1164058 L82.4590845,51.135721 L82.4232134,51.1619345 L82.3709588,51.1796976 L82.0670889,51.1990128 L81.9931047,51.1521044 L81.9644768,51.0227614 L81.9518874,50.9070425 L81.9141192,50.8351278 L81.8454812,50.7954626 L81.7411445,50.7759749 L81.4407237,50.7966698 L81.3715683,50.7554525 L81.3287989,50.6502535 L81.3332828,50.4424424 L81.2917206,50.3486255 L81.1152967,50.2618795 L80.9316296,50.3229294 L80.7679675,50.4550317 L80.3664868,50.8584095 L80.1833371,50.9706793 L79.9781128,51.0063779 L79.7797868,50.9413615 L79.6740704,50.8853129 L79.6280243,50.8301265 L79.6392341,50.747347 L79.6476845,50.7125106 L79.6571696,50.6547374 L79.6890742,50.5386736 L79.6890742,50.4850393 L79.6571696,50.4243343 L79.6861425,50.3598353 L79.6775196,50.3018896 L79.643373,50.2561884 L79.5961197,50.2686053 L79.431078,50.2104872 L79.2008474,50.1642686 L79.024596,50.0742459 L79.0161456,49.889544 L78.9930363,49.7700311 L79.0107994,49.6034373 L79.0133863,49.4558137 L78.9402643,49.3907973 L78.8217861,49.4090778 L78.6024203,49.4887531 L78.4592807,49.5068611 L77.8351575,49.4271858 L77.7166793,49.4601252 L77.6435574,49.5410077 L77.5868189,49.6431024 L77.5180084,49.7369193 L77.493347,49.7883116 L77.3803874,49.8083166 L77.1463628,49.8096963 L77.0756553,49.7670993 L76.9204436,49.586364 L76.8604285,49.5439395 L76.8286963,49.513587 L76.7547121,49.3795876 L76.7021126,49.3499249 L76.5494878,49.3164682 L76.4925769,49.3142262 L76.3878953,49.3344038 L76.0750576,49.4642642 L76.0203886,49.4335667 L75.4340336,49.306983 L75.3407341,49.2719742 L74.9889211,49.0426059 L74.8842395,49.0184619 L74.8100828,49.0369148 L74.7354088,49.068302 L74.6362458,49.0850304 L74.542429,49.0712338 L74.3646254,49.017772 L74.2696014,49.0034581 L74.0523051,49.0136331 L73.9471061,48.9924208 L73.8674308,48.9282667 L73.8494953,48.8373816 L73.8372508,48.5323045 L73.8539792,48.465736 L73.8726046,48.4207246 L73.7912047,48.3231137 L73.6480651,48.1948055 L73.6040884,48.1047827 L73.575288,48.0033778 L73.5297593,47.9188737 L73.4354251,47.8833475 L73.3466096,47.8776564 L73.2995287,47.8667915 L73.2593461,47.8483386 L73.2195085,47.808501 L73.1988136,47.7674561 L73.1865691,47.7286532 L73.1644946,47.6945066 L73.077921,47.632422 L73.0073859,47.6293178 L72.9601326,47.6945066 L72.9325394,47.9738876 L72.8956336,48.059254 L72.8250985,48.0940904 L72.7154156,48.0832255 L72.6172874,48.0442502 L72.4391389,47.9454321 L72.2145994,47.913355 L72.1733821,47.9245648 L72.1321648,47.9519855 L72.0783581,48.0142426 L72.0450738,48.0404561 L71.959535,48.0677044 L71.6772222,48.0404561 L71.5908211,48.0126905 L71.5313233,47.9490537 L71.4402658,47.810398 L70.6523081,47.0534826 L70.6064344,47.0231301 L70.50296,47.0039873 L70.4603631,46.9791535 L70.3884483,46.9570789 L70.1790851,46.9874314 L70.1035488,46.9946746 L70.1035488,46.6744213 L70.1023416,46.0323625 L70.1023416,45.3885792 L70.1009619,44.7454856 L70.1009619,44.1006675 L70.0994098,43.4549871 L70.0980301,42.8068923 L70.0980301,42.1600048 L70.096478,41.5101854 L70.0950983,40.8614008 L70.0950983,40.2107191 L70.0938911,39.5600375 L70.0938911,38.906769 L70.0921666,38.2536729 L70.0907869,37.5991972 L70.0907869,36.9443766 L70.0897522,36.2885212 L70.0897522,36.0020695 L68.5210799,36.0020695 L67.6443067,36 L56.0955265,36 Z M94.220677,75.5781039 L94.2161932,75.6100085 L94.2161932,75.57362 L94.2118817,75.5891411 L94.2118817,75.6043174 L94.2053283,75.6138025 L94.1822191,75.6100085 L94.1822191,75.6467419 L94.2631016,75.6605385 L94.2755185,75.7269346 L94.2453384,75.7985044 L94.1994648,75.8316162 L94.1899796,75.8371348 L94.0866777,75.8652454 L94.0647756,75.8926661 L94.0263176,75.9738935 L93.8293713,76.1310022 L93.8124705,76.1553187 L93.7424528,76.1584229 L93.6870939,76.1735992 L93.65243,76.2118847 L93.640358,76.2853515 L93.5849992,76.3619226 L93.2381874,76.5769769 L93.0460699,76.7440881 L92.9582891,76.8415265 L92.9015506,76.9577628 L92.9329379,76.9577628 L93.0134755,76.8529087 L93.6870939,76.3719251 L93.8966296,76.293457 L94.5995659,75.7157248 L94.3098375,75.6100085 L94.2510295,75.6043174 L94.2453384,75.57362 L94.2274029,75.5708607 L94.220677,75.5781039 Z M87.489321,80.2487668 L87.3125522,80.3550005 L87.0481751,80.5879904 L87.0481751,80.6278281 L87.1390601,80.617998 L87.2161486,80.5645362 L87.3351441,80.4445059 L87.4496558,80.4129462 L87.4853545,80.363106 L87.584345,80.2887769 L87.6214234,80.2663574 L87.6178018,80.2539405 L87.6326331,80.2404888 L87.6517759,80.2323833 L87.6888542,80.2280719 L87.6888542,80.1923732 L87.489321,80.2487668 Z M86.8191517,80.6897403 L86.7777619,80.6995703 L86.7605162,80.7228521 L86.7643102,80.8346045 L86.7615509,80.877029 L86.7049849,80.9736051 L86.6484189,81.0024055 L86.4723399,80.9844699 L86.3702452,80.998094 L86.3098851,81.0329304 L86.2141712,81.1322659 L85.9982546,81.2300492 L85.962211,81.2576424 L85.9170272,81.3112766 L85.7200809,81.416993 L85.6755869,81.5099475 L85.6369564,81.5418521 L85.4576008,81.6489482 L85.4027593,81.671885 L85.327223,81.6834396 L85.1764952,81.7329349 L85.0814712,81.7439722 L85.0033481,81.7836374 L84.9824807,81.8764194 L84.997657,81.97541 L85.0323209,82.0349078 L85.0323209,82.0680196 L84.9779968,82.1216538 L84.9257422,82.2071927 L84.8874567,82.304976 L84.8722805,82.3974131 L84.9065995,82.3974131 L84.9426431,82.3075629 L84.9985192,82.2294397 L85.1271724,82.1061326 L85.3768907,81.9217757 L85.4939893,81.795192 L85.9332382,81.5634093 L86.1896823,81.3431812 L86.3360986,81.2467776 L86.4890683,81.2074573 L86.8276021,81.0398287 L86.8358801,81.0179266 L86.8757177,80.9568767 L86.8883071,80.9158319 L86.8922736,80.8716828 L86.8883071,80.7321648 L86.8719236,80.6843941 L86.8498491,80.6773233 L86.8191517,80.6897403 Z M84.6655041,82.0873348 L84.6306677,82.145108 L84.6061787,82.1973626 L84.5713423,82.2358206 L84.5071882,82.2508244 L84.2340157,82.719736 L84.2340157,82.7461219 L84.3235211,82.7706109 L84.3252457,82.8030329 L84.2962728,82.8620133 L84.2736809,82.8947802 L84.1364049,83.0437834 L83.9661894,83.2948813 L83.9046222,83.4544044 L83.9446323,83.5494284 L83.9722254,83.4473336 L84.0382766,83.3455838 L84.2026285,83.1508794 L84.3937113,82.8620133 L84.8062293,82.3974131 L84.8200259,82.3489526 L84.8267517,82.2306469 L84.8402034,82.1782198 L84.8281314,82.1344157 L84.7838098,82.0845755 L84.7244845,82.0581895 L84.6655041,82.0873348 Z M83.7904554,83.6089262 L83.7544118,83.7465471 L83.7244042,83.8017335 L83.5283202,83.983676 L83.4003568,84.1395775 L83.1452924,84.6990292 L83.1163195,84.6990292 L83.0816556,84.6421183 L83.0295735,84.6040052 L82.9193732,84.5600285 L82.9409304,84.6421183 L82.9671439,84.701616 L82.9621426,84.7511113 L82.8904004,84.8064701 L82.9055766,84.9099445 L82.8217623,85.0475655 L82.7165633,85.1867386 L82.6643088,85.2914202 L82.6548236,85.3524702 L82.5691123,85.5242377 L82.5480725,85.5963249 L82.5085798,85.8115517 L82.3652677,86.1500855 L82.2871445,86.7260931 L82.2504111,86.8133565 L82.2935254,86.8392251 L82.3264648,86.8240489 L82.3776846,86.7416143 L82.4535659,86.5660527 L82.5511767,86.133702 L82.8260738,85.3959294 L83.2596316,84.5539925 L83.8499532,83.6929129 L83.9006556,83.6380715 L83.8606455,83.5908181 L83.7904554,83.6089262 Z M82.2783492,87.0003003 L82.2521356,87.2462245 L82.2150573,87.3545277 L82.2521356,87.4483446 L82.2483416,87.5463003 L82.2150573,87.7434191 L82.2245425,87.8467211 L82.2673119,88.0369416 L82.3055974,88.5260307 L82.2947326,88.7083181 L82.2504111,88.8873288 L82.390274,89.0937603 L82.4092443,89.1351501 L82.4164875,89.1560174 L82.4397693,89.1974072 L82.4440807,89.22638 L82.4337333,89.2444881 L82.3875147,89.2567325 L82.3776846,89.277255 L82.3830308,89.3196795 L82.3942405,89.3574476 L82.4133833,89.3902145 L82.4440807,89.4207395 L82.4092443,89.4586801 L82.471329,89.5821596 L82.5296196,89.8079063 L82.5691123,89.9168993 L82.6215393,90.0038178 L82.6430965,90.0533131 L82.6982829,90.3452834 L82.7429493,90.4561735 L82.853322,90.6569139 L82.8904004,90.7741849 L82.942655,91.1735962 L82.9852519,91.3072506 L83.0664793,91.4422848 L83.1013157,91.5276512 L83.1930631,92.5906784 L83.2278994,92.6812185 L83.2706689,92.7105363 L83.3077472,92.6196512 L83.3049879,92.5296285 L83.2558375,92.2531793 L83.1877169,92.0957257 L83.1766796,91.9906992 L83.1796114,91.7678843 L83.1621932,91.6502683 L83.0952797,91.4407326 L83.055787,91.1308268 L83.0269866,91.01666 L82.9852519,90.9504363 L82.9924951,90.8885242 L82.505648,89.2744956 L82.3500914,88.3630584 L82.3143928,87.0266863 L82.3459525,86.9235568 L82.2783492,87.0003003 Z" id="Page-1"></path>
            </g>
        </g>
    </g>
</svg>