<?xml version="1.0" encoding="UTF-8" standalone="no"?>
<svg width="37px" height="61px" viewBox="0 0 37 61" version="1.1" xmlns="http://www.w3.org/2000/svg" xmlns:xlink="http://www.w3.org/1999/xlink">
    <!-- Generator: Sketch 46.2 (44496) - http://www.bohemiancoding.com/sketch -->
    <title>Fill 1</title>
    <desc>Created with Sketch.</desc>
    <defs></defs>
    <g id="Page-1" stroke="none" stroke-width="1" fill="none" fill-rule="evenodd">
        <g id="The-50-States" transform="translate(-814.000000, -1633.000000)" fill="#4A4A4A">
            <g id="Vermont" transform="translate(762.000000, 1598.000000)">
                <g id="Page-1" transform="translate(52.000000, 35.000000)">
                    <path d="M36.6791542,0.119351614 L37,0 C35.3911667,0.0101637627 33.7826212,0.0214890984 32.1737879,0.0325240408 C29.628315,0.0502380272 27.0828421,0.0714367324 24.5376569,0.0865371799 C21.9941983,0.101637627 19.4504519,0.121093973 16.9069932,0.138517566 C14.360657,0.156231553 11.8146086,0.177139865 9.26827239,0.192821099 C6.73459738,0.208792726 4.20063461,0.226216319 1.66667185,0.245091879 L1.73832263,0.571493859 L1.83558352,1.19990479 L1.93687297,1.59716272 L1.95442597,1.78156241 L1.9429158,1.99558221 L1.87471808,2.35508902 L1.80076527,2.57956298 L1.72249615,2.75583167 L1.39992378,3.2942207 L1.33172606,3.45161382 L1.22439377,3.79166429 L1.19101429,3.9539941 L1.16195113,4.26878035 L1.16770621,4.4377892 L1.20252446,4.61841379 L1.29230374,4.85247072 L1.37805447,5.00725031 L1.46812151,5.13328097 L1.82407335,5.54012187 L1.88622824,5.66353899 L1.92565056,5.78492336 L1.94867089,5.91908502 L1.95442597,6.10348472 L1.93687297,6.33289536 L1.868963,6.71998953 L1.81227544,6.97030848 L1.63099034,7.52176521 L1.56883545,7.85165191 L1.54207432,8.46118728 L1.50063773,8.7771351 L1.19101429,9.81209654 L1.16195113,9.97384557 L1.14123283,10.1306579 L1.16770621,10.725964 L1.31589958,11.7025564 L1.37229939,11.9345806 L1.63703318,12.5275636 L2.45080182,13.9263877 L2.64388484,14.3544273 L2.75006611,14.7493621 L2.77222317,14.9082072 L2.7776905,15.1637532 L2.76646809,15.4152337 L2.71208256,15.8104589 L2.62000124,16.2579549 L2.49597922,16.5805817 L2.13369678,17.2894316 L2.07326842,17.4407265 L2.02032166,17.5995716 L2.01082578,17.792683 L2.02032166,18.0084452 L2.28706973,19.2147386 L2.32044921,19.4877083 L2.31498188,20.0141912 L2.25225148,20.5900409 L2.18060071,20.8769494 L2.07672147,21.0712225 L1.87471808,21.2265829 L1.64854334,21.3598734 L1.44049711,21.5230744 L1.2474141,21.7173474 L1.16770621,21.8410549 L1.09979624,21.9728935 L1.06066168,22.1265115 L1.00454963,22.6939398 L0.930021309,23.0554794 L0.270488871,25.2104875 L0.0448896424,25.6033895 L0,25.7680425 L0,25.9530229 L0.0834486942,26.1882415 L0.169199421,26.3380844 L0.416092455,26.672327 L0.472492262,26.7899362 L0.519971691,26.9670761 L0.546732824,27.1982291 L0.523424741,27.9274065 L0.540977742,28.3345378 L0.721975082,29.5007569 L0.807725809,29.8347091 L0.885707175,30.0629582 L1.03390055,30.2868514 L1.09058811,30.3963296 L1.1288594,30.5267162 L1.14670016,30.6948539 L1.152743,30.9036466 L1.10555132,31.2535704 L0.992463953,31.6694135 L0.977212985,31.8308721 L0.992463953,31.9926212 L1.34352398,32.6364229 L1.39388095,32.762744 L1.4286992,32.9744406 L1.43474203,33.2535085 L1.39992378,33.8113539 L1.34352398,34.0997144 L0.338686597,36.7382272 L0.287754118,36.9734457 L0.247468541,37.2708083 L0.258978706,37.8457869 L0.287754118,38.1718985 L0.395374158,38.4759402 L0.529179823,38.7419404 L0.570616416,38.8049557 L0.608887714,38.8162811 L0.683128276,38.7968247 L0.891750012,38.6989622 L1.10555132,38.5418595 L1.19101429,38.4349948 L1.27532625,38.3176759 L1.33172606,38.1718985 L1.41718903,37.7078501 L1.47963167,37.5707845 L1.55329673,37.4488194 L1.65429842,37.3631534 L1.76738579,37.3018804 L1.89773841,37.2684852 L2.03211958,37.2571599 L2.17398236,37.260935 L2.47986499,37.3297582 L2.62000124,37.3959678 L2.72704578,37.5124155 L2.8127965,37.6590641 L3.08386088,38.6159097 L3.24097463,38.8456108 L3.33823552,38.914434 L3.51721858,39.0895411 L3.65936912,39.3041417 L3.6475712,39.8852185 L3.6475712,40.0809435 C3.63289574,40.8016995 3.62023456,41.5221651 3.60498359,42.2429211 C3.54915929,44.8352614 3.49621253,47.427892 3.44269027,50.0208131 C3.39147003,52.5042559 3.34226408,54.9876988 3.29190711,57.4711416 L3.23521955,57.9000524 L3.02746108,58.8266971 C3.19896253,59.3592783 3.37046398,59.8915691 3.54110218,60.4244406 C6.04945482,60.5240455 8.55780747,60.6169713 11.0661601,60.7107684 C13.5745128,60.8048558 16.0822899,60.906203 18.5906425,61 L18.5906425,60.9939017 L18.4663328,60.2339427 L18.0942667,59.6917785 L17.2741675,58.8307626 L17.1112986,58.5403694 L16.996197,58.2804675 L16.9242584,57.983976 L16.8833974,57.5753927 L16.8951953,57.0997286 L16.9924562,56.7922022 L17.1265496,56.5166191 L17.2741675,56.1417214 L17.4091241,55.0004761 L17.5394768,54.5367181 L17.8666532,54.3482529 L18.3299373,54.1763401 L18.5109347,53.7401695 L18.5906425,52.5327145 L18.9238618,51.0519994 L18.9745065,50.4500143 L18.8553763,49.7672998 L18.8553763,49.4435114 L18.9745065,48.3600543 L19.1048592,48.2142769 L19.1940629,48.0833095 L19.2352118,47.9279492 L19.2110404,47.7702656 L19.1673018,47.6918595 L19.1221244,47.641331 L19.1048592,47.5667 L19.1316203,47.2246168 L19.2228383,46.9533895 L19.3690174,46.7158479 L19.5678555,46.4765638 L19.7992098,45.9727316 L19.8443872,45.3739408 L19.7701467,44.3741169 L19.9122972,39.8500809 L20.0253846,39.1508141 L20.2236472,38.7709797 L20.8834674,38.1207893 L21.1539562,37.6695182 L21.3079047,37.1453585 L21.4771041,36.040993 L21.5450141,35.1108636 L21.6641443,34.8346996 L22.1818139,34.408112 L22.4252539,34.0587689 L23.4372852,33.1155717 L23.6401518,32.6913072 L23.7975533,32.1688898 L23.9106407,31.5910073 L23.951214,31.0038322 L24.0645891,30.4439541 L24.3468759,29.8878511 L25.6006206,28.0781205 L25.6411939,27.8821051 L25.5163087,27.7284871 L25.3534398,27.561511 L25.2679769,27.339941 L25.380201,26.9159669 L26.1939696,25.4204418 L26.4762564,24.5661049 L26.5835887,23.536661 L26.5717908,21.1754737 L26.7139413,19.809464 L27.1421194,18.8415834 L27.8430885,18.2637008 L28.8203014,18.0714605 L29.7529125,18.1147291 L30.2159089,18.036323 L30.5784791,17.7787442 L31.2106749,16.9511235 L31.5165575,16.6682805 L33.1889845,15.5944064 L33.6847848,15.3835809 L33.8539842,15.1460392 L34.1872035,14.5585737 L34.8429951,14.007117 L35.2090184,13.5212892 L35.2262836,13.0523041 L35.163841,12.5687994 L35.3005242,12.047834 L35.4933194,11.9145435 L35.7287023,11.9145435 L35.9609199,11.8672094 L36.1479601,11.5942397 L36.1355866,11.3296915 L36.0069605,11.0500428 L35.7698511,10.6734028 L35.1762144,9.11515281 L35.1025493,8.72428354 L34.9678804,8.23700371 L34.7008446,7.86588118 L34.5103514,7.43348567 L34.5883327,6.75570789 L35.0570842,5.77708274 C35.6420883,4.92884414 36.2279557,4.08176711 36.8158374,3.23556127 L36.9844613,2.56939922 L36.8190027,2.14252118 L36.560024,1.72667809 L36.4184489,1.09362087 L36.4857834,0.378963153 L36.6791542,0.119351614 Z" id="Fill-1"></path>
                </g>
            </g>
        </g>
    </g>
</svg>