<?xml version="1.0" encoding="UTF-8" standalone="no"?>
<svg width="90px" height="39px" viewBox="0 0 90 39" version="1.1" xmlns="http://www.w3.org/2000/svg" xmlns:xlink="http://www.w3.org/1999/xlink">
    <!-- Generator: Sketch 46.2 (44496) - http://www.bohemiancoding.com/sketch -->
    <title>Fill 1</title>
    <desc>Created with Sketch.</desc>
    <defs></defs>
    <g id="Page-1" stroke="none" stroke-width="1" fill="none" fill-rule="evenodd">
        <g id="The-50-States" transform="translate(-147.000000, -1818.000000)" fill="#4A4A4A">
            <g id="Virginia" transform="translate(122.000000, 1768.000000)">
                <g id="Page-1" transform="translate(25.000000, 50.000000)">
                    <path d="M83.969682,29.253019 L83.9134416,29.5387359 L83.8176877,29.7928139 L83.6223011,29.934344 L83.544001,29.934344 L83.544001,30.0157359 L83.8979271,29.9874782 L84.0741629,29.7928139 L84.1282214,29.4595177 L84.1325849,29.0182625 L84.0610724,29.0182625 L83.969682,29.253019 Z M89.8933374,19.1903727 L89.8237642,19.1988258 L89.7825537,19.276595 L89.528745,19.5915357 L89.3222074,19.8953666 L89.2463315,20.0470405 L89.1030641,20.4928845 L89.0269458,20.5962546 L88.9728872,20.7339204 L88.8814967,20.8191766 L88.7622285,20.8592688 L88.6274457,20.8723108 L88.5947197,20.9220637 L88.6577476,21.0375098 L88.8097419,21.2454576 L88.7120486,21.2930368 L88.6012649,21.3232267 L88.4885418,21.3394085 L88.3712129,21.3297477 L88.3712129,21.4314272 L88.7188362,21.4087244 L89.0204006,21.1394308 L89.2722699,20.7404414 L90,19.1741909 L89.8933374,19.1903727 Z M82.5498567,38.7169398 L82.3714392,38.8335934 L82.4456182,38.9806785 L82.4344671,38.9903392 L82.6082787,38.9937205 L82.7971201,38.9937205 L82.7408798,38.6454502 L82.5498567,38.7169398 Z M82.2979874,35.5776762 L82.085147,34.479731 L81.8829728,34.1370156 L81.6313459,34.1121391 L81.3360843,34.20609 L80.9928245,34.2092297 L80.5652043,34.0375098 L80.0246186,33.9865493 L79.0103538,33.6003604 L78.6392163,33.5979452 L78.4239517,33.849125 L78.445769,34.0556237 L78.5609162,34.130253 L78.6130355,34.2092297 L78.4629805,34.435533 L78.4370421,34.5804444 L78.5197057,34.7524059 L78.7148498,35.0282206 L78.5393413,34.9936834 L78.3609238,34.8842753 L78.2528066,34.7340505 L78.2765633,34.5804444 L78.0506324,34.4386728 L77.7640978,34.353175 L77.4642303,34.3360272 L77.1842409,34.3877123 L76.9561283,34.5241705 L76.7478937,34.689611 L76.5175993,34.8246201 L76.2310647,34.849738 L76.2310647,34.7490246 L76.5350532,34.5294839 L76.6848658,34.3823988 L76.7478937,34.2570505 L76.6892292,34.0783265 L76.5869301,33.9237543 L76.5653551,33.7885037 L76.7478937,33.6662951 L76.7478937,33.575484 L76.0897367,33.2151377 L75.94453,33.0832683 L75.8727752,33.0325493 L75.7813847,33.0011519 L75.6422384,32.9859362 L75.5775136,32.9352172 L75.5925433,32.8562405 L75.6230876,32.8279828 L75.7270837,32.7521458 L75.7270837,32.6712369 L75.0844413,32.4927544 L74.9171748,32.392041 L74.8456624,32.2092112 L74.8391172,31.3938431 L74.6934257,30.6190503 L74.6216708,30.4775202 L74.4742825,30.5337941 L74.1770815,30.9047672 L73.9661804,30.9330249 L73.7707938,30.7912533 L73.4212313,30.3835693 L73.269237,30.2990376 L72.28988,30.2990376 L72.0792213,30.2137814 L71.6821453,29.9162301 L71.4428816,29.8534351 L71.351976,29.7302605 L71.3042202,29.4662802 L71.2062845,29.2131684 L70.9696873,29.1177684 L70.8848421,29.1590681 L70.563642,29.4360904 L70.4378286,29.4988853 L70.3444988,29.4097648 L70.2683805,29.2759633 L70.2009891,29.2066473 L69.2868417,29.2066473 L68.5986252,28.9392858 L68.4812963,28.9706833 L68.4335406,28.9296251 L68.3273627,28.9047486 L68.2250636,28.8354327 L68.1879741,28.6637127 L68.4812963,28.3900717 L68.6485627,28.6009178 L68.8049205,28.6724074 L69.2543581,28.6637127 L69.3127801,28.68714 L69.4999246,28.8074165 L69.6124052,28.8354327 L69.7190678,28.8301193 C69.841245,28.7835061 69.9634223,28.7371345 70.0860843,28.6917289 L70.1837776,28.6852079 L70.2749257,28.7284398 L70.3813459,28.8354327 L70.4075267,28.9165831 L70.485342,29.0931334 L70.563642,29.2250028 L70.6026709,29.1622079 L70.668123,29.074778 L71.0024134,28.8042767 L71.1173181,28.7448631 L71.2564644,28.78254 L71.3476125,28.8883253 L71.6579038,29.4034853 L71.7558395,29.6394493 L71.8881982,29.7797719 L72.1359464,29.7517557 L72.3378782,29.5981496 L72.4547222,29.4662802 L72.5070839,29.3406904 L72.5049022,28.9837253 L72.5461127,28.8475086 L72.6459878,28.7448631 L72.6918042,28.9902463 L72.6787138,29.2943187 L72.6961677,29.5549177 L72.8328898,29.660703 L72.9805206,29.705384 L73.377839,29.8903875 L73.5623168,29.934344 L73.6449804,29.9809572 L73.6946755,30.0978523 L73.7339467,30.2321369 L73.7838842,30.3422695 L73.8903045,30.417865 L73.9446055,30.3391298 L73.9814526,30.2070189 L74.0398746,30.1164493 L74.239867,30.0630736 L74.6846988,30.0222569 L74.8391172,29.934344 L75.0604422,30.106547 L75.2386173,30.3963698 L75.3081904,30.7470553 L75.2104971,31.1211682 L75.2844337,31.2117378 L75.4124289,31.3969829 L75.6293904,31.6382603 L75.86623,31.8143276 L76.053132,31.8049084 L76.9951571,32.6379073 L77.1299399,32.8279828 L77.2472688,33.3528035 L77.3948996,33.4035225 L77.5641053,33.3243042 L77.8639728,33.0574258 L78.0179064,32.9728941 L78.200445,32.9414967 L78.4629805,32.9352172 L78.6673365,32.8562405 L78.8062403,32.665682 L78.8973884,32.4019433 L78.9473259,32.1184 L78.9410231,31.742355 L78.8215125,31.6575818 L78.3892863,31.7638502 L78.2135354,31.6889793 L78.3524392,31.5257125 L78.5912181,31.3689667 L78.7148498,31.3114852 L78.6457615,31.1211682 L78.4414056,30.9199829 L78.1311142,30.7101029 L78.0811767,30.8605692 L77.9679689,30.8289303 L77.8443372,30.7035819 L77.774764,30.5782336 L77.770643,30.4548174 L77.7878545,30.2859956 L77.8159746,30.1476052 L77.8421554,30.1164493 L77.7119785,29.9507673 L77.5275006,29.934344 L77.0736996,30.0157359 L76.8518898,29.9679151 L76.5980811,29.8469141 L76.165855,29.5636124 L75.4623664,28.9513618 L74.8391172,28.2070003 L74.6090652,27.7896556 L74.4548892,27.5732546 L74.1203564,27.3568536 L73.6665553,26.559841 L73.5691045,26.503567 L73.4537149,26.4622673 L73.3516581,26.4093747 L73.3085082,26.3316055 L73.314811,26.1801732 L73.3388101,26.044681 L73.3928687,25.9507301 L73.490562,25.9140192 L74.0398746,26.4622673 L74.357196,27.062925 L74.5610671,27.3546799 L74.8044518,27.4802698 L74.9714758,27.6012708 L75.6165424,28.6472894 L75.6989635,28.7163638 L75.8315646,28.7448631 L75.9338638,28.789061 L76.0356781,28.9769628 L76.3483936,29.0897522 L76.7522572,29.4097648 L76.9604917,29.4793223 L77.8074901,29.2909375 L77.8574276,29.2131684 L77.8031266,29.0368595 L77.7054333,28.851856 L77.6208305,28.7448631 L77.5296824,28.7197451 L77.1842409,28.7448631 L77.1842409,28.6637127 L77.4882294,28.5501988 L77.5425304,28.5219411 L77.520713,28.3900717 L77.4666545,28.3388697 L77.3883544,28.311095 L77.1015773,28.0944525 L77.0518822,27.9886672 L77.1040015,27.8437558 L77.2060582,27.7657452 L77.3187812,27.7560844 L77.4361102,27.7896556 L77.5425304,27.8437558 L77.5119861,27.7331401 L77.4601092,27.6176941 L77.379385,27.5203619 L77.2579351,27.4802698 L77.3968389,27.1534946 L77.5968314,27.3288374 L77.9204555,27.9258723 L78.1134179,27.9886672 L78.2678364,27.9215249 L78.396074,27.9031695 L78.4239517,28.1074945 L78.8561778,28.6593654 L78.9473259,28.8354327 L79.0147173,28.8354327 L79.0450192,28.4364434 L79.2905857,27.7116449 L79.3036761,27.2974399 L79.2188308,27.062925 L79.0993202,27.0119645 L78.9735067,27.0119645 L78.8649048,26.9242931 L78.8692682,26.7825215 L78.9689008,26.6409913 L79.1124106,26.5250622 L79.2319212,26.4622673 L79.2319212,26.3782187 L78.9255085,26.0739048 L78.7781202,26.0478208 L78.7148498,26.3316055 L78.6108537,26.4719281 L78.3827411,26.3714562 L78.0225123,26.0980567 L77.7987631,26.051202 L77.6314967,25.9442091 L77.6336785,25.8253818 L77.9204555,25.7311894 L78.4176489,25.6804704 L78.6043085,25.6152603 L78.7931499,25.4575484 L78.354621,25.3104633 L77.904941,25.2628841 L77.5141678,25.1285996 L77.2579351,24.7305763 L77.0974563,24.8052057 L76.8802523,24.8052057 L76.2267012,24.669955 L76.0550713,24.5702077 L75.9205309,24.4127373 L75.7622339,24.1142199 L75.6686617,23.8729424 L75.649026,23.7700554 L75.6359356,23.7374503 L75.5775136,23.3522275 L75.5013952,23.2551369 L75.2104971,22.9566195 L75.0972893,22.8938245 L74.6216708,22.8032549 L74.6131863,22.7522944 L74.6284585,22.5759856 L74.6216708,22.5293724 L74.5717333,22.5131907 L74.5266441,22.5194701 L74.4830094,22.517538 L74.370044,22.4264853 L74.1181747,22.3443689 L74.0726006,22.2818155 L73.9770891,22.1064727 L73.9247274,22.0719355 L73.8338218,21.9700145 L73.5797707,21.5157173 L73.5276515,21.3804667 L73.5036524,21.1198677 L73.4255947,21.0010404 L73.0910619,20.8723108 L72.9587032,20.7868131 L72.7870733,20.6460075 L72.643806,20.4665589 L72.5354465,20.1692491 L72.4331473,20.0999331 L72.3114549,20.0371382 L72.2093982,19.9559878 L72.1073414,19.8195296 L72.0860089,19.7417605 L71.9902549,18.9826664 L71.9468626,18.9005499 L71.7449308,18.6906699 L71.7015385,18.6179727 L71.5754827,18.4870694 L70.8201172,18.2945788 L70.717818,18.1972467 L70.6484873,18.0912199 L70.6113978,17.9593505 L70.6026709,17.7842492 L70.563642,17.6801546 L70.4809785,17.6758072 L70.3464381,17.7429495 L69.9881486,17.6888493 L69.801489,17.6011779 L69.7253706,17.4596478 L69.8102159,17.3253632 L70.0121477,17.3374392 L70.4877661,17.4596478 L70.6484873,17.5441794 L70.7677556,17.7386022 L70.8719941,17.9593505 L70.9696873,18.1192361 L71.0782893,18.1042619 L71.5539077,18.2003864 L71.7209317,18.3010998 L71.8491693,18.4329692 L72.0574039,18.7532233 L72.3572714,19.487441 L72.4503588,19.5784937 L72.8741004,19.9052688 L73.0217312,20.3293761 L73.6711612,20.6742652 L73.8185496,21.1003047 L74.2226556,21.7451603 L74.3487114,21.8794449 L74.4895546,21.9519006 L74.6350037,21.9333036 L74.7676047,21.7949132 L74.7564536,21.9927173 L74.8088153,22.1214469 L74.8953575,22.1994575 L74.9932932,22.2537993 L75.1191066,22.1301416 L75.1886798,22.1910043 L75.2320721,22.3248059 L75.2844337,22.4289005 L75.6012703,22.6795972 L75.649026,22.7619552 L75.7316896,23.0281091 L76.111554,23.5060751 L76.2310647,23.7246498 L76.2354282,23.8794635 L76.3113041,24.1304017 L76.4373599,24.2902872 L76.6002629,24.2719318 L76.7195311,23.7821313 L76.8237696,23.5990599 L76.9604917,23.816427 L76.9847332,23.9354959 L77.0625485,24.1055252 L77.145212,24.2113105 L77.1842409,24.2274923 L77.2363601,24.1581763 L77.3534466,24.2501951 L77.4642303,24.3844796 L77.507865,24.4537956 L78.1003275,24.6796158 L78.3999526,24.73275 L78.575946,24.547988 L78.4351028,24.554509 L78.3999526,24.4624902 L78.2479583,24.262271 L78.2113536,24.1304017 L78.2612912,24.039349 L78.354621,23.98863 L78.4154672,23.9074797 L78.3589844,23.7246498 L78.4588595,23.765708 L78.5846729,23.7937242 L78.7087894,23.7874447 L78.7931499,23.7246498 L78.7803019,23.5688701 L78.4435873,23.2831531 L78.3589844,23.1232676 L78.3871046,23.0689258 L78.4566777,23.0756883 L78.5284326,23.0950098 L78.575946,23.0756883 L78.6477008,22.8938245 L78.6891538,22.7585739 L78.6932749,22.6363653 L78.6477008,22.4289005 L78.4351028,21.9895775 L78.3609238,21.722216 L78.4629805,21.6033887 L78.6326711,21.6944413 L78.9669615,22.0489912 L79.1579846,22.0719355 L79.2685259,21.8922454 L79.3099789,21.5785122 L79.3036761,21.0032141 L79.2275577,20.8539553 L79.0450192,20.7121837 L78.8280577,20.5921488 L77.8487007,20.2219002 L77.4511399,19.9431873 L76.9323716,19.7514212 L76.8215879,19.6789656 L76.899888,19.6594025 L76.9779456,19.6096496 L77.0387918,19.5881544 L76.949583,19.4908223 L76.845587,19.4065322 L76.7304398,19.3393899 L76.6002629,19.3058187 L76.2199136,19.3869691 L76.165855,19.3524319 L76.1505829,19.1708096 L76.1374925,19.1210567 L76.2698511,18.9826664 L76.3003954,18.8010441 L76.1568857,18.627875 L75.7942327,18.3769368 L75.5447875,18.137833 L75.5013952,18.0694831 L75.5101222,17.7859399 L75.4817596,17.6888493 L75.3927933,17.6518969 L75.2669798,17.6704938 L75.0473517,17.7429495 L74.9171748,17.7429495 L74.836693,17.7018913 L74.7629988,17.6359566 L74.6762142,17.5760599 L74.5545218,17.5504589 L74.448344,17.6328169 L74.194293,17.7842492 L73.9378178,17.8521161 L73.8185496,17.6953703 L73.7555217,17.5265485 L73.5926187,17.4292164 L73.3797783,17.3847769 L73.1628168,17.3751161 L72.7349541,17.297347 L72.2118223,17.1026827 L71.7992318,16.8635789 L71.651601,16.5314904 L71.6756001,16.4525137 L71.7102655,16.373537 L71.7015385,16.2694423 L71.6232385,16.1602757 L71.5255452,16.0945825 L71.4234884,16.0467618 L71.3367038,15.9883142 L70.8567219,15.4755694 L70.8089661,15.4453796 L70.7090911,15.3632631 L70.6484873,15.278973 L70.7115153,15.2398469 L70.9044777,15.2528889 L71.0024134,15.2398469 L71.0782893,15.1997548 L71.1759826,15.0019507 L71.1759826,14.7727492 L71.1173181,14.559488 L71.0368363,14.4114369 L70.784967,14.2641103 L70.5333402,14.381247 L70.2487448,14.5824323 L69.7299765,14.7476313 L69.3758081,15.0050905 L69.1782397,15.0647457 L68.4812963,15.1555568 L68.0340405,15.0149928 L67.525696,14.9652398 L67.525696,14.8732211 L67.6430249,14.8452049 L68.0013144,14.8732211 L68.116704,14.8234682 L68.0883414,14.7133356 L67.9647097,14.5532085 L67.8864097,14.4058819 L67.5106663,14.0262141 L67.3892163,13.8564263 L67.558422,13.7656151 L67.6907807,13.853045 L67.8995001,14.1353807 L67.8037461,13.6303645 L67.9276202,13.0454056 L68.0883414,12.5423216 L68.116704,12.2867945 L68.116704,12.1863226 L68.2034886,12.1484041 L68.4032387,12.0097722 L68.3489377,11.9428715 L68.3077271,11.8576153 L68.2553655,11.8163155 L68.3966935,11.6791328 L68.5159617,11.4714264 L68.600807,11.2398098 L68.6332906,11.0299298 L68.7026213,10.8277784 L68.8526763,10.7176457 L69.0003071,10.7152306 L69.0698802,10.8408204 L69.0870917,11.0688143 L69.1392109,11.1695277 L69.2480553,11.1651804 L69.425988,11.0765429 L69.5624677,10.9801769 L69.6691303,10.8483075 L69.6778573,10.7142645 L69.5086515,10.6135511 L69.4325332,10.4717794 L69.4368967,10.3085126 L69.5452562,10.179783 L69.7253706,10.142106 L69.6972505,10.3184149 L69.7537332,10.4176792 L69.8317909,10.414781 L69.9057275,10.1561141 L69.9881486,10.1387248 L70.0948112,10.1474195 L70.2009891,10.0998402 L70.4160112,9.9505815 L70.5898229,9.89430758 L70.7047276,9.77523873 L70.7459382,9.44218407 L70.7503017,8.0445138 L70.7374537,7.9795452 L70.6812134,7.82304091 L70.6419421,7.74382269 L70.4463131,7.44313157 L70.4506766,7.44409765 L70.4506766,7.44313157 L70.3529833,7.31560956 L69.946938,6.97796604 L69.8904553,6.90647642 L69.7668236,6.74200201 L69.647313,6.64587746 L69.3193253,6.57776911 L68.9612782,6.45024709 L68.809284,6.42005722 L68.6635925,6.34518634 L68.5918376,6.16573775 L68.546506,5.94812916 L68.4812963,5.76119348 L68.2488202,5.51242894 L67.9363472,5.34046743 L67.5952691,5.24289377 L66.6527592,5.14990897 L66.4054958,5.00934493 L66.0234496,4.62098242 L65.8627284,4.47268978 L65.7216428,4.29106751 L65.6607966,4.08118753 L65.741036,3.85077843 L66.0905986,3.53704529 L66.2513198,3.32861442 L66.2884093,3.04917698 L66.170838,2.83639877 L65.9601793,2.74220637 L65.7194611,2.67409802 L65.5172869,2.53546613 L65.3109916,2.18816185 L65.1960869,2.08044439 L64.7136808,1.9621001 L64.2601222,1.77951176 L64.0647356,1.74159328 L63.5217258,1.73941961 L63.3132488,1.64112139 C62.9581107,2.49440791 62.5855187,3.34020733 62.2364409,4.19590904 L62.1431111,4.11596626 C60.5055971,2.77674358 58.8559623,1.45007989 57.2046307,0.128005053 C57.1512993,0.0852561959 57.097968,0.0427488574 57.0448791,0 L56.8967635,0.0799427786 L56.7447692,0.319046557 L56.6885289,0.453331104 L56.6667116,0.564912867 L56.6688933,0.703303236 L56.7319212,1.1153346 L56.7384664,1.25589864 L56.721255,1.41602571 L56.7016193,1.49717609 L56.6536211,1.6387062 L56.5016269,1.90075428 L56.1714575,2.37026716 L56.1370346,2.42968082 L56.1108537,2.49344183 L56.1001875,2.55961803 L56.1001875,2.61903169 L56.1021268,2.67941144 L56.1152172,2.73785903 L56.1280652,2.88277041 L56.1217624,2.96174711 L56.108672,3.04072381 L56.0390989,3.25712481 L56.0194632,3.33924126 L56.0046759,3.42159923 L56.008797,3.49502099 L56.0194632,3.56530301 L56.0652797,3.76310705 L56.0718249,3.82710958 L56.0652797,3.89304425 L56.0458865,3.9471445 L55.995949,4.02177386 L55.6483257,4.44902092 L55.2228872,4.78424925 L54.8018122,5.29071452 L54.6255764,5.58053729 L54.6018197,5.63342994 L54.5974563,5.68221677 L54.6083649,5.73414335 L54.6146677,5.78606993 L54.612486,5.83896258 L54.5516398,5.95054435 L54.278438,6.30509419 L54.2086224,6.36450786 L54.1174744,6.42005722 L53.9439051,6.48043696 L53.8333639,6.50217367 L53.7419734,6.53888455 L53.6854906,6.59056961 L53.620281,6.70215138 L53.507558,6.94342883 L53.4336214,7.05815034 L53.370351,7.11780552 L53.2884147,7.17721919 L53.0426058,7.28735184 L52.9580029,7.30788095 L52.8930357,7.31126222 L52.8384923,7.29822019 L52.7951,7.26150931 L52.760677,7.21586222 L52.7323145,7.16176197 L52.6995884,7.11200907 L52.6649231,7.07988704 L52.6084404,7.07747185 L52.5519576,7.11539033 C52.1279736,7.73536952 51.7037472,8.35534872 51.2817025,8.97677702 L51.2230381,9.0439193 L51.1600101,9.08521904 L51.0841342,9.06348233 C50.7018456,8.79732843 50.3181025,8.53310668 49.9375108,8.26429607 L49.876907,8.2609148 L49.822606,8.30946011 L49.372926,8.91857095 L49.2970501,9.04295322 L49.2492943,9.15308587 L49.2340222,9.22360941 L49.2012961,9.30355219 L49.1562069,9.39653699 L48.9668807,9.66051722 L48.9191249,9.76775164 L48.8931865,9.85421543 L48.7804635,10.619106 L48.7649489,10.6710326 L48.7150114,10.7314123 L48.634772,10.7985546 L48.4740508,10.8958867 L48.3610854,10.9825921 L48.2549076,11.0929662 L48.1591536,11.2451232 L48.1116402,11.3448705 L48.0810959,11.427953 L47.9834026,11.8757292 L47.9640094,11.9126816 L47.9615853,11.936592 C47.9528583,11.9660573 47.9443738,11.9955226 47.9356469,12.0252294 L47.7817133,12.4916026 L47.7186854,12.6266117 L47.6488698,12.7476127 C47.3734863,13.1301787 47.0973755,13.5122617 46.8217495,13.8943447 L46.7742361,13.9416825 L46.717511,13.9752536 L46.6370292,13.9701817 C45.9010569,13.7262475 45.1650847,13.4827964 44.4291124,13.2388623 L44.3985681,13.2236466 L44.3854777,13.2130197 L44.3985681,13.1620592 L44.441718,13.0569985 L44.4506874,13.0084532 L44.4550509,12.9661873 L44.4485056,12.9413109 L44.4223248,12.8818972 L44.0075526,12.1310148 L43.975069,12.0846431 L43.9404036,12.0532456 L43.9164045,12.0360978 L43.0238321,11.7052168 L42.9588649,11.7028016 L42.8892917,11.7590755 L42.8284455,11.8651024 L42.7634783,12.0967191 L42.7416609,12.2285884 L42.7351157,12.3365474 L42.7416609,12.408037 L42.7372974,12.4826664 L42.7154801,12.5594694 L42.6679667,12.6589752 L42.4703984,12.9403448 L42.4594897,12.973916 L42.4311272,13.1683387 L42.4204609,13.7342177 L42.3942801,13.8100546 L42.3465243,13.8943447 L42.1727127,14.1233047 L42.1140482,14.2428566 L42.0056887,14.6452272 L41.9598722,14.7164753 L41.8512703,14.7857913 L41.6408539,14.8635604 L41.599401,14.9111396 L41.5625539,14.9835953 L41.5215857,15.1058039 L41.4607395,15.2183517 L41.3540769,15.3601234 L41.2997759,15.4540742 L41.278201,15.5796641 L41.291049,15.6620221 L41.3390471,15.7936499 L41.3518951,15.852339 L41.3584404,15.9214134 L41.3322595,16.0069112 L41.282322,16.0912013 L41.1022076,16.2793446 L40.8634287,16.4394716 L40.7591902,16.5314904 L40.5269566,16.8256605 L40.027339,17.284305 L39.9904919,17.3470999 L39.968917,17.4185895 L39.968917,17.5224427 L39.9967947,17.6605915 L39.9795833,17.7453647 L39.7410468,18.5022851 C39.542024,18.8933044 39.3410619,19.283116 39.1393725,19.6724445 C38.4024306,20.5068926 37.6669432,21.3425482 36.930971,22.1779623 L36.9159412,22.2211942 L36.8267325,22.5293724 L36.7898854,22.6235648 C36.5586214,23.0529855 36.3285694,23.4831308 36.0992447,23.9140007 L36.0493072,24.051425 L36.0580342,24.0987627 L36.0667611,24.1304017 L36.0907602,24.1581763 L36.2253006,24.286906 L36.3426295,24.3649166 L36.646618,24.52287 L36.6941314,24.5726229 L36.7268574,24.6450786 L36.7377661,24.7639059 L36.7140094,24.8452978 L36.6747382,24.9121986 L36.5770449,25.0001115 L36.3532958,25.1416416 L36.1775448,25.2259317 L36.1079717,25.2694051 L36.029914,25.3322001 L35.9191303,25.4486122 L35.8691928,25.5396648 L35.8432544,25.6241965 L35.8432544,25.6867499 L35.8541631,25.7495448 L35.8822832,25.8036451 L35.9234938,25.8466355 L36.0451862,25.9289934 L36.0863967,25.9884071 L36.084215,26.1301787 L36.0451862,26.2081894 L35.997188,26.2644633 L34.696631,27.00013 L34.3751885,27.2856055 L34.3102213,27.3288374 L34.2537386,27.3440531 L34.1991952,27.3503326 L34.1385914,27.3382566 L34.0954415,27.3136217 L34.0539885,27.2694237 L34.0236866,27.216048 L34.0064752,27.1534946 L34.0016269,27.0863523 L34.004051,26.967525 L33.9953241,26.9211533 L33.9778702,26.8680192 L33.9410231,26.8170587 L33.8365422,26.7924237 L33.7587269,26.7859027 L33.5068577,26.8117453 L33.2571701,26.8960354 C32.9354853,27.0460187 32.6140428,27.196968 32.2928428,27.3484004 C31.9728549,27.5396834 31.6535942,27.7319325 31.3353032,27.9258723 L31.2853657,27.947609 L31.2005204,27.9659644 L31.161734,27.9625831 L31.1311897,27.941088 L31.098706,27.9065507 L31.0771311,27.8567978 L31.0509503,27.8089771 L31.0073155,27.7744399 L30.9530146,27.7493219 L30.7687791,27.7116449 L30.7207809,27.6802475 L30.699206,27.6338758 L30.6946001,27.5300227 L30.6773886,27.4921042 L30.6429657,27.464088 L30.6080579,27.452012 L30.3103721,27.3851113 L30.2172847,27.3785903 L30.1108645,27.3916323 L29.965173,27.4457325 L29.8829943,27.5017649 L29.8243299,27.5611786 L29.7848162,27.6239735 C29.768332,27.6717943 29.7523326,27.7196151 29.7370604,27.7681604 L29.731,27.8437558 L29.7370604,27.9195928 L29.756696,27.9821462 L29.9152355,28.2678631 L29.9217807,28.3453907 L29.9086903,28.4364434 L29.8391172,28.5748337 L29.7785134,28.6538104 L29.7220307,28.7100843 L29.0207238,29.1242894 L28.9448479,29.1395051 L28.8840017,29.1274291 L28.7361285,28.998941 L28.6537073,28.985899 L28.5494688,28.9958013 L28.256389,29.1438524 L28.1630592,29.1740423 L27.0576463,29.3158139 L26.1936789,29.7647977 L26.0741682,29.7959536 L26.0460481,29.7797719 L26.0196248,29.7582767 L25.9961106,29.7215658 L25.9568393,29.6239921 L25.9265375,29.5766544 L25.8853269,29.533181 L25.8004816,29.4595177 L25.242442,29.1049679 L25.1925045,29.0648757 L25.1294766,28.9958013 L24.921242,28.6917289 L24.8773649,28.6441497 L24.8102159,28.6030914 L24.7212496,28.5844945 L24.5867092,28.5941552 L24.4975004,28.6472894 L24.4456236,28.7035633 L24.417261,28.7610448 L24.3411427,28.979378 L24.2979928,29.074778 L24.2327831,29.1783896 L24.1045456,29.3254747 L24.0199427,29.3947906 L23.9416426,29.4360904 L23.5162041,29.482462 L23.3557253,29.5290752 L23.2662741,29.5732731 L23.1969434,29.6198863 L22.6435097,30.2137814 L22.5608462,30.2707799 L22.4890913,30.3014528 L22.237222,30.3207743 L21.5880344,30.2601531 L21.4576151,30.2234422 L21.1926554,30.0309516 L20.8127909,29.8372534 L20.7630958,29.7928139 L20.6692812,29.698863 L20.528438,29.4793223 L20.4913485,29.431743 L20.4435927,29.3851299 L20.3873524,29.3440716 L20.3262638,29.3124327 L20.2331764,29.2812767 L19.9985186,29.2564003 L19.8508878,29.25954 L19.716105,29.2433582 L19.6751368,29.2349051 L19.5512627,29.1590681 L19.4579329,29.0648757 L19.4189041,29.0141567 L19.3905415,28.9612641 L19.2928482,28.7100843 L19.2625463,28.6538104 L19.2235175,28.6030914 L19.1236425,28.5185598 L18.6133587,28.1606287 L18.569724,28.1140155 L18.5350586,28.0579831 L18.5132413,27.9951882 L18.5069385,27.9215249 L18.5088778,27.8437558 L18.5459673,27.5235017 L18.5503308,27.4476647 L18.5435431,27.3785903 L18.5350586,27.3092743 L18.5132413,27.2464794 L18.4873028,27.1902055 L18.4526375,27.1438338 L18.4157904,27.1027756 L18.0332594,26.8583584 L17.9901095,26.8136774 L17.9704738,26.757645 L17.9682921,26.6982313 L17.9922912,26.6354364 L18.0269566,26.5890648 L18.2853711,26.3878795 C18.2916738,26.3748374 18.2982191,26.3617954 18.3050067,26.3489949 L18.3200364,26.2924795 L18.3331268,26.223405 L18.3331268,26.1485342 L18.3180971,26.0794597 L18.2897345,26.0169063 L18.2570085,25.9702932 L18.1661028,25.8727195 C16.7933061,27.0298369 15.4195397,28.1859882 14.0445613,29.3406904 L13.7861468,29.5169992 C12.871757,29.9635678 11.9585793,30.4135176 11.0458865,30.8639505 L10.5227547,31.2204325 L10.3273681,31.4131646 L10.2381594,31.5387545 L10.2294324,31.6230446 L10.2662795,31.8307509 L10.2837334,32.1280608 L10.2730671,32.2070375 L10.2553708,32.2828744 L10.225069,32.3521904 L10.1904036,32.4149853 L10.1470113,32.4647382 L10.0362276,32.5362278 L9.09153594,32.9980121 L8.83748492,33.1958161 L8.73348884,33.3061903 L8.67700612,33.4122171 L8.67046091,33.6286181 L8.67918786,33.6976926 L8.68549065,33.8428455 L8.66609744,34.0440308 L8.65082529,34.1087578 L8.62925034,34.1759001 L8.60088778,34.2440085 L8.56185895,34.3012485 L8.51822423,34.3510014 L8.35750302,34.4386728 C7.91994376,34.60677 7.48214209,34.7743841 7.044098,34.9417568 L6.59005452,34.9436889 L6.5207238,34.963252 L6.45769587,35.0043102 L6.24291609,35.2294059 L6.04728711,35.6566529 L5.97359292,35.7701668 L5.84753706,35.9075911 L5.81941691,35.9520306 L5.81505344,36.0017835 L5.83468906,36.1249582 L5.83032559,36.1930665 L5.80850823,36.2568276 L5.75202551,36.3031992 L5.6586957,36.3478802 L4.56443393,36.5164604 L3.4723539,36.8845354 L3.04861231,37.12219 L2.90970846,37.2390852 L2.82922664,37.2823171 L2.71238256,37.3199941 L1.69157257,37.4240887 L0.749305077,37.7660796 L0.677550207,37.7723591 L0.471254956,37.8696912 L0,38.274477 C2.16185787,38.2867945 4.32371574,38.2976628 6.48581602,38.3080482 C8.5611317,38.318192 10.6364474,38.3309925 12.7117631,38.3406532 C14.5747231,38.3491064 16.4376832,38.3599747 18.3006432,38.3684279 L18.3852461,38.331717 L18.615298,38.1302902 L18.7108096,38.1044477 L18.8043818,38.095753 C19.6814396,38.133913 20.5587399,38.1667596 21.4360401,38.2017798 L21.5075526,38.3466912 L21.5465814,38.3848512 L21.6185787,38.4061049 C23.7033486,38.4350871 25.7886033,38.4474046 27.8733731,38.4679337 C30.1254094,38.4899119 32.3774457,38.5085089 34.6292396,38.5321778 C36.652436,38.5534314 38.6756324,38.5715453 40.6985865,38.5913499 C42.9440775,38.6130866 45.1893262,38.6331327 47.4348173,38.655594 C49.4878308,38.6761231 51.5408443,38.6944785 53.5933729,38.7150076 C55.7964413,38.7372274 57.9995098,38.7616208 60.2023358,38.7794932 C62.3288011,38.7968825 64.4550239,38.8224836 66.5814892,38.8422881 C68.7072272,38.8620927 70.8332076,38.8831048 72.9587032,38.904117 C75.1622565,38.9258537 77.3658098,38.9451752 79.569363,38.9673949 C80.2093389,38.9736744 80.8497996,38.9770557 81.4900179,38.9838182 L81.4553525,38.8584699 L81.4010515,38.7577565 L81.3576592,38.6454502 L81.3508716,38.46576 L81.6856469,38.9838182 L82.1806585,38.9903392 L82.1656288,38.9654628 L82.085147,38.2430796 L82.2240508,36.8845354 L82.2781094,36.7524245 L82.3956807,36.765225 L82.5214941,36.8463754 L82.5954307,36.9253521 L82.6582163,37.0692974 L82.8885106,38.0071155 L82.9406298,38.1044477 L83.0664433,38.2689221 L83.1054721,38.3751904 L83.1054721,38.5283135 L83.0664433,38.6700851 L83.0468077,38.8205514 L83.1011086,38.9956527 L83.2446184,39 L83.3968551,39 L83.2836472,38.4507859 L82.2979874,35.5776762 Z M88.4950871,19.3719949 C87.6250593,19.4917884 86.753577,19.6028871 85.8828219,19.7171256 L85.8091277,19.7862 C85.7528874,19.9173448 85.6966471,20.0482481 85.639922,20.1789098 L85.7436757,20.2286627 L85.6091353,20.3692268 L85.4355661,20.4320217 L85.0881852,20.5054435 L84.8232255,20.6655705 L84.5711138,20.8723108 L84.5711138,20.9532196 L84.8426187,20.9099877 L85.1424862,20.9814774 L85.3398121,21.1353249 L85.3725381,21.3297477 L85.3032074,21.4336009 L85.3032074,21.5526697 L85.3553267,21.6782596 L85.4440506,21.7949132 L85.3335093,21.8200312 L85.0857611,21.7753502 L85.0055217,21.7949132 L84.9427362,21.9333036 L84.9405544,22.0869097 L84.9904919,22.2320626 L85.0881852,22.3443689 L84.4583908,22.4289005 L84.3413043,22.3692453 L84.2215512,22.2685319 L84.102283,22.250418 L83.9827724,22.4289005 L84.1958552,22.6431279 L84.2019156,22.8247501 L84.0586483,22.9933304 L83.8351416,23.1664995 L83.8351416,23.2669714 L84.0654359,23.2703526 L84.0826474,23.3481217 L83.7093281,23.759187 L83.6959953,23.8794635 L83.7614474,24.08403 L83.5161233,24.0903095 L83.3117674,24.1304017 L83.1534703,24.2395682 L83.0405049,24.4537956 L83.1990443,24.6571545 L83.077352,24.7361312 L82.8451183,24.7868502 L82.6623373,24.9121986 L82.7951808,25.0097722 L82.7755452,25.1220785 L82.6691249,25.2411474 L82.5234335,25.3664957 L82.9622048,25.5483595 L82.7125172,25.6867499 L82.4931316,25.8913165 L82.3411373,26.1770334 L82.3067144,26.559841 L82.5302211,26.452365 L82.6303385,26.534723 L82.614824,26.675287 L82.3195624,26.8269609 L82.1935065,27.0148627 L82.1173882,27.2532419 L82.085147,27.4802698 L82.1656288,27.4802698 L82.189143,27.3950136 L82.230596,27.3785903 L82.2911998,27.3892171 L82.3067144,27.3785903 L82.2999267,27.508286 L82.230596,27.6771077 L82.1067219,27.8348196 L81.935092,27.9258723 L81.9872113,28.0944525 L81.9241833,28.3453907 L81.7135246,28.8354327 L81.8117027,28.7953405 L81.8723065,28.78254 L82.0133921,28.8354327 L81.82649,29.005462 L81.6660112,29.2993906 L81.6441939,29.6143314 L81.867943,29.8534351 L81.867943,29.934344 L81.8180055,30.1164493 L82.085147,30.5304128 L82.1656288,30.8011556 L82.2240508,31.1016052 L82.3629547,31.1926578 L82.5302211,31.1231004 L82.6623373,30.9330249 L82.6909423,30.8141976 L82.7408798,30.3422695 L82.7886356,30.2070189 L82.8928741,30.0720098 L82.9927491,30.0070412 L83.0405049,30.0652473 L82.9971126,30.6311262 L83.0708068,30.787872 L83.3248578,30.6688032 L83.2705568,30.5219596 L83.2293462,30.2256159 L83.1794087,30.1164493 L83.2836472,29.8773455 L83.3486145,29.5636124 L83.440005,28.3584327 L83.4792762,28.2070003 L83.5355165,28.0601568 L83.7614474,27.7430424 L83.8504137,27.5797756 L83.8700493,27.4824434 L83.8504137,27.3698956 L83.8351416,27.1534946 L83.8807156,26.9955412 L84.0870109,26.7103073 L84.1325849,26.6062126 L84.2654284,26.51516 L85.0881852,26.3782187 L85.0055217,26.2340319 L84.8734054,26.1770334 L84.7168053,26.1485342 L84.5711138,26.0980567 L84.6731706,25.9074982 L84.8448005,25.6997919 L85.0123093,25.6152603 L85.0881852,25.7821499 L85.1291534,26.0135251 L85.2290284,26.1671311 L85.3465997,26.2968268 L85.4440506,26.4622673 L85.6547093,26.2526288 L85.8719132,25.9768142 L86.0607546,25.6683945 L86.1780835,25.3664957 L86.0110595,25.2607104 L86.0588153,24.9056776 L86.2108096,24.5011333 L86.4146807,24.1074574 L86.5429182,23.6249025 L87.4202185,21.8794449 L87.8240821,21.4336009 L87.9043215,21.2205811 L87.7935378,20.9532196 L87.9867426,20.8773827 L88.0151052,20.8095158 L87.9717129,20.7121837 L87.9368051,20.5522981 L87.932684,20.2187605 L87.9498955,20.0093635 L88.0022572,19.8545498 L88.1561907,19.7267863 L88.3278206,19.6574704 L88.462361,19.5340542 L88.4950871,19.3719949 Z M85.1987265,26.9837068 L84.8797082,27.6771077 L84.8687996,27.7430424 L84.8622544,27.8437558 L84.9340092,27.8437558 L85.190242,27.4131275 L85.3116919,27.1404526 L85.3725381,26.8332404 L85.2920563,26.8332404 L85.1987265,26.9837068 Z" id="Fill-1"></path>
                </g>
            </g>
        </g>
    </g>
</svg>