<?xml version="1.0" encoding="UTF-8" standalone="no"?>
<svg width="66px" height="42px" viewBox="0 0 66 42" version="1.1" xmlns="http://www.w3.org/2000/svg" xmlns:xlink="http://www.w3.org/1999/xlink">
    <!-- Generator: Sketch 46.2 (44496) - http://www.bohemiancoding.com/sketch -->
    <title>Page 1</title>
    <desc>Created with Sketch.</desc>
    <defs></defs>
    <g id="Page-1" stroke="none" stroke-width="1" fill="none" fill-rule="evenodd">
        <g id="The-50-States" transform="translate(-319.000000, -1813.000000)" fill="#4A4A4A">
            <g id="Washington" transform="translate(282.000000, 1768.000000)">
                <path d="M54.2741025,45 L53.4484882,45.0006543 L53.4476703,45.0006543 L53.5476208,45.2038271 L53.627614,45.4267937 L53.2448247,45.35727 L53.0488496,45.3878604 L52.9446459,45.5220003 L52.989959,45.7400593 L53.4010485,45.7220649 L53.5090147,45.9537015 L53.4753162,46.0174997 L53.398104,46.1015825 L53.3213825,46.2087308 L53.2868661,46.3463059 L53.3218733,46.5051471 L53.4116815,46.627836 L53.7725504,46.9571329 L53.8594141,47.0937265 L53.8859149,47.2859391 L53.8505805,47.5921705 L53.9246846,47.4300576 L54.0830351,47.5216653 L54.2397496,47.7251652 L54.3113999,47.897584 L54.283754,47.9653083 L54.167445,48.0933954 L54.1399627,48.1591567 L54.1636825,48.299022 L54.2232275,48.4154946 L54.3050201,48.4717679 L54.3938469,48.4176212 L54.6434778,47.9613822 L54.7785992,47.7657344 L54.9369496,47.686232 L55.1026614,47.7251652 L55.3086151,47.8357488 L55.4870865,47.9981889 L55.5687155,48.2018524 L55.3825556,48.585296 L55.348857,48.7976296 L55.5377979,48.8903824 L55.5335447,48.9566344 L55.5821295,49.284459 L55.6204084,49.4141821 L55.6912408,49.5218211 L55.7646905,49.5658255 L55.8378131,49.5985425 L55.9101177,49.6643038 L56.0229915,49.9172064 L56.0563629,50.2010267 L55.9950184,50.4344627 L55.8248899,50.5303236 L55.6807713,50.4632537 L55.348857,50.1697819 L55.170222,50.1005854 L54.9994391,50.1422996 L55.0912104,50.2528832 L55.4260692,50.4902453 L55.5292915,50.6669172 L55.6068308,50.8468609 L55.6555792,51.0516695 L55.6824072,51.3868555 L55.7017102,51.5088901 L55.7239578,51.5872474 L55.7182323,51.664296 L55.651326,51.7794599 L55.5531749,51.8352425 L55.4394832,51.8008896 L55.3313534,51.7115721 L55.133579,51.446237 L54.9889697,51.3462864 L54.8846024,51.4089395 L54.8857474,51.7369278 L54.7496446,51.5332643 L54.6146868,51.2093656 L54.4484843,51.0102825 L54.2256813,51.1776301 L54.1206596,51.2267057 L53.9819394,51.2162362 L53.8707015,51.2383202 L53.8505805,51.3868555 L53.9161782,51.4486907 L54.0337959,51.4751915 L54.1466697,51.555839 L54.1967267,51.7794599 L54.1517408,51.9011673 L54.0696211,51.9814876 L54.0288884,52.0902717 L54.1119896,52.297207 L54.2098136,52.3889783 L54.3367556,52.420223 L54.4720406,52.4010836 L54.5953838,52.3431744 L54.6599999,52.2661258 L54.7941398,52.040869 L54.8538483,51.9939201 L54.9397306,52.0030809 L55.0671634,52.040869 L55.1244182,52.1184084 L54.9994391,52.2500945 L54.9994391,52.3431744 L55.1124765,52.4513042 L55.2773703,52.7858359 L55.368978,52.8565047 L55.5070439,52.8676284 L55.6298964,52.9045987 L55.7370446,52.9703599 L55.9328561,53.1872739 L56.1811784,53.3397352 L56.4610726,53.5964003 L56.5101481,53.670668 L56.5438467,53.7573681 L56.5639676,53.8931438 L56.5979934,53.9580871 L56.4707241,54.215243 L56.4447141,54.3423487 L56.4841381,54.4702723 L56.3858234,54.526382 L56.3115557,54.4493334 L56.2392511,54.3240272 L56.1427358,54.2288206 L56.0092504,54.2052643 L55.8495912,54.2186783 L55.5687155,54.3070143 L55.3931886,54.4714174 L55.2981456,54.7195761 L55.2811328,55.0150109 L55.341005,55.3289308 L55.4722003,55.6215847 L55.6442919,55.8337546 L56.3452543,56.3645885 L56.4226301,56.4416371 L56.5806533,56.7069722 L56.6761871,56.7861475 L56.8257039,56.7817307 L56.6495227,56.3902714 L56.5247072,56.1939692 L56.3935119,56.11005 L56.2709866,56.0573755 L56.1244143,55.9328872 L55.9915832,55.7866421 L55.9101177,55.669188 L55.8441929,55.4768118 L55.8132753,55.2528637 L55.8373223,55.0652315 L56.0077781,54.9387802 L55.9843854,54.6817879 L56.0236458,54.5620436 L56.0923516,54.5339069 L56.156477,54.5664604 L56.2096422,54.6174989 L56.2513564,54.6480894 L56.5955396,54.8021866 L56.6779865,55.0842074 L56.661628,55.4687961 L56.7069411,55.9322329 L56.8913016,56.3356339 L57.1613807,56.6428468 L57.742108,57.1288584 L57.8790288,56.9821225 L57.9968101,56.9889931 L58.0452313,57.035942 L58.1136099,57.0712764 L58.1291505,57.1278769 L58.0905444,57.1736807 L58.052429,57.2194846 L57.9987731,57.2773937 L57.9832325,57.4596276 L57.9524785,57.6197774 L57.7856216,57.7246355 L57.7126627,57.7939956 L57.4160828,57.8610656 L57.3457411,57.9170117 L57.2868505,57.9844088 L57.1209751,58.111678 L57.0553775,58.1744947 L57.0216789,58.2726458 L57.020861,58.394844 L56.9408679,58.5664448 L56.9174752,58.7604568 L56.895064,59.033644 L56.7870978,59.239107 L56.540575,59.4516041 L56.4597639,59.5945775 L56.3967836,59.7622523 L56.3558873,59.9647708 L56.3414918,60.2085127 L56.4056172,60.394509 L56.4957526,60.5248864 L56.5266702,60.7184076 L56.5497357,60.9223983 L56.5199632,61.0598099 L56.3890951,61.2701804 L56.3356028,61.3781466 L56.3148274,61.4872579 L56.2786751,61.5721586 L56.1828142,61.6068386 L56.1522238,61.6604946 L56.1975369,61.7756585 L56.2798202,61.8908225 L56.3581775,61.9434969 L56.7311517,62.112644 L56.8494238,62.2574168 L56.8922831,62.4185482 L56.8841038,62.6151776 L56.8445162,62.8702069 L56.7592883,62.7586418 L56.6704616,62.581479 L56.5759094,62.4529011 L56.4728507,62.4831644 L56.3612856,62.6272829 L56.3172812,62.713983 L56.3293865,62.824403 L56.4890456,63.380429 L56.5474455,63.5109699 L56.6405255,63.6719377 L56.6704616,63.816547 L56.6688257,64.3475445 L56.7175741,64.4977157 L56.9454482,64.8152345 L57.0157899,64.976693 L57.0292038,65.2022769 L56.9886347,65.3921993 L56.8971906,65.5219224 L56.6251485,65.600934 L56.464835,65.679782 L56.3145003,65.7857852 L56.2083335,65.8978411 L56.1460075,66.0334532 L56.1618753,66.1350396 L56.2459581,66.2243571 L56.3890951,66.3246348 L56.2372881,66.4671174 L56.116235,66.522082 L55.9883115,66.4795499 L55.6807713,66.2120882 L55.3887718,66.0262554 L55.2456348,65.8978411 L55.2495609,66.354898 L55.1397952,66.798541 L54.9619781,67.2032507 L54.288498,68.1962126 L54.0084402,68.4857584 L53.7040082,68.6688102 L53.6711276,68.534016 L53.5929339,68.3992218 L53.4898752,68.2943637 L53.2853938,68.1998115 L53.2072001,68.077777 L53.1406209,67.9387296 L53.0725695,67.834853 L52.9147098,67.7365383 L52.8685788,67.8045897 L52.8782303,67.9946757 L52.8829743,68.0251025 L52.8010181,68.0898823 L52.6780021,68.1512267 L52.5603843,68.1690575 L52.6191114,68.077777 L52.6578811,67.9756998 L52.6621343,67.863644 L52.6168212,67.7443904 L52.2876879,68.0251025 L52.2134202,68.1690575 L52.2144017,68.3202102 L52.2530078,68.4797057 L52.2588969,68.6288954 L52.1566562,68.7525658 L52.2220902,68.8867056 L52.2819624,69.0589608 L52.2790179,69.1826312 L52.1566562,69.1692172 L52.0722462,69.0730291 L52.0099203,68.8036043 L51.9289456,68.6688102 L51.9794934,68.5490658 L51.9963427,68.4185249 L51.9794934,68.2896197 L51.9289456,68.1690575 L51.8411004,68.4505875 L51.6852037,68.6611216 L51.4947906,68.7707237 L51.3022509,68.7525658 L51.452422,68.650325 L51.5651322,68.5201112 L51.9341803,67.8058984 L51.9722957,67.6300444 L51.872018,67.5847313 L51.6837315,67.916482 L51.6490514,67.9562332 L51.6019389,67.971283 L50.8980319,68.5068608 L50.7336288,68.5857089 L50.8224556,68.3874437 L50.9826054,68.3167749 L51.1452091,68.2765329 L51.2402521,68.1690575 L51.2093345,67.996148 L51.049021,67.9990925 L50.85779,68.0859562 L50.7336288,68.1690575 L50.8206561,67.9776628 L51.0293908,67.8741134 L51.4682898,67.7443904 L51.6814413,67.5464523 L51.8087105,67.2892965 L52.0534339,66.3619322 L52.1123246,66.2724511 L52.2445014,66.2402248 L52.3428161,66.1990014 L52.4738478,66.101341 L52.6735853,65.8978411 L52.7527605,65.6720935 L52.8898449,65.0709181 L53.0102435,64.8926102 L52.9649305,65.065029 L53.0027186,65.1541829 L53.0730602,65.2160181 L53.1290064,65.3038633 L53.1738287,65.4749734 L53.1869155,65.5688713 L53.1913323,65.9066747 L53.1695755,66.1402743 L53.0941627,66.3306874 L52.9331949,66.4075724 L52.9340129,66.6940101 L53.0681527,67.2565794 L53.2853938,67.6460757 L53.5330617,67.4175472 L53.5360063,67.3427888 L53.5134315,67.2565794 L53.485622,67.1862378 L53.4713901,67.1600642 L53.4993632,67.1086984 L53.5458214,67.0445731 L53.5832824,67.0164364 L53.5849182,67.0767993 L53.633503,66.9735771 L53.687159,66.9179581 L53.6966469,66.8461443 L53.4934741,66.4928003 L53.4484882,66.3226717 L53.4859492,66.1495986 L53.6156722,65.9390645 L53.6490436,65.8394412 L53.6580408,65.7174066 L53.6750537,65.6138572 L53.7300183,65.5700164 L53.8042859,65.5379537 L53.8656304,65.464504 L53.9240303,65.3753501 L53.9884828,65.3038633 L54.277865,65.1530378 L54.3868127,65.0377103 L54.4484843,64.8088546 L54.4921615,65.1116508 L54.4034984,65.3176045 L54.2790101,65.4898597 L54.2160298,65.6930324 L54.1458518,65.8540002 L54.0288884,65.9657289 L54.0054957,66.0776212 L54.2160298,66.2402248 L54.8625184,66.5307521 L54.9870067,66.5323879 L55.0833583,66.2811211 L55.0524407,66.0769668 L54.8422338,65.6469014 L54.9860252,65.6002797 L55.0979174,65.5211044 L55.1828181,65.3998878 L55.2456348,65.2281234 L55.0902289,64.9650785 L55.1276899,64.6936907 L55.2387642,64.4047993 L55.3033804,64.0920244 L55.3699595,63.8612058 L55.4789073,63.6009418 L55.4929756,63.386318 L55.2745894,63.2981456 L55.2117727,63.1329246 L55.1981951,62.8149151 L55.115421,62.6104336 L54.8422338,62.7864513 L54.6663797,62.954126 L54.4735128,63.0907197 L54.0454105,63.2981456 L54.0918686,63.1734938 L54.2498919,62.9999299 L54.3302122,62.8702069 L54.4003903,62.7156189 L54.3985908,62.6883002 L54.3349562,62.6883002 L54.0450833,62.5224248 L53.9745781,62.4473392 L53.9258297,62.2813003 L53.9171597,62.1201689 L53.9362992,61.9843932 L53.9807943,61.8684113 L54.0454105,61.7676429 L54.359494,62.4561728 L54.5837692,62.7239617 L54.7902137,62.6171406 L54.7280514,62.5256965 L54.7902137,62.441123 L54.4883991,61.2585658 L54.4484843,61.1785727 L54.3753617,61.0887644 L54.2996218,61.0303645 L54.240404,60.949717 L54.2160298,60.7948019 L54.295205,60.7699369 L54.7592961,61.2701804 L54.8942539,61.1937861 L55.0187422,61.016787 L55.0936642,60.8172131 L55.0751791,60.6727674 L55.2160259,60.6411954 L55.6177911,60.7362384 L55.7013831,60.7139908 L55.7278839,60.6544458 L55.7800675,60.5783787 L55.8224361,60.4727027 L55.8147476,60.3272755 L55.7653449,60.231251 L55.6873147,60.1569833 L55.5999603,60.1069263 L55.5252019,60.0810798 L55.6420017,59.8877222 L55.6101026,59.7622523 L55.5234024,59.6570671 L55.4736725,59.5319244 L55.4209981,59.1136372 L55.4113466,58.9315669 L55.3246464,58.62828 L55.1132944,58.4373761 L54.6146868,58.1273822 L54.6328448,58.2502347 L54.7902137,58.551395 L54.82244,58.640876 L54.9629596,59.2301098 L55.0043467,59.5085317 L54.9667221,59.6901113 L54.7902137,59.6503601 L54.7501353,59.5554807 L54.7732009,59.4435884 L54.7612591,59.3500177 L54.6146868,59.3125567 L54.5276595,59.3521443 L54.4340888,59.4435884 L53.609456,60.6462666 L53.5342068,60.8392971 L53.415444,61.3905791 L53.3614609,61.5528555 L53.2631462,61.6560778 L53.0725695,61.7676429 L52.4465291,62.0216906 L51.9282913,62.3704542 L51.8150903,62.441123 L51.201646,63.3549097 L50.8620432,64.1692366 L50.784831,64.3061574 L50.5613736,64.6204045 L50.4684573,64.8041107 L50.4432652,64.976693 L50.6246811,65.265748 L50.9544688,65.2701648 L51.5875434,64.976693 L52.1651626,64.5728012 L52.4933144,64.4205035 L52.7310037,64.4731779 L52.4604338,64.7445657 L52.1807032,64.9272903 L50.7722349,65.545315 L50.3043814,65.5932455 L50.0452625,65.3959618 L50.0688187,65.2078388 L50.2782077,64.7157747 L50.394026,64.2575726 L50.5455059,64.0638878 L50.7180882,63.8970309 L50.8474841,63.7182323 L51.1156002,63.021196 L51.2144056,62.8275111 L51.8757804,61.9752324 L51.9703327,61.8875508 L52.0735549,61.8522164 L52.1401341,61.7876002 L52.1903547,61.5026349 L52.3356183,61.3179472 L52.4223185,61.0465595 L52.5415721,60.7597947 L52.7310037,60.5955552 L52.5724896,60.2389395 L52.5037839,60.0148278 L52.498222,59.8201615 L52.5868851,59.6128991 L52.667369,59.683895 L52.721025,59.9076795 L52.7310037,60.1576377 L52.8772488,60.0293869 L52.9032589,59.8005313 L52.9129104,59.5612062 L53.0102435,59.3977846 L53.0663533,59.851897 L53.0594827,60.2168555 L52.9071849,61.0090985 L52.8144321,61.2440067 L52.8203212,61.3797824 L52.9585506,61.4391638 L53.0545751,61.4198608 L53.14651,61.3627696 L53.2158701,61.2701804 L53.2433524,61.1399666 L53.2641277,60.9389204 L53.3181108,60.7020491 L53.4713901,60.2498997 L53.5876992,60.0048491 L53.9577288,59.5319244 L54.0256167,59.4008927 L54.087779,59.1671295 L54.1592657,59.0589997 L54.2408947,59.0378972 L54.489217,59.0243197 L54.5577592,58.9742626 L54.506557,58.8260544 L54.0732199,58.2544879 L54.0362497,58.1496298 L54.0107304,57.8859305 L53.9884828,57.7884337 L53.9295922,57.7172742 L53.7714053,57.6137248 L53.7040082,57.5342224 L53.3527909,56.901475 L53.30028,56.720877 L53.2631462,56.641211 L53.1869155,56.548131 L53.1247532,56.4254422 L53.1290064,56.2525326 L53.1869155,56.1766291 L53.3923785,56.0606473 L53.4713901,55.9981577 L53.3061691,55.7004327 L53.1000518,55.6996148 L52.8589273,55.8254118 L52.5886846,55.9063864 L52.4885705,55.9726384 L52.4095588,56.1296802 L52.377169,56.3156765 L52.4151207,56.4666656 L52.749816,56.8363681 L52.8496029,57.0179476 L52.7121914,57.3868322 L52.6047159,57.5145922 L52.4465291,57.5342224 L52.4465291,57.4419604 L52.6124044,57.3266328 L52.5801782,57.0891072 L52.4527453,56.8363681 L52.332183,56.6781812 L52.226507,56.6328682 L52.1334271,56.6331953 L52.0673387,56.5839562 L52.0429645,56.3852002 L51.9943797,56.2729808 L51.8811787,56.2383007 L51.7491655,56.2441898 L51.3969667,56.3156765 L51.3421656,56.4774622 L51.4165969,56.9752519 L51.3244984,56.9768878 L51.1427553,56.8937865 L51.0123779,56.7140064 L51.0751946,56.4239699 L50.8777474,56.0984354 L50.6469287,55.8571473 L50.3724328,55.7092663 L50.0452625,55.6590457 L50.0452625,55.5656385 L50.1627166,55.5317764 L50.2762447,55.472395 L50.361309,55.3748982 L50.3922266,55.2250542 L50.0946652,55.4182483 L49.525716,55.9386127 L49.2479484,56.0750427 L47.8689254,55.9924322 L47.7010871,55.9063864 L47.7055039,55.8522398 L47.7778085,55.8201771 L47.8501131,55.7895866 L47.9287976,55.7437828 L47.3313846,55.8290107 L47.1758151,55.805618 L46.7851737,55.6590457 L46.2893471,55.7406747 L46.0757049,55.8353905 L45.9409107,55.7606321 L45.7084562,55.5656385 L45.417111,55.4961149 L44.8131546,55.5502615 L43.5610737,55.4632342 L42.4199036,55.13999 L42.2558277,55.0621234 L41.9886931,54.6824422 L41.8174195,54.54454 L41.1550632,54.2356912 L40.9613783,54.195122 L40.5892221,54.2425617 L40.4460851,54.195122 L40.2381683,54.0050361 L40.1621012,53.9541611 L39.5565089,53.7923754 L39.2349005,53.5080644 L37.8809061,52.8228061 L37.473579,52.7014259 L37.0152134,52.658403 L37,52.8463624 L37.0649433,53.0009504 L37.3054135,53.2656311 L37.5043331,53.4279076 L37.5381952,53.4740386 L37.509895,53.6047432 L37.3850795,53.7959742 L37.3571064,53.9083573 L37.3571064,54.3731027 L37.3378034,54.4324841 L37.2645172,54.526382 L37.2483223,54.5901802 L37.2594461,54.6480894 L37.3029597,54.7308635 L37.3054135,54.7989149 L37.2569923,55.2194923 L37.1861599,55.4085968 L37.0464582,55.4876084 L37.0258465,55.589522 L37.3054135,56.2104913 L37.3139199,56.6639493 L37.3571064,57.1098825 L37.4508407,57.5703747 L37.5825268,58.0269409 L37.7456212,58.4473548 L38.0294414,58.9853864 L38.0970021,59.0395331 L38.3180057,59.0725773 L38.4173019,59.1136372 L38.5092367,59.1821793 L39.0232213,59.7759935 L39.1370766,59.9965063 L39.2528949,60.4087409 L39.3284712,60.5492606 L39.4230234,60.6223831 L39.5282087,60.6544458 L39.6140909,60.7146452 L39.6898308,61.1424204 L39.9908275,61.8522164 L40.0381037,62.0575158 L40.1287298,63.06062 L40.2396406,63.5492489 L40.4460851,65.3959618 L40.5136457,65.4605779 L40.6970247,65.5006563 L40.7876509,65.5700164 L40.7492084,65.6653865 L40.7423378,65.8026345 L40.7714559,65.9277772 L40.8445785,65.9817603 L40.9567979,66.0082611 L41.0161794,66.079257 L41.1997219,66.4780776 L41.3626527,66.9920622 L41.4601495,67.4738205 L41.5584642,68.4551679 L41.673301,68.9933631 L41.7042185,69.2598433 L41.6427105,70.1206285 L41.6181728,70.2591851 L41.5887274,70.3197116 L41.5823476,70.4576139 L41.6008327,70.6002602 L41.6468002,70.6737099 L41.7025827,70.6285604 L41.9741341,70.2794697 L42.0248455,70.2490428 L42.0511827,70.2091281 L42.0196107,70.1256996 L41.9530316,70.0167519 L41.9366731,69.9604786 L41.913444,69.7360398 L41.8352503,69.5492255 L41.8174195,69.4608895 L41.8985577,69.2799643 L42.0924061,69.1826312 L42.3196259,69.1512228 L42.5057859,69.1692172 L42.6768959,69.2582075 L42.8226503,69.4160672 L42.9234188,69.6288915 L42.9612069,69.880649 L43.0585401,70.0365457 L43.2818339,70.0556852 L43.7011026,70.0012113 L43.7011026,70.084149 L43.6813088,70.1098319 L43.6494097,70.1675774 L44.1543971,70.128317 L44.4138432,70.1487651 L44.6116177,70.2591851 L43.983287,70.446163 L43.3652623,70.7571384 L43.1202117,70.9305386 L42.9971957,70.9858304 L42.8188879,71.0066057 L42.6840937,71.0980498 L42.6273296,71.2781571 L42.6595559,71.4057535 L42.7902605,71.3377021 L42.874834,71.4638263 L42.9302894,71.5703202 L42.9374871,71.6753419 L42.8751612,71.7983579 L42.8162705,71.7788913 L42.702906,71.7075682 L42.5687661,71.6511313 L42.4488582,71.6705979 L42.4077983,71.4769131 L42.2394692,71.2446221 L42.2782389,71.0973955 L42.1594761,70.8322239 L41.9955637,70.9945004 L41.9649733,71.1463075 L42.1020577,71.594858 L42.2087152,72.0859406 L42.3170086,72.8976502 L42.3804796,73.063362 L42.5066038,73.1345215 L42.8048195,73.1593865 L42.9389594,73.1479355 L43.013227,73.1613495 L43.1077793,73.2233483 L43.1823741,73.2971252 L43.260077,73.3262433 L43.3652623,73.2511578 L43.2456815,73.1613495 L43.2456815,73.0869183 L43.6783643,73.1837607 L43.7887843,73.1237249 L43.8722127,73.0074159 L43.9392826,72.9491795 L44.0233654,72.9491795 L44.1561966,73.003817 L44.3888147,73.1939029 L44.5672861,73.4329009 L44.7563905,73.6223325 L45.0205806,73.6661733 L44.9163768,73.8026033 L44.7622796,73.8783433 L44.6212692,73.8569136 L44.5600883,73.7077239 L44.499889,73.4963719 L44.3585514,73.4445154 L44.0762034,73.5007887 L43.7954913,73.6220053 L43.6986489,73.9144956 L43.7550857,74.2709477 L43.9286496,74.5820866 L43.7945098,74.549206 L43.5654905,74.3741699 L43.4164645,74.3352366 L43.5141248,74.5438077 L43.7168068,74.8482397 L43.851601,75.1511994 L43.8880805,75.2058369 L43.9170351,75.2866479 L43.9286496,75.4445076 L43.9170351,75.5671965 L43.8815371,75.6627302 L43.8197019,75.722766 L43.6253627,75.7854191 L43.5934636,75.8870055 L43.6103129,76.018528 L43.6494097,76.1495597 L43.6837626,76.2037064 L43.7385636,76.2571987 L43.7994173,76.2979314 L43.8457119,76.3142899 L43.8727035,76.3388277 L43.8852995,76.4665877 L43.9031303,76.5279322 L44.0483939,76.6264104 L44.2473135,76.710984 L44.3812898,76.8390711 L44.3320506,77.0695626 L44.1920217,76.9341141 L43.8327887,76.6764675 L43.763265,76.5691556 L43.7011026,76.5691556 L43.6755834,76.8591921 L43.569253,77.1222371 L43.4028869,77.2922021 L43.1939886,77.3021807 L43.0680281,77.1474292 L42.9679139,76.8591921 L42.8471881,76.2392044 L42.8347556,75.9161237 L42.9042793,74.9949756 L42.8390088,74.7253872 L42.7338236,74.5233596 L42.6850752,74.329184 L42.7902605,74.0856057 L42.568439,74.1994609 L42.5306508,74.6642064 L42.6592287,76.6730322 L42.6466327,77.1866896 L42.5578059,77.5634263 L42.6129341,77.7055818 L42.616533,77.8312152 L42.5578059,78.0571263 L42.4679977,78.3002138 L42.3999463,78.445641 L42.3348394,78.5419927 L42.4208852,78.6152789 L42.5010419,78.618387 L42.6716612,78.5419927 L42.7174651,78.5513171 L42.7478919,78.5904139 L42.784535,78.6046458 L42.8471881,78.5419927 L42.8254313,78.5231804 L42.8000756,78.4525116 L42.7840442,78.3645028 L42.7902605,78.3028312 L42.9271812,78.1654197 L43.0758801,78.1416998 L43.2258877,78.199609 L43.3652623,78.3028312 L43.7897658,78.7829536 L43.9857408,78.8696538 L44.2028183,78.8506779 L44.3592058,78.7320787 L44.5005433,78.5819075 L44.6742708,78.4672343 L44.7747121,78.4574192 L45.0467542,78.5419927 L45.1259294,78.5184364 L45.2430564,78.4166865 L45.4953047,78.329332 L45.5694088,78.214986 L45.6327163,78.1682006 L45.7608034,78.3028312 L45.8049714,78.4071985 L45.8267283,78.5120566 L45.8658251,78.5912318 L46.361161,78.7132664 L47.3978002,78.5231804 L47.6418692,78.5557339 L47.8443877,78.6736788 L47.9287976,78.9112044 L47.9832715,79.1271368 L48.1164298,79.2944845 L48.7691346,79.8228645 L48.9276486,79.9108734 L49.1601031,79.9434268 L49.3511706,79.8977865 L49.7187465,79.7127717 L49.9318979,79.6970675 L50.4576607,79.5967898 L50.6207551,79.6430844 L50.7315022,79.7546495 L51.0244832,79.9769618 L51.1398108,80.0419051 L51.3945129,80.088854 L51.6678637,80.2063082 L51.9269826,80.3674395 L52.1391526,80.5405126 L52.2925954,80.7252003 L52.4396585,80.9712324 L52.55106,81.2373854 L52.6403775,81.6949331 L52.751779,81.8279279 L52.8865732,81.9419467 L53.0027186,82.0940809 L53.0529393,82.2907103 L53.1203364,82.8320136 L53.2737792,83.2493194 L53.2582387,83.4696686 L53.2196326,83.7112839 L53.2255216,83.9838168 L53.4144625,84.3129501 L53.4484882,84.4317129 L53.4401454,84.5620903 L53.4044838,84.7916003 L53.3961409,84.9227956 L53.4370372,85.388359 L53.4898752,85.6548392 L53.5674146,85.8531044 L53.7110424,86.0194705 L53.9093076,86.1761851 L54.1159157,86.2944572 L54.7681297,86.4279427 L55.1042972,86.3356807 L55.2281312,86.340261 L55.4991918,86.481435 L55.9253312,86.5964354 L56.1744714,86.7402268 L56.8787055,86.7541315 L57.5507133,87 L57.7118447,86.955832 L57.8549818,86.8625885 L58.4780776,86.671521 L59.9686657,86.0976642 L60.3023794,85.8851671 L60.8746003,85.4021001 L61.2209101,85.2033441 L61.4563091,85.1567224 L62.0818588,85.2918437 L63.3103834,85.0608615 L65.7975322,85.3068936 L66.1934083,85.447904 L66.3610831,85.5898959 L66.4448387,85.7647684 L66.5102728,85.9738303 L66.622165,86.2228069 L66.7721726,86.3356807 L66.9558787,86.3129423 L67.697901,85.9710493 L67.7402696,85.9659782 L67.9157965,85.9753025 L68.0075678,86.0004947 L68.0541895,86.0060565 L68.3286854,85.989698 L68.4212746,86.0027848 L68.5418369,86.0574223 L68.8969803,86.1024082 L69.2529416,85.9973865 L69.3658154,85.989698 L69.4085111,85.9753025 L69.7787043,85.6800313 L69.8398852,85.6548392 L70.4341901,85.5306781 L70.8267945,85.3711825 L70.8578757,85.2833373 L70.9149669,85.21365 L71.1369519,85.0656054 L71.2243064,85.0438486 L72.4808041,85.2903715 L72.578628,85.2813743 L72.7809828,85.1797879 L72.8531239,85.162775 L73.2825349,85.2422774 L73.3780687,85.2298449 L73.5675003,85.1516512 L73.8949978,84.9542039 L73.9823523,84.9304841 L74.1094579,84.9327743 L74.3549993,84.9829949 L74.4845587,84.9703989 L74.7157046,84.8657044 L74.9336,84.7076811 L75.1886293,84.4518339 L75.3401091,84.3502475 L75.7309141,84.2825233 L76.9491328,83.7675572 L79.2152781,83.3630111 L79.5643688,83.079518 L79.804839,82.7742681 L79.9422505,82.6978738 L80.1627633,82.6726817 L80.7397282,82.6996732 L81.1612872,82.6183714 L81.8925129,82.4757251 L83.9597386,82.443826 L84.3665749,82.2568482 L84.718283,81.837743 L84.7910784,81.837743 L85.1766486,81.8370887 L86.2509124,81.8354528 L87.3253397,81.8338169 L88.3997671,81.8325083 L89.4733765,81.8313632 L90.5474767,81.8294001 L91.6223948,81.8279279 L92.696495,81.8267828 L93.7705952,81.8256377 L94.8450225,81.8246562 L95.9192863,81.822366 L96.9927321,81.8207301 L98.0673231,81.8190943 L99.1410961,81.8186035 L100.215851,81.8169677 L101.290278,81.815659 L102.422124,81.8145139 L102.226803,81.2763187 L101.786268,80.7050793 L101.740301,80.5776465 L101.985188,80.2980794 L102.093154,80.1312226 L102.169875,79.8856812 L102.169385,79.6344144 L101.989277,79.3069169 L101.894234,78.7186647 L101.778907,78.4641262 L101.500485,77.9905471 L101.105427,77.4719821 L101.044246,77.2884396 L101.07729,77.0716893 L101.203741,76.6905358 L101.202596,76.3435717 L101.194908,74.4288073 L101.188201,72.5084811 L101.181821,70.5812843 L101.174787,68.6490163 L101.16808,66.712168 L101.161209,64.7689399 L101.154339,62.8188411 L101.147468,60.8628533 L101.141252,58.9022851 L101.134708,56.9348464 L101.127511,54.9607006 L101.120967,52.9821381 L101.113606,50.9957234 L101.10739,49.0045648 L101.100519,47.0060449 L101.093812,45 L54.2741025,45 Z M50.6356413,45.0006543 L50.6462743,45.0623259 L50.6531449,45.2607548 L51.013523,45.1071483 L51.0989145,45.0006543 L50.6356413,45.0006543 Z M52.0601409,47.8440917 L52.0537611,47.8898955 L52.0832064,47.9067448 L52.0832064,47.9257207 L52.0668479,47.926375 L52.0429645,47.9299739 L52.0735549,48.0050595 L52.110198,48.0384308 L52.0933487,48.0510269 L52.1219761,48.071475 L52.1807032,48.100266 L52.1980432,48.0765462 L52.1735054,48.0453014 L52.1942808,48.0477552 L52.2389395,48.0924139 L52.3400351,48.1102447 L52.2346863,47.9761049 L52.2009877,47.9950808 L52.1270472,47.9376624 L52.1946079,47.8898955 L52.2695299,47.8882596 L52.3725886,47.9136153 L52.2876879,47.838039 L52.1681071,47.8115382 L52.0601409,47.8440917 Z M53.7221662,48.3860493 L53.7530838,48.5090653 L53.864976,48.6010002 L54.0622597,48.8491589 L54.2060511,49.0740885 L54.2655961,49.1436122 L54.4447218,49.3088332 L54.5538332,49.3806471 L54.6156683,49.3490752 L54.5971832,49.2204972 L54.5472897,49.0964997 L54.4883991,48.9891878 L54.4313079,48.9109941 L54.3302122,48.8157875 L54.2050696,48.7294146 L54.1293297,48.6399335 L53.9037457,48.2631968 L53.7646983,48.2070871 L53.7221662,48.3860493 Z M51.0500025,48.4900895 L51.0069796,48.5463628 L50.9003221,48.632245 L50.8471569,48.6993149 L51.0086155,48.766712 L51.0344619,48.7869965 L51.0472216,48.9736472 L51.0853369,48.9944225 L51.2883461,48.8604463 L51.3259707,48.7989383 L51.3249892,48.7371031 L51.3143562,48.4945063 L51.2739506,48.4320167 L51.0500025,48.4900895 Z M54.5533424,48.4853455 L54.5729726,48.5898764 L54.5520337,48.6090159 L54.4908529,48.6080344 L54.4533919,48.5753173 L54.3501696,48.5898764 L54.281791,48.5733543 L54.356713,48.6468041 L54.5577592,48.8089169 L54.6295731,48.760005 L54.6406969,48.5728636 L54.6060168,48.5021948 L54.5441816,48.4547551 L54.5533424,48.4853455 Z M52.0745364,48.5547056 L51.9806385,48.5921666 L51.576256,49.1045153 L51.483994,49.148029 L51.4144703,49.1949779 L51.2160415,49.4233428 L51.1707284,49.4987556 L51.1692561,49.6234075 L51.2054084,49.7251575 L51.3105937,49.8895605 L51.415779,49.9921284 L51.4763055,49.8990485 L51.5054236,49.7135429 L51.5121306,49.5417785 L51.5566258,49.4719276 L51.6544497,49.5224754 L51.7966052,49.6626679 L51.8420819,49.7807764 L51.8792157,49.9244042 L51.9462856,50.0484017 L52.081407,50.0999311 L52.3294021,50.0829182 L52.4383498,50.0358057 L52.5418992,49.9352008 L52.138171,49.2329297 L52.1772679,49.1265993 L52.1735054,49.0639462 L52.1512579,48.9891878 L52.138171,48.850304 L52.1749777,48.7330134 L52.2549708,48.7025866 L52.3344732,48.7462638 L52.3706256,48.850304 L52.3918916,48.9868976 L52.508855,49.3335346 L52.7130093,49.6940763 L52.7990551,49.7979528 L52.8829743,49.8426116 L52.9837428,49.8151293 L53.0131881,49.7449513 L53.0208766,49.6589055 L53.0544115,49.5843106 L53.4144625,49.3281363 L53.4676277,49.2687548 L53.5099962,49.148029 L52.5762521,48.5898764 L52.2520263,48.5463628 L52.0745364,48.5547056 Z M49.4023728,48.870425 L49.4311638,48.9535262 L49.8137895,49.2083919 L49.8607384,49.1746934 L49.8373457,49.1084414 L49.7655318,49.0740885 L49.7473739,49.0449703 L49.8110085,49.0520045 L49.8993445,49.0996078 L49.9590531,49.0996078 L49.9870261,49.0439888 L49.9714855,48.9891878 L49.942531,48.952054 L49.9093232,48.9450198 L49.8348919,49.0112718 L49.7791094,49.0060371 L49.6740877,48.9442019 L49.6578928,48.9077224 L49.600638,48.8465415 L49.4669889,48.8213494 L49.4023728,48.870425 Z M50.0285768,49.3804835 L50.1422685,49.4302134 L50.2207893,49.4822335 L50.4913592,49.5300004 L50.4943037,49.5180586 L50.4722197,49.4928665 L50.4470276,49.4822335 L50.387319,49.4400285 L50.2940755,49.4128734 L50.1717138,49.3734493 L50.1262371,49.3523469 L50.034793,49.331408 L50.0285768,49.3804835 Z M53.9556022,49.6438556 L53.8958936,49.6711743 L54.0454105,49.8023696 L54.1991805,49.8669858 L54.1911648,49.756075 L54.1630282,49.6715015 L54.1149342,49.6261884 L53.9556022,49.6438556 Z M50.0699638,49.7737422 L49.9107955,49.972989 L49.9389321,50.2283454 L49.940568,50.2918165 L50.0024031,50.6669172 L50.1026808,51.0483978 L50.147176,51.1419686 L50.2291322,51.2651482 L50.3096161,51.341706 L50.4200361,51.4112297 L50.5348729,51.4606325 L50.6276256,51.4794447 L50.804134,51.4619411 L50.8456847,51.4827164 L50.9430178,51.5566569 L51.013523,51.635505 L51.0702871,51.7215508 L51.1407923,51.792056 L51.2536661,51.8219921 L51.3771729,51.8008896 L51.47058,51.767191 L51.5631692,51.7601569 L51.6827499,51.8219921 L51.6827499,51.7361099 L51.5335603,51.6690399 L51.4628915,51.6184921 L51.3982753,51.5566569 L51.2502308,51.2550059 L51.2227485,51.2221253 L51.252521,51.0704818 L51.3022509,51.0672101 L51.3712838,51.0973098 L51.455203,51.0434903 L51.5576073,50.8974087 L51.5772375,50.8201965 L51.3542709,50.718283 L51.1851239,50.4238297 L50.908665,50.298687 L50.7514596,50.1578402 L50.6091405,49.9878752 L50.5397804,49.8426116 L50.3140329,49.7047093 L50.0699638,49.7737422 Z M53.6672016,49.9397812 L53.596042,50.0789922 L53.5824644,50.2461762 L53.7005729,50.6094988 L53.7714053,50.6878561 L53.8659575,50.6888376 L53.9402252,50.6685531 L53.990773,50.6243851 L54.0084402,50.4989153 L54.063732,50.4038723 L54.1033196,50.3511979 L54.070439,50.298687 L53.9433333,50.1357562 L53.9210857,50.0562538 L53.8671026,49.9530316 L53.7617538,49.8830171 L53.6672016,49.9397812 Z M51.3753734,50.1308487 L51.2759136,50.1352655 L51.2641355,50.1833595 L51.3037231,50.2247465 L51.4031829,50.2429045 L51.4368814,50.2649885 L51.5294706,50.3994555 L51.5363412,50.4383888 L51.5014976,50.4576918 L51.5193284,50.5260704 L51.7987318,50.6206226 L51.8502612,50.5761275 L51.8579497,50.500224 L51.8705457,50.4576918 L51.8990095,50.4274286 L51.9403966,50.415814 L51.9927438,50.4228482 L52.0264424,50.415814 L52.0524524,50.4002734 L52.0951481,50.3611766 L52.1373531,50.2440496 L52.1092165,50.1545685 L52.0380569,50.1457349 L51.9840738,50.1578402 L51.9547921,50.191048 L51.9531562,50.2461762 L51.922075,50.2666243 L51.8878857,50.2139499 L51.8942656,50.1491702 L51.885432,50.1241417 L51.728063,50.0906067 L51.6462705,50.0271357 L51.3753734,50.1308487 Z M54.2862078,50.210351 L54.2832633,50.3199531 L54.3082918,50.3726275 L54.2741025,50.672152 L54.3676732,50.8430985 L54.528641,50.849969 L54.7092391,50.7668678 L54.7781084,50.7583613 L54.8548299,50.8187243 L54.9032511,50.8089092 L54.9096309,50.7150113 L54.8837844,50.6073722 L54.5095016,50.3291139 L54.3810872,50.1388643 L54.3213786,50.1144901 L54.2862078,50.210351 Z M52.332183,50.4140146 L52.138171,50.6227492 L52.1203403,50.6888376 L52.0832064,50.7905876 L52.0889319,50.9147488 L52.138171,51.0434903 L52.0166273,51.1229927 L51.9163496,51.2977016 L51.8698914,51.5165786 L51.9104605,51.7361099 L52.045909,51.8273904 L52.2358314,51.8666508 L52.3619555,51.9474619 L52.3091175,52.1629036 L52.8265374,52.2492765 L52.9490627,52.1249518 L53.0064811,51.9405913 L52.9881596,51.7369278 L52.8829743,51.5566569 L52.755705,51.7148438 L52.6467573,51.6943957 L52.570363,51.5537124 L52.5418992,51.3466136 L52.5654555,50.9451756 L52.55106,50.7159928 L52.4161022,50.387023 L52.332183,50.4140146 Z M52.7905487,50.9744573 L52.7426182,51.0371105 L52.740328,51.0771888 L52.8126327,51.1467125 L52.8438774,51.1969332 L52.8761037,51.223434 L52.8954068,51.2875593 L52.8674337,51.4470549 L52.8954068,51.4586694 L52.9068577,51.4495087 L52.9277966,51.3943805 L53.0396889,51.2908311 L53.1406209,51.1251193 L53.1587789,51.0791518 L53.1376764,51.0724449 L53.100379,51.0335116 L53.1169011,50.9551543 L53.1368585,50.9193291 L52.8679245,50.9082054 L52.7905487,50.9744573 Z M54.6797937,52.4871294 L54.5857323,52.5977129 L54.4681145,52.6595481 L54.253818,52.6548041 L54.1545218,52.9315902 L53.4637016,54.3423487 L53.4267314,54.5970508 L53.5234102,54.894285 L53.590153,54.9713336 L53.6951746,55.058361 L53.806249,55.1278846 L53.8931127,55.1568392 L53.9480773,55.2131125 L54.1545218,55.5829786 L54.3550772,55.4467121 L54.5335486,55.4228287 L54.6649075,55.5438817 L54.7236346,55.8370263 L54.6011093,56.524084 L54.6434778,56.7038641 L54.7902137,56.9327198 L54.7803986,57.1399822 L54.8901642,57.3950114 L55.0419713,57.6130705 L55.1577896,57.7045146 L55.2317301,57.8016841 L55.3053434,57.8610656 L55.4113466,57.874316 L55.5001733,57.8185334 L55.6545977,57.6398984 L55.7576564,57.6186324 L55.8881973,57.7311789 L55.9781692,57.9595438 L56.0308436,58.2389473 L56.0476929,58.5052639 L56.096932,58.5664448 L56.2063705,58.5433793 L56.3890951,58.4586422 L56.427374,58.4920135 L56.436044,58.5680806 L56.4504395,58.6340055 L56.5034411,58.6359685 L56.5430287,58.6001433 L56.5716561,58.5145883 L56.6115709,58.4586422 L56.7655046,58.1762942 L56.8135986,58.1273822 L56.8363369,58.0691459 L56.8039471,57.940568 L56.7311517,57.7462288 L56.6794588,57.4604455 L56.5497357,57.2595629 L55.8917962,56.791055 L55.7504586,56.6444827 L55.6161552,56.4666656 L55.4412827,56.3268003 L55.3585086,56.4678107 L55.3681601,56.7460691 L55.4736725,57.0179476 L55.3747035,57.3065119 L55.2626477,57.3824154 L55.170222,57.2440223 L55.1026614,56.634504 L55.0696172,55.9474463 L54.9667221,55.3865128 L54.8865654,55.1102175 L54.7622406,54.8998469 L54.5837692,54.8159277 L54.4883991,54.7877911 L54.2924241,54.6669017 L54.1823312,54.6379471 L53.9240303,54.7159772 L53.8070669,54.6986372 L53.6943567,54.5453579 L54.1748063,54.4413177 L54.2968409,54.3436574 L54.3203971,54.1849798 L54.3349562,53.9579236 L54.38076,53.8687696 L54.495924,54.126907 L54.5548147,53.9438552 L54.6503484,53.7297223 L54.7753275,53.6179936 L54.9258258,53.7473895 L55.040499,53.889545 L55.1721851,53.951053 L55.3014173,53.9199718 L55.4124917,53.7928661 L55.4249241,53.4434482 L54.9114303,53.0094568 L54.8996522,52.7532824 L54.8674259,52.7141856 L54.8538483,52.6752523 L54.8374898,52.5816816 L54.7604412,52.4436157 L54.6797937,52.4871294 Z M53.7327992,56.1846448 L53.6465898,56.2525326 L53.7913627,56.416445 L53.8775721,56.6557701 L53.8752819,56.8443838 L53.7555376,56.8555076 L53.721839,56.7748601 L53.6994278,56.5088706 L53.6465898,56.4239699 L53.5664331,56.4292046 L53.5505653,56.5316089 L53.5849182,56.7629184 L53.6344845,56.927485 L53.7445773,57.1700818 L53.8896774,57.3588591 L54.0454105,57.3655661 L54.1149342,57.1601031 L54.0822171,56.8512543 L54.0010789,56.5448593 L53.8814981,56.242554 L53.8139375,56.1846448 L53.7327992,56.1846448 Z M55.0768149,61.0007556 L55.0671634,61.0977616 L55.0748519,61.2243765 L55.0419713,61.349192 L54.9006337,61.5495838 L54.8875469,61.6279411 L54.8976892,61.8046131 L54.9361317,61.9387529 L54.9946952,62.0406665 L54.9786638,62.1823312 L54.9096309,62.3864855 L54.9706481,62.4543734 L55.0786144,62.4317986 L55.2053929,62.4602624 L55.384355,62.7260883 L55.5687155,62.7597869 L55.6526347,62.6352986 L55.7221584,62.5670835 L55.6526347,62.533385 L55.6150101,62.4762938 L55.5996331,62.3864855 L55.5840925,62.3176162 L55.5531749,62.2611793 L55.5566102,62.1679357 L55.4674563,62.0650407 L55.5310909,62.034941 L55.5749317,61.9912638 L55.6429832,61.8960572 L55.5620085,61.8046131 L55.5098248,61.6246694 L55.4674563,61.2227407 L55.4183807,61.1424204 L55.3372425,61.0563746 L55.243999,60.9889775 L55.159589,60.9614952 L55.0768149,61.0007556 Z M55.8001885,63.6881327 L55.6508353,63.850082 L55.5256926,64.0370598 L55.4736725,64.1795425 L55.4113466,65.1059253 L55.3825556,65.180193 L55.3290632,65.2770354 L55.2955283,65.3943259 L55.3313534,65.5243761 L55.4062754,65.6346325 L55.4713823,65.6985943 L55.5301094,65.7062828 L55.5868735,65.6469014 L55.6235165,65.550059 L55.6402022,65.4327684 L55.6442919,65.1854277 L55.6807713,65.113941 L55.7646905,65.0565226 L55.9286029,64.976693 L55.8667677,64.8926102 L56.0058151,64.8589117 L56.0597982,64.9528096 L56.0403315,65.0802424 L55.9575574,65.1450221 L55.8387946,65.1954064 L55.777123,65.3208762 L55.7692709,65.4854429 L55.8147476,65.6469014 L55.9796414,65.5075269 L56.2439951,65.2243609 L56.6061726,65.0709181 L56.6688257,65.0683007 L56.4977157,64.9393956 L56.3405103,64.8615291 L56.2055525,64.7583068 L56.0992222,64.5490814 L56.0751752,64.4257382 L56.0660144,64.1744714 L56.0476929,64.0467114 L55.986512,63.9402174 L55.91159,63.8813268 L55.8744562,63.7998613 L55.9286029,63.6262975 L55.8001885,63.6881327 Z M52.5724896,66.1852602 L52.5129446,66.2202674 L52.3706256,66.2897911 L52.3004475,66.3594784 L52.1825026,66.3594784 L52.1237755,66.4627006 L52.0995649,66.6364281 L52.0408379,66.8613577 L52.0408379,66.9665429 L52.1237755,67.0866144 L52.2413933,67.2083218 L52.3004475,67.3121984 L52.3240038,67.3987349 L52.3706256,67.5541408 L52.3948362,67.6586718 L52.4421123,67.7103647 L52.5603843,67.5888209 L52.654773,67.3987349 L52.654773,67.0697652 L52.5724896,66.931045 L52.4779374,66.7923247 L52.4892248,66.6364281 L52.4892248,66.4805314 L52.5010029,66.3594784 L52.6191114,66.2724511 L52.6658968,66.1165544 L52.5724896,66.1852602 Z M53.7406513,67.5541408 L53.6933752,67.6586718 L53.6460991,67.7790704 L53.5755939,67.8314177 L53.5042707,67.8834378 L53.5399323,68.0046544 L53.5755939,68.0215037 L53.6933752,68.1425567 L53.7638804,68.1949039 L53.834222,68.2464333 L53.8819889,68.2464333 L53.9763775,68.1780547 L54.0830351,68.0563473 L54.1183694,67.865607 L54.1293297,67.7452083 L54.0946496,67.6058338 L54.0117119,67.5541408 L53.8466545,67.537128 L53.7406513,67.5541408 Z M43.2258877,75.6633846 L43.1704324,75.7479581 L43.2108379,75.854452 L43.2224525,75.9620911 L43.2085477,76.069403 L43.1704324,76.1758969 L43.2808524,76.2792827 L43.5118346,76.6691062 L43.5533852,76.544945 L43.569253,76.415222 L43.5689258,76.1302566 L43.5370267,76.027198 L43.3880006,75.8915859 L43.3405609,75.7479581 L43.3296007,75.6969195 L43.2890316,75.5909163 L43.2258877,75.6633846 Z" id="Page-1"></path>
            </g>
        </g>
    </g>
</svg>