<?xml version="1.0" encoding="UTF-8" standalone="no"?>
<svg width="50px" height="53px" viewBox="0 0 50 53" version="1.1" xmlns="http://www.w3.org/2000/svg" xmlns:xlink="http://www.w3.org/1999/xlink">
    <!-- Generator: Sketch 46.2 (44496) - http://www.bohemiancoding.com/sketch -->
    <title>Fill 1</title>
    <desc>Created with Sketch.</desc>
    <defs></defs>
    <g id="Page-1" stroke="none" stroke-width="1" fill="none" fill-rule="evenodd">
        <g id="The-50-States" transform="translate(-647.000000, -1807.000000)" fill="#4A4A4A">
            <g id="Wisconsin" transform="translate(602.000000, 1768.000000)">
                <g id="Page-1" transform="translate(45.000000, 39.000000)">
                    <path d="M20.5926006,0.575138999 L20.5564617,0.172119086 L20.580039,0.127168342 L20.6003309,0.0954723054 L20.6142453,0.0593580329 L20.6142453,0 L20.3562484,0.00192097194 L20.1830909,0.215725149 L20.0845302,0.562652681 L20.0536093,0.954723054 L20.406495,0.7941298 L20.5926006,0.575138999 Z M48.8528316,21.5196882 L48.8528316,21.4244079 L48.8841391,21.3250937 L48.9258824,21.1712238 L48.8671325,21.1335728 L48.6580294,21.1727606 L48.4064099,21.169495 L48.3078493,21.1218549 L48.195954,21.0064044 L48.1373974,21.0857406 L48.1060899,21.1669977 L48.0910159,21.2582439 L48.0885036,21.3675472 L48.0573893,21.4317076 L47.9858846,21.4543751 L47.9109012,21.4655167 L47.8614276,21.4904894 L47.7201574,22.0062703 L47.6981262,22.1684004 L47.6353179,22.2771274 L47.3566426,22.3841255 L47.2930613,22.4899711 L47.2348912,22.6131054 L47.1028973,22.6033084 L46.9515777,22.5454872 L46.8412285,22.529351 L46.7293332,22.6375017 L46.6414016,22.8222992 L46.5807192,23.0462846 L46.5438073,23.4272133 L46.5022572,23.5401664 L46.3905552,23.7182405 L46.3853373,23.7649202 L46.3975124,23.9070721 L46.3905552,23.9489493 L46.3538365,23.9589383 L46.2585612,23.9381918 L46.2218426,23.9489493 L45.7361899,24.5607788 L45.5336575,24.9737878 L45.4260138,25.464404 L45.4847637,25.9215953 L45.692514,26.3591928 L45.9945734,26.6421519 L46.3343177,26.640231 L46.4663116,26.5267015 L46.8711832,25.9751905 L46.9293533,25.8620452 L46.9709034,25.6390204 L47.0103276,25.5437402 L47.0885963,25.4686302 L47.2683245,25.3818022 L47.3491056,25.2995846 L47.1539169,25.0890461 L47.2617538,24.7244456 L47.6366707,24.1141529 L47.7126204,23.8686526 L47.7690512,23.7616545 L47.8614276,23.7182405 L47.9201775,23.740908 L47.9959339,23.7818247 L48.061641,23.8018028 L48.0885036,23.7616545 L48.0792273,23.545161 L48.0937215,23.4992497 L48.1447411,23.3939805 L48.1913158,23.3570978 L48.2550904,23.3538322 L48.3182851,23.3303963 L48.3768417,23.2351161 L48.0573893,22.910856 L47.9766083,22.7602518 L48.0885036,22.7116512 L48.195954,22.7285558 L48.4282479,22.839588 L48.4037043,22.7293242 L48.3306535,22.5639285 L48.3130672,22.4507832 L48.3283344,22.3322593 L48.4282479,21.9659299 L48.393655,21.8942777 L48.3283344,21.825699 L48.3130672,21.7690303 L48.4282479,21.728882 L48.510575,21.7536625 L48.8282881,21.9659299 L48.9351587,21.728882 L48.8814335,21.6184261 L48.8528316,21.5196882 Z M17.9494365,1.98282724 L18.1135109,1.89254155 L18.1931325,1.80974766 L18.1813438,1.69026321 L18.0650036,1.49201891 L18.0081863,1.44783655 L17.8593791,1.37407123 L17.7814969,1.32066821 L17.746904,1.41959826 L17.7132775,1.50220006 L17.6686353,1.57846264 L17.6131708,1.65510942 L17.8669161,1.86833731 L17.9494365,1.98282724 Z M16.1262581,1.30818189 L16.2441443,1.15335155 L16.3096582,0.992182007 L16.1902259,0.827746809 L16.0953371,0.946462874 L15.8580186,1.13164457 L15.8514479,1.24555821 L15.9847946,1.36869251 L16.1262581,1.30818189 Z M45.714352,26.6586723 L45.558201,26.4928924 L45.3193364,26.0969801 L45.0626923,25.8804865 L44.8744608,25.9951686 L44.7061347,26.1380889 L44.5186763,26.0101522 L44.1988374,26.3528535 L44.0720613,26.4458286 L44.1182496,26.247008 L43.9106925,26.2310639 L43.6793649,26.3666845 L43.4692955,26.5630079 L43.3280252,26.7266747 L43.0302175,27.1973128 L42.7633308,27.7578524 L42.8369614,27.932853 L42.7467108,28.1218766 L42.6096922,28.2974534 L42.5366414,28.4301926 L42.4438784,28.5295069 L41.8559933,28.7871092 L41.4876471,29.0629608 L41.3094649,29.2539054 L41.2339018,29.4517655 L41.1581454,29.721662 L40.9774509,29.8426833 L40.7553996,29.8570906 L40.5578918,29.80849 L40.4137227,29.7122493 L40.2473292,29.5531928 L40.1574651,29.4045096 L40.2432708,29.3372756 L40.318834,28.9961109 L40.3499482,28.7423505 L40.3938173,28.6403469 L40.4500549,28.5598582 L40.5283236,28.4113671 L40.5845612,28.367761 L40.6089114,28.3155106 L40.5602109,28.1391654 L40.5578918,28.0726997 L40.6141293,27.7989612 L40.6630231,27.6906184 L40.7503749,27.5615291 L40.933775,27.3986307 L41.0234458,27.2920167 L41.0657689,27.1669615 L41.0800699,27.0378721 L41.1212334,26.8895731 L41.1749586,26.7512631 L41.2339018,26.640231 L41.6880537,26.1108111 L41.8343486,25.7959638 L41.7410059,25.464404 L41.9808367,25.1526303 L42.3609715,24.9922291 L43.100756,24.8256809 L43.2791314,24.7465368 L43.422914,24.6426122 L43.5232139,24.4827874 L43.5566472,24.2367109 L43.54969,23.9881371 L43.5547147,23.8596241 L43.5835098,23.7616545 L43.8036286,23.4222188 L43.8289451,23.3488376 L43.3809774,23.1650006 L43.2420263,23.0518554 L43.2250197,22.997684 L43.1788315,22.9164268 L43.0955381,22.8028974 L42.903055,22.6056136 L42.7787913,22.444444 L42.7196549,22.3339882 L42.7097989,22.252731 L42.7467108,21.8827518 L42.7787913,21.7361817 L42.9395804,21.266504 L43.1471375,20.7956738 L43.2151636,20.6980885 L43.3396206,20.5582417 L43.3790449,20.485629 L43.3832965,20.4247341 L43.3717011,20.3661445 L43.3177827,20.262412 L43.2495632,20.1546455 L43.1983504,20.0922139 L43.1496498,20.0553312 L43.0905134,20.046879 L43.0393006,20.0626309 L42.4320898,20.3878515 L42.3733399,20.4020667 L42.3101452,20.4080217 L42.2388337,20.4012983 L42.0513752,20.3429007 L41.9872142,20.3411719 L41.9319429,20.3576922 L41.8343486,20.4155135 L41.7703808,20.4279998 L41.6895997,20.4112873 L41.5651428,20.3259962 L41.5137366,20.2551123 L41.4918987,20.1807707 L41.501948,20.1096947 L41.5995424,19.8599684 L41.6163557,19.7827453 L41.6213803,19.6874651 L41.5995424,19.5437764 L41.6047603,19.4473436 L41.6267915,19.3781886 L41.6627371,19.3336221 L41.9369676,19.1271176 L41.9756188,19.0846641 L42.0100184,19.0354872 L42.0732132,18.9284891 L42.1194014,18.8115019 L42.1362147,18.7492624 L42.1410461,18.7100746 L42.138727,18.6324673 L42.0705076,18.2688273 L41.9947512,18.0306268 L42.0024814,17.9253576 L42.0409394,17.8784858 L42.0973702,17.8600445 L42.1487763,17.835264 L42.1899399,17.7981892 L42.2218271,17.7280737 L42.241346,17.6327935 L42.2438583,17.4789237 L42.227045,17.3903669 L42.2001824,17.3219803 L42.0589122,17.0858928 L41.9997758,16.9625664 L41.9947512,16.8770832 L42.01427,16.8127306 L42.1025881,16.7366601 L42.138727,16.6974723 L42.1605649,16.6304304 L42.162884,16.5962371 L42.1487763,16.5603149 L42.100269,16.4917362 L41.9858614,16.3689861 L41.8830491,16.2318287 L41.7997557,16.1563345 L41.6020547,16.0151431 L41.5610844,15.9744185 L41.4650361,15.8290009 L41.4288972,15.7855869 L41.382709,15.7504331 L41.3289838,15.7168161 L41.265016,15.6983748 L40.9040135,15.6668708 L40.7669949,15.6267225 L40.7138495,15.5948344 L40.6697871,15.5579517 L40.633455,15.5181876 L40.533155,15.3841038 L40.5113171,15.3656624 L40.4745984,15.3499105 L40.4282169,15.350871 L40.2575718,15.4040819 L40.1253846,15.420218 L40.0573584,15.4159919 L39.9187938,15.3817986 L39.7956896,15.3299324 L39.6716192,15.2573196 L39.6082312,15.1970011 L39.5276434,15.0875057 L39.5056122,15.0029829 L39.5081245,14.9244152 L39.5301557,14.8617915 L39.5618497,14.8039703 L39.7427374,14.5615436 L39.7738517,14.5048749 L39.8034199,14.4380251 L39.8109568,14.3327558 L39.7790696,14.2449674 L39.5670676,13.7693348 L39.5005875,13.6875014 L39.4246378,13.6381324 L39.2961225,13.5903002 L39.2425906,13.5586041 L39.02711,13.3845641 L38.9666208,13.3595914 L38.9001407,13.3580547 L38.77665,13.3788012 L38.7076576,13.3812984 L38.6369258,13.3713094 L38.5008735,13.3188668 L38.3536123,13.2343441 L38.2880985,13.2091793 L38.2196858,13.1974614 L37.9313477,13.1924669 L37.7898842,13.1674943 L37.7413769,13.1480924 L37.5311142,12.9775101 L37.4563241,12.9331357 L37.3848193,12.919881 L37.2118551,12.9700183 L37.1434424,12.9700183 L37.0628546,12.9548427 L36.7801209,12.7977072 L36.7163464,12.773695 L36.6554707,12.7761923 L36.6044511,12.7944415 L36.5337193,12.7944415 L36.4529383,12.7719661 L36.3157264,12.6657364 L36.2283746,12.6138701 L36.1425689,12.5831346 L36.0768618,12.5737218 L36.0132806,12.5806373 L35.9576228,12.5973498 L35.8553903,12.6559394 L35.7987663,12.670923 L35.7332524,12.6657364 L35.671797,12.6507528 L35.6113078,12.6430689 L35.5575826,12.6572841 L35.3766949,12.7996281 L35.3061564,12.8080804 L35.2108811,12.7846445 L34.9298867,12.6365376 L34.7426215,12.5769875 L34.6154589,12.5095614 L34.5296532,12.4809389 L34.4540901,12.4717182 L34.3908953,12.4818994 L34.2175446,12.5470203 L34.1487454,12.5506702 L34.0666115,12.532613 L34.0049628,12.4753681 L33.9464062,12.4494349 L33.8905552,12.4484745 L33.7688038,12.4717182 L33.704836,12.4753681 L33.5981587,12.4611529 C32.8189499,12.0216345 32.0420603,11.5775058 31.2667167,11.1310719 C29.6385337,10.6882879 28.0126699,10.2360911 26.3858397,9.78754413 C25.2589632,9.47673087 24.1315069,9.16822277 23.0061765,8.85241499 L22.9599883,8.79881987 L22.935638,8.73773296 L22.8699309,8.49857196 C22.6766748,8.04099644 22.4832254,7.58342092 22.291322,7.12526912 L22.1888963,6.97985154 L22.0810594,6.85441207 L22.0004715,6.7979355 L21.9177579,6.77104189 L21.8371701,6.76258962 L21.7399623,6.72897261 L21.6715496,6.67729846 L21.5936674,6.59642554 L21.5177177,6.56607419 L21.3559623,6.53437815 L21.3101606,6.47982255 L21.2278335,6.30770346 L21.1685039,6.27523903 L21.1122664,6.28292292 L20.9684838,6.37455328 L20.9047093,6.39798914 L20.8366831,6.40317577 L20.7439202,6.38819218 L20.6876826,6.35188581 L20.6538628,6.30290103 L20.6171441,6.18072721 L20.5757873,5.95520511 L20.6018769,5.89738385 L20.3873626,6.04798805 L20.2292791,6.04011207 L19.8754271,5.83456807 L19.2751735,5.68415597 L18.5137444,5.23656951 L17.8980303,4.6345369 L17.7298975,4.52312053 L17.7863283,4.57076063 L17.9494365,4.76804445 L17.8593791,4.75959217 L17.768742,4.77323107 L17.6862216,4.80723228 L17.6131708,4.85679335 L17.6131708,4.93113497 L17.8980303,4.93113497 L17.7443917,5.16107531 L17.5273651,5.32474212 L16.5392465,5.74274561 L16.2978695,5.79441976 L16.082389,5.67935354 L16.1776642,5.44518706 L16.3199007,5.2094838 L16.8488428,4.56422933 L16.895804,4.42515096 L16.8561865,4.30509021 L16.7929918,4.1894477 L16.7585922,4.07092373 L16.775792,3.86537974 L16.8270048,3.60950627 L16.9245992,3.39224435 L17.0759187,3.30061399 L17.2177687,3.18170582 L17.4243595,2.63979964 L17.5615714,2.47440396 L17.5221472,2.35568789 L17.4979901,2.31054505 L17.6912463,2.20950192 L17.6686353,2.11326123 L17.5615714,2.02297555 L17.4979901,1.94267892 L17.4668759,1.71293068 L17.3808769,1.63513131 L17.1323495,1.65510942 L17.0884804,1.62072403 L17.0714738,1.54138788 L17.0639369,1.4578256 L17.0461573,1.40941711 L16.9713672,1.36600315 L16.902568,1.33834115 L16.7344352,1.32066821 L16.6752988,1.35755087 L16.6420587,1.44303412 L16.6173219,1.53139883 L16.5904593,1.5815362 L16.5121906,1.61668998 L16.4240658,1.64012584 L16.249169,1.65510942 L16.1801766,1.64358359 L16.0555264,1.59325413 L16.0000618,1.5815362 L15.9192808,1.60343528 L15.8682612,1.65165167 L15.8338616,1.7044784 L15.8000417,1.73732702 L15.4432909,1.90771723 L15.3485954,1.98282724 L15.3114902,2.05640046 L15.2997016,2.13996274 L15.2751581,2.20854144 L15.2063589,2.23601134 L15.0432507,2.24369523 L14.9700066,2.26444172 L14.8967626,2.31054505 L14.767281,2.58024951 L14.6598306,2.66823002 L14.4967224,2.56276866 L14.5108301,2.49246109 L14.508511,2.4644149 L14.4992347,2.44270792 L14.4967224,2.39237845 L14.3332277,2.5669948 L14.1477018,2.64172061 L14.0373525,2.57064465 L14.098808,2.31054505 L13.8616827,2.36721372 L13.4496606,2.7385376 L12.8028324,3.15807787 L12.4025989,3.54419323 L12.2908969,3.44545527 L11.6659065,3.70843633 L11.0090289,3.80755848 L9.16401262,4.50371871 L7.95403596,4.6963922 L7.75652819,4.68601895 L7.23415686,4.41208835 L7.10467525,4.36848229 L6.96495107,4.28664888 L6.76725004,4.09781734 L6.59003417,3.87690557 L6.53341012,3.7581895 L6.42344738,3.81351349 L6.28971414,3.91398033 L6.22323403,4.02251524 L6.15520787,4.2238331 L6.12583293,4.26993643 L6.08196379,4.30144037 L5.94745752,4.33755464 L5.89856372,4.36022211 L5.85740016,4.39844945 L5.82280732,4.44705004 L5.79439866,4.50890534 L5.77913143,4.58228646 L5.7404802,4.88676052 L5.71864226,4.93862676 L5.7008627,4.97128328 L5.67168102,5.00720546 L5.62761862,5.03736472 L5.50857284,5.06963705 L5.3669161,5.0798182 L5.21810887,5.06733188 L5.09886984,5.02218904 L5.06195792,5.01642612 L5.0426323,5.05580605 C5.0426323,6.72570695 5.04166602,8.39560786 5.03664136,10.0653167 C5.03490206,10.6758016 5.03509531,11.2862864 5.03509531,11.8967713 L4.87430621,11.9301962 L4.7716872,12.0070351 L4.65921213,12.1374691 L4.56664245,12.2963335 L4.52953727,12.4584635 L4.44972248,12.5589303 L4.26381008,12.5497097 L4.056253,12.5036064 L3.90976485,12.4943857 L3.78782023,12.6008075 L3.60287411,12.9114287 L3.48073623,12.9775101 L3.13867287,12.9775101 L3.06040414,13.0026749 L2.99469705,13.0578068 L2.94850884,13.113707 L2.91662157,13.1388718 L2.90734528,13.1740256 L2.80897791,13.3363477 L2.77013342,13.3870613 L2.70230052,13.4247124 L2.48681993,13.4596741 L2.04291059,13.7426333 L1.89139778,13.781629 L1.63340084,13.9045712 L1.40381256,14.1971352 L1.07141201,14.8325927 L1.10851718,15.1752941 L0.878928897,15.5245268 L0.161562128,16.2218396 L0.0859989796,16.3639916 L0.0564307911,16.5603149 L0,17.4470355 L0.151706065,17.8585077 L0.513288292,17.9436068 L0.927629443,17.9336177 L1.24495601,18.0573283 L1.3406178,18.2357866 L1.46005009,18.6843336 L1.52305159,18.8547238 L1.66451508,19.0437474 L1.81583463,19.2026118 L1.93352762,19.3866409 L1.97198559,19.6088974 L1.93623321,19.819628 L1.69640234,20.2191901 C1.66277578,20.3795913 1.62934247,20.5399925 1.59629567,20.7005857 L1.48942502,20.8344775 L1.35994341,20.9428203 L1.24495601,21.0849722 L1.1767366,21.2757247 L1.14214375,21.4922183 L1.13286746,22.009536 L1.08165458,22.252731 L1.06464804,22.3898884 L1.10349252,22.4494386 L1.24495601,22.8388196 L1.25732441,23.1002639 L1.20862386,23.3284753 L1.1009802,23.4909896 L0.932847359,23.5518844 L0.819985776,23.6615719 L0.874097494,23.9180216 L1.07141201,24.4372603 L1.14736167,24.928645 L1.18408033,25.4252162 L1.15741099,25.4985973 L1.04223033,25.6943444 L1.0159475,25.8197838 L1.0665806,26.1922603 L1.07141201,26.3321071 L1.01788006,26.6440729 L0.676203213,27.3646295 L0.898447767,27.563258 L1.40883722,27.8971229 L1.98899213,28.488206 L2.13606005,28.5867518 L2.18669316,28.6851056 L2.22611741,28.7936405 L2.2622563,28.865869 L2.6213262,29.0894702 L3.90725252,29.304619 L4.198103,29.4156512 L4.47832439,29.6427101 L4.717962,29.9500656 L4.92996398,30.4437554 L5.00050247,30.5709237 L5.08882052,30.6681249 L5.19916977,30.7228726 L6.1625516,30.8873078 L6.60414187,31.0542403 L7.86571791,32.2143152 L8.17859959,32.749498 L8.80069108,33.9727729 L8.96399252,34.1919558 L9.28595724,34.3408312 L10.2429616,35.212184 L10.3455806,35.2673159 L10.4481996,35.2968989 L11.2478935,35.299012 L11.295048,35.3197585 L11.7633076,35.7093316 L11.8241833,35.743717 L11.8947218,35.7658081 L12.1975542,35.7902045 L12.2974676,35.8391893 L12.3509995,35.893937 L12.3855924,35.9586737 L12.4053045,36.0339758 L12.4196054,36.1200354 L12.4808676,36.279476 L12.6710317,36.5247842 L12.7346129,36.6740437 L13.0886582,36.8083196 L13.1980412,36.8784351 L13.2815278,36.9687208 L13.3350598,37.0805213 L13.3688796,37.2090344 L13.4083038,37.4837334 L13.4148745,37.7451776 L13.3959354,38.07789 L13.4007668,38.1756674 L13.4175801,38.2726765 L13.4496606,38.3687251 L13.4935298,38.4482534 L13.6085172,38.5844503 L13.6599233,38.670894 L13.6881387,38.7744344 L13.7126822,38.997075 L13.7126822,39.2112634 L13.6129621,39.8265507 L13.6152811,39.9297069 L13.6767366,40.2305311 L13.681568,40.3502077 L13.6473617,40.704627 L13.6521931,40.8554233 L13.7010869,41.1470268 L13.7126822,41.295518 L13.6983813,41.4384383 C13.6821478,41.5317975 13.6661075,41.6251568 13.6494875,41.7187081 L13.6371191,41.8614363 L13.6444628,42.0018594 L13.6691996,42.133638 L13.7109429,42.2571565 L13.8251573,42.4861364 L13.8667074,42.5988974 L13.89357,42.7183819 L13.9306752,43.0284268 L13.9936767,43.1463744 L14.0889519,43.2247501 L14.8016806,43.5176983 L15.0044062,43.7714587 L15.0187072,44.190999 L14.8648753,44.5373502 L14.4257974,45.1445694 L14.3332277,45.5354872 L14.3772901,46.3213569 L14.4402916,46.7015172 L14.445123,47.1129894 L14.4596172,47.2491863 L14.4992347,47.3752021 L14.508511,47.8894463 L14.5500611,48.1366753 L14.6403117,48.3258911 L14.877437,48.6205682 L14.957445,48.7773195 L15.0061455,48.9776769 L15.0306891,49.4517727 L15.0623831,49.6590456 L15.3435708,50.2147828 L15.4461898,50.3588557 L15.6336482,50.5015839 L15.9952304,50.6665954 L17.4079328,50.9422549 L17.7863283,51.0870961 L17.9790047,51.1168712 L18.1740001,51.1808396 L18.3034817,51.3483483 L18.4648506,51.800353 L18.5332632,51.9263688 L18.7402406,52.2444817 L18.8090397,52.4152561 L18.7887479,52.5406956 L18.6843895,52.7781277 C20.3862031,52.7756305 22.0887896,52.8107843 23.7906031,52.8257678 C25.5185062,52.8409435 27.2466026,52.8582323 28.9743124,52.8743684 C30.6782517,52.8903125 32.3821911,52.9072171 34.0859371,52.9237374 C35.8014718,52.9404499 37.5168133,52.9560097 39.232348,52.9721459 C40.1999814,52.9811745 41.1678082,52.9903951 42.1356349,53 L42.0859681,52.1468964 L42.1052937,52.0377852 L42.1362147,51.9171481 L42.1512886,51.7955506 L42.0859681,51.6024929 L42.0732132,51.4589963 L42.0732132,51.3089684 L42.0859681,51.201394 L42.1590189,50.9950816 L42.3339157,50.6377808 L42.4195281,49.8862966 L42.4098653,49.6828657 L42.3120777,49.4369812 L41.9680818,48.9794057 L41.8873008,48.8216939 L41.8559933,48.7068198 L41.831643,47.7976238 L41.7628438,47.5381005 L41.6291106,47.2924082 L41.4022279,47.2282477 L41.3407724,47.0799487 L41.3803899,46.8820886 L41.5508418,46.4832948 L41.5705539,46.3935854 L41.5778977,46.2560438 L41.5407925,46.1928438 L41.382709,46.0553022 L41.3456038,45.9471515 L41.3803899,45.6924306 L41.4406858,45.5166617 L41.4677417,45.3368587 L41.4022279,45.0656175 L41.3289838,44.866989 L41.2943909,44.7380918 L41.2851146,44.3371849 L41.5216601,43.4842734 L41.5778977,43.1390747 L42.1052937,42.0963712 L42.227045,41.6447507 L42.1410461,41.2824554 L42.1833692,41.0131351 L42.2732333,40.7927996 L42.7828497,39.8763039 L42.9929191,39.3463077 L42.9326232,39.2675479 L42.9788114,39.149216 L42.9687621,39.1154069 L42.9326232,39.0305 L43.0031617,38.9137049 L43.0302175,38.8084356 L43.0224873,38.6958666 L42.9929191,38.5658168 L42.8097123,38.2377148 L42.7930923,38.184696 L42.7324098,38.0569514 L42.7246796,37.7647715 L42.7954113,36.8951476 L42.8251728,36.7818102 L42.9710812,36.5330443 L42.9929191,36.4289277 L43.0174626,36.1448159 L43.0787248,35.9093048 L43.5129714,34.9044443 L43.6397474,34.7102341 L43.761692,34.6061174 L44.2351695,34.356391 L44.3940261,34.2006002 L44.540321,34.0040848 L44.6454523,33.7787548 L44.6868091,33.5345992 L44.6355962,33.3515306 L44.2964317,32.8745533 L44.2351695,32.4769121 L44.2546884,32.3453255 L44.3302515,32.1207639 L44.375087,31.9432661 L44.4918137,31.7004552 L44.5186763,31.5817392 L44.5352963,31.318566 L44.7728081,30.0284413 L44.9308916,29.5264913 L45.1436666,29.1013802 L45.5413877,28.595012 L45.6210093,28.367761 L45.7388955,28.1750875 L45.7659514,28.114769 L45.7752277,27.9847192 L45.8046026,27.8477539 L46.0633726,27.0901226 L46.0726488,26.8361701 L45.9070283,26.7266747 L45.714352,26.6586723 Z M49.904145,19.7341447 L49.7485738,19.7216584 L49.5872049,19.786011 L49.44091,19.8034918 L49.3353922,19.6532718 L49.2478471,19.5554943 L49.1773086,19.6448195 L49.1288013,19.8271198 L49.1087027,20.0084595 L49.1431023,20.3079391 L49.1160464,20.4132083 L48.9966142,20.5300034 L49.0775885,20.5816776 L49.1817535,20.576683 L49.3869915,20.5300034 L49.904145,20.6095316 L49.865687,20.4948496 L49.8432693,20.4497068 L49.9242436,20.2691354 L49.992463,20.0653203 L50,19.873031 L49.904145,19.7341447 Z M17.5615714,3.37284253 L17.3951779,3.62468195 L17.4027149,3.82196577 L17.5248527,3.88958398 L17.8914596,3.61968743 L18.3498632,3.49674522 L18.4627248,3.30061399 L18.3137243,3.27679393 L18.3962446,3.13252894 L18.5987771,2.96828584 L18.8015028,2.89067857 L19.0208485,2.86897159 L19.1476245,2.79616675 L19.1605727,2.66765373 L19.0283855,2.47440396 L18.8577403,2.50609999 L18.3869684,2.74353212 L18.2891807,2.84553573 L18.1917797,2.99345057 L17.5615714,3.37284253 Z M19.0158238,1.89119687 L19.1648243,1.90771723 L19.3018429,1.964578 L19.4235943,2.07311292 L19.3851363,1.89427043 L19.4235943,1.76364434 L19.5070809,1.66701945 L19.5971383,1.5815362 L19.5992641,1.40115693 L19.4674634,1.37772107 L19.1453054,1.49201891 L18.7332833,1.58998847 L18.628152,1.65510942 L18.4986704,1.85834825 L18.5649573,1.92769534 L19.0158238,1.89119687 Z" id="Fill-1"></path>
                </g>
            </g>
        </g>
    </g>
</svg>