<?xml version="1.0" encoding="UTF-8" standalone="no"?>
<svg width="38px" height="60px" viewBox="0 0 38 60" version="1.1" xmlns="http://www.w3.org/2000/svg" xmlns:xlink="http://www.w3.org/1999/xlink">
    <!-- Generator: Sketch 46.2 (44496) - http://www.bohemiancoding.com/sketch -->
    <title>Fill 1</title>
    <desc>Created with Sketch.</desc>
    <defs></defs>
    <g id="Page-1" stroke="none" stroke-width="1" fill="none" fill-rule="evenodd">
        <g id="The-50-States" transform="translate(-173.000000, -275.000000)" fill="#4A4A4A">
            <g id="Alabama" transform="translate(122.000000, 238.000000)">
                <g id="Page-1" transform="translate(51.000000, 37.000000)">
                    <path d="M3.89911704,59.4227774 L3.82387577,59.494536 L3.72375157,59.5568318 L3.56418478,59.5850227 L2.98022565,59.5850227 L2.00406401,59.7437195 L1.8543714,59.8407118 L4.18704819,59.7437195 L4.25794482,59.7291312 L4.39598589,59.6751152 L4.39598589,59.5850227 L3.99627899,59.3602844 L3.89911704,59.4227774 M37.9782768,34.7411895 L37.9310782,34.7157586 L37.8850645,34.7066902 L37.819105,34.562976 L37.7189808,34.4823462 L37.2124352,34.1886093 L37.0064598,33.9867391 L36.9689379,33.7582552 L37.1994013,33.5088745 L37.1437109,33.3681174 L37.1877498,33.2466799 L37.2570665,33.1088798 L37.2750375,32.9464374 L37.2622011,32.7802493 L37.1715561,32.5971073 L37.0629401,32.4184995 L36.9811819,32.2245149 L36.9312185,31.825703 L36.8871797,31.6632605 L36.7655297,31.4576447 L36.0370126,30.512561 L36.0960602,30.3491329 L36.0154869,30.2503663 L35.8894923,30.1661881 L35.8247177,30.0471162 L35.8496006,29.8286863 L35.8432811,29.669201 L35.736245,29.4133148 L35.6740377,28.9766522 L35.5865524,28.8327408 L35.4899829,28.7053891 L35.4491038,28.5827687 L35.537379,28.4648797 L35.476949,28.3807014 L35.2644566,28.1484718 L35.1990895,28.0690249 L35.1459664,27.9805095 L35.1114068,27.8837144 L35.1019275,27.7721338 L35.1329325,27.4127496 L34.7897059,26.5104451 L34.8175511,26.395316 C34.516981,24.6944019 34.2189782,22.9930936 33.9274923,21.2906024 C33.6405486,19.6149221 33.3425458,17.9410161 33.0550096,16.2653358 C32.7536495,14.5088285 32.4487348,12.7531099 32.1473748,10.9966026 C31.8659606,9.35561879 31.5853363,7.71443779 31.3013548,6.07404536 C31.0045369,4.36071154 30.7126561,2.64658917 30.4215652,0.93226966 C30.3864131,0.725470998 30.3540258,0.51788378 30.314924,0.311676535 C28.6224892,0.293342621 26.9300544,0.270277374 25.2378171,0.251943461 C23.5062805,0.233215269 21.7749414,0.212515689 20.0434048,0.193787497 C18.2858004,0.174862167 16.5279985,0.155739698 14.7701966,0.133068729 C12.9995583,0.110200622 11.2289199,0.0924581244 9.45828158,0.0717585443 C7.68764324,0.0512561031 5.91680742,0.0327250504 4.14597159,0.0100540818 C3.80847205,0.00571702688 3.47077502,0 3.13327547,0 C3.2332022,0.285259928 3.33451131,0.570125577 3.43582041,0.854991227 L3.69235167,1.22580942 L4.0359732,1.46336174 L4.2146959,1.48859552 L4.20185946,1.69480276 C4.01958206,3.40143386 3.82999777,5.1072764 3.64298076,6.81351321 C3.44865685,8.58677724 3.25354301,10.3600413 3.05783672,12.1335024 C2.86627759,13.8704929 2.67708826,15.6080748 2.48355429,17.3450653 C2.29061277,19.0749588 2.09905364,20.8052465 1.90729702,22.5353371 C1.71633034,24.2569508 1.5212165,25.977973 1.33064478,27.6995867 C1.14994725,29.329925 0.964115143,30.959672 0.78341761,32.5902075 C0.585144033,34.3778626 0.380156012,36.1645321 0.179117664,37.9519901 C0.11928012,38.4828851 0.0647746348,39.0145686 0,39.5448721 C0.0825481626,41.252686 0.162726522,42.9606971 0.245274684,44.6687081 C0.330587618,46.4309324 0.41471565,48.1931567 0.499633616,49.9553809 C0.582774229,51.6821202 0.664532457,53.4090566 0.750437842,55.135993 C0.797833916,56.0905393 0.843847605,57.0448885 0.887688974,57.999632 L1.15093467,57.927282 L1.38811252,57.8058445 L1.59803764,57.8058445 L1.78860935,58.0869645 L1.8543714,58.0869645 L1.87589712,58.0179659 L1.89742284,57.9771582 L1.91697372,57.927282 L1.93217996,57.8373867 L2.20766964,57.9876065 L2.86074805,58.1277723 L3.16783511,58.2456613 L3.07600522,58.502139 L3.09535861,58.6178595 L3.20239475,58.6545273 L3.37993254,58.6773954 L3.38328977,58.6706927 L3.60210164,58.6773954 L3.6267871,58.7203717 L3.64298076,58.7952844 L3.69235167,58.8297837 L3.81103934,58.7515196 L3.87640642,58.6020884 L3.98344256,57.7155549 L3.96487909,57.2037824 L3.98660229,56.9885068 L4.08652902,56.5735295 L4.1084497,56.3732364 L4.12977793,56.2667814 L4.22990214,56.1289814 L4.25281024,56.0337633 L4.24273858,55.8106021 L4.25557502,55.7019786 L4.29250446,55.6152375 L4.40526762,55.4805917 L4.48307617,55.3558028 L4.52731251,55.1935575 L4.54232126,54.9475282 L4.59327204,54.7440809 L4.69339625,54.6127864 L4.75244386,54.4913489 L4.68707677,54.3200352 L4.83025242,54.2230429 L4.90569117,54.0728231 L4.90885091,53.8985523 L4.83025242,53.7266473 L4.98112992,53.754641 L5.04689197,53.8608988 L5.05854351,54.0168357 L5.05518628,54.1956406 L5.08421638,54.3350178 L5.16202493,54.3762198 L5.27498558,54.3783883 L5.40907697,54.400665 L5.63717058,54.5258482 L5.7588205,54.6792222 L6.07775659,55.6087319 L6.13502684,55.8561412 L6.1004672,56.0337633 L5.99698578,56.1798432 L5.88382765,56.3980759 L5.79653988,56.6326712 L5.7781739,56.8345414 L5.81609076,56.9098484 L5.89034461,57.0131492 L5.96242614,57.1412894 L5.99382604,57.2907207 L6.00330525,57.4350263 L6.03490264,57.5663208 L6.08743328,57.6877583 L6.17116635,57.7940162 L6.25331954,57.8714917 L6.34712427,57.9337876 L6.45040822,57.9771582 L6.57205814,58.0027862 L6.73162493,58.0114603 L6.74347395,57.9897751 L6.72530545,57.9308305 L6.86630877,57.759714 L6.90323821,57.6995867 L6.94727706,57.6995867 L7.04424153,57.7940162 L7.06043519,57.8864743 L6.96880278,58.1589202 L6.9407601,58.2900175 L7.01955608,58.4396459 L7.51918969,58.9104135 L7.64735658,59.3204624 L7.3501437,59.5225297 L6.86334652,59.6538242 L6.47193394,59.7817673 L6.05603339,59.7062631 L5.83109952,59.5010416 L5.75368593,59.5323866 L5.69108361,59.6222819 L5.5994512,59.6751152 L5.19322735,59.7719103 L4.9584193,59.8787596 L4.83025242,60 L5.1685419,60 L6.1004672,59.8407118 L7.41037621,59.8407118 L8.80777046,59.6538242 L9.48889155,59.3697471 L9.76141897,58.9104135 L9.66781173,58.9642324 L9.55781334,58.9985346 L9.44544514,59.0107572 L9.32616502,59.001886 L9.39508681,58.8019872 L9.3518379,58.6706927 L9.27975637,58.5395953 L9.26158787,58.3359509 L9.32616502,58.3359509 L9.3735611,58.4144122 L9.55781334,58.5869087 L9.61686095,58.6856752 L9.62693261,58.7611794 L9.67432869,58.8082956 L9.83903004,58.8360922 L10.0837123,58.7824704 L10.2083245,58.6361934 L10.3021292,58.4834108 L10.4583387,58.4114551 L10.7245467,58.3491592 L10.8525161,58.1932224 L10.9269674,57.9933236 L11.0405205,57.7940162 L11.493943,57.3630706 L11.5089517,57.2475473 L11.5875502,57.2475473 L11.4712323,57.1789429 L11.3776251,57.1067901 L11.2964593,57.0198519 L11.2212181,56.9133969 L11.2212181,56.8345414 L11.2964593,56.8788976 L11.2867826,56.8670693 L11.089694,56.2829468 L11.0650085,56.0862023 L11.0780424,56.0337633 L11.1175391,55.9269141 L11.3002115,55.6022264 L11.3839446,55.2814814 L11.4528664,54.8558586 L11.4627406,54.6752794 L11.4495091,54.5536448 L11.4117898,54.5094857 L11.3276617,54.4322072 L10.4769022,53.9113664 L10.3270121,53.7920974 L10.1773195,53.5825388 L9.95870513,53.178207 L9.89926255,53.0877202 L9.38876734,52.5844247 L9.26691993,52.4316421 L9.16126618,52.2660455 L9.11702985,52.1658989 L9.10202109,52.0700894 L9.11071037,51.9947824 L9.12670654,51.9194753 L9.16699321,51.7952779 L9.38659502,51.3203704 L9.40140629,51.261623 L9.38343528,50.6869632 L9.45215959,50.514861 L14.6994975,50.514861 L20.0250388,50.514861 C21.27827,50.514861 22.5315012,50.5119039 23.7847324,50.5119039 L31.0770134,50.5119039 L36.6197868,50.5119039 L36.8496578,50.5119039 L36.8808602,50.4592678 L36.9464248,50.3817923 L36.9811819,50.28066 L36.9626184,50.1538997 L36.8624942,50.0224081 L36.7276129,49.4449884 L36.4712791,48.9296674 L36.1837429,48.5338126 L35.9712505,48.4261748 L35.8496006,48.2672809 L35.833407,48.0746762 L35.8894923,47.6348594 L35.8679666,47.512239 L35.7708046,47.2721239 L35.7524387,47.1755259 L35.7871958,47.050737 L35.9206947,46.8573438 L35.9712505,46.7487202 L36.0340503,45.8018623 L36.1090941,45.35278 L36.3312632,45.0552974 L36.2275843,44.7028132 L36.2870269,44.4469269 L36.4057146,44.2168659 L36.4683169,43.923129 L36.4465937,43.7543781 L36.3531839,43.5079546 L36.3312632,43.4141165 L36.327906,43.0766147 L36.3053929,42.9218607 L36.2113906,42.690814 L35.8462434,42.1906727 L35.7615229,41.9848597 L35.4682597,40.605282 L35.3961782,40.3555071 L35.4649025,40.0907496 L35.4747767,40.0158368 L35.4899829,39.9535409 L35.5425136,39.7910985 L35.6274315,39.3761212 L35.833407,38.9014109 L36.1308173,38.4142807 L36.1752511,38.3551391 L36.2653037,38.1716028 L36.2807074,38.1248809 L36.3150696,37.8153729 L36.2378535,37.5378014 L36.2720181,37.2556957 L36.3776719,37.0388429 L36.4023573,36.8754148 L36.3991976,36.5700467 L36.418551,36.4643803 L36.587597,36.0576828 L36.6590861,35.9427509 L36.7309701,35.8964232 L36.8753307,35.8739494 L37.0497087,35.8181591 L37.2254692,35.7373322 L37.3504763,35.6425084 L37.1814303,35.5330963 L37.2189522,35.4309784 L37.3783215,35.3901707 L37.565931,35.4708004 L37.6595382,35.4124473 L37.740309,35.3180178 L37.7717089,35.1971717 L37.7122663,35.0402492 L37.8029113,35.0339407 L37.897506,34.9992443 L37.9719573,34.93064 L38,34.8318734 L37.9782768,34.7411895" id="Fill-1"></path>
                </g>
            </g>
        </g>
    </g>
</svg>