<?xml version="1.0" encoding="UTF-8" standalone="no"?>
<svg width="48px" height="56px" viewBox="0 0 48 56" version="1.1" xmlns="http://www.w3.org/2000/svg" xmlns:xlink="http://www.w3.org/1999/xlink">
    <!-- Generator: Sketch 46.2 (44496) - http://www.bohemiancoding.com/sketch -->
    <title>Fill 1</title>
    <desc>Created with Sketch.</desc>
    <defs></defs>
    <g id="Page-1" stroke="none" stroke-width="1" fill="none" fill-rule="evenodd">
        <g id="The-50-States" transform="translate(-808.000000, -446.000000)" fill="#4A4A4A">
            <g id="Georgia" transform="translate(762.000000, 408.000000)">
                <g id="The-50---Main-Badge-Copy" transform="translate(46.000000, 38.000000)">
                    <g id="Page-1">
                        <path d="M47.8728512,36.2945788 L47.7012952,36.2424092 L47.5625702,36.2424092 L47.4618,36.1968091 L47.4525011,36.1699514 L47.4432021,36.1738158 L47.2424209,36.1552666 L47.0589091,36.0870597 L46.9050021,35.9655239 L46.8406686,35.800127 L46.7719703,35.7129844 L46.369459,35.5168654 L46.1504594,35.4681738 L45.5710784,35.5168654 L45.4820742,35.4658551 L45.1915297,35.1004748 L45.1385827,35.0556476 L45.0313602,34.9926576 L44.9877121,34.9381694 L44.9581073,34.8510268 L44.9668369,34.7847521 L44.9846757,34.7360605 L44.9877121,34.6974164 L44.8100833,34.3144529 L44.7838945,34.2367782 L44.8042003,34.1038423 L44.8990875,33.8982555 L44.9192036,33.8265706 L44.9021239,33.5129734 L44.9192036,33.3808104 L44.9520345,33.2656509 L45.0296522,33.1025726 L45.0499581,32.9615215 L45.0296522,32.7082091 L44.9488084,32.4974053 L44.8275426,32.3550017 L44.676672,32.3053439 L44.3717046,31.318759 L44.3810036,30.9429447 L44.3367862,30.7406426 L44.1971123,30.6531136 L44.0618032,30.604422 L44.0105641,30.4881031 L43.9902583,30.3489842 L43.9547705,30.242906 L43.9016336,30.1982721 L43.6792181,30.0778956 L43.6437303,30.0869769 L43.5904037,30.0417633 L43.4395332,29.8628409 L43.3660905,29.7880645 L43.2856262,29.7246881 L43.1937754,29.6771558 L42.8950706,29.6201557 L42.687837,29.5140775 L42.5073617,29.3853925 L42.3798333,29.2543889 L42.2830484,29.0594292 L42.2944349,28.8808932 L42.3471921,28.6982997 L42.3798333,28.4652755 L42.3593377,28.3845092 L42.3126532,28.2909904 L42.252305,28.2098377 L42.2056205,28.176797 L42.1788623,28.1228884 L42.217766,27.9959424 L42.2445242,27.8487082 L42.3067702,27.7665894 L42.3145509,27.6035111 L42.2555311,27.4104836 L42.1555201,27.2421884 L42.0995366,27.0584355 L42.0873911,26.8775809 L42.0575965,26.6909297 L41.9627093,26.3564646 L41.4505084,25.4458154 L41.332279,25.3441813 L41.332279,25.1094181 L41.4150206,24.696119 L41.3793431,24.4907254 L41.2855945,24.2434029 L41.1614821,24.0399415 L41.0369902,23.9518328 L40.8178008,23.9131887 L40.6665507,23.8158055 L40.3818892,23.535249 L39.9742539,23.2985536 L39.0919931,22.926797 L38.7340787,22.6257591 L38.6839783,22.4574638 L38.6279949,21.971707 L38.5594863,21.872778 L38.3340344,21.8573203 L38.1539386,21.7908524 L37.9968055,21.6414928 L37.8436576,21.3663465 L37.9856088,21.2737938 L38.01825,21.147041 L37.946705,21.0048305 L37.7755286,20.8688031 L37.9108377,20.7940267 L37.9108377,20.7130672 L37.8436576,20.6736502 L37.7242895,20.6259247 L37.6121329,20.6102738 L37.5654484,20.6674672 L37.5263549,20.7275588 L37.4438031,20.6525892 L37.0175699,20.1337915 L36.9492512,19.9510047 L37.0912024,19.875069 L36.9678491,19.5771227 L36.9942277,19.4857293 L37.1532586,19.4586784 L37.0674806,19.2718339 L37.0175699,19.2096169 L37.0891149,18.9466435 L36.9464046,18.7360329 L36.5446523,18.4527713 L36.3374188,18.2562659 L35.91593,17.7113835 L35.7062293,17.5336204 L35.5082947,17.4339185 L35.0319612,17.2895826 L34.8158082,17.1867892 L34.5823858,17.0248703 L34.3802761,16.8017003 L34.2387045,16.4454013 L34.1531163,16.1745059 L33.9901001,15.9337529 L33.8654184,15.3853925 L33.5930922,15.0542122 L33.1074597,14.5951198 L32.684263,14.2494479 L32.2997802,13.9897593 L31.974507,13.8392404 L31.6638464,13.6251518 L31.427008,13.3511648 L31.2524157,13.0918626 L31.0926257,12.9264657 L30.8918444,12.9264657 L30.7316749,12.8663741 L30.607183,12.728028 L30.5307039,12.408441 L30.4202552,12.1186099 L30.3175873,11.7779618 L30.2319991,11.6421276 L29.9981971,11.5132494 L29.9146964,11.3408965 L29.805766,11.0002484 L29.7279585,10.8779397 L29.6156121,10.7386276 L29.4884633,10.6213426 L29.2516249,10.5216407 L29.0867111,10.2922877 L29.0180127,10.2381859 L28.9622191,10.0667992 L28.7724448,9.01819035 L28.6927396,8.74091863 L28.1218984,7.83761179 L28.0298578,7.72863531 L27.8932203,7.33098708 L27.8434994,6.99652203 L27.731153,6.67461632 L27.3079563,6.39947002 L26.6236301,6.39947002 L26.1503329,6.41492768 L25.8279063,6.23020868 L25.6652697,6.04742188 L25.5051002,5.75449928 L25.2919836,5.61557359 L25.0813341,5.32690184 L24.7095662,5.11281329 L24.6317587,4.95939605 L24.614679,4.79303301 L24.5431341,4.77544993 L24.3066753,4.84520261 L23.9692566,4.67690736 L23.0554932,4.07038755 L22.7381905,3.61573921 L22.8330777,3.09442972 L23.0042541,2.87435133 L23.0461942,2.77464944 L23.0665001,2.67494755 L23.0727626,2.57524567 L23.0869957,2.48172684 L23.1289358,2.41313349 L23.2114877,2.23459755 L23.344899,2.11422104 L23.4991856,2.01548526 L23.6314583,1.89201722 L23.732608,1.71753892 L23.877216,1.32510765 L23.9662202,1.14753782 L24.0793257,1.01151043 L24.4869609,0.710279342 L24.614679,0.643811417 L24.8805529,0.556668875 L24.9961254,0.451943248 L25.0813341,0.309539583 L25.1407335,0.165396931 L25.1559154,0.0146847742 L25.1500324,0 C23.4583841,0.0256983549 21.7665459,0.0483051783 20.0748976,0.0689797946 C18.4308826,0.0890747488 16.7872472,0.117091752 15.1434219,0.136993486 C14.4363228,0.145688418 13.7292237,0.156508778 13.0221245,0.165396931 C12.1787674,0.122501932 11.3354103,0.078834051 10.4920532,0.0353593905 L10.4206981,0.00637628354 L4.73752629,0.00637628354 C3.19731786,0.00637628354 1.65691965,0.00850171138 0.116711211,0.00850171138 L0,0.00850171138 C0.289975171,1.62885061 0.540856831,3.25712156 0.816409153,4.88017555 C1.11017981,6.61143315 1.39844701,8.34385006 1.69278699,10.0753009 C1.96492338,11.6763277 2.23497225,13.2779342 2.50445179,14.8795407 C2.79139057,16.5854864 3.08629988,18.2898863 3.37475685,19.9956387 C3.65543308,21.6546318 3.93591954,23.3136248 4.22399696,24.9714585 L4.26195183,25.1905708 L4.23538342,25.3014795 L4.56084639,26.1727117 L4.5312416,26.5195429 L4.54035077,26.6273601 L4.57299195,26.7208789 L4.6229026,26.8060892 L4.68514858,26.8829911 L4.88611959,27.1073203 L4.94324166,27.1882798 L4.85974096,27.3024732 L4.89826515,27.4207243 L4.99011592,27.5432262 L5.07266775,27.6823451 L5.13168757,28.1039527 L5.23283728,28.351082 L5.23891006,28.5050789 L5.21556782,28.7154963 L5.27667515,28.8310423 L5.39585343,28.9118085 L5.47252226,29.007646 L5.41634906,29.1651209 L6.10579919,30.0778956 L6.2209922,30.2765264 L6.26293233,30.4330352 L6.30980659,30.8179309 L6.38742429,31.0051618 L6.49028197,31.1777079 L6.57587019,31.3550845 L6.58820553,31.5150712 L6.59124191,31.4764271 L6.59124191,31.5658883 L6.58820553,31.5150712 L6.57093606,31.67158 L6.50565369,31.8049023 L6.46371357,31.9218008 L6.51685038,32.0580214 L6.2986099,32.2991609 L6.3340977,32.5192393 L6.52899594,32.7143922 L7.00836588,32.997847 L7.10325305,33.0755217 L7.16549903,33.2148338 L7.2093369,33.2231423 L7.25412364,33.2478746 L7.27442949,33.3352103 L7.24805086,33.4310478 L7.17783436,33.4973225 L7.08788133,33.53017 L7.00210333,33.5367395 L7.05827653,33.6884178 L7.02867174,33.8045434 L6.95238246,33.8959368 L6.8633783,33.9521641 L6.68612908,33.8741029 L6.53525849,33.9137132 L6.49958092,34.0120625 L6.65956067,34.1181407 L6.54133127,34.2095341 L6.37508896,34.2872088 L6.20979552,34.341697 L6.073158,34.3631445 L6.00483925,34.4079717 L5.93746936,34.5190736 L5.77729983,34.9115049 L5.75908149,35.0133322 L5.76230766,35.308187 L5.73858586,35.4658551 L5.63876457,35.6756928 L5.60612338,35.9477476 L5.67956605,36.2157447 L5.64692487,36.5146572 L5.63269179,36.5590979 L5.5469138,36.736861 L5.50497367,36.7942475 L5.22372812,37.2645468 L5.02901966,37.7222866 L4.94836557,38.1230264 L4.89826515,38.2799216 L4.88403207,38.3400132 L4.87473313,38.4128575 L4.80964054,38.6682952 L4.87795929,38.9090482 L5.15540936,40.2413051 L5.23587367,40.4393563 L5.58145272,40.9224081 L5.67045688,41.1453848 L5.69171161,41.2953241 L5.694748,41.6212874 L5.71524362,41.7115215 L5.80386823,41.9493762 L5.82436386,42.1122612 L5.76515427,42.395716 L5.65299764,42.6181131 L5.59701422,42.8652424 L5.694748,43.2056973 L5.48485759,43.4924368 L5.41331267,43.9260241 L5.35429285,44.8401513 L5.30646972,44.9450701 L5.17989025,45.1317213 L5.14724906,45.2520978 L5.16451853,45.3458099 L5.2563693,45.5774815 L5.27667515,45.6959258 L5.22372812,46.1206249 L5.23891006,46.3061168 L5.35429285,46.4597273 L5.55507409,46.5638732 L5.82740025,46.9458706 L6.07012161,47.4432207 L6.19764996,48.0006625 L6.29253712,48.1274153 L6.30980659,48.2501104 L6.27697563,48.3474937 L6.21491942,48.4226565 L6.18531463,48.4730871 L6.16500878,48.5126974 L6.17411794,48.6599315 L6.21795581,48.7153859 L6.39330729,48.8407861 L6.4546044,48.904549 L6.51172647,49.0340068 L6.59124191,49.3901126 L6.67683014,49.4774484 L6.81365743,49.7578116 L6.88691032,50.033924 L6.89943542,50.5343657 L7.05011624,51.3122723 L7.496845,51.7966766 L7.58565939,51.7823783 L7.90277229,51.8032461 L7.96710578,51.809236 C9.63579144,51.9240091 11.3039078,52.0457381 12.9725934,52.1578061 C14.6285642,52.268908 16.2835861,52.3923761 17.9395569,52.5050237 C19.5729445,52.6161256 21.2063321,52.7307055 22.8397198,52.8462515 C24.549966,52.9674009 26.2600225,53.0887435 27.9706482,53.2044827 C29.585438,53.3136524 31.2002277,53.4280391 32.8144482,53.5435851 C33.1835592,53.5696699 33.5522907,53.5963343 33.9214018,53.6202937 L33.9430361,53.63807 L33.9430361,53.6742023 L33.9132415,53.7489787 L33.8714912,53.8249144 L33.8540319,53.8697416 L33.8540319,53.9184333 L33.8654184,53.9671249 L33.9193143,54.0625759 L34.1561526,54.3761731 L34.1998007,54.4509495 L34.2476239,54.5547091 L34.2620467,54.6086176 L34.2683093,54.6629127 L34.2620467,54.7230043 L34.2527478,54.7863807 L34.2032167,54.9577675 L34.1764585,55.0970796 L34.1701959,55.1652865 L34.1734221,55.2238324 L34.1939177,55.3283648 L34.3447883,55.7656233 L34.4019104,55.8672574 L34.4396755,55.9099591 L34.4937612,55.9464779 L34.5641674,55.970244 L34.6590546,55.9762339 L35.1238119,55.9223253 L35.190992,55.9337253 L35.37773,55.9940102 L35.4289691,56 L35.4726171,56 L35.7479797,55.9223253 L35.8011165,55.8954676 L35.8400202,55.8498675 L35.8599465,55.7571216 L35.8633625,55.6846638 L35.8428669,55.3442089 L35.8489396,55.2713647 L35.875508,55.1177542 L36.0764791,54.3825494 L36.2133063,53.5996191 L36.216153,53.4635917 L36.2040074,53.3463067 L36.1884459,53.2881473 L36.144608,53.1986861 L35.9519871,52.9206415 L35.9049231,52.8157226 L35.8726614,52.7065529 L35.8521658,52.6130341 L35.8428669,52.4752677 L35.8489396,52.4084134 L35.9193459,52.1406095 L35.9314915,52.0650602 L35.9373745,51.9964668 L35.9049231,51.7035442 L35.9111856,51.5891576 L35.9256085,51.5356354 L35.9459143,51.4830794 L35.9753293,51.4378657 L36.0946974,51.3174892 L36.1243022,51.261262 L36.138725,51.1947941 L36.1590309,51.0703599 L36.1884459,51.028431 L36.2394952,51.0141327 L36.3425427,51.0473667 L36.4264229,51.0585735 L36.5167555,51.0411836 L36.5586956,51.0046649 L36.5917164,50.9499834 L36.6038619,50.8937562 L36.6150586,50.8147289 L36.6150586,50.7909628 L36.6302405,50.7148338 L36.6564294,50.6673015 L36.7065298,50.6215082 L36.792118,50.5977421 L36.8697357,50.5925251 L37.0086505,50.6008336 L37.070517,50.5977421 L37.1483245,50.6008336 L37.2369491,50.6215082 L37.3847833,50.7181186 L37.4612623,50.7785967 L37.5978998,50.8562714 L38.5116632,51.2394281 L38.6014265,51.228028 L38.6921386,51.2363365 L38.8352284,51.2755603 L38.9320133,51.3455062 L38.9971059,51.4084962 L39.0980659,51.4707133 L39.2459001,51.5375676 L39.7284962,51.684995 L39.8374267,51.6975544 L39.9416128,51.6797781 L40.0131577,51.6828696 L40.1484668,51.7700121 L40.2496165,51.8156122 L40.6637041,51.9110633 L40.7585912,51.9093243 L41.0836747,51.809236 L41.26415,51.8606327 L41.3385416,51.8778293 L41.326396,51.7336867 L41.3916784,51.4378657 L41.4150206,51.1741195 L41.3711828,51.0378989 L41.2529534,50.8782986 L41.2019041,50.7691289 L41.187671,50.6091421 L41.1907074,50.4615215 L41.1491468,50.3457823 L41.004349,50.2853042 L41.004349,50.2033786 L41.1161261,50.1970023 L41.2233486,50.2095617 L41.3233596,50.2397041 L41.4150206,50.2853042 L41.4072399,50.1367175 L41.3622634,50.0588495 L41.3123527,49.9890968 L41.2797115,49.8739373 L41.2878718,49.8200287 L41.335695,49.6577233 L41.3467019,49.5916418 L41.4089479,49.4376449 L41.7169516,49.0830849 L41.8323344,48.904549 L41.7000617,48.8471624 L41.3467019,48.8500607 L41.1398479,48.7505521 L41.1398479,48.6599315 L41.6140939,48.5696975 L41.7733146,48.4524125 L41.8323344,48.2105002 L41.7467462,48.0153472 L41.3449939,47.5873634 L41.2019041,47.3674782 L41.4571505,47.4546207 L41.7059447,47.6748923 L41.9097623,47.9428895 L42.0372907,48.175334 L42.0995366,48.175334 L42.2877928,47.3497019 L42.3067702,47.0361047 L42.0932741,47.2322237 L42.0314077,47.3674782 L42.0372907,47.6020481 L41.9302579,47.5085293 L41.7000617,47.2563763 L41.4123638,47.1267252 L41.3793431,46.976013 L41.4660699,46.8888705 L41.8241741,47.0851827 L41.8708586,46.9209451 L41.8537789,46.6842498 L41.7733146,46.2129844 L41.7915329,46.0300044 L41.8945804,45.9005465 L42.1107333,45.8669261 L42.1851249,46.0145468 L42.1555201,46.568897 L42.1617826,46.7051176 L42.2504072,46.7733245 L42.480983,46.7922601 L42.667721,46.651209 L42.9102526,46.3310423 L43.2681669,45.7370818 L43.4579413,45.8514685 L43.5995129,45.676797 L43.6678317,45.40281 L43.6465769,45.2099757 L43.4924802,45.0604229 L43.0611231,44.7309816 L42.8950706,44.6676052 L42.5225436,44.6312797 L42.0746762,44.520371 L41.6698876,44.3456995 L41.4150206,44.1068787 L41.5395126,44.0290107 L41.6313634,44.046787 L41.8323344,44.1826212 L42.051334,44.2856078 L43.0969905,44.5139947 L43.4877358,44.5170862 L43.5904037,44.4268522 L43.5496023,44.1826212 L43.4283365,44.0011869 L43.1262157,43.6852711 L43.0643493,43.4955283 L43.0550504,43.3384399 L43.0818085,43.32105 L43.1641706,43.2482058 L43.2448247,43.2097549 L43.3008081,43.2659821 L43.3334493,43.3780501 L43.344646,43.4955283 L43.3660905,43.6128133 L43.4253001,43.7331898 L43.5017791,43.8267086 L43.5814844,43.8630341 L43.7059763,43.8328917 L43.7323549,43.7550237 L43.7270413,43.6460473 L43.7537994,43.5316606 L44.4525485,42.4799603 L44.6381478,42.0678205 L44.2827005,42.0801866 L43.9781127,42.2361157 L43.406892,42.6368555 L43.4924802,42.4496246 L43.5966663,42.3108921 L43.641453,42.1945733 L43.5496023,42.0678205 L43.5344203,42.0946781 L43.2355258,42.0678205 L43.1766957,42.042895 L43.1081872,41.9828034 L43.0457514,41.9047422 L42.9958408,41.8224302 L43.1580978,41.7727724 L43.3334493,41.6877553 L43.5201872,41.6636027 L43.7181219,41.7843657 L43.8957506,41.8330573 L44.0851454,41.7063045 L44.3717046,41.4104836 L44.2472127,41.2597714 L44.0024038,41.0190184 L43.8860721,40.8466656 L44.1143707,40.8559402 L44.2861164,40.9461742 L44.413455,41.0874186 L44.5020796,41.2474053 L44.6081635,41.6794468 L44.676672,41.7416639 L44.7356918,41.6960638 L44.7838945,41.585928 L45.0203533,40.8228994 L45.0702639,40.5276582 L45.0499581,40.268356 L44.9080069,40.1095285 L44.7449907,40.147593 L44.6656651,40.2921221 L44.7804785,40.4314342 L44.7804785,40.5122005 L44.1555517,40.5933532 L43.9547705,40.5881362 L44.3576613,40.1541625 L44.3838502,39.9371757 L44.0910284,39.6981616 L43.7834042,39.6110191 L43.6526497,39.5298664 L43.6107096,39.3638898 L43.6792181,39.2831236 L43.813009,39.3076626 L43.9576171,39.3948051 L44.0583872,39.4906426 L44.3012984,39.6537209 L44.6326443,39.710721 L45.1588886,39.6981616 L45.2957158,39.6378768 L45.4372875,39.5001104 L45.7394082,39.0939605 L45.8546012,38.7917633 L45.9525248,38.628685 L45.8991982,38.6203765 L45.7394082,38.628685 L45.5291383,38.4271558 L45.4729651,38.3856133 L44.9192036,38.2984708 L45.0465422,38.1562604 L45.4465864,38.0470906 L45.4342511,37.936182 L45.2304335,37.7825715 L45.1647716,37.6652865 L45.266111,37.5622999 L45.3953474,37.5655846 L45.4820742,37.6652865 L45.5433713,37.7980291 L45.60334,37.897731 L45.7720494,37.9725075 L46.2244714,38.0629347 L46.3990638,38.1833113 L46.5467082,38.171718 L46.7719703,38.0059346 L47.1148925,37.6506017 L46.8579381,37.5924423 L46.7213006,37.3909131 L46.7042209,37.1739262 L46.8080275,37.071326 L46.8668575,37.0255327 L46.9110749,36.9300817 L46.9792039,36.8429392 L47.1148925,36.8270951 L47.1181187,36.8715358 L47.1568327,36.977614 L47.2283776,37.0900685 L47.3202284,37.1518991 L47.8136416,36.7731865 L48,36.525864 L47.8728512,36.2945788 Z M42.0995366,48.8230098 L42.0128098,49.1968919 L41.5192067,49.6061334 L41.4150206,49.9622392 L41.4364651,50.033924 L41.5220534,50.2603787 L41.5516582,50.3660704 L41.560198,50.4661588 L41.5516582,50.7691289 L41.6488226,51.6763001 L41.7234039,51.7161036 L41.7974159,51.6104118 L41.8323344,51.3775809 L41.7678111,51.0224412 L41.771227,50.8415866 L41.9241852,50.5156233 L42.0221087,50.0920835 L42.0575965,49.7452523 L42.1462211,49.3570719 L42.1695634,49.0672408 L42.1667167,48.8230098 L42.0995366,48.8230098 Z" id="Fill-1"></path>
                    </g>
                </g>
            </g>
        </g>
    </g>
</svg>