<?xml version="1.0" encoding="UTF-8" standalone="no"?>
<svg width="38px" height="61px" viewBox="0 0 38 61" version="1.1" xmlns="http://www.w3.org/2000/svg" xmlns:xlink="http://www.w3.org/1999/xlink">
    <!-- Generator: Sketch 46.2 (44496) - http://www.bohemiancoding.com/sketch -->
    <title>Fill 1</title>
    <desc>Created with Sketch.</desc>
    <defs></defs>
    <g id="Page-1" stroke="none" stroke-width="1" fill="none" fill-rule="evenodd">
        <g id="The-50-States" transform="translate(-333.000000, -611.000000)" fill="#4A4A4A">
            <g id="Idaho" transform="translate(282.000000, 578.000000)">
                <g id="Page-1" transform="translate(51.000000, 33.000000)">
                    <path d="M37.9978055,51.1334523 C37.9978055,49.2605151 37.9958304,47.3875779 37.995172,45.5150767 C37.9945137,43.6999058 37.9938553,41.8849529 37.9938553,40.0700001 L37.7230506,39.9943589 L37.6223218,39.9211155 L37.4452234,39.6976797 L37.3390083,39.5156612 L37.2575913,39.4171315 L37.1906582,39.3637249 L37.0960741,39.3138061 L37.0493307,39.2789283 L37.0142182,39.2442685 L36.9957842,39.2067748 L36.9819587,39.1668834 L36.9692304,39.1226322 L36.9639635,39.0223585 L36.9657192,38.9637203 L36.9604523,38.9076978 L36.9404821,38.8468797 L36.9040529,38.8067702 L36.8577484,38.7758162 L36.7963016,38.7457341 L36.7684311,38.7128182 L36.7192737,38.6038251 L36.4701949,38.2064363 L36.4122593,38.0595136 L36.3501542,38.0091588 L36.1269707,37.8851247 L36.0484067,37.86398 L35.995738,37.8663779 L35.9669897,37.895152 L35.9004955,38.0159164 L35.8666998,38.0475244 L35.8190785,38.0669252 L35.6413218,38.0904677 L35.5996258,38.1055087 L35.5258896,38.1501959 L35.4668569,38.2127579 L35.4493006,38.2537393 L35.4416198,38.2966826 L35.4530313,38.3359201 L35.4736599,38.3721058 L35.4980192,38.4037138 L35.5186477,38.4398995 L35.533351,38.4780471 L35.5419097,38.5279659 L35.5392763,38.5781027 L35.528962,38.6273676 L35.5046027,38.6635533 L35.4740988,38.6897116 L35.3099481,38.7531456 L35.2798831,38.7799579 L35.2623269,38.8189774 L35.255085,38.9087877 L35.243454,38.9478073 L35.1997829,39.0448111 L35.187713,39.093204 L35.1809099,39.1455207 L35.1826655,39.1947856 L35.187713,39.2416526 L35.2083415,39.3290651 L35.2195336,39.3648148 L35.231823,39.3885753 L35.250257,39.4136437 L35.2774691,39.4387121 L35.3141177,39.4594208 L35.4569815,39.5086857 L35.4903383,39.5331001 L35.5100891,39.5677599 L35.5092112,39.6039456 L35.4714654,39.6314119 L35.4115548,39.6477609 L35.3051202,39.6595321 L35.2482819,39.6538645 L35.2109749,39.6440551 L35.1359221,39.5891226 L34.9439009,39.4969144 L34.8684092,39.4810014 L34.1964449,39.4757698 L34.1060303,39.4888489 L33.8303977,39.676971 L33.7922129,39.6976797 L33.687095,39.7205682 L33.5602513,39.7316855 L33.5067049,39.7484705 L33.3829335,39.8077627 L33.3254369,39.8110325 L33.2800102,39.7970814 L33.2481895,39.7693972 L33.2264637,39.7336474 L33.2075908,39.6976797 L33.1590917,39.6277061 L33.1167373,39.5932643 L33.0583629,39.5596945 L32.9473198,39.5174051 L32.6877072,39.5082497 L32.6319662,39.5174051 L32.5874173,39.5335361 L32.5547188,39.5590405 L32.5106088,39.5858528 L32.4463092,39.6065615 L32.3297797,39.6253083 L32.2312455,39.6128831 L31.6431121,39.7201323 L31.5851765,39.7129387 L31.4339736,39.6508127 L31.257753,39.6080874 L31.1438571,39.5965341 L31.0053824,39.6022018 L30.9362547,39.5952262 L30.8879751,39.5771333 L30.7966828,39.504326 L30.7069266,39.4633446 L30.6533801,39.4633446 L30.6119036,39.4823094 L30.5574793,39.5405117 L30.5291699,39.5629642 L30.4828654,39.5843269 L30.3272734,39.6233464 L30.2296169,39.6645458 L30.1578558,39.7068351 L30.1253768,39.7336474 L30.1010176,39.7672173 L30.0808279,39.8101606 L30.0354012,40.0120158 L29.9278693,40.2967057 L29.8920985,40.3379051 L29.8403077,40.3727829 L29.7422123,40.4076607 L29.6739625,40.4126743 L29.6212938,40.401775 L29.5848647,40.3758347 L29.5561164,40.3442267 L29.5146398,40.308041 L29.4630684,40.2727272 L29.3439056,40.2404653 L29.2552467,40.2385034 L29.0838541,40.2618279 L29.0456693,40.2570322 L28.9916839,40.2027537 L28.9578882,40.1757234 L28.9175089,40.1547967 L28.1628108,40.0599727 L27.9534529,40.0043862 L27.8867393,40.0059121 L27.8351679,40.0165935 L27.727636,40.0885289 L27.6903291,40.1048779 L27.514328,40.149565 L27.4789961,40.1733255 L27.1254577,40.5308228 L27.0993428,40.5646107 L27.0754224,40.6031943 L27.0561106,40.6443936 L27.0462352,40.6886448 L27.0466741,40.7379097 L27.0602802,40.7788911 L27.165837,40.9613455 L27.1605701,41.0093025 L27.1335774,41.0555156 L27.0337264,41.1065243 L26.98018,41.1026006 L26.9411174,41.080366 L26.7980342,40.874587 L26.7688469,40.8449409 L26.73154,40.8218344 L26.457224,40.733986 L26.4117973,40.7065197 L26.3808545,40.6790534 L26.2845147,40.5408502 L26.2463299,40.5035746 L26.1932224,40.4673889 L26.090299,40.4288053 L26.0367526,40.3937095 L26.0097599,40.3492404 L26.0051514,40.2504926 L25.9961538,40.2123451 L25.9390961,40.0985563 L25.9325125,40.0623706 L25.934707,40.0388281 L25.9592857,39.9601351 L26.0170018,39.8271635 L26.0255605,39.7816044 L26.0066875,39.7336474 L25.9630164,39.6909221 L25.86536,39.6383875 L25.8126913,39.5998039 L25.7821874,39.5568606 L25.7813096,39.4594208 L25.772312,39.4160416 L25.7547558,39.37724 L25.5875328,39.1904259 L25.5666848,39.1557661 L25.5583456,39.1158746 L25.5614179,39.0746752 L25.5829243,39.0363097 L25.609917,39.0033937 L25.6733388,38.9499871 L25.7020871,38.9185971 L25.72096,38.8802316 L25.7246907,38.8348904 L25.7174488,38.7915112 L25.7045011,38.7483499 L25.6671941,38.6724907 L25.6000416,38.5652415 L25.5807297,38.5273119 L25.5379365,38.40088 L25.5208191,38.3594626 L25.4988739,38.3234949 L25.4475219,38.2602789 L25.4251377,38.2240932 L25.4088982,38.1859456 L25.3933171,38.1430023 L25.3860751,38.0978792 L25.372908,38.0555899 L25.3562296,38.0172243 L25.3334065,37.9821285 L25.2443087,37.8923182 L25.2181938,37.8598383 L25.1354601,37.7155314 L25.1113203,37.6804357 L24.9947909,37.5579274 L24.8525855,37.4404329 L24.689971,37.3556363 L24.5468878,37.3183606 L24.4406727,37.3163988 L24.3976599,37.3294779 L24.3599141,37.3480068 L24.3265572,37.3711133 L24.204761,37.4877359 L24.1573592,37.5160741 L24.0967902,37.5361288 L23.9853082,37.5461562 L23.9262754,37.5287173 L23.891163,37.4951474 L23.8749235,37.3499686 L23.8615369,37.3070254 L23.809746,37.2590684 L23.7270123,37.2071877 L23.438432,37.0702924 L23.3646958,37.01318 L23.308077,36.9381928 L23.2705506,36.8621156 L23.1878169,36.6125214 L23.1491932,36.5364442 L23.1037665,36.4675606 L23.0489033,36.4052166 L23.026958,36.3688129 L23.0151076,36.3291394 L23.0232273,36.2870681 L23.0471477,36.2550241 L23.0785294,36.2308276 L23.1963756,36.1743692 L23.2262211,36.1471209 L23.2529944,36.1104993 L23.2729646,36.066902 L23.2894235,36.0187271 L23.3278278,35.8094604 L23.3330946,35.7577976 L23.3317779,35.7471163 L23.3043463,35.609567 L23.2918375,35.5661878 L23.1972534,35.3213893 L23.157313,35.2435683 L22.9630973,34.9614942 L22.9451022,34.9233466 L22.9064785,34.7707562 L22.8663186,34.7044885 L22.820453,34.6820359 L22.6121923,34.6863956 L22.5606209,34.6672128 L22.5272641,34.6345149 L22.5187055,34.5887378 L22.5165109,34.4841044 L22.5029049,34.4418151 L22.4827152,34.4058474 L22.4324605,34.3356559 L22.4153432,34.2959824 L22.4050289,34.2504233 L22.3999815,34.2026843 L22.3797919,34.1141819 L22.3635524,34.0729825 L22.323612,33.9979953 L22.2358309,33.8979396 L22.1359799,33.8201186 L22.0119891,33.6755937 L21.9044572,33.5857834 L21.8757089,33.5437121 L21.8662724,33.498371 L21.8621028,33.4013671 L21.8509107,33.3540641 L21.8204068,33.308287 L21.7741023,33.2627279 L21.6373832,33.1578766 L21.5972233,33.118857 L21.5770337,33.0813634 L21.5607942,33.040382 L21.5509188,32.9418523 L21.5533328,32.8901895 L21.5689139,32.7849022 L21.5803255,32.5686599 L21.5787893,32.4635906 L21.5555273,32.4066962 L21.508345,32.347622 L21.3351968,32.2024432 L21.3082041,32.142061 L21.2974509,32.0450572 L21.2825281,32.0038578 L21.271336,31.9602605 L21.2717749,31.9083798 L21.2812114,31.858025 L21.2959147,31.8102861 L21.3327828,31.7196038 L21.345511,31.6718648 L21.3490223,31.621946 L21.3327828,31.480691 L21.3314661,31.4266304 L21.3327828,31.4150771 L21.3150071,31.3557849 L21.2511464,31.2943128 L21.0591252,31.2077723 L21.0104067,31.164829 L20.985828,31.1144742 L20.9880225,31.0608496 L21.004262,30.9483687 L21.0330103,30.848967 L21.0518833,30.8047158 L21.0995045,30.7306005 L21.1183774,30.6902731 L21.1227665,30.64406 L21.1106966,30.5947952 L21.0850206,30.5450943 L21.0316936,30.4827503 L20.9856085,30.4474365 L20.9353538,30.4219321 L20.6151723,30.3096692 L20.5427529,30.2678159 L20.4999596,30.2211669 L20.4924982,30.125035 L20.4806477,30.0803478 L20.4626526,30.0417642 L20.3031105,29.9009452 L20.082341,29.7415973 L19.9671283,29.682305 L19.882639,29.6537489 L19.8462098,29.6657381 L19.8240451,29.6855748 L19.8102196,29.7104253 L19.8007831,29.7533685 L19.7990275,29.8024154 L19.8007831,29.8497184 L19.8089029,29.8917898 L19.8290925,29.9521719 L19.8372123,29.9931533 L19.8389679,30.0354426 L19.8290925,30.0714104 L19.8137308,30.0903752 L19.7887132,30.1041083 L19.6241236,30.1607847 L19.5852805,30.1812754 L19.5508264,30.2052539 L19.5205419,30.2355539 L19.4950854,30.2739195 L19.4553645,30.3632938 L19.439125,30.4119048 L19.4189353,30.455502 L19.3947955,30.4938676 L19.3653888,30.5226417 L19.2561014,30.5913074 L19.2260363,30.6222614 L19.2032133,30.6612809 L19.1865348,30.7044422 L19.1733677,30.7480394 L19.1479112,30.7831352 L19.1141154,30.8079856 L18.8703034,30.9102212 L18.7291953,31.0054811 L18.6903522,31.0240099 L18.6436087,31.0296776 L18.5384909,31.0220481 L18.4910891,31.0283697 L18.4507098,31.0460265 L18.4155973,31.0715309 L18.3875074,31.1037929 L18.3616119,31.1404145 L18.3409834,31.180524 L18.2771226,31.3666842 L18.2494716,31.4133332 L18.2433269,31.4192189 L18.2176509,31.4414535 L18.0701787,31.5192745 L18.0357246,31.542817 L17.9841532,31.5643977 L17.9167812,31.5776948 L17.7873041,31.5672315 L17.7181765,31.5465228 L17.673847,31.5129529 L17.6492683,31.480691 L17.6154726,31.4200908 L17.4078703,31.3030322 L17.3440095,31.2576911 L17.3038497,31.2077723 L17.2946326,31.1611232 L17.276857,31.1105504 L17.2456947,31.0656453 L17.0411647,30.9089132 L16.9808152,30.8875506 L16.691357,30.8315281 L16.5695607,30.8315281 L16.4844131,30.8197569 L16.4565426,30.7879309 L16.4602733,30.754361 L16.5320343,30.644714 L16.5495905,30.5985009 L16.5570519,30.550544 L16.547396,30.4977913 L16.5250118,30.4441667 L16.4881438,30.3717953 L16.4767322,30.3170808 L16.4874854,30.2721756 L16.5118447,30.2386058 L16.6408829,30.1289587 L16.7201053,30.0404563 L16.7363448,30.0158239 L16.7501704,29.9868317 L16.7639959,29.9471582 L16.7723351,29.9018171 L16.7736518,29.8497184 L16.7514871,29.7601261 L16.7488536,29.7160929 L16.7758463,29.6332582 L16.7653126,29.5759278 L16.7251528,29.5122758 L16.568244,29.3531459 L16.5307176,29.3003933 L16.5168921,29.258104 L16.4844131,29.1386475 L16.4328417,29.0538509 L16.4209912,28.9941227 L16.4288915,28.9468197 L16.4572009,28.9156477 L16.5219395,28.8576634 L16.5506878,28.8221316 L16.5719747,28.7798423 L16.5895309,28.7336292 L16.6307881,28.6527564 L16.7012324,28.5407115 L16.7341503,28.4646343 L16.7464397,28.4417457 L16.7677266,28.4112277 L16.8304901,28.3606549 L16.8704305,28.342562 L16.914321,28.3327527 L17.1258735,28.3225073 L17.1717391,28.3126979 L17.2136546,28.2941691 L17.2481087,28.2691007 L17.3960198,28.1184723 L17.4219152,28.0809786 L17.4304739,28.0293159 L17.4203791,27.9626121 L17.2906825,27.7520375 L17.2724679,27.7097482 L17.2588618,27.6681128 L17.2529366,27.61863 L17.2588618,27.5678392 L17.2682983,27.5139966 L17.2845378,27.4666936 L17.3457651,27.3422235 L17.3573961,27.2905608 L17.353446,27.2362822 L17.3284284,27.1791698 L17.2845378,27.1527935 L17.1221428,27.1067984 L16.9746705,27.0431465 L16.9182712,26.9884319 L16.8998371,26.9324095 L16.911907,26.8844525 L16.9200268,26.8314819 L16.9114681,26.7687019 L16.8631885,26.6819434 L16.844974,26.6172015 L16.8416822,26.5585632 L16.8548493,26.5088624 L16.8732834,26.4652651 L16.9970547,26.2771431 L17.0192194,26.2348537 L17.0348006,26.1879867 L17.0405064,26.1376319 L17.0376535,26.089675 L17.0222918,26.0441158 L16.9966158,26.0044424 L16.751926,25.7395892 L16.723836,25.6866185 L16.7174719,25.6406234 L16.7212026,25.5944104 L16.7343698,25.5577887 L16.7475369,25.53708 L16.775188,25.5133195 L16.8127144,25.4960986 L17.0185611,25.473646 L17.0624516,25.4599129 L17.1001975,25.4381143 L17.1282875,25.4051984 L17.1491355,25.3646529 L17.1559385,25.3142981 L17.1544023,25.2630714 L17.1390406,25.1658496 L17.1258735,25.0152211 L17.118851,24.9683541 L17.1076589,24.921705 L17.0718881,24.8244832 L17.0424814,24.7671528 L17.0247058,24.7198498 L17.0185611,24.6712389 L17.0299726,24.6276417 L17.0497234,24.5903661 L17.1012948,24.5162508 L17.121265,24.4719996 L17.1331154,24.4220807 L17.1394796,24.3189733 L17.1495744,24.2697084 L17.1688862,24.2228414 L17.2950716,24.0360272 L17.3157001,23.992866 L17.3244782,23.944473 L17.3284284,23.8901945 L17.3176752,23.7855611 L17.3194308,23.6735162 L17.335012,23.5658311 L17.3613463,23.4642495 L17.5053073,23.1560171 L17.5195717,23.1004306 L17.5301055,23.046806 L17.5344945,22.9907835 L17.5309833,22.9397748 L17.5215468,22.8911639 L17.4982848,22.8451688 L17.4671225,22.7963399 L17.3784636,22.6906166 L17.3584934,22.6544309 L17.3527876,22.6400438 L17.3521293,22.6308884 L17.3646381,22.5905609 L17.3918502,22.5659285 L17.4274016,22.5460917 L17.5961607,22.4802599 L17.6343455,22.4562814 L17.6681412,22.4303411 L17.6984257,22.399823 L17.7197126,22.3629834 L17.7309047,22.3193861 L17.7241017,22.2757889 L17.7083011,22.2348075 L17.6894282,22.194698 L17.6795528,22.1513188 L17.6832835,22.1037978 L17.6977674,22.0591106 L17.7420968,21.9793277 L17.759653,21.9344225 L17.7653588,21.8860296 L17.7583363,21.8372007 L17.7478026,21.7912056 L17.7434135,21.7432487 L17.7524111,21.6939838 L17.7673339,21.6466808 L17.8057381,21.5557806 L17.8263667,21.4474414 L17.8285612,21.2867856 L17.8230749,21.2288013 L17.8136384,21.1714709 L17.7886208,21.1121787 L17.7510944,21.0786088 L17.703912,21.0574642 L17.6508045,21.0524505 L17.6009887,21.0555023 L17.1829312,21.1634055 L17.1425519,21.1819343 L17.0424814,21.2580115 L16.9647952,21.2989929 L16.9209046,21.312944 L16.8754779,21.3190476 L16.8267594,21.3114181 L16.7244944,21.2741424 L16.6843345,21.2667309 L16.6417607,21.2715266 L16.5010915,21.3290749 L16.4273554,21.3465138 L16.3237737,21.3552333 L16.2465263,21.3345246 L16.1583063,21.2955051 L16.0101757,21.1993732 L15.9436815,21.1422608 L15.8986937,21.0886362 L15.8848682,21.044385 L15.87609,20.9981719 L15.8811375,20.9478171 L15.8986937,20.9055278 L15.983183,20.7958808 L15.9932778,20.744654 L15.9801107,20.6805661 L15.9287587,20.5920637 L15.8875016,20.5423629 L15.7312512,20.4283561 L15.6884579,20.4098273 L15.6390811,20.3995819 L15.5912404,20.4032877 L15.5486665,20.4159309 L15.5124568,20.4377295 L15.4121669,20.52427 L15.2752284,20.698441 L15.235288,20.7224194 L15.1874473,20.7322288 L15.1268783,20.7174058 L15.0933021,20.6842719 L15.0764042,20.6415466 L15.0759653,20.5927177 L15.1198559,20.3780013 L15.1229282,20.320017 L15.1174419,20.2587628 L15.0946188,20.1966368 L15.0627981,20.1580532 L15.0193465,20.130587 L14.842687,20.0795782 L14.7421777,20.0329292 L14.6772196,19.9749449 L14.5887802,19.8727093 L14.5216276,19.8116732 L14.3339955,19.6872031 L14.2771573,19.6396821 L14.2383141,19.5956489 L14.1867427,19.4692169 L14.1586528,19.3780987 L14.1404382,19.2815308 L14.1279294,19.1265427 L14.1316601,19.0705202 L14.1426327,19.0168956 L14.1573361,18.9665408 L14.1661142,18.9183659 L14.1615057,18.8723708 L14.1239793,18.8337872 L13.969704,18.7385273 L13.9170353,18.696238 L13.8781922,18.6563465 L13.7050439,18.4207034 L13.6631285,18.3790681 L13.623627,18.3529097 L13.5013918,18.3206478 L13.412294,18.2833722 L13.3653311,18.2469685 L13.3363633,18.2120907 L13.3264879,18.1892021 L13.3214405,18.1735071 L13.2924728,18.0104535 L13.2786472,17.9648944 L12.7282597,17.3508273 L12.6398203,17.1419966 L12.4710611,16.9028657 L12.4014946,16.83638 L12.2314187,16.7160516 L12.1776528,16.6576313 L12.1205951,16.5765404 L12.0767045,16.5309813 L12.0271082,16.4943596 L11.9656614,16.4618797 L11.9292323,16.425694 L11.907287,16.3823148 L11.8853417,16.2874908 L11.8677855,16.2432396 L11.8421095,16.1996423 L11.802608,16.1492875 L11.7775904,16.1030745 L11.7185576,15.9742446 L11.6496495,15.8663415 L11.6007115,15.810319 L11.5493595,15.7728254 L10.9932663,15.5487356 L10.6829601,15.4920592 L10.592765,15.4528217 L10.5440465,15.416636 L10.5109091,15.3756546 L10.4485845,15.2572881 L10.3967937,15.1299842 L10.2958454,14.9813176 L10.097899,14.7478544 L10.0417191,14.6935759 L9.57867381,14.3833816 L9.33639797,14.3112281 L9.23413299,14.2593474 L9.19265642,14.2126984 L9.17575856,14.1634335 L9.1871701,14.1222341 L9.20406796,14.0899722 L9.22074637,14.0718793 L9.25103085,14.0494267 L9.29184906,14.0365656 L9.55453401,14.0108432 L9.59952182,13.997764 L9.63924277,13.9805431 L9.67567193,13.9565646 L9.70266462,13.919289 L9.71539288,13.8739479 L9.69103362,13.8146556 L9.63485372,13.7734563 L9.53983067,13.7274612 L9.47618938,13.6869157 L9.47245868,13.6788503 L9.43646843,13.4920361 L9.38972499,13.3937243 L9.33376454,13.33683 L9.1751002,13.2304527 L9.13845159,13.1838037 L9.13625706,13.1375906 L9.1630303,13.1057646 L9.19682602,13.0778624 L9.34517608,12.9836924 L9.37765509,12.9549182 L9.40728121,12.9226562 L9.43273773,12.8840727 L9.47070306,12.7925185 L9.48540639,12.7415097 L9.47114196,12.6649966 L9.42922649,12.5664668 L9.26046732,12.3029215 L9.2308412,12.2288062 L9.2470807,12.0034085 L9.24071657,11.9397566 L9.22381871,11.8780665 L9.18431721,11.8022073 L9.14086557,11.760354 L8.96201157,11.6395896 L8.92975202,11.5898888 L8.91022072,11.5275447 L8.89551739,11.4652007 L8.85755206,11.3823659 L8.80093325,11.3357169 L8.63678259,11.2347893 L8.59311149,11.1842165 L8.5661188,11.1338617 L8.44915049,10.6978894 L8.42435233,10.6429568 L8.38485083,10.5694955 L8.33591287,10.5232824 L8.18975733,10.4336901 L8.13248016,10.3757058 L8.06379145,10.2874214 L7.99773617,10.2181018 L7.9204888,10.1559757 L7.87967059,10.1084548 L7.85245845,10.0631136 L7.80593446,9.96719971 L7.6534148,9.75858695 L7.58077594,9.6190758 L7.39994687,9.39106226 L7.26388616,9.25765472 L7.21099805,9.17046025 L7.18927223,9.11312989 C7.18927223,7.18155442 7.19146675,5.24997896 7.19278347,3.31840349 C7.19366128,2.21234166 7.19410019,1.10606183 7.19475854,0 L1.09243581,0 C1.09901939,1.94552658 1.10538352,3.89083518 1.11218656,5.83636176 C1.11920905,7.76532139 1.12535372,9.69428102 1.13215676,11.6234586 C1.13874034,13.5330175 1.14532392,15.4427944 1.15234641,17.3523532 C1.15892999,19.2438192 1.16551358,21.1352852 1.17253607,23.0269692 C1.17297497,23.108932 1.17319442,23.1908948 1.17363333,23.2728576 L1.08014646,23.5527519 L1.05600665,23.7123178 L1.10055556,23.8465972 L1.39264718,24.2278551 L1.59871331,24.575543 L1.68429989,24.7621392 L1.75408586,25.1946237 L1.88707423,25.4348445 L1.88773259,25.6194788 L1.83111378,25.7999713 L1.75145243,25.9220436 L1.57018446,26.1278225 L1.60419963,26.2211206 L1.92986752,26.640744 C1.98297509,26.7857048 2.03652156,26.9304476 2.08875131,27.0756264 L2.14163943,27.3470192 L2.3224685,27.8405399 L2.69049077,28.2204898 L2.74732903,28.3576031 L2.81053142,28.4703019 L3.25185091,28.5692677 L3.31154206,28.6228923 L3.43882466,28.7724308 L3.79631319,28.9954306 L4.05526744,29.0470933 L4.14546253,29.131672 L4.22402661,29.226496 L4.30324906,29.398923 L4.41692558,29.7566383 L4.633306,30.1799675 L4.68092725,30.3595881 L4.68663302,30.5440044 L4.63769505,30.708148 L4.55320574,30.8424275 L4.37105996,31.0523481 L4.33616697,31.1118584 L4.22051537,31.4046138 L4.19198651,31.5877222 L4.16784671,31.6736087 L3.87487728,32.047455 L3.78336548,32.3389025 L3.57027686,32.5900226 L3.49039605,32.7474086 L3.46581735,32.9318249 L3.44738331,33.292592 L3.38747271,33.4338471 L3.30605574,33.5820777 L3.19632936,34.1141819 L3.06926622,34.4479187 L2.41551646,35.4471673 L2.36679795,35.5400294 L2.34638885,35.6276599 L2.36021437,35.7261896 L2.3907183,35.7946373 L2.42122224,35.8384525 L2.43460885,35.863085 L2.42495293,36.0437955 L2.35801984,36.446198 L2.30820407,36.6066358 L2.16621814,36.9094186 L1.83725846,37.4565639 L1.74947736,37.5622872 L1.63514247,37.6645227 L1.26229224,37.9086672 L1.147299,38.0488323 L1.08168263,38.1728664 L0.912045646,38.6079668 L0.756234191,38.9122755 L0.687984384,39.094076 L0.635315723,39.4286848 L0.573868952,39.5891226 L0.492013075,39.7343014 L0.407084859,39.8371909 L0.339493411,39.8705427 L0.271243604,39.8908154 L0.21835549,39.9355026 L0.196629668,40.0438417 L0.16810081,40.0900548 L0.111262546,40.1395377 L0.0711026923,40.2010098 L0.134743991,40.4312032 L0.0880005544,40.5851014 L0.0204091061,40.7538227 L0,40.9506642 L0.0274315943,41.0498479 L0.109068019,41.2235829 L0.125965881,41.3332299 L0.119821204,41.4217323 L0.0906339875,41.5331233 L0.0840504048,41.6209717 L0.12508807,41.7792297 L0.224939073,41.8901846 L0.463045311,42.0632656 L0.52427263,41.9922021 L0.574088405,41.9187408 L0.631365574,41.8574867 L0.715635431,41.8252247 L0.795955139,41.8459334 L0.841820765,41.915035 L0.877591564,41.9987417 L0.929601867,42.0632656 L1.05644556,42.1031571 L1.1635385,42.0754729 L1.27480105,42.02599 L1.41371464,41.9998317 L1.49096201,42.0294778 L1.5096155,42.105555 L1.50654316,42.2014689 L1.51861306,42.2954209 L1.56557595,42.4083377 L1.59915222,42.4545508 L1.73323785,42.5280122 L1.83945299,42.609975 L1.96278543,42.7316112 L1.99328937,42.8094323 L1.96761339,42.8706864 L1.92460065,42.9203873 L1.90155811,42.9663823 L1.9006803,43.0633862 L1.89212165,43.1643138 L1.86732348,43.2610996 L1.81728826,43.3463322 L1.75035517,43.3761963 L1.6656464,43.3748884 L1.58225436,43.3881856 L1.51861306,43.4620829 L1.52036868,43.601812 L1.68912785,43.8902077 L1.73323785,44.0689564 L1.72467919,44.1661782 L1.70383118,44.232228 L1.67661904,44.296316 L1.64896799,44.3891781 L1.60683307,44.7362121 L1.52914679,45.0117466 L1.50544589,45.2142557 L1.43478211,45.4045577 L1.36609339,45.5163846 L1.23025214,45.6247237 L1.13369293,45.761619 L1.18197253,45.9560627 L1.18197253,46.0197147 L1.20304,46.1306696 C1.20545398,48.015814 1.20830686,49.9013944 1.21115975,51.7865388 C1.21401264,53.7239999 1.21708497,55.661243 1.21993786,57.5984861 C1.22169348,58.7322322 1.22322965,59.8661963 1.22498527,60.9999424 C3.1353215,60.9999424 5.04565772,61.0003783 6.95599395,60.9988524 C8.97934834,60.9973265 11.0027027,60.9971085 13.0260571,60.9971085 C14.8317144,60.9971085 16.6371522,60.9973265 18.44259,60.9960186 C20.2458333,60.9947107 22.049296,60.9960186 23.8525393,60.9960186 C25.8875247,60.9960186 27.9225101,60.9964546 29.9574955,60.9964546 C31.8976773,60.9964546 33.8376396,60.9971085 35.7778214,60.9971085 L38,60.9971085 C38,59.7109901 37.9995611,58.4246537 37.9986833,57.1385353 C37.9986833,55.1367683 37.9978055,53.1352193 37.9978055,51.1334523" id="Fill-1"></path>
                </g>
            </g>
        </g>
    </g>
</svg>