<?xml version="1.0" encoding="UTF-8" standalone="no"?>
<svg width="37px" height="57px" viewBox="0 0 37 57" version="1.1" xmlns="http://www.w3.org/2000/svg" xmlns:xlink="http://www.w3.org/1999/xlink">
    <!-- Generator: Sketch 46.2 (44496) - http://www.bohemiancoding.com/sketch -->
    <title>Fill 1</title>
    <desc>Created with Sketch.</desc>
    <defs></defs>
    <g id="Page-1" stroke="none" stroke-width="1" fill="none" fill-rule="evenodd">
        <g id="The-50-States" transform="translate(-654.000000, -618.000000)" fill="#4A4A4A">
            <g id="Indiana" transform="translate(602.000000, 578.000000)">
                <g id="Page-1" transform="translate(52.000000, 40.000000)">
                    <path d="M36.2739683,41.2908803 L36.0974316,41.2054438 L35.9617702,41.0301781 L36.0611963,40.8915908 L36.4547029,40.5015259 L36.5702581,40.2561978 L36.5112653,40.0146035 L36.3462179,39.7998043 L36.0386597,39.4749698 L36.0092738,39.0194547 L36.3462179,38.6449835 L36.5611993,38.5112282 C36.5762237,36.5824272 36.5914691,34.6536262 36.6087029,32.7248253 C36.6257158,30.7852624 36.6391936,28.8456995 36.6562065,26.9061366 C36.6734404,24.9571295 36.6886857,23.0083421 36.7037101,21.0593351 C36.7187345,19.1235059 36.7392826,17.1878964 36.7507718,15.2520672 C36.7620401,13.3278785 36.7821463,11.4036898 36.7967288,9.47950109 C36.8115322,7.55838721 36.8239053,5.63705371 36.8420229,3.7157202 C36.8535122,2.48161263 36.8652224,1.24750507 36.8621291,0.0133975016 C34.8862004,0.0109815587 32.9100507,0.00988340282 30.934122,0.00988340282 C29.0850168,0.00988340282 27.2359116,0.00658893521 25.3868065,0.00658893521 C23.4387171,0.00658893521 21.4908486,0.00571041052 19.5427592,0.00329446761 C17.7296684,0.000878524695 15.9163566,0 14.1032658,0 L12.0332137,1.15811518 L10.1193711,1.83941108 L9.11472522,1.94066105 L8.07185554,1.76297943 L7.82748819,1.67424844 L7.65780092,1.55828318 L7.57870191,1.36720406 L7.61493721,1.05906152 L7.25987543,1.19742916 L6.87299729,0.909492691 L6.56742764,0.471108868 C6.56742764,2.45899062 6.55306609,4.44687238 6.54687957,6.43475413 C6.540914,8.28382898 6.53251802,10.1329038 6.52655245,11.9821983 C6.52058688,13.8951858 6.511749,15.8081734 6.50357397,17.7209413 C6.49473609,19.7558241 6.48810768,21.7907069 6.4792698,23.8255897 C6.47065287,25.7886532 6.46424541,27.751497 6.45783794,29.7143408 C6.45253522,31.3953978 6.43861556,33.0766744 6.43861556,34.7577314 L6.39774037,34.819887 L5.72341023,35.1381326 L5.52455796,35.3491982 L5.40922364,35.6384524 L5.46114618,35.884659 L5.71457235,36.3645531 L5.70330405,36.975567 L4.9861102,37.6724567 L4.94545596,38.2156046 L5.01107721,38.3335465 L5.09238569,38.4055856 L5.25765402,38.5068355 L5.59459815,38.8496798 L5.70772299,39.1026949 L5.80273019,39.6311275 L5.87078185,39.869647 L5.99959394,40.028001 L6.32770018,40.315059 L6.39774037,40.4947173 L6.39774037,41.0738847 L6.36150507,41.2300425 L6.20551651,41.4525288 L6.16928121,41.6181307 L6.29146488,42.1397548 L6.53141328,42.685099 L6.67613355,43.2383499 L6.32770018,44.2739109 L6.27113776,44.3764787 L6.13768579,44.403054 L5.98611617,44.403054 L5.87078185,44.4236994 L5.69203576,44.576343 L5.52455796,44.8135447 L5.43176023,45.0948922 L5.48390371,45.3768987 L5.45208735,45.4509144 L5.416073,45.5075792 L5.37519781,45.5466736 L5.3323341,45.5772023 L5.40237428,45.5772023 L5.25765402,45.6650548 L5.11271281,45.7829967 L5.00201838,45.9426686 L4.94545596,46.1541734 L4.9861102,46.3744634 L5.1714847,46.670087 L5.17612459,46.8352496 L5.09702558,46.9892111 L5.03803274,46.9782295 L4.97241149,46.9149758 L4.87077588,46.922004 L4.78924645,46.9892111 L4.6694932,47.1299947 L4.57426505,47.2097208 L4.22362222,47.3920147 L3.88667809,47.4989751 L3.88667809,47.6035195 L4.05415589,47.7695607 L3.99759347,48.0531045 L3.82569673,48.3500459 L3.65578851,48.5622096 L3.5766895,48.6085517 L3.35949863,48.6863012 L3.26891037,48.7548261 L3.18075253,48.9076894 L3.0813264,49.2281313 L3.00885579,49.3812142 L2.97262049,49.508161 L2.95671231,49.6878193 L2.92732636,49.8444164 L2.85065777,49.9127217 L2.7463708,49.8510053 L2.70129762,49.7170303 L2.67169072,49.5802001 L2.62882701,49.5215585 L2.54729758,49.5643866 L2.46134921,49.6678329 L2.38909955,49.7822607 L2.30072076,50.046477 L2.18074656,49.9713632 L2.07447107,49.8092754 L2.06320278,49.7205444 L1.84601191,49.7758914 L1.74194589,49.9487412 L1.68295305,50.1738631 L1.60164456,50.3987654 L1.50221843,50.5235159 L1.40699028,50.6054384 L1.33231021,50.7025154 L1.29607491,50.8687762 L1.3256818,51.0229572 L1.40036188,51.129698 L1.47946089,51.218429 L1.51591714,51.3093563 L1.62661157,51.4433313 L1.84137202,51.5632499 L1.97946388,51.7233611 L1.86412956,51.9730817 L1.75763312,52.0334803 L1.51591714,52.0919022 L1.40699028,52.1685534 L1.16726283,52.4024606 L0.907208246,52.5889275 L1.08816381,52.6765603 L1.43659718,52.6409801 L1.60164456,52.7914274 L1.44543506,52.9286969 L1.26006055,53.0523493 L1.06341775,53.1375662 L0.875391882,53.1724875 L0.737520975,53.2346432 L0.891300064,53.5772678 L0.757848096,53.7437482 L0.803142224,53.8845318 L0.846005936,54.1127286 L0.852855292,54.3251119 L0.800711808,54.4193337 L0.694657263,54.493569 L0.692226847,54.6648814 L0.757848096,54.9479859 L0.782594156,55.1406025 L0.816619989,55.2743579 L0.782594156,55.3751686 L0.606278477,55.4674137 L0.495363099,55.4674137 L0,55.3720937 L0.183165035,55.6068795 L0.728462149,56.1263072 L0.800711808,56.2829042 L0.680958552,56.3446206 L0.511271281,56.3580181 L0.190014391,56.3342979 L0.146929733,56.3648266 L0.146929733,56.4300571 L0.185374505,56.4952876 L0.264473519,56.5242789 L0.477245448,56.5471205 L0.737520975,56.6547398 L0.993156616,56.6187203 L1.18758995,56.6929556 L1.58352691,56.9450922 L1.78724001,57 L1.84380244,56.9057782 L2.35949266,56.3342979 L2.024758,55.508924 L1.97946388,55.318943 L2.06077236,55.0290298 L2.25321717,54.9119664 L2.49073516,54.9547945 L2.70350709,55.1344528 L2.86877542,55.3395883 L3.04288163,55.4990406 L3.24858325,55.6101739 L3.49736954,55.6587124 L3.71920029,55.6273052 L4.15822191,55.4764185 L4.26206699,55.4674137 L4.36856343,55.3661637 L4.53802975,55.2743579 L4.72605562,55.2585444 L4.87077588,55.3720937 L4.891103,55.564271 L4.77554774,56.0186879 L4.80073569,56.2301927 L5.05394092,56.3960143 L5.38889652,56.265773 L5.67391811,55.9534575 L5.78925242,55.5712992 L5.73269,55.2842413 L5.52919784,54.8792414 L5.48390371,54.5656081 L5.52013902,54.3923191 L5.60586644,54.3049059 L5.70330405,54.2855783 L5.78925242,54.3251119 L5.84802432,54.4283386 L5.8343256,54.6648814 L5.87078185,54.8021508 L6.25964852,55.1662993 L6.69182078,55.0782272 L7.14896006,54.8265299 L7.61714668,54.7063917 L7.85709508,54.7661313 L8.11935913,54.8895641 L8.37057584,55.0525304 L8.56942811,55.2245016 L8.77093174,55.3597944 L9.52215143,55.6587124 L9.91565797,55.9242465 L10.0332018,55.9826684 L10.1916207,56.0250572 L10.3953338,56.0375762 L10.5287858,56.0907269 L10.5784989,56.216356 L10.6056754,56.377126 L10.6600283,56.5242789 L10.831925,56.7428119 L10.9269322,56.8280288 L11.0491159,56.9057782 L11.3951189,56.6705532 L11.5762954,56.3446206 L11.8816441,55.4674137 L12.0128866,55.2414132 L12.1441291,55.0872321 L12.2979082,54.9840055 L12.4947719,54.8963726 L13.1461236,54.8265299 L13.2932743,54.7522946 L13.5489099,54.5038917 L13.9764423,54.1812535 L14.3770191,54.0239976 L14.5533348,54.2756949 L14.6461325,54.6446753 L14.88586,55.0222213 L15.227444,55.3009332 L15.6167526,55.3720937 L16.1099062,55.2774327 L16.3202477,55.3327798 L16.1912147,55.613688 L16.1099062,55.8590161 L16.2705346,55.9916733 L16.5374386,55.9984818 L16.7705376,55.8486934 L16.8586955,55.5677851 L16.8586955,55.289732 L16.9243167,55.0817413 L17.5215364,54.9547945 L17.6618377,54.8201606 L17.6958635,54.6086558 L17.6596282,53.6888404 L17.7137602,53.3921187 L17.8631204,53.2680271 L18.1030688,53.247821 L18.3542855,53.1667771 L18.5465093,52.9939274 L18.5918035,52.6923738 L18.5283917,52.5397301 L18.3290975,52.3179026 L18.2862338,52.1685534 L18.3450057,52.0383122 L18.4738178,52.047317 L18.6008623,52.1154027 L18.6594132,52.1685534 L18.7184061,52.3053837 L18.8540675,52.3471136 L19.1165525,52.3214167 L19.5871695,52.1222113 L19.7793934,51.9010427 L19.6890261,51.7997927 L19.4581365,51.7277537 L19.2340963,51.5904842 L19.1006443,51.3295624 L19.2203976,51.235121 L19.4581365,51.2601589 L19.6616287,51.3556985 L20.2363117,51.8087976 L20.3381683,51.9730817 L20.2972931,52.5619129 L20.3178412,52.7778103 L20.4194768,52.9803103 L20.5960134,53.1333932 L21.0372445,53.3692771 L21.2182001,53.5087429 L21.4378213,53.6370075 L21.9988057,53.6785178 L22.247592,53.7437482 L22.668275,54.1902584 L22.9082234,54.3833142 L23.0167084,54.2756949 L23.1251933,54.0406896 L23.3832594,53.9427341 L23.9261261,53.8485123 L24.0527287,53.7630758 L24.1614346,53.6662184 L24.247383,53.555085 L24.3152137,53.4301149 L24.430548,53.0681627 L24.5324046,51.7297304 L24.584548,51.4398172 L24.6864046,51.129698 L24.8377533,50.8821737 L25.0257791,50.7844378 L25.1364736,50.6572713 L25.376422,50.0792021 L25.5277706,49.9127217 L25.638686,49.9127217 L25.7926861,49.9487412 L25.9237076,50.0049667 L25.9849099,50.0567997 L26.0392629,50.1804521 L26.1682959,50.1837465 L26.5865485,50.0532856 L26.8105887,49.933367 L27.2043162,49.626103 L27.4440437,49.1495033 L27.7065287,47.9068301 L28.0390539,47.4989751 L28.267734,47.4370391 L28.7449794,47.3906969 L28.9144458,47.2637501 L29.0865634,47.0175435 L29.2359236,46.8420582 L29.8309338,46.4071885 L29.9891318,46.19788 L30.0368563,45.9356404 L29.8037573,45.3859035 L29.7085292,44.5187997 L29.6272207,44.3224494 L29.5390628,44.0277044 L29.5410513,43.759974 L29.7494043,43.6433498 L31.0320015,43.5214545 L31.737927,43.5554973 L31.9325813,43.6497191 L32.3123892,44.0861262 L32.5320104,44.2211994 L32.9823004,44.1221458 L34.604272,43.1212865 L35.3124071,42.829177 L35.6970757,42.7764656 L36.6064935,42.8715659 L36.7534232,42.7918397 L36.6018536,42.324245 L36.6811735,42.0488275 L36.8395925,41.8575287 L36.9865222,41.616813 L37,41.4079437 L36.7578421,41.3200912 L36.2739683,41.2908803 Z" id="Fill-1"></path>
                </g>
            </g>
        </g>
    </g>
</svg>