<?xml version="1.0" encoding="UTF-8" standalone="no"?>
<svg width="67px" height="43px" viewBox="0 0 67 43" version="1.1" xmlns="http://www.w3.org/2000/svg" xmlns:xlink="http://www.w3.org/1999/xlink">
    <!-- Generator: Sketch 46.2 (44496) - http://www.bohemiancoding.com/sketch -->
    <title>Fill 1</title>
    <desc>Created with Sketch.</desc>
    <defs></defs>
    <g id="Page-1" stroke="none" stroke-width="1" fill="none" fill-rule="evenodd">
        <g id="The-50-States" transform="translate(-319.000000, -631.000000)" fill="#4A4A4A">
            <g id="Iowa" transform="translate(282.000000, 578.000000)">
                <g id="The-50---Main-Badge-Copy" transform="translate(37.000000, 53.000000)">
                    <g id="Page-1">
                        <path d="M66.7148895,19.715614 L66.7148895,19.497058 L66.6990822,19.3348229 L66.6287202,19.2344832 L66.4700685,19.2008445 L66.3727184,19.1360658 L66.1147888,18.8242822 L66.0078001,18.720867 L65.1285649,18.1862985 L64.9882265,18.1547742 L64.8484665,18.0805766 L64.6294769,17.7562987 L64.2917396,17.5525437 L64.1970883,17.2344169 L64.1720279,16.4445781 L64.1720279,16.5399201 L63.9892795,16.0680159 L63.6704339,15.7427768 L62.7840661,15.170533 L62.4557745,14.8860449 L62.3007855,14.6884411 L62.1421337,14.5337026 L61.8281074,14.3599342 L61.700492,14.1623304 L61.8350472,13.8578513 L61.9647831,13.5608688 L61.9900363,13.4040159 L61.903867,13.1906499 L61.6459374,12.7929433 L61.5609247,12.6351293 L61.3594775,12.0692288 L61.1979342,11.8598994 L60.9546553,11.7793585 L60.7144608,11.7418753 L60.242361,11.5608025 L58.4798423,11.2155724 L58.0287547,11.0095108 L57.7951145,10.8307446 L57.6669208,10.6508252 L57.3164605,9.95517498 L57.2769421,9.69567575 L57.2464841,9.10267193 L57.1853752,8.85143823 L57.0857118,8.6559488 L56.7901916,8.286691 L56.677998,8.05025836 L56.6251784,7.7407815 L56.6139976,7.09741561 L56.5646478,6.93940941 L56.5465272,6.7689088 L56.5401657,6.25433142 L56.4615146,5.7783906 L56.4067672,4.79517683 L56.5224307,4.30558827 L57.0699045,3.5461205 L57.2619059,3.11304511 L57.2441708,2.58789554 L56.9916389,2.26996092 L56.1018011,1.90397089 L55.9832461,1.8055534 L55.9045949,1.65811939 L55.858715,1.27002386 L55.8251726,1.12047542 L55.7735096,0.979192497 L55.630858,0.692590007 L55.5784239,0.537851573 L55.5479658,0.373502057 L55.53852,0.197811463 L55.5541345,0.0190453218 L55.5574117,0.000207599389 C54.3552825,0.000207599389 53.1529606,-0.000369065581 51.9508315,0.000399821046 C50.0485528,0.00136092933 48.1460813,0.00212981596 46.2438025,0.00212981596 C44.7370929,0.00212981596 43.2307688,0.00155315099 41.7242519,0.00251425927 C39.8050092,0.00366758921 37.8855737,0.00443647584 35.966331,0.00443647584 C34.4652118,0.00443647584 32.9638998,0.00385981087 31.4625878,0.00482091915 C29.5487427,0.00597424909 27.6347048,0.00635869241 25.7206669,0.00635869241 C24.2054753,0.00635869241 22.6904765,0.00597424909 21.1752848,0.00693535738 C19.2857291,0.00808868732 17.3963661,0.00847313063 15.5068103,0.00847313063 C13.9609679,0.00847313063 12.4149327,0.00828090897 10.8690902,0.0090497956 C9.02406491,0.0103953472 7.17903959,0.0105875689 5.33401427,0.0105875689 C3.70315917,0.0105875689 2.07249684,0.00866535229 0.441834503,0.0284641829 L0.405207734,0.0628718595 L0.429304293,0.158213801 L0.46265393,0.234333577 L0.486943262,0.323332204 L0.493111981,0.424825239 L0.469208194,0.579563673 L0.46265393,0.707198853 L0.469208194,0.824454064 L0.520485672,0.957279229 L0.569835424,1.03570566 L0.758559673,1.25022503 L0.840487973,1.36421248 L1.01668201,1.56931298 L1.05658591,1.62563393 L1.08068247,1.77518238 L1.07740534,2.50216468 L1.04501956,2.84739478 L1.01668201,2.89660352 L0.977741973,2.94465894 L0.922223501,2.97925884 L0.849933824,2.99386768 L0.700920704,2.97502996 L0.630558752,2.98540993 L0.603377834,3.05038085 L0.61166705,3.1466839 L0.697836345,3.29930789 L0.773403153,3.36101105 L0.83084935,3.41963865 L0.843572333,3.47076961 L0.813114282,3.52093947 L0.721932904,3.62473916 L0.688390494,3.68528898 L0.675667511,3.76063987 L0.694559213,3.83791298 L0.758559673,3.91018832 L0.837403614,3.94055934 L0.922223501,3.94786376 L1.0839596,3.93940601 L1.31875647,3.98131033 L1.38815456,3.98131033 L1.49495051,3.96881593 L1.56203533,3.97496702 L1.61986707,4.00629915 L1.66285533,4.05877566 L1.69022903,4.1256688 L1.72377144,4.27829279 L1.81186845,4.88936544 L1.8423265,5.03045614 L1.87278456,5.13617805 L1.88415813,5.22709889 L1.88223041,5.33897189 L1.77196455,5.90295024 L1.73206065,6.00002217 L1.69022903,6.0774875 L1.34593739,6.41233763 L1.32723846,6.47711632 L1.32723846,6.55458165 L1.37022672,6.63512253 L1.40685349,6.68625349 L1.42478133,6.72815781 L1.43422718,6.79293651 L1.41013062,6.891354 L1.34285303,7.08280677 L1.29678041,7.15296767 L1.29350328,7.16969095 L1.2884912,7.20525196 L1.29350328,7.25426848 L1.30931062,7.5295299 L1.26940672,7.69157275 L1.23065945,7.78057138 L1.03865807,7.99605186 L1.02612786,8.02834509 L1.01147716,8.12349482 L0.989501093,8.50428592 L0.965211762,8.6142367 L0.944199563,8.67593986 L0.907572793,8.70938642 L0.859379675,8.76167072 L0.837403614,8.82241276 L0.819475774,8.90718251 L0.810029923,9.09113864 L0.795379215,9.16745063 L0.770126021,9.22184936 L0.731185982,9.24376263 L0.569835424,9.31392354 L0.533015882,9.33814346 L0.493111981,9.37678002 L0.454364714,9.42906431 L0.420822304,9.48980635 L0.39556911,9.56073614 L0.374749684,9.6393548 L0.347375993,9.71143792 L0.316917942,9.77217997 L0.158651744,10.0064982 L0.0705547244,10.2031409 L0.0273736909,10.3348128 L0,10.5262655 L0.0242893313,10.640253 L0.0767234434,10.7857648 L0.240387271,11.0398818 L0.334845782,11.1550226 L0.417545172,11.2344101 L0.968296122,11.6498011 L1.05967027,11.7395686 L1.14159857,11.837025 L1.17205662,11.8912315 L1.18439406,11.9479369 L1.15104442,12.0084867 L1.03865807,12.1026753 L1.02612786,12.1203597 L0.995669812,12.1759118 L0.992585453,12.2114728 L1.00820002,12.2512627 L1.18767119,12.3579457 L1.23605708,12.3954289 L1.27885257,12.4436766 L1.31567211,12.5001897 L1.38275693,12.6299393 L1.41321498,12.7104802 L1.42786569,12.7929433 L1.41841984,12.9059696 L1.42786569,12.9928538 L1.47721544,13.0701269 L1.53485441,13.1079946 L1.60733686,13.2761885 L1.60193923,13.7669304 L2.05842444,13.8432424 L2.30478766,13.9301266 L2.48117447,14.0669884 L2.62478996,14.6413468 L2.48425883,15.2531883 L2.43298136,15.840041 L2.7799718,16.2636975 L2.79153815,16.4876358 L2.93843077,16.6110421 L3.04753999,16.793076 L3.10845609,17.0273942 L3.1273478,17.3474432 L3.07799804,17.615208 L2.99298538,17.8452973 L2.95635861,18.1005677 L3.05081713,18.4375323 L3.19655311,18.6530127 L3.54373633,18.8869465 L3.72629186,19.054756 L3.83964208,19.2919575 L3.85737714,19.5524179 L3.85429278,19.8369059 L3.89419669,20.1433072 L4.1825843,20.541975 L4.61265968,20.8014742 L4.9872166,21.1090288 L5.10577167,21.6570528 L5.06895212,21.7908391 L4.96832489,22.0597572 L4.95675855,22.2218 L4.99550581,22.3455908 L5.16032627,22.7090819 L5.2063989,22.7855861 L5.81478881,23.4343342 L5.91560882,23.7491933 L5.87898205,24.0169581 L5.7876079,24.2647318 L5.73825814,24.5251921 L5.75078835,24.7114549 L5.76351134,24.7891125 L5.73517378,24.8515845 L5.6293417,24.9938285 L5.5620641,25.1045482 L5.53488319,25.2095012 L5.52852169,25.7930862 L5.55897974,26.0994875 L5.63551042,26.3474534 L5.77816204,26.4499076 L5.77816204,26.569085 L5.71743872,26.8389642 L5.73305329,27.1255667 L5.94915123,27.2908773 L6.07927264,27.2762685 L6.28380424,27.1444044 L6.37190125,27.1121112 L6.49354068,27.1549766 L6.62462596,27.2487808 L6.70655426,27.3412394 L6.69190356,27.384297 L6.63946944,27.450998 L6.57855334,27.6049675 L6.53344459,27.7806581 L6.51146852,27.9102155 L6.57334849,28.0753339 L6.71600012,28.161257 L7.13875014,28.25756 L7.22472667,28.2510245 L7.29084762,28.2865855 L7.35793244,28.4269073 L7.25730521,28.9876179 L7.25518472,29.1425485 L7.01074922,30.012736 L7.17865405,30.1069246 L7.64439234,30.2660841 L7.82367073,30.2929952 L7.92140638,30.4164015 L7.7693089,30.6832051 L7.54684946,30.9292488 L7.43465589,30.9951809 L7.35484808,31.5724225 L7.36429393,31.7961685 L7.50482507,31.9668613 L7.967479,32.1192931 L8.09760041,32.2280906 L7.85721314,32.3474602 L7.90868339,32.5525607 L7.93393659,32.9875583 L7.99793705,33.1824711 L7.85412878,33.5649922 L7.79340546,33.6549519 L7.79340546,33.7385684 L7.83947808,33.7700927 L7.86049028,33.8094981 L7.87841811,33.8638969 L7.92140638,33.9334811 L7.97576821,34.0368964 L7.94010531,34.1087873 L7.87841811,34.1822159 L7.85721314,34.2950501 L7.90868339,34.4542096 L7.99485269,34.5566637 L8.17721544,34.7165921 L8.2475774,34.8576828 L8.24969789,34.9876247 L8.2076735,35.272305 L8.22868569,35.4529933 L8.35668662,35.7864979 L8.38714467,36.1236547 L8.32931292,36.3808472 L8.24969789,36.632081 L8.2076735,36.9500156 L8.23196283,37.1109051 L8.33259006,37.2940923 L8.35668662,37.4080798 L8.14386581,37.7356255 L7.99793705,37.8869039 L7.95167165,37.962447 L7.92140638,38.1046911 L7.92757509,38.2909539 L7.97904534,38.3976369 L8.03976867,38.4875966 L8.06714236,38.6173462 L8.1802998,38.8401311 L8.72179768,39.0723349 L8.91996778,39.2113111 L9.02059501,39.5054103 L9.01134193,39.8014316 L8.97452238,40.0251776 L9.01442629,40.0251776 L9.01751065,40.0261387 C9.14840315,40.0257543 9.27948843,40.0242165 9.41038094,40.0232554 C11.1237427,40.0105688 12.8372972,39.9986511 14.5506589,39.9848111 C16.2674905,39.9711634 17.9841294,39.9580923 19.700961,39.9452134 C21.4204914,39.9325268 23.1400219,39.9184946 24.8595523,39.9054235 C26.5815888,39.8925447 28.3032397,39.8787047 30.0250834,39.8654414 C31.7488549,39.8525626 33.4726263,39.839876 35.1963977,39.8268049 C36.9199764,39.813926 38.6437478,39.7997016 40.3673265,39.787015 C42.0922546,39.7743284 43.8167971,39.760104 45.5415324,39.7472251 C47.2250144,39.7345385 48.9088819,39.7114719 50.5923639,39.7114719 L50.6804609,39.9111902 L50.7234492,39.9813511 L50.9142939,40.1111007 L50.9576677,40.1914494 L50.9636437,40.3673322 L50.9846559,40.4970818 L51.0307285,40.5985748 L51.1034037,40.6939168 L51.2007538,40.7573499 L51.423406,40.8138631 L51.6664921,40.9780204 L51.6873115,41.0304969 L51.7335769,41.219643 L51.7765652,41.2992228 L51.821674,41.3368982 L51.873337,41.3495849 L51.9863016,41.345356 L52.0506877,41.3714981 L52.0776758,41.4330091 L52.0954109,41.5083599 L52.1258689,41.5754453 L52.2174358,41.6486818 L52.424859,41.741717 L52.5133416,41.8055346 L52.5769565,41.897801 L52.6074145,41.9917974 L52.6104989,42.0836794 L52.583318,42.1740235 L52.671415,42.3033887 L53.0461647,42.6822576 L53.1741656,42.7741396 L53.4719991,42.8912025 L53.5807228,43 L54.1902693,42.8200805 L54.2849206,42.6822576 L54.2689205,42.4856148 L54.2114743,42.1276981 L54.2147514,41.897801 L54.2783663,41.4833711 L54.2723904,41.2448241 L54.1779319,41.0241536 L53.9007251,40.7679221 L53.8612067,40.6518202 L53.8831828,40.5191873 L53.9805329,40.376751 L54.0017378,40.2835235 L54.1842934,40.0492053 L54.5983686,39.7908594 L55.0612153,39.5826834 L55.3777477,39.4957992 L55.7912447,39.4540871 L56.199344,39.3116508 L56.5592502,39.0525361 L56.8235413,38.6590583 L57.0249885,38.1152633 L57.088989,37.8190497 L57.1244591,37.2239314 L57.1707245,37.0086432 L57.2769421,36.8002749 L57.4573771,36.5336635 L58.4798423,35.3474636 L58.6625906,34.8597973 L58.7024945,34.2220058 L58.6354097,33.5944021 L58.458059,33.0419571 L58.1633099,32.625605 L57.6428243,32.2186717 L57.4961244,32.1611974 L57.286388,32.0397134 L57.1678329,31.7511886 L57.1161699,31.4101874 L57.1130855,31.1299283 L57.1982909,30.5407689 L57.3563644,29.9460351 L57.5724623,29.4070455 L57.8161267,28.9876179 L58.2238405,28.713702 L61.1832835,28.4738094 L61.6237686,28.3265676 L61.8350472,28.1328082 L62.2269536,27.6634029 L62.4430516,27.5713287 L63.4689866,27.384297 L63.9011825,27.213412 L64.0931839,27.0671313 L64.1720279,26.8789463 L64.2664864,26.7899477 L64.7204655,26.5292951 L64.8760329,26.3639845 L64.9273104,26.2198182 L64.9483226,26.0764209 L64.951407,25.7511819 L64.930202,25.6717943 L64.893768,25.6110523 L64.8760329,25.5495413 L65.0246605,25.2792777 L65.0645644,24.9813341 L65.1644205,24.6757017 L65.3014818,24.4008247 L65.4445189,24.1926487 L65.5914116,24.0448302 L66.0236074,23.6990234 L66.1903556,23.6298236 L66.3727184,23.5075707 L66.5036109,23.215586 L66.6508891,22.5983622 L66.7262631,21.7502803 L66.9057343,21.2679961 L66.96106,20.684219 L67,20.5200617 L66.7472753,19.9039913 L66.7148895,19.715614 Z" id="Fill-1"></path>
                    </g>
                </g>
            </g>
        </g>
    </g>
</svg>