<?xml version="1.0" encoding="UTF-8" standalone="no"?>
<svg width="74px" height="46px" viewBox="0 0 74 46" version="1.1" xmlns="http://www.w3.org/2000/svg" xmlns:xlink="http://www.w3.org/1999/xlink">
    <!-- Generator: Sketch 46.2 (44496) - http://www.bohemiancoding.com/sketch -->
    <title>Fill 1</title>
    <desc>Created with Sketch.</desc>
    <defs></defs>
    <g id="Page-1" stroke="none" stroke-width="1" fill="none" fill-rule="evenodd">
        <g id="The-50-States" transform="translate(-155.000000, -960.000000)" fill="#4A4A4A">
            <g id="Massachusetts" transform="translate(122.000000, 918.000000)">
                <g id="Page-1" transform="translate(33.000000, 42.000000)">
                    <path d="M73.7062665,29.0127681 L72.7861166,25.7146009 L72.2802698,24.9237844 L71.1512317,23.5941173 L70.7379209,23.2745751 L69.8537434,22.8218904 L69.5356975,22.5490738 L69.1945797,22.3893027 L68.3104022,22.5113919 L67.974246,22.3579012 L67.8102614,22.3360457 L67.6021174,22.4958168 L67.4197744,22.7533094 L67.3465892,23.0170824 L67.4034008,23.1497226 L67.5249628,23.247193 L67.6631465,23.3300931 L67.7680868,23.4192735 L68.2372169,24.1259339 L68.5351678,24.3113286 L68.8971249,24.18522 L68.8971249,23.9772161 L68.7919365,23.9875158 L68.4741387,23.9772161 L68.8971249,23.2725654 L69.615333,23.2682948 L70.2854126,23.7898117 L70.5843558,24.6557407 L70.6448888,24.9752829 L71.0234676,26.2916357 L71.0552225,26.710658 L71.0234676,28.0300253 L71.2564201,27.7237975 L71.3722761,26.8558587 L71.658567,26.6747346 L71.8597645,26.7792389 L72.0555042,27.0000546 L72.3179788,27.2007733 L72.7134275,27.2469964 L72.7134275,27.4555026 L72.3785118,27.6022107 L72.1993939,27.6506947 L72.0006772,27.6471777 L72.4013356,28.3488138 L72.5613509,29.2644829 L72.4397889,30.1834178 L72.0006772,30.893344 L71.6890815,31.0367862 L70.9520189,31.1661606 L70.3595902,31.5922168 L68.4877835,32.120014 L67.4096029,32.7578422 L66.7685494,33.0085521 L65.9322525,32.9957403 L65.5179493,32.8942505 L65.4264057,32.7151361 L65.6943383,32.5571235 L66.4569538,32.5488335 L66.7685494,32.4189567 L64.1584396,32.1750295 L63.3705194,31.864531 L62.0234139,30.9194701 L61.4337142,30.1854275 L61.4627402,29.4704771 L61.6227555,28.7256324 L61.5011935,27.6599895 L61.1836438,26.7061361 L60.7549517,26.2916357 L59.945696,26.3705164 L59.5609151,26.2999257 L59.190275,26.0045 L58.0002079,24.7431627 L58.183047,24.6278562 L58.3346274,24.5901743 L58.5003487,24.6278562 L58.7022904,24.7431627 L58.8953011,23.4129931 L59.0488662,23.2110184 L59.2446058,23.3873695 L59.4458033,23.796092 L59.6899197,24.5685701 L59.5609151,24.5901743 L59.372618,24.7004566 L59.2674297,24.7431627 L59.4758217,24.8853489 L59.6899197,24.9491568 L59.907987,24.9109725 L60.1158828,24.7431627 L60.2384372,24.5532461 L60.2064341,24.4766263 L60.0975245,24.3917165 L59.4758217,23.3810892 L59.3056349,22.9236314 L59.4088386,22.4425597 L58.9501281,21.9805802 L58.4333655,20.9958277 L58.067191,20.4386386 L57.8114146,20.2045087 L57.7119323,20.2002381 L57.7017607,20.1153283 L57.7017607,19.2790423 L57.6451972,19.0896282 L57.1222325,18.4196448 L56.7118987,18.0405653 L56.2564134,17.7448884 L55.2690322,17.4640329 L54.7688914,17.0598322 L53.8837216,16.0899013 L53.8710692,16.4237625 L54.0189283,16.8706693 L54.2620523,17.2640679 L54.5309772,17.4343899 L54.524775,17.60019 L54.3585576,17.8900891 L54.1156817,18.0023811 L53.8837216,17.6260649 L53.6525057,17.8129669 L53.3165976,18.0066517 L53.0186467,18.127736 L52.8834399,18.1154266 L52.8293573,18.219931 L52.707051,18.2066167 L52.579783,18.1237166 L52.4867509,18.0282559 L52.4867509,17.9086788 L52.707051,17.685351 L52.7683282,17.5321115 L52.5539821,17.1663463 L52.1272747,17.1831775 L51.8107173,17.0663638 L51.9221078,16.2981563 L51.4212227,16.6046354 L51.2259793,16.5940845 L50.9932749,16.385327 L50.8158936,16.0019769 L50.9148798,15.7130827 L51.1716485,15.540751 L51.4869654,15.5108567 L51.3718537,15.2581371 L51.2138231,15.0986172 L51.0116332,14.9998908 L50.7811616,14.9323146 L51.0242856,14.5665494 L51.3170267,14.7326008 L51.6653391,14.9963738 L52.0476392,14.9323146 L51.8355259,14.8134912 L51.6653391,14.6127725 L51.6397862,14.4213487 L51.8476821,14.3381974 L52.1272747,14.451243 L52.4644232,14.898401 L52.7683282,14.9323146 L52.6043435,14.6620101 L52.5482761,14.4004981 L52.4867509,13.7792499 L52.3165641,13.3260627 L52.3354186,13.0813819 L52.5482761,12.7088339 L52.9509193,12.4641531 L53.5125853,13.155992 L54.0246342,12.9899406 L53.7619115,12.8198698 L53.4867844,12.583479 L53.32925,12.2852899 L53.3972255,11.9363559 L53.5314398,11.8300931 L53.8651151,11.8642579 L54.0246342,11.832354 L54.159841,11.7321202 L54.5731518,11.336712 L54.6641992,11.2088449 L54.7755897,11.1023308 L54.9519787,11.0598759 L55.1278714,10.9872755 L55.0856969,10.8282581 L54.8842513,10.5795579 L54.7984136,10.2961903 L54.5915101,10.4469177 L54.3099328,10.740585 L54.0246342,10.8855345 L54.073011,10.6174909 L54.159841,10.4024531 L54.2853723,10.2301215 L54.463746,10.0962253 L54.3037307,9.90254052 L54.6535315,9.63876753 L55.7078958,9.1893486 L58.0977055,8.65150291 L58.2567285,8.46007908 L58.3723364,8.21112762 L58.5613777,7.95338372 L58.8042537,7.79009568 L58.920854,7.80918782 C58.9429336,7.8574206 58.9652613,7.90565337 58.9878371,7.95338372 L59.372618,8.00915287 L59.4693715,7.94961554 L59.6899197,7.77929355 L59.8663086,7.55772423 L59.9633101,7.3215846 L60.1094326,7.15980384 L60.4083759,7.16206475 L60.4083759,6.98772336 L60.2989701,6.75811525 L60.3599992,6.50439076 L60.3890252,6.2981454 L60.1836103,6.21323562 L59.907987,6.19188256 L59.7311019,6.09591944 L59.6522106,5.86832103 L59.6899197,5.45633274 L59.1282536,5.74949758 L58.8724772,5.95373323 L58.7022904,6.21323562 L58.7439688,6.96637031 L58.6457269,7.22587269 L58.2802966,6.98772336 L58.2567285,6.62999694 L57.1023856,6.5154441 L56.7317456,6.01955088 L56.9329431,6.03236271 L57.1023856,6.00020752 L57.4204315,5.82611735 L56.2502112,5.25134344 L55.8110995,4.77504478 L55.7307197,3.89002359 L55.9574701,4.10908078 L56.5742112,5.05137839 L56.7317456,4.84086242 L56.1284011,3.02384333 L55.9026431,2.67691904 L55.7974548,2.43047971 L55.7307197,2.33853598 L55.6575344,2.31517323 L55.4995038,2.34280659 L55.4454211,2.33853598 L55.0063094,2.12349819 L54.8100736,1.9835729 L54.6031701,1.72206082 L55.5416784,1.78787846 L55.7307197,1.72206082 L55.7689249,1.47310935 L55.6027075,0.468511075 L55.6213139,0.270304513 L54.8842513,0.459969855 L54.4515898,0.345417013 L53.7557093,0.0429573157 L53.5125853,0 L53.3230478,0.00904364542 L51.3170267,0.912905763 L51.0912687,1.07920835 L50.9890574,1.17919088 L50.6816792,1.56028005 L50.530595,1.71804142 L50.2616701,1.91750404 L50.0664266,1.9835729 L49.8347146,1.9835729 L49.5972965,1.93634497 L49.2450148,1.91750404 L49.0368709,1.95141771 L48.8728862,2.01522565 L48.7614958,2.09385513 L48.65209,2.19233038 L48.4625525,2.42771637 L48.377211,2.55784438 L48.2194285,2.86030408 L48.029891,3.39186946 L47.9440533,3.58329328 L47.73194,3.82621565 L47.4885679,3.9410197 L47.0844363,4.06411377 L46.872323,4.15831841 L46.7123077,4.26659094 L46.4332113,4.62833676 L46.1352604,4.93230373 L45.8281302,5.16643366 L45.6643937,5.24707283 L45.4555055,5.2809865 C43.3251934,5.20763249 41.1946333,5.14131242 39.0643213,5.06695356 C36.8419694,4.98932894 34.6193695,4.91974311 32.3970176,4.84312333 C30.2406566,4.76876447 28.0845436,4.69641531 25.9281825,4.62632706 C24.461996,4.57859671 22.9963055,4.52810302 21.530367,4.47710691 L21.4886886,4.47710691 C19.3137212,4.39496046 17.1390018,4.30879462 14.9642824,4.22664817 C12.7493731,4.14299445 10.5347119,4.05532133 8.3198026,3.97166761 C7.29471242,3.93298091 6.26987032,3.89404299 5.24502823,3.85410022 L4.90391037,4.30653371 C4.31669148,6.49986893 3.74584624,8.69772598 3.16309289,10.8923173 C2.60390769,12.9997379 2.04596291,15.1079121 1.48901047,17.2160863 C0.995071811,19.0863624 0.472355205,20.9496046 0,22.8259098 L0.554719663,23.5129757 C2.7807928,23.5998951 5.00711403,23.6863122 7.23318716,23.7729805 C9.26749004,23.8518612 11.3015448,23.9302394 13.3355996,24.0111298 L14.4517373,24.1156341 L14.477042,24.8471646 L15.3656851,24.7579842 L15.481293,24.1156341 L18.3181532,24.1598475 L18.7989433,24.3113286 L19.0678682,24.3580541 L19.2447533,24.3492617 L19.6161376,24.153316 C21.9010071,24.1950173 24.1853804,24.2435012 26.4702498,24.2877146 C28.5988253,24.3291647 30.7274007,24.3736293 32.8559762,24.4165866 C33.6476177,24.4324129 34.4400035,24.4286448 35.2318931,24.4344226 L35.2450416,24.7363799 C37.43415,24.6921665 39.6230103,24.6474507 41.8118706,24.6019813 C42.1147832,24.595701 42.4174478,24.5896719 42.7203605,24.5831404 L43.7920908,24.5984643 L43.8171474,24.9790511 C43.8531198,25.8598017 43.8895884,26.7405522 43.9263051,27.6213028 L43.9583082,27.8066975 L44.0188411,27.9534056 L44.1830738,28.0001311 L44.5740569,27.9745074 L44.7372973,28.0089235 L44.811475,28.1109157 L44.8531534,28.4299554 L44.840501,28.6301717 L44.8241273,28.8002425 L44.7693004,29.0401503 L44.7737659,29.1748001 L44.8047767,29.4554043 L44.7087675,30.4022238 L44.7127369,30.5519463 L44.7499497,30.7275438 L44.8591074,30.9405719 L45.0970216,31.2618725 L45.4331778,31.5253943 L45.6705958,31.6597929 L45.8722895,31.7286251 L46.2506202,32.043143 L46.8961392,33.1710865 L47.0618605,32.8472738 L47.1030427,32.7151361 L47.219643,32.5533553 L47.4950182,32.6189218 L47.9505035,32.8176307 L48.1462432,32.6892612 L48.2866597,32.5023592 L48.9336672,31.2005767 L49.1839857,30.8516427 L49.4990546,30.7192538 L48.9887423,31.881111 L47.859208,33.8320263 L47.5113918,34.9318341 L47.4565649,35.491284 L47.4406874,36.1580017 L47.5113918,37.3876862 L47.7445924,38.425947 L47.73194,38.629429 L47.6165802,38.929879 L47.6714071,39.2212853 L47.9505035,39.872679 L49.2678387,38.6427432 L49.7801357,38.3533466 L49.6880959,38.2174407 L49.4990546,37.7830945 L50.2616701,37.9272904 L50.5057864,37.7830945 L50.4995843,37.2135961 L50.7685092,37.5580082 L50.8838691,37.9787889 L50.7613147,38.3448054 L50.3485001,38.5274368 L50.9570544,38.8065337 L51.4695994,38.6638451 L52.3902455,37.9559286 L52.3592348,38.0280266 L52.3354186,38.1465988 L52.6209653,38.1362991 L52.8650816,37.9916008 L53.335204,37.5931779 L53.2014858,36.7704574 L53.4195532,36.266023 L53.7008824,35.8042946 L53.7435531,35.1021561 L54.2436939,35.4407903 L54.3846066,35.5787059 L54.4704443,35.7789222 L54.6153263,36.2984294 L54.7430905,36.4534274 L54.9815009,36.4298134 L55.0063094,36.1110249 L54.8842513,35.3955721 L55.0794947,35.4136594 L55.4811455,35.2450959 L55.8175497,35.0345799 L55.7974548,34.9318341 L55.7974548,34.7979379 L55.9646645,34.5786295 L56.2080366,34.5341649 L56.4454547,34.9318341 L56.8232892,34.4643278 L56.9686674,33.9958168 L57.1703611,33.7064201 L57.7193748,33.7704793 L57.5293412,33.3848683 L57.5008113,33.0492485 L57.5739966,32.140111 L57.7697362,32.0901197 L58.1952032,32.3237472 L58.8469244,32.8176307 L58.9878371,32.8176307 L59.0545722,32.477238 L59.219053,32.2898335 L59.4147926,32.3109354 L59.5609151,32.6101293 L59.4693715,32.6490672 L59.2674297,32.8176307 L59.3889917,33.1233562 L59.224759,33.3682883 L58.9756809,33.5999061 L58.8469244,33.8661912 L58.8724772,34.2533094 L58.9756809,34.7062454 L58.9620362,36.8322557 L58.7737391,37.6002119 L58.2802966,38.1465988 L58.9399566,38.0918345 L60.1287833,37.5278627 L60.7549517,37.3876862 L61.4381797,37.357792 L62.0234139,37.2321858 L62.5307492,36.9490694 L62.9567124,36.4534274 L63.5915637,35.3302569 L63.8041732,35.1021561 L64.0532513,35.1747564 L64.3541792,35.6847175 L64.5727428,35.5787059 L64.8840903,35.3073966 L65.169637,35.2400717 L65.8543536,35.3111648 L66.1818267,35.2513762 L66.7434928,34.987352 L67.0476459,34.9318341 L66.8412386,35.6339727 L66.8045219,35.9231181 L66.9866168,35.7708834 L67.3108648,35.2257525 L67.4867576,35.0149854 L67.6951496,34.9318341 L67.9514221,34.8745576 L68.6155476,34.5326576 L69.615333,34.5326576 L72.8893202,33.9377867 L73.7005605,34.1533269 L73.8342787,32.2853117 L73.7992987,30.8340578 L73.6392834,30.4582441 L73.3346341,30.4213159 L72.8602942,30.7192538 L72.9396816,30.3429377 L73.0173325,29.5445847 L73.1282268,29.1748001 L73.4013692,29.4961007 L73.7005605,29.7493228 L73.7930965,29.7407816 L73.8662818,29.7169164 L73.933513,29.664413 L74,29.5749814 L73.7062665,29.0127681 Z M73.2371364,34.910481 L73.1639511,34.7876382 L73.0007107,34.7238302 L72.8344933,35.4490803 L72.0006772,37.5931779 L72.3951335,37.5065097 L72.9334795,35.876895 L73.2798072,35.3111648 L73.2671548,35.0850736 L73.2371364,34.910481 Z M72.3281504,43.3720674 L72.0006772,42.1659968 L71.9076451,41.9466884 L71.7922852,41.809024 L71.6387201,41.7572742 L71.4323128,41.7874197 L71.6707232,42.536535 L71.5233603,43.1449714 L70.8721353,44.2513107 L71.195391,44.0978199 L71.7734307,43.4637599 L72.1517614,43.3215737 L72.0235011,43.7066822 L71.7922852,44.0721963 L71.4943343,44.3485299 L70.9686406,44.5148325 L70.7500771,44.7655424 L70.5843558,44.8366355 L70.4201231,44.8258334 L70.2305856,44.6894251 L70.0358383,44.6301389 L69.406941,44.606525 L67.6281664,44.8366355 L67.6281664,45.0084648 L69.8658996,45.797774 L71.0170173,46 L72.1517614,45.9552842 L73.1455928,45.4043755 L72.9563034,44.4987549 L72.3281504,43.3720674 Z M61.0970619,41.3791996 L60.8053131,41.2638931 L60.535892,41.0126808 L60.9444891,40.7682511 L61.1590833,40.5529621 L61.1712395,40.2854209 L60.9563973,39.872679 L60.6579501,39.7274783 L60.4691569,39.9533182 L60.2796194,40.2766285 L59.9757144,40.4429311 L60.1937818,39.7912862 L59.9394939,39.7274783 L58.8114482,40.2128206 L58.1952032,40.8644655 L57.9262783,41.0126808 L57.6645479,41.2171676 L57.1088359,42.2039298 L56.8597578,42.5473371 L56.481179,42.715147 L55.1536723,42.7196688 L55.1536723,42.9251606 L55.4032466,43.1150771 L55.7974548,43.6463913 L56.012297,43.8724824 L56.3906277,44.1066123 L56.6029891,44.0978199 L56.9996782,43.7024116 L57.4871666,43.3720674 L58.0612369,43.1316571 L58.6829397,42.9766591 L61.5979469,42.9196339 L61.9566789,42.8211586 L61.754489,41.4085915 L61.0970619,41.3791996 Z M63.03089,40.959675 L62.7197905,41.2196798 L62.3833863,41.7102975 L62.1037937,41.9620123 L62.2196497,42.2745205 L62.4987462,42.6292324 L62.8287002,42.8897396 L63.0849727,42.9251606 L63.2129849,42.6890209 L63.2494535,42.2853226 L63.2318395,41.4085915 L63.03089,40.959675 Z" id="Fill-1"></path>
                </g>
            </g>
        </g>
    </g>
</svg>