<?xml version="1.0" encoding="UTF-8" standalone="no"?>
<svg width="69px" height="61px" viewBox="0 0 69 61" version="1.1" xmlns="http://www.w3.org/2000/svg" xmlns:xlink="http://www.w3.org/1999/xlink">
    <!-- Generator: Sketch 46.2 (44496) - http://www.bohemiancoding.com/sketch -->
    <title>Fill 1</title>
    <desc>Created with Sketch.</desc>
    <defs></defs>
    <g id="Page-1" stroke="none" stroke-width="1" fill="none" fill-rule="evenodd">
        <g id="The-50-States" transform="translate(-798.000000, -955.000000)" fill="#4A4A4A">
            <g id="Missouri" transform="translate(762.000000, 918.000000)">
                <g id="Page-1" transform="translate(36.000000, 37.000000)">
                    <path d="M68.9519068,48.2566887 L68.7457271,48.1658917 L68.6476997,48.189338 L68.5252806,48.2419773 L68.3968785,48.2759975 L68.2804422,48.2445058 L68.1860966,48.1318715 L68.145597,47.99717 L68.1214354,47.8544232 L68.0696603,47.7148946 L67.9891214,47.6263962 L67.7758083,47.4956024 L67.6805423,47.4073339 L67.6467159,47.2937801 L67.6018442,46.9843804 L67.5339614,46.9202478 L67.2898134,46.9184089 L67.0992813,46.9476019 L67.0284071,47.0744879 L67.142082,47.364119 L67.2341265,47.4751443 L67.3289323,47.5505404 L67.4023378,47.6578878 L67.4327125,47.8544232 L67.3807073,47.9872858 L67.2589785,47.9872858 L66.8385653,47.8100591 L66.3187441,47.3820486 L66.1496123,47.1859729 L66.2202565,46.8129004 L66.0706842,46.4441953 L65.6571743,45.8624045 L65.4187791,45.4376121 L65.3352487,45.2252159 L65.3030331,45.008912 L65.3205216,44.8415696 L65.1550716,44.7031902 L65.0660186,44.6542288 L64.8616798,44.578373 L64.8053026,44.5261934 L64.8085241,44.0243959 L65.1127312,43.6579895 L65.4767671,43.2998583 L65.6571743,42.8341498 L65.5524737,42.2895972 L65.3074052,41.8406689 L65.023448,41.4253011 L64.8053026,40.9726949 L64.7698654,40.7088088 L64.7977089,40.4713572 L64.8494839,40.2509157 L64.8768672,40.0304742 L64.8363676,39.7987693 L64.7641127,39.559019 L64.7298261,39.3452437 L64.8053026,39.186866 L64.533081,38.9422886 L63.5263444,38.4733619 L63.2971536,38.2009707 L63.00008,37.4865472 L62.745577,37.1222096 L62.4922246,36.9452128 L61.8520552,36.6696034 L61.6072168,36.5034103 L61.0167514,35.8839214 L60.6637608,35.6122198 C60.5079755,35.5667064 60.3521902,35.5207332 60.1954845,35.4770586 L59.8098181,35.4830351 L59.6498908,35.3818941 L59.081286,34.8899809 L58.7133381,34.7741284 L58.4323723,34.5015073 L58.1820113,34.1741781 L57.9114005,33.899948 L57.5264244,33.6691625 L57.3453269,33.5133134 L57.2696203,33.3153988 L57.2015074,33.1986268 L56.9106468,32.8961232 L56.842764,32.7736046 L56.271628,32.2791628 L56.1853362,32.1561845 L56.1146921,32.0210233 L56.0509513,31.8621859 L55.9959547,31.6569156 L55.9006887,31.0521381 L55.9434894,30.563443 L56.0990445,30.146696 L56.5981558,29.3265341 L57.1281019,27.8592994 L57.6495339,27.0156912 L57.8264895,26.6017025 L57.835924,26.05715 L57.7829984,25.5250102 L57.8103817,25.1988303 L57.9452269,25.0547043 L58.0952594,24.9257495 L58.2917744,24.6292224 L58.4657384,24.2968361 L58.5421354,24.0609936 L58.3739241,23.7088389 L57.9613346,23.3661087 L56.93803,22.7861568 L56.4117657,22.6309972 L56.1699188,22.6050224 L55.9770856,22.5560609 L55.6224842,22.3225171 L55.4229778,22.2422938 L54.8967134,22.3558476 L54.2450384,23.2169257 L53.7942506,23.4277128 L53.3655534,23.2645079 L53.0450084,22.8587944 L52.5762719,21.8708304 L52.6248253,21.7071658 L52.6130897,21.485575 L52.5546414,21.2660529 L52.4747928,21.1051467 L52.4108219,20.9288395 L52.4536226,20.7649451 L52.5325507,20.6111647 L52.5762719,20.4654297 L52.5353121,20.3199245 L52.3493822,20.0309829 L52.2939254,19.8680079 L52.2877124,19.6875631 L52.3070417,19.3197775 L52.2939254,19.1402522 L52.2235114,18.8802737 L52.1043138,18.5917919 L51.8387654,18.0987293 L51.5955378,17.7769169 L51.3635857,17.5504989 L48.9667473,15.7853579 L48.810962,15.6258309 L48.7465308,15.4440069 L48.6968268,15.157364 L48.5744076,14.9074997 L48.4121792,14.7068266 L45.811002,12.3256448 L45.6045922,11.9925689 L45.47596,11.539503 L45.4580114,11.2236672 L45.4338497,11.0820697 L45.3696487,10.9450696 L45.0850011,10.6752069 L45.0175785,10.4972906 L44.8802021,10.3379935 L44.8332594,10.2469665 L44.8242851,10.0913472 L44.9105768,9.69712705 L44.9165597,9.36841867 L44.9011422,9.24635983 L44.867546,9.1410812 L44.8212936,9.04430761 L44.7596238,8.94937296 L44.5826683,8.73191972 L44.4418402,8.51538595 L44.3861533,8.31057534 L44.1116306,6.08087515 L44.1201447,5.45495003 L44.1914792,4.90028338 L44.350256,4.20953605 L44.5888813,3.60268981 L44.9105768,3.31328852 L44.9124177,3.31328852 L44.803345,3.20364243 L44.50351,3.08572118 L44.3744176,2.99285531 L43.9984159,2.61150762 L43.9093629,2.48094373 L43.9372063,2.39037653 L43.9339848,2.2972808 L43.90338,2.20280587 L43.8387187,2.10971014 L43.7498958,2.0451178 L43.5411849,1.95156234 L43.4496006,1.87846495 L43.4189958,1.81088434 L43.4010472,1.73502856 L43.3736639,1.67273488 L43.3087726,1.64607042 L43.1950976,1.65043788 L43.1435527,1.63756538 L43.0979907,1.60009722 L43.0549599,1.51987399 L43.0091678,1.32885534 L42.9875373,1.27644589 L42.742699,1.11048264 L42.5188008,1.05370574 L42.4203132,0.989802994 L42.3480582,0.893948872 L42.3018059,0.791428636 L42.2806356,0.660864748 L42.2741925,0.483867929 L42.2311617,0.402955097 L42.0397092,0.271701611 L41.9959881,0.201362615 L41.9076254,0 C40.0630538,0 38.2182522,0.0259748579 36.3739107,0.0395369519 C34.3832186,0.0544782419 32.3925264,0.0703389958 30.4018342,0.0857400178 C28.4113722,0.10114104 26.42068,0.116542062 24.4302179,0.131713218 C22.286962,0.148033704 20.1437061,0.163894458 18.0002201,0.180904542 C16.1328676,0.195615966 14.265515,0.210327389 12.3981624,0.224119349 C10.2362675,0.240439835 8.07460272,0.256530455 5.91270781,0.273310673 C3.974481,0.288711695 2.03625419,0.310778831 0.0980273799,0.317674811 L0.095035934,0.316065749 L0.0545363592,0.316065749 L0,0.66936979 L0.0480932451,1.01853624 L0.183628754,1.14450281 L0.38842774,1.18426963 L0.636717747,1.27644589 L0.795264378,1.43137558 L0.807920495,1.57894955 L0.767881143,1.73778696 L0.777085591,1.92535761 L0.872121525,2.1255709 L1.05552017,2.35428757 L1.13306765,2.57403946 L1.13559887,2.65564189 L1.11995131,2.85401625 L1.13306765,2.95216903 L1.17448767,3.05882685 L1.34384953,3.31328852 L1.46580847,3.72244999 L1.49365193,3.77508931 L1.43865535,3.87209276 L1.34384953,3.96380929 L1.20877424,4.06173221 L1.27619683,4.24056796 L1.44486835,4.26585322 L1.65634056,4.23459144 L1.84618232,4.24631461 L2.02935085,4.37366037 L2.13635257,4.54008335 L2.22264428,4.72328656 L2.34805489,4.90028338 L2.50130897,4.98050661 L2.87754081,5.00900999 L3.05472645,5.07751006 L3.16771106,5.22738269 L3.1562055,5.39357581 L2.98431242,5.73055937 L3.27540311,6.08685166 L3.4187624,6.31694753 L3.4802021,6.51486216 L3.79545447,6.83759402 L3.82905071,6.90034744 L3.79016191,7.04401369 L3.68546131,7.29893508 L3.63943906,7.59707128 L3.66498141,7.83268393 L3.78026713,7.98692402 L4.26350069,8.07978988 L4.44505844,8.18001146 C4.73614914,8.44619628 5.02539894,8.71399017 5.31464875,8.98178406 L5.44811325,9.19050239 L5.56523987,9.22498229 L5.69663337,9.24635983 L5.78913808,9.28865517 L5.85587034,9.40289857 L5.89567958,9.51530305 L5.9453836,9.61529476 L6.03719798,9.69712705 L6.12602091,9.72494084 L6.34278568,9.74930663 L6.46244351,9.79757849 L6.57542812,9.88285878 L6.85156159,10.2060504 L7.06901669,10.3127082 L7.31362492,10.2488055 L7.52785846,10.1062885 L7.83965917,9.83228826 L7.99636491,9.74585864 L8.17378066,9.70724116 L8.41815878,9.69712705 L8.55277384,9.76700632 L8.62410832,9.92699305 L8.61743509,10.1124949 L8.52884227,10.2469665 L8.68186624,10.4352268 L9.13748645,10.7112958 L9.23528372,10.8485258 L9.22400827,10.9864454 L9.17476447,11.249642 L9.16486969,11.4025029 L9.20168748,11.567087 L9.27900485,11.661332 L9.33676277,11.7546576 L9.31260109,11.9063692 L9.14692101,12.0746311 L8.9170399,12.0557821 L8.41815878,11.9063692 L8.3325574,11.9518826 L8.27779093,12.0624482 L8.24695603,12.1971497 L8.21681146,12.525858 L8.15537176,12.609989 L8.06700905,12.6534337 L7.95287389,12.7302089 L7.62312451,13.0632847 L7.45698421,13.291082 L7.38657018,13.520948 L7.39922629,13.810809 L7.38956162,13.9588427 L7.35251371,14.069868 L7.23676777,14.1466432 L6.96155475,14.1636533 L6.88446749,14.2029604 L6.86951026,14.4753516 L6.98870788,14.7452143 L7.17555819,14.9516339 L7.35251371,15.0330065 L7.41717497,15.1343774 L7.64659585,15.6102 L7.7480749,15.7635206 L7.83068483,15.8159301 L8.02029648,15.9037389 L8.45497657,16.2181956 L8.49478581,16.2986487 L8.55047273,16.5105851 L8.59971653,16.5834527 L9.05510663,16.6829846 L8.96352237,16.925953 L9.04245052,17.4576331 L9.26934018,17.9886235 L9.62486202,18.231362 L9.72542062,18.3593974 L9.73761651,18.6400638 L9.78087742,18.9216496 L9.9792333,19.0499148 L10.1881743,19.1140475 L10.6472462,19.4199991 L10.8771273,19.5130948 L11.1985927,19.4999925 L11.3511564,19.5170025 L11.4551667,19.5087274 L11.5071718,19.5130948 L11.5598673,19.5526318 L11.5837988,19.6696336 L11.6176252,19.6939994 L11.8624635,19.7146873 L12.0343566,19.780429 L12.0555268,19.8921439 L11.9087159,20.0502917 L11.9204516,20.0714393 L11.9204516,20.1102867 L11.9335679,20.1567196 L11.9786697,20.1741894 L11.9786697,29.9890079 C11.9786697,32.1069932 11.9754481,34.2252084 11.9754481,36.3434236 L11.9754481,48.2077273 C11.9754481,50.2824978 11.9722266,52.3572683 11.9722266,54.4320388 L58.1820113,54.4320388 L58.1932868,54.4612318 L58.2158377,54.4885858 L58.2673826,54.5931749 L58.3704724,54.8809671 L58.3987761,54.9232624 L58.4413467,54.9637189 L58.4940421,54.9949806 L58.5299395,55.0306099 L58.5488086,55.0772727 L58.5573227,55.1351989 L58.5699788,55.3402394 L58.5798736,55.409429 L58.5941405,55.4776992 L58.6215237,55.5324073 L58.6652449,55.5809091 L59.0081106,55.7923858 L59.0575845,55.8319227 L59.1029164,55.8772063 L59.1429558,55.9266275 L59.1731003,55.9813356 L59.1947308,56.0401813 L59.2103783,56.1089113 L59.2103783,56.1838476 L59.2041653,56.2638409 L59.1367428,56.5658849 L59.1298394,56.6454185 L59.1802338,57.0240078 L59.1767821,57.0918183 L59.1645862,57.1554912 L59.1397342,57.2168654 L59.1155725,57.2727228 L59.0755332,57.3278907 L59.0325024,57.3697263 L58.9839489,57.4094931 L58.9289523,57.4373069 L58.6652449,57.5195989 L58.6166914,57.5536191 L58.5798736,57.5995923 L58.5573227,57.6577484 L58.5182038,57.9115204 L58.4940421,57.975653 L58.4634373,58.0377169 L58.4266195,58.0862186 L58.3771456,58.1257555 L58.053149,58.3087289 L57.8161345,58.4061921 L57.6845108,58.4438901 L57.6297444,58.471474 L57.5264244,58.541813 L57.4836238,58.5870966 L57.4463457,58.6424943 L57.4224142,58.7038685 L57.4058462,58.7677713 L57.3915793,58.8813251 L57.3752414,58.9507446 L57.3515399,59.0180954 L57.3246169,59.07878 L57.2841173,59.131879 L57.2392456,59.1677381 L57.1837888,59.1994596 L57.1251105,59.2233657 L56.9168598,59.2723271 L56.8620933,59.2964631 L56.8126194,59.3330118 L56.7735005,59.3796746 L56.7030865,59.4842636 L56.5802071,59.620804 L56.4090044,59.9120442 L56.3105167,60.0409991 L55.9434894,60.7524343 L55.909663,60.874723 L55.9124243,60.9303506 L55.9285321,60.9823003 L55.9929633,61 C56.2256057,60.9944832 56.4587084,60.9891963 56.6915809,60.9834496 C58.677901,60.9372466 60.664221,60.8751828 62.650311,60.8158773 L62.7096797,60.8158773 L62.7276284,60.8202448 L62.8100082,60.3816605 L63.1280219,59.8527388 L63.171743,59.6412621 L63.2414667,59.519663 L63.4099081,59.3957652 L63.6089543,59.2907164 L63.7739441,59.2511795 L63.8655283,59.0180954 L63.5933068,58.4983683 L63.0311451,57.6736091 L63.2166147,57.6090168 L64.1817012,57.5720084 L64.3101032,57.5384479 L64.4143436,57.4579948 L64.454383,57.315248 L64.3496823,57.2336456 L64.0921879,57.1465264 L63.8942922,56.9610245 L63.7410382,56.6980578 L63.7164163,56.4622153 L63.9150023,56.3599249 L64.1846926,56.3647521 L64.4293008,56.3311917 L64.6193727,56.2040758 L64.7298261,55.9238691 L64.6957696,55.6335484 L64.4661186,55.104167 L64.4849877,54.9048732 L64.5542512,54.6669618 L64.4693402,54.4805405 L64.4269997,54.4272116 L64.3321939,54.318485 L64.2399193,54.1559697 L64.3255207,53.7065817 L64.6656251,53.5596973 L65.0202264,53.7311774 L65.1550716,54.2440084 C65.1290691,54.3361847 65.1026063,54.4285908 65.0759134,54.5205372 L64.977886,54.7772975 L64.9960648,54.9662474 L65.265525,55.0400344 L65.3992196,54.9694655 L65.5720331,54.8046516 L65.803525,54.5159399 C65.8322889,54.443762 65.8596722,54.3706646 65.8872855,54.2977971 L66.0513548,53.6971572 L66.0801187,53.4983231 L66.2301512,53.0179032 L66.3311701,52.795163 L66.3956012,52.7211462 L66.5118074,52.6570136 L66.7596372,52.8841212 L67.0102283,53.1781198 L67.28268,53.4353398 L67.607597,53.5445262 L67.8858015,53.3967223 L68.1037168,53.0489351 L68.3614414,52.3094562 L68.7735706,51.4155073 L68.8534192,51.0762251 L68.8373114,50.7893523 L68.6817562,50.3367462 L68.6421771,50.0668835 L68.685438,49.9147122 L68.776562,49.7800107 L68.8782712,49.6664569 L68.9325774,49.5816363 L68.948225,49.4558996 L68.9325774,49.0460486 L69,48.486095 L68.9519068,48.2566887 Z" id="Fill-1"></path>
                </g>
            </g>
        </g>
    </g>
</svg>