<?xml version="1.0" encoding="UTF-8" standalone="no"?>
<svg width="39px" height="62px" viewBox="0 0 39 62" version="1.1" xmlns="http://www.w3.org/2000/svg" xmlns:xlink="http://www.w3.org/1999/xlink">
    <!-- Generator: Sketch 46.2 (44496) - http://www.bohemiancoding.com/sketch -->
    <title>Fill 1</title>
    <desc>Created with Sketch.</desc>
    <defs></defs>
    <g id="Page-1" stroke="none" stroke-width="1" fill="none" fill-rule="evenodd">
        <g id="The-50-States" transform="translate(-653.000000, -952.000000)" fill="#4A4A4A">
            <g id="Mississippi" transform="translate(602.000000, 918.000000)">
                <g id="Page-1" transform="translate(51.000000, 34.000000)">
                    <path d="M33.1769755,61.37359 L32.938056,61.2613048 L32.6955871,61.1127701 L32.3406464,61.0420392 L31.9728391,61.0519857 L31.6995347,61.13841 L31.6995347,61.2159929 L33.8861914,61.5605847 L33.9931173,61.5152727 L34.0860674,61.4628877 L33.8506974,61.38 L33.1769755,61.37359 Z M38.815209,1.18849911 L38.4604901,0.943814617 L38.1965029,0.561426025 L38.0063878,0.0287344029 C36.0080715,0.0287344029 34.0095333,0.0221033868 32.011217,0.0221033868 C30.0708004,0.0221033868 28.1303838,0.016798574 26.1897454,0.0123778966 C24.2812735,0.00773618538 22.3728015,0.0101675579 20.4643296,0.0055258467 C18.5713863,0.00110516934 16.6782212,0 14.7852779,0 L14.8176663,0.0574688057 L15.1535289,0.458424242 L15.1399968,1.01786096 L14.7719676,1.46877005 L14.2597438,1.79656328 L13.0400787,2.27488057 L12.9145184,2.44551872 L12.958886,2.6738467 L13.0846682,2.93400357 L13.1403495,3.17890909 L12.982179,3.35153654 L12.8823519,3.46691622 L12.6500876,3.53786809 L12.4040693,3.52438503 L12.1942106,3.39375401 L12.059555,3.43597148 L11.900719,3.69944385 L11.7139314,4.1625098 L11.6205376,4.72084135 L11.8139803,5.62663815 L11.7003993,6.73888057 L11.7039487,7.19288414 L11.6169882,7.57858824 L11.2658188,7.96163993 L10.8658449,8.18002139 L10.6167209,8.27285561 L10.1586255,8.32501961 L10.0363928,8.31396791 L9.94632659,8.2662246 L9.8107836,8.16344385 L9.76197925,8.23085918 L9.75842984,8.3491123 L9.79414575,8.53654902 L9.89064526,8.78344385 L9.91083252,8.94745098 L9.87178904,9.05376827 L9.72071739,9.29756863 L9.68500148,9.43040998 L9.63619713,9.48809982 L9.52949307,9.4657754 L9.35268822,9.38509804 L9.20716252,9.38841355 L9.13595254,9.41051693 L9.08803554,9.48809982 L8.66565607,10.4493761 L8.52678551,10.5581248 L8.35219904,10.6222246 L7.81069259,10.9566488 L7.66516689,11.0952371 L7.6751496,11.4641426 L8.4653364,11.8505098 L8.49129144,12.3546881 L8.35219904,12.5872157 L8.17539419,12.6891123 L7.95865851,12.7156364 L7.7008828,12.7112157 L7.45286797,12.7534332 L6.84259175,13.0679643 L6.25583036,13.1941747 L6.16554231,13.2870089 L6.20680417,13.4667094 L6.31661396,13.5575544 L6.46258333,13.6152442 L6.61365498,13.7014474 L6.79156902,14.0581961 L6.63251121,14.377148 L6.42686742,14.6695758 L6.49474984,15.1160642 L6.61698255,15.3253832 L6.68486496,15.5722781 L6.54577256,15.8492335 L6.43574094,15.8969768 L6.14224932,15.9100178 L6.0164672,15.9356578 L5.90998498,16.0165561 L5.678608,16.2446631 L5.60761985,16.2932906 L5.50734909,16.3865668 L5.08164206,16.9612549 L4.88176606,17.1064742 L4.71361289,17.1948877 L4.68144638,17.3146881 L4.89729471,17.536164 L5.34962231,17.7576399 L5.52287775,17.9326988 L5.56857637,18.2562923 L5.47185502,18.5297112 L5.28395827,18.6581319 L5.04282041,18.7003494 L4.7814953,18.7003494 L4.61045824,18.8000357 L4.65793156,19.0115651 L4.82275716,19.2272941 L5.00044936,19.3238859 L5.20720234,19.3970481 L5.42305067,19.5743173 L5.790858,19.950959 L5.80416828,20.185697 L5.8130418,20.564328 L5.77532934,20.9473797 L5.71632045,21.1947166 L5.31057883,21.7251979 L5.19078633,22.0043636 L5.34629474,22.254795 L5.46187231,22.2768984 L5.80416828,22.4031087 L5.94880663,22.522467 L6.00759368,22.6800642 L6.0164672,23.3259251 L6.13892175,23.7567201 L6.16554231,23.9815116 L6.09765989,24.2096185 L5.95546176,24.2960428 L5.72630316,24.3603636 L5.51400423,24.4498824 L5.41950126,24.6119002 C5.39421174,25.2031658 5.36781302,25.7944314 5.34629474,26.385918 L5.40419444,26.510139 L5.55193852,26.607836 L5.73628586,26.6686203 L5.9077666,26.6907237 L6.04552797,26.745098 L6.18462037,26.8735187 L6.39470092,27.1372121 L6.28777502,27.3631087 L6.1333758,27.5914367 L5.96899388,27.7706952 L5.82990148,27.8449626 L5.72297559,27.9736043 L5.54639257,28.5938253 L5.46187231,29.1041925 L5.49403882,29.2949447 L5.62980364,29.4034724 L6.16886988,29.4943173 L6.36564014,29.6481569 L6.41333531,29.8762638 L6.23874883,30.1454831 L6.03665446,30.2009626 L5.73628586,30.2142246 L5.46187231,30.2685989 L5.34629474,30.4511729 L5.36515096,30.7314439 L5.42305067,30.9763494 L5.51644445,31.1878788 L5.64311392,31.3682424 L5.75203636,31.4615187 L6.0164672,31.6277362 L6.09765989,31.7274225 L6.12006553,31.8790517 L6.08767719,32.0331123 L6.03998203,32.1781105 L6.0164672,32.2999002 L5.99428341,32.827508 L6.03332689,33.036385 L6.16554231,33.2194011 L6.53002207,33.4373405 L6.86477555,33.5794652 L7.11389957,33.8172977 L7.21062092,34.328107 L7.28493663,34.4211622 L7.46529089,34.4921141 L7.8464085,34.5495829 L8.0942015,34.6426381 L8.16873905,34.8422317 L8.12991741,35.0256898 L8.04317877,35.0679073 L8.04317877,35.1543316 L7.54626175,35.6461319 L7.20396578,36.46241 L6.82928147,37.1082709 L6.23874883,37.0861676 L6.13892175,37.1858538 L6.09765989,37.31759 L6.09433232,37.4457897 L6.09765989,37.5335401 L6.43019499,37.9123922 L6.42686742,38.3774474 L6.1812928,38.8159786 L5.790858,39.1017754 L5.4518896,39.2085348 L5.34629474,39.2779394 L5.25844691,39.3897825 L5.15152101,39.6534759 L5.08164206,39.7597932 L4.5780699,40.3426595 L4.36798935,40.5066667 L4.15879616,40.5838075 L3.69759505,40.6857041 L3.5096983,40.8052834 L3.34198881,41.0267594 L3.23972151,41.2482353 L3.10085095,41.7247843 L2.76498828,42.3319643 L2.71928966,42.5534403 L2.70376101,42.8080713 L2.49700803,43.9068307 L2.48702532,44.209426 L2.43245319,44.3480143 L2.4202521,44.4342175 L1.65557666,44.9834866 L1.40090669,45.3568128 L1.45215126,45.9093975 L1.49762804,46.0062103 L1.60987805,46.1512086 L1.74897044,46.4171123 L1.76782667,46.4909376 L1.74897044,46.7426952 L1.72678665,46.8543173 L1.62318832,46.9705811 L1.47433505,47.7903957 L1.40312507,47.9851266 L1.26869127,48.1270303 L1.03842347,48.1780891 L0.522872062,48.1559857 L0.264874519,48.1780891 L0.100270756,48.2651765 L0.0847420992,48.4680856 L0.196992105,48.7249269 L0.368251007,48.9444135 L0.519544493,49.0374688 L0.575003982,49.1017897 L0.554816728,49.2421462 L0.507121567,49.3807344 L0.480501012,49.4295829 L0.45144024,49.567287 L0.335862665,49.7861105 L0.325879957,49.9079002 L0.45144024,50.2615544 L0.787302906,50.6669305 L0.854963482,50.9914082 L0,51.6982745 L18.2612569,51.6982745 C19.1747856,51.6982745 20.0883143,51.701148 21.001843,51.701148 L21.0375589,51.8885847 L20.9630213,52.3284421 L20.8208232,52.7813405 L20.5661532,53.2441854 L20.3951162,53.9775758 L20.1238083,54.3022745 L20.027087,54.5180036 L20.0947476,54.7551729 L19.8893256,55.2078503 L19.8079111,55.4817112 L19.7923824,55.7065027 L19.8981991,55.8961497 L20.0659086,56.0886702 L20.1537565,56.3079358 L20.0146641,56.5687558 L20.3015005,57.1752727 L20.4696537,57.3492264 L20.8172738,57.4842781 L20.9954097,57.6096043 L21.1431537,57.9981818 L21.4499556,58.2134688 L21.6311972,58.547672 L21.6635856,58.6382959 L21.6689097,58.7448342 L21.653381,58.9663102 L21.6635856,59.0730695 L21.7365703,59.272 L22.050471,59.7593797 L22.10105,59.9722353 L22.0824156,60.485918 L22.2924962,60.8526132 L22.611721,61.6178324 L22.8628416,61.9071658 L22.9506894,61.7785241 L23.0831267,61.7301176 L23.2175605,61.7721141 L23.2918762,61.8583173 L23.3176094,61.8229519 L23.3921469,61.8229519 L23.5088337,61.9007558 L23.6729938,61.9135758 L23.8276148,61.8527914 L23.9210086,61.7301176 L24.0144024,61.8074795 L24.0467907,61.8364349 L23.9891129,61.9071658 L24.0636504,62 L24.202521,61.8972193 L24.2433392,61.804385 L24.2535437,61.6978467 L24.2857102,61.5661105 L24.4691702,61.3413191 L24.514647,61.2091408 L24.4370037,61.0455758 L25.4275102,60.479508 L25.5342142,60.3643494 L25.5599474,60.2158146 L25.5566199,59.9722353 L25.5020477,59.9333333 L25.2438284,59.9213975 L25.1506564,59.8860321 L25.1595299,59.7792727 L25.2697834,59.6546096 L25.4084321,59.5478503 L25.520904,59.5025383 L25.7564959,59.5535971 L26.1089964,59.8217112 L26.3090942,59.9300178 L26.1444905,60.0142317 L26.0497656,60.1293904 L26.0768299,60.2290766 L26.266945,60.2743886 L26.4111397,60.2547166 L27.0928477,60.0495971 L27.7834293,59.859066 L28.560084,59.6022246 L28.7435439,59.5803422 L28.8892915,59.5445348 L29.2315874,59.3738966 L29.3797752,59.3230588 L30.050835,59.3484777 L30.3920218,59.3199643 L30.5734852,59.1592727 L29.2315874,58.9797932 L29.2315874,58.9019893 L29.4083923,58.8977897 L29.5641225,58.8533619 L29.8285534,58.7315722 L30.7212293,58.9753725 L31.8572615,59.8371836 L32.1897966,59.8860321 L32.7279755,59.8303316 L33.2211212,59.630738 L33.4216628,59.3230588 L33.5057393,59.3230588 L33.5447828,59.4671729 L33.6894212,59.5803422 L33.7606312,59.8435936 L33.8642295,59.9079144 L33.9960012,59.9300178 L34.1384212,59.9300178 L34.4319128,60.0042852 L34.6344509,60.1393369 L34.8225695,60.2158146 L35.0701406,60.1103815 L35.1477839,60.0175472 L35.1934825,59.9300178 L35.2604776,59.8626025 L35.4026757,59.8371836 L35.5127073,59.7693262 L35.521359,59.6278645 L35.5127073,59.4835294 L35.5604025,59.4163351 L35.5670576,59.4127986 C35.4765477,57.4539964 35.3747241,55.4954153 35.2851016,53.5366132 C35.1961446,51.5961569 35.0989795,49.6559216 35.0031455,47.7159073 C34.9077552,45.7860606 34.817689,43.8559929 34.7247389,41.9261462 C34.7001149,41.4197576 34.6754909,40.913369 34.6510887,40.4069804 C34.8864588,38.4534831 35.0925462,36.4962282 35.3152716,34.5411836 C35.537775,32.5887914 35.7522923,30.6355152 35.9705809,28.6824599 C36.1786649,26.8211337 36.3880799,24.9598075 36.5952766,23.0982602 L37.2348354,17.3522638 C37.4602227,15.3289198 37.6807297,13.3051337 37.9050078,11.2817897 C38.1175286,9.36454189 38.3282747,7.44729412 38.5365805,5.52982531 C38.6852119,4.16206774 38.8382801,2.79475223 38.9866897,1.42677362 L39,1.213918 L38.815209,1.18849911 Z M34.4676287,61.5661105 L34.8312211,61.6335258 L35.2192157,61.6503244 L35.2959717,61.5661105 L34.4676287,61.4728342 L34.4676287,61.5661105 Z M28.3278196,61.0455758 L28.1956042,61.2584314 L27.9309515,61.3313725 L27.360828,61.3092692 L27.360828,61.3965775 L27.7117756,61.3835365 L27.8566358,61.4310588 L27.9566847,61.5661105 L28.0312223,61.4728342 L28.112415,61.5661105 L28.0600612,61.621369 L28.0023833,61.6943102 L27.9566847,61.7301176 L27.9952845,61.7754296 L28.0243453,61.8010695 L28.0600612,61.8143316 L28.112415,61.8229519 L28.2921037,61.4474153 L28.3278196,61.3092692 L28.3209426,61.1806275 L28.3497816,61.145262 L28.4087905,61.1098966 L28.4056847,61.0455758 L28.3278196,61.0455758 Z M29.3928636,61.5928556 L29.3731201,61.6368414 L29.6641715,61.5981604 L29.8252258,61.5506381 L29.6828059,61.5506381 L29.3928636,61.5928556 Z" id="Fill-1"></path>
                </g>
            </g>
        </g>
    </g>
</svg>