<?xml version="1.0" encoding="UTF-8" standalone="no"?>
<svg width="89px" height="34px" viewBox="0 0 89 34" version="1.1" xmlns="http://www.w3.org/2000/svg" xmlns:xlink="http://www.w3.org/1999/xlink">
    <!-- Generator: Sketch 46.2 (44496) - http://www.bohemiancoding.com/sketch -->
    <title>Page 1</title>
    <desc>Created with Sketch.</desc>
    <defs></defs>
    <g id="Page-1" stroke="none" stroke-width="1" fill="none" fill-rule="evenodd">
        <g id="The-50-States" transform="translate(-463.000000, -1319.000000)" fill="#4A4A4A">
            <g id="North-Carolina" transform="translate(442.000000, 1258.000000)">
                <path d="M95.3626516,84.5076187 L93.7964839,84.7910405 L93.5204101,84.9044092 L93.3458958,85.0928322 L96.0604466,84.4522465 L96.3163134,84.4257413 L97.5169196,84.5076187 L97.5169196,84.4257413 L96.9967881,84.2753703 L95.3626516,84.5076187 Z M98.9033244,85.0545178 L98.779721,84.91963 L98.6739627,84.8372277 L97.9885019,84.590021 L97.7827587,84.590021 L97.7827587,84.6732105 L97.8971771,84.7490521 L98.4002508,84.928815 L98.7655499,85.2046263 L98.8091129,85.249239 L98.9510862,85.184157 L98.9033244,85.0545178 Z M90.6098259,86.6209479 L90.2153973,86.850572 L90.0356344,86.90332 L89.856134,86.9516067 L88.5699764,87.798198 L88.2109755,88.1569365 L88.0194034,88.5547767 L88.1805339,88.3723895 L89.2113494,87.4562549 L89.3501736,87.3974711 L89.6766335,87.316381 L90.4891093,86.8802264 L90.7478628,86.6563756 L90.7769923,86.6408924 L90.8066466,86.6450913 L90.8268535,86.629608 L90.821605,86.5682 L90.6098259,86.6209479 Z M109.743945,73.2822794 L109.558409,72.6493041 C109.542138,72.4763644 109.525343,72.303687 109.508285,72.1307473 L109.429557,71.8074365 L109.299393,71.5164043 L109.12619,71.3536992 L109.034866,71.4156321 L109.096798,71.648143 L109.266852,72.0640907 L109.285221,72.3010627 L109.537939,73.1959408 L109.59961,73.7000641 L109.609057,73.9882096 L109.579403,74.1207355 L109.440579,74.3915608 L109.405151,74.5293352 L109.408038,74.6707837 L109.458686,74.9061812 L109.47312,75.0387072 L109.449764,75.3095324 L109.352403,75.7517229 L109.30884,76.2101838 L109.188123,76.8087811 L109.12619,76.9586272 L109.132489,77.3289125 L108.8635,77.5438407 L108.172529,77.7944591 L107.547951,78.1211814 L107.504388,78.1272172 L107.488905,78.0946762 L107.481032,78.0500635 L107.451378,78.0298566 L107.397842,78.0529502 L107.377373,78.1091097 L107.3716,78.1678935 L107.357166,78.2033212 L107.312553,78.25292 L107.286311,78.3119662 L107.242748,78.3584159 L107.145387,78.3686506 L107.056949,78.4216609 L106.968773,78.5066875 L106.944368,78.582529 L107.044877,78.6179568 L107.126755,78.591714 L107.262955,78.4820193 L107.318852,78.4599754 L107.477883,78.4169373 L107.854204,78.2408484 L108.066245,78.2033212 L108.445453,78.0298566 L108.761154,78.0440277 L108.858514,78.0298566 L109.043788,77.9002174 L109.140361,77.7031343 L109.387568,76.7762401 L109.587538,74.7232692 L109.776486,73.7759057 L109.743945,73.2822794 Z M85.9239193,90.906915 L85.8003159,91.194798 L85.7260489,91.5419897 L85.6237021,91.8479803 L85.7648882,91.7007584 L85.9058118,91.4183863 L86.1065688,90.856004 L86.1328116,90.8439324 L86.1593168,90.8439324 L86.1763746,90.832648 L86.1734879,90.7736018 L85.9239193,90.906915 Z M84.669253,94.2234746 L84.5729421,94.1200781 L84.4199469,94.1056446 L84.2695759,94.1943452 L84.1924222,94.3874918 L84.2493689,94.5095207 L84.3934417,94.5885114 L84.5577213,94.6504443 L84.669253,94.72025 L84.7464068,94.615279 L84.9492633,93.8964899 L84.7372218,94.1646908 L84.669253,94.2234746 Z M106.668556,72.6905053 L106.568046,72.466917 L106.568046,72.3782165 L106.806593,72.3540731 L107.054062,72.3643078 L107.092377,72.2808558 L107.083192,72.0210525 L107.038579,71.8486376 L106.900805,71.6276736 L106.874299,71.5122055 L106.917862,71.3274565 L107.0063,71.1631768 L107.080305,70.9857758 L107.083192,70.7616626 L107.041991,70.6761112 L106.87115,70.4239183 L106.874299,70.258589 L106.40088,69.4964993 L106.114834,69.1532441 L105.77604,68.9136477 L105.770791,69.0343644 L105.743761,69.1469458 L105.699936,69.2461434 L105.635379,69.3406173 L105.755571,69.3406173 L105.864478,69.3668601 L105.964725,69.4209202 L106.055788,69.5080461 L105.85608,69.6082935 L105.647188,69.5665675 L105.435409,69.4755051 L105.226254,69.4227572 L105.282151,69.5757524 L105.370327,69.7410818 L105.482121,69.8709835 L105.682616,69.9644077 L105.714107,70.0475972 L105.690751,70.1294746 L105.605462,70.1672642 L105.543792,70.1502064 L105.302358,70.0171556 L105.1058,69.7381951 L104.958578,69.5880865 L104.893496,69.6298125 L104.816342,69.7169385 L104.483847,69.9470875 L104.410892,70.0557325 L104.410892,71.5599673 L104.361293,71.9727659 L104.00098,72.9400739 L103.940097,72.9400739 L103.892597,72.8518982 L103.866092,72.7820925 L103.85717,72.7282948 L103.866092,72.6905053 L103.586082,72.7456151 L103.31237,72.7666093 L103.076972,72.6642625 L102.906657,72.3540731 L103.144941,72.3540731 L103.468777,72.4779389 L103.768469,72.5367227 L103.940097,72.3540731 L103.878164,72.3162835 L103.777654,72.171686 L103.728318,72.019478 L103.830927,71.9462607 L103.886299,71.8811786 L103.839849,71.7360562 L103.745375,71.5890968 L103.660349,71.5122055 L103.731204,71.5122055 L103.586082,71.5043326 L103.421802,71.4652309 L103.262771,71.3983119 L103.14809,71.3153848 L103.071986,71.1857456 L103.189554,71.1857456 L103.457755,71.2768079 L103.748525,71.2007039 L103.80101,70.8831666 L103.680293,70.5302015 L103.457755,70.3438779 L103.457755,70.258589 L103.67452,70.2176503 L103.851134,70.0323764 L103.986809,69.7757222 L104.075247,69.5080461 L103.933798,69.5382253 L103.592118,69.6673397 L103.671371,69.24037 L103.781066,69.1256892 L104.00098,69.2492925 L104.019087,69.0514222 L103.827515,68.867198 L103.553803,68.7291611 L103.315519,68.6701149 L102.361857,68.7462189 L101.476427,68.9968372 L101.252576,69.1844729 L101.340752,69.3141122 L101.549644,69.4348288 L101.682432,69.5912357 L101.425778,69.579164 L101.004844,69.3823433 L100.789916,69.3406173 L100.678384,69.3883792 L100.593358,69.4644832 L100.519878,69.5020103 L100.449285,69.4227572 L100.452172,69.3498023 L100.478415,69.244044 L100.489699,69.120703 L100.449285,68.9968372 L100.122563,68.8963275 L99.5950835,69.0049725 L99.0718029,69.217014 L98.74718,69.4227572 L98.6739627,69.4227572 L98.4123224,69.3466532 L97.0348401,69.3406173 L97.0348401,69.2492925 L97.3817694,68.7617021 L97.4439647,68.5869254 L97.290707,68.5575335 L97.258166,68.4570237 L97.2644642,68.3132134 L97.2379591,68.1659915 L97.1610678,68.0636448 L97.0728921,67.9783558 L96.9967881,67.8689235 L96.9345928,67.5222567 L96.7939316,67.2419841 L96.7613906,67.106309 L96.7692634,66.2946205 L96.8112518,66.0384912 L96.9052009,65.8204139 L97.0694806,65.5879031 L97.2319232,65.4317587 L97.290707,65.3291495 L97.3109139,65.1667068 L97.2765359,65.0522884 L97.0970355,64.8433961 L97.0348401,64.7024725 L97.2552793,64.7843499 L97.4468514,64.9176631 L97.5350271,65.1344283 L97.4439647,65.4732222 L97.3678607,65.5910522 L97.2227383,65.7592683 L97.1699903,65.8852335 L97.0348401,66.4358066 L97.0878505,66.7593798 L97.3200989,67.3089031 L97.4612849,67.9807177 L97.6649287,68.1953834 L97.894028,68.1953834 L98.0614568,67.9075004 L98.1527816,68.0108968 L98.4359409,68.4551867 L98.5566576,68.5158075 L98.7421939,68.528404 L99.0828249,68.5018988 L99.3213715,68.4397035 L99.6478314,68.2898573 L99.9632694,68.0778159 L100.17846,67.8303467 L100.074801,67.8363825 L100.04226,67.8303467 L100.04226,67.7392843 L100.204703,67.6476971 L101.205864,67.4897157 L101.205864,67.3981285 L101.020328,67.3535158 L100.743204,67.2280754 L100.489699,67.0674697 L100.381054,66.9388802 L100.331455,66.8423069 L99.9721919,66.6415498 L99.9015989,66.5504874 L99.8252325,66.4234725 L99.6955932,66.1384761 L99.8690579,66.2563061 L100.045409,66.4208482 L100.218874,66.5271314 L100.381054,66.4825187 L100.548483,66.7470457 L100.825082,66.9239219 L101.873217,67.3923551 L102.114651,67.445103 L102.361857,67.3981285 L102.361857,67.3212372 L102.17947,67.1538084 L101.832279,66.6622816 L101.71786,66.5562608 L101.626798,66.5239822 L101.529175,66.4389557 L101.447297,66.329261 L101.402685,66.2208784 L101.399273,66.0531872 L101.467504,66.0644716 L101.620762,66.2208784 L101.89946,66.4449915 L101.991047,66.4825187 L102.055604,66.5470759 L102.224083,66.8302352 L102.535322,67.0210201 L102.632945,67.062746 L102.733192,67.073768 L103.047581,67.062746 L103.047581,66.986642 L102.980662,66.986642 L102.980662,66.8950548 L103.341499,66.8588398 L103.457755,66.8181635 L103.677669,66.6803891 L103.73934,66.5951001 L103.627808,66.5562608 L103.51024,66.4914412 L103.412617,66.2035582 L103.168297,66.0736565 L103.065951,65.9266971 L102.906657,65.6354025 L102.76862,65.4816199 L102.57075,65.3173403 L102.347949,65.1850768 L102.123836,65.1283924 L102.093919,65.0614734 L102.144042,64.9132018 L102.232218,64.7693915 L102.32643,64.7024725 L102.456069,64.7371129 L102.453445,64.82004 L102.382327,64.907166 L102.293889,64.9612261 L102.821368,65.1160583 L102.980662,65.2055461 L103.17722,65.3818975 L103.350684,65.5879031 L103.433087,65.6495736 L103.615736,65.7004845 L103.695777,65.7642544 L103.93721,66.1384761 L104.107526,66.3150899 L104.313269,66.3883072 L104.519537,66.4187488 L105.226254,66.6415498 L105.226254,66.5562608 L105.079295,66.4977395 L104.937059,66.394343 L104.681717,66.1384761 L104.810569,66.0613224 L104.796135,65.8708 L104.72528,65.6354025 L104.642878,65.1730051 L104.548666,65.0675092 L104.436872,64.9811706 L104.348696,64.7935348 L104.54263,64.8079684 L104.692739,64.8929949 L104.961465,65.1283924 L104.82579,65.3616905 L104.878275,65.4671864 L105.02261,65.532006 L105.164321,65.6354025 L105.196862,65.7143932 L105.204998,65.8912694 L105.226254,65.9702601 L105.282151,66.0350797 L105.505215,66.2208784 L105.625931,66.4208482 L105.684715,66.5586227 L105.709121,66.6822261 L105.684715,66.7795867 L105.641152,66.8800964 L105.622782,66.988479 L105.673431,67.106309 L105.926149,67.4650475 L106.09489,67.6539953 L106.261793,67.7392843 L106.44733,67.666067 L106.40088,67.4479897 L106.264943,67.1771645 L106.185689,66.9388802 L106.144226,66.7512445 L105.608611,65.3231137 L105.572921,65.1667068 L105.502066,64.972248 L105.178492,64.4720611 L105.090317,64.2802265 L105.143327,63.7165321 L105.122858,63.3858734 L104.996105,63.3921716 L104.916852,63.6393784 L104.855182,63.7834511 L104.819754,63.7755783 L104.840748,63.9010187 L104.878275,63.9986417 L104.939946,64.0897041 L105.028646,64.1952 L104.822641,64.0542764 L104.572022,63.7335899 L104.451306,63.4367843 L104.62582,63.3475589 L104.410892,63.2071602 L104.192552,63.0003673 L104.022499,62.7573593 L103.940097,62.5033294 L103.941934,62.3067712 L104.00098,62.0700615 L104.00098,61.9202154 L103.995994,61.8939726 C101.675609,61.8693044 99.3546998,61.8493599 97.0340528,61.829153 C94.7126186,61.8089461 92.3917091,61.7816536 90.0702749,61.7611843 C87.7488406,61.7407149 85.4276687,61.71316 83.1062344,61.6940028 C80.7848002,61.6748456 78.4633659,61.6465034 76.142194,61.6260341 C73.8210222,61.6055647 71.4998503,61.5782723 69.1786785,61.5580653 C66.8572442,61.5381208 64.5358099,61.5100411 62.2146381,61.4911463 C59.8932038,61.472514 57.5720319,61.4439093 55.2505977,61.42344 C52.9299507,61.4029706 50.6093037,61.374366 48.2886567,61.3554713 C48.2136024,61.354684 48.1385481,61.3533718 48.0637563,61.3523221 L47.9957875,61.3318528 L47.9600974,61.2964251 L47.8931783,61.16075 L47.421596,61.9375356 L47.3334203,62.1892036 L47.3483787,62.247725 L47.4924514,62.5479421 L47.4956006,62.6597363 L47.336307,63.111899 L47.0778159,63.6301934 L47.0421257,63.7446118 L47.0360899,63.8301632 L47.0531477,63.8839609 L47.1599557,64.0957399 L47.294581,64.2867872 L47.3221359,64.3432091 L47.3391937,64.4082912 L47.3192492,64.4429316 L47.271225,64.4521166 L46.963135,64.4101282 L46.4356556,64.2340393 L46.3857944,64.2340393 L46.3354083,64.2542462 L45.5643961,64.7754273 L45.2904217,64.9987532 L45.2497454,65.0551751 L44.24596,66.9499022 L44.1669693,67.0535611 L44.0661971,67.1427864 L43.9719856,67.1892361 L43.8111175,67.3333089 L43.7134944,67.3952418 L43.6282055,67.4325065 L43.5570876,67.4369677 L43.4780969,67.4246337 L43.3279883,67.3831701 L43.2629063,67.3514164 L43.2072717,67.3152014 L43.162659,67.2776742 L43.1240821,67.2299124 L43.1067619,67.1771645 L43.0915411,67.1152315 L43.0836683,67.0564478 L43.0710717,66.997664 L43.0511272,66.9420294 L43.0185862,66.9031901 L42.9771227,66.8709115 L42.9212256,66.8475554 L42.8621794,66.8365335 L42.7244049,66.8302352 L42.6595853,66.8181635 L42.6036882,66.7919208 L42.5097392,66.7205405 L42.4567288,66.7034827 L42.418152,66.7034827 L42.365404,66.7126677 L42.2528226,66.7654156 L41.9444702,66.988479 L41.8885731,67.0126224 L41.6770565,67.0065865 L41.5933421,67.0147218 L41.3440359,67.13885 L40.9902835,67.2362107 L40.8968593,67.2745251 L40.7344167,67.359814 L40.5580653,67.4957515 L40.2103488,67.8607883 L40.1077396,68.0006622 L39.977838,68.2898573 L39.934275,68.3696353 L39.7518878,68.6073947 L39.6776208,68.6874351 L39.6128012,68.7430698 L39.5692383,68.7727241 L39.5214764,68.7960801 L39.0630155,69.0839632 L38.9748398,69.1256892 L38.9129069,69.1377608 L38.8449382,69.1377608 L38.7801186,69.120703 L38.7210724,69.088162 L38.6714735,69.0514222 L38.6328967,69.0049725 L38.597469,68.9582604 L38.5678147,68.90525 L38.51218,68.7462189 L38.5032575,68.6753634 L38.5092933,68.6055577 L38.5242517,68.5102965 L38.5859222,68.3596631 L38.6003557,68.3069151 L38.6003557,68.2686007 L38.5859222,68.2342227 L38.4208552,68.0006622 L38.3793917,67.9602483 L38.3061744,67.9460772 L38.2119629,67.9662842 L37.7325077,68.204306 L37.493961,68.2930065 L36.8113869,68.6661785 L36.7959037,68.6811369 L36.7759592,68.716827 L36.760476,68.7635391 L36.7667742,68.9398904 L36.749454,68.9968372 L36.7197997,69.0495852 L36.6024946,69.1813238 L36.5544703,69.2849827 L36.5313767,69.3558381 L36.4725929,69.4471629 L36.4138092,69.4875768 L36.3489896,69.4964993 L36.2962416,69.4794415 L36.1925827,69.3902161 L36.0513967,69.2910185 L35.9249066,69.2340717 L35.8398801,69.2138648 L35.7341218,69.2138648 L35.5808641,69.244044 L35.5010861,69.2818336 L35.4420399,69.3311699 L35.4094989,69.3841803 L35.3829937,69.4382404 L35.3630492,69.5056843 L35.3509775,69.5728657 L35.3478284,69.6408345 L35.3599,69.7056541 L35.3751208,69.7644379 L35.4601474,69.9644077 L35.4601474,70.0260781 L35.4362665,70.1003452 L35.3213232,70.2441555 L35.2890446,70.300315 L35.2685753,70.4239183 L35.251255,70.4855888 L35.1974574,70.5952835 L34.9513003,70.9655688 L34.6943837,71.265786 L34.6156555,71.3185339 L34.5537226,71.3355917 L34.4093874,71.298327 L33.9944894,71.2594877 L33.8761346,71.2272091 L33.8233866,71.2272091 L33.7674896,71.2484658 L33.2463084,71.5179789 L32.8993792,71.6216378 L32.8203885,71.6570655 L32.7581931,71.6987915 L32.5141355,71.9423243 L32.4136257,72.0050444 L32.1630074,72.0982062 L32.0871658,72.1401946 L32.0281196,72.1837576 L31.9955786,72.2281079 L31.784062,72.4370002 L31.5777939,72.7193723 L31.5127119,72.7495515 L31.4368703,72.7516509 L31.3626033,72.7340682 L31.2744276,72.7311815 L31.1718185,72.7495515 L31.0828555,72.796526 L30.9358961,72.9319386 L30.8269886,73.051868 L30.6942003,73.1581512 L30.1556989,73.3875129 L30.0675233,73.4476088 L30.0024412,73.5061301 L29.9003569,73.6289462 L29.6759813,73.8438744 L29.6061756,73.8976721 L29.5442427,73.9291634 L28.8879113,74.0619517 L28.8170559,74.0559159 L28.7490871,74.0354466 L28.6963392,74.0000188 L28.6493647,73.9582928 L28.6081635,73.9181414 L28.534159,73.8934732 L28.437848,73.8874374 L28.2426019,73.9506824 L28.1315951,73.9677402 L28.0400079,73.9706269 L27.9809616,73.9561934 L27.9164045,73.9443842 L27.8513224,73.9462212 L27.7865028,73.9617044 L27.6901919,73.9942454 L27.6547642,74.003168 L27.6161873,74.003168 L27.2632222,73.9727264 L27.1981402,73.9769252 L26.9952837,74.0262616 L26.8005624,74.1005286 L26.5651649,74.2443389 L26.4090205,74.3684671 L26.3116599,74.4230521 L26.2297825,74.4592671 L25.9122451,74.5243491 L25.7469158,74.5831329 L25.6616268,74.6329941 L25.5996939,74.6857421 L25.4383009,75.0153511 L25.3908015,75.0770216 L25.3118108,75.1623105 L25.2438421,75.2040365 L24.825795,75.3512584 L24.7376193,75.4008572 L24.6636147,75.4593785 L24.4374022,75.7042235 L24.4048612,75.7598581 L24.3846542,75.8063078 L24.3757317,75.854332 L24.3757317,75.897895 L24.4192947,76.0577134 L24.4253305,76.118859 L24.4140461,76.1899769 L24.3956762,76.2519098 L24.3665467,76.3106936 L24.1930821,76.5610495 L24.1634278,76.6198333 L24.1219642,76.7436991 L24.1077932,76.8103557 L24.0923099,77.1992733 L24.0458602,77.2997831 L23.9637204,77.4110524 L23.7689992,77.6060361 L23.6716385,77.6847643 L23.6018328,77.7314764 L23.5629935,77.7377747 L23.3076515,77.7356753 L22.7709871,77.7965585 L22.626652,77.7944591 L22.5589456,77.7823874 L22.5122335,77.7579816 L22.4657839,77.7233412 L22.3886301,77.6443505 L22.3266972,77.6196823 L22.2445574,77.6181077 L22.088413,77.6666568 L22.0091599,77.7091701 L21.9474894,77.7579816 L21.7708756,77.9293468 L21.6533081,78.0702704 L21.5942619,78.1862634 L21.5730053,78.2387489 L21.5559475,78.3324356 C21.4724955,79.2267887 21.3927175,80.1216667 21.3145141,81.0165448 C23.5818883,80.9905644 25.8490001,80.9527749 28.1163743,80.92522 C29.9305361,80.903176 31.7449603,80.887168 33.5585972,80.8514778 L36.4754796,79.8807582 L36.7959037,79.8112149 L36.8376297,79.9135617 L36.8762065,79.9571247 L36.9494238,79.9833674 L37.0019093,79.972083 L37.090085,79.9285201 L37.1997797,79.8516288 L37.4351773,79.7243514 L37.5435599,79.6456231 L37.6146777,79.5747677 L37.6558789,79.4359435 L37.687895,79.368762 L37.7556013,79.3160141 L37.8377412,79.3097158 L37.9563584,79.3181135 L38.0327248,79.3068291 L38.1269363,79.2714014 L38.4565454,79.0981992 L38.968804,78.930508 L39.0417588,78.9181739 L39.4007598,78.9121381 L39.4747643,78.8945554 L39.5275123,78.8675254 L39.5752741,78.8187139 L39.6511157,78.7502203 L39.7161977,78.7234527 L40.0751986,78.7213532 L40.1513026,78.6953729 L40.2048378,78.644462 L40.2578482,78.4652239 L40.307447,78.3969928 L40.3722666,78.3358471 L40.5194885,78.2387489 L40.5906064,78.2125062 L40.6583127,78.2182796 L40.6929531,78.25292 L40.7254941,78.2914969 L40.7701068,78.3626147 L40.7934629,78.3906945 L40.8317773,78.4169373 L40.8724536,78.4324205 L41.6258831,78.3626147 C41.8956587,78.3767858 42.1659591,78.3875454 42.4352097,78.4061777 L42.7062974,78.4169373 C44.9854809,78.5492007 47.2662389,78.66047 49.546472,78.7733139 C50.9399624,78.8423323 52.332928,78.9176491 53.7261559,78.9911288 L53.8529084,79.0155345 L53.9350483,79.0478131 L53.9767742,79.08639 L54.0153511,79.1304778 L54.044743,79.1779772 L54.0649499,79.2267887 L54.0793834,79.2866222 L54.0820077,79.3503921 L54.077284,79.4154742 L54.0557649,79.4784568 L53.9410841,79.7091306 L53.9266506,79.7597791 L53.917728,79.8043918 L53.9148413,79.8547779 L53.9240263,79.907001 L53.9381974,79.9657848 L53.9736251,80.024831 L54.0093153,80.0786286 L54.077284,80.133476 L54.1300319,80.1376748 L54.1856666,80.1190425 L55.0089019,79.5267434 L55.077133,79.4892163 L55.1217457,79.4952521 L55.1542867,79.5128348 L55.1868278,79.5511492 C55.6313801,80.1431858 56.0777694,80.7336478 56.5257332,81.3230602 L56.5611609,81.3973272 L56.5671968,81.4763179 L56.5286199,82.7270477 L56.5317691,82.8089251 L56.5517136,82.8858163 L56.6139089,82.9480117 L56.6900129,82.9711053 L57.0844415,82.9792405 L57.1967605,82.9837018 C59.4646596,83.0246405 61.7320338,83.0891977 63.9999328,83.1361722 C64.966716,83.1563792 65.9334992,83.1797352 66.9005448,83.19863 L67.0099771,83.2036161 L67.3831491,83.2099144 L67.6865153,83.2652866 L67.8843857,83.3332553 C69.5140609,84.9933721 71.1371754,86.6595248 72.7660634,88.3201664 C74.3592611,89.9448555 75.9519341,91.5695446 77.5522174,93.1871481 C77.9206657,93.5597953 78.2885891,93.9329673 78.6565126,94.3066642 L78.9336361,94.2234746 L78.9336361,94.2964295 L78.8861367,94.3410422 L78.7976986,94.4680571 L79.6752564,94.1410724 L80.301671,93.973906 L80.5341818,93.8298333 L80.6344292,93.4871029 L80.7105332,93.4871029 L80.7643308,93.7114784 L80.7585574,93.8083142 L80.7105332,93.8964899 L81.046178,93.9802043 L81.8528804,93.7996541 L82.1090097,93.8518772 L82.2378616,93.9151222 L82.7889595,93.8964899 L82.9805316,93.9169592 L83.8780339,94.1707267 L84.0486118,94.1906712 L84.1924222,94.1410724 L84.2808602,94.0437117 L84.6490461,93.4695202 L84.8377315,93.0289043 L84.876046,92.8703981 L84.8639743,92.4573371 L84.8841812,92.2599915 L84.9492633,92.0923003 L84.8469165,91.8044173 L84.7403709,90.9473288 L84.7432576,90.6127337 L84.8051905,90.6127337 L84.9613349,91.1328651 L85.1521198,91.6007735 L85.0728667,91.9453409 L85.1550065,92.8903426 L85.0111962,93.2435701 L85.0111962,93.3162625 L85.0466239,93.4081122 L85.0314031,93.5141329 L84.9492633,93.734572 L85.2584029,93.4020763 L85.4381658,92.7575542 L85.6237021,91.4362314 L85.696657,91.245709 L85.9207701,90.8032561 L86.0386001,90.4208991 L86.1999931,90.238512 L86.5151686,89.9493168 L87.0597058,89.113485 L87.6774603,88.3897097 L88.9990455,87.2775417 L89.7973502,86.8356137 L90.3127579,86.6855051 L90.473626,86.6264589 L90.5623265,86.5705618 L90.5326722,86.5332971 L90.4799243,86.4907839 L90.4799243,86.4096937 L90.5977543,86.2821539 L90.5216503,86.1498904 L90.3471359,86.0407206 L90.1676355,85.9997819 L90.0883824,85.9444097 L89.9820992,85.8202814 L89.890512,85.6853936 L89.856134,85.588033 L89.9028461,85.4825371 L90.0002067,85.4234909 L90.0912691,85.4137811 L90.1350945,85.4641672 L90.2153973,85.4906724 L90.3825637,85.452358 L90.526374,85.3077604 L90.5418572,85.0109548 L90.4862226,84.8500867 L90.3854504,84.6844949 L90.261847,84.5994684 L90.1350945,84.6732105 L90.0713246,84.472191 L89.9970576,83.8428897 L90.1057026,84.0037578 L90.2153973,84.0300005 L90.3174816,84.0037578 L90.4059197,84.0079566 L90.5326722,84.099019 L90.600641,84.1955923 L90.5712491,84.2635611 L90.4059197,84.2698593 L90.4059197,84.3425518 L90.5681,84.472191 L90.9475702,84.9582068 L91.0184257,85.0928322 L90.9181783,85.3174702 L90.482811,85.6525902 L90.3390007,85.8263172 L90.6951149,85.9116062 L90.7478628,85.9591056 L90.7832906,85.97039 L90.9858846,86.1622245 L91.1685342,86.1267968 L91.4162659,85.9551692 L91.5369825,85.917642 L91.8138436,85.7612352 L92.3308259,85.0807605 L92.6313055,84.928815 L92.6759182,84.8844647 L92.5877425,84.6690117 L92.5956154,84.590021 L92.681954,84.5779493 L92.7438869,84.645918 L92.7992591,84.7280579 L92.8643412,84.7645353 L92.9761353,84.6991908 L93.0671977,84.5695516 L93.1262439,84.3871645 L93.140415,84.1780097 L93.096852,84.1215878 L93.0257341,83.912433 L93.0286208,83.7342447 L93.2081213,83.7665233 L93.2081213,83.8132354 L93.2703166,84.0950826 L93.4881315,84.4257413 L93.3167663,84.5548557 L93.3167663,84.689481 L93.4109778,84.7645353 L93.5204101,84.7199226 L93.6140968,84.6548406 L95.0540368,84.2252466 L95.3778724,84.0139925 L97.3109139,84.1780097 L97.2518677,84.0252768 L97.0348401,83.6833337 L96.9582113,83.7541892 L96.8760714,83.803788 L96.7847466,83.8337047 L96.6254531,83.8428897 L96.7724125,83.63321 L96.9873407,83.4508229 L97.2350724,83.321971 L97.4793924,83.2713224 L97.6205785,83.3923015 L97.662042,83.6691626 L97.6790998,83.9864376 L97.7502177,84.2252466 L97.9997863,84.3748304 L98.1060695,84.1134525 L98.1708891,83.0857861 L98.2532913,83.1136035 L98.3942149,83.3180345 L98.6122922,83.5132806 L98.4448634,83.6833337 L98.4915756,83.86887 L98.6650402,84.0216029 L98.8770817,84.0950826 L99.0980457,84.1011184 L99.1975057,84.0725138 L99.2867311,84.0079566 L99.3365923,83.9074469 L99.3182224,83.8213706 L99.2867311,83.7484158 L99.2867311,83.6833337 L99.3539125,83.5859731 L99.424768,83.5311257 L99.4956234,83.4886125 L99.5656916,83.4358645 L99.8981873,83.0154556 L100.057743,82.8721701 L100.116527,82.8028892 L100.17846,82.6850592 L100.204703,82.5716905 L100.210739,82.3646352 L100.246429,82.2733104 L100.308362,82.2733104 L100.319384,82.3415416 L100.363996,82.45596 L100.381054,82.521042 L100.772596,82.3446907 L100.857623,82.2733104 L100.964431,82.0764897 L100.943174,81.9762424 L100.879142,81.9001384 L100.857623,81.7788968 L100.916669,81.5907363 L100.998809,81.5736785 L101.114539,81.6172415 L101.272783,81.6122553 L101.385364,81.540875 L101.526288,81.3493029 L101.620762,81.2815966 L101.620762,81.1902718 L101.385364,81.0433124 L101.252576,80.8233981 L101.099318,80.6200167 L100.789916,80.5292168 L100.869694,80.7116039 L101.037385,80.9669459 L101.069664,81.1556314 L100.972303,81.184236 L100.758687,81.1997192 L100.546383,81.2734613 L100.449285,81.4881271 L100.360847,81.4639838 L99.9246925,81.6020207 L99.763562,81.6122553 L99.7076649,81.5799767 L99.6570164,81.5353641 L99.6307736,81.4639838 L99.6336603,81.3645237 L99.68011,81.2411828 L99.7451921,81.2207134 L99.8223458,81.2288487 L100.080837,81.0905493 L100.133847,81.022843 L100.07795,80.910524 L99.8981873,80.6578063 L99.9105214,80.5491613 L99.9603827,80.3575891 L99.9721919,80.2394967 L99.9509353,80.1959337 L99.8580359,80.04635 L99.8365168,79.9925524 L99.786918,79.9689339 L99.6719748,80.133476 L99.5546696,80.3604758 L99.4895876,80.5292168 L99.4867009,80.6751265 L99.4956234,80.8401934 L99.4895876,81.0165448 L99.4276547,81.1902718 L99.2917172,80.9874153 L99.1416086,80.8932038 L98.9886134,80.866961 L98.8448031,80.866961 L98.6416841,80.9407032 L98.661891,81.1110187 L98.8770817,81.4466635 L98.9298296,81.6823235 L98.7744725,81.626164 L98.5411744,81.4621468 L98.3677097,81.3645237 L98.3566878,81.3170243 L98.3031526,81.2104787 L98.223637,81.09711 L98.1296879,81.0257297 L98.011858,81.0165448 L97.9063621,81.0551216 L97.71479,81.1902718 L97.5413253,81.3529769 L97.3725844,81.5471733 L97.1993822,81.7085663 L96.9317061,81.809076 L96.834083,81.9284806 L96.7613906,81.9499996 L96.7133663,81.9203453 L96.6729525,81.861824 L96.6254531,81.7788968 L96.2782614,81.5290658 L95.7956571,81.3758081 L95.3455939,81.2939307 L94.935682,81.1047204 L94.5764186,80.6200167 L94.3475818,80.1067084 L94.1877634,79.8807582 L93.9912052,79.7833976 L93.9741474,79.6569075 L93.5503269,78.9572756 L93.9090653,79.1191934 L94.3767113,79.7957317 L94.7448971,79.9510888 L94.8766358,80.0279801 L95.3248621,80.5292168 L95.6009359,80.7551669 L95.9460281,80.9514627 L96.2572672,81.0139205 L96.6905351,80.9905644 L97.0728921,80.8514778 L97.2379591,80.575404 L97.4560364,80.4071879 L97.8971771,80.154995 L98.2504046,79.8920426 L98.1973943,79.6952219 L98.5067964,79.5805411 L98.7209373,79.3503921 L98.7776216,79.0454513 L98.6122922,78.700359 L98.4713686,78.7885347 L98.4713686,78.865426 L98.5149316,78.8921936 L98.5626934,78.9326074 L98.6122922,78.9572756 L98.4529987,79.0454513 L98.3443537,79.0126478 L98.2469931,78.930508 L98.1296879,78.865426 L97.7113784,78.8352468 L97.57859,78.7885347 L97.6914339,78.6644065 L97.8446916,78.5885649 L98.0089713,78.5533996 L98.1619665,78.5410655 L98.2359711,78.5003892 L98.3241468,78.408802 L98.4448634,78.3243003 L98.6122922,78.2943836 L98.8862666,78.408802 L99.0240411,78.4324205 L99.0828249,78.3298113 L99.0300769,78.220379 L98.9093602,78.1382392 L98.6739627,78.0298566 L98.6739627,77.9527029 L99.171263,78.064497 L99.3985252,78.068171 L99.4895876,77.912289 L99.5221286,77.7855365 L99.6215887,77.5750696 L99.5982326,77.4942419 L99.4478616,77.31999 L99.383042,77.2053092 L99.3539125,77.0782942 L99.1153659,77.0583497 L98.2115653,76.7578702 L97.3912168,76.5673477 L96.7613906,76.1960127 L96.163843,76.0459042 L96.0137344,75.9514302 L95.707219,75.7099969 L95.2975696,75.4656768 L94.8887075,75.3622803 L94.5764186,75.5365323 L94.4913921,75.1575868 L94.3940315,75.0069534 L94.2003599,74.9473824 L94.0859415,74.8854495 L93.9822826,74.7353409 L93.8237764,74.3640059 L94.2003599,74.6888912 L94.4000673,74.8187928 L94.8472439,74.9300621 L95.3248621,75.2040365 L95.604085,75.2864388 L96.1163436,75.3541451 L96.3163134,75.4538676 L96.5228439,75.6624975 L96.7487941,75.7716674 L97.2878203,75.6299565 L97.57859,75.7042235 L97.6266143,75.6299565 L97.6882848,75.5835068 L97.7641263,75.5538525 L97.8557136,75.5365323 L97.8292084,75.8126061 L98.0409874,76.0012915 L98.3293953,76.0600753 L98.5385501,75.9514302 L98.5004981,75.8632546 L98.4448634,75.7952858 L98.364823,75.745687 L98.265363,75.7042235 L98.2968543,75.6514755 L98.3181109,75.6076501 L98.3443537,75.5690733 L98.4002508,75.5365323 L98.4002508,75.4627901 L98.3351687,75.4192271 L98.2706115,75.3622803 L98.1296879,75.1980007 L98.1651157,75.1360678 L98.265363,74.8715408 L98.2034301,74.7555478 L98.1202405,74.6503143 L98.0089713,74.5710612 L97.8557136,74.5293352 L98.2706115,74.2648082 L98.4795039,74.1766326 L98.74718,74.1978892 L99.2095774,74.3238545 L99.4365772,74.3319897 L99.6955932,74.2789793 L99.5452222,74.6156739 L99.3780559,74.7009629 L98.8770817,74.6209225 L98.6212148,74.6765571 L98.5766021,74.814594 L98.6831477,74.9799234 L98.8770817,75.120847 L98.8770817,75.1980007 L98.7267107,75.3218665 L98.8657973,75.4517681 L99.2867311,75.6189345 L99.2481542,75.6950385 L99.2187624,75.7425379 L99.171263,75.7690431 L99.0828249,75.7861009 L99.2066907,75.9894822 L99.3423657,76.1067874 L99.6955932,76.2844508 L99.6630522,76.1981122 L99.6194892,76.1248949 L99.5593933,76.0692602 L99.4895876,76.0275342 L99.5656916,75.9131158 L99.6690881,75.8632546 L99.7837689,75.8776881 L99.8981873,75.9514302 L100.116527,75.5365323 L100.034387,75.307433 L100.139621,75.2161082 L100.299177,75.274892 L100.381054,75.4982178 L100.396537,75.892384 L100.437214,76.0957654 L100.525389,76.1960127 L100.525389,76.2844508 L100.116527,76.2844508 L100.16009,76.4130403 L100.218874,76.4374461 L100.292878,76.4253744 L100.381054,76.4579154 L100.525389,76.5691847 L100.58706,76.6930505 L100.749502,76.6158968 L100.795952,76.4455814 L100.763411,76.2721167 L100.690719,76.1960127 L100.68442,76.1067874 L100.687307,75.9362094 L100.76656,75.8367494 L100.993822,75.9514302 L101.075962,76.0781828 L101.213999,76.3957201 L101.517103,76.6017258 L101.631784,76.6279685 L101.682432,76.4962299 L101.714973,76.3663282 L101.78163,76.3198785 L101.852748,76.3429722 L101.959556,76.5691847 L102.135907,76.6219327 L102.809296,76.6434517 L102.889337,76.5783697 L103.015302,76.4130403 L103.131033,76.3309005 L103.516014,76.2083468 L103.660349,76.1960127 L103.660349,76.118859 L103.550654,75.9425077 L103.601565,75.6687957 L103.751674,75.4953311 L103.940097,75.6189345 L103.866092,75.7042235 L103.963453,75.780065 L104.028272,75.7661564 L104.06265,75.6687957 L104.075247,75.4982178 L104.124583,75.4037439 L104.222206,75.3187174 L104.277841,75.2103348 L104.204886,75.0387072 L104.457341,74.9507939 L104.519537,74.9098552 L104.578058,74.8187928 L104.581207,74.7555478 L104.552078,74.6970265 L104.54263,74.6238092 L104.516388,74.5448185 L104.531346,74.4737006 L104.717145,74.4382729 L104.763594,74.4120301 L105.334899,73.8173692 L105.361404,73.7000641 L105.351957,73.5082296 L105.364029,73.2933014 L105.443282,73.1043535 L105.526471,73.3825268 L105.641152,73.6176619 L105.811468,73.720271 L106.055788,73.6137254 L106.079406,73.6520399 L106.097514,73.6908792 L106.108536,73.7323427 L106.117721,73.7819415 L106.046865,73.796375 L105.915127,73.8554212 L105.915127,73.9462212 L106.22138,73.9443842 L106.353118,73.9181414 L106.46465,73.8554212 L106.482757,73.7790548 L106.470686,73.6704098 L106.479871,73.5730492 L106.570933,73.5323729 L106.659634,73.5142654 L106.721304,73.4738516 L106.764867,73.4200539 L106.90684,73.1633997 L106.89162,73.0374345 L106.668556,72.6905053 Z M105.635379,62.4201399 L105.709121,62.8421234 L105.853194,63.1386666 L105.885472,63.3533323 L106.023509,63.6538119 L106.055788,63.8191413 L106.117721,64.6253188 L106.185689,64.9612261 L106.167582,64.9578145 L106.135041,64.9761844 L106.12087,65.0197474 L106.153148,65.0879786 L106.288299,65.2378247 L106.568046,65.7915469 L106.671705,66.1972599 L106.812629,66.5586227 L106.914976,66.9328444 L106.874299,67.2362107 L106.874299,67.3212372 L106.947779,67.5240937 L106.995016,67.7482068 L107.065084,67.9460772 L107.213093,68.0746667 L107.330661,67.9836044 L107.430121,68.0544598 L107.504388,68.2158528 L107.547951,68.410574 L107.312553,68.4837913 L107.227527,68.463322 L107.145387,68.3334203 L107.106548,68.5465115 L107.203908,68.6926837 L107.357166,68.749368 L107.486018,68.6701149 L107.547951,68.6701149 L108.228163,69.6035698 L108.375385,69.9258308 L108.40189,70.3588363 L108.460674,70.5829495 L108.681901,70.7180996 L108.692922,70.8154603 L108.690036,70.926992 L108.716541,71.0133307 L108.78451,71.0568936 L108.979231,71.1390335 L109.058222,71.1857456 L108.757742,70.4611831 L108.657495,69.950499 L107.159296,67.073768 L106.730489,65.8080798 L106.441556,65.202397 L106.397731,65.0024272 L106.379361,64.7082459 L106.335536,64.4521166 L106.185689,63.9516672 L105.77604,61.9202154 L105.77604,61.9091934 L105.635379,61.9091934 L105.500229,61.9049946 L105.505215,61.9202154 L105.500229,61.9881841 L105.635379,62.4201399 Z M104.525573,62.167947 L104.54263,62.3440359 L104.581207,62.517763 L104.787213,62.5967537 L105.196862,62.5967537 L105.296322,62.5621132 L105.296322,62.4768243 L105.255646,62.3676544 L105.226254,62.2498244 L105.220218,61.9110304 L105.217069,61.9031576 L105.040718,61.9031576 L104.878275,61.9000085 L104.810569,61.9792616 L104.690902,61.9821483 L104.640254,61.9000085 L104.178643,61.8939726 L104.245562,61.9963194 L104.525573,62.167947 Z M105.443282,78.9572756 L104.910816,79.3220499 L104.640254,79.4301701 L104.410892,79.3627262 L104.322454,79.6828878 L104.251598,79.8269606 L104.13718,79.9510888 L105.226254,79.20422 L106.132942,78.8827462 L106.323726,78.700359 L106.482757,78.6061475 L106.54469,78.5471013 L106.600587,78.4599754 L106.314541,78.626092 L105.443282,78.9572756 Z M103.586082,79.9550252 L103.530447,79.9925524 L103.497906,80.1048714 L103.421802,80.1904228 L103.34806,80.2570794 L103.315519,80.320062 L103.2486,80.4922145 L102.942085,80.8170998 L102.844987,80.9514627 L102.906657,80.9514627 L103.059915,80.7197392 L103.798386,80.198558 L103.8367,80.1841245 L103.872128,80.1780887 L103.904669,80.1597187 L103.940097,80.1161558 L103.715984,79.9925524 L103.586082,79.9550252 Z M107.689924,69.5912357 L107.625105,69.5321895 L107.560023,69.4846901 L107.418837,69.4227572 L107.348244,69.3731584 L107.262955,69.3345815 L107.17163,69.3175237 L107.083192,69.3406173 L107.003151,69.4104231 L107.024408,69.4694693 L107.08949,69.5264161 L107.145387,69.5912357 L107.224378,69.7290101 L107.51541,70.0557325 L107.59545,70.2441555 L107.639013,70.4766663 L107.706982,70.6761112 L107.86024,70.7616626 L108.045776,70.7506407 L108.078317,70.6944812 L108.081729,70.5679911 L108.172529,70.3438779 L107.827699,69.9035245 L107.706982,69.7056541 L107.689924,69.5912357 Z M101.9795,81.6870472 L101.823356,81.8059269 L101.755125,81.9059118 L101.693454,81.9872643 L101.272783,82.2733104 L100.246429,83.3487386 L99.074952,85.2369049 L98.9327163,85.5943313 L99.020892,85.8263172 L99.1305867,85.5030065 L100.363996,83.4298287 L100.916669,82.8152233 L101.099318,82.6850592 L101.320282,82.5716905 L101.820207,82.031877 L102.088145,81.861824 L102.293889,81.5290658 L102.156377,81.5820762 L101.9795,81.6870472 Z" id="Page-1"></path>
            </g>
        </g>
    </g>
</svg>