<?xml version="1.0" encoding="UTF-8" standalone="no"?>
<svg width="57px" height="62px" viewBox="0 0 57 62" version="1.1" xmlns="http://www.w3.org/2000/svg" xmlns:xlink="http://www.w3.org/1999/xlink">
    <!-- Generator: Sketch 46.2 (44496) - http://www.bohemiancoding.com/sketch -->
    <title>Fill 1</title>
    <desc>Created with Sketch.</desc>
    <defs></defs>
    <g id="Page-1" stroke="none" stroke-width="1" fill="none" fill-rule="evenodd">
        <g id="The-50-States" transform="translate(-804.000000, -1292.000000)" fill="#4A4A4A">
            <g id="Ohio" transform="translate(762.000000, 1258.000000)">
                <g id="Page-1" transform="translate(42.000000, 34.000000)">
                    <path d="M53.1287827,1.46968421 L52.6167267,1.54416235 L52.374313,1.61837543 L52.26487,1.70743114 L52.1004411,1.91549284 L52.0221919,1.98307976 L51.5452952,2.08300238 L51.2098284,2.29928053 L50.2975387,2.4681153 L46.0287312,4.52832366 L41.738511,8.19789587 L41.2531549,8.35294822 L40.8032224,8.63257254 L40.4865248,8.66782375 L40.0606486,8.44624467 L39.9435393,8.41655944 L39.795236,8.48944729 L39.5285017,8.7287845 L39.3574639,8.77861329 L39.0206754,8.76377067 L37.4252918,8.38024803 L36.8577213,8.39217514 L35.1021385,8.89072807 L34.0740612,9.46614455 L33.4998817,9.63232886 L32.5878564,9.66890531 L32.369499,9.80248887 L32.1820712,9.98378085 L31.5904443,10.3659783 L31.328997,10.4648407 L30.711992,10.4295895 L30.1594897,10.1510253 L29.2337178,9.39193146 L29.1084135,9.31347763 L28.8741948,9.20666379 L28.77982,9.14066715 L28.6584809,8.97845854 L28.5641061,8.83003236 L28.4713175,8.71924282 L28.3293587,8.66782375 L28.5019827,9.04896097 L29.0571285,9.54327316 L29.3310005,9.86238944 L28.6933758,9.39882268 L28.3417834,9.21514528 L28.0089602,9.14066715 L27.852462,9.15975051 L27.6452075,9.24058977 L27.5169953,9.26099837 L27.336705,9.24350529 L27.235457,9.19208622 L26.9658147,9.00973406 L26.4175421,9.10568098 L25.7614125,9.52578007 L25.138856,9.7839356 L24.6928888,9.39193146 L24.5728716,9.51623839 L24.4232466,9.58647578 L24.3021719,9.54327316 L24.2522088,9.32726006 L24.1226747,9.29227389 L23.3396547,9.26099837 L23.5556329,9.14623313 L24.0325296,9.1244993 L24.2522088,9.00973406 L24.4311772,9.14066715 L24.525552,9.07042976 L24.5916408,8.91113667 L24.6928888,8.77861329 L24.8179288,8.72321852 L24.9514282,8.68955759 L25.2884811,8.66782375 L25.9094514,8.52469851 L26.20315,8.50561514 L26.5119169,8.66782375 L26.8016501,8.4356428 L27.2462955,8.32326298 L28.1503903,8.28403606 L28.0642105,7.99380988 L27.981996,7.8249751 L27.8484967,7.73697958 L27.3446357,7.67363341 L27.207171,7.69245173 L26.9930433,7.81675865 L26.8865081,7.73856986 L26.8042937,7.62221434 L26.7424346,7.5601934 L26.5941313,7.26413618 L26.429438,7.06164047 L26.1952193,6.96834401 L26.2179539,7.06561617 L26.1870243,7.28984572 L26.1251652,7.53448386 L26.0577547,7.69245173 L25.8893604,7.8493594 L25.6831634,7.94636651 L25.2369318,8.04363866 L24.9746915,8.03303679 L24.513656,7.8573108 L24.2939769,7.81410818 L23.9032599,7.63970742 L23.2265107,6.78996755 L22.8870786,6.47376678 L22.5354862,6.46979108 L22.0852893,6.35502584 L21.2607655,6.00251367 L20.9118167,5.75363477 L20.2945473,5.09048781 L19.9860448,4.89037752 L19.8364198,4.88242612 L19.523952,4.99321566 L19.3013649,5.02290089 L19.0980758,4.99586613 L18.072642,4.67171395 L17.9983582,4.53229937 L17.987784,4.36876552 C15.6117596,4.46073674 13.2357353,4.55138273 10.8597109,4.64176367 C8.53364963,4.73028929 6.20758839,4.81961004 3.88152714,4.90813565 C2.7085832,4.95266351 1.53563925,4.99851659 0.36269531,5.04198426 C0.344719157,7.41706816 0.329386557,9.7924171 0.309295563,12.167501 C0.289468924,14.4962017 0.271228417,16.8249024 0.251401778,19.1533381 C0.231839495,21.4457274 0.216506894,23.7383818 0.198795097,26.0307711 C0.180818945,28.3764348 0.160463596,30.7220985 0.140108246,33.0680272 C0.120017253,35.4049444 0.103891587,37.7423917 0.085651079,40.0793088 C0.0674105714,42.4029737 0.0473195776,44.7266385 0.0269642286,47.0503033 C0.017447442,48.1221524 0.00845936583,49.1937363 0,50.2655854 L0.742573706,49.8044041 L0.954322207,49.5751386 L1.07936221,49.4749509 L1.2398258,49.4346638 L1.3571995,49.492444 L1.52427198,49.7466239 L1.59564788,49.8044041 L1.790742,49.9167839 L2.46749127,50.6082908 L3.03056781,50.6650108 L4.17205348,50.1412785 L4.7393597,50.0275734 L5.0248633,50.1921674 L5.21202677,50.5086333 L5.35239937,50.819268 L5.5020244,50.9570924 L5.75950635,51.0069211 L6.08413452,51.1272524 L6.64324573,51.4233096 L6.84256953,51.6379974 L6.98267778,51.9255732 L7.06092691,52.2404487 L7.08921292,52.5378311 L7.15530171,52.775313 L7.31179998,52.9645564 L7.49209021,53.1280903 L7.63219846,53.2918891 L7.75776717,53.5712484 L7.83971728,53.8765823 L7.88703686,54.2237935 L7.90184075,54.6317004 L8.0271451,54.9261674 L8.31687838,55.145361 L9.79488821,55.7016942 L10.0885868,55.7369454 L11.2731624,55.5044994 L11.5858946,55.5503525 L12.1220069,55.8045323 L12.6853478,55.9638254 L12.8915448,56.211114 L13.0681341,56.5151226 L13.2714232,56.789446 L14.1662655,57.7012068 L14.6904818,58.0608753 L15.269684,58.1875676 L15.535361,58.1038128 L15.7658787,57.9039676 L15.9303076,57.6269937 L15.9934885,57.3094677 L16.1417918,57.2002685 L17.0754943,56.8946696 L17.3691929,56.9246199 L17.6428005,57.0354094 L17.8934092,57.2095451 L18.1117666,57.4255582 L18.2328413,57.4934102 L18.7031291,57.4838685 L18.890557,57.5297216 L19.2691136,57.7012068 L19.4375078,57.8199478 L19.5318826,57.9392188 L19.8485801,58.4605657 L20.0130091,58.6442431 L20.1139927,58.689036 L20.5911538,58.5766562 L20.7513531,58.4414824 L20.9506769,58.320091 L21.2607655,58.2930562 L21.8658745,58.4064962 L22.1474128,58.3932439 L22.3816315,58.2416371 L22.4881666,58.0730674 L22.6282749,57.7176397 L22.6985934,57.5877668 L22.8051285,57.504012 L23.1606862,57.3688382 L23.348114,57.1891365 L23.532634,56.95404 L23.742532,56.7502191 L24.0164039,56.6635488 L24.3531924,56.6123948 L25.158947,56.2002471 L25.5026088,56.1448523 L25.6588427,56.2598826 L25.7019326,56.5055809 L25.7019326,56.8421903 L25.7407928,57.1716434 L26.06172,58.2930562 L26.4484716,58.9413605 L27.0282025,59.2684282 L27.642564,59.4833811 L28.1503903,59.8048828 L29.1044481,60.7813151 L29.240591,61.0209173 L29.4600058,61.5650583 L29.5935052,61.7649035 L29.5961488,61.7773607 L30.0772752,62 L30.6567418,61.9379791 L31.7752285,61.5340478 L32.7681466,61.4518833 L33.006595,61.3569966 L33.1979881,61.0641199 L33.3002936,60.7654123 L33.5823606,59.2779699 L33.7303995,58.9119404 L33.9135976,58.7550327 L34.5509579,58.8496544 L34.8446565,58.7929344 L35.0479457,58.5146353 L35.0590486,58.34315 L35.0278547,58.1149448 L34.9739262,57.8984016 L34.8488862,57.6039347 L34.8716208,57.4311242 L34.9580649,57.1891365 L34.914975,56.760821 L34.813727,56.4827869 L34.692388,56.2503409 L34.5943122,55.9585245 L34.6331724,55.5614844 L34.8607822,55.3584586 L35.1100691,55.1829977 L35.2623377,54.7912586 L35.4346973,54.492816 L35.5007861,54.334583 L35.5911956,53.6401606 L35.7987144,53.1158981 L36.177271,52.4593773 L36.6232382,51.8701784 L37.0462065,51.5486767 L37.359203,51.5555679 L37.6058464,51.720427 L37.8120435,51.9109956 L38.2270811,52.0851313 L38.4073713,52.2889523 L38.5287104,52.5566495 L38.5908338,52.8269971 L38.6378891,52.9184383 L38.6688186,53.0080241 L38.6809789,53.1227893 L38.6526929,53.2213867 L38.5866041,53.2672398 L38.5244807,53.2955998 L38.4922293,53.3443684 L38.4531048,53.5696581 L38.383315,53.6671953 L38.3563508,53.7493598 L38.4507256,53.9346275 L38.6997482,54.0645004 L38.9894814,53.9131587 L39.2469634,53.6375101 L39.4045191,53.3968477 L39.5055028,52.9889407 L39.5877172,52.786445 L39.7251819,52.6997747 L39.8882891,52.7594102 L40.1201286,53.0119998 L40.2642021,53.0703101 L40.5256494,52.9931815 L40.5187762,52.7957216 L40.3977015,52.5298797 L40.3115217,52.2460147 L40.3776105,51.6326965 L40.3506463,51.3300131 L40.1780223,51.2004053 L40.0958079,51.1622385 L39.9987895,51.0705324 L39.9083801,50.9557671 L39.8573595,50.8516037 L39.7994657,50.6276392 L39.8034311,50.5680037 L39.8816802,50.5613776 L40.5460048,50.2894396 L40.6509538,50.1317368 L40.6792398,49.7413229 L40.6430231,49.1089214 L40.6588844,48.8979442 L40.7614542,48.6307771 L41.3988146,47.8836103 L41.6050116,47.3042181 L41.871746,47.2254992 L42.2006038,47.2162226 L42.4890153,47.1041078 L42.5794248,47.2308001 L42.6843738,47.139094 L42.7623586,47.1094087 L42.8448374,47.139094 L42.9471429,47.2308001 L43.1033768,47.020088 L43.1966942,46.356941 L43.3027006,46.0526674 L44.3001127,45.0881622 L44.5113325,44.9858542 L45.0733516,44.9908901 L45.1989203,45.1250037 L45.3239603,45.4260968 L45.5008139,45.7449481 L45.7619969,45.9368419 L46.0744647,45.8933743 L46.5368219,45.4584325 L46.8064642,45.3516187 L47.0798074,45.3219335 L47.373506,45.239769 L47.6389186,45.1250037 L47.8382425,44.9908901 L48.2144199,44.5750317 L48.4528683,44.3749214 L48.9770846,44.1790519 L49.1803737,43.9182459 L49.4851752,43.3534313 L49.9107871,42.869721 L51.3848316,41.7027201 L52.2957995,41.1758072 L52.3201202,41.0000812 L52.4763541,40.5298883 L52.4845491,40.4477238 L52.4641938,40.2542397 L52.4763541,40.1787014 L52.5345123,40.1071387 L52.7499617,39.933003 L52.8202802,39.6019596 L52.776926,39.3734893 L52.6368177,39.1736441 L52.4292989,38.9345719 L52.3510498,38.7278355 L52.4604928,38.5844452 L52.7499617,38.3954668 L52.8202802,38.2184156 L52.8755304,37.8765053 L52.9225857,37.7007793 L53.0048001,37.5009341 L53.0896581,37.3551584 L53.3363015,37.0484993 L53.3669667,36.9064342 L53.317268,36.7201064 L53.2472138,36.5202611 L53.2067675,36.3418847 L53.2662474,36.077103 L53.4063557,36.0961863 L53.5826806,36.1931934 L53.7510748,36.1717246 L53.8414843,36.0012996 L53.8253586,35.839356 L53.7701084,35.6962308 L53.7510748,35.5825257 L53.8483575,35.2867336 L53.9694322,35.0786719 L54.0717376,34.8395997 L54.1148275,34.4462703 L54.0987019,33.7319693 L54.1499868,33.4006609 L54.2943247,32.9765861 L54.5800927,32.3725446 L54.6929723,32.0592593 L54.7873471,31.4432907 L54.9126515,31.0457206 L55.1902244,30.3650805 L55.3155288,30.2285814 L55.6755805,29.931464 L55.7496,29.8273007 L55.8786053,29.2884606 L55.9327981,29.1869477 L55.9179942,28.9545017 L55.8318145,28.5680636 L55.8233551,28.4816583 L55.842653,28.2953305 L55.8318145,28.2115757 L55.7725989,28.1492897 L55.6821894,28.1087376 L55.5973314,28.0901843 L55.560586,28.0925697 L55.5851711,27.6873132 L55.8548134,27.0064081 L55.9206378,26.6146691 L55.8749043,26.3620795 L55.7575306,26.0525049 L55.4596024,25.4717875 L55.0220945,24.8719867 L54.92349,24.5719538 L55.0609547,24.221827 L55.3036328,24.0394749 L55.6433292,23.9233844 L55.975888,23.9125175 L56.2024404,24.0423904 L56.793803,23.6180505 L57,23.5613305 L57,0 L53.5520154,1.16037466 L53.1287827,1.46968421 Z" id="Fill-1"></path>
                </g>
            </g>
        </g>
    </g>
</svg>