<?xml version="1.0" encoding="UTF-8" standalone="no"?>
<svg width="71px" height="52px" viewBox="0 0 71 52" version="1.1" xmlns="http://www.w3.org/2000/svg" xmlns:xlink="http://www.w3.org/1999/xlink">
    <!-- Generator: Sketch 46.2 (44496) - http://www.bohemiancoding.com/sketch -->
    <title>Fill 1</title>
    <desc>Created with Sketch.</desc>
    <defs></defs>
    <g id="Page-1" stroke="none" stroke-width="1" fill="none" fill-rule="evenodd">
        <g id="The-50-States" transform="translate(-317.000000, -1477.000000)" fill="#4A4A4A">
            <g id="Oregon" transform="translate(282.000000, 1428.000000)">
                <g id="Page-1" transform="translate(35.000000, 49.000000)">
                    <path d="M70.9244526,7.48286094 L70.6169968,6.87117569 L70.4553699,6.35465057 L70.3425551,6.10498312 L70.2315632,5.96889389 L70.1037604,5.84631127 L69.7357452,5.77161568 L69.2281799,5.44950373 L69.0477167,5.23319349 L68.963055,5.15604216 L68.335586,5.01299499 L68.2460633,4.85071114 L68.1654524,4.65200041 L67.6437093,4.1035506 L67.3868885,3.39077049 L67.3113411,2.99846516 L67.2908846,2.94095979 C66.4981429,2.94218766 65.7051987,2.94239231 64.9124571,2.94382482 C63.0630641,2.94668986 61.2136712,2.94935025 59.3640757,2.95160135 C57.5722041,2.95385245 55.7803325,2.95548961 53.9886635,2.9585593 C52.2269703,2.96142433 50.4652772,2.9675637 48.7035841,2.96592653 L48.3347587,3.41041645 L47.9076018,3.60851325 L45.7377905,3.6424844 C45.3343308,3.72188683 44.9310736,3.80128927 44.5276139,3.88007777 L43.920804,3.85122276 L43.6901109,3.87864525 L43.5456999,3.9594802 L43.2925248,4.28302466 L42.9259274,4.58385347 L40.5477025,5.01299499 L39.2682571,5.5591937 L38.8585187,5.63081961 L38.6995247,5.73907705 L38.4311592,6.01105085 L38.2028966,6.17804154 L37.9590384,6.28916402 L37.8239442,6.30205669 L37.5659082,6.24946281 L37.4324344,6.24680241 L37.3416964,6.27156451 L36.9975809,6.48153075 L36.7984841,6.56441216 L36.6984293,6.57771411 L36.2471701,6.49319554 L36.1712176,6.51079505 L35.9595633,6.61905249 L35.8562679,6.62805689 L34.5363146,6.36713394 L34.4457792,6.39087281 L34.2124531,6.54701729 L34.1516911,6.62048501 L34.1196897,6.71400798 L33.7077233,6.88324977 L33.083495,7.01463215 L33.0192898,7.04205464 L32.6310206,7.35495754 L32.5854491,7.37051059 L32.4671657,7.37828712 L32.0928717,7.48981889 L31.7208057,7.44193185 L31.5942182,7.38483577 L31.4972015,7.37051059 L31.2089871,7.38708687 L31.1597698,7.38197074 L31.0637659,7.35495754 L30.8786443,7.34492991 L30.8346931,7.35045534 L30.0555216,7.71349637 L29.8635137,7.73723524 L29.705735,7.6177223 L29.5884643,7.35311573 L29.5198033,7.1314847 L29.4312933,6.94628057 L29.255286,6.79525223 L28.8392688,6.64627034 L26.2285279,6.38534739 L24.9391581,6.63010335 L24.2819157,6.48705618 L24.0344118,6.53596644 L23.6712576,6.7469559 L23.0707264,7.2597974 L22.7203322,7.48470275 L21.1549003,8.09331833 L20.5011011,8.29591732 L20.3508164,8.39517037 L20.181493,8.44203418 L19.4764512,8.18070193 L18.7365725,8.16617211 L18.4744857,8.01330195 L18.0276824,7.8919472 L17.7433162,7.74194209 L17.6126779,7.73723524 L17.2598531,7.83526041 L16.5750653,7.69344111 L16.3587526,7.56799345 L16.1503389,7.4016167 L15.9990415,7.22541697 L15.9180255,7.01463215 L15.8629346,6.73263072 L15.8199961,6.23841195 L15.8278952,6.09884375 L15.8655676,5.85613425 L15.8744794,5.71779392 L15.8388323,5.59111839 L15.6411533,5.24219789 L15.6342669,4.95344316 L15.67518,4.69722705 L15.6907756,4.46352195 L15.5305664,4.02046455 L15.45988,3.4466387 L15.4068145,3.23790034 L15.2850879,3.07561649 L15.1422972,2.95569426 L15.0268494,2.8144889 L14.9324657,2.32947918 L14.8156001,2.04645452 L14.6618723,1.78573621 L14.4996377,1.58948122 L14.2768437,1.40591425 L14.0054401,1.23523995 L13.7188459,1.10999693 L13.4504804,1.06129131 L13.3293615,0.99212115 L13.0221082,0.75636959 L12.9056477,0.637879873 L12.7347039,0.589788192 L12.1827824,0.695385245 L12.0337129,0.812647089 L11.79107,1.14765169 L11.6717739,1.2170265 L11.1605629,1.2170265 L10.2292839,1.04287322 L10.0794042,0.91292336 L10.027554,0.810395989 L9.56677545,0.122787271 L9.47016386,0.0347897268 L9.36241257,0 L9.18539259,0.0259899724 L9.05374157,0.089225417 L8.82487134,0.260718306 L8.67782729,0.309219278 L8.39609412,0.301852041 L8.281659,0.355673795 L8.33776259,0.385347386 L8.46617296,0.521641257 L8.33918037,0.589788192 L7.5468438,0.760053208 L7.41154706,0.76803438 L7.26571825,0.695385245 L7.10145829,0.43282513 L6.9947197,0.336232477 L6.87218298,0.395170367 L6.72777195,0.499744193 L6.39459361,0.531873529 L6.23924541,0.601248337 L6.31094458,0.6861762 L6.38932757,0.742453699 L6.47479946,0.773559808 L6.56999327,0.782359562 L6.6495915,0.830246598 L6.82539624,1.0594495 L6.90215891,1.13803336 L6.90215891,1.2170265 L6.79177459,1.2440397 L6.72959481,1.34267881 L6.70954334,1.48900031 L6.72230337,1.65946997 L6.60219713,1.50946485 L6.59632347,1.33735803 L6.60726063,1.14969815 L6.5428529,0.956103551 L6.42700001,0.892458815 L6.12602554,0.928885706 L5.97229766,0.82656298 L5.81127834,0.642996009 L5.5858513,0.444285276 L5.33875247,0.294689451 L5.10907208,0.260718306 L5.12851592,0.16780927 L5.14087087,0.130154507 L5.16335281,0.0789931444 L4.99787761,0.133224189 L5.04466435,0.410518776 L5.4689857,1.42535557 L5.58726908,1.91200246 L5.62453644,2.19338995 L5.6415498,2.48910263 L5.63182788,2.78235956 L5.58726908,3.05433337 L5.53784931,3.21845902 L5.49936671,3.29008493 L5.28669968,3.51785532 L5.19798715,3.56021692 L5.11514828,3.61731301 L5.04385419,3.74705822 L5.22593767,3.99201883 L5.31343496,4.26174153 L5.33996771,4.56625397 L5.31809339,5.29479177 L5.25307804,5.54384529 L5.04385419,6.00163716 L5.25409074,6.13567993 L5.4234142,6.41317917 L5.50767085,6.77028548 L5.49207527,7.16443262 L5.54898901,7.02916198 L5.6061053,6.94259695 L5.67982987,6.81776323 L5.78008718,6.78461066 L5.91072549,6.87711041 L5.9603478,6.83147447 L5.99721008,6.8144889 L6.03589523,6.8054845 L6.09017595,6.78358743 L6.01543868,6.92683925 L5.91518137,6.99846516 L5.8141139,7.04532897 L5.73026233,7.11981991 L5.66828509,7.2440397 L5.48194826,7.45032232 C5.43495898,7.6875064 5.38634937,7.92407654 5.33692961,8.16085133 L5.32963817,8.31781439 L5.41693292,8.41133736 L5.61542214,8.59265323 L5.87123019,8.5173437 L5.83213996,8.79259183 L5.85644477,9.02506907 L5.96176558,9.17793922 L6.17017926,9.21272895 L6.17017926,9.30666121 L6.02252759,9.42617415 L5.97229766,9.54282206 L5.91902963,9.58436509 L5.75699762,9.4781541 L5.61542214,9.44049933 L5.49288543,9.27862478 L5.43678184,8.95303387 L5.4092364,8.55724957 L5.36082933,8.66755346 L5.32254927,9.07418398 L5.21965893,9.34615778 L5.21398781,9.88028241 L5.35758869,10.1207408 L5.67517145,10.3112657 L5.55688807,10.4651591 L5.44913678,10.6669395 L5.30432066,10.8007777 L5.35130995,10.4172721 L5.36913347,10.3650875 L5.32963817,10.3456462 L5.3014851,10.4172721 L5.27191426,10.5005628 L5.24254596,10.6352195 C5.22695037,10.7600532 5.21277257,10.8846823 5.19940493,11.009516 L5.12669306,11.1644326 L4.94541974,11.2288959 L4.94541974,11.315461 L5.06957678,11.3308094 L5.20669637,11.3926123 L5.29318096,11.4861353 L5.30837146,11.7867594 L5.31809339,12.1360892 L5.32457467,12.2034176 L5.3024978,12.2746342 L5.26381266,12.3079914 L5.22411481,12.3302978 L5.19940493,12.3661107 C5.18461951,12.5826256 5.16942901,12.7993451 5.15707407,13.0160647 L5.17489759,13.1458099 L5.19474651,13.4347693 L5.21398781,13.6189502 L5.16335281,13.9281694 L5.09813492,14.227975 L4.92476066,14.5064975 L4.83685829,14.7342679 L4.82308557,14.8570552 L4.91868446,14.9931444 C4.88729076,15.3082984 4.85670721,15.6232477 4.82936431,15.938811 L4.74652544,16.2351376 L4.79169187,16.2889594 L4.81012301,16.3624271 L4.80647729,16.5752584 L4.74652544,16.6603909 L4.68130755,16.7217845 C4.67300341,16.8310652 4.66571197,16.9403459 4.65842053,17.0498312 L4.55431496,17.2982707 L4.43927223,17.5125345 L4.38580166,17.7179986 L4.4052455,18.4751867 L4.44109509,18.6933388 L4.45020939,18.941983 L4.39329564,19.5151949 L4.41354964,19.6774788 L4.47613451,19.8323954 L4.46783037,19.9596848 L4.46965323,20.0818582 L4.56018862,20.2232682 L4.66388911,20.244142 L4.75989308,20.1827484 L4.84678275,20.1651489 L4.91868446,20.3157679 L4.8966076,20.524097 L4.72627144,20.4655684 L4.53264318,20.3435997 L4.44109509,20.3581295 L4.19541404,21.9545687 L4.18569212,22.2576486 L4.23632712,22.4719124 L4.40200486,22.5711655 L4.56018862,22.5171391 L4.69973869,22.5355571 L4.80445189,22.8545994 L4.48484373,22.7021385 L4.33152093,22.7068454 L4.26670813,22.896961 L4.24503634,23.1390566 L4.08219416,23.8720966 L4.05829444,23.9336949 L3.98497495,24.0442034 L3.96208793,24.1186944 L3.96715143,24.1903203 L4.0145458,24.3026706 L4.02244486,24.3771616 L3.96208793,24.836386 L3.99570957,25.6136294 L3.85676712,26.6722603 L3.79641019,27.0688632 L3.78587811,27.1539957 L3.78405525,27.2489512 L3.80167623,27.4034585 L3.90416148,27.7437839 L3.91570627,27.8139773 L3.87378048,27.9404482 L3.76015553,28.0120741 L3.73564819,28.1143968 L3.73564819,28.6196664 L3.71174846,28.8218561 C3.61837751,29.4836795 3.53270308,30.1467308 3.44540833,30.8093728 L3.29957952,31.327535 L3.29957952,31.5931648 L3.38322855,31.7888059 L3.46606741,31.6359357 L3.54789358,31.3434974 L3.63073245,31.1273918 L3.79641019,31.0780722 L4.01191278,31.1683209 L4.21100962,31.3132099 L4.32686251,31.4265834 L4.32686251,31.5031208 L3.93312471,31.5031208 L3.86507126,31.4646475 L3.8480579,31.3827893 L3.85352648,31.2984754 L3.8480579,31.2602067 L3.71964752,31.2956104 L3.65442964,31.4151233 L3.60926321,31.5788397 L3.54424786,31.7511511 L3.44824389,31.8856032 L3.23193115,32.1041645 L3.13126876,32.2662437 L3.07354485,32.4442853 L3.0054914,33.0146321 L2.92001951,33.2753505 L2.89794265,33.4155326 L2.35594555,35.0588356 L2.20404053,35.3617108 L2.27027112,35.4515502 L2.45984858,35.1104062 L2.74239191,34.7236263 L3.05673403,34.3875985 L3.34515102,34.1937992 L3.24388101,34.4563594 L3.23091845,34.5713701 L3.25785627,34.6298987 L3.31578272,34.6968178 L3.37350662,34.7852246 L3.44459817,35.0764351 L3.76339617,35.5266551 L3.63215023,35.5778164 L3.45290231,35.5499847 L3.27973059,35.4689451 L3.16570056,35.3617108 L3.10230553,35.1658651 L3.10230553,35.0080835 L3.08144391,34.9041236 L2.95769196,34.8644224 L2.74887319,34.9956001 L2.54370015,35.2810805 L2.44648094,35.5643098 L2.56253637,35.6850506 L2.51878773,35.7785736 L2.4786848,35.8377162 L2.42177106,35.8630922 L2.32353914,35.8575668 L2.36971827,35.9920188 L2.38632655,36.1346567 L2.38450369,36.4442853 L2.32353914,36.4442853 L2.19026781,36.3061496 L2.15056996,35.6471912 L2.05294567,35.6471912 L1.97030934,35.7259797 L1.80361891,35.8260514 L1.72179274,35.9482247 L1.66123327,36.0912719 L1.64725801,36.1774276 L1.66670185,36.3542413 L1.64867579,36.8738361 L1.31407967,38.5118183 L1.2514948,39.0449197 L1.2423805,39.2945871 L1.2018725,39.5440499 L1.10384313,39.7372352 L0.984344512,39.906477 L0.884289741,40.0882022 C0.644887433,40.6931341 0.405687666,41.2980661 0.166487899,41.9029981 L0,42.0403152 L0.152917717,42.1412054 L0.244465808,42.2545789 L0.304417655,42.4009004 L0.453689652,43.0635424 L0.536528521,43.2098639 L0.657647455,43.0983321 L0.742714265,43.260616 L0.87578306,43.6187455 L0.984344512,43.8053822 L1.10161519,43.9117978 L1.23043064,43.9909956 L1.33352351,44.0986391 L1.37403152,44.2967359 L1.39246266,44.6728742 L1.50791047,45.2464954 C1.47388375,45.43436 1.44005956,45.6220199 1.40441252,45.8094751 L1.2018725,46.2619462 L1.17351689,46.4360995 L1.18809978,46.5715747 L1.25514052,46.9211092 L1.28025549,47.3195539 L1.27640723,47.5023023 L1.25514052,47.6471912 L1.19093534,47.838944 L1.14657907,47.9336949 L1.06434782,48.0145298 L1.12510983,48.1049831 L1.21584776,48.1907296 L1.25514052,48.2167195 L1.34081495,48.6532283 L1.36977818,48.9192674 L1.35094195,49.0371431 L1.50183427,49.1503121 L1.61566176,49.4124629 L1.82488561,50.6722603 L1.88564761,50.7891129 L2.00575385,50.8638085 L2.39625101,51.357004 L2.92001951,51.7415328 L3.04134099,52 L66.0845562,52 C66.0819232,50.2613322 66.0786825,48.5224598 66.0770622,46.7835874 C66.0752393,44.9290904 66.0711885,43.0743886 66.068353,41.2198915 C66.0659225,39.4552338 66.0622768,37.6905761 66.0606565,35.9259183 C66.0590361,34.1246291 66.0551879,32.3233398 66.0525549,30.5222552 L66.0235916,30.3620178 L66.0235916,30.2703366 L65.9549306,29.9897677 L66.0922527,29.7916709 L66.2842606,29.6357311 L66.38229,29.4734473 L66.4831549,29.1988131 L66.5163715,28.9065794 L66.6263507,28.5085439 L66.6869102,28.0065487 L66.7260004,27.8725059 L66.7648881,27.7802108 L66.7936488,27.6846414 L66.8066114,27.5444592 L66.7434189,27.2861967 L66.5036115,26.8693339 L66.5015861,26.6681674 L66.5915139,26.5611378 L66.7099998,26.5419012 L66.8311187,26.5435383 L66.9257049,26.5007674 L66.9963914,26.3769569 L67.0324435,26.2380027 L67.0441908,26.0920905 L67.045001,25.952113 L67.078015,25.8851939 L67.1393846,25.813568 L67.1750317,25.7247519 L67.1318906,25.6124015 L66.9575037,25.4370204 L66.8066114,25.3185306 L66.6158187,25.2119104 L66.5674116,25.1460145 L66.5015861,24.9827075 L66.48356,24.8470275 L66.4892311,24.7084826 L66.4629009,24.5987926 L66.351909,24.5552031 L66.1554452,24.5932672 L65.9978691,24.6648931 L65.8445463,24.7052082 L65.6650958,24.6472936 L65.5913712,24.5537706 L65.5399261,24.4330298 L65.476126,24.3333674 L65.3608807,24.3036939 L65.2415846,24.3505577 L65.1607711,24.4385552 L65.0888694,24.5449708 L65.0025874,24.6472936 L64.6647506,24.3970122 L64.5231751,24.2371841 L64.464236,24.0087998 L64.4733503,23.8819196 L64.5152761,23.7202497 L64.5239853,23.5927556 L64.499883,23.43436 L64.3842327,23.18326 L64.3451425,23.0400082 L64.3734981,22.7563696 L64.4699071,22.5122276 L64.5369479,22.289778 L64.4464125,21.9568198 L64.5037313,21.8690269 L64.5837346,21.7969917 L64.6246477,21.7304819 L64.6550287,21.5737235 L64.7291583,21.5092602 L64.8275928,21.4802006 L64.9229891,21.4321089 L65.0430954,21.2833316 L65.159961,21.07357 L65.2474583,20.8415021 L65.321993,20.3581295 L65.418402,20.0953648 L65.6393732,19.6570142 L65.8810035,19.0281387 L65.9743744,18.8486647 L66.1376217,18.646475 L66.6670613,18.2934616 L66.8297009,18.1461169 L66.9540605,17.9932467 L67.4207127,17.202906 L67.6228477,16.7663972 L67.693129,16.53392 L67.7881203,15.9523176 L67.801893,15.6920086 L67.7832594,15.6557864 L67.7391056,15.5923463 L67.6967748,15.4935025 L67.6767233,15.3516832 L67.705484,15.224803 L67.7751578,15.090351 L68.7027911,13.6478052 L68.8836593,13.1652512 L69.0396151,12.3968075 L69.1550629,12.1825437 L69.2405348,11.9783076 L69.2664599,11.4572803 L69.3008917,11.1912412 L69.4151243,10.9636754 L69.7183267,10.601453 L69.84856,10.1796787 L70.2629569,9.64043794 L70.2973887,9.5164228 L70.3378967,9.25140694 L70.5027642,8.82881408 L70.5515764,8.74265834 L70.8108276,8.43916914 L70.9307313,8.2453699 L71,8.00818582 L70.9921009,7.74194209 L70.9244526,7.48286094 Z" id="Fill-1"></path>
                </g>
            </g>
        </g>
    </g>
</svg>