<?xml version="1.0" encoding="UTF-8" standalone="no"?>
<svg width="77px" height="45px" viewBox="0 0 77 45" version="1.1" xmlns="http://www.w3.org/2000/svg" xmlns:xlink="http://www.w3.org/1999/xlink">
    <!-- Generator: Sketch 46.2 (44496) - http://www.bohemiancoding.com/sketch -->
    <title>Fill 1</title>
    <desc>Created with Sketch.</desc>
    <defs></defs>
    <g id="Page-1" stroke="none" stroke-width="1" fill="none" fill-rule="evenodd">
        <g id="The-50-States" transform="translate(-473.000000, -1478.000000)" fill="#4A4A4A">
            <g id="Pennsylvania" transform="translate(442.000000, 1428.000000)">
                <path d="M107.932487,65.7815651 L107.729033,65.4036284 L107.612048,65.2324622 L107.510984,64.9487333 L107.439555,64.8114023 L107.342914,64.7521355 L107.190767,64.7939319 L107.061618,64.8569582 L106.920528,64.8543044 L106.749361,64.6983973 L106.495045,64.5396152 L105.846205,64.5798636 L105.525766,64.5124144 L105.33912,64.3430174 L105.209972,64.1453138 L105.04544,63.9796763 L104.45631,63.834384 L104.230078,63.6351325 L104.049845,63.3606916 L103.382651,61.9152884 L103.214139,61.7485451 L103.174775,61.566764 L103.25682,60.6571949 L103.261242,60.292527 L103.078134,59.6246693 L103.121258,59.459474 L103.300164,59.3099801 L103.343287,59.1416888 L103.285347,58.7553486 L103.125238,58.5965666 L102.8937,58.5131949 L102.620586,58.3625952 L102.922227,57.9800145 L102.975744,57.815925 L102.809001,57.7486969 L102.683833,57.6735077 L102.492322,57.3411268 L102.133403,57.2091033 L101.844146,56.9589884 L101.676076,56.9037022 L100.945192,57.0233416 L100.727143,56.8552714 L100.648858,56.4622969 L100.622099,56.0195648 L100.542708,55.6924914 L100.262738,55.4974416 L99.8480918,55.2997381 L99.5320757,55.0560364 L99.540258,54.8176421 C97.5893175,54.8176421 95.6385982,54.8152095 93.6878788,54.8136615 C91.8085893,54.8121135 89.9295208,54.8110078 88.0504524,54.8094598 C86.058379,54.8081329 84.0665267,54.806806 82.0744532,54.805258 C80.0684476,54.8034889 78.0626632,54.8019408 76.0564364,54.800614 C74.1360139,54.7995082 72.2153703,54.7975179 70.2949478,54.7961911 C68.4353401,54.7946431 66.5757325,54.7919893 64.7161248,54.7906624 C62.7331183,54.7893356 60.7503329,54.7877876 58.7673264,54.7862396 C56.761542,54.7846915 54.7559787,54.7835858 52.7501942,54.7818167 C50.8142916,54.7802686 48.8786101,54.7787206 46.9429286,54.7773938 C45.0410823,54.776288 43.1394571,54.77474 41.2376107,54.77474 L41.0186773,54.77474 C41.0186773,53.18316 41.0144755,51.59158 41.0144755,50 L39.3470428,50.6901933 L38.7685277,51.1212048 L38.2220786,51.3014379 L37.6247661,51.8034368 L37.0621735,52.0106496 L36.4106805,52.4343633 L36.0904627,52.5340997 L36.0904627,52.4020761 L36.1725074,52.3226851 L36.3354912,52.0871658 L36.4027193,52.0376293 L36.7271389,52.029447 L36.8669025,51.9619977 L36.9920705,51.8060906 L36.6946306,51.6767208 L36.4498232,51.822013 L36.234428,52.050898 L35.9022683,52.2636394 L35.7313233,52.6727575 L35.5897906,52.7656384 L35.4728049,52.8043388 L35.0946471,53.1300852 L32.9103987,54.3521321 L32.0707114,54.5283846 L31.871681,54.649572 L31.6615933,54.8271514 L31.0008123,55.049402 L31.0008123,81.3994829 C31.0008123,82.3919813 30.9986008,83.3847009 31.0014757,84.3771993 C31.0070043,86.3856375 30.9999277,88.3942968 31.0072255,90.402735 C31.0120907,91.7614494 31.0089946,93.1197215 31.0089946,94.4784359 C32.9263211,94.477109 34.8434265,94.4784359 36.7605318,94.4768879 C38.7928536,94.4748976 40.8253966,94.4744553 42.8577184,94.4744553 L54.9945941,94.4744553 C56.6810452,94.4744553 58.3677176,94.4757822 60.0541687,94.4757822 C62.091798,94.4757822 64.1294274,94.4773302 66.1670567,94.4773302 L72.6008259,94.4773302 C74.203242,94.4773302 75.8058792,94.4784359 77.4080742,94.4784359 C79.5708715,94.4784359 81.7334477,94.477109 83.8964662,94.4793205 C85.9367493,94.4813108 87.9772535,94.4797628 90.0175365,94.4797628 C91.2260935,94.4797628 92.4346505,94.4799839 93.6432075,94.4810897 L93.7442708,94.4852914 L93.7683756,94.4583117 C94.0709018,93.9574185 94.3771875,93.4587367 94.6819252,92.9593914 L94.9161177,92.7196703 L95.2122308,92.5297069 L95.4585862,92.4071926 L95.8814153,92.2809188 L96.1768649,92.2311612 L96.7624567,92.2081621 L97.3922774,92.2997161 L97.875479,92.4624788 L98.2591655,92.7048536 C98.3356816,92.774072 98.4128612,92.8426269 98.4893774,92.9120664 L98.8405555,92.4518638 L99.0435665,92.358983 L99.2737784,92.3012642 L100.090467,91.901213 L100.410906,92.0303616 L100.734883,91.9779503 L101.273592,91.6659148 L102.070377,91.3711286 L102.257466,91.196203 L102.187142,90.8381693 L102.265206,90.4507234 L102.441458,90.1382457 L102.66769,90.0119719 L102.965351,89.9283791 L103.406314,89.5382795 L103.71083,89.4142172 L104.170812,89.1937357 L104.351487,89.0725483 L104.870514,88.4885045 L105.073967,88.3567022 L105.573313,88.1979201 L105.706442,88.1333458 L106.166866,87.7186991 L106.291591,87.6516922 L106.628616,87.6043671 L107.065599,87.4617287 L107.447958,87.2235556 L107.612048,86.8871942 L107.472063,86.513017 L107.13548,86.1441472 L106.428922,85.5320181 L106.014718,85.0218367 L105.56889,84.3864874 L105.525766,84.2843184 L105.4048,84.1202289 L104.714607,83.5063306 L104.530172,82.8391364 L104.359227,82.5445713 L103.839979,82.7394 L103.546741,82.534841 L103.304366,82.1849897 L103.172342,81.8621181 L103.073712,80.5135764 L102.847923,80.0533738 L102.176748,79.8393055 L101.78112,79.9160428 L101.613934,79.8450553 L101.511986,79.3629593 L101.458027,79.1816205 L101.433701,78.9982914 L101.496727,78.8260195 L101.445422,78.2766955 L101.458027,78.1072985 L101.496727,77.9781498 L101.445422,77.8032242 L101.402741,77.5851753 L101.453604,77.3507617 L101.632952,76.8529645 L101.594031,76.8436764 L101.542504,76.7200564 L101.527466,76.576091 L101.589608,76.508863 L101.687796,76.4507019 L101.776697,76.3149189 L101.897663,76.0212384 L102.140038,76.1342435 L102.410277,76.1050523 L102.628547,75.9312324 L102.718774,75.6121203 L102.784896,75.1923872 L102.945005,75.0229902 L103.12944,74.8949473 L103.261242,74.5950748 L103.209937,74.261146 L103.022848,73.9626003 L102.815857,73.725533 L102.718774,73.577587 L102.694448,73.4754181 L102.640931,73.418805 L102.562867,73.3973539 L102.484582,73.3947002 L102.433276,73.3679416 L102.437478,73.3031462 L102.449641,73.2248609 L102.437478,73.1552002 L102.285551,72.9395839 L102.207266,72.8009261 L102.176748,72.6786329 L102.316511,72.4028652 L102.612403,72.1282032 L102.929967,71.9167887 L103.125238,71.833417 L103.41715,71.7526991 L103.663726,71.5507938 L104.207079,70.8645811 L104.252856,70.8455627 L104.261039,70.8000068 L104.252856,70.5859385 L104.308143,70.50124 L104.437291,70.4017248 L104.573516,70.3168051 L104.667503,70.2805374 L104.839996,70.1376778 L105.525766,69.2064365 L105.839792,68.4353041 L105.967172,67.9496699 L105.979777,67.8258287 L106.077744,67.5916363 L106.792263,66.9215672 L106.819022,66.8733576 L106.889346,66.7006434 L106.928268,66.628329 L106.998592,66.5796771 L107.139461,66.5619855 L107.318367,66.4020977 L107.451718,66.3510133 L107.749379,66.3333217 L108.01033,66.1610498 L108.002368,66.1300895 L107.932487,65.7815651 Z" id="Fill-1"></path>
            </g>
        </g>
    </g>
</svg>