<?xml version="1.0" encoding="UTF-8" standalone="no"?>
<svg width="47px" height="61px" viewBox="0 0 47 61" version="1.1" xmlns="http://www.w3.org/2000/svg" xmlns:xlink="http://www.w3.org/1999/xlink">
    <!-- Generator: Sketch 46.2 (44496) - http://www.bohemiancoding.com/sketch -->
    <title>Fill 1</title>
    <desc>Created with Sketch.</desc>
    <defs></defs>
    <g id="Page-1" stroke="none" stroke-width="1" fill="none" fill-rule="evenodd">
        <g id="The-50-States" transform="translate(-649.000000, -1630.000000)" fill="#4A4A4A">
            <g id="Utah" transform="translate(602.000000, 1598.000000)">
                <g id="Page-1" transform="translate(47.000000, 32.000000)">
                    <path d="M19.8356543,13.1048356 L19.7876788,13.1644101 L19.7283356,13.2191489 L18.9855823,13.6870406 L18.9329827,13.710058 L18.7464755,13.7206963 L18.6048611,13.7533849 L18.4975424,13.8168279 L18.3272197,13.9686654 L18.2582429,14.0166344 L18.0821401,14.1069632 L17.9998688,14.2058027 L17.9597929,14.3471954 L17.9434157,14.5123791 L17.9424524,14.7976789 L17.9368648,14.854352 L17.9166342,14.8851064 L17.8027646,14.9947776 L17.4831206,15.3769826 L16.9893005,15.7104449 L16.7041449,15.989942 L16.0112939,16.4282398 L15.8926075,16.4531915 L15.7633241,16.4319149 L15.4972431,16.312766 L15.44079,16.2628627 L15.4352025,16.2187621 L15.4982065,16.1321083 L15.5107302,16.0918762 L15.5039867,16.0419729 L15.4207521,15.8402321 L15.4063016,15.783559 L15.4159353,15.6220503 L15.407265,15.4808511 L15.3930072,15.4058027 L15.3681524,15.3578337 L15.0810701,15.0495164 L15.0255804,14.9504836 L15.0063131,14.8601547 L15.0255804,14.4249516 L15.0217269,14.3547389 L14.9614204,14.116441 L14.9402264,13.9783366 L14.7976486,13.6495164 L14.7305985,13.3816248 L14.6647044,13.2402321 L14.6063246,13.2576402 L14.5086395,13.459381 L14.4608567,13.5247582 L14.3631716,13.6237911 L14.3209763,13.6909091 L14.2922681,13.7841393 L14.215777,14.3087041 L14.1909222,14.3758221 L14.1096144,14.5065764 L14.064529,14.6170213 L14.003259,14.6889749 L13.9229145,14.659381 L13.8493136,14.5775629 L13.6558702,14.1234043 L13.6129042,14.0549323 L13.5420006,13.9897485 L13.3028938,13.8359768 L13.247404,13.7541586 L13.2175398,13.6630561 L13.22332,13.5823985 L13.2836265,13.4208897 L13.2971136,13.3479691 L13.2816998,13.303675 L13.2358437,13.3019342 L13.0932659,13.3382979 L13.0136921,13.3199226 L12.9582023,13.2767892 L12.9362376,13.2382979 L12.9200531,13.1941973 L12.8846014,13.1346228 L12.7784387,12.9961315 L12.7027183,12.9317215 L12.4855762,12.8156673 L12.2194952,12.6081238 L12.1428115,12.5061896 L12.1524451,12.4081238 L12.277875,12.2220503 L12.2950229,12.1584139 L12.2404965,12.1373308 L12.0089039,12.1123791 L11.9189258,12.0622824 L11.8979245,11.9990329 L11.9304862,11.9489362 L11.9973436,11.9423598 L12.0595769,11.9471954 L12.0921385,11.9232108 L12.1008088,11.8818182 L12.0778808,11.7876209 L12.0721006,11.7338491 L12.0798075,11.5856867 L12.0624669,11.5032882 L11.978269,11.3669246 L11.9744155,11.2918762 L11.9956095,11.222824 L12.001197,11.1630561 L11.9879026,11.0998066 L11.9092922,10.9266925 L11.8882908,10.8613153 L11.8767305,10.7903288 L11.8672895,10.5711799 L11.8776938,10.4733075 L11.9017779,10.3820116 L11.9389637,10.2829787 L11.9505241,10.1851064 L11.9114116,10.0928433 L11.8385813,10.0083172 L11.5189373,9.71431335 L11.4719251,9.63172147 L11.3428344,9.27427466 L11.2825279,9.18413926 L10.8029655,8.8073501 L10.71029,8.68626692 L10.5962277,8.48162476 L10.5293703,8.47408124 L10.0681118,8.77369439 L10.0488446,8.8410058 L10.0659924,8.93597679 L10.106261,9.07253385 L10.1006735,9.17814313 L10.0259165,9.19845261 L9.73883421,9.13017408 L9.68816129,9.09361702 L9.65848969,9.04274662 L9.65078278,8.97930368 L9.66600393,8.8967118 L9.79047049,8.57485493 L9.84037272,8.48742747 L9.91686378,8.43636364 L10.0143562,8.42495164 L10.2326543,8.46905222 L10.3016312,8.45009671 L10.3397804,8.41914894 L10.3513407,8.40367505 L10.2575091,7.7967118 L10.0087687,7.1934236 L9.83651927,6.87814313 L9.60396332,6.1615087 L9.58469605,6.02011605 L9.64018579,5.98839458 L9.79047049,6.03655706 L9.81147181,6.01141199 L9.80781103,5.94332689 L9.81339854,5.87408124 L9.86118137,5.85009671 L9.93593838,5.84235977 L9.99528157,5.8040619 L10.0230264,5.74642166 L9.97620697,5.61566731 L9.98853802,5.56189555 L10.0105027,5.51179884 L10.0126221,5.4582205 L9.98179448,5.40135397 L9.92630474,5.34564797 L9.84692359,5.29574468 L9.65270951,5.21199226 L9.5991465,5.15261122 L9.57429172,5.07756286 L9.56851154,4.99032882 L9.60685341,4.91141199 L9.7014557,4.8615087 L9.81917872,4.84119923 L10.0220631,4.84719536 L10.3043286,4.6934236 L10.3971968,4.66266925 L10.4642469,4.65880077 L10.6077881,4.6934236 L10.7303279,4.69516441 L11.1447669,4.6 L11.2164411,4.55705996 L11.3199064,4.3926499 L11.3906172,4.34932302 L11.4499604,4.32437137 L11.4653743,4.28027079 L11.4653743,4.22263056 L11.4719251,4.16208897 L11.5121937,4.1131528 L11.5859874,4.07852998 L11.8749964,4.03810445 L11.9275961,4.02166344 L12.0624669,4.05841393 L12.138958,4.09941973 L12.3611096,4.26479691 L12.3688165,4.2762089 L12.382111,4.31856867 L12.4069657,4.37253385 L12.4337472,4.40696325 L12.6079234,4.56943907 L12.6291174,4.61450677 L12.6108134,4.82398453 L12.6079234,4.83346228 L12.6004091,4.84313346 L12.5524336,5.05357834 L12.5582138,5.19400387 L12.5524336,5.28336557 L12.5237254,5.33617021 L12.37267,5.50425532 L12.2576444,5.57717602 L12.2194952,5.64642166 L12.2021547,5.72998066 L12.2021547,5.79825919 L12.2194952,5.86073501 L12.320841,6.03075435 L12.3456958,6.09226306 L12.371514,6.19226306 L12.4069657,6.28336557 L12.456868,6.32088975 L12.5140918,6.34197292 L12.5697742,6.37852998 L12.6243005,6.45338491 L12.7917331,6.75319149 L12.8452961,6.82823985 L13.1210108,7.06073501 L13.2175398,7.12398453 L13.469363,7.23752418 L13.5938296,7.26054159 L13.6780275,7.23268859 L13.7238836,7.17601547 L13.7373707,7.11257253 L13.7525919,7.07601547 L13.7918971,7.07504836 L13.8893895,7.09709865 L14.024453,7.1040619 L14.119248,7.13558994 L14.2283007,7.20483559 L14.3144254,7.27775629 L14.3593182,7.327853 L14.3824389,7.38723404 L14.4360019,7.6967118 L14.4492963,8.04642166 L14.4837847,8.244294 L14.5508348,8.33655706 L14.6953394,8.40367505 L14.7383054,8.45764023 L14.7631602,8.52572534 L14.7689403,8.60367505 L14.7537192,8.68355899 L14.7057437,8.80831721 L14.6885958,8.86305609 L14.683779,8.93230174 L14.6847424,9.11102515 L14.6980368,9.20309478 L14.7614261,9.36266925 L14.7708671,9.42591876 L14.7766472,9.58568665 L14.8130624,9.68162476 L14.8895535,9.76808511 L15.0810701,9.92746615 L15.1727823,9.98317215 L15.2627605,9.99690522 L15.3384808,9.97562863 L15.3843369,9.92746615 L15.4246055,9.87388781 L15.4791319,9.83539652 L15.9567675,9.66247582 L15.9567675,9.22823985 L15.8159238,9.13404255 L15.7012835,8.81489362 L15.6140028,8.42882012 L15.5824045,8.36827853 L15.4885729,8.27988395 L15.4562039,8.2106383 L15.4694983,8.13384913 L15.5116936,8.05880077 L15.5710368,8.00019342 L15.6074519,7.95222437 L15.6111127,7.89651838 L15.6026351,7.82630561 L15.6053325,7.73500967 L15.5949282,7.65067698 L15.5432919,7.59497099 L15.4762418,7.55067698 L15.4197887,7.50154739 L15.3901171,7.44313346 L15.3843369,7.37001934 L15.4436801,6.96460348 L15.4762418,6.88201161 L15.5326949,6.84061896 L15.8149604,6.77717602 L15.8638993,6.78588008 L15.8868273,6.83191489 L15.9251692,6.89729207 L16.0016603,6.94526112 L16.0839315,6.96266925 L16.1432747,6.93965184 L16.2074347,6.85415861 L16.239033,6.82630561 L16.271402,6.81663443 L16.3070465,6.81856867 L16.3442323,6.83191489 L16.5338223,6.96170213 L16.5929728,7.02804642 L16.6677298,7.15860735 L16.6831436,7.272147 L16.6006797,7.30077369 L16.4983705,7.29709865 L16.4467342,7.31431335 L16.4619553,7.36518375 L16.535749,7.51411992 L16.5634939,7.62553191 L16.6074232,7.71605416 L16.6831436,7.74874275 L16.7634881,7.7417795 L16.8611732,7.70232108 L16.9135801,7.70135397 L16.9748501,7.72166344 L17.0428635,7.76576402 L17.1241714,7.78220503 L17.3318726,7.70444874 L17.5328302,7.70058027 L17.6114407,7.63694391 L17.7663495,7.45454545 L17.8698147,7.40560928 L18.5952275,7.43926499 L18.6871323,7.64564797 L18.729135,7.80715667 L18.7004267,7.92147002 L18.291768,8.35764023 L18.0229895,8.29535783 L17.9653804,8.15222437 L17.9281946,8.15125725 L17.7989112,8.42882012 L17.7626887,8.4615087 L17.6956386,8.46537718 L17.5846592,8.42495164 L17.2993109,8.24816248 L16.8324649,8.21740812 L16.4706256,8.57485493 L16.1548351,9.18104449 L16.3997221,9.25880077 L16.7970132,9.25880077 L16.8324649,9.52301741 L16.8534663,9.60560928 L16.8935422,9.67195358 L17.3108712,10.0504836 L17.389289,10.1599613 L17.4276309,10.2926499 L17.474643,10.5789168 L17.5310961,10.7019342 L17.6170282,10.7959381 L17.8123983,10.9191489 L17.8927428,10.9901354 L17.9540127,11.1017408 L17.9971714,11.24294 L18.0229895,11.4003868 L18.0630655,11.5340426 L18.1942756,11.712766 L18.2335808,11.8030948 L18.2985115,11.8798839 L18.6545706,11.9576402 L19.1216093,12.1584139 L19.2335521,12.2373308 L19.3512751,12.3410058 L19.5293047,12.545648 L19.6221729,12.7425532 L19.6824795,12.8425532 L19.8508754,12.9791103 L19.8641698,13.0413926 L19.8356543,13.1048356 Z M16.7386333,6.20754352 L16.8629072,6.11141199 L16.9318841,6.00947776 L16.9654091,5.93578337 L16.9835203,5.92804642 L17.0112652,5.955706 L17.1060602,6.01914894 L17.2064426,6.14313346 L17.302201,6.2172147 L17.3702144,6.28626692 L17.4257042,6.37272727 L17.4486322,6.45338491 L17.4486322,6.54003868 L17.4391913,6.64371373 L17.4122171,6.71179884 L17.3492131,6.70715667 L17.10028,6.62843327 L16.9760061,6.63017408 L16.9135801,6.66189555 L16.8879547,6.69748549 L16.8667607,6.70715667 L16.8303455,6.66866538 L16.727073,6.50444874 L16.7386333,6.20754352 Z M28.1521786,12.5659574 L28.1521786,12.5618956 L28.1512153,12.5618956 L28.1512153,10.2021277 C28.1512153,8.49187621 28.1502519,6.78181818 28.1502519,5.07176015 C28.1502519,3.38201161 28.1485179,1.69245648 28.1485179,0.00290135397 L25.4907907,0.00290135397 C23.8197403,0.00290135397 22.1488827,0.00193423598 20.4778324,0.00193423598 C18.7998459,0.00193423598 17.1216667,0.00251450677 15.4436801,0.00174081238 C13.7514358,0.000773694391 12.0593842,0.000967117988 10.3673325,0.000967117988 L5.22643961,0.000967117988 C3.48429308,0.000967117988 1.74214654,0 0,0 C0,1.48820116 0.000578018095,2.97659574 0.00134870889,4.46499033 C0.00211939968,6.24854932 0.00211939968,8.03210832 0.00289009047,9.81586074 C0.00366078127,11.5297872 0.00327543587,13.2437137 0.00500949016,14.9576402 C0.00655087174,16.5762089 0.00616552634,18.1945841 0.00674354444,19.8131528 C0.00770690793,21.6272727 0.00770690793,23.4415861 0.00867027142,25.255706 C0.00944096222,26.9404255 0.00924828952,28.6251451 0.010211653,30.3098646 C0.0109823438,31.940619 0.0107896711,33.5713733 0.0117530346,35.2023211 C0.0125237254,36.9669246 0.0134870889,38.7317215 0.0134870889,40.4965184 C0.0134870889,42.2584139 0.0152211432,44.0205029 0.0152211432,45.7825919 C0.0152211432,47.4195358 0.0169551974,49.0562863 0.0177258882,50.6930368 C0.018496579,52.3483559 0.018496579,54.003675 0.0192672698,55.6589942 C0.0202306333,57.4263056 0.0210013241,59.1934236 0.0210013241,60.960735 L1.48396512,60.960735 C3.13594084,60.960735 4.78772388,60.9663443 6.43950692,60.9663443 C8.18955304,60.9663443 9.93959916,60.9690522 11.6896453,60.9709865 C13.2951869,60.9731141 14.9007285,60.9750484 16.5062701,60.9750484 C18.2796296,60.9750484 20.0529891,60.9756286 21.8263486,60.9800774 C23.4199445,60.9843327 25.0137331,60.9825919 26.6073289,60.9825919 C28.376257,60.9825919 30.145185,60.9841393 31.9139204,60.9878143 C33.5310224,60.9911025 35.1485097,60.9912959 36.7654189,60.9912959 C38.5010146,60.9912959 40.2366103,60.9924565 41.9722059,60.9959381 C43.6473024,60.9996132 45.3222061,61 46.9973026,61 L46.9973026,43.1690522 C46.9973026,41.5245648 47,39.8802708 47,38.2357834 L47,12.5659574 L28.1521786,12.5659574 Z M14.2866806,12.250677 L14.2618258,12.1690522 L14.2350443,12.1133462 L14.192849,12.1123791 L14.0676117,12.1690522 L13.9947814,12.1901354 L13.9899646,12.3371373 L13.9994056,12.4390716 L14.0302332,12.4841393 L14.0703091,12.5332689 L14.1067243,12.6272727 L14.1363959,12.6812379 L14.2024826,12.4860735 L14.3230957,12.3823985 L14.3209763,12.3294004 L14.2866806,12.250677 Z M17.65537,12.865764 L17.5989169,12.7253385 L17.4524857,12.5044487 L17.4075929,12.3833656 L17.3912158,12.2545455 L17.4170339,12.206383 L17.4160705,12.1266925 L17.3912158,12.0249516 L17.3089445,11.8568665 L17.2650151,11.8108317 L17.1183912,11.7386847 L17.0047143,11.6290135 L16.9682992,11.62147 L16.8841012,11.6435203 L16.8380524,11.6742747 L16.8763943,11.7750484 L16.8590538,11.8355899 L16.8112709,11.8588008 L16.6848777,11.8779497 L16.6619496,11.9162476 L16.7157053,12.0719536 L16.8667607,12.0874275 L16.9108827,12.1085106 L16.9663725,12.1901354 L16.9893005,12.2891683 L16.9682992,12.3640232 L16.8802478,12.4841393 L16.8715775,12.5417795 L16.8896887,12.6485493 L16.8629072,12.8003868 L16.8802478,13.0001934 L16.918397,13.0941973 L17.3270558,13.7611219 L17.430521,13.9876209 L17.5492074,14.1433269 L17.5883199,14.1222437 L17.5960268,14.0589942 L17.5711721,13.937911 L17.6440023,13.7112186 L17.6478558,13.5947776 L17.6247351,13.415087 L17.6917852,13.1210832 L17.65537,12.865764 Z M16.2523274,10.5827853 L16.2006912,10.5154739 L16.1883601,10.4425532 L16.0964552,10.365764 L15.9862464,10.2313346 L15.9307567,10.2032882 L15.8465587,10.2042553 L15.6694925,10.2466151 L15.6053325,10.2860735 L15.5681467,10.3330754 L15.5633299,10.3676983 L15.6026351,10.3907157 L15.7490664,10.3984526 L15.8284475,10.4483559 L15.9174623,10.5578337 L16.0284418,10.6106383 L16.2274727,10.8268859 L16.2581076,10.8363636 L16.2793016,10.7922631 L16.2658145,10.6481625 L16.2523274,10.5827853 Z" id="Fill-1"></path>
                </g>
            </g>
        </g>
    </g>
</svg>