<?xml version="1.0" encoding="UTF-8" standalone="no"?>
<svg width="33px" height="65px" viewBox="0 0 33 65" version="1.1" xmlns="http://www.w3.org/2000/svg" xmlns:xlink="http://www.w3.org/1999/xlink">
    <!-- Generator: Sketch 46.2 (44496) - http://www.bohemiancoding.com/sketch -->
    <title>Fill 1</title>
    <desc>Created with Sketch.</desc>
    <defs></defs>
    <g id="Page-1" stroke="none" stroke-width="1" fill="none" fill-rule="evenodd">
        <g id="The-50-States" transform="translate(-656.000000, -1120.000000)" fill="#4A4A4A">
            <g id="New-Hampshire" transform="translate(602.000000, 1088.000000)">
                <path d="M86.4953453,87.5085932 L86.1060492,87.6161783 L86.2907472,87.0154433 C85.9185527,86.5863469 85.5460473,86.1575615 85.1738528,85.7284651 L84.844257,85.1249317 L84.8277773,84.9778573 L84.8535852,84.7064072 L85.0329973,83.9704136 L85.054763,83.778564 L85.0488552,83.5640158 L84.9860454,83.214209 L84.9027137,83.0382173 L84.7913973,82.911354 L84.1029775,82.454584 C83.7292283,81.8914727 83.3548573,81.3280505 82.9804862,80.7652502 L82.4301234,80.1237822 L82.3079242,79.9204278 L82.2140205,79.7186281 L82.139706,79.441892 L82.1179403,79.2534627 L82.1232262,79.082757 L82.150278,78.9400358 L82.324715,78.3402337 L82.3769528,78.0681617 L82.3558089,77.6580326 L82.3029492,77.3029398 L82.3079242,77.0890135 L82.324715,76.9366532 L82.3558089,76.8169415 L82.4027608,76.4690003 L82.3974748,76.0986714 L82.4823613,75.3374918 C82.4332328,74.4967116 82.3909451,73.6553095 82.3467917,72.8142184 C82.2003392,70.019495 82.0566852,67.2247715 81.9024592,64.430359 C81.7513427,61.6987562 81.6101762,58.9665316 81.4733629,56.234307 C81.3387261,53.5487233 81.1919627,50.8637614 81.0526618,48.1784886 C80.91305,45.4845096 80.779657,42.7902195 80.630717,40.0968623 C80.4811552,37.3985301 80.3524263,34.6989541 80.2146801,32 L80.1926034,32.0031094 L80.0206539,32.0848865 L79.7358334,32.4331386 L79.193866,33.3099878 L78.8568077,33.4769622 L78.4143409,33.4079337 L77.982757,33.2505983 L76.4890041,32.3022331 L76.1628286,32.2552813 L75.7586074,32.3933384 L75.4433148,32.6560822 L74.9231132,33.3519646 L74.6796476,33.586102 L73.8967022,33.7872798 L73.7172901,33.9542542 L74.1852539,34.1986526 L74.4700744,34.5071045 L74.3534722,34.9803543 L73.8497503,35.8736832 L73.7701498,36.1345614 L73.6756242,36.6062565 L73.5817205,36.8721097 L72.8547442,37.9908697 L72.7244606,38.3313483 L72.6908791,38.7305946 L72.7334778,39.3176482 L72.7334778,39.3198247 L72.4343541,39.4305192 L72.2546311,39.6696316 L72.1911995,40.329445 L72.3236597,40.9133892 L72.5646377,41.2973994 L72.7182418,41.6904268 L72.5609064,42.305465 C72.0136531,43.0862339 71.4682653,43.8679356 70.9241214,44.650881 L70.4872515,45.5535381 L70.4141807,46.1794592 L70.592349,46.5774616 L70.8407896,46.9207387 L70.9660982,47.3697352 L71.0348158,47.7313578 L71.587977,49.1685197 L71.808744,49.51615 L71.9281447,49.7736078 L71.9390276,50.0186281 L71.7649015,50.270489 L71.5497315,50.3146424 L71.3302082,50.3146424 L71.1504853,50.4371525 L71.023311,50.9181758 L71.0817676,51.3634411 L71.0659097,51.7972015 L70.7248092,52.2452652 L70.1135023,52.7539621 L69.8041176,53.2962405 L69.6458494,53.5157637 L69.1837935,53.7097899 L67.6266089,54.7013757 L67.3417884,54.9625648 L66.7525582,55.7252992 L66.4154999,55.9628569 L65.983916,56.0359276 L65.1157731,55.9955055 L64.2056534,56.1733629 L63.5536135,56.7060021 L63.1546782,57.5996419 L63.0219071,58.8598794 L63.0334119,61.0389428 L62.9332894,61.9885518 L62.6705456,62.7767832 L61.9121643,64.1567323 L61.8076887,64.548205 L61.8869782,64.7528032 L62.0396495,64.9070291 L62.1553189,65.0481956 L62.1176953,65.2304061 L60.9504287,66.8992179 L60.6867521,67.412268 L60.5822765,67.9290493 L60.54372,68.4707057 L60.4383115,69.0039668 L60.29217,69.4862339 L60.1034298,69.8780175 L59.1609724,70.7483369 L58.9342976,71.0707811 L58.4523415,71.4634976 L58.3413361,71.7200226 L58.2775935,72.5772826 L58.1202582,73.5959201 L57.977226,74.0797418 L57.7250542,74.4970225 L57.110327,75.0965137 L56.9256289,75.4469424 L56.8202205,76.0918308 L56.6880712,80.2665033 L56.7567888,81.1896825 L56.7154339,81.7428437 L56.4996419,82.2061434 L56.314633,82.4272213 L56.1790634,82.6470555 L56.093866,82.8967398 L56.0686799,83.2126543 L56.0842269,83.2816828 L56.1262037,83.3286347 L56.1678696,83.4013945 L56.1896354,83.5459813 L56.1520117,83.6893244 L56.0686799,83.8112127 L55.9467917,83.9449166 L55.8357863,84.9439649 L55.8357863,85.2433996 L55.9467917,85.8742957 L55.8998398,86.4287007 L55.5895223,87.7959013 L55.5155187,88.9103081 L55.3466786,89.3123528 L54.9150947,89.47031 L54.610685,89.6444361 L54.4894186,90.0719778 L54.364421,91.1257514 L54.2266748,91.471827 L54.1013662,91.7258645 L54.0105719,92.0100631 L54,92.4484877 L54.0379346,92.8262791 L54.1047866,93.0992839 L54.2120607,93.3387072 L54.364421,93.607048 L55.1268444,94.4008763 L55.4738528,94.9011778 L55.5895223,95.603279 L55.5895223,95.608254 L55.6262131,95.608254 C57.0705267,95.6573825 58.5148403,95.7061999 59.9594648,95.752219 C62.7181193,95.8399039 65.4767738,95.9325638 68.2351173,96.0277113 C70.9126166,96.1203712 73.5907378,96.1959295 76.2679261,96.2938754 L76.4476491,96.2640253 L76.5891265,96.1953076 L76.853425,95.9963064 L77.1108829,95.7369829 L77.3518609,95.4291529 L77.4896071,95.3368039 L77.6730613,95.2572034 L78.0213135,95.151484 L78.2311976,95.0532272 L78.4143409,94.8473853 L78.4886554,94.6838312 L78.6512767,94.2307924 L78.7877791,93.9733346 L78.8620937,93.8629511 L79.0259587,93.6611514 L79.1195515,93.5781306 L79.2159427,93.5112786 L79.3574201,93.4565533 L79.5368322,93.427325 L79.8412419,93.4438048 L80.04584,93.483916 L80.2448412,93.483916 L80.4136813,93.427325 L80.6459531,93.2566192 L80.7765476,93.1232262 L81.0411571,92.7989164 L81.1297748,92.7130971 L81.3241119,92.5722416 L83.0548007,91.8017337 L83.2183548,91.7942712 L83.4288608,91.8306511 L84.028663,92.0884199 L84.4024121,92.1860548 L85.0379723,92.0243663 L85.0799491,91.6381796 L85.2375954,91.1366343 L85.6169415,90.2827947 L86.5681052,88.772251 L86.7223311,88.3758033 L86.79478,88.2666635 L86.9272402,87.9495053 L87,87.6180439 L86.9051635,87.4653727 L86.4953453,87.5085932 Z" id="Fill-1"></path>
            </g>
        </g>
    </g>
</svg>