<?xml version="1.0" encoding="UTF-8" standalone="no"?>
<svg width="73px" height="46px" viewBox="0 0 73 46" version="1.1" xmlns="http://www.w3.org/2000/svg" xmlns:xlink="http://www.w3.org/1999/xlink">
    <!-- Generator: Sketch 46.2 (44496) - http://www.bohemiancoding.com/sketch -->
    <title>Fill 1</title>
    <desc>Created with Sketch.</desc>
    <defs></defs>
    <g id="Page-1" stroke="none" stroke-width="1" fill="none" fill-rule="evenodd">
        <g id="The-50-States" transform="translate(-156.000000, -1650.000000)" fill="#4A4A4A">
            <g id="South-Dakota" transform="translate(122.000000, 1598.000000)">
                <g id="Page-1" transform="translate(34.000000, 52.000000)">
                    <path d="M72.9491439,8.83955058 L72.8834731,8.70113801 L72.6192423,8.18519626 L72.5250479,8.08293953 L72.2979642,7.8846369 L72.1933775,7.76374771 L71.9114576,7.55457614 L71.5028396,7.4270325 L70.7411032,7.34340824 L70.548071,7.16950526 L70.3346964,6.76291831 L69.9848946,5.92978108 L69.789209,5.61147652 L69.314257,5.05538625 L69.0584285,4.70957662 L69.0986712,4.41877712 L69.216967,4.1290867 L69.2886078,4.04368792 L69.3768321,3.97093259 L69.7399007,3.70453274 L69.962341,3.44922365 L70.0611788,3.36071945 L70.7605612,2.9481435 L71.019043,2.7369756 L71.1132374,2.63871154 L71.1893005,2.52869129 L71.2237942,2.46702671 L71.5136742,1.78605459 L71.7075909,1.42737969 L71.7719349,1.18870672 L71.8575059,0.345809625 L71.882934,0.274163372 L71.9174277,0.200520783 L71.9486047,0.147285177 L72.0080843,0.00399267046 L64.3991222,0.00399267046 C62.4495634,0.00399267046 60.4997834,0.00310541036 58.5502246,0.00310541036 L52.5427885,0.00310541036 C50.7166111,0.00310541036 48.8904337,0.00399267046 47.0644773,0.00310541036 C44.979597,0.00199633523 42.8949377,0.00199633523 40.8100573,0.00199633523 L29.4028054,0.00199633523 C27.4121194,0.00199633523 25.4216546,0 23.4311897,0 L0.252732874,0 C0.254280669,0.407917832 0.255828464,0.816057479 0.257597373,1.22397531 C0.265115237,3.1650786 0.2774976,5.10618189 0.285236576,7.04728518 C0.29275444,8.95178899 0.305800144,10.856071 0.312433552,12.760353 L0.306463484,12.9300415 L0,12.9282669 C0.00331670438,14.0555309 0.00685452238,15.1827949 0.0108345676,16.3102806 C0.0174679764,18.2167808 0.0216691353,20.1232809 0.0274180895,22.0297811 C0.0333881574,24.0418652 0.0378104299,26.0537275 0.0448860659,28.0658116 C0.0515194747,29.96233 0.0597006788,31.8586267 0.0630173832,33.7551451 C0.0663340875,35.7312952 0.0751786325,37.7074453 0.0822542686,39.6833735 L12.5112723,39.6833735 C14.4037838,39.6833735 16.2965164,39.6844826 18.1890279,39.6844826 L29.8894765,39.6844826 C31.9414109,39.6844826 33.9933454,39.6855917 36.0452798,39.6855917 L47.6382672,39.6855917 C49.5730114,39.6855917 51.5079767,39.6862571 53.442721,39.6862571 L53.4743402,39.7119877 L53.6673724,39.9535442 L53.7407821,40.0223069 L54.7521559,40.6939628 L54.8100876,40.7081589 L54.92374,40.7137043 L54.9776918,40.7267914 L55.3779074,41.0036165 L55.7756908,41.3642878 L57.1054682,41.9436686 L57.2051904,42.0516925 L57.2445486,42.2060758 L57.3588644,42.2819365 L58.0465278,42.5234931 L58.307663,42.5470055 L58.5663659,42.5234931 L58.6713949,42.4664866 L58.8699549,42.2925837 L58.9325301,42.2553187 L58.9701194,42.1912142 L59.0923952,41.8436301 L59.1235722,41.6688398 L59.2060476,41.5588196 L59.3135088,41.4878388 L59.4276035,41.4330504 L59.6664062,41.3762658 L60.3224503,41.5302054 L60.7180226,41.4330504 L60.8391928,41.4576719 L61.0362051,41.5763429 L61.1472041,41.6195969 L61.3738456,41.6049571 L61.752171,41.4015527 L61.9655457,41.3514225 L62.6618325,41.5233292 L62.9234099,41.5302054 L64.8409072,41.1717523 L65.0828055,41.2090173 L65.2813656,41.3121612 L65.4467586,41.4694281 L65.7370808,41.8516154 L66.0855558,42.185447 L66.290307,42.3369467 L66.5151796,42.4507378 L66.7429266,42.5057479 L67.2446335,42.5234931 L67.3388279,42.5507764 L67.5526447,42.6687819 L67.8137799,42.7217957 L67.9050998,42.7916675 L67.9723184,42.8810589 L68.0724829,42.9713376 L68.2487104,43.0341113 L69.1154758,43.1002122 L69.2857333,43.2033562 L69.4172959,43.3475359 L69.524536,43.5079082 L69.5871112,43.6354518 L69.6185093,43.7279487 L69.6695866,43.7984859 L69.7861135,43.8652522 L69.9083893,43.8916482 L70.3092683,43.8652522 L70.4081061,43.8792265 L70.5423221,43.9204841 L70.6586278,43.9892468 L70.7063884,44.0895072 L70.6783069,44.2092873 L70.6183851,44.3015623 L70.5704035,44.4106953 L70.5765947,44.5806057 L70.690026,44.7347671 L71.0873671,45.0433118 L71.1729381,45.2522615 L71.2100852,45.5057961 L71.3148931,45.6839136 L71.4796227,45.7917157 L72.7189646,46 L72.7240502,45.5392902 L72.6563894,45.3811361 L72.6024377,45.3458675 L72.5566672,45.2731122 L72.5476015,45.191706 L72.5566672,45.0854566 L72.542737,45.0078214 L72.5142134,44.9321825 L72.4516382,44.810406 L72.4175867,44.757614 L72.377344,44.7123638 L72.3320157,44.6766516 L72.1648538,44.5768348 L72.1502603,44.5393481 L72.1531348,44.505854 L72.1812162,44.4539493 L72.1933775,44.4370913 L72.2979642,44.3488089 L72.3293624,44.2918025 L72.3178645,44.2385669 L72.2893408,44.1875494 L72.2128355,44.0963835 L72.1277067,44.0118719 L71.6133965,43.6219211 L71.5360067,43.5473913 L71.4480035,43.4391455 L71.295214,43.2002507 L71.2463478,43.0636127 L71.2237942,42.9566978 L71.2490012,42.7768059 L71.289465,42.6532549 L71.3714982,42.4682612 L71.5192021,42.2484425 L71.5481679,42.1912142 L71.5731538,42.1237824 L71.593054,42.049918 L71.616492,41.9831517 L71.647448,41.9259234 L71.6837106,41.8771241 L71.7208577,41.8407465 L71.7555725,41.8181213 L71.9061509,41.7524641 L71.9424135,41.7316135 L71.9658516,41.680596 L71.9795606,41.6087279 L71.9886263,41.435934 L72.0049887,41.3565243 L72.0257734,41.299296 L72.0706594,41.2502749 L72.104932,41.2189989 L72.1246112,41.1606616 L72.1471647,41.0577394 L72.1675072,40.7001736 L72.1812162,40.6105603 L72.1933775,40.5803935 L72.3722584,40.3780982 L72.4089633,40.2944739 L72.4456681,40.142087 L72.4312958,39.8836725 L72.4262101,39.8377568 L72.4312958,39.8042627 L72.4343913,39.788292 L72.4770663,39.7226348 L72.5396414,39.5429646 L72.5626372,39.4509114 L72.5535716,39.3896904 L72.536767,39.3504292 L72.5024943,39.3022953 L72.4624728,39.2266564 L72.4624728,39.1539011 L72.4801619,39.0929019 L72.80144,38.7788118 L72.840356,38.7058347 L72.8775031,38.6144469 L72.9807631,38.0851963 L72.9823109,37.9798341 L72.9716975,37.8944353 L72.943616,37.795284 L72.9146501,37.6624168 L72.832617,37.0888032 L72.80144,36.9455107 L72.7760119,36.8825152 L72.7357692,36.8334941 L72.6818175,36.8037709 L72.6192423,36.7980037 L72.5195201,36.8099817 L72.4547338,36.8099817 L72.235168,36.7704986 L72.0845896,36.7784839 L72.0049887,36.7716077 L71.931579,36.7432154 L71.8720994,36.6751181 L71.8544103,36.6025846 L71.8661293,36.5320474 L71.8970852,36.475041 L71.9826562,36.3776642 L72.0107376,36.3306394 L71.9990186,36.2825055 L71.9455091,36.2274954 L71.875195,36.1693799 L71.7947096,36.0258656 L71.7869707,35.9355868 L71.8119565,35.8745877 L71.8776272,35.8648279 L72.0167077,35.8825731 L72.0845896,35.8688205 L72.1363302,35.8364355 L72.1725928,35.7911853 L72.1989053,35.7450477 L72.2296401,35.420976 L72.2327357,34.7382293 L72.2097399,34.5975986 L72.1725928,34.5445848 L72.0080843,34.3522712 L71.931579,34.2449127 L71.7555725,34.0437265 L71.7093598,33.9698621 L71.6613781,33.8447584 L71.6556292,33.7351818 L71.6613781,33.6151799 L71.6837106,33.4701128 L71.6781827,33.3745106 L71.6556292,33.2908863 L71.624231,33.21924 L71.6016774,33.1300704 L71.63595,33.0974636 L73,33.0810493 L73,15.0366188 C73,12.9852734 72.9971255,10.9339281 72.9971255,8.8825827 L72.9491439,8.83955058 Z" id="Fill-1"></path>
                </g>
            </g>
        </g>
    </g>
</svg>